<?xml version="1.0" encoding="UTF-8" standalone="no"?>
<!-- Created with Inkscape (http://www.inkscape.org/) -->

<svg
   version="1.1"
   id="svg1049"
   width="1505"
   height="1505"
   viewBox="0 0 1505 1505"
   sodipodi:docname="logo-with-name-slogan.svg"
   inkscape:version="1.2.2 (732a01da63, 2022-12-09)"
   xmlns:inkscape="http://www.inkscape.org/namespaces/inkscape"
   xmlns:sodipodi="http://sodipodi.sourceforge.net/DTD/sodipodi-0.dtd"
   xmlns="http://www.w3.org/2000/svg"
   xmlns:svg="http://www.w3.org/2000/svg">
  <defs
     id="defs1053">
    <rect
       x="262.77778"
       y="836.1111"
       width="992.47474"
       height="123.78788"
       id="rect478" />
  </defs>
  <sodipodi:namedview
     id="namedview1051"
     pagecolor="#ffffff"
     bordercolor="#000000"
     borderopacity="0.25"
     inkscape:showpageshadow="2"
     inkscape:pageopacity="0.0"
     inkscape:pagecheckerboard="0"
     inkscape:deskcolor="#d1d1d1"
     showgrid="false"
     inkscape:zoom="0.46046512"
     inkscape:cx="965.32828"
     inkscape:cy="498.40909"
     inkscape:window-width="1500"
     inkscape:window-height="938"
     inkscape:window-x="-6"
     inkscape:window-y="-6"
     inkscape:window-maximized="1"
     inkscape:current-layer="svg1049" />
  <rect
     style="fill:#686963;fill-opacity:1;stroke-width:0.983201"
     id="rect2991"
     width="1172.7273"
     height="1051.111"
     x="162.87878"
     y="82.525253"
     inkscape:label="rect2991" />
  <g
     inkscape:groupmode="layer"
     id="layer1"
     inkscape:label="background" />
  <g
     inkscape:groupmode="layer"
     inkscape:label="Image"
     id="g1055">
    <path
       style="fill:#db5461;fill-opacity:1;stroke-width:0.5"
       d="m 533.09359,746.98 c -21.78688,-3.6474 -31.44224,-23.7865 -26.53622,-55.34903 1.77531,-11.42135 9.63464,-37.61335 14.55645,-48.51085 0.65575,-1.4519 1.19227,-2.7459 1.19227,-2.8755 0,-0.4316 7.34851,-16.89795 10.25751,-22.9847 3.76117,-7.8698 9.30192,-18.35725 9.56146,-18.0977 0.11276,0.11275 -0.93348,3.7809 -2.32497,8.15135 -1.3915,4.3705 -2.95926,9.29635 -3.48392,10.94635 -1.35164,4.2508 -6.28778,21.3755 -7.27823,25.25 -0.45695,1.7875 -0.92173,3.5875 -1.03285,4 -5.4261,20.1429 -8.15454,39.94865 -7.47884,54.28905 0.53206,11.292 2.38571,17.55805 6.56137,22.18003 2.83041,3.1329 4.28543,3.7195 9.21847,3.7163 3.69366,0 5.06814,-0.2829 10.5,-2.1427 18.4367,-6.31273 40.79483,-22.09563 70.47048,-49.74603 12.05717,-11.2343 41.32717,-41.65455 51.84259,-53.87985 1.34031,-1.55825 5.46371,-6.28325 9.1631,-10.5 12.99171,-14.80855 38.74736,-46.39871 51.3727,-63.01032 6.55849,-8.62925 28.72869,-38.19092 29.95345,-39.93983 0.85377,-1.21916 4.46119,-6.26665 8.01648,-11.21665 7.02781,-9.78475 14.53871,-20.49505 20.16174,-28.75 3.74563,-5.49881 18.9059,-28.20246 19.76946,-29.60624 0.275,-0.44704 2.95828,-4.59977 5.96284,-9.22828 7.69442,-11.8532 9.34506,-14.4413 11.74507,-18.41548 1.16252,-1.925 3.47768,-5.6375 5.14482,-8.25 3.64427,-5.71076 14.39727,-23.44056 14.39727,-23.73855 0,-0.11623 0.64424,-1.17885 1.43164,-2.36139 0.78741,-1.18253 2.00003,-3.16256 2.69472,-4.40006 0.69469,-1.2375 3.61194,-6.3 6.48274,-11.25 26.37815,-45.48238 49.1813,-91.9632 62.10265,-126.58693 3.8162,-10.22583 8.52175,-24.76923 10.00205,-30.91307 0.4638,-1.925 1.03995,-4.175 1.28035,-5 2.2282,-7.64658 4.0783,-20.04351 4.07255,-27.28894 -0.0145,-18.4318 -5.7999,-23.29412 -22.61735,-19.00878 -3.13465,0.79875 -7.4334,2.14258 -9.55285,2.98628 -4.60015,1.83124 -18.3308,8.75691 -22.8965,11.54889 -1.7875,1.09308 -3.5875,2.14502 -4,2.33765 -4.0214,1.8779 -30.69712,20.75372 -39.25,27.7734 -1.65,1.35421 -5.03085,4.0798 -7.51299,6.05685 -2.48214,1.97706 -5.71562,4.60715 -7.18552,5.84465 -8.03877,6.76781 -14.24456,12.09811 -17.80149,15.29014 -2.2,1.9743 -4.88486,4.34794 -5.96634,5.27475 -3.18961,2.73341 -12.08631,10.74003 -18.52167,16.66863 -6.49433,5.98293 -6.43784,5.53265 0.40567,-3.23352 19.48953,-24.96506 35.58947,-42.40955 64.83234,-70.24667 10.56575,-10.05783 31.58345,-25.8982 43.07205,-32.46199 4.1451,-2.36821 12.5952,-6.32778 17.045,-7.98698 22.8973,-8.53769 42.03895,-2.23647 50.84735,16.7384 4.00205,8.6211 5.2842,17.04509 4.88745,32.1116 -0.34925,13.26101 -1.5725,21.3791 -5.92855,39.34564 -3.25145,13.41049 -10.32225,36.20433 -14.79585,47.69669 l -1.3417,3.44669 1.21875,0.80331 c 2.6867,1.77093 8.31475,7.97341 9.6501,10.63503 3.0509,6.0811 2.8464,-4.06161 2.85655,141.66828 0.009,122.05588 -0.0607,133.73574 -0.80715,136.25 -2.7992,9.42855 -9.8412,16.35445 -19.07555,18.76108 -2.5063,0.65317 -14.41755,0.75132 -92.12845,0.75887 -49.0875,0.005 -89.47988,0.171 -89.76085,0.36935 -0.28096,0.1984 -1.34971,1.35745 -2.375,2.5757 -1.84033,2.1867 -1.86415,2.2707 -1.86415,6.5748 v 4.3598 l 3.625,0.7897 c 1.99375,0.4343 18.5875,3.93985 36.875,7.7901 18.2875,3.85025 34.7125,7.3288 36.5,7.73005 1.7875,0.40125 9.8875,2.1144 18,3.80705 8.1125,1.6926 14.97675,3.14085 15.25395,3.21835 0.52175,0.14585 4.54465,20.6332 4.1325,21.0454 -0.12785,0.12785 -36.55198,0.23675 -80.94249,0.24205 l -80.71003,0.01 -14.24197,14.27915 c -40.85747,40.9641 -70.81636,64.6775 -104.64713,82.83133 -15.63038,8.3874 -33.69853,12.7294 -45.05733,10.8277 z M 851.55094,631.38492 c -1.41323,-6.86395 -1.8716,-8.34765 -2.65479,-8.5934 -0.46203,-0.145 -6.24006,-1.38805 -12.84006,-2.76235 -6.6,-1.3743 -16.8375,-3.53085 -22.75,-4.7923 -5.9125,-1.2615 -14.35,-3.04845 -18.75,-3.97105 -4.4,-0.9226 -18.71346,-3.9451 -31.80768,-6.71665 -13.09423,-2.7716 -23.95048,-5.03925 -24.125,-5.03925 -0.17453,0 -0.31732,-1.35 -0.31732,-3 0,-1.65 -0.16875,-2.9876 -0.375,-2.9725 -0.20625,0.015 -2.0625,2.0632 -4.125,4.55125 -2.0625,2.488 -3.98607,4.7819 -4.27461,5.09745 -0.58453,0.63935 -9.24719,10.3232 -12.366,13.8238 -1.10254,1.2375 -4.26698,4.725 -7.0321,7.75 -2.76511,3.025 -5.58703,6.11875 -6.27093,6.875 l -1.24345,1.375 h 74.63327 74.63327 z m 78.2894,-57.66913 c 5.41485,-1.58338 10.13895,-5.70061 12.8577,-11.20587 l 1.35805,-2.75 0.14595,-26.125 0.1459,-26.125 h -10.5011 -10.5011 l -0.1448,21.98261 c -0.12625,19.15927 -0.24545,22.08313 -0.92805,22.76534 -0.7038,0.70338 -8.4193,0.7827 -76.10744,0.7825 l -75.32424,-2.4e-4 -5.27266,6.6099 c -2.89997,3.63544 -6.45723,8.07239 -7.90503,9.85989 -1.4478,1.7875 -2.93555,3.64375 -3.30612,4.125 -0.64108,0.83256 3.53245,0.875 86.04671,0.875 77.75333,0 87.00128,-0.0821 89.43623,-0.79413 z m -12.78425,-46.20587 v -19.75 l -37.43415,-0.1282 -37.43415,-0.1282 -1.95264,2.21831 c -3.3685,3.82682 -8.1818,4.29165 -11.77464,1.1371 -3.21733,-2.82486 -4.01591,-6.75369 -2.15438,-10.5991 2.65375,-5.48191 11.87493,-5.77359 14.73324,-0.46603 l 0.91718,1.7031 37.54979,-0.11849 37.54975,-0.11849 v -30 -30 l -1.4298,-0.1635 c -1.2856,-0.14701 -3.1511,1.55523 -18.4935,16.875 l -17.06365,17.0385 h -11.6935 -11.6935 l -1.92085,2.18223 c -2.40425,2.73135 -4.23765,3.51394 -7.49824,3.20064 -4.53418,-0.43567 -7.05365,-3.21938 -7.36694,-8.13958 -0.18673,-2.93255 -0.0748,-3.41889 1.15956,-5.03719 1.94288,-2.54724 4.07612,-3.70203 6.84287,-3.70423 3.2283,-0.002 4.51465,0.59071 6.9946,3.22605 l 2.1381,2.27208 h 10.2591 10.25905 l 13.62835,-13.62159 c 7.4956,-7.49188 13.62835,-13.78941 13.62835,-13.99451 0,-0.48257 -54.57316,-0.48187 -55.30139,5e-4 -0.30326,0.20117 -4.32654,6.2156 -8.94061,13.3656 -4.61408,7.15 -8.82403,13.62902 -9.35546,14.39783 -0.53143,0.76881 -4.06275,5.94381 -7.84737,11.5 -8.80964,12.93341 -18.16414,26.22219 -26.46965,37.60217 -3.61269,4.95 -6.57234,9.39375 -6.57702,9.875 -0.008,0.81341 1.01207,0.875 14.4915,0.875 10.94444,0 14.5,-0.14713 14.5,-0.6 0,-0.46667 0.13333,-0.46667 0.6,0 0.43819,0.43819 4.38889,0.6 14.65,0.6 10.26111,0 14.2118,-0.16181 14.65,-0.6 0.46666,-0.46667 0.6,-0.46667 0.6,0 0,0.8619 28.5381,0.8619 29.4,0 0.46665,-0.46667 0.6,-0.46667 0.6,0 0,1.34558 2.4641,0.58033 3.809,-1.18293 4.93815,-6.47422 14.7225,-3.95623 15.5437,4.00013 0.24035,2.32906 0.0932,3.03722 -1.02905,4.95222 -3.13195,5.34424 -10.7634,5.8195 -14.17955,0.88304 l -1.3941,-2.01451 -49.00338,-0.019 -49.00337,-0.019 -4.37163,5.71758 c -2.40439,3.14467 -4.37162,5.95321 -4.37162,6.24121 0,0.36291 21.67659,0.48796 70.625,0.40741 l 70.625,-0.1162 z m 27.25,-56.23723 v -30.18225 l -10.5,-0.0483 -10.5,-0.0483 v 30.26414 30.26414 l 10.5,-0.0336 10.5,-0.0335 v -30.18224 z m -27.13525,-94.11461 c 0.0631,-31.68102 -0.0736,-57.71822 -0.30375,-57.86045 -0.2301,-0.14223 -1.6042,2.2661 -3.0535,5.35184 -3.92965,8.36671 -14.5139,29.45027 -19.63405,39.11045 -4.85985,9.16908 -16.59285,30.3755 -17.69725,31.98625 -0.3719,0.54244 -0.6762,1.16119 -0.6762,1.375 0,0.21381 2.98125,0.38008 6.625,0.36949 l 6.625,-0.0193 1,-1.58709 c 1.5809,-2.50902 4.0058,-3.87439 6.88085,-3.87439 7.393,0 11.5114,8.38635 6.77025,13.78623 -2.0796,2.36857 -3.8683,3.21377 -6.80125,3.21377 -1.93435,0 -2.8902,-0.31903 -4.54295,-1.51627 -1.15125,-0.83395 -2.3461,-2.07145 -2.6553,-2.75 l -0.5621,-1.23374 h -8.5777 -8.57765 l -1.1753,2.125 c -0.6464,1.16875 -4.7727,8.0875 -9.1696,15.375 -4.3969,7.2875 -8.08625,13.42042 -8.1986,13.62871 -0.11235,0.20829 14.1538,0.32079 31.70255,0.25 l 31.9068,-0.12871 z m 27.01525,-14.52316 -0.13,-72.375 -1.1679,-2.89363 c -1.2747,-3.15826 -6.96155,-9.64656 -8.1173,-9.26131 -0.35755,0.11919 -1.52295,2.34031 -2.58975,4.93583 -1.06685,2.59551 -3.50015,8.3799 -5.40735,12.85421 l -3.4677,8.13511 v 65.48989 65.4899 h 10.505 10.50495 z m -371.755,276.487 c -4.19375,-0.076 -7.625,-0.29305 -7.625,-0.48255 0,-0.18945 0.77365,-4.40235 1.71922,-9.36195 0.94557,-4.95965 1.78932,-9.5746 1.875,-10.2555 0.12737,-1.01225 0.52052,-1.3022 2.15578,-1.59005 1.46164,-0.2573 81.69534,-17.29555 101,-21.4482 4.4996,-0.9679 4.61599,-0.7845 1.67447,2.63835 -11.42336,13.2927 -18.12601,20.77495 -34.45061,38.4577 l -1.77614,1.92395 -28.47386,0.1281 c -15.66063,0.0705 -31.90511,0.0661 -36.09886,-0.01 z m 106.875,-53.59835 v -4.9864 l -74.37886,-0.005 c -67.29539,-0.005 -74.64039,-0.0823 -77.125,-0.81984 -9.17046,-2.72243 -15.4835,-8.93825 -18.25981,-17.97861 l -1.23633,-4.02541 v -62.85723 -62.85723 l 13.625,0.13303 13.625,0.13304 0.25,59.85007 c 0.20125,48.17941 0.37674,59.9768 0.89997,60.5 0.52734,0.52731 16.88442,0.67154 86.69788,0.76447 47.32635,0.063 86.13183,0.19848 86.23441,0.30106 0.23815,0.23814 -9.23617,12.20615 -20.83226,26.31544 -2.6125,3.17871 -5.60882,6.84586 -6.65848,8.14921 -1.04966,1.30335 -2.11841,2.36975 -2.375,2.36975 -0.25751,0 -0.46652,-2.234 -0.46652,-4.98635 z M 542.04186,546.90314 c -0.13736,-0.35796 -0.19035,-8.07412 -0.11776,-17.14703 l 0.13199,-16.49619 57.72244,-0.12711 57.72244,-0.12711 11.04187,11.00211 11.04186,11.00211 h 22.1107 c 15.53499,0 22.11069,0.16102 22.11069,0.54142 0,0.29779 -1.91473,2.98198 -4.25495,5.96488 l -4.25494,5.42345 -7.87006,0.17682 c -4.32853,0.0973 -43.25456,0.23546 -86.50229,0.30714 -64.20145,0.10642 -78.67808,0.0109 -78.88199,-0.52049 z m 132.38318,-25.52409 c -4.19042,-4.19697 -7.61895,-7.79697 -7.61895,-8 0,-0.20302 16.5375,-0.36913 36.75,-0.36913 25.12682,0 36.75,0.16459 36.75,0.52039 0,0.28622 -2.06233,3.25147 -4.58295,6.58945 -2.52062,3.33798 -4.89959,6.7038 -5.28662,7.4796 l -0.70367,1.41056 H 705.88842 682.04399 Z M 542.03653,506.38613 c -0.1315,-0.34442 -0.1809,-17.16371 -0.10977,-37.37621 l 0.12933,-36.75 22.25,-0.12965 22.25,-0.12965 12.24617,12.25465 12.24617,12.25465 h 40.58682 40.58681 l 1.59075,2.00849 c 0.87492,1.10467 2.06978,2.26486 2.65526,2.5782 6.03092,3.22765 13.06411,-0.90126 12.98364,-7.62219 -0.0552,-4.60914 -3.2385,-7.97408 -7.91016,-8.36149 -2.25728,-0.18719 -3.05905,-0.008 -4.96115,1.1063 -1.24781,0.73127 -2.61327,1.99583 -3.03437,2.81013 l -0.76562,1.48056 h -39.61737 -39.61737 l -8.86979,-8.88007 c -4.87839,-4.88404 -8.86979,-9.04654 -8.86979,-9.25 0,-0.20346 14.68125,-0.36993 32.625,-0.36992 l 32.625,2e-5 1.4278,1.78944 c 2.09995,2.63185 4.15639,3.70785 7.0722,3.70043 3.38217,-0.009 6.08198,-1.58972 7.58749,-4.44354 1.44031,-2.73025 1.47447,-5.0862 0.11448,-7.89557 -2.83316,-5.85253 -11.22436,-6.29566 -14.70197,-0.7764 l -1,1.58709 -59.88157,0.0193 -59.88156,0.0193 0.13156,-17.125 0.13157,-17.125 18.78739,-0.13093 18.78739,-0.13093 1.21261,1.83597 c 1.78441,2.70173 4.08683,3.7777 7.59433,3.549 5.44798,-0.35522 9.02261,-5.00496 7.84881,-10.20942 -1.64321,-7.2858 -11.35986,-9.16989 -15.4393,-2.99374 l -1.20877,1.83005 h -18.91623 -18.91623 v -16 -16 h 30.3868 30.3868 l 25.02233,25 25.02232,25 h 81.34088 c 44.73747,0 81.34087,0.14219 81.34087,0.31598 0,0.17379 -0.50625,1.12686 -1.125,2.11794 -0.61875,0.99107 -1.35,2.19758 -1.625,2.68113 -1.09414,1.92389 -15.96332,24.69175 -16.65997,25.50995 -0.68678,0.80659 -2.31229,0.87451 -20.79253,0.86881 l -20.0475,-0.006 -1.1219,-1.73207 c -3.40117,-5.25097 -11.81902,-4.7618 -14.68362,0.85328 -1.30808,2.56403 -1.12727,6.73816 0.37927,8.75601 3.69345,4.94697 9.39778,5.19213 13.74789,0.59085 l 2.32164,-2.45568 h 9.27385 c 5.10062,0 9.38712,0.18327 9.52556,0.40728 0.13844,0.224 -7.20465,7.874 -16.31799,17 l -16.56971,16.59272 h -63.14623 -63.14622 l -1.21388,-1.92292 c -2.0365,-3.22602 -6.68186,-4.76605 -10.08601,-3.3437 -3.67276,1.53457 -5.71265,4.39718 -5.71265,8.01662 0,4.69467 4.0382,8.77087 8.65755,8.73902 2.47393,-0.0171 5.65155,-1.70946 6.93826,-3.69532 l 1.15419,-1.78132 64.70003,-0.006 64.70004,-0.006 19.93369,-19.875 19.93368,-19.875 2.81415,-0.15213 c 1.54779,-0.0837 3.03147,0.0652 3.29707,0.33079 0.31055,0.31055 -2.61547,5.04879 -8.19788,13.27524 -7.61993,11.22902 -21.71215,31.64445 -22.81082,33.0461 -0.21556,0.275 -1.96198,2.701 -3.88094,5.39111 -1.91896,2.69011 -4.95627,6.85261 -6.74958,9.25 l -3.26056,4.35889 -101.62967,0.12621 c -81.04071,0.10064 -101.67811,-5e-4 -101.86877,-0.5 z m -33.73044,-97.63425 v -17.25803 l 13.625,0.13303 13.625,0.13304 0.13156,17.125 0.13157,17.125 h -13.75657 -13.75656 z m 125.47902,-33.0118 c -11.95096,-11.97341 -21.82277,-21.87341 -21.93736,-22 -0.11458,-0.12659 13.16042,-0.22162 29.5,-0.21119 l 29.70834,0.019 1.30657,1.89158 c 2.41653,3.49854 6.70556,4.50097 10.79263,2.52245 5.35603,-2.59281 6.27594,-10.23345 1.69605,-14.08717 -4.03128,-3.3921 -9.40373,-2.60577 -12.82274,1.87679 l -1.34407,1.76216 -64.31422,-0.1269 -64.31422,-0.12688 v -22.5 -22.5 l 86.25063,-0.12641 86.25062,-0.12641 22.99734,23.00141 22.99733,23.00141 h 43.79371 c 24.08653,0 43.92168,0.12798 44.0781,0.2844 0.22502,0.22501 -7.20775,13.25908 -15.8158,27.73454 -0.57856,0.97292 -1.31449,2.21042 -1.63539,2.75 -0.3209,0.53958 -3.0209,4.96725 -6,9.83925 l -5.41654,8.8582 -55.375,0.0168 c -30.45625,0.009 -55.37357,-0.15194 -55.37181,-0.35819 0.002,-0.20625 4.55801,-4.94423 10.125,-10.52884 l 10.12181,-10.15384 30.25,0.0353 c 21.35992,0.0249 30.30402,0.19543 30.43382,0.58032 0.35185,1.0433 3.48091,3.93445 4.80169,4.43662 7.17183,2.72672 14.28653,-5.09284 10.81769,-11.88942 -1.1827,-2.3173 -2.30535,-3.34363 -4.7955,-4.38408 -3.60608,-1.50672 -8.86215,0.40985 -10.23884,3.73347 l -0.64018,1.54552 h -31.792 -31.79199 l -13.4965,13.5 -13.4965,13.5 h -21.79682 -21.79682 z m -125.47902,-6.20626 v -15.99217 l 5.875,-0.14086 c 3.23125,-0.0775 9.42189,-0.0738 13.75699,0.008 l 7.88199,0.14894 -0.13199,15.85106 -0.13199,15.85108 -13.625,0.13303 -13.625,0.13304 z m 0.34133,-22.34924 c -0.55184,-0.55183 -0.40165,-54.22009 0.16001,-57.18174 0.8704,-4.58958 3.73514,-9.76389 7.47796,-13.50671 3.27474,-3.27473 4.94337,-4.28319 11.0207,-6.66048 l 2.75,-1.07573 179.46889,-0.13111 c 98.70789,-0.0721 179.63836,0.0404 179.84551,0.25 0.3497,0.35383 -6.4987,15.39003 -10.6492,23.38111 l -1.81785,3.5 -169.72183,0.25 c -142.38245,0.20973 -169.85429,0.35992 -170.54405,0.93237 -0.73944,0.61369 -0.83525,3.18052 -0.95184,25.5 l -0.12963,24.81763 -13.28367,0.13299 c -7.30602,0.0732 -13.43727,-0.0206 -13.625,-0.20833 z m 234.78367,-24.79945 c -10.79375,-10.79644 -19.625,-19.7976 -19.625,-20.00256 0,-0.20496 33.6375,-0.37265 74.75,-0.37265 55.1114,0 74.75,0.14803 74.75,0.56344 0,0.3099 -0.8709,2.16615 -1.9354,4.125 -1.06445,1.95886 -3.40835,6.37406 -5.2087,9.81156 -1.8003,3.4375 -5.626,10.525 -8.5015,15.75 l -5.22825,9.5 -44.68807,0.12756 -44.68808,0.12755 z"
       id="path3032" />
    <text
       xml:space="preserve"
       id="text476"
       style="white-space:pre;shape-inside:url(#rect478);fill:#070803"
       inkscape:label="text476" />
    <g
       id="g544"
       transform="translate(-319.24242,-17.373737)">
      <text
         xml:space="preserve"
         style="font-style:italic;font-variant:normal;font-weight:normal;font-stretch:normal;font-size:106.667px;font-family:'Segoe Print';-inkscape-font-specification:'Segoe Print Italic';fill:#db5461;fill-opacity:1"
         x="629.79797"
         y="877.37378"
         id="text484"><tspan
           id="tspan482"
           x="629.79797"
           y="877.37378"
           sodipodi:role="line"
           style="font-size:106.667px;fill:#db5461;fill-opacity:1">RS Norte Digital</tspan></text>
    </g>
    <text
       xml:space="preserve"
       style="font-style:italic;font-variant:normal;font-weight:normal;font-stretch:normal;font-size:53.3333px;font-family:'Segoe Print';-inkscape-font-specification:'Segoe Print Italic';fill:#e3f2fd;fill-opacity:1"
       x="288.83838"
       y="966.41412"
       id="text857"><tspan
         sodipodi:role="line"
         id="tspan855"
         x="288.83838"
         y="966.41412">Seu computador sempre tem jeito</tspan></text>
  </g>
</svg>
