<?xml version="1.0" encoding="UTF-8" standalone="no"?>
<!-- Created with Inkscape (http://www.inkscape.org/) -->

<svg
   version="1.1"
   id="svg1049"
   width="1505"
   height="1505"
   viewBox="0 0 1505 1505"
   sodipodi:docname="logo.svg"
   inkscape:version="1.2.2 (732a01da63, 2022-12-09)"
   xmlns:inkscape="http://www.inkscape.org/namespaces/inkscape"
   xmlns:sodipodi="http://sodipodi.sourceforge.net/DTD/sodipodi-0.dtd"
   xmlns="http://www.w3.org/2000/svg"
   xmlns:svg="http://www.w3.org/2000/svg">
  <defs
     id="defs1053" />
  <sodipodi:namedview
     id="namedview1051"
     pagecolor="#ffffff"
     bordercolor="#000000"
     borderopacity="0.25"
     inkscape:showpageshadow="2"
     inkscape:pageopacity="0.0"
     inkscape:pagecheckerboard="0"
     inkscape:deskcolor="#d1d1d1"
     showgrid="false"
     inkscape:zoom="0.46046512"
     inkscape:cx="653.68687"
     inkscape:cy="752.5"
     inkscape:window-width="1500"
     inkscape:window-height="938"
     inkscape:window-x="-6"
     inkscape:window-y="-6"
     inkscape:window-maximized="1"
     inkscape:current-layer="g1055" />
  <g
     inkscape:groupmode="layer"
     inkscape:label="Image"
     id="g1055">
    <path
       style="fill:#db5461;fill-opacity:1"
       d="m 364.575,1333.9402 c -43.57375,-7.2948 -62.88447,-47.573 -53.07243,-110.6981 3.55062,-22.8427 19.26927,-75.2267 29.1129,-97.0217 1.31149,-2.9038 2.38453,-5.4918 2.38453,-5.751 0,-0.8632 14.69703,-33.7959 20.51503,-45.9694 7.52233,-15.7396 18.60384,-36.7145 19.12292,-36.1954 0.22552,0.2255 -1.86696,7.5618 -4.64995,16.3027 -2.783,8.741 -5.91852,18.5927 -6.96783,21.8927 -2.70328,8.5016 -12.57556,42.751 -14.55647,50.5 -0.91389,3.575 -1.84345,7.175 -2.06569,8 -10.85221,40.2858 -16.30908,79.8973 -14.95769,108.5781 1.06412,22.584 4.77143,35.1161 13.12274,44.36 5.66082,6.2659 8.57087,7.439 18.43694,7.4327 7.38732,0 10.13629,-0.5658 21,-4.2855 36.8734,-12.6254 81.58967,-44.1912 140.94097,-99.492 24.11434,-22.4686 82.65434,-83.3091 103.68517,-107.7597 2.68062,-3.1165 10.92742,-12.5665 18.32621,-21 25.98341,-29.6171 77.49472,-92.79742 102.74539,-126.02064 13.11698,-17.2585 57.45739,-76.38184 59.9069,-79.87965 1.70755,-2.43832 8.92239,-12.53331 16.03297,-22.43331 14.05561,-19.56949 29.07741,-40.9901 40.32347,-57.5 7.49126,-10.99761 37.81181,-56.40491 39.53892,-59.21248 0.55,-0.89408 5.91656,-9.19953 11.92569,-18.45656 15.38883,-23.7064 18.69011,-28.88259 23.49014,-36.83096 2.32503,-3.85 6.95536,-11.275 10.28964,-16.5 C 966.494,634.57848 988,599.11888 988,598.52291 c 0,-0.23246 1.28848,-2.35771 2.86329,-4.72278 1.57481,-2.36507 4.00006,-6.32513 5.38944,-8.80013 1.38937,-2.475 7.22387,-12.6 12.96547,-22.5 52.7563,-90.96475 98.3626,-183.92639 124.2053,-253.17385 7.6324,-20.45166 17.0435,-49.53846 20.0041,-61.82615 0.9276,-3.85 2.0799,-8.35 2.5607,-10 4.4564,-15.29315 8.1566,-40.08701 8.1451,-54.57788 -0.029,-36.8636 -11.5998,-46.58824 -45.2347,-38.01756 -6.2693,1.59751 -14.8668,4.28517 -19.1057,5.97257 -9.2003,3.66248 -36.6616,17.51381 -45.793,23.09778 -3.575,2.18615 -7.175,4.29003 -8,4.67529 -8.0428,3.75581 -61.39423,41.50745 -78.5,55.5468 -3.3,2.70843 -10.06169,8.1596 -15.02597,12.11371 -4.96428,3.95411 -11.43125,9.21429 -14.37105,11.68929 -16.07754,13.53562 -28.48912,24.19623 -35.60298,30.58029 -4.4,3.9486 -9.76971,8.69588 -11.93268,10.5495 -6.37921,5.46682 -24.17262,21.48005 -37.04333,33.33726 C 840.53532,344.43291 840.6483,343.53235 854.33532,326 893.31439,276.06989 925.51427,241.18091 984,185.50667 c 21.1315,-20.11566 63.1669,-51.7964 86.1441,-64.92398 8.2902,-4.73643 25.1904,-12.65557 34.09,-15.97396 45.7946,-17.075378 84.0779,-4.47294 101.6947,33.47679 8.0041,17.24221 10.5684,34.09019 9.7749,64.22321 -0.6985,26.52201 -3.145,42.7582 -11.8571,78.69127 -6.5029,26.82099 -20.6445,72.40867 -29.5917,95.39338 l -2.6834,6.89338 2.4375,1.60662 c 5.3734,3.54186 16.6295,15.94682 19.3002,21.27007 6.1018,12.1622 5.6928,-8.12322 5.7131,283.33655 0.017,244.11176 -0.1214,267.47148 -1.6143,272.5 -5.5984,18.85711 -19.6824,32.70891 -38.1511,37.52217 -5.0126,1.30633 -28.8351,1.50263 -184.2569,1.51773 -98.175,0.01 -178.95976,0.342 -179.52169,0.7387 -0.56193,0.3968 -2.69943,2.7149 -4.75,5.1514 -3.68066,4.3734 -3.72831,4.5414 -3.72831,13.1496 v 8.7196 l 7.25,1.5794 c 3.9875,0.8686 37.175,7.8797 73.75,15.5802 36.575,7.7005 69.425,14.6576 73,15.4601 3.575,0.8025 19.775,4.2288 36,7.6141 16.225,3.3852 29.9535,6.2817 30.5079,6.4367 1.0435,0.2917 9.0893,41.2664 8.265,42.0908 -0.2557,0.2557 -73.10395,0.4735 -161.88498,0.4841 l -161.42006,0.019 -28.48393,28.5583 c -81.71495,81.9282 -141.63272,129.355 -209.29427,165.6627 -31.26076,16.7748 -67.39705,25.4587 -90.11466,21.6554 z M 1001.4897,1102.75 c -2.82646,-13.7279 -3.7432,-16.6953 -5.30957,-17.1868 -0.92407,-0.29 -12.48013,-2.7761 -25.68013,-5.5247 -13.2,-2.7486 -33.675,-7.0617 -45.5,-9.5846 -11.825,-2.523 -28.7,-6.0969 -37.5,-7.9421 -8.8,-1.8452 -37.42691,-7.8902 -63.61536,-13.4333 C 797.69619,1043.5353 775.98369,1039 775.63464,1039 775.28559,1039 775,1036.3 775,1033 c 0,-3.3 -0.3375,-5.9752 -0.75,-5.945 -0.4125,0.03 -4.125,4.1264 -8.25,9.1025 -4.125,4.976 -7.97214,9.5638 -8.54921,10.1949 -1.16906,1.2787 -18.49439,20.6464 -24.73201,27.6476 -2.20508,2.475 -8.53396,9.45 -14.06419,15.5 -5.53023,6.05 -11.17407,12.2375 -12.54187,13.75 l -2.4869,2.75 h 149.26654 149.26654 z m 156.5788,-115.33826 c 10.8297,-3.16676 20.2779,-11.40122 25.7154,-22.41174 l 2.7161,-5.5 0.2919,-52.25 0.2918,-52.25 h -21.0022 -21.0022 l -0.2896,43.96522 c -0.2525,38.31854 -0.4909,44.16627 -1.8561,45.53068 -1.4076,1.40676 -16.8386,1.56541 -152.21487,1.565 l -150.64848,-4.7e-4 -10.54533,13.21979 C 823.72499,966.5511 816.61047,975.425 813.71487,979 c -2.8956,3.575 -5.87111,7.2875 -6.61224,8.25 -1.28216,1.66512 7.0649,1.75 172.09342,1.75 155.50665,0 174.00255,-0.16423 178.87245,-1.58826 z M 1132.5,895 v -39.5 l -74.8683,-0.2564 -74.8683,-0.25639 -3.90527,4.43662 c -6.737,7.65364 -16.36361,8.5833 -23.54928,2.27419 -6.43467,-5.64971 -8.03183,-13.50738 -4.30876,-21.1982 5.30749,-10.96382 23.74985,-11.54717 29.46647,-0.93206 l 1.83436,3.4062 75.09958,-0.23698 L 1132.5,842.5 v -60 -60 l -2.8596,-0.327 c -2.5712,-0.29402 -6.3022,3.11046 -36.987,33.75 L 1058.5261,790 h -23.387 -23.387 l -3.8417,4.36447 c -4.8085,5.46269 -8.47529,7.02788 -14.99647,6.40128 -9.06837,-0.87135 -14.1073,-6.43876 -14.73389,-16.27917 -0.37346,-5.8651 -0.14955,-6.83778 2.31913,-10.07437 3.88575,-5.09449 8.15223,-7.40406 13.68573,-7.40847 6.4566,-0.005 9.0293,1.18142 13.9892,6.4521 L 1012.4503,778 h 20.5182 20.5181 l 27.2567,-27.24318 C 1095.7345,735.77307 1108,723.17801 1108,722.7678 c 0,-0.96514 -109.14632,-0.96373 -110.60277,0.001 -0.60653,0.40235 -8.65308,12.4312 -17.88123,26.7312 -9.22815,14.3 -17.64806,27.25805 -18.71092,28.79566 -1.06286,1.53762 -8.12549,11.88762 -15.69474,23 -17.61928,25.86683 -36.32828,52.44439 -52.9393,75.20434 -7.22537,9.9 -13.14468,18.7875 -13.15404,19.75 -0.0158,1.62683 2.02414,1.75 28.983,1.75 21.88889,0 29,-0.29425 29,-1.2 0,-0.93333 0.26667,-0.93333 1.2,0 0.87639,0.87639 8.77778,1.2 29.3,1.2 20.52222,0 28.42361,-0.32361 29.3,-1.2 0.93333,-0.93333 1.2,-0.93333 1.2,0 0,1.7238 57.0762,1.7238 58.8,0 0.9333,-0.93333 1.2,-0.93333 1.2,0 0,2.69117 4.9282,1.16067 7.618,-2.36585 9.8763,-12.94844 29.445,-7.91246 31.0874,8.00026 0.4807,4.65811 0.1864,6.07443 -2.0581,9.90443 -6.2639,10.68848 -21.5268,11.639 -28.3591,1.76609 L 1063.5,910.0759 965.49325,910.03795 867.4865,910 858.74325,921.43516 C 853.93446,927.7245 850,933.34159 850,933.91758 c 0,0.72582 43.35319,0.97592 141.25,0.81483 L 1132.5,934.5 Z M 1187,782.52555 v -60.3645 l -21,-0.0966 -21,-0.0966 v 60.52828 60.52828 l 21,-0.0672 21,-0.0671 v -60.36449 z m -54.2705,-188.22923 c 0.1262,-63.36203 -0.1472,-115.43643 -0.6075,-115.72089 -0.4602,-0.28447 -3.2084,4.53219 -6.107,10.70368 -7.8593,16.73342 -29.0278,58.90053 -39.2681,78.22089 -9.7197,18.33816 -33.1857,60.751 -35.3945,63.97251 -0.7438,1.08487 -1.3524,2.32237 -1.3524,2.75 0,0.42762 5.9625,0.76016 13.25,0.73897 l 13.25,-0.0385 2,-3.17417 c 3.1618,-5.01804 8.0116,-7.74879 13.7617,-7.74879 14.786,0 23.0228,16.7727 13.5405,27.57246 -4.1592,4.73715 -7.7366,6.42754 -13.6025,6.42754 -3.8687,0 -5.7804,-0.63805 -9.0859,-3.03254 -2.3025,-1.6679 -4.6922,-4.1429 -5.3106,-5.5 L 1076.679,647 h -17.1554 -17.1553 l -2.3506,4.25 c -1.2928,2.3375 -9.5454,16.175 -18.3392,30.75 -8.7938,14.575 -16.1725,26.84084 -16.3972,27.25742 -0.2247,0.41659 28.3076,0.64159 63.4051,0.5 L 1132.5,709.5 Z M 1186.76,565.25 1186.5,420.5 l -2.3358,-5.78726 c -2.5494,-6.31652 -13.9231,-19.29312 -16.2346,-18.52261 -0.7151,0.23838 -3.0459,4.68062 -5.1795,9.87165 -2.1337,5.19102 -7.0003,16.75981 -10.8147,25.70843 L 1145,448.04042 V 579.02021 710 h 21.01 21.0099 z m -743.51,552.974 c -8.3875,-0.1519 -15.25,-0.5861 -15.25,-0.9651 0,-0.3789 1.5473,-8.8047 3.43844,-18.7239 1.89114,-9.9193 3.57864,-19.1492 3.75,-20.511 0.25474,-2.0245 1.04104,-2.6044 4.31156,-3.1801 2.92328,-0.5146 163.39068,-34.5911 202,-42.8964 8.99921,-1.9358 9.23199,-1.569 3.34894,5.2767 -22.84672,26.5854 -36.25202,41.5499 -68.90122,76.9154 l -3.55228,3.8479 -56.94772,0.2562 c -31.32125,0.141 -63.81022,0.1321 -72.19772,-0.02 z M 657,1011.0273 v -9.9728 l -148.75772,-0.01 c -134.59077,-0.01 -149.28077,-0.1645 -154.25,-1.63968 -18.34092,-5.44485 -30.967,-17.87649 -36.51962,-35.95722 L 315,955.39679 V 829.68232 703.96786 l 27.25,0.26607 27.25,0.26607 0.5,119.70014 c 0.4025,96.35882 0.75349,119.95361 1.79994,121 1.05468,1.05462 33.76885,1.34308 173.39576,1.52895 94.6527,0.126 172.26367,0.39695 172.46883,0.60211 0.47629,0.47628 -18.47234,24.4123 -41.66453,52.63088 -5.225,6.35742 -11.21763,13.69172 -13.31695,16.29842 -2.09932,2.6067 -4.23682,4.7395 -4.75,4.7395 C 657.41802,1021 657,1016.532 657,1011.0273 Z M 382.47154,933.78644 c -0.27472,-0.71591 -0.3807,-16.14823 -0.23551,-34.29405 L 382.5,866.5 497.94488,866.24578 613.38977,865.99156 635.4735,887.99578 657.55723,910 h 44.22139 C 732.84861,910 746,910.32204 746,911.08285 c 0,0.59557 -3.82945,5.96396 -8.50989,11.92976 l -8.50989,10.84689 -15.74011,0.35364 c -8.65706,0.1945 -86.50913,0.47093 -173.00459,0.61429 -128.40289,0.21283 -157.35615,0.0218 -157.76398,-1.04099 z M 647.2379,882.73827 C 638.85706,874.34432 632,867.14432 632,866.73827 632,866.33222 665.075,866 705.5,866 c 50.25364,0 73.5,0.32918 73.5,1.04079 0,0.57243 -4.12465,6.50293 -9.16589,13.17889 -5.04124,6.67596 -9.79919,13.4076 -10.57324,14.95921 L 757.85352,898 H 710.16466 662.4758 Z M 382.46089,852.75242 C 382.19788,852.06359 382.09909,818.425 382.24135,778 L 382.5,704.5 427,704.2407 471.5,703.9814 495.99235,728.4907 520.48469,753 h 81.17363 81.17362 l 3.18151,4.01699 c 1.74984,2.20934 4.13956,4.52972 5.31051,5.15639 12.06185,6.4553 26.12823,-1.80251 25.96728,-15.24437 -0.11038,-9.21828 -6.47699,-15.94816 -15.82031,-16.72298 -4.51457,-0.37438 -6.1181,-0.0168 -9.9223,2.2126 -2.49562,1.46253 -5.22655,3.99165 -6.06874,5.62026 L 683.94864,741 H 604.7139 525.47916 L 507.73958,723.23986 C 497.98281,713.47178 490,705.14678 490,704.73986 c 0,-0.40692 29.3625,-0.73985 65.25,-0.73983 l 65.25,3e-5 2.8556,3.57889 c 4.19991,5.26369 8.31278,7.41569 14.1444,7.40086 6.76434,-0.0172 12.16396,-3.17944 15.17498,-8.88709 2.88063,-5.46049 2.94895,-10.1724 0.22897,-15.79113 -5.66632,-11.70507 -22.44872,-12.59133 -29.40395,-1.5528 l -2,3.17417 -119.76313,0.0385 L 381.97374,692 382.23687,657.75 382.5,623.5 l 37.57479,-0.26185 37.57478,-0.26186 2.42522,3.67194 c 3.56882,5.40345 8.17366,7.55539 15.18865,7.098 10.89596,-0.71045 18.04522,-10.00992 15.69763,-20.41884 -3.28643,-14.5716 -22.71972,-18.33979 -30.87861,-5.98748 L 457.66492,611 H 419.83246 382 v -32 -32 h 60.7736 60.7736 l 50.04466,50 50.04465,50 H 766.31826 C 855.79321,647 929,647.28438 929,647.63197 c 0,0.34758 -1.0125,2.25372 -2.25,4.23587 -1.2375,1.98215 -2.7,4.39517 -3.25,5.36226 -2.18828,3.84778 -31.92663,49.38351 -33.31994,51.0199 -1.37355,1.61319 -4.62457,1.74903 -41.58505,1.73762 l -40.09501,-0.0124 -2.2438,-3.46413 c -6.80234,-10.50194 -23.63804,-9.52361 -29.36724,1.70655 -2.61615,5.12807 -2.25454,13.47633 0.75854,17.51202 7.3869,9.89395 18.79557,10.38427 27.49579,1.18171 L 809.78657,722 h 18.5477 c 10.20123,0 18.77424,0.36655 19.05112,0.81456 0.27688,0.44801 -14.40931,15.74801 -32.63599,34 L 781.60998,790 H 655.31753 529.02509 l -2.42777,-3.84583 c -4.07299,-6.45204 -13.36372,-9.5321 -20.17202,-6.68741 C 499.07979,782.53591 495,788.26112 495,795.5 c 0,9.38934 8.0764,17.54174 17.3151,17.47804 4.94786,-0.0341 11.3031,-3.41892 13.87653,-7.39063 L 528.5,802.02476 657.90007,802.01238 787.30014,802 l 39.86738,-39.75 39.86737,-39.75 5.6283,-0.30425 c 3.09557,-0.16734 6.06293,0.13037 6.59413,0.66157 0.6211,0.6211 -5.23093,10.09759 -16.39575,26.55048 -15.23986,22.45804 -43.42431,63.28891 -45.62165,66.0922 -0.43111,0.55 -3.92396,5.402 -7.76188,10.78222 -3.83792,5.38022 -9.91254,13.70522 -13.49916,18.5 l -6.52112,8.71778 -203.25934,0.25242 c -162.08142,0.20128 -203.35621,-10e-4 -203.73753,-1 z M 315,657.48393 v -34.51607 l 27.25,0.26607 27.25,0.26607 0.26313,34.25 0.26313,34.25 H 342.51313 315 Z m 250.95805,-66.02361 c -23.90193,-23.94682 -43.64555,-43.74682 -43.87472,-44 -0.22916,-0.25318 26.32084,-0.44324 59,-0.42237 l 59.41667,0.038 2.61314,3.78316 c 4.83307,6.99708 13.41112,9.00193 21.58527,5.04489 10.71206,-5.18562 12.55187,-20.4669 3.3921,-28.17434 -8.06256,-6.78419 -18.80747,-5.21153 -25.64548,3.75358 l -2.68815,3.52433 L 511.12844,534.75376 382.5,534.5 v -45 -45 l 172.50126,-0.25282 172.50125,-0.25282 45.99467,46.00282 L 819.49185,536 h 87.58741 c 48.17307,0 87.84337,0.25596 88.15621,0.5688 0.45003,0.45003 -14.4155,26.51816 -31.63161,55.46908 -1.15712,1.94584 -2.62897,4.42084 -3.27078,5.5 -0.6418,1.07917 -6.0418,9.9345 -12,19.67851 l -10.83308,17.7164 -110.75,0.0336 c -60.9125,0.0185 -110.74713,-0.30389 -110.74362,-0.71639 0.004,-0.4125 9.11602,-9.88845 20.25,-21.05767 L 756.5,592.88465 l 60.5,0.0705 c 42.71985,0.0498 60.60805,0.39085 60.86765,1.16063 0.7037,2.0866 6.96182,7.86891 9.60338,8.87324 14.34366,5.45345 28.57305,-10.18567 21.63538,-23.77883 -2.3654,-4.6346 -4.6107,-6.68727 -9.591,-8.76817 -7.21216,-3.01343 -17.72431,0.8197 -20.47769,7.46695 L 877.75736,581 h -63.58399 -63.58399 l -26.993,27 -26.99299,27 H 653.00975 609.4161 Z M 315,579.04781 v -31.98434 l 11.75,-0.28173 c 6.4625,-0.15496 18.84379,-0.14769 27.51398,0.0161 l 15.76398,0.29788 -0.26398,31.70212 L 369.5,610.5 342.25,610.76607 315,611.03214 Z m 0.68266,-44.69849 c -1.10367,-1.10366 -0.8033,-108.44018 0.32003,-114.36348 1.74079,-9.17916 7.47028,-19.52778 14.95592,-27.01342 6.54947,-6.54946 9.88674,-8.56638 22.04139,-13.32096 l 5.5,-2.15146 358.93779,-0.26221 c 197.41578,-0.14422 359.27671,0.0808 359.69101,0.5 0.6994,0.70765 -12.9974,30.78005 -21.2984,46.76221 l -3.6357,7 -339.44366,0.5 c -284.7649,0.41946 -339.70858,0.71984 -341.0881,1.86475 -1.47887,1.22738 -1.6705,6.36104 -1.90367,51 L 369.5,534.5 l -26.56734,0.26599 c -14.61204,0.14629 -26.87454,-0.0412 -27.25,-0.41667 z M 785.25,484.75043 C 763.6625,463.15754 746,445.15523 746,444.74531 746,444.33539 813.275,444 895.5,444 c 110.2228,0 149.5,0.29606 149.5,1.12689 0,0.61979 -1.7418,4.33229 -3.8708,8.25 -2.1289,3.91771 -6.8167,12.74811 -10.4174,19.62311 -3.6006,6.875 -11.252,21.05 -17.003,31.5 l -10.4565,19 -89.37614,0.25512 -89.37616,0.25511 z"
       id="path3032" />
  </g>
</svg>
