<?xml version="1.0" standalone="no"?>
<!DOCTYPE svg PUBLIC "-//W3C//DTD SVG 20010904//EN"
 "http://www.w3.org/TR/2001/REC-SVG-20010904/DTD/svg10.dtd">
<svg version="1.0" xmlns="http://www.w3.org/2000/svg"
 width="512.000000pt" height="512.000000pt" viewBox="0 0 512.000000 512.000000"
 preserveAspectRatio="xMidYMid meet">

<g transform="translate(0.000000,512.000000) scale(0.100000,-0.100000)"
fill="#000000" stroke="none">
<path d="M992 4389 c-351 -45 -667 -288 -804 -616 -166 -398 -61 -865 259
-1152 63 -56 71 -68 75 -106 11 -97 75 -180 173 -227 l60 -28 367 0 c345 0
371 1 422 20 95 36 186 151 186 238 0 22 8 40 24 55 146 134 225 234 286 361
72 149 102 280 102 446 0 127 -15 220 -49 320 -160 466 -617 752 -1101 689z
m258 -510 c178 -41 327 -190 375 -375 8 -32 15 -73 15 -91 l0 -33 -515 0
c-491 0 -515 1 -515 18 0 45 24 142 50 198 79 176 264 293 460 293 47 1 105
-4 130 -10z"/>
<path d="M2520 3873 c-61 -31 -60 -25 -58 -505 l3 -438 28 -27 27 -28 1143 -3
c799 -2 1153 0 1179 8 69 20 68 15 68 504 l0 436 -29 32 -29 33 -1149 3
c-1078 2 -1150 1 -1183 -15z"/>
<path d="M2525 2241 c-11 -5 -29 -19 -40 -31 -19 -21 -20 -38 -23 -459 -2
-479 -3 -473 58 -503 33 -17 109 -18 1160 -18 749 0 1138 4 1162 11 69 18 68
15 68 499 0 476 0 478 -61 499 -38 13 -2292 15 -2324 2z"/>
<path d="M720 1531 c0 -332 4 -520 11 -538 14 -37 215 -241 256 -259 39 -17
238 -19 279 -4 33 13 230 203 250 242 10 19 14 62 14 143 l0 115 -150 0 -150
0 0 105 0 105 150 0 150 0 0 95 0 95 -150 0 -150 0 0 110 0 110 150 0 150 0 0
95 0 95 -405 0 -405 0 0 -509z"/>
</g>
</svg>
