<?xml version="1.0" standalone="no"?>
<!DOCTYPE svg PUBLIC "-//W3C//DTD SVG 20010904//EN"
 "http://www.w3.org/TR/2001/REC-SVG-20010904/DTD/svg10.dtd">
<svg version="1.0" xmlns="http://www.w3.org/2000/svg"
 width="512.000000pt" height="512.000000pt" viewBox="0 0 512.000000 512.000000"
 preserveAspectRatio="xMidYMid meet">

<g transform="translate(0.000000,512.000000) scale(0.100000,-0.100000)"
fill="#000000" stroke="none">
<path d="M2315 4899 c-534 -58 -1035 -298 -1416 -678 -126 -126 -206 -225
-310 -384 -181 -276 -302 -594 -356 -937 -25 -161 -25 -519 0 -680 108 -683
478 -1258 1053 -1634 123 -80 323 -181 458 -231 126 -47 331 -99 476 -122 161
-25 519 -25 680 0 414 65 785 226 1120 485 109 85 297 273 382 382 150 194
285 434 363 644 47 126 99 331 122 476 25 161 25 519 0 680 -65 414 -226 785
-485 1120 -85 109 -273 297 -382 382 -194 150 -434 285 -644 363 -123 45 -329
98 -466 120 -127 20 -468 28 -595 14z m395 -499 c445 -39 842 -223 1155 -535
722 -722 722 -1888 0 -2610 -722 -722 -1888 -722 -2610 0 -443 444 -631 1076
-501 1690 34 160 77 281 156 440 180 360 464 645 825 825 313 156 637 219 975
190z"/>
<path d="M2520 3881 c-77 -25 -125 -71 -149 -140 -18 -56 -13 -83 35 -182 97
-199 118 -318 68 -378 -14 -17 -34 -31 -45 -31 -30 0 -117 -36 -154 -64 -50
-38 -95 -35 -144 10 -66 59 -82 104 -79 220 3 93 1 102 -25 146 -94 161 -330
127 -378 -54 -25 -92 22 -178 123 -226 117 -55 209 -136 253 -221 36 -71 -7
-165 -93 -203 -37 -17 -60 -20 -131 -16 -95 5 -155 26 -220 78 -103 83 -241
23 -241 -105 0 -58 22 -97 70 -124 47 -26 90 -27 163 -1 109 38 266 21 335
-37 28 -24 36 -40 52 -113 l18 -85 -21 -17 c-12 -10 -37 -21 -56 -24 -48 -10
-155 2 -192 22 -51 26 -155 16 -207 -20 -44 -30 -92 -111 -92 -155 0 -112 97
-210 207 -211 72 0 117 25 177 100 60 74 157 146 212 156 32 6 38 3 77 -41 23
-27 45 -55 49 -64 12 -29 8 -101 -7 -130 -23 -46 -92 -98 -166 -127 -39 -14
-78 -37 -89 -51 -97 -123 31 -288 173 -225 57 25 76 54 92 140 25 128 63 191
142 234 53 29 94 35 160 24 39 -7 44 -12 77 -76 44 -83 55 -144 32 -187 -8
-17 -47 -54 -85 -82 -79 -57 -95 -77 -112 -141 -32 -122 69 -244 201 -244 97
0 175 60 201 156 13 48 6 110 -33 293 -47 225 -42 278 30 303 70 25 89 25 112
2 21 -21 22 -27 14 -99 -5 -42 -9 -106 -9 -143 1 -58 5 -73 31 -110 116 -165
374 -93 376 105 1 55 -24 117 -59 149 -27 24 -104 58 -134 58 -46 0 -59 27
-59 120 0 77 3 89 32 136 22 37 39 54 59 58 78 15 181 -56 290 -199 55 -73
107 -105 172 -105 125 0 207 84 207 214 0 76 -11 110 -48 150 -57 61 -144 73
-234 31 -89 -42 -151 -31 -273 46 -56 35 -66 45 -61 63 4 12 9 57 12 101 4 46
13 87 21 96 35 41 193 56 310 30 58 -13 64 -12 107 8 107 52 111 202 6 256
-36 19 -103 19 -138 1 -15 -8 -47 -38 -71 -66 -53 -63 -107 -90 -181 -90 -80
0 -93 6 -123 59 -15 27 -47 71 -72 99 -25 27 -45 54 -45 59 0 26 51 55 107 62
70 8 115 32 156 84 42 51 50 143 18 204 -40 79 -113 119 -207 111 -72 -6 -124
-42 -158 -109 -28 -58 -32 -101 -14 -160 8 -30 8 -45 -1 -65 -13 -30 -30 -30
-158 3 -72 18 -73 18 -94 68 -28 65 -29 155 -1 217 11 25 42 70 69 100 79 86
90 163 37 255 -41 71 -152 118 -224 94z m52 -947 c122 -85 122 -253 0 -338
-57 -40 -149 -48 -208 -18 -164 84 -163 287 1 376 21 12 49 15 97 13 56 -2 74
-8 110 -33z m218 -495 c139 -78 82 -289 -78 -289 -110 0 -189 108 -151 207 34
90 144 129 229 82z"/>
<path d="M4842 1395 c-70 -138 -194 -330 -292 -451 -85 -105 -275 -294 -380
-378 -126 -101 -294 -210 -443 -287 l-132 -68 366 -1 c334 0 373 2 445 20 247
63 422 238 484 485 19 74 20 108 18 442 l-3 363 -63 -125z"/>
</g>
</svg>
