<?xml version="1.0" standalone="no"?>
<!DOCTYPE svg PUBLIC "-//W3C//DTD SVG 20010904//EN"
 "http://www.w3.org/TR/2001/REC-SVG-20010904/DTD/svg10.dtd">
<svg version="1.0" xmlns="http://www.w3.org/2000/svg"
 width="512.000000pt" height="512.000000pt" viewBox="0 0 512.000000 512.000000"
 preserveAspectRatio="xMidYMid meet">

<g transform="translate(0.000000,512.000000) scale(0.100000,-0.100000)"
fill="#000000" stroke="none">
<path d="M865 4791 c-50 -22 -91 -69 -105 -119 -12 -45 -391 -2634 -386 -2639
2 -2 23 1 47 6 63 15 4220 15 4272 0 22 -6 42 -8 45 -4 7 7 -365 2594 -380
2643 -14 46 -55 92 -103 113 -38 18 -111 19 -1695 19 -1584 0 -1657 -1 -1695
-19z m1481 -745 c211 -55 361 -187 422 -371 11 -33 22 -77 25 -97 l6 -38 -160
0 c-143 0 -160 2 -165 18 -14 46 -60 125 -87 148 -16 14 -53 37 -81 52 -46 24
-61 27 -151 27 -93 -1 -105 -3 -162 -33 -73 -37 -112 -77 -153 -153 -57 -107
-80 -264 -61 -404 14 -102 34 -153 88 -236 37 -58 52 -72 114 -104 63 -33 83
-38 158 -42 99 -6 169 14 233 67 43 35 102 150 113 218 l7 42 159 0 c137 0
159 -2 159 -15 0 -51 -37 -182 -71 -253 -114 -236 -360 -364 -649 -335 -184
18 -312 77 -435 198 -127 125 -200 305 -212 515 -14 259 85 512 255 657 75 63
198 125 282 142 30 6 64 13 75 15 39 10 232 -3 291 -18z m984 -596 l0 -160
-160 0 -160 0 0 160 0 160 160 0 160 0 0 -160z m0 -720 l0 -160 -160 0 -160 0
0 160 0 160 160 0 160 0 0 -160z"/>
<path d="M424 1815 c-57 -28 -100 -87 -109 -149 -3 -22 -5 -304 -3 -626 l3
-585 23 -40 c26 -45 72 -81 123 -95 46 -14 4152 -14 4198 0 51 14 97 50 123
95 l23 40 3 585 c2 322 0 604 -3 626 -9 62 -52 121 -109 149 l-50 25 -2086 0
-2086 0 -50 -25z m3584 -519 c50 -34 92 -113 92 -170 -1 -111 -100 -206 -212
-206 -181 1 -272 228 -141 352 50 48 82 59 154 56 53 -3 74 -9 107 -32z"/>
</g>
</svg>
