<?xml version="1.0" standalone="no"?>
<!DOCTYPE svg PUBLIC "-//W3C//DTD SVG 20010904//EN"
 "http://www.w3.org/TR/2001/REC-SVG-20010904/DTD/svg10.dtd">
<svg version="1.0" xmlns="http://www.w3.org/2000/svg"
 width="512.000000pt" height="512.000000pt" viewBox="0 0 512.000000 512.000000"
 preserveAspectRatio="xMidYMid meet">

<g transform="translate(0.000000,512.000000) scale(0.100000,-0.100000)"
fill="#DB5461" stroke="none">
<path d="M3120 4630 c-305 -43 -556 -79 -557 -79 -2 -1 -3 -217 -3 -481 l0
-480 615 0 616 0 -3 523 c-3 485 -4 524 -21 549 -16 22 -66 50 -86 47 -3 0
-256 -36 -561 -79z"/>
<path d="M1895 4465 c-247 -35 -465 -67 -484 -71 -19 -5 -43 -22 -55 -37 -20
-27 -21 -41 -24 -398 l-3 -369 511 0 510 0 0 470 c0 259 -1 469 -2 469 -2 -1
-205 -30 -453 -64z"/>
<path d="M1331 3023 c0 -399 2 -416 59 -444 23 -11 184 -37 485 -78 248 -34
456 -61 463 -61 9 0 12 103 12 470 l0 470 -510 0 -510 0 1 -357z"/>
<path d="M2560 2895 c0 -267 4 -485 8 -485 4 0 248 -34 542 -75 294 -41 552
-75 572 -75 28 0 47 8 70 29 l33 29 3 531 3 531 -616 0 -615 0 0 -485z"/>
<path d="M362 1730 c-54 -13 -101 -52 -128 -106 l-25 -51 3 -564 3 -564 24
-38 c13 -20 44 -50 70 -65 l46 -27 2205 0 2205 0 42 24 c24 14 55 43 70 65
l28 41 3 564 3 564 -25 51 c-28 56 -74 93 -133 107 -47 11 -4345 10 -4391 -1z
m677 -534 c117 -81 118 -256 2 -340 -39 -28 -49 -31 -121 -31 -72 0 -81 2
-116 31 -51 41 -74 73 -85 120 -21 92 24 187 111 232 64 33 151 28 209 -12z
m3261 -171 l0 -105 -1385 0 -1385 0 0 105 0 105 1385 0 1385 0 0 -105z"/>
</g>
</svg>
