<?xml version="1.0" standalone="no"?>
<!DOCTYPE svg PUBLIC "-//W3C//DTD SVG 20010904//EN"
 "http://www.w3.org/TR/2001/REC-SVG-20010904/DTD/svg10.dtd">
<svg version="1.0" xmlns="http://www.w3.org/2000/svg"
 width="512.000000pt" height="512.000000pt" viewBox="0 0 512.000000 512.000000"
 preserveAspectRatio="xMidYMid meet">

<g transform="translate(0.000000,512.000000) scale(0.100000,-0.100000)"
fill="#DB5461" stroke="none">
<path d="M3280 4295 l-505 -505 303 0 302 0 0 -670 0 -670 -715 0 -715 0 0
-405 0 -406 873 3 872 3 65 23 c109 39 182 84 250 152 81 82 127 158 157 262
l23 80 0 814 0 814 307 0 308 0 -505 505 c-278 278 -507 505 -510 505 -3 0
-232 -227 -510 -505z"/>
<path d="M1438 3469 c-78 -11 -196 -62 -267 -114 -104 -76 -186 -197 -220
-323 -21 -77 -21 -96 -21 -890 l0 -812 -307 0 -308 0 508 -507 507 -508 507
508 508 507 -303 0 -302 0 0 670 0 670 715 0 715 0 0 405 0 405 -837 -1 c-461
-1 -864 -5 -895 -10z"/>
</g>
</svg>
