<?xml version="1.0" standalone="no"?>
<!DOCTYPE svg PUBLIC "-//W3C//DTD SVG 20010904//EN"
 "http://www.w3.org/TR/2001/REC-SVG-20010904/DTD/svg10.dtd">
<svg version="1.0" xmlns="http://www.w3.org/2000/svg"
 width="512.000000pt" height="512.000000pt" viewBox="0 0 512.000000 512.000000"
 preserveAspectRatio="xMidYMid meet">

<g transform="translate(0.000000,512.000000) scale(0.100000,-0.100000)"
fill="#000000" stroke="none">
<path d="M763 4290 c-75 -11 -175 -61 -228 -115 -57 -56 -103 -152 -115 -237
-13 -90 -13 -2276 0 -2357 6 -35 20 -81 30 -102 11 -21 20 -41 20 -44 0 -3
-61 -5 -135 -5 -204 0 -231 -17 -222 -144 9 -137 83 -271 195 -356 77 -58 146
-86 240 -100 40 -6 504 -10 1140 -10 l1072 0 0 205 0 205 105 0 105 0 0 100 0
100 -1097 0 c-1047 0 -1100 1 -1138 19 -22 10 -52 31 -67 47 -61 66 -58 -7
-58 1269 0 1276 -3 1203 58 1269 15 16 45 37 67 47 38 18 109 19 1825 19 1716
0 1787 -1 1825 -19 22 -10 52 -31 67 -47 54 -58 58 -83 58 -340 l0 -236 55
-60 c57 -61 99 -133 120 -202 10 -33 13 21 18 320 8 396 3 453 -42 549 -56
120 -175 205 -313 225 -76 11 -3510 11 -3585 0z"/>
<path d="M4100 3370 c-114 -16 -213 -87 -265 -193 -47 -95 -47 -125 4 -507 23
-168 41 -308 41 -312 0 -5 -101 -8 -225 -8 -203 0 -230 -2 -280 -21 -76 -28
-146 -98 -173 -172 -21 -56 -22 -72 -22 -501 0 -492 -3 -515 -62 -573 -35 -34
-94 -63 -128 -63 -19 0 -20 -6 -20 -100 l0 -100 863 0 c474 0 890 5 925 10
189 27 327 167 353 360 6 41 9 252 7 493 -3 409 -4 424 -25 477 -29 71 -82
126 -158 162 l-60 28 -228 0 -228 0 5 33 c24 144 77 650 72 687 -8 59 -56 157
-95 197 -79 78 -194 118 -301 103z m818 -1862 c-3 -375 -3 -371 -65 -430 -63
-60 -36 -58 -817 -58 l-715 0 20 46 c32 75 39 161 39 482 l0 302 771 0 770 0
-3 -342z"/>
</g>
</svg>
