<?xml version="1.0" standalone="no"?>
<!DOCTYPE svg PUBLIC "-//W3C//DTD SVG 20010904//EN"
 "http://www.w3.org/TR/2001/REC-SVG-20010904/DTD/svg10.dtd">
<svg version="1.0" xmlns="http://www.w3.org/2000/svg"
 width="512.000000pt" height="512.000000pt" viewBox="0 0 512.000000 512.000000"
 preserveAspectRatio="xMidYMid meet">

<g transform="translate(0.000000,512.000000) scale(0.100000,-0.100000)"
fill="#DB5461" stroke="none">
<path d="M657 4290 c-72 -9 -172 -58 -227 -111 -49 -47 -95 -141 -110 -220 -7
-36 -9 -461 -8 -1230 l3 -1174 26 -62 27 -63 -142 0 c-122 0 -145 -3 -173 -20
-104 -63 -25 -336 135 -466 63 -52 104 -74 182 -100 52 -18 115 -19 1065 -22
l1009 -3 303 303 303 303 -1197 5 c-1180 5 -1199 5 -1237 25 -21 12 -53 40
-70 64 l-31 43 0 1203 0 1203 31 43 c17 24 49 52 70 64 39 20 51 20 1924 23
1392 2 1895 0 1924 -9 56 -16 101 -53 125 -103 20 -41 21 -58 21 -603 l0 -560
48 -18 c26 -10 71 -31 100 -48 l52 -29 0 590 c0 359 -4 610 -10 643 -15 79
-62 171 -112 220 -56 55 -150 99 -236 110 -81 10 -3713 10 -3795 -1z"/>
<path d="M4133 2649 c-354 -46 -644 -314 -729 -674 -25 -105 -22 -278 6 -389
l22 -89 -450 -451 c-482 -483 -490 -492 -512 -614 -43 -241 173 -458 417 -420
115 18 136 36 617 517 l448 448 66 -20 c97 -28 295 -34 400 -13 261 53 486
225 606 465 95 188 116 433 53 632 l-23 74 -295 -292 -295 -292 -184 50 c-102
28 -186 52 -188 53 -1 2 -25 85 -53 186 l-50 183 118 121 c65 67 196 200 292
298 l174 176 -69 21 c-134 39 -237 48 -371 30z"/>
</g>
</svg>
