<?xml version="1.0" standalone="no"?>
<!DOCTYPE svg PUBLIC "-//W3C//DTD SVG 20010904//EN"
 "http://www.w3.org/TR/2001/REC-SVG-20010904/DTD/svg10.dtd">
<svg version="1.0" xmlns="http://www.w3.org/2000/svg"
 width="512.000000pt" height="512.000000pt" viewBox="0 0 512.000000 512.000000"
 preserveAspectRatio="xMidYMid meet">

<g transform="translate(0.000000,512.000000) scale(0.100000,-0.100000)"
fill="#DB5461" stroke="none">
<path d="M1935 5109 c-747 -33 -1397 -235 -1730 -538 -72 -66 -126 -137 -163
-219 -77 -167 -26 -345 146 -510 186 -178 511 -338 881 -433 557 -144 1294
-166 1894 -59 341 61 652 167 885 301 383 221 523 471 403 721 -163 338 -791
625 -1562 713 -112 12 -561 38 -579 33 -3 0 -81 -4 -175 -9z"/>
<path d="M2 3405 l3 -320 42 -88 c77 -161 249 -304 520 -434 395 -190 889
-289 1498 -300 628 -11 1150 76 1606 269 347 146 585 367 619 573 5 33 10 185
10 338 l0 279 -68 -62 c-205 -188 -558 -356 -967 -459 -390 -98 -777 -138
-1225 -128 -390 9 -682 47 -1015 132 -422 108 -768 275 -973 469 l-54 51 4
-320z"/>
<path d="M2 2358 l3 -305 43 -86 c68 -138 186 -247 397 -369 217 -126 571
-243 900 -297 502 -84 1160 -85 1595 -5 75 14 90 21 128 56 74 68 116 81 282
85 80 2 164 9 187 15 l41 10 4 177 c3 158 6 181 26 227 27 60 89 123 152 156
43 22 56 23 293 26 l247 3 0 305 0 305 -89 -73 c-112 -92 -262 -183 -411 -249
-765 -339 -2037 -391 -2960 -123 -300 88 -575 225 -763 382 l-79 65 4 -305z"/>
<path d="M3850 1827 c-55 -27 -60 -58 -60 -339 l0 -258 -255 0 c-274 0 -306
-5 -339 -51 -14 -20 -16 -57 -16 -251 0 -155 4 -235 12 -253 23 -52 44 -55
333 -55 l265 0 0 -252 c0 -145 5 -269 11 -291 19 -69 32 -72 295 -72 220 0
234 1 261 21 15 11 31 32 34 45 4 13 7 142 8 287 l1 262 276 0 276 0 29 29 29
29 0 244 c-1 185 -4 247 -14 260 -32 42 -73 48 -340 48 l-255 0 -3 275 -3 275
-28 27 -27 28 -233 3 c-173 2 -238 -1 -257 -11z"/>
<path d="M0 1358 c0 -293 3 -315 55 -419 91 -181 338 -365 653 -488 383 -149
816 -226 1342 -238 493 -11 959 48 1340 171 l75 24 -130 1 c-114 1 -136 4
-181 25 -72 34 -119 78 -154 148 l-30 61 0 209 c0 114 -3 208 -7 208 -5 0 -66
-7 -138 -15 -191 -22 -707 -30 -970 -16 -571 31 -1060 140 -1430 321 -162 79
-239 127 -347 217 l-78 65 0 -274z"/>
</g>
</svg>
