<?xml version="1.0" standalone="no"?>
<!DOCTYPE svg PUBLIC "-//W3C//DTD SVG 20010904//EN"
 "http://www.w3.org/TR/2001/REC-SVG-20010904/DTD/svg10.dtd">
<svg version="1.0" xmlns="http://www.w3.org/2000/svg"
 width="512.000000pt" height="512.000000pt" viewBox="0 0 512.000000 512.000000"
 preserveAspectRatio="xMidYMid meet">

<g transform="translate(0.000000,512.000000) scale(0.100000,-0.100000)"
fill="#000000" stroke="none">
<path d="M2528 4897 c-40 -18 -2404 -1863 -2412 -1882 -11 -29 -6 -80 9 -101
19 -28 68 -48 98 -40 13 3 60 33 103 66 l79 61 5 -1366 5 -1367 33 -29 32 -29
2075 0 c1453 0 2081 3 2098 11 55 25 52 -58 57 1417 l5 1364 79 -61 c89 -69
114 -79 157 -61 61 26 79 101 36 152 -18 22 -2268 1779 -2362 1845 -41 29 -65
34 -97 20z m1039 -1528 c42 -15 102 -79 113 -119 13 -46 13 -514 0 -560 -11
-40 -71 -104 -113 -119 -16 -6 -64 -11 -108 -11 l-79 0 0 -99 0 -98 90 -5
c111 -7 155 -32 195 -111 25 -50 25 -53 25 -302 0 -247 0 -252 -25 -301 -26
-52 -70 -88 -126 -104 -19 -6 -211 -10 -451 -10 l-418 0 0 -109 0 -109 29 -11
c40 -17 107 -84 131 -131 l20 -40 276 0 c295 0 317 -3 341 -52 25 -49 20 -90
-18 -127 l-31 -31 -281 0 -282 0 -27 -50 c-38 -68 -117 -126 -201 -146 -62
-16 -72 -16 -132 -1 -36 9 -86 30 -111 48 -45 31 -98 94 -109 130 -6 18 -20
19 -290 19 l-283 0 -31 31 c-38 37 -43 78 -18 127 24 49 46 52 341 52 l276 0
19 37 c24 47 94 118 132 134 l29 11 0 109 0 108 -437 3 -438 3 -47 27 c-34 21
-53 41 -72 80 -26 52 -26 53 -26 303 0 251 0 251 26 304 40 79 82 102 194 109
l90 5 0 98 0 99 -79 0 c-44 0 -92 5 -108 11 -42 15 -102 79 -113 119 -13 46
-13 515 0 559 11 41 63 98 105 117 24 11 212 13 1012 14 668 0 991 -3 1010
-11z"/>
<path d="M1640 2970 l0 -200 920 0 920 0 0 200 0 200 -920 0 -920 0 0 -200z
m629 104 c67 -14 105 -86 77 -146 -28 -58 -44 -63 -222 -66 -191 -4 -236 4
-264 51 -11 18 -20 43 -20 57 0 40 35 88 72 99 37 10 309 14 357 5z"/>
<path d="M1950 2460 l0 -100 610 0 610 0 0 100 0 100 -610 0 -610 0 0 -100z"/>
<path d="M1640 1945 l0 -205 920 0 920 0 0 205 0 205 -920 0 -920 0 0 -205z
m679 79 c56 -47 50 -126 -11 -164 -31 -19 -47 -20 -220 -18 l-188 3 -27 28
c-22 22 -28 37 -28 73 0 39 5 50 33 75 l32 29 189 0 c189 0 190 0 220 -26z"/>
<path d="M2508 1105 c-38 -21 -53 -73 -34 -118 16 -41 41 -57 86 -57 45 0 70
16 86 57 37 88 -52 164 -138 118z"/>
</g>
</svg>
