<?xml version="1.0" standalone="no"?>
<!DOCTYPE svg PUBLIC "-//W3C//DTD SVG 20010904//EN"
 "http://www.w3.org/TR/2001/REC-SVG-20010904/DTD/svg10.dtd">
<svg version="1.0" xmlns="http://www.w3.org/2000/svg"
 width="512.000000pt" height="512.000000pt" viewBox="0 0 512.000000 512.000000"
 preserveAspectRatio="xMidYMid meet">

<g transform="translate(0.000000,512.000000) scale(0.100000,-0.100000)"
fill="#DB5461" stroke="none">
<path d="M750 5111 c-69 -22 -117 -62 -138 -116 -7 -16 -129 -725 -272 -1575
-143 -850 -262 -1557 -266 -1572 -5 -27 -5 -27 28 -15 46 17 4855 18 4909 1
32 -10 36 -10 33 5 -2 9 -121 716 -264 1571 -143 855 -265 1569 -272 1585 -16
41 -46 73 -93 98 l-40 22 -1800 2 c-990 1 -1811 -2 -1825 -6z m2200 -846 c550
-116 967 -457 1029 -840 18 -117 19 -137 10 -227 -19 -194 -94 -341 -259 -508
-145 -148 -272 -231 -482 -314 -204 -80 -452 -126 -688 -126 -236 0 -484 46
-688 126 -210 83 -337 166 -482 314 -119 121 -189 228 -227 347 -25 79 -44
224 -37 283 25 210 80 341 202 483 187 218 469 378 792 451 179 40 238 45 480
41 196 -3 241 -7 350 -30z"/>
<path d="M2438 3561 c-31 -10 -72 -28 -92 -41 -44 -26 -86 -95 -86 -139 0
-110 136 -201 300 -201 164 0 300 91 300 201 0 141 -233 240 -422 180z"/>
<path d="M109 1607 c-29 -16 -54 -40 -74 -72 l-30 -48 0 -666 c0 -662 0 -666
21 -706 25 -46 45 -65 94 -91 34 -18 110 -19 2440 -19 l2405 0 40 21 c46 25
65 45 91 94 18 33 19 69 19 701 l0 666 -30 48 c-20 32 -45 56 -74 72 l-44 23
-2407 0 -2407 0 -44 -23z m4044 -588 c46 -13 109 -67 131 -113 18 -39 21 -121
5 -163 -26 -69 -119 -133 -194 -133 -75 0 -168 64 -194 133 -28 73 -2 175 57
230 53 50 123 66 195 46z"/>
</g>
</svg>
