<svg xmlns="http://www.w3.org/2000/svg" xmlns:xlink="http://www.w3.org/1999/xlink" viewBox="0,0,256,256" width="150px" height="150px" fill-rule="nonzero"><g fill="#db5461" fill-rule="nonzero" stroke="none" stroke-width="1" stroke-linecap="butt" stroke-linejoin="miter" stroke-miterlimit="10" stroke-dasharray="" stroke-dashoffset="0" font-family="none" font-weight="none" font-size="none" text-anchor="none" style="mix-blend-mode: normal"><g transform="scale(5.12,5.12)"><path d="M25,4c-3.31371,0 -6,2.68629 -6,6c0,3.31371 2.68629,6 6,6c3.31371,0 6,-2.68629 6,-6c0,-3.31371 -2.68629,-6 -6,-6zM23,17.86719c-0.585,0.12 -1.16261,0.28867 -1.72461,0.51367l-18.06836,7.25c-1.613,0.647 -1.68905,2.90125 -0.12305,3.65625l15.40039,7.42773c4.116,1.985 8.9133,1.985 13.0293,0l15.40039,-7.42773c1.567,-0.755 1.49191,-3.00925 -0.12109,-3.65625l-18.06836,-7.25c-0.561,-0.225 -1.13961,-0.39272 -1.72461,-0.51172v10.04492c0,1.105 -0.895,2 -2,2c-1.105,0 -2,-0.895 -2,-2zM11.5,26c1.933,0 3.5,0.895 3.5,2c0,1.104 -1.567,2 -3.5,2c-1.933,0 -3.5,-0.896 -3.5,-2c0,-1.105 1.567,-2 3.5,-2zM2.91992,32.55664c-0.49205,0.03563 -0.91992,0.44439 -0.91992,0.99414v2.70703c0,0.385 0.22036,0.73439 0.56836,0.90039l14.92773,7.14063c4.745,2.269 10.26281,2.269 15.00781,0l14.92773,-7.14062c0.348,-0.167 0.56836,-0.51734 0.56836,-0.90234v-2.69922c0,-0.735 -0.76478,-1.21944 -1.42578,-0.89844c-3.854,1.864 -14.19141,6.85742 -14.19141,6.85742c-2.288,1.104 -4.84181,1.6875 -7.38281,1.6875c-2.541,0 -5.09577,-0.5835 -7.38477,-1.6875c0,0 -10.34631,-4.99833 -14.19531,-6.86133c-0.16475,-0.07975 -0.33598,-0.10953 -0.5,-0.09766z"></path></g></g></svg>