<?xml version="1.0" standalone="no"?>
<!DOCTYPE svg PUBLIC "-//W3C//DTD SVG 20010904//EN"
 "http://www.w3.org/TR/2001/REC-SVG-20010904/DTD/svg10.dtd">
<svg version="1.0" xmlns="http://www.w3.org/2000/svg"
 width="512.000000pt" height="512.000000pt" viewBox="0 0 512.000000 512.000000"
 preserveAspectRatio="xMidYMid meet">

<g transform="translate(0.000000,512.000000) scale(0.100000,-0.100000)"
fill="#000000" stroke="none">
<path d="M875 5109 c-53 -12 -113 -62 -136 -113 -18 -40 -19 -128 -19 -2436 0
-2308 1 -2396 19 -2436 25 -55 83 -101 145 -114 35 -7 485 -9 1391 -8 1450 3
1369 0 1394 55 15 34 15 4972 0 5006 -25 55 58 52 -1404 54 -790 0 -1367 -3
-1390 -8z m1995 -859 l0 -360 -670 0 -670 0 0 360 0 360 670 0 670 0 0 -360z
m0 -1125 l0 -365 -670 0 -670 0 0 365 0 365 670 0 670 0 0 -365z m0 -1130 l0
-365 -670 0 -670 0 0 365 0 365 670 0 670 0 0 -365z m0 -1125 l0 -360 -670 0
-670 0 0 360 0 360 670 0 670 0 0 -360z"/>
<path d="M3790 4711 l0 -201 105 0 105 0 0 -105 0 -105 -105 0 -105 0 0 -100
0 -100 105 0 105 0 0 -105 0 -105 -105 0 -105 0 0 -100 0 -100 105 0 105 0 0
-105 0 -105 -105 0 -105 0 0 -100 0 -100 105 0 105 0 0 -105 0 -105 -105 0
-105 0 0 -510 0 -510 105 0 105 0 0 -105 0 -105 -105 0 -105 0 0 -100 0 -100
105 0 105 0 0 -105 0 -105 -105 0 -105 0 0 -100 0 -100 105 0 105 0 0 -105 0
-105 -105 0 -105 0 0 -100 0 -100 105 0 105 0 0 -105 0 -105 -105 0 -105 0 0
-201 0 -200 238 3 237 3 41 28 c24 16 53 49 68 76 l26 49 0 996 c0 1066 1
1049 -48 1075 -12 6 -72 11 -134 11 -141 0 -183 11 -208 53 -25 41 -25 73 0
114 25 42 67 53 208 53 62 0 122 5 134 11 49 26 48 9 48 1075 l0 996 -27 50
c-17 30 -44 61 -68 77 -40 26 -41 26 -277 29 l-238 3 0 -200z"/>
</g>
</svg>
