<?xml version="1.0" standalone="no"?>
<!DOCTYPE svg PUBLIC "-//W3C//DTD SVG 20010904//EN"
 "http://www.w3.org/TR/2001/REC-SVG-20010904/DTD/svg10.dtd">
<svg version="1.0" xmlns="http://www.w3.org/2000/svg"
 width="512.000000pt" height="512.000000pt" viewBox="0 0 512.000000 512.000000"
 preserveAspectRatio="xMidYMid meet">

<g transform="translate(0.000000,512.000000) scale(0.100000,-0.100000)"
fill="#DB5461" stroke="none">
<path d="M4190 4566 c-30 -13 -773 -364 -1650 -780 -1753 -832 -1658 -782
-1701 -896 -39 -103 -42 -95 283 -777 161 -338 304 -627 318 -641 14 -14 49
-36 78 -50 44 -20 65 -24 120 -20 64 3 99 19 878 389 l811 385 18 -33 c50 -92
189 -179 305 -189 119 -11 253 39 331 124 91 98 128 245 96 382 -9 36 -15 65
-14 66 1 1 207 97 457 215 409 193 460 219 505 264 77 75 102 164 71 251 -13
38 -486 1044 -552 1175 -53 107 -132 159 -239 159 -40 0 -78 -8 -115 -24z"/>
<path d="M135 2588 c-80 -29 -131 -100 -122 -172 4 -37 607 -1313 652 -1382
42 -64 136 -83 209 -41 31 17 72 68 182 227 78 113 143 210 143 216 1 6 -118
265 -264 575 l-264 564 -73 6 c-151 13 -433 17 -463 7z"/>
<path d="M3688 1742 l-98 -3 0 -287 c0 -282 1 -288 24 -338 32 -68 83 -124
143 -154 l48 -25 658 -3 657 -2 0 95 0 94 -635 3 -635 3 -27 28 -28 27 -5 283
-5 282 -97 -3z"/>
</g>
</svg>
