<?xml version="1.0" standalone="no"?>
<!DOCTYPE svg PUBLIC "-//W3C//DTD SVG 20010904//EN"
 "http://www.w3.org/TR/2001/REC-SVG-20010904/DTD/svg10.dtd">
<svg version="1.0" xmlns="http://www.w3.org/2000/svg"
 width="512.000000pt" height="512.000000pt" viewBox="0 0 512.000000 512.000000"
 preserveAspectRatio="xMidYMid meet">

<g transform="translate(0.000000,512.000000) scale(0.100000,-0.100000)"
fill="#000000" stroke="none">
<path d="M981 4325 c-97 -22 -182 -52 -242 -88 -52 -31 -54 -34 -59 -81 l-5
-50 -53 -11 c-29 -7 -64 -23 -77 -35 -33 -31 -179 -324 -244 -489 -173 -439
-264 -856 -291 -1326 -17 -307 15 -918 56 -1056 41 -136 124 -251 239 -328 89
-59 153 -81 331 -110 108 -18 139 -20 173 -11 82 22 96 43 323 492 124 244
225 434 243 451 59 60 -2 57 1185 57 1187 0 1126 3 1185 -57 18 -17 119 -205
243 -451 227 -449 241 -470 323 -492 34 -9 65 -7 173 11 178 29 242 51 331
110 115 77 198 192 239 328 40 137 73 753 56 1057 -27 465 -121 893 -291 1325
-65 165 -211 458 -244 489 -13 12 -48 28 -77 35 l-53 11 -5 50 c-5 47 -7 50
-59 81 -106 63 -266 103 -411 102 -52 0 -113 -6 -135 -12 -36 -12 -40 -16 -50
-62 -8 -41 -14 -50 -30 -48 -11 1 -83 9 -160 18 -736 81 -1334 81 -2070 0 -77
-9 -149 -17 -160 -18 -16 -2 -22 7 -30 48 -10 46 -14 50 -50 62 -54 16 -225
15 -304 -2z m3039 -557 c55 -38 75 -73 75 -133 0 -153 -198 -213 -282 -86 -49
73 -21 184 57 223 49 25 110 23 150 -4z m-2819 -116 c32 -36 36 -72 18 -152
-11 -47 -70 -119 -120 -145 -22 -12 -29 -12 -55 4 -55 35 -102 94 -113 141
-16 71 -13 114 10 144 31 39 54 46 147 43 81 -2 85 -3 113 -35z m2528 -200
c61 -44 79 -142 39 -202 -38 -55 -73 -75 -133 -75 -60 0 -95 20 -132 75 -41
60 -23 158 38 203 53 39 135 39 188 -1z m627 -13 c80 -78 61 -199 -38 -250
-79 -40 -172 -7 -209 75 -24 53 -24 80 1 130 49 98 169 120 246 45z m-3462
-31 c32 -16 116 -115 116 -135 0 -8 -26 -42 -57 -74 -55 -57 -62 -60 -126 -71
-126 -21 -172 25 -165 164 3 76 5 81 37 110 33 29 37 30 102 25 37 -3 79 -12
93 -19z m558 -7 c31 -28 33 -34 36 -109 7 -139 -39 -184 -165 -164 -65 11 -70
14 -125 72 -32 33 -58 67 -58 74 0 17 83 116 107 130 26 14 73 24 125 25 39 1
53 -4 80 -28z m-310 -236 c65 -56 75 -74 83 -151 12 -108 -33 -154 -150 -154
-113 0 -163 48 -151 145 3 28 10 65 16 81 11 31 112 124 135 124 7 0 37 -20
67 -45z m2896 -21 c89 -68 77 -209 -21 -261 -105 -54 -227 21 -227 140 0 129
144 199 248 121z m-2066 -407 c158 -73 224 -261 148 -415 -53 -106 -138 -162
-256 -170 -97 -6 -158 15 -228 79 -72 66 -100 129 -99 229 0 81 13 119 60 185
84 115 242 154 375 92z m1433 4 c57 -25 124 -93 155 -156 18 -39 24 -66 24
-125 0 -100 -28 -163 -100 -229 -70 -64 -131 -85 -228 -79 -122 8 -211 70
-264 186 -21 47 -24 64 -20 136 5 93 25 140 85 199 92 93 231 120 348 68z"/>
</g>
</svg>
