<?xml version="1.0" standalone="no"?>
<!DOCTYPE svg PUBLIC "-//W3C//DTD SVG 20010904//EN"
 "http://www.w3.org/TR/2001/REC-SVG-20010904/DTD/svg10.dtd">
<svg version="1.0" xmlns="http://www.w3.org/2000/svg"
 width="512.000000pt" height="512.000000pt" viewBox="0 0 512.000000 512.000000"
 preserveAspectRatio="xMidYMid meet">

<g transform="translate(0.000000,512.000000) scale(0.100000,-0.100000)"
fill="#000000" stroke="none">
<path d="M3766 4968 c-16 -84 -32 -159 -36 -167 -4 -8 -29 -22 -56 -33 l-49
-18 -140 95 -140 95 -147 -147 c-82 -82 -146 -153 -144 -159 3 -7 43 -66 91
-133 l86 -121 -23 -57 -23 -58 -158 -24 -157 -25 0 -211 0 -211 150 -24 c82
-13 154 -26 159 -29 5 -4 18 -29 29 -57 l21 -51 -92 -137 -91 -137 151 -151
150 -150 139 91 140 90 57 -21 c31 -11 59 -28 61 -37 3 -9 15 -82 27 -164 l23
-147 205 2 205 3 31 154 31 155 52 23 52 23 141 -92 141 -91 149 149 149 149
-95 135 c-53 74 -93 140 -91 146 3 7 10 31 17 54 7 22 20 45 28 49 9 5 82 21
164 37 l147 28 0 211 0 211 -162 25 -163 24 -16 35 c-33 71 -34 68 60 212 l89
136 -147 145 -146 145 -130 -94 c-137 -100 -133 -98 -205 -65 l-35 16 -24 163
-25 162 -211 0 -211 0 -28 -152z m347 -688 c60 -22 128 -84 161 -145 17 -33
21 -57 21 -140 0 -90 -3 -104 -27 -145 -63 -107 -155 -162 -272 -163 -89 0
-153 26 -218 90 -64 63 -91 129 -91 219 1 108 44 190 137 257 71 51 194 62
289 27z"/>
<path d="M763 4290 c-75 -11 -175 -61 -228 -115 -57 -56 -103 -152 -115 -237
-13 -90 -13 -2276 0 -2357 6 -35 20 -81 30 -102 11 -21 20 -41 20 -44 0 -3
-61 -5 -135 -5 -204 0 -231 -17 -222 -144 9 -137 83 -271 195 -356 77 -58 146
-86 240 -100 90 -13 3934 -13 4024 0 94 14 163 42 240 100 112 85 186 219 195
356 9 127 -18 144 -222 144 -74 0 -135 2 -135 5 0 3 9 23 20 44 36 71 40 148
40 778 l0 612 -67 -40 c-37 -21 -82 -44 -100 -50 l-33 -11 0 -584 c0 -638 1
-625 -58 -688 -15 -16 -45 -37 -67 -47 -38 -18 -109 -19 -1825 -19 -1716 0
-1787 1 -1825 19 -22 10 -52 31 -67 47 -61 66 -58 -7 -58 1269 0 1276 -3 1204
58 1268 62 66 -9 61 1042 67 l955 5 7 55 c4 30 11 74 16 98 l10 42 -942 -1
c-517 -1 -964 -5 -993 -9z"/>
</g>
</svg>
