<?xml version="1.0" standalone="no"?>
<!DOCTYPE svg PUBLIC "-//W3C//DTD SVG 20010904//EN"
 "http://www.w3.org/TR/2001/REC-SVG-20010904/DTD/svg10.dtd">
<svg version="1.0" xmlns="http://www.w3.org/2000/svg"
 width="512.000000pt" height="512.000000pt" viewBox="0 0 512.000000 512.000000"
 preserveAspectRatio="xMidYMid meet">

<g transform="translate(0.000000,512.000000) scale(0.100000,-0.100000)"
fill="#000000" stroke="none">
<path d="M573 4695 c-17 -7 -36 -22 -42 -34 -7 -12 -11 -97 -11 -225 l0 -204
-106 -419 c-91 -360 -105 -425 -100 -470 8 -65 38 -148 71 -193 l25 -34 0
-1303 c0 -1445 -4 -1360 64 -1388 53 -22 4119 -22 4172 0 68 28 64 -57 64
1388 l0 1303 25 34 c33 45 63 128 71 193 5 45 -9 110 -100 470 l-106 419 0
204 c0 128 -4 213 -11 226 -27 50 65 48 -2031 48 -1638 -1 -1958 -3 -1985 -15z
m3867 -635 c62 -232 170 -671 170 -695 0 -44 -32 -106 -73 -142 -128 -112
-320 -33 -342 143 -11 91 -71 134 -141 100 -38 -18 -47 -34 -63 -120 -23 -127
-136 -200 -259 -167 -80 22 -151 110 -152 188 0 45 -19 82 -51 99 -42 21 -75
17 -109 -13 -25 -23 -33 -39 -40 -92 -11 -82 -46 -132 -113 -166 -66 -32 -119
-32 -186 1 -65 33 -98 81 -111 160 -11 67 -34 104 -74 117 -58 19 -126 -28
-126 -87 0 -117 -97 -216 -210 -216 -109 0 -210 99 -210 208 0 35 -25 77 -55
90 -41 19 -72 14 -105 -15 -24 -23 -32 -41 -39 -92 -14 -84 -45 -131 -112
-165 -67 -33 -120 -33 -186 -1 -67 34 -102 84 -113 166 -7 53 -15 69 -40 92
-67 60 -160 11 -160 -85 -1 -76 -71 -166 -147 -187 -82 -23 -149 -6 -208 53
-43 44 -45 48 -71 184 -7 34 -61 64 -104 58 -49 -7 -77 -43 -85 -111 -22 -175
-214 -254 -342 -142 -41 36 -73 98 -73 142 0 24 108 463 170 695 l11 40 1869
0 1869 0 11 -40z m-1980 -2525 l0 -925 -615 0 -615 0 0 925 0 925 615 0 615 0
0 -925z m1430 0 l0 -925 -615 0 -615 0 0 925 0 925 615 0 615 0 0 -925z"/>
<path d="M2120 1733 c-56 -22 -81 -82 -55 -136 48 -103 205 -50 180 61 -11 53
-79 93 -125 75z"/>
<path d="M2940 1733 c-78 -30 -90 -142 -19 -178 42 -22 75 -18 111 14 43 38
46 98 8 136 -26 25 -73 39 -100 28z"/>
</g>
</svg>
