<?xml version="1.0" standalone="no"?>
<!DOCTYPE svg PUBLIC "-//W3C//DTD SVG 20010904//EN"
 "http://www.w3.org/TR/2001/REC-SVG-20010904/DTD/svg10.dtd">
<svg version="1.0" xmlns="http://www.w3.org/2000/svg"
 width="512.000000pt" height="512.000000pt" viewBox="0 0 512.000000 512.000000"
 preserveAspectRatio="xMidYMid meet">

<g transform="translate(0.000000,512.000000) scale(0.100000,-0.100000)"
fill="#DB5461" stroke="none">
<path d="M2370 4799 c-231 -22 -447 -85 -667 -194 -318 -157 -557 -365 -752
-655 -179 -266 -285 -560 -320 -882 -12 -107 -15 -318 -5 -367 l7 -31 673 0
c371 0 674 2 674 4 0 2 -7 23 -16 47 -12 31 -17 77 -17 154 0 93 4 121 26 183
37 106 82 174 168 256 120 116 249 167 419 167 170 0 299 -51 419 -167 122
-116 183 -241 196 -398 6 -73 -5 -187 -21 -230 -6 -14 62 -16 664 -16 l670 0
6 31 c10 49 7 260 -5 367 -35 322 -141 616 -320 882 -195 290 -434 498 -752
655 -333 165 -682 229 -1047 194z"/>
<path d="M2508 3061 c-84 -27 -148 -111 -148 -193 0 -110 89 -198 200 -198
111 0 200 88 200 198 0 59 -44 138 -94 167 -47 28 -117 39 -158 26z"/>
<path d="M343 2426 l-28 -24 -3 -994 c-2 -708 0 -1004 8 -1031 21 -72 -159
-67 2240 -67 2399 0 2219 -5 2240 67 8 27 10 323 8 1031 l-3 994 -28 24 -28
24 -2189 0 -2189 0 -28 -24z m2908 -514 c44 -49 36 -115 -21 -159 -22 -18
-1318 -18 -1340 0 -29 23 -50 61 -50 93 0 35 31 81 64 94 11 5 313 8 669 7
l649 -2 29 -33z"/>
</g>
</svg>
