<?xml version="1.0" standalone="no"?>
<!DOCTYPE svg PUBLIC "-//W3C//DTD SVG 20010904//EN"
 "http://www.w3.org/TR/2001/REC-SVG-20010904/DTD/svg10.dtd">
<svg version="1.0" xmlns="http://www.w3.org/2000/svg"
 width="512.000000pt" height="512.000000pt" viewBox="0 0 512.000000 512.000000"
 preserveAspectRatio="xMidYMid meet">

<g transform="translate(0.000000,512.000000) scale(0.100000,-0.100000)"
fill="#000000" stroke="none">
<path d="M739 5106 c-57 -20 -96 -53 -118 -99 -14 -30 -93 -475 -284 -1607
-146 -861 -263 -1566 -262 -1568 1 -2 31 2 66 8 92 14 4735 14 4830 -1 39 -6
72 -9 74 -7 2 2 -112 708 -255 1568 -211 1276 -263 1573 -282 1610 -25 49 -70
84 -127 100 -23 6 -655 10 -1821 10 -1433 -1 -1792 -3 -1821 -14z"/>
<path d="M115 1613 c-44 -23 -65 -43 -89 -88 -21 -40 -21 -44 -21 -705 l0
-665 22 -45 c28 -55 72 -87 142 -100 74 -14 4708 -14 4782 0 70 13 114 45 142
100 l22 45 0 665 c0 631 -1 667 -19 700 -26 49 -46 69 -88 91 -36 18 -102 19
-2450 19 -2183 -1 -2416 -2 -2443 -17z m815 -738 l0 -155 150 0 150 0 0 155 0
155 105 0 105 0 0 -155 0 -155 150 0 150 0 0 155 0 155 105 0 105 0 0 -155 0
-155 150 0 150 0 0 155 0 155 105 0 105 0 0 -155 0 -155 150 0 150 0 0 155 0
155 105 0 105 0 0 -155 0 -155 150 0 150 0 0 155 0 155 110 0 110 0 0 -260 0
-260 -1390 0 -1390 0 0 260 0 260 110 0 110 0 0 -155z m3371 123 c70 -39 119
-139 103 -212 -33 -161 -221 -229 -341 -123 -187 164 22 457 238 335z"/>
</g>
</svg>
