<?xml version="1.0" standalone="no"?>
<!DOCTYPE svg PUBLIC "-//W3C//DTD SVG 20010904//EN"
 "http://www.w3.org/TR/2001/REC-SVG-20010904/DTD/svg10.dtd">
<svg version="1.0" xmlns="http://www.w3.org/2000/svg"
 width="512.000000pt" height="512.000000pt" viewBox="0 0 512.000000 512.000000"
 preserveAspectRatio="xMidYMid meet">

<g transform="translate(0.000000,512.000000) scale(0.100000,-0.100000)"
fill="#DB5461" stroke="none">
<path d="M127 4993 l-125 -126 210 -366 c116 -201 214 -370 218 -374 3 -4 69
2 145 14 l138 21 801 -801 801 -802 -71 -67 c-84 -79 -107 -119 -107 -187 0
-66 29 -120 94 -179 86 -78 129 -88 232 -59 l59 16 109 -109 110 -110 2 -89
c2 -74 8 -101 31 -155 28 -61 74 -110 740 -778 454 -455 733 -728 771 -753
209 -138 485 -109 665 71 174 173 211 434 93 650 -30 55 -143 173 -752 782
-789 791 -750 757 -901 778 -41 6 -86 8 -100 5 -22 -5 -41 10 -139 109 l-115
115 17 54 c31 99 19 150 -60 237 -56 62 -109 89 -176 90 -72 0 -115 -23 -190
-103 l-68 -71 -800 800 -801 801 21 138 c12 76 18 142 14 145 -4 4 -173 102
-374 218 l-366 210 -126 -125z m3743 -3588 l615 -615 -78 -77 -77 -78 -617
617 -618 618 75 75 c41 41 77 75 80 75 3 0 282 -277 620 -615z"/>
<path d="M3756 5104 c-254 -46 -609 -214 -818 -388 -317 -263 -380 -635 -177
-1040 l40 -80 -181 -181 -180 -180 62 -62 63 -62 27 20 c53 39 137 62 228 61
146 0 230 -45 354 -189 80 -92 106 -160 106 -273 0 -73 1 -77 33 -108 18 -18
42 -32 52 -32 12 0 65 45 127 107 l107 107 78 -36 c298 -138 590 -142 812 -11
262 155 531 606 607 1018 31 167 13 408 -34 465 -24 29 -72 40 -108 25 -16 -7
-161 -142 -322 -300 l-293 -287 -40 5 c-36 5 -65 31 -322 282 -155 153 -287
287 -294 299 -17 29 -16 71 1 104 8 15 139 151 290 302 183 182 280 286 287
307 13 40 -8 86 -49 107 -74 38 -302 48 -456 20z"/>
<path d="M1576 2371 c-170 -170 -314 -307 -320 -305 -6 2 -55 8 -108 12 -356
32 -703 -121 -919 -406 -64 -85 -141 -237 -173 -342 -68 -225 -43 -525 61
-735 46 -92 135 -216 204 -286 402 -401 1069 -402 1466 -1 219 221 328 519
302 825 -4 51 -10 104 -14 118 -5 21 23 52 224 254 252 251 249 247 194 306
-22 24 -33 27 -116 31 -117 5 -181 33 -282 123 -92 83 -140 152 -161 235 -25
100 -16 183 33 281 l39 79 -61 60 -60 60 -309 -309z m-97 -1437 l-61 -241
-226 -61 c-125 -34 -238 -64 -252 -67 -22 -5 -47 16 -203 173 l-179 179 67
245 68 245 241 66 241 65 182 -182 182 -181 -60 -241z"/>
</g>
</svg>
