<?xml version="1.0" standalone="no"?>
<!DOCTYPE svg PUBLIC "-//W3C//DTD SVG 20010904//EN"
 "http://www.w3.org/TR/2001/REC-SVG-20010904/DTD/svg10.dtd">
<svg version="1.0" xmlns="http://www.w3.org/2000/svg"
 width="512.000000pt" height="512.000000pt" viewBox="0 0 512.000000 512.000000"
 preserveAspectRatio="xMidYMid meet">

<g transform="translate(0.000000,512.000000) scale(0.100000,-0.100000)"
fill="#000000" stroke="none">
<path d="M265 5031 c-51 -15 -75 -48 -75 -103 0 -31 166 -199 2297 -2330 1849
-1850 2304 -2299 2329 -2304 36 -7 88 16 104 45 26 49 6 102 -64 171 l-46 44
0 903 c0 966 1 956 -48 982 -15 8 -299 11 -934 11 l-913 0 -122 122 -122 121
33 39 c60 70 70 145 30 226 -61 122 -227 145 -321 44 l-24 -26 -147 147 -146
146 34 37 c47 49 152 116 222 142 132 49 301 46 436 -9 93 -37 141 -70 218
-150 133 -140 189 -308 165 -493 -6 -45 -14 -91 -17 -103 l-6 -23 669 0 670 0
7 46 c9 71 7 243 -5 352 -41 385 -186 726 -440 1043 -206 255 -523 474 -856
589 -681 237 -1443 72 -1961 -424 l-73 -70 -402 402 c-401 400 -444 437 -492
423z"/>
<path d="M826 3729 c-114 -232 -169 -418 -195 -661 -12 -109 -14 -281 -5 -352
l7 -46 668 0 c368 0 669 3 669 8 0 4 -7 43 -14 86 l-14 79 -520 520 -520 520
-76 -154z"/>
<path d="M345 2426 c-13 -13 -26 -39 -30 -57 -3 -19 -4 -476 -3 -1016 l3 -983
28 -27 27 -28 2053 -3 2052 -2 -715 715 -715 715 -562 0 c-383 0 -570 3 -586
11 -60 27 -74 110 -28 161 l29 33 468 3 468 3 -249 249 -250 250 -983 0 -983
0 -24 -24z"/>
</g>
</svg>
