<?xml version="1.0" standalone="no"?>
<!DOCTYPE svg PUBLIC "-//W3C//DTD SVG 20010904//EN"
 "http://www.w3.org/TR/2001/REC-SVG-20010904/DTD/svg10.dtd">
<svg version="1.0" xmlns="http://www.w3.org/2000/svg"
 width="512.000000pt" height="512.000000pt" viewBox="0 0 512.000000 512.000000"
 preserveAspectRatio="xMidYMid meet">

<g transform="translate(0.000000,512.000000) scale(0.100000,-0.100000)"
fill="#000000" stroke="none">
<path d="M2310 4699 c-497 -32 -974 -246 -1347 -602 -316 -302 -538 -723 -619
-1172 -24 -131 -28 -176 -28 -355 0 -298 38 -514 137 -770 202 -522 563 -919
1062 -1165 428 -212 939 -272 1415 -167 l35 8 3 103 c3 98 2 102 -17 96 -57
-18 -233 -46 -354 -57 -319 -28 -679 40 -982 186 -392 188 -710 505 -905 901
-229 465 -262 981 -94 1484 143 428 438 796 831 1035 115 70 155 90 287 143
515 207 1069 187 1574 -57 402 -194 707 -499 909 -911 46 -93 136 -352 125
-357 -4 -1 -140 52 -302 119 -162 67 -308 125 -325 130 -61 18 -125 -28 -125
-91 0 -48 28 -77 102 -108 468 -195 769 -315 799 -319 65 -9 74 6 250 432 89
215 163 404 166 421 13 79 -81 135 -150 89 -19 -12 -51 -80 -133 -280 l-108
-264 -39 107 c-324 910 -1201 1485 -2167 1421z"/>
<path d="M3465 1926 c-115 -36 -198 -108 -248 -214 l-32 -67 -3 -649 c-3 -706
-3 -705 54 -802 58 -99 167 -168 293 -185 43 -6 310 -9 674 -7 584 3 604 4
653 24 112 46 192 126 238 237 20 51 21 66 24 654 2 364 -1 631 -7 674 -23
165 -121 283 -274 331 -54 17 -106 18 -695 17 -485 0 -647 -3 -677 -13z m1253
-566 c34 -29 62 -57 62 -62 0 -8 -590 -688 -660 -762 l-28 -28 -198 152 c-110
84 -218 168 -241 187 l-43 34 62 82 c34 45 62 83 64 85 1 2 78 -55 170 -126
l168 -128 276 321 c231 271 277 320 290 310 8 -6 43 -35 78 -65z"/>
</g>
</svg>
