<?xml version="1.0" standalone="no"?>
<!DOCTYPE svg PUBLIC "-//W3C//DTD SVG 20010904//EN"
 "http://www.w3.org/TR/2001/REC-SVG-20010904/DTD/svg10.dtd">
<svg version="1.0" xmlns="http://www.w3.org/2000/svg"
 width="512.000000pt" height="512.000000pt" viewBox="0 0 512.000000 512.000000"
 preserveAspectRatio="xMidYMid meet">

<g transform="translate(0.000000,512.000000) scale(0.100000,-0.100000)"
fill="#DB5461" stroke="none">
<path d="M233 4910 c-34 -20 -51 -69 -38 -110 7 -22 4561 -4582 4594 -4600 74
-39 169 56 131 131 -7 13 -342 355 -746 759 l-734 735 42 54 41 54 -24 18
c-26 20 -33 22 -97 19 -35 -1 -47 4 -72 28 -24 24 -30 39 -30 72 0 23 5 50 10
61 24 43 126 69 201 49 133 -35 232 -157 328 -405 49 -126 142 -225 251 -266
162 -62 382 40 471 219 33 64 34 71 34 182 0 109 -2 118 -32 181 -62 126 -188
220 -322 238 -83 11 -182 -7 -281 -49 -184 -80 -291 -102 -393 -80 -126 26
-194 108 -153 184 31 58 96 72 166 36 22 -11 57 -20 78 -20 38 0 40 2 46 38 3
20 6 65 6 99 l0 63 49 25 c95 47 195 69 311 66 275 -6 261 -7 321 21 72 33
134 94 168 167 22 47 26 70 26 141 0 71 -4 94 -26 140 -36 77 -77 121 -151
161 -59 32 -69 34 -158 34 -89 0 -99 -2 -158 -34 -47 -26 -78 -53 -120 -105
-66 -82 -147 -130 -238 -142 -107 -13 -125 -1 -254 174 -118 159 -305 302
-487 374 -104 41 -148 53 -138 38 3 -6 24 -19 45 -30 50 -25 70 -55 70 -103 0
-44 -39 -91 -84 -103 -64 -16 -185 66 -227 154 -37 76 -33 161 14 253 20 41
70 117 111 169 180 228 225 356 177 509 -49 159 -172 266 -335 293 -222 37
-436 -116 -478 -341 -22 -119 38 -276 237 -611 119 -200 135 -237 135 -304 0
-128 -140 -203 -214 -115 -28 33 -34 85 -16 120 8 14 6 29 -10 59 -12 23 -28
44 -36 47 -21 8 -168 -51 -255 -102 -84 -50 -88 -49 -128 30 -31 63 -36 105
-21 200 10 65 10 97 1 142 -27 138 -119 255 -248 316 -62 29 -76 32 -168 32
-91 0 -106 -3 -165 -31 -36 -17 -83 -46 -104 -64 l-38 -33 -381 380 c-210 210
-392 386 -404 392 -32 16 -64 13 -100 -9z m2844 -1866 c108 -62 133 -217 50
-311 -128 -146 -367 -54 -367 142 0 17 11 53 24 82 52 112 183 150 293 87z"/>
<path d="M3519 4226 c-102 -27 -191 -103 -236 -203 -18 -39 -27 -83 -34 -160
-5 -58 -11 -108 -14 -112 -2 -4 10 -16 28 -26 55 -31 173 -122 242 -186 59
-56 67 -60 83 -47 9 8 44 19 78 25 162 29 272 137 304 299 50 252 -199 478
-451 410z"/>
<path d="M760 3131 c-95 -29 -184 -113 -220 -207 -33 -89 -26 -196 20 -282 61
-116 163 -176 295 -176 73 0 88 3 170 41 50 24 108 46 130 51 40 8 40 8 42 57
6 113 30 248 68 375 4 12 -7 15 -56 16 -45 1 -67 7 -87 22 -57 45 -128 89
-161 100 -38 13 -162 15 -201 3z"/>
<path d="M1518 3043 c-95 -207 -127 -420 -96 -641 10 -74 9 -84 -6 -101 -29
-32 -76 -34 -140 -6 -333 147 -683 -162 -576 -508 52 -167 196 -281 371 -294
150 -12 279 51 383 185 48 63 105 107 156 122 44 13 80 -5 167 -82 134 -119
295 -211 446 -256 37 -11 67 -18 67 -16 0 8 -49 99 -69 129 -51 74 -3 164 86
165 35 0 48 -6 77 -36 87 -89 145 -264 127 -379 -13 -85 -41 -136 -113 -203
-154 -144 -185 -179 -219 -247 -30 -62 -34 -79 -34 -150 0 -92 18 -150 73
-234 42 -64 131 -132 205 -157 75 -26 214 -24 287 4 169 66 281 240 267 416
-8 98 -42 194 -162 451 -118 255 -138 309 -139 386 -1 45 5 64 26 97 76 113
231 49 197 -80 -10 -38 -9 -49 9 -91 l21 -48 33 14 c72 31 148 70 148 76 0 3
-171 177 -379 385 l-380 380 5 -55 c5 -46 2 -62 -23 -109 -95 -181 -356 -137
-388 65 -21 129 93 245 226 233 l51 -5 -333 333 c-184 184 -334 334 -335 334
0 0 -17 -35 -36 -77z"/>
<path d="M1661 1486 c-14 -15 -37 -25 -64 -28 -97 -12 -200 -88 -247 -183 -21
-42 -25 -65 -25 -140 0 -80 3 -97 29 -148 105 -208 381 -255 546 -94 56 55 90
131 101 223 5 50 17 91 35 124 15 28 25 51 23 53 -2 1 -52 26 -111 55 -60 30
-142 78 -184 108 -41 30 -76 54 -78 54 -1 0 -13 -11 -25 -24z"/>
<path d="M3212 1367 l-62 -32 56 -55 c72 -71 93 -118 105 -238 21 -211 138
-332 323 -333 93 -1 144 15 215 69 l33 25 -298 298 c-165 165 -301 299 -304
299 -3 -1 -33 -15 -68 -33z"/>
</g>
</svg>
