<?xml version="1.0" standalone="no"?>
<!DOCTYPE svg PUBLIC "-//W3C//DTD SVG 20010904//EN"
 "http://www.w3.org/TR/2001/REC-SVG-20010904/DTD/svg10.dtd">
<svg version="1.0" xmlns="http://www.w3.org/2000/svg"
 width="512.000000pt" height="512.000000pt" viewBox="0 0 512.000000 512.000000"
 preserveAspectRatio="xMidYMid meet">

<g transform="translate(0.000000,512.000000) scale(0.100000,-0.100000)"
fill="#000000" stroke="none">
<path d="M3514 4544 c-595 -89 -1091 -167 -1103 -173 -53 -29 -52 -7 -49 -862
l3 -791 28 -24 28 -24 1113 0 1113 0 25 25 c14 14 28 39 32 56 8 40 8 1826 0
1866 -9 43 -36 73 -74 82 -25 5 -336 -38 -1116 -155z"/>
<path d="M1250 4204 c-410 -62 -751 -113 -757 -113 -7 -1 -27 -14 -45 -30
l-33 -29 -3 -614 c-2 -337 0 -632 3 -655 4 -25 16 -51 32 -67 l26 -26 807 0
807 0 26 26 c16 16 28 42 32 67 3 23 5 368 3 767 -3 782 -1 755 -55 779 -13 6
-41 10 -61 10 -20 -1 -372 -52 -782 -115z"/>
<path d="M448 2425 c-14 -14 -28 -39 -32 -56 -10 -53 -7 -1231 4 -1269 6 -22
21 -42 39 -53 36 -21 1575 -253 1614 -243 35 8 63 40 71 78 8 40 8 1446 0
1487 -4 17 -18 42 -32 56 l-25 25 -807 0 -807 0 -25 -25z"/>
<path d="M2389 2421 l-29 -29 0 -787 c0 -847 -1 -828 51 -856 12 -6 510 -84
1107 -174 852 -127 1093 -160 1119 -153 72 20 68 -43 71 978 2 503 0 934 -3
957 -4 25 -16 51 -32 67 l-26 26 -1114 0 -1115 0 -29 -29z"/>
</g>
</svg>
