<?xml version="1.0" standalone="no"?>
<!DOCTYPE svg PUBLIC "-//W3C//DTD SVG 20010904//EN"
 "http://www.w3.org/TR/2001/REC-SVG-20010904/DTD/svg10.dtd">
<svg version="1.0" xmlns="http://www.w3.org/2000/svg"
 width="512.000000pt" height="512.000000pt" viewBox="0 0 512.000000 512.000000"
 preserveAspectRatio="xMidYMid meet">

<g transform="translate(0.000000,512.000000) scale(0.100000,-0.100000)"
fill="#DB5461" stroke="none">
<path d="M153 4800 c-71 -17 -126 -77 -143 -156 -7 -34 -10 -743 -8 -2269 l3
-2220 21 -40 c25 -46 45 -65 94 -91 33 -18 69 -19 701 -19 l666 0 48 30 c32
20 56 45 72 74 l23 44 0 2257 0 2258 -32 48 c-19 27 -50 56 -73 68 -39 21 -54
21 -690 23 -357 1 -665 -2 -682 -7z m732 -3887 c37 -9 91 -53 113 -91 99 -176
-81 -376 -263 -293 -183 83 -155 345 41 390 36 8 59 7 109 -6z"/>
<path d="M1850 4555 l0 -255 1348 0 c1043 -1 1350 -3 1362 -13 9 -7 24 -23 33
-37 16 -23 17 -114 17 -1286 l0 -1262 -29 -30 c-17 -16 -44 -32 -62 -36 -17
-3 -625 -6 -1350 -6 l-1319 0 0 -405 0 -405 1558 2 c1499 3 1558 4 1592 22 49
26 69 45 94 91 l21 40 3 1810 c1 1234 -1 1826 -8 1861 -12 56 -54 115 -103
142 -30 16 -135 17 -1594 20 l-1563 2 0 -255z"/>
<path d="M2360 611 l0 -99 -142 -4 c-167 -5 -222 -22 -286 -92 -64 -69 -82
-134 -82 -286 l0 -130 1021 0 1022 0 -5 139 c-5 120 -8 145 -30 193 -31 67
-80 117 -144 149 -43 21 -67 24 -191 27 l-143 4 0 99 0 99 -510 0 -510 0 0
-99z"/>
</g>
</svg>
