<svg xmlns="http://www.w3.org/2000/svg" viewBox="0 0 644.21 581.85"><defs><style>.cls-1{fill:#b8d8ef;}.cls-2,.cls-3{fill:#22565a;}.cls-3{font-size:238px;font-family:CirceRoundedAlt-Regular2, Circe Rounded Alt ;}.cls-4{font-size:220px;}</style></defs><g id="Слой_2" data-name="Слой 2"><path class="cls-1" d="M916.46,592.24a273.34,273.34,0,0,1-2.33,35.24l.71-5.32a265.12,265.12,0,0,1-18.29,67.26l2-4.78a266.84,266.84,0,0,1-34.35,58.83l3.13-4.05a269,269,0,0,1-47.86,47.86l4-3.13a266.84,266.84,0,0,1-58.83,34.35l4.78-2a265.12,265.12,0,0,1-67.26,18.29l5.32-.71a270,270,0,0,1-70.49,0l5.32.71a265,265,0,0,1-67.25-18.29l4.78,2a266.61,266.61,0,0,1-58.83-34.35l4,3.13a268.35,268.35,0,0,1-47.86-47.86l3.12,4.05a266.8,266.8,0,0,1-34.34-58.83l2,4.78a265.54,265.54,0,0,1-18.29-67.26l.72,5.32a269.17,269.17,0,0,1,0-70.49l-.72,5.32a265.46,265.46,0,0,1,18.29-67.25l-2,4.77A266.5,266.5,0,0,1,480.39,441l-3.12,4a268.35,268.35,0,0,1,47.86-47.86l-4,3.13A266.61,266.61,0,0,1,579.91,366l-4.78,2a265,265,0,0,1,67.25-18.29l-5.32.71a270,270,0,0,1,70.49,0l-5.32-.71A265.12,265.12,0,0,1,769.49,368l-4.78-2a266.84,266.84,0,0,1,58.83,34.35l-4-3.13a269,269,0,0,1,47.86,47.86l-3.13-4a266.54,266.54,0,0,1,34.35,58.82l-2-4.77a265,265,0,0,1,18.29,67.25l-.71-5.32a273.38,273.38,0,0,1,2.33,35.25c0,10.46,9.19,20.48,20,20s20-8.79,20-20a284.45,284.45,0,0,0-13.58-87A281.35,281.35,0,0,0,905,429.17a300.14,300.14,0,0,0-28.33-34.4,296.65,296.65,0,0,0-33.45-29.41,283.64,283.64,0,0,0-389,44.91,275.09,275.09,0,0,0-45.62,76.42c-11.09,27-17.34,55.75-19.59,84.83A284.07,284.07,0,0,0,553.6,850.37a274.17,274.17,0,0,0,87.8,24.23,283.46,283.46,0,0,0,88.93-4.19,280.48,280.48,0,0,0,80.35-29.94A284.86,284.86,0,0,0,926.24,719.8a279.76,279.76,0,0,0,26.46-82,304.2,304.2,0,0,0,3.76-45.59c0-10.47-9.21-20.49-20-20S916.48,581,916.46,592.24Z" transform="translate(-312.25 -294.52)"/><path class="cls-2" d="M592.82,334.52a262.68,262.68,0,0,1,34.09,2.25l-5.32-.72a259.88,259.88,0,0,1,66,18l-4.78-2a265,265,0,0,1,58.5,34.18l-4-3.13A267.43,267.43,0,0,1,784.9,430.7l-3.13-4.05A264.74,264.74,0,0,1,816,485.15l-2-4.78a259.88,259.88,0,0,1,18,66l-.72-5.32a263.25,263.25,0,0,1,0,68.86l.72-5.32a261.53,261.53,0,0,1-18.05,66.35l2-4.77a263,263,0,0,1-33.89,58l3.13-4.05a264.44,264.44,0,0,1-47.22,47.21l4-3.12a262.88,262.88,0,0,1-58,33.88l4.78-2a261.51,261.51,0,0,1-66.35,18l5.32-.71a266.26,266.26,0,0,1-69.54,0l5.31.71a261.73,261.73,0,0,1-66.35-18l4.78,2a263.33,263.33,0,0,1-58-33.88l4.05,3.12a264.38,264.38,0,0,1-47.21-47.21l3.12,4.05a263.33,263.33,0,0,1-33.88-58l2,4.77a261.51,261.51,0,0,1-18-66.35l.71,5.32a258.85,258.85,0,0,1,.09-68.28l-.72,5.31c3.1-22.63,8.47-44.6,17.35-65.67l-2,4.77a260.42,260.42,0,0,1,33.35-56.86l-3.13,4A287,287,0,0,1,450.79,382l-4.05,3.13q7-5.42,14.34-10.41c4.35-3,7.76-6.76,9.19-11.95,1.32-4.79.73-11.16-2-15.41s-6.86-8-12-9.19-11-1-15.41,2a327.4,327.4,0,0,0-40.49,32.45,294.75,294.75,0,0,0-47.78,58.58c-13.64,22-24.55,46.39-30.86,71.53-7.34,29.25-11,59.81-9,89.94a279.23,279.23,0,0,0,52.27,146.25c15.17,20.74,32.6,39.58,52.84,55.47a268.46,268.46,0,0,0,70.4,41.09C513,845.64,539,851.56,565.55,854.32a281.83,281.83,0,0,0,81.1-3.81,278.19,278.19,0,0,0,74-25.56A280.17,280.17,0,0,0,873.38,570.34a277.45,277.45,0,0,0-13-79.27,280.38,280.38,0,0,0-33.8-70.32,284.33,284.33,0,0,0-51.18-57.95,281.22,281.22,0,0,0-65.11-42.12c-24.09-11-49.33-19.1-75.6-22.85a298.54,298.54,0,0,0-41.9-3.31c-10.46,0-20.49,9.2-20,20s8.79,20,20,20Z" transform="translate(-312.25 -294.52)"/><path class="cls-2" d="M342,369.84l92.71-6.23,26.42-1.77-19.29-14.68,10.35,75.7,2.94,21.46a19.28,19.28,0,0,0,16.63,14.33,15.23,15.23,0,0,0,8-.36c4.84-1.57,9.51-4.57,11.95-9.19l2-4.78a20.18,20.18,0,0,0,0-10.63L483.3,358l-2.94-21.46-2-4.77a15.25,15.25,0,0,0-5.16-5.62,10,10,0,0,0-4.41-2.57,15.1,15.1,0,0,0-7.7-1.72l-92.72,6.22L342,329.84a19.27,19.27,0,0,0-18.28,12.29,15,15,0,0,0-1.72,7.71c.23,5.17,1.93,10.53,5.85,14.14,3.76,3.45,8.87,6.21,14.15,5.86Z" transform="translate(-312.25 -294.52)"/></g><g id="Слой_3" data-name="Слой 3"><text class="cls-3" transform="translate(86.72 374.98)">24<tspan class="cls-4" x="261.08" y="0">h</tspan></text></g></svg>