<svg xmlns="http://www.w3.org/2000/svg" viewBox="0 0 567.55 840.84"><defs><style>.cls-1{fill:#3f8e93;}.cls-2{fill:#22565a;}.cls-3{fill:#fff;}.cls-4{fill:#b8d8ef;}</style></defs><g id="Слой_6" data-name="Слой 6"><path class="cls-1" d="M851.48,815.67c0,3.44-.13,6.89-.41,10.33-.13,1.67-.29,3.33-.49,5l-.15,1.24s-.08.62,0,.21,0,.29,0,.39c-.11.82-.24,1.64-.37,2.45a128.29,128.29,0,0,1-4.67,19.42q-1.5,4.6-3.34,9.09c-.07.18-.48,1.14-.22.54-.16.37-.31.73-.48,1.1-.34.79-.69,1.58-1,2.36-.67,1.45-1.36,2.89-2.09,4.32a129.66,129.66,0,0,1-9.94,16.5q-1.43,2-2.93,4l-.25.32-.74.93c-.53.66-1.06,1.32-1.61,2q-3,3.66-6.34,7.08c-2.23,2.32-4.56,4.55-7,6.7q-1.77,1.59-3.6,3.1c-.61.51-1.22,1-1.84,1.5l-.93.74-.41.32c-.49.38.69-.52-.18.14a134.39,134.39,0,0,1-16.1,10.51c-2.85,1.57-5.77,3-8.73,4.39l-2,.91-1.1.47c.6-.26-.48.2-.7.29q-2.24.91-4.51,1.74a128.6,128.6,0,0,1-19,5.33c-1.68.33-3.36.63-5,.9l-2.29.34c-.1,0-.83.11-.38.06s-.17,0-.21,0l-1.41.17c-3.4.4-6.82.66-10.23.79a131.53,131.53,0,0,1-20.43-.83l-1.24-.15c-.44-.06.05,0,.12,0l-.71-.09c-.82-.12-1.64-.24-2.46-.38-1.63-.26-3.25-.55-4.87-.88q-4.89-1-9.71-2.35t-9.4-3.06q-2.28-.84-4.51-1.75l-.63-.27.1,0-1.11-.47-2.19-1a128.5,128.5,0,0,1-17-9.44c-2.65-1.74-5.24-3.59-7.76-5.52l-.45-.35-.93-.74c-.66-.53-1.32-1.07-2-1.62q-1.82-1.51-3.59-3.11a131.16,131.16,0,0,1-13.27-13.81l-1.5-1.84-.73-.94-.32-.4c.24.3.14.18,0-.05q-1.5-2-2.92-4-2.8-4-5.3-8.14t-4.61-8.38c-.72-1.44-1.41-2.88-2.07-4.34-.34-.73-.66-1.46-1-2.2l-.21-.47c0-.09-.31-.75-.14-.34s-.07-.16-.08-.19l-.33-.8a128.55,128.55,0,0,1-6-18.68c-.78-3.26-1.42-6.55-2-9.86-.11-.76-.23-1.52-.33-2.28,0-.13-.1-.74,0-.06,0-.18,0-.36-.07-.53-.06-.48-.12-.95-.17-1.42-.19-1.67-.35-3.33-.48-5a132.09,132.09,0,0,1,0-20.48c.14-1.73.31-3.45.52-5.17,0-.42.1-.83.16-1.24-.08.63,0-.21.06-.42.12-.88.25-1.75.4-2.63q.79-5,2-9.84a132.6,132.6,0,0,1,6.08-18.64c.07-.16.14-.31.2-.47-.25.6,0,0,0-.06.13-.32.27-.63.41-1,.34-.78.69-1.57,1-2.35.7-1.5,1.42-3,2.17-4.47q2.18-4.27,4.66-8.36t5.33-8.11c.43-.6.86-1.2,1.3-1.79.24-.32.47-.64.71-.95l.41-.54.23-.3.12-.16.42-.53.74-.93c.53-.66,1.07-1.32,1.62-2a129.18,129.18,0,0,1,13.34-13.74q1.77-1.59,3.6-3.1l1.85-1.49.8-.63.29-.23.3-.23c2.57-2,5.21-3.82,7.92-5.58A128.1,128.1,0,0,1,674.12,701c.73-.34,1.46-.66,2.2-1,.16-.07,1.17-.49.53-.23l1.27-.52c1.49-.61,3-1.19,4.51-1.74q4.57-1.65,9.27-3t9.72-2.31c1.62-.32,3.25-.61,4.88-.86L709,691c.44-.06-.05,0-.11,0l.7-.09,1.42-.17a131.65,131.65,0,0,1,20.44-.72c3.41.15,6.82.43,10.21.84l1.07.14.59.08c.88.13,1.75.26,2.63.41,1.63.26,3.25.56,4.86.89a127.71,127.71,0,0,1,19.1,5.46c1.51.56,3,1.16,4.5,1.77l.19.08.34.14,1,.42c.78.34,1.57.69,2.35,1.06q4.42,2,8.69,4.43c2.78,1.55,5.51,3.2,8.16,5,1.38.9,2.73,1.83,4.07,2.79.6.43,1.2.86,1.79,1.3l1,.72c.19.14,1.1.84.59.44a131.14,131.14,0,0,1,14.23,12.83c2.22,2.33,4.37,4.75,6.42,7.24.5.61,1,1.22,1.49,1.84l.63.8c.08.1.43.57,0,0l.41.54q1.44,1.91,2.81,3.84a129.67,129.67,0,0,1,10,16.69c.72,1.44,1.41,2.88,2.07,4.34.33.73.65,1.47,1,2.2l.16.38c.18.42.35.85.53,1.27q1.85,4.58,3.35,9.27a127.64,127.64,0,0,1,4.54,19.28c.13.82.25,1.65.36,2.47-.09-.68.05.4.08.59,0,.41.1.83.14,1.24.19,1.61.34,3.21.46,4.82q.38,5,.38,10a3.75,3.75,0,1,0,7.5,0,133.79,133.79,0,0,0-6.44-41,132.45,132.45,0,0,0-18-35.84,136.07,136.07,0,0,0-28.1-29.1,133.1,133.1,0,0,0-183.33,21.06,135.56,135.56,0,0,0-20.8,34.79,132.59,132.59,0,0,0-9.39,40,134.16,134.16,0,0,0,3.39,41.79A133.48,133.48,0,0,0,670.64,937a133.84,133.84,0,0,0,82,9.22,132.41,132.41,0,0,0,37.93-14.07,133.55,133.55,0,0,0,54.46-57,131.77,131.77,0,0,0,12.36-38.73A138.37,138.37,0,0,0,859,815.67a3.75,3.75,0,0,0-7.5,0Z" transform="translate(-328.05 -108.04)"/><path class="cls-1" d="M743.54,276.72c-.57,2.35-2.1,1.48-1.06,1.35.18,0,.36-.07.53-.1.47-.09.94-.17,1.41-.28a15.74,15.74,0,0,0,4.18-1.61,19.42,19.42,0,0,0,5.82-5.38,17.86,17.86,0,0,0,3.67-7.91,33.06,33.06,0,0,0,.53-10.21c-.39-2.76-5.24-2.14-4.91.66.75,6.32,1.73,12.72,5.85,17.82s10.14,6.05,16.2,6.63v-5c-6.85.63-13,4.18-15.55,10.82A45.46,45.46,0,0,0,758,293.79c-.18,1.48-.3,3-.39,4.45,0,.45-.07.9-.1,1.35s-.1.22,0-.06c-.35.8.52-.71.49-.68l1.1-.64h1.3q1.95,2.67,1.58,1.49a.83.83,0,0,1,0-.15s-.06-.41-.07-.45c.14.8-.05-.44-.08-.68-.17-1.35-.35-2.71-.63-4.06a29.94,29.94,0,0,0-4-10.17,21,21,0,0,0-7-7.12,24,24,0,0,0-5.14-2.17l-1.89-.53c-.21-.06-.43-.14-.64-.19s-.24-.08.13.06a2.25,2.25,0,0,1,.61.62l.34,1.27v-.08a2.57,2.57,0,0,0-2.5-2.5,2.52,2.52,0,0,0-2.5,2.5c.29,2.56,2.56,2.94,4.64,3.53a15.88,15.88,0,0,1,7.12,3.89c3.56,3.58,5.44,8.59,6.25,13.49a30.41,30.41,0,0,0,.61,4.15,2.64,2.64,0,0,0,5.13-.15,39.94,39.94,0,0,0,.51-5.8,52.13,52.13,0,0,1,1.53-8.4,11.22,11.22,0,0,1,3.87-6.28,14.42,14.42,0,0,1,7.47-2.8,2.5,2.5,0,0,0,0-5c-4.73-.45-9.58-1.15-12.67-5.16s-3.8-9.38-4.38-14.29l-4.91.67a25.18,25.18,0,0,1-.74,8.63,11.74,11.74,0,0,1-1.59,3.71,16.69,16.69,0,0,1-1.86,2.51,11.88,11.88,0,0,1-5.85,3.94c-1.8.5-4.48.42-5,2.69C738,278.52,742.78,279.85,743.54,276.72Z" transform="translate(-328.05 -108.04)"/><path class="cls-1" d="M799.79,221.16c-1.11,1.09-1.4,1.47-.86,1.16-.4.16-.46.19-.19.11a2.93,2.93,0,0,0,.57-.13c.62-.12,1.24-.22,1.86-.35a21.28,21.28,0,0,0,5.47-2,23.94,23.94,0,0,0,7.66-6.78,24.6,24.6,0,0,0,5.25-11.1c.74-4.35,1.33-8.84.69-13.23-.4-2.76-5.24-2.14-4.91.66,1,8.29,2.26,16.76,7.62,23.48a21.17,21.17,0,0,0,9.36,6.62c3.84,1.41,8,1.79,12.05,2.18v-5c-7,.62-13.82,3.59-17.92,9.47a24.93,24.93,0,0,0-3.55,8.76A92.73,92.73,0,0,0,821,246.64c-.15,1.51-.24,3-.34,4.55,0,.51-.1,1-.12,1.54s.19-.51,0,0c0,.05,0,.11,0,.14.36-.6.36-1.75,2.19-1.54l1.27.34c.26.13,1.08,1,1,1.2a1.44,1.44,0,0,0-.08-.33l-.06-.39c-.07-.32.06.52,0-.15-.15-1.24-.3-2.47-.49-3.71a43.93,43.93,0,0,0-2.42-9.44c-2.72-7-7.37-13.82-14.36-17.15a36.58,36.58,0,0,0-5.85-2.15c-.67-.19-1.34-.36-2-.56-.14,0-.88-.19-.55-.16s.11.09,0,0-.16-.08,0,.06a1.86,1.86,0,0,1,.76,1.6,2.57,2.57,0,0,0-2.5-2.5,2.53,2.53,0,0,0-2.5,2.5c.2,3,3.75,3.38,6.06,4.06a21.89,21.89,0,0,1,9.82,5.58c4.76,4.92,7.36,11.67,8.5,18.33.23,1.39.29,1.91.44,3.16a15.57,15.57,0,0,0,.38,2.54,2.69,2.69,0,0,0,5.3-.33c.49-2.59.4-5.34.68-8a68.8,68.8,0,0,1,2.21-11.65,15.78,15.78,0,0,1,5.47-8.47,20.55,20.55,0,0,1,10.62-3.93,2.5,2.5,0,0,0,0-5A45.12,45.12,0,0,1,834.23,215a16.31,16.31,0,0,1-7.66-5.44c-4.43-5.65-5.42-13.14-6.24-20.05l-4.91.67a25,25,0,0,1-.13,6.29,52.81,52.81,0,0,1-.81,5.6,21.28,21.28,0,0,1-4.75,8.86,17,17,0,0,1-8.19,5.74c-2,.59-6,.47-6.57,3.13a2.55,2.55,0,0,0,1.74,3.07A2.52,2.52,0,0,0,799.79,221.16Z" transform="translate(-328.05 -108.04)"/><circle class="cls-1" cx="518.16" cy="242.48" r="37.98"/><path class="cls-1" d="M804.49,350.52a41.72,41.72,0,0,0,83.32,3.15,41.62,41.62,0,0,0-24.16-41.05,42.63,42.63,0,0,0-26-2.94,41.94,41.94,0,0,0-32.58,34,46.62,46.62,0,0,0-.58,6.88,3.75,3.75,0,0,0,7.5,0c0-.93,0-1.87.1-2.8q0-.69.12-1.38c0-.23.06-.46.08-.69-.1.84.06-.28.07-.36a38.15,38.15,0,0,1,1.36-5.58c.28-.85.59-1.69.92-2.51-.28.71.22-.47.29-.63.21-.45.42-.9.65-1.34a37.84,37.84,0,0,1,2.8-4.66c.25-.36.51-.71.77-1.06-.44.59.4-.49.54-.65q.9-1.08,1.86-2.07t1.89-1.83l1-.86.51-.41c.06-.05.91-.71.27-.23a39.82,39.82,0,0,1,4.55-3c.82-.45,1.66-.87,2.51-1.27.21-.09,1.3-.55.63-.28.46-.18.93-.37,1.4-.54a37.89,37.89,0,0,1,5.35-1.5c.45-.09.89-.17,1.34-.24l.68-.11c-.71.11-.11,0,0,0q1.54-.18,3.12-.24a40.52,40.52,0,0,1,5.93.24c.14,0,.74.11,0,0l.68.11,1.34.24c.94.19,1.87.42,2.79.68s1.72.52,2.56.82l1.25.48c.54.21-.51-.23,0,0l.76.33a38.53,38.53,0,0,1,4.91,2.72c.73.48,1.45,1,2.15,1.51-.58-.43.35.29.52.43.42.35.84.71,1.24,1.07a38.39,38.39,0,0,1,3.75,3.9c.14.16,1,1.24.53.65.27.35.53.7.78,1.06.54.76,1,1.55,1.52,2.35s.88,1.52,1.28,2.31c.2.39.4.79.58,1.19.08.16.64,1.48.35.78a38,38,0,0,1,1.75,5.42c.21.88.39,1.78.54,2.67,0,.23.07.45.1.68-.1-.71,0-.12,0,0,.06.58.12,1.15.16,1.73a38.46,38.46,0,0,1,0,5.78c0,.46-.08.92-.13,1.38,0,.1-.11.82-.05.35s0,.25,0,.35c-.17,1-.37,2-.61,3a39.36,39.36,0,0,1-1.71,5.26c.27-.68-.18.41-.28.63-.18.4-.37.8-.57,1.19-.45.88-.93,1.75-1.44,2.6s-.94,1.48-1.44,2.2c-.25.36-.51.71-.78,1.06.46-.6-.48.6-.64.78a38.28,38.28,0,0,1-3.76,3.88l-1,.86-.51.41c-.08.07-.62.49-.26.21l-.28.21-.53.38c-.4.29-.81.57-1.22.83a37.34,37.34,0,0,1-4.91,2.72c-.16.07-1.34.57-.63.28-.41.17-.83.33-1.24.48q-1.42.53-2.88.93c-.87.24-1.75.45-2.63.63l-1.34.25-.68.1c.55-.08.1,0-.2,0a38,38,0,0,1-5.94.22c-.92,0-1.85-.11-2.77-.22-.11,0-.83-.11-.36,0s-.24,0-.35-.06c-.5-.08-1-.17-1.51-.27a38,38,0,0,1-5.51-1.56c-.41-.15-.83-.31-1.24-.48.71.29-.47-.21-.63-.28-.9-.42-1.79-.87-2.65-1.35s-1.52-.88-2.26-1.37c-.36-.23-.73-.48-1.09-.73l-.53-.39-.41-.3c.36.28-.18-.14-.26-.21l-.51-.41c-.34-.28-.67-.57-1-.86-.69-.62-1.36-1.26-2-1.93s-1.19-1.28-1.75-1.95l-.52-.63c-.07-.08-.49-.62-.22-.27s-.14-.19-.2-.27l-.48-.67a37,37,0,0,1-2.88-4.8c-.2-.39-.39-.79-.57-1.19-.1-.22-.55-1.31-.29-.63-.35-.88-.68-1.77-1-2.67a38.35,38.35,0,0,1-1.34-5.6c0-.1-.12-.81-.06-.35s0-.25,0-.35c-.05-.46-.09-.92-.13-1.38-.08-1-.11-2-.11-3a3.75,3.75,0,0,0-7.5,0Z" transform="translate(-328.05 -108.04)"/><path class="cls-1" d="M333,720.37c-.57,2.34-2.1,1.47-1.05,1.35a4.82,4.82,0,0,0,.52-.11l1.41-.27a16.45,16.45,0,0,0,4.18-1.61,19.45,19.45,0,0,0,5.82-5.39,17.82,17.82,0,0,0,3.67-7.9,32.81,32.81,0,0,0,.53-10.22c-.38-2.76-5.24-2.13-4.91.67.75,6.31,1.73,12.72,5.85,17.82s10.14,6,16.2,6.62v-5c-6.85.63-13.05,4.18-15.55,10.82a45.13,45.13,0,0,0-2.16,10.28c-.19,1.48-.31,3-.4,4.46,0,.45-.07.89-.09,1.34s-.11.22,0-.06c-.35.8.52-.71.49-.67l1.1-.65h1.3q2,2.67,1.58,1.49c0-.05,0-.09,0-.14a2.12,2.12,0,0,1-.07-.45c.14.79-.05-.44-.08-.68-.17-1.36-.35-2.72-.63-4.06a29.78,29.78,0,0,0-4-10.17,21.16,21.16,0,0,0-7-7.13,23.23,23.23,0,0,0-5.14-2.16c-.63-.19-1.26-.35-1.89-.53-.21-.06-.43-.15-.64-.2s-.23-.08.14.07a2.09,2.09,0,0,1,.6.62l.34,1.26v-.08a2.57,2.57,0,0,0-2.5-2.5,2.52,2.52,0,0,0-2.5,2.5c.29,2.56,2.56,2.94,4.64,3.54a15.86,15.86,0,0,1,7.12,3.88c3.56,3.58,5.44,8.59,6.26,13.49a28.4,28.4,0,0,0,.6,4.15,2.64,2.64,0,0,0,5.13-.15c.48-1.82.32-3.93.51-5.8a52.13,52.13,0,0,1,1.53-8.4,11.26,11.26,0,0,1,3.87-6.28,14.54,14.54,0,0,1,7.47-2.8,2.5,2.5,0,0,0,0-5c-4.73-.45-9.58-1.14-12.67-5.16s-3.8-9.38-4.38-14.28l-4.91.66a25.14,25.14,0,0,1-.74,8.63,11.9,11.9,0,0,1-1.58,3.72,17.3,17.3,0,0,1-1.87,2.5,11.85,11.85,0,0,1-5.85,4c-1.79.49-4.48.42-5,2.69C327.39,722.16,332.21,723.49,333,720.37Z" transform="translate(-328.05 -108.04)"/><circle class="cls-2" cx="19.82" cy="529.37" r="11.41"/><circle class="cls-2" cx="556.14" cy="158.05" r="11.41"/></g><g id="Слой_5" data-name="Слой 5"><path class="cls-3" d="M686.82,654c-8.31,63.76-10.38,82.31-5.72,108.7,5.55,31.43,8.41,47.58,17.36,65.35,5.9,11.7,8.81,24.71,14.37,36.57,2.94,6.25,6.41,13.08,4.1,20.47-2.5,7.94-10.19,11.73-11,12.14-15.07,7.16-34.1-6.5-37.6-9.25-10.52-8.3-17.92-19.88-24.22-31.71-19.56-36.68-30.41-77.5-49.88-114.23-11.37-21.44-18.09-29.69-28.46-34.37-2.77-1.25-16.17-6.94-30.55-1.87-11.86,4.18-18.75,13.7-25.55,25.59C495,757,491.19,778,484.47,795c-12.21,30.88-24.54,62-42.81,89.73-10.8,16.38-23.84,31.65-40.31,42.3-4.64,3-10.38,5.68-15.51,3.63-3.22-1.29-5.49-4.23-7.16-7.28C365.74,899.7,389,849.64,389,849.64c24.32-54,22.46-108.85,21-152.86-2-59.25-19.57-129.09-22.93-142.45-.82-3.27-3.8-15-6.55-31.11-7.75-45.41-11.62-68.12,0-90.05,13.33-25.14,39.35-35.1,44.08-36.92,6.15-2.35,18.28-6.85,34-5.54,25.8,2.13,43.83,18.42,53.09,26.78a119.05,119.05,0,0,1,12,12.6,122.58,122.58,0,0,1,33.62-38.67c9.34-7,33.32-24.93,66.86-23.3,8.34.4,32.49,1.92,51.84,20,3.39,3.17,11.81,11.7,19.16,30,13.32,33.19,9.42,64.43,8.14,74.81C696.68,546.49,693.79,600.48,686.82,654Z" transform="translate(-328.05 -108.04)"/><path class="cls-3" d="M684.32,654c-3.12,23.94-6.81,48-7.93,72.16a167.56,167.56,0,0,0,.27,21.84c.76,9.22,2.53,18.31,4.17,27.41,2.13,11.76,4.27,23.6,7.84,35s9.5,21.88,13.52,33.17c2.61,7.33,5,14.74,8.27,21.81s7,14.63,2.68,22c-5.44,9.23-16.36,10.76-25.9,7.82-24.66-7.57-37.55-32-47.92-54.08-13.46-28.62-23-58.89-36.53-87.51-5.95-12.62-12.35-25.76-21.23-36.63a41.49,41.49,0,0,0-19.36-13.42c-12.16-4-26.17-3.14-36.8,4.44-10.92,7.78-17.7,20.73-23.45,32.49-5.95,12.2-10.3,25-14.42,37.92s-9.26,25.67-14.45,38.32c-11.81,28.83-25.12,58-45,82.32a139.3,139.3,0,0,1-15,15.81c-5.37,4.8-11.48,10.05-18.22,12.81-13.21,5.43-17.37-11.68-17.6-21.36-.41-17.81,5.62-36,12.46-52.29,3.5-8.34,7.33-17.14,10.2-25.92a255.86,255.86,0,0,0,10.19-45.52c3.75-27.94,3.31-56.1,2.36-84.21-1.61-47.86-10.8-95.56-22.36-141.94a605.16,605.16,0,0,1-12.8-68.76c-1.35-10.43-2.35-21.06-1.26-31.56a60.65,60.65,0,0,1,9.39-26.59c9.75-15.15,25.35-25.68,42.07-31.79,12.37-4.52,25.57-6.17,38.56-3.49,12.08,2.5,23.11,8.29,32.87,15.71a140.48,140.48,0,0,1,23,21.84,2.51,2.51,0,0,0,3.92-.5,126.43,126.43,0,0,1,51.35-49.84c22.26-11.74,48.88-14.49,72.77-6.13a66.68,66.68,0,0,1,29.8,20.48c10,12.28,15.86,28,19.25,43.25a148.81,148.81,0,0,1,2.88,43c-1,14.28-3.21,28.5-4.65,42.75-3.88,38.24-6.65,76.6-11.14,114.78-.56,4.77-1.16,9.54-1.77,14.31-.42,3.18,4.59,3.15,5,0,5.13-39.6,8.08-79.43,11.93-119.16,1.57-16.27,3.75-32.47,5.3-48.73a157.7,157.7,0,0,0-1.4-41.51c-2.86-16.79-8.67-33.82-18.52-47.84a69.61,69.61,0,0,0-27.3-22.89c-23.6-11.16-52.05-10.82-75.92-.8a129.67,129.67,0,0,0-57.84,49q-2.13,3.33-4.06,6.78l3.93-.5c-14.68-17.71-35.08-34.1-58-38.84-19.79-4.09-40.16,1-57.46,10.92-18.7,10.71-34.15,28.24-38.06,49.89-1.82,10.06-1.43,20.33-.39,30.45,1.45,14.11,4,28.1,6.36,42.07,3,17.61,7.56,34.8,11.55,52.19,5.81,25.31,10.72,50.88,14.09,76.64a611.76,611.76,0,0,1,4.67,85.25c-.3,31.49-3.82,63.05-14.07,93C388.57,846,380.79,861,376.38,877.6c-2.63,9.91-4.61,20.36-4,30.66.54,9.53,4.19,23.84,15.44,25.48,7.21,1,14-3.74,19.51-7.75a123.69,123.69,0,0,0,16.47-14.45c10.57-11,19.36-23.71,27.09-36.85a386.78,386.78,0,0,0,21.42-43.17c5.93-13.75,11.88-27.66,16.81-41.8,4.23-12.15,7.66-24.55,12.59-36.46a182.49,182.49,0,0,1,11-22.19c3.33-5.69,7-11.31,11.8-15.85,10.15-9.52,24.63-11,37.42-6.42,8.12,2.91,14.13,8.67,19,15.65,8.65,12.4,15.3,26.39,21.4,40.18,6.6,14.89,12.33,30.14,18.33,45.29,5.89,14.88,12,29.71,19.35,44,6.79,13.21,14.7,26.53,26.53,35.86,14.11,11.15,38.59,19.35,50.53.88,4.09-6.32,3.63-13.75,1-20.52-2.82-7.1-6.13-13.92-8.66-21.15-2.63-7.5-5.2-15-8.73-22.16a119.11,119.11,0,0,1-5.89-13.93c-3.94-11.38-6.23-23.27-8.41-35.1-1.78-9.72-3.78-19.46-4.63-29.32-1.48-17.32.35-34.77,2.31-52,1.61-14.18,3.47-28.33,5.32-42.47C689.73,650.8,684.73,650.83,684.32,654Z" transform="translate(-328.05 -108.04)"/><path class="cls-3" d="M681.86,392c13.1-7.5,30.53-5.57,31.45-5.46,26.15,3.18,41.92,25.37,45.4,30.27,18.66,26.27,15.89,56.8,11.77,95.95-4.47,42.54-12.06,41.6-18.2,90.71A457.75,457.75,0,0,0,758,754.58c4.67,22.85,7,34.27,12.38,46.78s7.05,26.88,15.58,37.32c.57.71,2.57,3.08,2.31,6-.41,4.57-6.06,8.4-10.81,9.38-7.65,1.58-14.83-3.84-19.64-7.9-18.66-15.76-29.93-35.06-41.86-54.36-18.62-30.11-17.68-26-23.7-37.66A267.76,267.76,0,0,1,672,700.25C661,658.11,663.07,621.68,664,590.44,668.05,458.09,652.89,408.59,681.86,392Z" transform="translate(-328.05 -108.04)"/><path class="cls-3" d="M683.12,394.17c14-7.83,32.89-7.05,47,.14,11.68,5.95,21.3,15.66,28.37,26.6,10.51,16.29,12.93,35.45,12.46,54.46-.27,10.83-1.32,21.64-2.43,32.42a279.67,279.67,0,0,1-4.08,28.52c-2.78,13.25-7.31,26.06-10.12,39.31-4.7,22.19-6.89,45-7.83,67.68A462.48,462.48,0,0,0,754,747.16c3.44,18.46,6.69,37.56,14,55,4.17,9.92,6.13,20.68,11,30.32a42.61,42.61,0,0,0,3.87,6.32c1.16,1.56,2.8,3.14,2.91,5.2.22,4.53-6.49,7.55-10.17,7.85-5.23.41-10.12-2.7-14.06-5.8a113.09,113.09,0,0,1-12.13-11.24,184.54,184.54,0,0,1-20.58-27c-9.3-14.41-18-29.19-27.6-43.39a138.61,138.61,0,0,1-11-20,265.2,265.2,0,0,1-19.55-60.8c-4.31-22.43-5.34-45.24-5-68,.38-22.27,1.33-44.51,1.43-66.78.09-19.52-.2-39-.61-58.54-.3-14.36-.71-28.73-.54-43.09.13-9.91.4-20,2.37-29.62,1.38-6.77,3.7-13.27,7.95-18a24.26,24.26,0,0,1,6.71-5.38c2.78-1.61.27-5.93-2.53-4.32-14.25,8.23-17.56,24.82-18.78,40-1,12.4-.82,24.89-.63,37.31.27,17.34.74,34.67.94,52,.28,23.45.13,46.91-.57,70.35-.65,21.5-1.47,43,.24,64.47a272.1,272.1,0,0,0,15.87,72.77c4.25,11.54,9.08,23.11,15.24,33.79,1.73,3,3.71,5.82,5.65,8.68,4.37,6.48,8.57,13.08,12.71,19.71,12.22,19.6,23.86,39.89,41,55.68,7.27,6.67,17,15,27.64,11.36,4.22-1.44,8.62-4.36,10.25-8.69,1.76-4.66-.84-8.08-3.42-11.65-6.56-9.07-8.55-20.44-12.31-30.76-1.48-4.06-3.29-8-4.7-12.07-1.31-3.83-2.42-7.72-3.41-11.64a486.57,486.57,0,0,1-15.23-111,475.1,475.1,0,0,1,3.65-66.7,303.78,303.78,0,0,1,5.33-31c1.56-6.71,3.51-13.32,5.38-20,4.84-17.08,7-34.43,8.74-52.07,2-20.46,3.64-41.91-2.25-61.9-8.22-27.92-33.88-54.63-64.4-54.83-9.28-.06-18.81,1.55-27,6.1C677.78,391.42,680.3,395.74,683.12,394.17Z" transform="translate(-328.05 -108.04)"/><path class="cls-4" d="M521.7,719a33.26,33.26,0,0,1,57.75,7.74c2.77,7.14,3,15,2.92,22.65a325.57,325.57,0,0,1-9.44,74.39c-2,8.27-4.43,16.53-8.46,24s-9.84,14.26-17.38,18.21a3.4,3.4,0,0,1-1.64.49,3.11,3.11,0,0,1-1.59-.69,21.17,21.17,0,0,1-8-11.09c-1.73-5.7-1-11.8-.52-17.73,1.25-16.74-.12-33.55-1.73-50.25-2.21-22.89-4.87-45.83-10.57-68.11a4.66,4.66,0,0,1-1,3.38" transform="translate(-328.05 -108.04)"/><path class="cls-4" d="M523.86,720.24A31.52,31.52,0,0,1,549.29,708a31.14,31.14,0,0,1,24.18,12.92c6.92,9.69,6.6,21.89,6.31,33.27a321.2,321.2,0,0,1-3.31,38.69,286.67,286.67,0,0,1-7.94,37.7c-3.11,10.75-7.74,21.42-16.35,28.91a27,27,0,0,1-6.36,4.33c-.25.11-.2.18-.08.19a3.39,3.39,0,0,1-.62-.39,14.82,14.82,0,0,1-1.32-1,19.29,19.29,0,0,1-2.49-2.62c-3.53-4.51-4.24-10.08-4-15.65.25-6.48,1-12.91,1-19.41.05-6.67-.22-13.33-.67-20-.87-13-2.2-26-3.75-39s-3.44-25.81-6.21-38.53q-1-4.75-2.24-9.46c-.68-2.67-5.11-2.19-4.91.67a2.76,2.76,0,0,1-.61,2.12,2.5,2.5,0,0,0,4.32,2.53,7.15,7.15,0,0,0,1.29-4.65l-4.91.66a341.34,341.34,0,0,1,7.49,40.39c1.77,13.56,3.15,27.2,4.21,40.83.54,6.89.92,13.8,1,20.71s-.39,13.71-.86,20.58c-.43,6.34-.14,12.8,3.08,18.44a23.07,23.07,0,0,0,5.36,6.4,10,10,0,0,0,3.58,2.22c1.79.47,3.44-.41,5-1.27,10.41-5.93,17.06-16.48,21.23-27.42a149.15,149.15,0,0,0,5.45-18.8q2.37-10,4.1-20.19a330.26,330.26,0,0,0,4.38-40.66,186.07,186.07,0,0,0,.14-19.9c-.39-6.33-1.57-12.65-4.52-18.31a35.69,35.69,0,0,0-55.09-10.55,35.29,35.29,0,0,0-5.55,6,2.51,2.51,0,0,0,.9,3.42,2.56,2.56,0,0,0,3.42-.9Z" transform="translate(-328.05 -108.04)"/><path class="cls-4" d="M686.42,391.9c9.66-2.06,19.88-2.31,29.29.71s17.9,9.56,22,18.55A42.29,42.29,0,0,1,741,426.52c1.06,20.8-7.21,41.12-18.62,58.55-3.12,4.76-7.42,9.85-13.11,9.68a3.52,3.52,0,0,1-2.53-.92,4.31,4.31,0,0,1-.8-2.57c-1.94-24.08,3.89-50.08-7.65-71.32-4.76-8.77-12.35-16.32-14.24-26.11" transform="translate(-328.05 -108.04)"/><path class="cls-4" d="M687.09,394.31c15.79-3.31,34.36-1.26,44.95,12.28,5.17,6.61,6.55,15,6.59,23.2a80.59,80.59,0,0,1-4.15,25.15,116,116,0,0,1-10.85,23.48,56.75,56.75,0,0,1-6.8,9.87,14.57,14.57,0,0,1-4,3.15c-1,.52-3.16,1.33-4.26.69-.11-.07.1.12.11.13a1.14,1.14,0,0,1-.16-.48,6.4,6.4,0,0,1-.11-1.15c-.08-1.06-.15-2.12-.2-3.19-.11-2.13-.16-4.27-.18-6.41,0-4.25,0-8.49.11-12.73.16-8.46.33-16.95-.61-25.37s-3-16.74-7.07-24.25c-3.75-6.91-9.22-12.85-12.34-20.12a27.4,27.4,0,0,1-1.65-5.4,2.5,2.5,0,0,0-4.82,1.33c1.7,8.44,7.23,15.2,11.81,22.25a54.44,54.44,0,0,1,5.74,11.31,66.84,66.84,0,0,1,3,12.65c1.27,8.76,1.07,17.7.91,26.52-.08,4.6-.18,9.2-.13,13.81q0,3.32.19,6.63c.11,2.16,0,4.82,1,6.78,2.21,4.3,8.47,2.95,11.8,1,3.52-2.08,6.14-5.42,8.36-8.77A130.63,130.63,0,0,0,737.24,462a91.07,91.07,0,0,0,6.21-26.83c.65-9.24-.08-19.24-4.68-27.48A38,38,0,0,0,721,392c-8.75-3.88-18.5-4.81-28-3.69-2.45.29-4.89.68-7.3,1.19a2.5,2.5,0,1,0,1.33,4.82Z" transform="translate(-328.05 -108.04)"/><path class="cls-4" d="M690.38,651.85c-.89,33.74,2.82,57.82,6,72.46,2.71,12.65,7.6,30.41,7.92,31.55,3.79,13.71,7.4,25.13,10.16,33.45-11.55-12.36-25.53-31.42-31.91-56.82a134,134,0,0,1-3.6-23.77A141.14,141.14,0,0,1,684.14,661" transform="translate(-328.05 -108.04)"/><path class="cls-4" d="M687.88,651.85a327.47,327.47,0,0,0,3.8,61.22c2.4,14.66,6.2,29.07,10.15,43.38Q706.48,773.34,712,790l4.18-2.43c-11.77-12.61-21.47-27.32-27.49-43.54-6.46-17.42-8.58-36.32-7.15-54.79a139.29,139.29,0,0,1,5-27.55c.88-3.1-3.94-4.42-4.82-1.33a143.39,143.39,0,0,0-4.37,58.09,125.67,125.67,0,0,0,18.11,50.41,147.54,147.54,0,0,0,17.19,22.25c1.67,1.79,5-.06,4.17-2.44q-8.19-24.71-14.52-50a298,298,0,0,1-8.43-48.52,351.94,351.94,0,0,1-1-38.29c.08-3.22-4.92-3.21-5,0Z" transform="translate(-328.05 -108.04)"/><path class="cls-1" d="M653.82,112.19A403.88,403.88,0,0,1,705.68,124,975.76,975.76,0,0,1,662,250.56a26.08,26.08,0,0,1-3.88,7c-5.17,6-15.25,6.05-21.64,1.32s-9.41-13-9.68-20.93,1.84-15.76,3.92-23.43q3.81-14,7.61-28a110.18,110.18,0,0,0,3.15-14c.71-5.31.62-10.7,1.2-16a130.41,130.41,0,0,1,3.87-18.64l5.81-22.42" transform="translate(-328.05 -108.04)"/><path class="cls-1" d="M653.15,114.6A405.19,405.19,0,0,1,705,126.36l-1.74-3.07Q695,153.9,684.77,184t-22.4,59.32c-1,2.4-2,4.81-3,7.2a20.32,20.32,0,0,1-3.21,5.59,12.07,12.07,0,0,1-9,3.72c-7.87,0-13.71-5.83-16.16-12.94-3.2-9.32-1.12-19.18,1.33-28.41,2.8-10.57,5.74-21.11,8.6-31.66a99.4,99.4,0,0,0,3.29-15.65c.58-5.36.48-10.79,1.21-16.14a135.25,135.25,0,0,1,3.3-15.27q2-7.85,4.07-15.69l2-7.87c.8-3.12-4-4.45-4.83-1.33-2.81,10.84-6,21.65-8.29,32.6a104.17,104.17,0,0,0-2,16.41,85.27,85.27,0,0,1-2.23,16.29c-2.71,11-5.9,21.86-8.87,32.78-2.75,10.13-5.64,20.68-3.55,31.22,1.71,8.55,7,16.79,15.58,19.64a19.94,19.94,0,0,0,12.06.19,16.58,16.58,0,0,0,9.72-8.27c2.48-4.65,4.27-9.75,6.27-14.62q3.09-7.53,6.06-15.1,6-15.39,11.51-31,10.9-30.93,19.72-62.53c.72-2.62,1.44-5.23,2.15-7.85a2.55,2.55,0,0,0-1.75-3.08,405.57,405.57,0,0,0-51.86-11.76,2.56,2.56,0,0,0-3.07,1.74,2.52,2.52,0,0,0,1.74,3.08Z" transform="translate(-328.05 -108.04)"/></g><g id="Слой_2" data-name="Слой 2"><path class="cls-2" d="M682,651.76c-6.52,26.74-9.88,54.38-8.72,81.91A250.66,250.66,0,0,0,676,761c2,13.41,4.16,26.91,7.57,40.06a143.7,143.7,0,0,0,5.81,17.86c2.68,6.67,6.15,13,8.71,19.69,2.64,6.92,4.81,14,7.57,20.87,2.55,6.33,7.68,13.6,7,20.71-.84,9.42-10.94,14.1-19.44,13a40.49,40.49,0,0,1-13.88-4.91q-2.76-1.5-5.36-3.26c-.64-.42-1.27-.87-1.89-1.32l-.66-.48.41.32-1.45-1.18c-10.86-9.12-18-21.62-24.38-34.08-7-13.7-12.85-27.92-18.5-42.21-11.14-28.21-21.47-57.47-38-83.12-5.11-7.94-11.25-15.52-19.85-19.83-10-5-21.88-6.75-32.75-4-13.06,3.33-22,13.11-28.87,24.2A200.15,200.15,0,0,0,489.68,763c-3.89,11.21-7.17,22.59-11.54,33.63-5.65,14.26-11.35,28.5-17.76,42.43-12.22,26.55-27,53.49-49.06,73.21-5.05,4.52-10.82,9.47-17.11,12.17-2.43,1-5.44,1.75-7.75,0-2.06-1.53-3.46-4.14-4.43-6.46-3-7.28-2.67-17.15-1.35-25.59A155.35,155.35,0,0,1,388,864.53q1.71-4.85,3.65-9.6l.25-.59.6-1.41c.22-.51.45-1,.68-1.52,23.51-52.5,24.82-111.11,21.11-167.62-2.92-44.35-11.63-88.41-22.44-131.47Q388,536.8,385.28,521c-2.31-13.42-4.76-26.86-6.2-40.4a156.23,156.23,0,0,1-1-15.73A80,80,0,0,1,379,452a58.29,58.29,0,0,1,11.22-25.81A76.85,76.85,0,0,1,413.74,406a96.73,96.73,0,0,1,9.72-4.85c-1.13.49.12-.05.56-.23l1.25-.49c1.5-.59,3-1.15,4.52-1.68,12-4.19,24.87-5.45,37.38-2.53,11.4,2.67,21.85,8.33,31.05,15.48a141.29,141.29,0,0,1,21.92,21.05c2.06,2.48,6.39,1.6,7.85-1,15.83-28.36,44.7-52.29,77.17-58.29a86,86,0,0,1,46.33,4.28,65.19,65.19,0,0,1,25.62,17.9c6.58,7.52,10.88,16.79,14.45,26,8.44,21.93,10.37,45.91,6.9,69.07-.39,2.67.67,5.38,3.5,6.15,2.36.65,5.75-.8,6.15-3.49,3.3-22.09,2.53-44.78-4.09-66.23-3.23-10.48-7.57-21.29-13.64-30.48A73.34,73.34,0,0,0,664,372.52c-15.16-8.16-33.22-11.4-50.35-10.18-19,1.36-37,8.55-52.59,19.31-17.14,11.82-31.52,26.79-41.69,45l7.85-1a146.41,146.41,0,0,0-23.94-22.6c-9.81-7.5-20.95-13.49-33-16.39-20.32-4.88-41.25-.29-59.37,9.47-19,10.24-35.3,27.3-40.58,48.68-2.35,9.53-2.53,19.46-1.82,29.2.95,13.17,3.19,26.25,5.38,39.25s4.5,26.06,7.66,38.91c1.36,5.51,2.75,11,4.06,16.55,5.43,22.95,10.07,46.1,13.62,69.42a612.68,612.68,0,0,1,6.41,83.4c.44,29.44-1.13,59-8.3,87.67a228.47,228.47,0,0,1-12.93,37.55c-2.47,5.54-4.68,11.2-6.65,16.94a153,153,0,0,0-7.18,29.37c-1.3,9.81-1.39,20.24,2.62,29.47,2.6,6,7.17,11.63,13.94,12.72,7.66,1.23,14.71-3.2,20.67-7.46,12.09-8.63,22.22-19.44,31.09-31.3,18.75-25.06,31.5-54,43.18-82.9,4.95-12.23,9.63-24.44,13.65-37,4.26-13.32,9-26.4,15.59-38.77,5.7-10.72,12.49-23.14,24.43-27.82a34.34,34.34,0,0,1,20-1.27,46.19,46.19,0,0,1,6.43,1.93l1.16.46c-1.25-.51-.39-.17-.12,0,.92.47,1.87.89,2.78,1.4,8.07,4.48,13.64,13.07,18.47,21.38a347.78,347.78,0,0,1,20.46,42.26c12,29.06,21.94,59.27,37.54,86.7,6.44,11.33,14.31,22.19,25,29.85,8.4,6,19,11,29.5,10.7s20.87-6.87,24.5-17.08c2.75-7.73.15-15.42-3.11-22.51-3.19-6.92-5.75-14-8.28-21.17-4.67-13.32-11.6-25.64-15.56-39.23s-6.18-27.83-8.44-41.88a232.68,232.68,0,0,1-2.73-26.09,267.62,267.62,0,0,1,.77-36.59,299.22,299.22,0,0,1,7.51-44.4c1.52-6.25-8.12-8.92-9.64-2.66Z" transform="translate(-328.05 -108.04)"/><path class="cls-2" d="M684,394.36c11.65-7,25.82-7.18,38.49-2.92,13,4.37,24,13.82,32,24.83a96.82,96.82,0,0,1,14.2,29.52c3.94,13.36,4.52,26.88,4,40.71a183.31,183.31,0,0,1-6.43,40.9c-2.67,9.7-6.27,19.1-8.88,28.83-7.16,26.69-10.63,54.38-12.18,81.93a364.35,364.35,0,0,0-.47,40.34c1,19.07,3.21,38.12,6.1,57,3.35,21.87,7.49,44.31,16.08,64.82,5,11.83,13.59,22.27,16.54,34.88a24.13,24.13,0,0,1,.37,10.69,7.73,7.73,0,0,1-1.12,2.66c-.24.37-.15.12.19-.12a9.68,9.68,0,0,1-1.48.89c-4.27,1.94-9.52.21-13.51-1.73C759,843.26,751.5,836.19,745,828.91s-11.89-15.21-17.27-23.15c-15.1-22.31-28.29-45.91-40.49-69.91q-2.88-5.69-5.7-11.42c-2.26-4.62-9.17-.57-6.9,4,10.92,22.24,22.67,44.12,35.73,65.17a377.09,377.09,0,0,0,25.76,37.16,103.6,103.6,0,0,0,15.32,15.45c8.41,6.87,20.95,15.13,32.29,10.67,6.21-2.44,8.17-8.06,8.38-14.45.26-8-2.66-15.74-6.19-22.8-3-6-6.72-11.63-9.64-17.67a116.88,116.88,0,0,1-5.44-13.65,271.25,271.25,0,0,1-8.63-33.56,558.56,558.56,0,0,1-8.8-65.07,341.29,341.29,0,0,1-.91-37c.73-26.24,3.26-52.54,8.67-78.25a347.81,347.81,0,0,1,10.18-36.51,191.86,191.86,0,0,0,7.77-34.55c2-15,2.63-30.64.39-45.65a109.77,109.77,0,0,0-11.07-34c-12.94-25-38.9-46.23-68.52-42.91a48.82,48.82,0,0,0-20,6.59c-4.4,2.66-.39,9.58,4,6.91Z" transform="translate(-328.05 -108.04)"/><path class="cls-2" d="M515.45,720.19c6.2,23.3,7.51,47,9.31,71,.91,12.14,1.93,24.28,2.21,36.45.14,6-.05,11.87-.14,17.82s.28,11.94,2.8,17.31c4.33,9.25,16.94,15,26.09,9.26,4.2-2.64,7.23-6.78,9.74-11a116.81,116.81,0,0,0,7.22-14.52c7.22-17.07,11.05-35.24,13-53.62,2-19.16,3.18-38.44,3.9-57.69.11-2.93.2-5.86.29-8.78a4,4,0,0,0-4-4,4.07,4.07,0,0,0-4,4Q581,757.3,578.14,788c-.26,2.82-.54,5.63-.87,8.43-.09.8-.19,1.6-.29,2.39,0,.2-.05.39-.08.58s-.14,1,0,.36,0,.08,0,.22c0,.31-.08.61-.13.92-.27,1.94-.58,3.89-.91,5.82a176.75,176.75,0,0,1-6.78,27.2,125.16,125.16,0,0,1-5.78,14.32A82.59,82.59,0,0,1,556,861c-.07.09-.46.59-.05.07-.15.2-.31.39-.47.58-.35.42-.71.83-1.09,1.23s-.75.76-1.14,1.12l-.53.47c-.63.56.47-.28-.29.22-.38.26-.75.51-1.14.74l-.59.32s-1,.42-.44.22-.19,0-.31.09-.53.16-.8.23l-.67.14c.71-.16,0,0-.31,0s-1,0-1.45,0c-.78,0-.2,0,0,0-.3,0-.6-.11-.9-.17a14.85,14.85,0,0,1-1.61-.47l-.7-.26c.64.26-.27-.15-.41-.22a13,13,0,0,1-4.79-3.78c-.16-.18-.32-.37-.47-.56.42.55.05,0,0-.06-.29-.45-.58-.89-.83-1.36-.11-.2-.2-.42-.31-.61-.34-.58.35,1.06-.1-.25-.24-.71-.49-1.41-.69-2.14a28.09,28.09,0,0,1-1-7.4c-.17-5.66.25-11.34.2-17-.08-11.87-1-23.71-1.88-35.54-1.75-23.44-2.87-47.16-8-70.17q-.93-4.2-2-8.35a4,4,0,1,0-7.71,2.12Z" transform="translate(-328.05 -108.04)"/><path class="cls-2" d="M618.6,513.87c0,.59-.05,1.17-.09,1.76,0,.91.2-1.07,0-.18-.06.34-.12.67-.19,1a16.94,16.94,0,0,1-.5,1.82c-.09.27-.19.54-.29.82-.26.76.48-1,0,0a23.11,23.11,0,0,1-1.83,3.21c-.13.19-.48.51-.52.73,0,0,.66-.81.31-.41l-.29.36c-.42.51-.87,1-1.34,1.49s-1,1-1.49,1.41c-.24.21-.48.42-.73.62l-.37.31c-.5.42.78-.56.23-.19-1.15.78-2.27,1.58-3.49,2.26-.6.34-1.22.65-1.83,1l-1,.45c-.29.13-.81.22.22-.09-.22.07-.44.18-.66.27a39.46,39.46,0,0,1-4.31,1.41,44.88,44.88,0,0,1-4.61,1c-1,.16.8-.08-.2,0l-1.16.11c-.92.08-1.84.14-2.76.16a45.76,45.76,0,0,1-5-.14l-1.16-.11a3.29,3.29,0,0,1-.58-.07s1,.15.37,0c-.81-.13-1.62-.26-2.43-.43a39.33,39.33,0,0,1-4.65-1.24c-.68-.22-1.36-.47-2-.73l-.49-.2.38.16a4.9,4.9,0,0,0-1.11-.51,32.94,32.94,0,0,1-3.72-2.07c-.61-.39-1.17-.82-1.77-1.22s.4.28.37.29-.33-.27-.38-.31c-.29-.24-.58-.47-.86-.72A26.65,26.65,0,0,1,566,523.1l-.27-.32c.51.6-.13-.19-.24-.35a20,20,0,0,1-1.11-1.76c-.29-.51-.55-1-.8-1.57-.06-.13-.11-.28-.18-.4s.38,1,.23.52c-.1-.32-.24-.63-.35-1-.18-.55-.33-1.11-.46-1.68-.07-.28-.12-.56-.18-.85s0-.29-.07-.43c-.13-.61.09,1.09.07.46,0-1.28,0-2.52,0-3.81,0-.54-.1.64-.09.61s0-.29.07-.43.1-.57.17-.85a18.77,18.77,0,0,1,.49-1.82c.09-.27.2-.54.29-.82.29-.84-.44.93-.05.12.27-.58.54-1.15.86-1.7s.66-1.11,1-1.64c.14-.19.48-.51.53-.74,0,0-.66.81-.31.42l.38-.48a27.56,27.56,0,0,1,2.73-2.78l.74-.62.37-.31c.42-.36-.37.31-.37.29,0-.31,1.65-1.16,1.9-1.32a32.94,32.94,0,0,1,3.72-2.07l.95-.44c.5-.24-.37.15-.38.16.16-.05.33-.14.49-.2q1.08-.43,2.19-.81A41.32,41.32,0,0,1,583,495.3c.74-.16,1.49-.28,2.24-.4,1-.16-.79.08.2,0l1.36-.13a43.36,43.36,0,0,1,5-.14c.86,0,1.71.07,2.57.14l1.16.11a3.29,3.29,0,0,1,.58.07c0-.09-1-.15-.19,0a42.23,42.23,0,0,1,8.92,2.37c.22.08.44.2.66.27,0,0-.89-.4-.38-.16l.95.44c.67.32,1.33.66,2,1,1.22.68,2.34,1.48,3.49,2.26.47.31-.39-.28-.36-.29s.33.27.38.31c.24.2.49.4.73.62.56.48,1.1,1,1.61,1.51s.85.9,1.25,1.37c.12.15.79.94.27.33s.2.29.32.47a23.11,23.11,0,0,1,1.83,3.21c.06.12.11.28.18.4s-.38-1-.23-.52c.08.27.21.54.3.81a19.66,19.66,0,0,1,.54,2c.06.28.11.57.17.85a3,3,0,0,0,.07.43s-.11-1.15-.09-.61.09,1.27.1,1.91a5,5,0,0,0,10,0c-.12-14.19-12.51-24.15-25.25-27.61-14.09-3.83-30.69-1.26-41.79,8.63a26.47,26.47,0,0,0-8.88,16.93c-.73,6.55,1.84,12.86,5.88,17.88,9.28,11.52,25.86,14.85,39.81,12.81,12.7-1.85,26.81-10.09,29.65-23.54a25.72,25.72,0,0,0,.58-5.1,5,5,0,0,0-10,0Z" transform="translate(-328.05 -108.04)"/><ellipse class="cls-2" cx="259.69" cy="395.12" rx="15.01" ry="12.39"/><path class="cls-2" d="M420.75,536.51c.7-1,1.39-2,2.11-2.92l.54-.72,0,0c.38-.47.75-.94,1.13-1.4a38.79,38.79,0,0,1,4.87-4.89c.29-.24,1.19-.9.4-.34.43-.31.86-.63,1.3-.93.94-.64,1.9-1.25,2.89-1.8s1.89-1,2.86-1.45l.55-.25c-.94.44-.3.12-.08,0,.62-.24,1.24-.48,1.88-.7a41.43,41.43,0,0,1,6.21-1.54c.24,0,1-.2-.14,0,.26-.05.54-.07.8-.1l1.4-.11a32.29,32.29,0,0,1,3.41-.06c.53,0,1.06,0,1.6.08a4.92,4.92,0,0,1,1.59.15c-.09,0-1.15-.18-.14,0l.6.09c.59.1,1.18.22,1.77.35,1,.22,2.08.5,3.1.81.51.16,1,.33,1.52.51l.75.28c.13.05,1.18.45.52.19s0,0,.14.06l1.1.51c.54.26,1.07.53,1.6.82q1.59.86,3.09,1.86c.5.33,1,.68,1.48,1,.18.13.72.6-.06,0l.78.64a37.71,37.71,0,0,1,2.78,2.59,5,5,0,0,0,7.07,0,5.1,5.1,0,0,0,0-7.07,43.29,43.29,0,0,0-27.29-12.73,42,42,0,0,0-28.13,8.15c-5.15,3.85-9,8.7-12.68,13.9-1.53,2.13-.44,5.66,1.8,6.84a5.13,5.13,0,0,0,6.84-1.79Z" transform="translate(-328.05 -108.04)"/><path class="cls-2" d="M580.85,599c0,1.15-.05,2.3-.15,3.45,0,.28-.05.55-.08.82,0,.49-.4,1.13,0,0a11.52,11.52,0,0,0-.28,1.76,41,41,0,0,1-1.82,6.64c-.13.34-.65,1.17-.58,1.49-.08-.35.4-.92.13-.31-.14.29-.26.58-.4.87-.49,1.06-1,2.1-1.61,3.11s-1.1,1.83-1.69,2.71c-.3.45-.61.89-.92,1.32a5.52,5.52,0,0,1-.58.77c.15,0,.73-.92,0,0a46.61,46.61,0,0,1-4.66,5c-.8.74-1.63,1.45-2.48,2.14-.37.3-.7.92,0,0a3.37,3.37,0,0,1-.66.5c-.49.36-1,.71-1.49,1a50.45,50.45,0,0,1-6.24,3.63c-.56.28-1.13.54-1.7.8-.2.09-.43.16-.62.27,1.14-.65.23-.1-.08,0-1.17.47-2.37.9-3.58,1.29a55.33,55.33,0,0,1-7.18,1.77,9.86,9.86,0,0,1-1.78.29c1.19,0,.46-.06.08,0l-.9.11q-2,.21-4,.27a58.63,58.63,0,0,1-7.73-.27l-1.08-.13c-.93-.1.13,0,.25,0a8.38,8.38,0,0,1-1.77-.29c-1.28-.22-2.56-.49-3.82-.81a53.67,53.67,0,0,1-7.11-2.32c-.38-.15-1-.18.09,0a5.25,5.25,0,0,1-.94-.41c-.52-.24-1-.48-1.54-.74-1.11-.54-2.2-1.13-3.26-1.76s-1.91-1.16-2.83-1.79c-.45-.31-.91-.63-1.35-1l-.67-.49.36.28-.52-.41a48.19,48.19,0,0,1-5-4.67c-.73-.79-1.44-1.6-2.11-2.44l-.2-.25c-.33-.42-.27-.34.18.25a4.22,4.22,0,0,1-.38-.51c-.38-.52-.75-1-1.11-1.58a43.4,43.4,0,0,1-3.31-5.82l-.39-.87c-.45-1,.31.84.07.16s-.43-1.09-.63-1.64q-.6-1.65-1.05-3.36c-.27-1-.5-2.08-.69-3.14a10.47,10.47,0,0,0-.26-1.6c.33,1,.1.79.06.36s-.09-.86-.13-1.3a40,40,0,0,1,0-6.92c0-.27.06-.54.08-.81,0-.47.34-.89,0,.2a10.47,10.47,0,0,0,.26-1.6q.31-1.74.78-3.45c.28-1,.6-2.05,1-3.05.18-.5.38-1,.57-1.49.41-1.06-.48,1,0,0l.39-.87a42.92,42.92,0,0,1,3.4-6c.3-.44.61-.87.92-1.31.07-.08.41-.65.48-.64l-.38.5.4-.5c.74-.92,1.52-1.81,2.34-2.68a51.51,51.51,0,0,1,5.05-4.63c.69-.56-.18.1-.23.17a3.94,3.94,0,0,1,.8-.59c.44-.33.9-.65,1.35-1,1-.69,2.06-1.34,3.12-2s2-1.09,3-1.59c.51-.25,1-.5,1.54-.73a4.92,4.92,0,0,1,.94-.42c-1.14.24-.31.13.07,0a54.72,54.72,0,0,1,6.95-2.26c1.21-.3,2.42-.56,3.64-.78.59-.11,1.18-.19,1.77-.29.77-.13-1.27.15-.07,0l1.26-.14a55.13,55.13,0,0,1,7.92-.24c1.22,0,2.43.13,3.65.26l.72.08c.37,0,1.35.37.1,0a21.49,21.49,0,0,0,2.13.35,55.22,55.22,0,0,1,7.16,1.82c1.1.36,2.18.76,3.25,1.19.38.15,1.26.24.08,0a3.89,3.89,0,0,1,.62.28c.62.27,1.24.57,1.85.87a50.63,50.63,0,0,1,6.09,3.55c.46.31.91.63,1.36,1a4.28,4.28,0,0,1,.79.59c-.61-.8-.46-.37-.1-.07.93.77,1.85,1.54,2.73,2.36a50.84,50.84,0,0,1,4.74,5.1c.47.58-.12-.26-.19-.25.08,0,.52.7.58.77.31.44.62.87.92,1.32.65,1,1.27,2,1.84,3s1,1.87,1.46,2.84l.33.72c.34.74-.17.33-.06-.17-.07.34.56,1.43.69,1.79a41.54,41.54,0,0,1,1.74,6.5,10.66,10.66,0,0,0,.25,1.6c-.42-1.16-.07-.53,0,0,0,.22,0,.44.07.65.1,1.21.15,2.42.16,3.63a5,5,0,0,0,10,0,47.45,47.45,0,0,0-10.7-29.42c-6.56-8.24-15.87-14.15-25.82-17.42-20.94-6.87-45.94-1.46-61,15a48,48,0,0,0-12.63,28.24,45.66,45.66,0,0,0,7.84,29.45,55.11,55.11,0,0,0,24.94,19.7,60.67,60.67,0,0,0,33.35,3.2c20.56-3.63,39.63-19.37,43.28-40.55a49.76,49.76,0,0,0,.76-8.17,5,5,0,0,0-10,0Z" transform="translate(-328.05 -108.04)"/><ellipse class="cls-2" cx="210.42" cy="501.61" rx="46.95" ry="31.11"/><path class="cls-2" d="M582.92,609.65a19.66,19.66,0,0,1-2.06,8.6,26.49,26.49,0,0,1-6.08,7.84c-5.81,5.33-13.37,8.58-21,10.41a66.36,66.36,0,0,1-27.46.68c-7.93-1.49-15.92-4.41-22.28-9.47a29.91,29.91,0,0,1-6.8-7.39,20.84,20.84,0,0,1-2.06-4.12c-.25-.69-.46-1.38-.64-2.09-.09-.39-.18-.79-.26-1.19l-.09-.53c0-.14,0-.27-.06-.41h0c-.7-6.37,1.74-12.17,6.08-16.85,5.23-5.63,12.34-9.27,19.65-11.45a66.59,66.59,0,0,1,27.51-2.08,54.36,54.36,0,0,1,23.43,8.49c5.5,3.73,10.06,8.93,11.59,15.23a16,16,0,0,1,.51,4.33c0,3.22,5,3.23,5,0-.11-17.35-17.62-28-32.6-31.62-18.23-4.43-40-1.92-54.92,10.13-5.91,4.77-10.36,11.38-11.24,19-.85,7.43,2.24,14.6,7.13,20.07,5.74,6.41,13.77,10.58,21.9,13.07a71.17,71.17,0,0,0,30.26,2.22c9-1.22,18-4.16,25.43-9.39,6.24-4.38,11.67-10.52,13.42-18.12a25.2,25.2,0,0,0,.62-5.4C588,606.44,583,606.43,582.92,609.65Z" transform="translate(-328.05 -108.04)"/><path class="cls-2" d="M646.07,111.67l-16.41,71.75q-4.1,17.88-8.18,35.75l-2.06,9-1,4.38c-.29,1.28-.82,2.49-1.13,3.77a28.44,28.44,0,0,0,.63,16,27.49,27.49,0,0,0,21.46,18.22c6.77,1.07,13.3.28,19.33-3.22a30,30,0,0,0,10.39-10.27c2.82-4.62,4-10.07,5.61-15.18q5.47-17.52,10.94-35l22-70.32,2.68-8.58a5,5,0,0,0-3.5-6.15,5.11,5.11,0,0,0-6.15,3.49l-21.28,68.17q-5.28,16.94-10.57,33.85l-5.36,17.17c-.35,1.12-.63,2.25-1,3.37a6.06,6.06,0,0,1-.55,1.53c.07-.09.47-1,.08-.2-.15.33-.3.65-.46,1a24.17,24.17,0,0,1-1.41,2.47c-.29.44-.6.87-.9,1.3s.58-.7.13-.18c-.23.26-.44.54-.67.8a25.88,25.88,0,0,1-2.09,2.1,5,5,0,0,1-1.06.89c1-.44.38-.29,0-.05l-.72.49a23.28,23.28,0,0,1-2.7,1.55l-.63.29c-.83.39.13-.1.24-.09a7,7,0,0,0-1.64.58c-.91.28-1.82.49-2.75.68s.78-.09.64-.08c-1,.05-1.88.16-2.83.17-.63,0-1.26,0-1.89,0l-1-.08c-.21,0-.43-.06-.64-.07.31,0,1.24.2.4.05-1.79-.31-3.43-.9-5.17-1.38-.63-.18.89.44.3.13-.24-.13-.5-.23-.75-.35s-.8-.4-1.19-.62-.8-.47-1.19-.72l-.73-.5c-.52-.38-.51-.23,0,0a10.22,10.22,0,0,1-2.5-2.37c-.26-.29-1.1-1.37-.47-.51-.39-.52-.76-1.06-1.1-1.61s-.6-1-.87-1.51c-.12-.22-1-1.92-.39-.73a16.52,16.52,0,0,1-1.07-3.3c-.12-.5-.21-1-.31-1.5-.27-1.23,0,.78,0,0,0-.26-.05-.51-.07-.77a23.79,23.79,0,0,1,0-3.68c0-.26,0-.52.07-.77.08-.76-.13,0,0,.16-.13-.16.25-1.34.3-1.54.29-1.26.77-2.44,1.11-3.67.81-2.88,1.34-5.85,2-8.76l7.95-34.78q7.92-34.66,15.85-69.32l2-8.52c.58-2.54-.78-5.53-3.49-6.15-2.55-.58-5.53.77-6.15,3.5Z" transform="translate(-328.05 -108.04)"/><path class="cls-2" d="M629.69,264.76l-2.33,10-5.59,24.09L615,328.16l-5.86,25.2c-1,4.09-2,8.16-2.85,12.26a1.36,1.36,0,0,1,0,.17c-.59,2.54.79,5.53,3.5,6.15a5.09,5.09,0,0,0,6.15-3.49l2.33-10,5.59-24.09,6.8-29.28,5.86-25.2c.95-4.09,2-8.16,2.85-12.26a1.36,1.36,0,0,1,0-.17c.59-2.54-.79-5.53-3.5-6.15a5.09,5.09,0,0,0-6.15,3.49Z" transform="translate(-328.05 -108.04)"/><path class="cls-2" d="M628.69,209.06,644.42,214l25.2,7.84,5.76,1.79a5,5,0,0,0,6.15-3.49,5.11,5.11,0,0,0-3.5-6.15L662.31,209l-25.2-7.84-5.76-1.79a5.05,5.05,0,0,0-6.15,3.5,5.11,5.11,0,0,0,3.49,6.15Z" transform="translate(-328.05 -108.04)"/><path class="cls-2" d="M584.84,332.12l12.22,19.32a4,4,0,0,0,6.91-4l-12.22-19.31a4,4,0,1,0-6.91,4Z" transform="translate(-328.05 -108.04)"/><path class="cls-2" d="M634,359.14a105.28,105.28,0,0,1,27.24-7.74c2.08-.3,3.4-3,2.79-4.92-.73-2.27-2.69-3.11-4.92-2.79a109.85,109.85,0,0,0-29.15,8.54c-1.92.86-2.52,3.8-1.44,5.47a4.13,4.13,0,0,0,5.48,1.44Z" transform="translate(-328.05 -108.04)"/><path class="cls-2" d="M566.84,353.24c.82.07,1.64.16,2.45.26-.94-.12.32.05.51.08l1.21.2c1.56.28,3.1.63,4.63,1.05s3,.9,4.52,1.45l1,.37c.14.06,1.49.63.67.27.75.33,1.5.67,2.24,1,1.88.9,4.41.57,5.47-1.44,1-1.79.58-4.5-1.43-5.47a60.14,60.14,0,0,0-21.26-5.8,4,4,0,0,0-4,4,4.1,4.1,0,0,0,4,4Z" transform="translate(-328.05 -108.04)"/></g></svg>