<svg xmlns="http://www.w3.org/2000/svg" viewBox="0 0 692.7 681.47"><defs><style>.cls-1{fill:#3f8e93;}.cls-2,.cls-5{fill:#22565a;}.cls-3{fill:#fff;}.cls-4{fill:#b8d8ef;}.cls-5{stroke:#22565a;stroke-miterlimit:10;}</style></defs><g id="Слой_6" data-name="Слой 6"><path class="cls-1" d="M939.12,704.91c0,3.45-.14,6.89-.41,10.33-.13,1.67-.29,3.33-.49,5l-.15,1.24s-.08.63,0,.21,0,.29,0,.39c-.12.82-.24,1.64-.37,2.46a128.2,128.2,0,0,1-4.68,19.41c-1,3.07-2.11,6.11-3.33,9.09-.08.18-.48,1.15-.22.54l-.48,1.1c-.34.79-.69,1.58-1,2.36q-1,2.18-2.09,4.32a129,129,0,0,1-9.95,16.5q-1.43,2-2.92,4l-.25.32-.74.93c-.53.66-1.07,1.32-1.61,2q-3,3.66-6.34,7.08t-7,6.7q-1.77,1.59-3.6,3.1c-.61.51-1.23,1-1.85,1.5l-.93.74-.4.32-.18.14a133.71,133.71,0,0,1-16.11,10.51q-4.27,2.36-8.72,4.39l-2,.91-1.11.47-.69.29c-1.49.61-3,1.19-4.51,1.74a128.38,128.38,0,0,1-19,5.33c-1.67.33-3.36.63-5,.9-.76.12-1.53.24-2.29.34-.1,0-.84.12-.38.06s-.17,0-.21,0l-1.42.18q-5.1.59-10.23.78a131.45,131.45,0,0,1-20.42-.83l-1.24-.15c-.44-.06.05,0,.11,0l-.7-.1-2.46-.37c-1.63-.27-3.25-.56-4.87-.89-3.26-.65-6.5-1.44-9.71-2.34s-6.31-1.93-9.41-3.07c-1.51-.55-3-1.14-4.5-1.75l-.64-.27.11.05-1.11-.48c-.74-.32-1.47-.65-2.2-1a128.39,128.39,0,0,1-17-9.44c-2.66-1.74-5.24-3.59-7.76-5.52l-.45-.35-.93-.74-2-1.61c-1.22-1-2.41-2.06-3.59-3.11a130.21,130.21,0,0,1-13.27-13.82c-.51-.61-1-1.22-1.5-1.84l-.74-.94c-.1-.13-.21-.26-.31-.4.23.3.14.19,0-.05-1-1.31-2-2.63-2.91-4q-2.81-4-5.3-8.14t-4.61-8.38q-1.08-2.14-2.08-4.34c-.33-.73-.66-1.46-1-2.19l-.21-.48c0-.09-.32-.75-.15-.34s-.06-.16-.07-.19l-.33-.8a127.34,127.34,0,0,1-6-18.68c-.78-3.25-1.43-6.54-2-9.85-.12-.77-.23-1.53-.34-2.29,0-.13-.09-.74,0-.06l-.06-.53c-.06-.48-.12-.95-.17-1.42-.2-1.66-.36-3.33-.48-5a130.87,130.87,0,0,1,0-20.48c.14-1.73.31-3.45.52-5.17l.15-1.24c-.08.63,0-.21.06-.42.13-.88.26-1.75.4-2.63.54-3.3,1.21-6.59,2-9.84a132.09,132.09,0,0,1,6.09-18.63l.2-.48c-.25.61,0,0,0-.06.14-.31.28-.63.41-.95.35-.78.7-1.57,1.06-2.35.69-1.5,1.42-3,2.17-4.47q2.17-4.27,4.65-8.36t5.34-8.11l1.3-1.79c.23-.32.47-.63.71-.95l.41-.54.23-.3L714,628l.42-.54.74-.93c.53-.66,1.07-1.32,1.61-2a130.16,130.16,0,0,1,13.34-13.74c1.19-1,2.39-2.09,3.61-3.09.61-.51,1.23-1,1.85-1.5l.8-.63.29-.23.29-.22q3.87-2.94,7.93-5.59a128.62,128.62,0,0,1,16.92-9.28l2.2-1c.17-.07,1.17-.49.53-.23l1.28-.52c1.49-.61,3-1.19,4.51-1.73q4.58-1.66,9.26-3t9.73-2.31c1.62-.32,3.24-.61,4.88-.86l2.46-.37c.44-.06-.05,0-.12,0l.71-.09,1.42-.17a131.65,131.65,0,0,1,20.44-.72c3.41.15,6.82.43,10.21.85l1.06.13.59.08c.88.13,1.76.26,2.64.41,1.62.26,3.25.56,4.86.89a128.91,128.91,0,0,1,19.1,5.46c1.51.56,3,1.16,4.5,1.77,0,0,.55.23.18.08l.35.15.94.41c.79.34,1.57.7,2.35,1.06q4.44,2,8.7,4.43t8.16,5c1.37.9,2.73,1.84,4.07,2.79l1.78,1.3,1,.72c.18.14,1.1.84.59.44a130.1,130.1,0,0,1,14.22,12.84q3.35,3.49,6.42,7.23c.51.61,1,1.22,1.5,1.85l.63.8c.07.09.43.56,0,0l.41.54q1.44,1.9,2.81,3.84a130.25,130.25,0,0,1,10,16.7q1.06,2.14,2.06,4.33c.34.73.66,1.47,1,2.21.08.18.4.94.16.37l.52,1.27q1.86,4.57,3.36,9.28a129.81,129.81,0,0,1,4.54,19.28q.19,1.23.36,2.46c-.09-.68.05.4.07.59l.15,1.24c.18,1.61.34,3.22.46,4.83.25,3.31.37,6.64.38,10a3.75,3.75,0,0,0,7.5,0A132.49,132.49,0,0,0,922.2,628a135.88,135.88,0,0,0-28.11-29.1A133.09,133.09,0,0,0,710.77,620,135.56,135.56,0,0,0,690,654.79a132.28,132.28,0,0,0-9.39,40A133.82,133.82,0,0,0,684,736.54a133.55,133.55,0,0,0,74.31,89.66,133.69,133.69,0,0,0,82,9.21A133.12,133.12,0,0,0,945,725.64a138.27,138.27,0,0,0,1.63-20.73,3.75,3.75,0,0,0-7.5,0Z" transform="translate(-253.92 -196.5)"/><path class="cls-1" d="M403.14,538.29c-.55-2.22-3.09-2.17-4.86-2.64a11.94,11.94,0,0,1-6-4,18,18,0,0,1-1.86-2.5,11.33,11.33,0,0,1-1.53-3.51,24.93,24.93,0,0,1-.8-8.84l-4.91-.67c-.58,4.91-1.28,10.25-4.38,14.29s-7.94,4.71-12.67,5.16a2.5,2.5,0,0,0,0,5c4.57.42,9.1,2.86,10.79,7.3,1.76,4.64,2,9.72,2.42,14.6a5.21,5.21,0,0,0,.51,2.24,2.6,2.6,0,0,0,3.56.93c1.55-.92,1.45-3,1.65-4.56.05-.42.28-1.81.45-2.66a29.89,29.89,0,0,1,1.1-4,23.83,23.83,0,0,1,3.67-6.71,14.74,14.74,0,0,1,7.34-5c2.28-.72,5.31-.91,5.64-3.83a2.51,2.51,0,0,0-2.5-2.5,2.55,2.55,0,0,0-2.5,2.5V539l.34-1.27a2.4,2.4,0,0,1,.61-.62l.22-.09a4.1,4.1,0,0,0-.73.23l-1.72.47a23.92,23.92,0,0,0-5.1,2.1,21,21,0,0,0-7.19,7.24,30.11,30.11,0,0,0-4,10c-.28,1.36-.47,2.73-.64,4.11,0,.25-.07.5-.1.76s-.13.76,0,0a1.68,1.68,0,0,1-.06.4,1.46,1.46,0,0,1-.05.2q-.37,1.18,1.59-1.49h1.29l1.1.64c-.13-.12.83,1.47.51.74,0,0,0,.59,0,0s-.07-.9-.09-1.35c-.1-1.48-.22-3-.4-4.45a45,45,0,0,0-2.17-10.28c-2.5-6.64-8.7-10.19-15.55-10.82v5c6.07-.58,12.14-1.62,16.21-6.63s5.09-11.51,5.84-17.82c.33-2.77-4.52-3.45-4.91-.66a33.26,33.26,0,0,0,.49,10,18,18,0,0,0,3.71,8.12,19.64,19.64,0,0,0,5.63,5.27,16,16,0,0,0,4.21,1.69c.48.11,1,.2,1.45.29a4.66,4.66,0,0,0,.65.12c1,.07-.39,1.39-1.06-1.35C399.09,542.75,403.91,541.42,403.14,538.29Z" transform="translate(-253.92 -196.5)"/><path class="cls-1" d="M346.89,482.73c-.52-2.66-4.58-2.54-6.57-3.13a17.14,17.14,0,0,1-8.19-5.73,21.61,21.61,0,0,1-4.75-8.87,52.81,52.81,0,0,1-.81-5.6,25,25,0,0,1-.13-6.29l-4.91-.67c-.82,6.91-1.81,14.4-6.24,20.05a16.19,16.19,0,0,1-7.46,5.37,44.65,44.65,0,0,1-10.32,1.86,2.5,2.5,0,0,0,0,5c6.41.57,12.81,3.93,15.32,10.12a49.89,49.89,0,0,1,2.59,11c.48,3.07.63,6.15.87,9.24a6.69,6.69,0,0,0,.58,2.8,2.66,2.66,0,0,0,4.15.58,3.86,3.86,0,0,0,.92-2.22c.08-.57.15-1.15.22-1.72,0-.22,0-.43.08-.64s.12-.92.07-.55a38.12,38.12,0,0,1,7.22-18.5,20.71,20.71,0,0,1,10-6.95c2.51-.83,7.21-1.08,7.44-4.48a2.5,2.5,0,0,0-5,0,3.22,3.22,0,0,1,.92-1.73s-.14.05-.18.09.16-.07.22-.09l-.38.13c-.58.16-1.15.33-1.73.48a41.53,41.53,0,0,0-4.87,1.63,24.56,24.56,0,0,0-9.62,7,40.71,40.71,0,0,0-8.58,19.31c-.24,1.44-.42,2.89-.6,4.34l-.09.74c.06-.43.06-.32,0,0a2,2,0,0,0-.08.43l0,.12c-.46-.17,1.77-1.62,1-1.24l1.26-.34,1,.56a1.16,1.16,0,0,1,1.1.8c-.19,0,.22.37.08.14-.05-.07-.11-.6,0-.14s0-.12,0-.22l-.06-.7c-.09-1.29-.16-2.57-.27-3.86a92.69,92.69,0,0,0-1.72-11.48,29.53,29.53,0,0,0-3.17-9.09,20.34,20.34,0,0,0-7.32-7.13,27.1,27.1,0,0,0-11.27-3.39v5c4-.38,8.06-.75,11.85-2.11a21.11,21.11,0,0,0,9.55-6.69c5.37-6.71,6.64-15.19,7.62-23.48.33-2.77-4.51-3.45-4.91-.66-.64,4.39-.05,8.88.69,13.24a24.61,24.61,0,0,0,5.25,11.09,23.94,23.94,0,0,0,7.66,6.78,21.41,21.41,0,0,0,5.47,2c.58.12,1.17.22,1.75.33a4.14,4.14,0,0,0,.68.15c.27.08.21.05-.19-.11.54.31.25-.07-.86-1.16a2.5,2.5,0,1,0,4.82-1.33Z" transform="translate(-253.92 -196.5)"/><circle class="cls-1" cx="55.76" cy="430.95" r="52.01"/><path class="cls-1" d="M357.93,627.45c0,1.4-.06,2.8-.17,4.2,0,.57-.1,1.14-.16,1.72,0,.09-.16,1.23,0,.37-.07.45-.13.9-.21,1.35a53,53,0,0,1-1.85,7.55c-.38,1.16-.82,2.3-1.27,3.44s.32-.67-.14.33c-.13.3-.27.61-.41.91-.27.6-.56,1.19-.86,1.78a52.58,52.58,0,0,1-3.91,6.48c-.38.53-.77,1.06-1.17,1.58.44-.57-.47.57-.64.78-.87,1-1.78,2.07-2.73,3s-1.78,1.77-2.71,2.6c-.41.37-.82.73-1.24,1.08l-.76.62-.51.41c.32-.25.32-.25,0,0a54.49,54.49,0,0,1-6.34,4.11c-1.06.59-2.15,1.13-3.25,1.64l-.91.41c-1,.45.7-.27-.32.14-.62.24-1.24.49-1.87.72a52.14,52.14,0,0,1-7.45,2.09q-1,.2-2,.36l-1,.15c.86-.12-.27,0-.37,0-1.38.16-2.77.26-4.16.31a58.11,58.11,0,0,1-8-.35c-1.13-.12.76.13-.36-.05l-.68-.1q-1-.16-2-.36c-1.33-.27-2.64-.59-3.95-1s-2.35-.71-3.5-1.13c-.63-.23-1.25-.48-1.87-.72-1-.41.67.31-.33-.14l-.9-.41A51.4,51.4,0,0,1,283,667.7C282,667,281,666.28,280,665.51c.54.42.09.07,0,0l-.77-.62c-.59-.49-1.16-1-1.73-1.5a53.43,53.43,0,0,1-5.2-5.44l-.62-.76c-.67-.81.27.36-.12-.15s-.72-1-1.07-1.45c-.76-1.07-1.48-2.18-2.15-3.3s-1.21-2.1-1.76-3.18c-.3-.59-.59-1.18-.87-1.78l-.4-.91c-.46-1,.26.69-.14-.33a55.5,55.5,0,0,1-2.45-7.66c-.29-1.21-.53-2.44-.73-3.67l-.12-.84c-.1-.67.09.9,0-.2-.08-.8-.17-1.61-.23-2.41a51.51,51.51,0,0,1,0-8c.05-.69.12-1.37.2-2.06s0-.18,0,0l.15-1c.22-1.35.49-2.68.81-4a51.54,51.54,0,0,1,2.43-7.49c.25-.6-.36.8.08-.17l.4-.91c.28-.6.57-1.19.87-1.78.6-1.18,1.24-2.33,1.93-3.46s1.29-2,2-3c.32-.45.64-.88,1-1.32.65-.87-.47.56.22-.28.28-.34.55-.68.83-1a52.39,52.39,0,0,1,5.23-5.41l1.49-1.28.64-.51c.14-.12.71-.57.14-.13,1-.8,2.12-1.55,3.21-2.27a51.91,51.91,0,0,1,6.94-3.81l.6-.27c1-.45-.69.27.33-.14.62-.24,1.24-.49,1.87-.72,1.26-.46,2.54-.86,3.83-1.22s2.4-.62,3.62-.87c.61-.12,1.23-.23,1.84-.33l.85-.14c.44-.06.45-.06,0,0l.69-.08a52.43,52.43,0,0,1,8-.29c1.28,0,2.55.14,3.81.29.1,0,1.23.16.37,0q.51.06,1,.15l2,.36a50.88,50.88,0,0,1,7.76,2.21c.53.19,1,.4,1.56.6,1,.41-.68-.31.32.14l.91.41q1.8.82,3.54,1.8a51.53,51.53,0,0,1,6.31,4.14c-.66-.5.2.17.27.23l.76.62c.42.35.83.71,1.24,1.07,1,.88,1.92,1.79,2.82,2.73s1.71,1.84,2.52,2.8l.52.63c.05.08.73.93.22.28.47.6.92,1.22,1.36,1.85a52.54,52.54,0,0,1,3.87,6.5c.24.49.48,1,.71,1.49.14.3.28.61.41.91.46,1-.26-.69.14.33.49,1.24,1,2.49,1.37,3.76a52.78,52.78,0,0,1,1.81,7.57l.15,1c-.12-.86,0,.27,0,.37.06.57.12,1.15.16,1.72.12,1.4.17,2.8.17,4.2a3.75,3.75,0,0,0,7.5,0,55.75,55.75,0,0,0-10.24-32.18,56.68,56.68,0,0,0-26.76-20.33,55.75,55.75,0,0,0-42.11,103.13,56.77,56.77,0,0,0,34.67,4c22.23-4.48,40.25-23.2,43.7-45.64a59.72,59.72,0,0,0,.74-9,3.75,3.75,0,0,0-7.5,0Z" transform="translate(-253.92 -196.5)"/><circle class="cls-2" cx="479.65" cy="673.43" r="8.04"/><circle class="cls-2" cx="532.91" cy="73.13" r="8.04"/><path class="cls-1" d="M749.59,234.93c0,.87,0,1.75-.1,2.62,0,.4-.07.8-.11,1.2-.07.75,0,.19,0,0,0,.28-.09.57-.13.85a35.5,35.5,0,0,1-1.24,5.08c-.25.74-.52,1.47-.8,2.19s-.07.16,0,0l-.27.61c-.19.4-.38.79-.58,1.19a35.79,35.79,0,0,1-2.63,4.36c-.22.31-.45.62-.68.92.46-.61-.32.39-.43.52-.56.67-1.15,1.32-1.75,1.94s-1.08,1.08-1.65,1.59c-.32.29-.65.58-1,.86-.16.14-1.1.87-.52.43a34.9,34.9,0,0,1-4.26,2.77c-.68.37-1.36.72-2.06,1.05l-.61.27c-.53.24.53-.21,0,0s-.82.33-1.24.48a33.59,33.59,0,0,1-5,1.41l-1.17.22-.68.1c-.6.09.58-.06,0,0-.87.09-1.73.16-2.6.2a39,39,0,0,1-5.4-.2c-.6-.06.57.09,0,0l-.51-.08c-.45-.07-.9-.15-1.34-.24-.89-.18-1.76-.39-2.63-.63s-1.49-.46-2.23-.72l-1.24-.47c-.13-.05-.66-.29,0,0l-.6-.27a34.74,34.74,0,0,1-4.47-2.47c-.68-.45-1.35-.92-2-1.42.56.43-.23-.19-.4-.33q-.57-.47-1.11-1a33.36,33.36,0,0,1-3.4-3.53c-.1-.12-.9-1.13-.44-.52-.23-.3-.45-.61-.67-.92-.51-.72-1-1.45-1.44-2.2s-.82-1.43-1.2-2.16c-.17-.35-.34-.69-.5-1l-.28-.61c-.25-.55.32.82-.07-.17a36.41,36.41,0,0,1-1.53-4.78c-.2-.82-.37-1.66-.51-2.49,0-.23-.16-1.24-.08-.53-.06-.52-.11-1-.15-1.55a35,35,0,0,1,0-5.42q0-.6.12-1.2c0-.45,0,.08,0,.14,0-.22.07-.45.1-.67.15-.9.32-1.79.54-2.67a35.4,35.4,0,0,1,1.59-4.93c.17-.4,0,.08,0,.13l.27-.6c.18-.4.38-.8.57-1.19.4-.78.83-1.55,1.29-2.3s.81-1.3,1.25-1.93c.25-.35.51-.71.77-1-.42.55.28-.34.44-.53a34.47,34.47,0,0,1,3.52-3.63c.28-.26.57-.51.86-.75s1.1-.87.53-.44c.65-.49,1.32-1,2-1.41a34.74,34.74,0,0,1,4.47-2.47l.6-.27s-.53.22-.13,0l1.24-.48c.84-.3,1.69-.58,2.55-.82s1.53-.39,2.3-.55c.45-.09.89-.18,1.34-.25l.51-.08c1.08-.17-.44,0,.19,0a36.12,36.12,0,0,1,5.4-.2c.81,0,1.62.1,2.42.18s.19,0,0,0l.68.1c.45.07.89.15,1.34.24a36.17,36.17,0,0,1,5,1.41l1.09.42c.68.26.16.07,0,0l.61.27c.8.37,1.58.77,2.35,1.19a35.11,35.11,0,0,1,4.12,2.69c-.61-.46.4.34.52.44l.87.75c.65.58,1.28,1.18,1.88,1.81s1.11,1.2,1.64,1.82l.41.51s.37.46.11.14.15.19.21.27l.47.66a33.6,33.6,0,0,1,2.54,4.23c.2.39.39.79.58,1.19l.2.45c.25.53-.21-.52,0,0,.34.83.64,1.66.92,2.51a34,34,0,0,1,1.21,5.09c0,.17.06.34.08.51.09.59-.06-.58,0,0l.12,1.2c.07.93.1,1.87.11,2.8a3.75,3.75,0,0,0,7.5,0,38.45,38.45,0,0,0-76.79-2.8,38.3,38.3,0,0,0,5.42,22.67,38.44,38.44,0,0,0,70.85-13.69,42.59,42.59,0,0,0,.52-6.18,3.75,3.75,0,1,0-7.5,0Z" transform="translate(-253.92 -196.5)"/></g><g id="Слой_5" data-name="Слой 5"><path class="cls-3" d="M744.42,590.53c-29.09,22-39.31,61.42-39.3,97.88s8.23,72.6,7.44,109.06c-.12,5.75-.62,11.9-4.19,16.4-4.34,5.47-12.35,7-19.08,5.13a34.26,34.26,0,0,1-17.1-11.59c-24.09-30.55-42.51-77.52-42.51-77.52-23.14-59-30.91-66.76-38.47-71.95-1.7-1.16-26.32-17.56-50.12-9.28-12.34,4.3-17.6,12.84-32,33.16-35.48,50.25-54.57,70.64-76.64,85-17.49,11.38-27.19,12.69-34.33,9.57-9-3.91-14.64-14.66-14.75-23.1-.13-9.76,3.85-19,8-27.91,17-36.67,37.78-72.21,46.63-111.66,12.86-57.37-.67-117.2,2.81-175.89.95-16,3.3-32.3,10.8-46.45,16-30.16,53.76-44.55,87.52-39.57s63.35,26.27,85.52,52.22c18.65-17.13,37.67-34.53,60.58-45.32,11.88-5.61,41.36-14.71,73.31-2.77a93.09,93.09,0,0,1,36.26,24.88c2.7,3,14.83,16.92,21.7,41.94,7.93,28.85,3.63,53.44,1.8,63.95-17.86,102.73-26.79,154.09-24.9,172.11,4.54,43.16,21.75,79.65,6.27,90.58-6.27,4.44-15.65,3.05-17.41,2.79-15.4-2.28-24.79-16.32-32.75-28.57-13.09-20.16-27.19-42.93-41.8-68.26" transform="translate(-253.92 -196.5)"/><path class="cls-3" d="M743.16,588.37c-17.47,13.32-28.54,32.7-34.48,53.61-6.58,23.2-6.86,47.37-5,71.25,2.21,28.29,7.18,56.53,6.34,85-.17,5.72-.78,12.42-5.73,16.15-4,3-9.6,3.5-14.35,2.22-10.32-2.79-16.48-11.11-22.25-19.45-11.65-16.81-21.14-35.13-29.55-53.74C632.1,730,627,716.13,621.21,702.53c-5.33-12.47-10.72-25.57-18.66-36.67a41.72,41.72,0,0,0-13.35-12.11c-16.12-9.31-37.75-14.41-54.9-4.78-7.32,4.11-12.54,11-17.4,17.61-7.82,10.68-15.25,21.62-23.09,32.28-11.61,15.77-23.66,31.43-37.54,45.3-11.06,11-23.84,21.39-38.15,27.88-6.38,2.89-13.94,5-20.44,1.32a23.82,23.82,0,0,1-10-11.86c-2.11-5.18-2.13-10.6-1-16,1.4-6.86,4.28-13.28,7.21-19.59,2.85-6.12,5.8-12.2,8.77-18.26,5.82-11.89,11.75-23.73,17.26-35.76,11.12-24.29,20.17-49.32,23.76-75.9,3.78-28,2.51-56.37,1-84.51-1.49-27.88-3.51-56.12-.51-84,1.39-12.85,4.32-25.85,10.88-37.12a68.79,68.79,0,0,1,20.66-22c17.23-11.79,38.84-16.71,59.52-14.58,23.17,2.39,45,13.42,62.94,27.86a185.36,185.36,0,0,1,24.72,24.12,2.55,2.55,0,0,0,3.54,0c11.08-10.19,22.2-20.43,34.35-29.35,10-7.33,20.79-14.22,32.54-18.34,25.9-9.08,55.34-7,79,7.27a89.35,89.35,0,0,1,34.26,37.91c11.71,24,14.3,51.42,10.21,77.58-4.26,27.14-9.42,54.16-14,81.26-3.34,19.82-6.64,39.67-9.3,59.6-1.47,11-3.09,22.27-2.8,33.41.28,10.59,2.58,21.31,4.66,31.66,2.54,12.59,5.92,25.1,7.55,37.85.88,7,2.11,17.26-4.09,22.3-4,3.21-9.72,3.45-14.58,3a30.29,30.29,0,0,1-14.35-5.66c-10.25-7.48-16.77-19.62-23.48-30.09q-12.33-19.26-24.07-38.89-6.32-10.54-12.45-21.2c-1.61-2.78-5.93-.27-4.32,2.53q12.6,21.82,25.9,43.25c7.49,12,14.76,24.51,23.33,35.83,7.25,9.59,16.32,17.73,28.71,19.15,9.55,1.1,19.91-1.62,23.5-11.37,3.39-9.16.93-20.31-.84-29.55-2.7-14.1-6.21-28-8.51-42.21-1.14-7-2.15-14-1.94-21.16.15-5.6.68-11.18,1.29-16.74,2-17.9,4.89-35.71,7.8-53.48,4.64-28.29,9.59-56.54,14.5-84.8,1.88-10.81,3.81-21.57,4.22-32.57a134.37,134.37,0,0,0-5.91-45.34c-5.69-18-15.33-34.71-29.75-47.09-22.14-19-51.63-26.39-80.25-21.32-26.32,4.67-48.23,20.76-68,37.95-5.66,4.93-11.2,10-16.73,15.09h3.54c-29.85-34.8-74.79-62.13-122.1-51.52C484.06,355.29,465,366.59,453.16,384c-14.87,21.92-15.49,50.71-15.43,76.25.06,28.78,2.86,57.45,3.37,86.21s-1.68,57.05-10.34,84.45c-8.15,25.82-20.55,50-32.42,74.22-3,6.06-5.91,12.14-8.76,18.26s-5.75,12.46-7.35,19.11c-1.36,5.67-1.91,11.67-.35,17.35a31.39,31.39,0,0,0,7.62,13.46c14.26,14.7,34.4,2.61,47.92-6.76,12.19-8.45,22.9-18.74,32.7-29.84,15.72-17.79,29.62-37.17,43.27-56.56,5.69-8.1,11.16-17.11,18.77-23.6,7.32-6.24,17.35-8.23,26.74-7.55s18.62,4,26.82,8.56a53,53,0,0,1,4.56,2.8c.42.29.83.59,1.23.89s-.35-.3.29.23l.81.67c6.29,5.42,10.19,13.08,14.06,20.71,8.1,15.95,14.47,32.68,21.2,49.23a412.35,412.35,0,0,0,20.66,43.34,258.33,258.33,0,0,0,18.14,28.86c5.92,8,13,15.32,23.23,17.46a22.49,22.49,0,0,0,15.31-2c5-2.75,7.95-7.77,9-13.29,1.26-6.45,1-13.27.8-19.8-.16-7.22-.61-14.44-1.22-21.63-4.11-49.06-15.76-103.23,10.88-148.33a83.26,83.26,0,0,1,21-24c2.52-1.93,0-6.27-2.52-4.32Z" transform="translate(-253.92 -196.5)"/><path class="cls-4" d="M744.1,594.07c3.54,26,6.31,53.9,7.86,83.46.85,16.1,1.28,31.7,1.38,46.78C745.1,711.58,739,701.24,734.89,694c-8.77-15.49-8.09-15.61-11.65-20.15s-7.64-8.83-9-14.37a22,22,0,0,1,0-9.15c3.75-19.85,24-34,26-54.13q-7,13.82-14,27.62" transform="translate(-253.92 -196.5)"/><path class="cls-4" d="M741.69,594.73q3.28,24.13,5.38,48.43,2.26,26.12,3.18,52.33.5,14.4.59,28.82L755.5,723c-6.07-9.38-11.92-18.91-17.46-28.62q-3.6-6.3-7-12.69c-1.08-2-2.1-4.05-3.3-6a80.7,80.7,0,0,0-5.52-7.23,34.14,34.14,0,0,1-4.54-6.94,16.67,16.67,0,0,1-1.23-8.55c.9-9.91,7.08-18.69,12.49-26.67,6.29-9.26,12.71-18.77,13.87-30.21.25-2.47-3.58-3.39-4.66-1.26l-14,27.61c-1.45,2.87,2.86,5.4,4.32,2.53q7-13.81,14-27.62l-4.66-1.26c-1,9.79-6.8,18.27-12.17,26.2C720,630.61,714,639.14,712,649.1a26.57,26.57,0,0,0-.31,10.09,22.43,22.43,0,0,0,3.41,8.07,86.89,86.89,0,0,0,5.36,7l1.12,1.4.16.21c.29.39.58.78.85,1.17a49.72,49.72,0,0,1,2.95,5q3.08,5.74,6.26,11.44,9.18,16.32,19.39,32c1.31,2,4.67,1.3,4.66-1.26q-.18-26.13-1.68-52.21-1.49-25.68-4.27-51.25-1.5-13.74-3.38-27.45c-.18-1.34-1.89-2.07-3.07-1.75a2.58,2.58,0,0,0-1.75,3.08Z" transform="translate(-253.92 -196.5)"/><path class="cls-4" d="M586.31,366.32a98.77,98.77,0,0,1,25.32-16.23,89.68,89.68,0,0,1,19.26-6.19c23.23-4,44.19,9.24,51.59,14.44A123.41,123.41,0,0,0,625,402.56Z" transform="translate(-253.92 -196.5)"/><path class="cls-4" d="M588.08,368.09a97.35,97.35,0,0,1,16.29-11.57A93.15,93.15,0,0,1,623,348.45a55,55,0,0,1,23.85-2.35,68.89,68.89,0,0,1,19.87,6,94.84,94.84,0,0,1,14.54,8.43l.6-4.57a126.92,126.92,0,0,0-49.56,33.61,131.21,131.21,0,0,0-9.4,11.76l3.93-.51-38.71-36.24c-2.35-2.2-5.89,1.33-3.54,3.54l38.71,36.24a2.55,2.55,0,0,0,3.93-.51,121.42,121.42,0,0,1,43.94-37.77,119.28,119.28,0,0,1,12-5.3,2.53,2.53,0,0,0,.6-4.56c-10-7-21.55-12.55-33.69-14.61a58.67,58.67,0,0,0-25.22,1.11,100.3,100.3,0,0,0-20.3,8.05,102.81,102.81,0,0,0-20,13.81,2.54,2.54,0,0,0,0,3.54A2.56,2.56,0,0,0,588.08,368.09Z" transform="translate(-253.92 -196.5)"/></g><g id="Слой_2" data-name="Слой 2"><path class="cls-2" d="M741.89,586.21c-18,13.74-29.49,33.51-35.62,55.11-6.64,23.4-7,47.82-5.07,71.91,2.21,28.29,7.18,56.53,6.34,85-.14,4.76-.45,10.76-4.49,14-3.44,2.75-8.36,3-12.43,1.95-9.66-2.61-15.31-10.44-20.75-18.29-11.65-16.81-21.14-35.14-29.55-53.75-1.36-3-2.67-6-4-9-.45-1.05.44,1.06,0,0-.07-.18-.14-.35-.22-.53l-.58-1.41c-.27-.65-.54-1.3-.8-2-3.75-9.35-7.44-18.71-11.4-28C618,688.8,612.65,675.7,604.71,664.6a44.57,44.57,0,0,0-14.25-13c-16.91-9.76-39.48-14.85-57.42-4.78-7.7,4.32-13.18,11.51-18.3,18.51-7.81,10.67-15.25,21.62-23.09,32.28-11.48,15.6-23.42,31.08-37.15,44.79q-3.93,3.93-8.08,7.61c-1.2,1-2.4,2.09-3.63,3.1l-2,1.61-1,.78-.65.51c.46-.36.47-.36,0,0a116.13,116.13,0,0,1-22.36,13.9,39.68,39.68,0,0,1-5.48,2c-1,.28-1.95.52-2.94.71-.13,0-1.67.24-.49.1-.51.06-1,.1-1.52.13a20.92,20.92,0,0,1-2.24,0c-.39,0-.78-.06-1.16-.11,1.35.15.11,0-.15-.06-.64-.16-1.27-.33-1.91-.51-.28-.09-.55-.2-.83-.3,1.49.53-.92-.48-1.2-.64a21.31,21.31,0,0,1-8.82-10.37c-2.05-4.84-2.09-9.46-1-14.7,1.36-6.65,4.11-12.87,7-19s5.8-12.19,8.77-18.26c5.82-11.89,11.75-23.73,17.26-35.76,11.21-24.49,20.38-49.69,24-76.49,3.84-28.26,2.61-56.79,1.09-85.18-1.49-27.88-3.51-56.12-.51-84,1.34-12.4,4.21-25,10.54-35.86A66,66,0,0,1,477,370.56c16.93-11.59,38-16.33,58.26-14.24,22.36,2.31,43.76,13.14,61.18,27.12a187.13,187.13,0,0,1,24.71,24.12c1.81,2.11,5.21,1.72,7.07,0,10.93-10,21.88-20.16,33.85-28.95a168,168,0,0,1,18.46-11.88c2.82-1.55,5.69-3,8.63-4.33.34-.16,1.1-.47.3-.14l1.43-.58c1-.41,2.08-.79,3.13-1.16,25.3-8.87,53.93-7,77,7A88.89,88.89,0,0,1,791.81,385c.79.9,1.55,1.83,2.29,2.76.34.42.54.7.06.07.27.35.53.7.79,1.06.59.79,1.16,1.59,1.72,2.4a103.72,103.72,0,0,1,7.73,13.3,117.56,117.56,0,0,1,11.24,41.5,139,139,0,0,1,.24,19.89c-.16,2.8-.41,5.6-.72,8.39-.07.54-.13,1.08-.2,1.62,0,.35-.08.69-.13,1,0-.1.09-.65,0-.07-.15,1.1-.31,2.19-.49,3.28-4.25,27.15-9.41,54.17-14,81.27-3.38,20-6.7,40.1-9.39,60.26-1.47,11-3.09,22.27-2.8,33.41.28,10.81,2.62,21.76,4.75,32.33,2.47,12.24,5.94,25.34,7.46,37.18a71,71,0,0,1,.59,7.28c0,1.05,0,2.11,0,3.16,0,.54-.05,1.08-.1,1.61,0,.23,0,.45-.07.67-.09,1,.08-.4,0,.19a26.05,26.05,0,0,1-.58,2.62c-.11.38-.23.75-.36,1.13-.43,1.27.11-.07-.24.56a23.65,23.65,0,0,1-1.23,2c-.4.57.58-.66.1-.16-.12.13-.23.28-.36.41-.36.33-.7.68-1.07,1,.78-.69-.06,0-.44.28a11.33,11.33,0,0,1-1.78,1,17.86,17.86,0,0,1-3.76,1,29.4,29.4,0,0,1-6.83,0c-.27,0-1.59-.19-.65-.06,1.18.15-.79-.14-.67-.11a30.22,30.22,0,0,1-4.58-1.19,27.58,27.58,0,0,1-7.19-4c-9.83-7.27-16.12-19.1-22.58-29.2Q736.23,693.65,724.49,674q-6.32-10.54-12.45-21.2c-3.22-5.57-11.87-.54-8.64,5q12.6,21.82,25.91,43.25c7.48,12,14.75,24.51,23.32,35.83,7.84,10.37,17.5,18.88,30.87,20.39,5.82.66,12.06.08,17.28-2.75a18.93,18.93,0,0,0,8.63-10.45c3.54-9.58,1-21.24-.84-30.88-2.7-14.11-6.21-28-8.51-42.22a108.61,108.61,0,0,1-1.85-20.49c.15-5.6.68-11.18,1.29-16.74.39-3.55.83-7.1,1.3-10.65.06-.48.13-1,.19-1.44.12-.89-.09.61.08-.58l.45-3.26c.3-2.14.61-4.29.92-6.43,1.49-10.16,3.11-20.31,4.77-30.45,4.64-28.3,9.59-56.55,14.5-84.8,1.92-11,3.89-22,4.31-33.24a136.43,136.43,0,0,0-6-46c-5.81-18.41-15.66-35.55-30.39-48.19a97.49,97.49,0,0,0-38-20.3,102.81,102.81,0,0,0-44.73-1.67c-26.72,4.74-49,21.14-69.08,38.59-5.67,4.93-11.21,10-16.74,15.09h7.07c-30.46-35.51-76.33-63-124.52-52.16C482.74,353,463.15,364.8,451,382.71c-15.11,22.28-15.83,51.54-15.77,77.51.06,28.78,2.86,57.45,3.37,86.21.5,28.4-1.65,56.58-10.25,83.79-8.09,25.61-20.39,49.57-32.17,73.61-3,6.07-5.91,12.14-8.76,18.27-3,6.36-5.95,12.85-7.6,19.7-1.47,6.11-2,12.57-.35,18.69A33.93,33.93,0,0,0,387.74,775c6.42,6.63,14.93,8.92,23.83,7.1,9.84-2,19-7.82,27.11-13.46,12.38-8.57,23.26-19,33.21-30.23,15.86-18,29.89-37.51,43.66-57.07,5.66-8,10.85-16.68,18.38-23.09.35-.3.7-.6,1.07-.88-.69.53-.06.06.07,0,.73-.52,1.47-1,2.24-1.49s1.57-.89,2.39-1.29c.41-.2.83-.4,1.25-.58-.91.4.84-.31,1-.37a40.64,40.64,0,0,1,16.94-2.18c9.22.66,17.78,3.88,25.56,8.22,1.55.86,3.09,1.78,4.56,2.8.42.29.82.6,1.23.89.81.56-1.15-1-.22-.16l.81.67a32.73,32.73,0,0,1,2.91,2.86c.54.61,1,1.24,1.57,1.87.78.94-.7-1,0,.06l1,1.37a113.46,113.46,0,0,1,8.15,14c8,15.76,14.3,32.28,21,48.63a416.72,416.72,0,0,0,20.91,43.95,258.2,258.2,0,0,0,18.14,28.85c6.29,8.55,13.86,16.34,24.73,18.61a25.21,25.21,0,0,0,17.23-2.25c5.55-3,9-8.67,10.18-14.78,1.31-6.68,1.05-13.7.89-20.47-.16-7.22-.61-14.44-1.22-21.63-4.07-48.53-15.83-102.43,10.54-147.07a80,80,0,0,1,20.08-23.08c2.14-1.64,3.28-4.31,1.79-6.84-1.23-2.11-4.68-3.44-6.84-1.8Z" transform="translate(-253.92 -196.5)"/><path class="cls-2" d="M589.05,370.18c6.68-11.53,17.53-19.1,30.13-22.58,1.54-.42,3.1-.79,4.67-1.1.79-.15,1.57-.29,2.37-.42l1.18-.17c-.75.1.79-.09.93-.1a66.26,66.26,0,0,1,10.06-.31,60.28,60.28,0,0,1,9.79,1.16,84.07,84.07,0,0,1,10.58,2.8A97.4,97.4,0,0,1,680.31,360a4,4,0,0,0,4-6.91c-13.11-8.36-28-14.2-43.56-15.42-14.22-1.12-29.16,2.12-41.14,10a55.41,55.41,0,0,0-17.51,18.49,4,4,0,1,0,6.91,4Z" transform="translate(-253.92 -196.5)"/><path class="cls-2" d="M497.37,534c-.61-1.56-1.18-3.12-1.66-4.72-.29-1-.54-1.92-.75-2.9-.12-.56-.23-1.12-.32-1.68-.05-.3-.26-1.19,0,0-.08-.39-.09-.82-.13-1.21a28.85,28.85,0,0,1-.08-3.6c0-.66.08-1.32.16-2,0,.21-.17,1,0,0q.12-.67.27-1.35a27.71,27.71,0,0,1,1.21-3.78c.23-.59-.62,1.41-.19.48.14-.32.28-.63.43-.94.34-.7.72-1.39,1.13-2.06.24-.4.49-.78.75-1.16.13-.18.26-.35.38-.53s.13-.18-.27.35l.33-.41a20.15,20.15,0,0,1,2.2-2.23s1-.81.42-.36.48-.32.48-.32a20,20,0,0,1,1.72-1,8.41,8.41,0,0,1,1.42-.68c-1,.31-.34.13-.11.06l.91-.32a24.84,24.84,0,0,1,3.6-.87c1-.17,0,0-.17,0a5.25,5.25,0,0,1,1-.1c.59,0,1.18-.07,1.77-.08a30.7,30.7,0,0,1,3.59.15s1.35.14.53.05.17,0,.34.05c.6.1,1.19.21,1.79.33,1.26.26,2.51.59,3.74,1s2.19.71,3.26,1.13l.52.2c-.72-.29.5.22.51.23.67.29,1.33.6,2,.92,4.81,2.35,9.33,5.23,13.91,8a94.78,94.78,0,0,0,15.53,7.8,82.84,82.84,0,0,0,15.9,4.07c5.95,1,12,1.59,18,2a89.91,89.91,0,0,0,18.41-.45A110.37,110.37,0,0,0,627,523.76l17.08-5.24c5.85-1.8,11.7-3.61,17.56-5.39,2.74-.84,5.49-1.65,8.27-2.31,1.39-.32,2.79-.61,4.19-.84l.94-.14c-.9.13-.09,0,.08,0,.78-.08,1.57-.16,2.36-.2a34.41,34.41,0,0,1,3.8,0c.58,0,1.15.1,1.72.15.8.07-1.23-.23,0,0l.94.17a28,28,0,0,1,3.15.81,12.32,12.32,0,0,1,1.79.65c-.13-.07-1-.46-.15-.05.34.17.68.33,1,.51s.88.48,1.3.75c.27.16.53.34.79.51s.8.56.25.17.33.28.37.31l.56.5a18.65,18.65,0,0,1,1.31,1.36,5.68,5.68,0,0,1,.49.59c-.62-.95-.16-.19,0,.05.31.47.61.95.88,1.44a4.81,4.81,0,0,1,.67,1.34c-.16-1-.14-.36,0,0s.22.59.31.88.66,3.28.79,3.31c-.12,0-.1-1,0-.2,0,.31.06.63.08,1,.05.63.07,1.27.07,1.91a14.82,14.82,0,0,1-.21,3.26c.28-1.17,0-.31,0,0s-.11.63-.17,1c-.13.63-.28,1.25-.45,1.87-.31,1.12-.7,2.23-1.11,3.33l-.4,1c-.06.18-.37.89,0,0-.29.68-.6,1.34-.92,2a36.18,36.18,0,0,1-1.84,3.34c-.38.6-.78,1.2-1.18,1.78-.27.39-.54.77-.82,1.15l-.51.69c-.55.75.39-.48,0,0a58.48,58.48,0,0,1-5.36,5.88c-.81.75-1.63,1.47-2.47,2.18q-.66.57-1.35,1.11l-.6.48c-1,.82.83-.62-.22.16-1.83,1.37-3.71,2.68-5.64,3.91a111.25,111.25,0,0,1-11.36,6.3q-2.41,1.15-4.87,2.22l-.49.21c-.89.39,1-.39.35-.14l-1,.43-1.89.75a114.46,114.46,0,0,1-17.73,5.11c-2.81.59-5.64,1.11-8.48,1.54-.67.11-1.35.21-2,.3-1,.15-.23,0,0,0l-1.12.15c-1.41.17-2.82.33-4.24.48-5.16.52-10.35.8-15.54.89a201.67,201.67,0,0,1-25.65-1.25l-2.34-.28-1.17-.15c-.38-.05-1.11-.2.44.06l-.73-.1c-1.32-.18-2.63-.38-3.94-.59q-2.67-.44-5.32-1c-1.72-.35-3.42-.79-5.13-1.23-4.35-1.15-8.66-2.45-12.93-3.87q-4.27-1.44-8.49-3-2.25-.87-4.47-1.78l-.66-.28c.86.36-.45-.19-.67-.29l-2.41-1.06a120.31,120.31,0,0,1-18.16-10c-.66-.45-1.31-.9-2-1.37l-1-.74c-.3-.23-1.67-1.39-.42-.31-1.24-1.07-2.54-2.05-3.75-3.15s-2.32-2.19-3.4-3.35c-.53-.57-1-1.16-1.55-1.75-.22-.27-.44-.53-.65-.8s-.64-.82-.09-.09,0,0-.14-.21a37.17,37.17,0,0,1-2.4-3.66c-.36-.64-.71-1.29-1-2l-.42-.89c-.54-1.16.42,1.06-.06-.15-1-2.42-3.38-4.39-6.15-3.49-2.35.76-4.52,3.54-3.49,6.15,5.41,13.66,17.81,22.95,30.35,29.76a184.18,184.18,0,0,0,36.22,14.51,133,133,0,0,0,17,3.84,196.68,196.68,0,0,0,54.61,1,142.67,142.67,0,0,0,28-6,127.05,127.05,0,0,0,17.45-7.54c8.7-4.52,17.32-10.19,23.83-17.6,5.85-6.66,10.73-14.79,12-23.69a30.12,30.12,0,0,0-2-16.73,23.19,23.19,0,0,0-11-11.3,33.62,33.62,0,0,0-15.94-3.28c-6.25.22-12.34,1.8-18.29,3.6-11.95,3.61-23.85,7.34-35.79,11-2.9.88-5.81,1.74-8.75,2.47-1.39.35-2.79.67-4.2.94-.7.14-1.41.27-2.11.39l-1,.14c-1.18.19.54,0-.57.08a101.94,101.94,0,0,1-18.57,0c-2.93-.23-5.85-.51-8.76-.86l-.91-.11c-1-.13-.24,0,0,0-.76-.1-1.51-.21-2.27-.33-1.43-.22-2.86-.47-4.29-.74-2.83-.56-5.65-1.24-8.41-2.08-1.31-.4-2.61-.83-3.89-1.31-.64-.24-1.28-.5-1.91-.75.82.33.08,0-.07,0l-1.22-.55c-10.34-4.78-19.3-12.09-30-16.1-10-3.74-22.53-4.44-31.5,2.26-8.15,6.1-12.23,16.6-11.12,26.64a48.3,48.3,0,0,0,3.16,12.4c.95,2.42,3.39,4.38,6.15,3.49C496.24,539.34,498.39,536.56,497.37,534Z" transform="translate(-253.92 -196.5)"/><path class="cls-1" d="M544.16,545a127.19,127.19,0,0,0,83.38,7.76,124.34,124.34,0,0,0,18.11-6c1.86-.79,3.2-2.49,2.62-4.62-.49-1.76-2.74-3.4-4.62-2.62a124.22,124.22,0,0,1-15.14,5.24,118.62,118.62,0,0,1-65-.52c-3-.89-6.06-1.9-9-3-1.28-.49-2.55-1-3.81-1.51-.81-.33.42.18-.15-.06l-.9-.39-1.68-.74a3.86,3.86,0,0,0-5.13,1.34c-.94,1.61-.51,4.29,1.35,5.13Z" transform="translate(-253.92 -196.5)"/><circle class="cls-5" cx="311.67" cy="253.56" r="34.61"/><circle class="cls-5" cx="403.17" cy="253.56" r="34.61"/><path class="cls-2" d="M596,455.06h34.38a5,5,0,0,0,0-10H596a5,5,0,0,0,0,10Z" transform="translate(-253.92 -196.5)"/><path class="cls-2" d="M392.28,314.2l28.39,20.6c2.13,1.54,5.67.43,6.84-1.79a5.13,5.13,0,0,0-1.79-6.84l-28.39-20.6c-2.13-1.54-5.67-.44-6.85,1.79a5.14,5.14,0,0,0,1.8,6.84Z" transform="translate(-253.92 -196.5)"/><path class="cls-2" d="M363.73,369.28l34.64,7.59c2.54.56,5.52-.76,6.15-3.49.57-2.52-.76-5.55-3.5-6.15l-34.63-7.59c-2.55-.56-5.53.76-6.15,3.49-.58,2.53.76,5.55,3.49,6.15Z" transform="translate(-253.92 -196.5)"/><path class="cls-2" d="M360.32,428.33l34.48-3.11c2.6-.24,5.13-2.13,5-5-.11-2.51-2.21-5.25-5-5l-34.48,3.11c-2.6.24-5.13,2.14-5,5,.11,2.51,2.21,5.26,5,5Z" transform="translate(-253.92 -196.5)"/><path class="cls-2" d="M868.73,326.17l-28.39,20.59c-2.11,1.54-3.36,4.42-1.79,6.85,1.34,2.09,4.57,3.43,6.84,1.79l28.39-20.6c2.11-1.53,3.36-4.42,1.79-6.84-1.34-2.09-4.57-3.44-6.84-1.79Z" transform="translate(-253.92 -196.5)"/><path class="cls-2" d="M899.67,380.24,865,387.83a5,5,0,0,0-3.5,6.15,5.11,5.11,0,0,0,6.15,3.49l34.64-7.59a5,5,0,0,0,3.49-6.15,5.11,5.11,0,0,0-6.15-3.49Z" transform="translate(-253.92 -196.5)"/><path class="cls-2" d="M905.74,438.93l-34.48-3.11c-2.61-.24-5.12,2.46-5,5a5.14,5.14,0,0,0,5,5l34.48,3.11c2.61.24,5.11-2.47,5-5a5.14,5.14,0,0,0-5-5Z" transform="translate(-253.92 -196.5)"/><path class="cls-3" d="M566.13,457.3a61.64,61.64,0,0,1,8.5-8l-.76.59c1-.81,2.12-1.58,3.21-2.32a4,4,0,0,0,1.73-2.24,3.76,3.76,0,0,0-5.51-4.24A65.72,65.72,0,0,0,560.82,452a3.94,3.94,0,0,0-1.1,2.65,3.76,3.76,0,0,0,6.41,2.65Z" transform="translate(-253.92 -196.5)"/><path class="cls-3" d="M655.33,452.27,667.15,440a3.75,3.75,0,0,0-5.3-5.3L650,447a3.75,3.75,0,0,0,5.3,5.3Z" transform="translate(-253.92 -196.5)"/><path class="cls-3" d="M675.61,452.9h.68a2.79,2.79,0,0,0,1.45-.33,2.85,2.85,0,0,0,1.2-.77,2.75,2.75,0,0,0,.78-1.21,2.87,2.87,0,0,0,.32-1.44l-.13-1a3.73,3.73,0,0,0-1-1.66l-.75-.58a3.73,3.73,0,0,0-1.9-.51h-.68a2.78,2.78,0,0,0-1.45.32,3.31,3.31,0,0,0-2,2,2.78,2.78,0,0,0-.32,1.45l.13,1a3.8,3.8,0,0,0,1,1.66l.76.58a3.85,3.85,0,0,0,1.9.52Z" transform="translate(-253.92 -196.5)"/></g></svg>