<svg xmlns="http://www.w3.org/2000/svg" viewBox="0 0 727.68 555.64"><defs><style>.cls-1,.cls-7{fill:#22565a;}.cls-2{fill:#3f8e93;}.cls-3{fill:#b8d8ee;}.cls-4{fill:#b8d8ef;}.cls-5{fill:#b8d8ed;}.cls-6{fill:#fff;}.cls-7{stroke:#22565a;stroke-miterlimit:10;stroke-width:3px;}</style></defs><g id="Слой_5" data-name="Слой 5"><circle class="cls-1" cx="496.28" cy="166.9" r="8.04"/><path class="cls-2" d="M534.42,360c0,1.76-.07,3.5-.21,5.25-.06.81-.14,1.61-.23,2.41,0,.17-.05.34-.07.51-.07.6.09-.57,0,0-.06.45-.13.9-.2,1.36a64.81,64.81,0,0,1-2.34,9.69c-.51,1.59-1.1,3.15-1.72,4.7,0,0-.23.55-.07.16l-.14.32c-.15.35-.31.71-.47,1.06-.35.75-.71,1.49-1.08,2.23a65.45,65.45,0,0,1-5,8.31c-.45.63-.9,1.24-1.36,1.85.42-.56-.19.24-.32.41l-.94,1.14q-1.51,1.81-3.17,3.53c-1.1,1.14-2.24,2.23-3.42,3.29-.57.51-1.14,1-1.73,1.5l-1,.83c-.17.14-1.12.86-.54.42a65.6,65.6,0,0,1-8.11,5.29q-2.1,1.17-4.28,2.16l-1.21.55a1.92,1.92,0,0,1-.33.14c-.82.33-1.65.65-2.48,1a64.88,64.88,0,0,1-9.56,2.67c-.78.16-1.57.3-2.35.43l-1.19.18c-.14,0-.74.09,0,0l-.69.08c-1.72.2-3.46.34-5.19.4a65.53,65.53,0,0,1-10.29-.42l-.51-.06c.15,0,.72.1,0,0l-1.18-.18c-.84-.14-1.68-.29-2.52-.46q-2.49-.51-4.93-1.2T450.9,418c-.73-.27-1.45-.55-2.17-.84l-.32-.13c.39.16-.12-.05-.16-.07l-1.37-.62a65.77,65.77,0,0,1-8.49-4.72c-.64-.42-1.28-.85-1.9-1.3l-.93-.67-.4-.29-.4-.3-.14-.11-.51-.41c-.3-.24-.6-.48-.89-.73-.63-.52-1.25-1-1.86-1.6a66.77,66.77,0,0,1-6.8-7.07l-.62-.77c-.09-.12-.88-1.14-.42-.53-.5-.65-1-1.31-1.46-2q-1.37-2-2.6-4t-2.39-4.33c-.34-.69-.68-1.39-1-2.09l-.48-1.06c0-.1-.31-.74-.14-.32s-.1-.25-.13-.32a66.83,66.83,0,0,1-3-9.4c-.4-1.65-.73-3.32-1-5l-.18-1.19c-.06-.44,0,.08,0,.14,0-.22-.05-.45-.08-.68-.1-.86-.18-1.72-.25-2.58a67.08,67.08,0,0,1,0-10.32c.07-.81.15-1.61.24-2.41,0-.23.05-.46.08-.69,0,.16-.1.72,0,0,.06-.45.13-.9.2-1.35.27-1.63.6-3.24,1-4.84a66.37,66.37,0,0,1,3.05-9.39c.05-.13.28-.66,0,0,.07-.15.14-.31.2-.46l.48-1.06c.37-.8.75-1.59,1.15-2.38.73-1.42,1.5-2.82,2.33-4.18s1.75-2.78,2.7-4.12l.68-.93c.1-.14.7-.93.49-.66s.08-.11.11-.14l.41-.51c.27-.35.55-.68.83-1a66.56,66.56,0,0,1,6.71-6.93q.86-.76,1.74-1.5l.89-.72.53-.42q2-1.5,4-2.84a64.17,64.17,0,0,1,8.53-4.68l1.06-.48c.12-.05.66-.28,0,0l.46-.19c.77-.31,1.55-.61,2.33-.9q2.35-.86,4.79-1.53t4.77-1.14q1.25-.25,2.52-.45c.39-.07.79-.12,1.18-.18l-.14,0,.85-.1a66.86,66.86,0,0,1,10.3-.37c1.67.07,3.35.21,5,.41l.36,0c-.43-.06.13,0,.18,0l1.36.21c.84.14,1.68.29,2.51.46a66.1,66.1,0,0,1,9.54,2.73c.73.27,1.45.55,2.17.84,0,0,.55.24.17.07l.31.14,1.21.54q2.25,1,4.42,2.25c1.39.78,2.75,1.6,4.08,2.48.64.42,1.27.85,1.9,1.3l.93.67c.14.11,1.26.95.68.5a65.21,65.21,0,0,1,7,6.35q1.71,1.77,3.27,3.66l.73.89c.13.17.73,1,.32.41.53.69,1,1.4,1.55,2.12a66.2,66.2,0,0,1,4.89,8.18c.37.74.73,1.49,1.08,2.24.16.35.31.71.47,1.06l.07.17c-.19-.44.16.39.19.47q.94,2.33,1.7,4.71a65.19,65.19,0,0,1,2.27,9.54c.07.45.14.91.2,1.36-.09-.66,0,.13,0,.37q.15,1.29.24,2.58c.13,1.69.19,3.38.2,5.07a3.78,3.78,0,0,0,3.75,3.75,3.82,3.82,0,0,0,3.75-3.75,69.49,69.49,0,0,0-12.76-40.08,70.54,70.54,0,0,0-32.88-25.13,69.4,69.4,0,0,0-52.73,128.28,70.41,70.41,0,0,0,43,4.9A69.39,69.39,0,0,0,541,371a74.16,74.16,0,0,0,.9-11,3.75,3.75,0,0,0-7.5,0Z" transform="translate(-267.48 -262.12)"/><path class="cls-2" d="M798.15,348.17c-.53-2.69-4.66-2.56-6.66-3.16a17.43,17.43,0,0,1-8.33-5.8,27.19,27.19,0,0,1-2.63-3.58,16.87,16.87,0,0,1-2.22-5.31,54.36,54.36,0,0,1-.88-5.95,26.12,26.12,0,0,1-.13-6.43l-4.91-.66c-.83,7-1.84,14.57-6.28,20.35a16.48,16.48,0,0,1-7.52,5.54,44,44,0,0,1-10.74,2,2.5,2.5,0,0,0,0,5c6.53.58,13,4,15.64,10.26a49.49,49.49,0,0,1,2.66,11.26c.49,3.1.65,6.23.89,9.35a7.15,7.15,0,0,0,.58,2.94,2.65,2.65,0,0,0,4.16.6c1.28-1.29,1.15-4,1.34-5.43a39.57,39.57,0,0,1,7.27-18.56,21.15,21.15,0,0,1,10.35-7.2c2.51-.84,7.28-1.1,7.5-4.52a2.52,2.52,0,0,0-2.5-2.5,2.55,2.55,0,0,0-2.5,2.5,3.17,3.17,0,0,1,.93-1.73s-.13.06-.18.1.19-.08.23-.09l-.37.12c-.56.17-1.12.33-1.69.48a43.34,43.34,0,0,0-5,1.65,25.12,25.12,0,0,0-9.89,7.11A41.46,41.46,0,0,0,768.57,376c-.25,1.5-.44,3-.63,4.53l-.09.75c0,.29,0-.28,0-.26s0,.23-.06.34a2.2,2.2,0,0,0-.09.43s0,.12,0,.12c-.45-.18,1.74-1.6,1-1.24l1.26-.34,1,.56a1.15,1.15,0,0,1,1.1.8s.19.4.07.1c0-.09-.1-.53,0-.08s0-.22,0-.31,0-.47-.05-.71c-.09-1.28-.16-2.57-.27-3.85A97.75,97.75,0,0,0,770,365.16a30.47,30.47,0,0,0-3.17-9.19,20.62,20.62,0,0,0-7.37-7.3,27.71,27.71,0,0,0-11.62-3.54v5c4.19-.4,8.5-.79,12.47-2.29a21.51,21.51,0,0,0,9.33-6.68c5.46-6.82,6.74-15.47,7.74-23.88.33-2.77-4.51-3.46-4.91-.67-.65,4.47-.05,9.05.7,13.47a25.06,25.06,0,0,0,5.42,11.38,24.33,24.33,0,0,0,7.51,6.7,21.34,21.34,0,0,0,5.62,2.07c.65.15,1.3.25,1.94.38a4.37,4.37,0,0,0,.7.15c.27.08.21.05-.18-.11.54.32.25-.07-.86-1.15a2.5,2.5,0,0,0,4.82-1.33Z" transform="translate(-267.48 -262.12)"/><path class="cls-2" d="M730,395.75c-.54-2.23-3.09-2.18-4.86-2.65a11.87,11.87,0,0,1-6-4,18,18,0,0,1-1.86-2.5,11.57,11.57,0,0,1-1.53-3.51,24.92,24.92,0,0,1-.79-8.84L710,373.6c-.59,4.9-1.28,10.24-4.39,14.28S697.72,392.59,693,393a2.5,2.5,0,0,0,0,5c4.57.42,9.11,2.86,10.79,7.3,1.76,4.64,2,9.72,2.42,14.6a5.21,5.21,0,0,0,.51,2.24,2.61,2.61,0,0,0,3.57.93c1.54-.92,1.44-3,1.64-4.56.06-.41.28-1.8.46-2.66a31.92,31.92,0,0,1,1.09-4,23.83,23.83,0,0,1,3.67-6.71,14.82,14.82,0,0,1,7.34-5c2.28-.72,5.31-.9,5.64-3.83a2.52,2.52,0,0,0-2.5-2.5,2.55,2.55,0,0,0-2.5,2.5v.08l.34-1.26a2.25,2.25,0,0,1,.61-.62c.34-.14.42-.17.22-.1a4.1,4.1,0,0,0-.73.23c-.57.16-1.15.31-1.72.48a24.41,24.41,0,0,0-5.1,2.09,21,21,0,0,0-7.18,7.24,30.21,30.21,0,0,0-4,10c-.28,1.36-.47,2.73-.64,4.11,0,.25-.07.51-.09.76s-.14.77,0,0a2.38,2.38,0,0,1-.07.4c0,.07,0,.13,0,.2-.25.79.27.29,1.58-1.49h1.29l1.11.64c-.14-.12.83,1.47.5.74,0,.06,0,.59,0,0l-.09-1.34c-.1-1.49-.22-3-.4-4.46a45,45,0,0,0-2.17-10.28c-2.5-6.64-8.7-10.19-15.55-10.82v5c6.07-.58,12.15-1.62,16.21-6.63s5.09-11.5,5.85-17.81c.32-2.78-4.53-3.46-4.92-.67a33.26,33.26,0,0,0,.49,10,18.16,18.16,0,0,0,3.71,8.12,19.82,19.82,0,0,0,5.63,5.28,16.39,16.39,0,0,0,4.22,1.68c.48.11,1,.2,1.44.29.2,0,.44.11.65.13,1,.07-.39,1.38-1.06-1.36C726,400.2,730.79,398.87,730,395.75Z" transform="translate(-267.48 -262.12)"/><path class="cls-2" d="M995.06,703.67c-.54-2.23-3.09-2.18-4.86-2.65a11.81,11.81,0,0,1-6-4,18,18,0,0,1-1.86-2.5,11.62,11.62,0,0,1-1.53-3.5,25,25,0,0,1-.79-8.85l-4.91-.66c-.59,4.9-1.28,10.24-4.39,14.28S962.76,700.51,958,701a2.5,2.5,0,0,0,0,5c4.56.42,9.1,2.86,10.78,7.3,1.76,4.64,2,9.72,2.42,14.6a5.21,5.21,0,0,0,.51,2.24,2.62,2.62,0,0,0,3.57.94c1.55-.93,1.44-3,1.64-4.57.06-.41.28-1.8.46-2.66a32.4,32.4,0,0,1,1.09-4,24,24,0,0,1,3.67-6.71,14.8,14.8,0,0,1,7.34-5c2.28-.73,5.31-.91,5.64-3.84a2.52,2.52,0,0,0-2.5-2.5,2.55,2.55,0,0,0-2.5,2.5v.08l.34-1.26a2.25,2.25,0,0,1,.61-.62c.34-.14.42-.17.22-.1a4.64,4.64,0,0,0-.72.23c-.58.16-1.16.31-1.73.48a23.92,23.92,0,0,0-5.1,2.1,20.82,20.82,0,0,0-7.18,7.24,29.93,29.93,0,0,0-4,10c-.29,1.36-.48,2.74-.65,4.11l-.09.76c0,.18-.14.77,0,0,0,0,0,.38-.07.39s0,.14,0,.2c-.25.79.27.29,1.58-1.49h1.29l1.11.65c-.13-.13.83,1.46.5.73,0,.06,0,.59,0,0s-.06-.89-.09-1.34c-.1-1.49-.22-3-.4-4.46a44.61,44.61,0,0,0-2.17-10.28c-2.5-6.63-8.7-10.19-15.54-10.82v5c6.06-.58,12.14-1.61,16.2-6.62s5.1-11.51,5.85-17.82c.33-2.77-4.53-3.46-4.91-.67a32.94,32.94,0,0,0,.48,10,18.16,18.16,0,0,0,3.71,8.12,19.82,19.82,0,0,0,5.63,5.28,16,16,0,0,0,4.22,1.68c.48.12,1,.2,1.44.29.2,0,.45.11.65.13,1,.07-.39,1.39-1.06-1.35C991,708.12,995.83,706.8,995.06,703.67Z" transform="translate(-267.48 -262.12)"/><path class="cls-2" d="M637.48,716.7c0,.58,0,1.16-.07,1.74,0,.35-.06.69-.1,1,0-.16.12-.72,0,0a24.26,24.26,0,0,1-.83,3.44l-.27.78s-.38,1-.18.48-.22.49-.21.47c-.09.2-.18.39-.28.59a24.11,24.11,0,0,1-1.86,3.09l-.39.53c.5-.66-.17.19-.23.26-.32.38-.65.74-1,1.1s-.77.77-1.17,1.13c-.21.19-.41.37-.62.54-.06.05-.9.72-.26.23a22.74,22.74,0,0,1-2.75,1.79c-.48.27-1,.51-1.47.75l-.6.27c.73-.31-.18,0-.34.11a24.11,24.11,0,0,1-3.22.92l-.84.16c-.19,0-.94.12-.19,0-.69.07-1.38.13-2.07.15a24.37,24.37,0,0,1-3.31-.14c-.66-.06.88.17-.19,0l-.67-.12c-.66-.13-1.32-.29-2-.47s-1.07-.33-1.59-.52l-.62-.24c.78.3-.23-.1-.32-.14a23.76,23.76,0,0,1-2.88-1.6c-.45-.3-.9-.61-1.34-.94.58.44,0,0-.13-.12s-.42-.35-.62-.54a26.31,26.31,0,0,1-2.38-2.46c-.12-.14-.56-.71-.13-.14-.13-.17-.26-.35-.38-.53-.32-.44-.62-.9-.91-1.36s-.55-1-.81-1.43l-.36-.74c-.07-.15-.51-1.23-.22-.47a26.7,26.7,0,0,1-1-3c-.12-.49-.23-1-.31-1.49,0-.1-.17-1.22-.07-.35,0-.35-.07-.69-.1-1a22.59,22.59,0,0,1,0-3.49l.06-.69c.1-1.11-.16.74,0-.36.1-.55.2-1.11.33-1.66a25.15,25.15,0,0,1,1-3.19c-.26.68,0,0,.08-.17s.23-.5.36-.74q.4-.81.87-1.59c.28-.47.58-.93.89-1.37l.48-.66c-.41.54-.07.09,0,0a30.4,30.4,0,0,1,2.49-2.59c.18-.16,1.36-1.11.75-.66.39-.29.8-.57,1.21-.84a22.75,22.75,0,0,1,3-1.69s1-.41.46-.21.51-.18.48-.17c.52-.19,1.05-.37,1.59-.52s1.09-.29,1.64-.4l.66-.13c.24,0,1-.15.36-.07a25.26,25.26,0,0,1,3.48-.15c.58,0,1.15.07,1.73.11,1.09.09-.46-.08.19,0l1.18.22a29.07,29.07,0,0,1,3.53,1c1,.35-.4-.19.18.07.35.15.7.32,1,.49s1,.51,1.44.79,1.12.69,1.65,1.07c0,0,.83.63.41.29s.54.46.63.54a23.34,23.34,0,0,1,2.52,2.55l.32.39c-.25-.32.42.57.48.67.35.5.67,1,1,1.52s.59,1.06.85,1.6c.12.25.24.5.35.75s.09.21-.06-.13l.24.62a23.17,23.17,0,0,1,1,3.56c.06.28.1.56.15.84s0,.23,0-.15c0,.23.05.46.07.69.06.69.09,1.39.1,2.09a3.75,3.75,0,0,0,7.5,0,27.54,27.54,0,0,0-18.12-25.6,27.14,27.14,0,1,0-3.56,52.18c12.53-2.42,21.58-14,21.68-26.58a3.75,3.75,0,0,0-7.5,0Z" transform="translate(-267.48 -262.12)"/><circle class="cls-1" cx="292.64" cy="431.19" r="8.04"/></g><g id="Слой_4" data-name="Слой 4"><path class="cls-3" d="M418.68,703.16c1.83-10.31-1.88-22.59-11.5-26.73-5.55-2.38-12.07-1.62-17.58.87s-10.13,6.55-14.42,10.8a152.86,152.86,0,0,0-34,51.12c-1.42,3.51-2.64,7.76-.48,10.87,3.07,4.41,9.93,2.81,14.68.3,22.92-12.09,39.5-34.21,62.95-45.25" transform="translate(-267.48 -262.12)"/><path class="cls-4" d="M421.09,703.83a31.49,31.49,0,0,0-3.12-20.6,20.58,20.58,0,0,0-18.73-10.73c-9.19.26-17,5.51-23.5,11.58a148.77,148.77,0,0,0-17.14,19.29A152.52,152.52,0,0,0,345,725c-2,3.85-3.82,7.79-5.49,11.79-1.57,3.74-3.27,8-2.09,12.09,1.13,3.94,4.59,6.19,8.54,6.46,3.58.25,7.26-1,10.4-2.62,7.18-3.66,13.73-8.52,20-13.52,12.45-9.93,23.93-21.29,37.91-29.14,1.74-1,3.51-1.89,5.32-2.75a2.5,2.5,0,1,0-2.52-4.31c-13.66,6.46-25,16.6-36.49,26.26A200.86,200.86,0,0,1,363,742.88a83.49,83.49,0,0,1-9.5,5.66c-2.4,1.18-5.6,2.23-8.15,1.71-2.89-.58-3.75-3.28-3.15-6.16.78-3.69,2.58-7.24,4.16-10.65a153,153,0,0,1,11.71-20.77,149,149,0,0,1,14.69-18.52c5.32-5.7,11.14-11.8,18.47-14.87,6.45-2.7,14.32-2.62,19.49,2.57,4.2,4.21,5.91,10.45,5.88,16.27a26.78,26.78,0,0,1-.36,4.38,2.56,2.56,0,0,0,1.75,3.07,2.51,2.51,0,0,0,3.07-1.74Z" transform="translate(-267.48 -262.12)"/><path class="cls-3" d="M465.5,731.16c-2,7.31-1.25,14.86.19,30,.14,1.38.63,3.84,2.33,5.24,3.14,2.6,7.77-.34,10.47-3.4,12.41-14,18.52-32.5,29.4-47.73,4.62-6.47,4.49-5.7,8.77-12.45,9-14.17,12.59-24.89,16.42-34a184.75,184.75,0,0,1,21.55-37.6A185.55,185.55,0,0,0,534,646.35c-10.46,8.84-16.34,15.8-29.35,31.19C473.54,714.33,468.42,720.38,465.5,731.16Z" transform="translate(-267.48 -262.12)"/><path class="cls-4" d="M463.09,730.5a49,49,0,0,0-1.2,14.93c.17,3.39.47,6.77.78,10.15s.17,7.57,2,10.67a7.37,7.37,0,0,0,9.21,3c3.52-1.36,6-4.06,8.37-6.92a125.16,125.16,0,0,0,12.33-19.12c3.63-6.65,7-13.42,10.95-19.9,3.1-5.1,6.79-9.73,10.19-14.62A142.57,142.57,0,0,0,527,689.42c2.72-5.62,5-11.41,7.38-17.19A186.48,186.48,0,0,1,553,637.81c1.23-1.8,2.49-3.57,3.78-5.33,1.5-2.06-1.4-4.7-3.42-3.42a180.26,180.26,0,0,0-28,21.7c-8.23,7.85-15.44,16.71-22.78,25.39C495,685.08,487.4,694,480,703.06a162.1,162.1,0,0,0-11.58,15.43,44,44,0,0,0-5.34,12c-.84,3.11,4,4.43,4.82,1.33.46-1.68,1-3.29,1.65-4.92.17-.43-.27.59-.07.18.05-.11.09-.22.14-.32l.26-.59c.2-.41.4-.83.61-1.24.44-.88.93-1.75,1.43-2.6,1.25-2.09,2.63-4.1,4.07-6.07l1.31-1.77c.22-.3.45-.6.68-.89s.25-.34.38-.5.4-.52.13-.18c1.11-1.43,2.24-2.86,3.38-4.27,6.78-8.44,13.81-16.68,20.8-24.95,7.68-9.08,15.17-18.41,23.57-26.85a169.6,169.6,0,0,1,29.64-23.48L552.47,630a188.58,188.58,0,0,0-20.59,35.38c-2.16,4.91-4,9.93-6.16,14.85A152.22,152.22,0,0,1,516.05,699c-2.83,4.65-6,9-9.18,13.36a160.14,160.14,0,0,0-11.4,18.66c-3.41,6.35-6.69,12.77-10.51,18.89a88.57,88.57,0,0,1-6.08,8.7c-1.86,2.31-4,5.14-7,6a2.24,2.24,0,0,1-2.68-.61,4.79,4.79,0,0,1-.77-1.63,7.31,7.31,0,0,1-.3-1.56c-.36-3.69-.72-7.39-1-11.09-.21-2.78-.38-5.56-.38-8.35,0-1.19,0-2.39.12-3.58q.06-.86.15-1.68a11.69,11.69,0,0,1,.17-1.21c.18-1.05.41-2.1.68-3.13C468.74,728.72,463.92,727.39,463.09,730.5Z" transform="translate(-267.48 -262.12)"/><path class="cls-5" d="M572.32,345.21c-6.22,1.52-9.65,8.14-11.48,14.28a29.26,29.26,0,0,0-1.45,8.12c-.07,8.47,6.19,16.3,14.17,19.14s17.17,1.07,24.24-3.6a18.7,18.7,0,0,0,6.76-7.12c2-4.17,1.71-9.07,1.3-13.71a27.54,27.54,0,0,0-1.31-7.23c-2.82-7.58-11.31-11.14-18.93-13.87-3-1.08-6.21-2.17-9.33-1.48s-5.88,4-4.81,7" transform="translate(-267.48 -262.12)"/><path class="cls-4" d="M571.65,342.8c-5.11,1.33-8.72,5.47-10.94,10.08-2.38,5-4.29,11-3.74,16.53,1.09,11.14,10.49,19.6,21.34,21a30.85,30.85,0,0,0,17.18-3.06c5.21-2.5,10.07-6.46,12.07-12a24.16,24.16,0,0,0,1.07-9,54.77,54.77,0,0,0-1-9.64c-1.17-5.29-4.71-9.36-9.16-12.26a45.14,45.14,0,0,0-7.8-3.91,53.19,53.19,0,0,0-8.75-3c-3.44-.74-7-.57-9.87,1.68a7.75,7.75,0,0,0-2.95,8.25c.94,3.06,5.77,1.76,4.82-1.33-.45-1.47.66-2.85,2.05-3.55,2.09-1.05,4.75-.28,6.84.38a57.79,57.79,0,0,1,11.93,5.06c3.26,1.91,6.34,4.56,7.58,8.25a32.26,32.26,0,0,1,1.21,7.88,28.58,28.58,0,0,1-.14,7.62c-.93,4.75-4.34,7.94-8.39,10.27a26.75,26.75,0,0,1-13.42,3.65c-8.55,0-16.8-5.4-19.12-13.87-1.36-5,.11-10.45,2.05-15.12,1.61-3.89,4.2-7.88,8.5-9,3.11-.82,1.79-5.64-1.33-4.82Z" transform="translate(-267.48 -262.12)"/><path class="cls-6" d="M397.07,668.83c-13.56,2-25.47,10.37-34.72,20.48s-16.26,22-23.8,33.46a399.62,399.62,0,0,1-31.41,41.53c-7.46,8.63-17.46,17.72-28.67,15.54a8.64,8.64,0,0,1-4.88-2.43c-2.92-3.27-1.27-8.39.53-12.4l18.57-41.43c19.23-42.9,38.58-86.15,48.78-132A348.93,348.93,0,0,0,349.61,526c.24-8.57.19-17.32,2.89-25.45,5.4-16.23,20.5-26.93,34.69-36.48a155.14,155.14,0,0,0-20.67,12.59c16.77-12.95,36.27-23.1,57.3-25.77s43.68,2.92,58.83,17.73c7.58,7.4,14.17,17.45,24.63,19.1,5.86.93,11.73-1.08,17.49-2.52,11.66-2.91,24.06-3.5,35.66-.34,19.25,5.23,35,20.94,41.51,39.79s4.06,40.33-5.37,57.9c-17.09,31.83-52.84,48-80.18,71.6-39.17,33.86-60.83,83.1-90.67,125.41-1.6,2.25-3.29,4.56-5.67,5.94a18.64,18.64,0,0,1-7,1.94,157.42,157.42,0,0,1-39.28.27l34.61-54.86c7.49-11.86,15.25-24.69,14.69-38.71s-13.65-28.3-27.15-24.46" transform="translate(-267.48 -262.12)"/><path class="cls-6" d="M396.4,666.41c-15.12,2.36-28,12-37.83,23.39-11,12.79-19.2,27.78-28.88,41.57q-7.57,10.78-15.86,21c-5,6.19-10,12.61-16,17.88-5.07,4.45-11.88,8.6-18.91,7.09a5.49,5.49,0,0,1-3.83-2.19,6,6,0,0,1-.36-4.26c.83-4,2.93-7.69,4.58-11.36,14.64-32.65,29.85-65.12,42.91-98.45,13-33.09,23.1-67.15,27.45-102.5q1.64-13.33,2.25-26.77c.4-8.79-.06-17.82,1.86-26.46,3.24-14.53,14.45-24.85,26.08-33.24,2.83-2,5.72-4,8.62-6a2.5,2.5,0,0,0-2.52-4.32,159.8,159.8,0,0,0-20.68,12.59l2.53,4.31c17.26-13.27,37.66-24,59.7-25.8,19.8-1.59,40.5,4.16,54.62,18.59,6.51,6.66,12.46,14.92,21.71,17.87,5.7,1.81,11.64.73,17.28-.73a99.14,99.14,0,0,1,17.49-3.29c10.89-.82,21.92.85,31.67,5.9a60.27,60.27,0,0,1,21,18.23c12.43,17.28,14.68,39.68,8.22,59.72-6.13,19-20,33.76-35.34,46s-32,22.43-47,35c-16.16,13.48-29.62,29.8-41.61,47-12.12,17.39-22.82,35.71-34,53.69-5.62,9-11.36,18-17.48,26.68-1.47,2.09-3,4.41-5.25,5.72s-5.11,1.54-7.67,1.85a158.52,158.52,0,0,1-19,1.12,160.3,160.3,0,0,1-18.33-1.1l2.16,3.76c12.21-19.36,24.58-38.64,36.64-58.09,5.31-8.57,10.5-17.71,12.31-27.75,1.64-9.09.26-18.23-5.36-25.75s-14.7-12.69-24.26-10.12c-3.1.84-1.79,5.66,1.33,4.83,7.37-2,14.43,2.2,18.76,8,5.06,6.78,6.18,15,4.43,23.11-2,9.2-6.77,17.48-11.68,25.39-5.56,9-11.24,17.83-16.86,26.74l-19.63,31.11c-1.11,1.76.39,3.56,2.16,3.76a158.42,158.42,0,0,0,38.62-.19,25.87,25.87,0,0,0,8.15-2,17.23,17.23,0,0,0,6-5.44c3.28-4.33,6.26-8.93,9.25-13.46,12-18.19,22.83-37.08,34.65-55.37,11.66-18,24.34-35.56,39.78-50.59C524.84,648.94,542,638,558.32,626c15.8-11.68,31.18-24.86,40.54-42.47,10.43-19.62,12.47-43.78,3.62-64.36-7.84-18.22-24.29-32.95-43.8-37.35-11.95-2.7-24.35-1.74-36.12,1.34-5.68,1.48-11.6,3.3-17.42,1.46-4.35-1.39-7.92-4.47-11.09-7.64-3.48-3.49-6.62-7.31-10.2-10.71a62.89,62.89,0,0,0-12.45-9.17,75.24,75.24,0,0,0-29.68-9c-22.21-2.15-44.19,5.4-62.9,17a161.71,161.71,0,0,0-13.57,9.42,2.59,2.59,0,0,0-.89,3.42,2.51,2.51,0,0,0,3.42.89,160.05,160.05,0,0,1,20.67-12.58l-2.52-4.32c-12.1,8.15-24.9,16.95-32.26,29.92-4.2,7.43-5.76,15.66-6.23,24.1-.51,9.14-.54,18.28-1.26,27.41-2.87,36.61-12.15,72.08-25,106.41S292.9,717,278,750.34q-2.88,6.4-5.74,12.8c-1.46,3.28-3,6.82-2.7,10.49.66,8.67,10.81,10.09,17.64,8.36,7.3-1.85,13.42-7,18.5-12.34a259.71,259.71,0,0,0,16.76-20.1Q330.61,739,338.1,728c4.83-7.16,9.34-14.52,14.21-21.65,8.88-13,19.68-25.81,34.58-32a46.33,46.33,0,0,1,10.84-3,2.54,2.54,0,0,0,1.75-3.08,2.57,2.57,0,0,0-3.08-1.75Z" transform="translate(-267.48 -262.12)"/><path class="cls-3" d="M558.56,354.56a101.23,101.23,0,0,0-4.39,22.94c-18.31,1.06-36.29,5.15-54.11,9.46-19.12,4.63-38.52,9.66-55.27,20-7.2,4.44-13.78,9.79-20.32,15.15q-11,9-21.84,18c-20.21,16.85-40.74,34.58-52.65,58-2.08,4.1-4.08,8.58-8,11a12.08,12.08,0,0,1-12.19.06,13.34,13.34,0,0,1-6.35-10.53c-.48-7.46,4.92-13.81,8-20.61,2.07-4.54,3.17-9.51,5.48-13.94,2.85-5.49,7.4-9.87,11.88-14.15l21-20.09c6.69-6.4,13.39-12.81,20.76-18.41a244.75,244.75,0,0,1,22.62-14.72l12.39-7.43c4.88-2.93,9.77-5.86,14.77-8.57a198.55,198.55,0,0,1,115.5-22.66" transform="translate(-267.48 -262.12)"/><path class="cls-4" d="M556.15,353.9a106.48,106.48,0,0,0-4.48,23.6l2.5-2.5c-20.2,1.2-40,5.88-59.56,10.72-18,4.45-36.26,9.68-52.08,19.7-8.39,5.31-16,11.77-23.67,18.06S403.58,436.05,396,442.42c-13.45,11.34-26.61,23.17-37.29,37.24a120.67,120.67,0,0,0-7.26,10.67c-2.16,3.6-3.91,7.41-6,11.07-1.83,3.24-4.23,6.26-8.13,6.87a9.76,9.76,0,0,1-9.36-4c-5.08-7.13.38-15.06,3.88-21.5a94.37,94.37,0,0,0,5.33-13,35,35,0,0,1,6.69-11.27c3.07-3.49,6.53-6.63,9.89-9.85L365,438c7.12-6.82,14.13-13.78,21.66-20.15a184.34,184.34,0,0,1,24.13-16.69c8.68-5.24,17.34-10.55,26.14-15.59a196,196,0,0,1,105.51-25.93q6.72.27,13.41,1a2.51,2.51,0,0,0,2.5-2.5,2.56,2.56,0,0,0-2.5-2.5A201.3,201.3,0,0,0,446.56,374.8c-9.06,4.42-17.65,9.67-26.28,14.84s-17.6,10.31-26,16.11a196.46,196.46,0,0,0-23,19.32q-11.25,10.71-22.45,21.48A109.63,109.63,0,0,0,339,456.68a41.75,41.75,0,0,0-6.82,12.47c-.81,2.28-1.54,4.6-2.47,6.84a55.86,55.86,0,0,1-2.91,5.72c-2.07,3.72-4.34,7.5-5.32,11.69A16.88,16.88,0,0,0,323.2,506a14.76,14.76,0,0,0,10.13,7.1,14.39,14.39,0,0,0,12.37-3.67c3-2.86,4.76-6.75,6.63-10.39,8.1-15.79,20.22-29,33.22-40.89,6.67-6.11,13.61-11.92,20.56-17.7,8-6.67,16-13.33,24.13-19.88a134.13,134.13,0,0,1,24.19-16.14,157.25,157.25,0,0,1,26.33-9.9c9.33-2.71,18.8-5,28.26-7.16,10-2.35,20.13-4.49,30.34-5.92q7.36-1,14.81-1.48a2.57,2.57,0,0,0,2.5-2.5,100.48,100.48,0,0,1,4.3-22.27c1-3.08-3.87-4.4-4.82-1.33Z" transform="translate(-267.48 -262.12)"/><path class="cls-3" d="M584,393.27a32,32,0,0,0,23.41-9.95c1.88,9.18,8.55,16.57,12.27,25.16,3.08,7.12,4.09,15,6.74,22.25,1.86,5.13,4.51,9.93,6.84,14.86,6.13,12.93,10.1,26.76,14,40.52,1.35,4.74,2.72,9.53,3,14.45a66.41,66.41,0,0,1-.81,11.94c-3,23.23-6.15,47.08-17.4,67.63-2.08,3.81-4.44,7.49-6.22,11.45-2.46,5.5-3.8,11.48-6.67,16.77C615.63,614.9,610,620,604.4,624.93c-5.78,5.13-12.11,10.52-19.8,11.22-7.07.65-13.91-2.88-19.41-7.37-1.6-1.31-3.25-3-3.19-5,.06-2.26,2.11-3.87,3.92-5.23,13-9.75,22.91-23,32.62-36a113,113,0,0,0,8.93-13.25c4.32-8,6.63-16.83,8.63-25.66,2.1-9.31,3.9-18.78,3.72-28.32-.15-7.84-1.64-15.6-3.2-23.29-5-24.64-10.86-49.52-23.16-71.45-4.63-8.27-10.31-16.53-10.83-26" transform="translate(-267.48 -262.12)"/><path class="cls-4" d="M584,395.77a34.69,34.69,0,0,0,25.17-10.68L605,384c1.79,8.42,7.23,15.26,11.1,22.77,4.24,8.23,5.1,17.61,8.49,26.16,1.77,4.49,4,8.75,6.11,13.08s3.84,8.59,5.47,13c3.37,9.11,6.05,18.45,8.71,27.78,1.32,4.58,2.69,9.23,2.92,14s-.56,9.75-1.19,14.58c-1.16,9-2.41,18-4.2,26.88A149.53,149.53,0,0,1,635,568.18a99.09,99.09,0,0,1-5.83,12.11A105.22,105.22,0,0,0,622.57,593c-1.65,4.13-2.81,8.47-4.73,12.48a40,40,0,0,1-7.51,10.46c-3,3.13-6.3,6-9.58,8.87a45.61,45.61,0,0,1-10,7,17.69,17.69,0,0,1-11.53,1.48,29.42,29.42,0,0,1-11.4-5.65c-1.08-.83-3-2.09-3.29-3.56s1.49-2.54,2.39-3.23a121.82,121.82,0,0,0,10.24-8.75,184.56,184.56,0,0,0,17.61-20.46c5.56-7.28,11.6-14.58,15.73-22.8,4.26-8.5,6.55-17.8,8.57-27,2.13-9.75,3.77-19.73,3.14-29.75-.61-9.73-2.81-19.33-4.83-28.84-1.94-9.12-4.08-18.2-6.71-27.14a195.93,195.93,0,0,0-9.58-26.06q-2.85-6.29-6.3-12.29c-2.2-3.83-4.5-7.62-6.39-11.63a32.24,32.24,0,0,1-3.25-11.6c-.21-3.19-5.21-3.21-5,0,.59,9.24,5.38,17.18,9.89,25a158.29,158.29,0,0,1,11.71,25.32,256.74,256.74,0,0,1,8,27.2c2.26,9.37,4.31,18.82,6,28.31a97,97,0,0,1,1.62,14.91,85.22,85.22,0,0,1-1.14,15.05,162.38,162.38,0,0,1-6.89,28.6,62.55,62.55,0,0,1-6.13,12.71c-2.56,4.06-5.48,7.88-8.35,11.72a246.36,246.36,0,0,1-17.07,21,111.29,111.29,0,0,1-9.81,9.37c-3,2.48-7.59,4.81-8.31,9-.84,4.85,3.91,8.15,7.4,10.52a30.47,30.47,0,0,0,12.29,5.17c9.35,1.45,17.18-3.43,24-9.25,6.68-5.68,13.77-11.74,18-19.56,2.27-4.16,3.63-8.73,5.24-13.17a82.33,82.33,0,0,1,6.28-12.61,118.49,118.49,0,0,0,10.81-25.68A209.68,209.68,0,0,0,649.44,531c.72-4.67,1.35-9.35,2-14,.64-4.93,1.48-9.91,1.42-14.9a57.18,57.18,0,0,0-2.6-14.77q-2-7.12-4.13-14.21a210.13,210.13,0,0,0-10.27-27.88c-2-4.33-4.34-8.52-6.16-12.94a107.24,107.24,0,0,1-4.17-13.82A68.23,68.23,0,0,0,620.78,405c-1.92-3.85-4.28-7.45-6.4-11.19a39.13,39.13,0,0,1-4.57-11.12,2.52,2.52,0,0,0-4.18-1.11A29.68,29.68,0,0,1,584,390.77c-3.21,0-3.22,5,0,5Z" transform="translate(-267.48 -262.12)"/><path class="cls-6" d="M619.25,267.54l-1.56-.22,41.83,27.89h0a9.88,9.88,0,0,1-.33,2.15,11.37,11.37,0,0,1-4.13,6,204.27,204.27,0,0,0-32.23,48C618,361.39,608.18,378,609,374.61a28.19,28.19,0,0,0-34.56-34.17,570.67,570.67,0,0,1,40.83-70.37c.41-.6,1.1-1.27,1.73-.93a.32.32,0,0,1,.16.17c.11.28-.5.75-.65.66s-.06-.09,0-.23" transform="translate(-267.48 -262.12)"/><path class="cls-6" d="M619.92,265.13l-1.57-.22a2.5,2.5,0,0,0-1.92,4.57l41.83,27.89L657,295.21a8,8,0,0,1-1.65,4.34c-.79,1-1.88,1.77-2.73,2.74q-4.25,4.8-8.2,9.84a213.4,213.4,0,0,0-13,18.43q-4.93,7.86-9.11,16.15c-2.57,5.14-5.1,10.28-7.92,15.29-1.5,2.66-3,5.31-4.65,7.9-.55.87-1.1,1.74-1.69,2.57-.1.15-.21.28-.3.43s.4-.22,0,0a1.13,1.13,0,0,0-.23.26c.12-.39,1.91-.57,2.16-.49l1.1.64c.39.37.87,1.76.64,2.08a4.3,4.3,0,0,0,.27-1.19,34,34,0,0,0,.52-3.48,28.55,28.55,0,0,0-.06-6.06,32.51,32.51,0,0,0-3.9-12.21,30.45,30.45,0,0,0-20-14.6,31.3,31.3,0,0,0-14.5.22l2.83,3.67a574.23,574.23,0,0,1,31.38-56q2.41-3.76,4.87-7.5,1.23-1.87,2.47-3.73l1.32-1.95c.17-.26.34-.53.52-.78l.27-.39c.16-.13.13-.09-.08.13h-1.33l.32.09-1.11-.64.16.17-.73-1.77v.18l.34-1.26.39-.42,1.26-.35h-.13l2.41,1.84,0-.23a2.54,2.54,0,0,0-3.08-1.75,2.56,2.56,0,0,0-1.75,3.08l0,.22a2.51,2.51,0,0,0,2.41,1.84,3.23,3.23,0,0,0,3.14-3,2.94,2.94,0,0,0-3.63-2.85,5.24,5.24,0,0,0-3.17,2.56c-.9,1.29-1.76,2.6-2.63,3.9q-5.16,7.74-10.06,15.64-9.74,15.69-18.45,32-4.89,9.13-9.43,18.44a2.53,2.53,0,0,0,2.82,3.67c10.46-2.69,22.19,1.61,28,10.78A26.76,26.76,0,0,1,607.33,369a22.6,22.6,0,0,1-.45,3.85,6,6,0,0,0-.3,2.81c.61,2.28,3.24,2.29,4.65.83a20.6,20.6,0,0,0,2.37-3.34c1.09-1.71,2.13-3.45,3.15-5.2,2.46-4.23,4.83-8.53,7-12.91,2.05-4.08,4-8.19,6.2-12.18q3.9-7.09,8.38-13.86a206.14,206.14,0,0,1,12.5-16.92,86,86,0,0,1,7-7.87,13.5,13.5,0,0,0,4.14-9,2.52,2.52,0,0,0-1.24-2.16L619,265.16,617,269.73l1.57.22a2.58,2.58,0,0,0,3.07-1.75,2.51,2.51,0,0,0-1.74-3.07Z" transform="translate(-267.48 -262.12)"/><path class="cls-6" d="M652,590c11.63-18.53,34.23-25.48,40.78-27.49,6.15-1.89,6.2-.77,22.19-5,10.64-2.8,20.87-7.58,31.84-8.5,18.08-1.52,22.52,4.21,43,6.09,20.88,1.92,19.53-5.06,55.59-8.75,33.79-3.47,49.44,1.17,59.16,5.5,11.6,5.16,16.49,10.67,18.22,12.78,6.48,7.9,9.73,18.25,9.69,35.88-.07,25.94-7.18,36.9-13.69,66-4.49,20-5.61,34.9-7,53.75a460.58,460.58,0,0,0,.6,75.69c-.76-.78-1.57-3-3.72-3.46a740.21,740.21,0,0,0-74.34-11.66c-14-1.47-28.1-2.55-42.11-1.33s-36.46,5.31-58.55,11c-6,1.54-11.39,3.06-19.39,3.5-13.23.72-22.76-2.15-32.1-5-14.45-4.49-16.57-8.11-17.31-9.81-1.88-4.35-.11-8.55,1.15-12.67,2.66-8.67,1.58-22.26-.6-49.46-.91-11.44-1.37-17.16-2.79-25.08-4.74-26.43-11.78-30.84-15.49-50.32C644.67,629,640.66,608,652,590Z" transform="translate(-267.48 -262.12)"/><path class="cls-6" d="M654.11,591.27c8.25-13,22.47-20.91,36.67-25.53A92,92,0,0,1,702.37,563c9.83-1.83,19.26-4.93,28.77-7.95s19.48-4.83,29.49-3.15c3.71.62,7.34,1.64,11,2.56a119.66,119.66,0,0,0,13.78,2.66c6.43.84,12.91,1.21,19.33.08,4.87-.86,9.58-2.53,14.36-3.79a170,170,0,0,1,25.75-4.5,189,189,0,0,1,31-1,87.08,87.08,0,0,1,19.33,3.16c2.27.67,4.49,1.45,6.68,2.34.18.08.79.34.27.11l.67.29c1.15.5,2.28,1,3.41,1.59a62.71,62.71,0,0,1,6.52,3.73,34.9,34.9,0,0,1,12,13c4,7.69,5,16.68,5.18,25.24a114.74,114.74,0,0,1-2.75,28.08c-2,8.84-4.89,17.47-7.28,26.21a282.42,282.42,0,0,0-7.22,34c-1.6,10.95-2.49,22-3.32,33a470.18,470.18,0,0,0-.79,59.23q.47,9,1.27,18l4.27-1.76c.29.33-.08-.11-.17-.25l-.5-.73a9.16,9.16,0,0,0-1.72-1.9c-1.7-1.36-4-1.54-6-2q-6.88-1.4-13.79-2.68-14.08-2.59-28.27-4.66t-28.25-3.56c-9.42-1-18.87-1.84-28.35-2-16.3-.19-32.45,2.49-48.38,5.7q-13.45,2.71-26.76,6.16c-7.85,2-15.59,3.46-23.75,3.23a83.41,83.41,0,0,1-21.85-4c-5.85-1.75-12.13-3.45-17.15-7.09-.13-.09.25.22-.11-.09-.14-.11-.28-.22-.41-.34s-.52-.49-.77-.76-.4-.57-.16-.17c-.12-.19-.26-.37-.37-.56-1.44-2.5-.76-5.61,0-8.24a60.51,60.51,0,0,0,1.86-6.83,54.8,54.8,0,0,0,.69-6.38,143.19,143.19,0,0,0-.28-16.18c-.46-8-1.13-16-1.77-24-1.17-14.65-2.61-29.24-7.18-43.29-1.69-5.2-3.86-10.2-5.91-15.26a93.08,93.08,0,0,1-5-16.32c-2.69-13.14-4.53-27-.55-40.07a45.6,45.6,0,0,1,4.93-10.82c1.7-2.75-2.62-5.26-4.31-2.53-8.34,13.45-9,29.33-6.71,44.58a125.22,125.22,0,0,0,3.73,17.79c1.54,5,3.63,9.87,5.62,14.74a138.67,138.67,0,0,1,9.39,39.06c.82,8.35,1.42,16.73,2,25.1.51,6.65,1,13.32,1.13,20,0,2.48,0,5-.11,7.44-.06,1-.14,2-.25,3,0,.23,0,.46-.08.68s0-.25,0,.22-.15,1-.25,1.48c-1.16,6.07-4.63,12-1.37,18.1,1.65,3.09,5.09,5,8.13,6.48a106.38,106.38,0,0,0,21.19,7,76.21,76.21,0,0,0,24.68,1.88c8.15-.73,16-3.1,23.88-5,16.12-3.92,32.54-7.37,49.06-9.06,18.61-1.9,37.38.16,55.86,2.4q28.53,3.45,56.73,9.15l3.31.68a10.07,10.07,0,0,1,2.62.59c1,.51,1.49,1.88,2.19,2.68,1.38,1.56,4.46.38,4.27-1.77a464.46,464.46,0,0,1-1.25-65.57c1.14-21.57,3-43.2,7.84-64.3,4.25-18.67,11.61-36.73,13.15-55.94,1.32-16.56.6-36.11-11.48-48.9-5.43-5.76-12.66-9.68-19.91-12.66a73.36,73.36,0,0,0-15.52-4.35,130.55,130.55,0,0,0-25.45-1.51,223.34,223.34,0,0,0-33.33,3.4c-6.37,1.16-12.57,2.86-18.79,4.63a64.73,64.73,0,0,1-6.7,1.63l-.91.15c-.16,0-1,.13-.37.06-.61.07-1.22.14-1.83.19-1.38.12-2.77.16-4.15.16-8.55,0-17-1.7-25.19-3.82s-16.56-3.42-25.21-2.5c-11.92,1.26-23,6.37-34.55,9.28-3.65.92-7.31,1.78-11,2.44-1.93.34-3.87.62-5.76,1.08a94.3,94.3,0,0,0-14.73,5.19,74.49,74.49,0,0,0-21.07,13.49,54.38,54.38,0,0,0-8.82,10.62C648.07,591.47,652.39,594,654.11,591.27Z" transform="translate(-267.48 -262.12)"/><path class="cls-2" d="M619.88,266.52a124.17,124.17,0,0,1,40.64,25.38,670.61,670.61,0,0,1-47.66,78.43c1.24-9.38-5.35-18.42-13.67-22.93s-18.06-5.44-27.5-6.08A255.89,255.89,0,0,1,617,266.82" transform="translate(-267.48 -262.12)"/><path class="cls-2" d="M619.21,268.93a122,122,0,0,1,39.54,24.74l-.39-3a673.48,673.48,0,0,1-36.24,61.71q-5.58,8.44-11.42,16.72l4.66,1.26c.9-7.39-2.61-14.62-7.76-19.75-5.78-5.76-13.6-8.73-21.5-10.16a129.07,129.07,0,0,0-14.41-1.6L574.1,342a254.27,254.27,0,0,1,32.64-58.56q5.7-7.65,12-14.83a2.55,2.55,0,0,0,0-3.53,2.52,2.52,0,0,0-3.54,0,259,259,0,0,0-38,57.54q-4.29,8.86-7.88,18c-.64,1.62,1,3.07,2.41,3.17,13.55.93,29.95,2.88,36.87,16.41a17.42,17.42,0,0,1,1.8,10.1,2.5,2.5,0,0,0,1.83,2.41,2.6,2.6,0,0,0,2.83-1.15A675,675,0,0,0,653.1,311q4.92-8.85,9.57-17.85a2.55,2.55,0,0,0-.39-3,128.05,128.05,0,0,0-41.74-26,2.51,2.51,0,0,0-3.07,1.74,2.56,2.56,0,0,0,1.74,3.08Z" transform="translate(-267.48 -262.12)"/></g><g id="Слой_2" data-name="Слой 2"><path class="cls-1" d="M374.09,791.79c18.43-22.46,37.4-46,46.17-74.15a103.26,103.26,0,0,0,4.22-21.48c.67-7.63,0-15.29-5.2-21.28-4.22-4.83-10.59-7.2-16.82-7.85-6.79-.7-13.52,1.3-19.36,4.69-6.19,3.58-11.42,8.63-16.27,13.82-5.45,5.84-10.71,11.86-15.85,18q-15.62,18.59-29.46,38.59c-3.83,5.55-7.5,11.21-11.51,16.64-1,1.4-1.51,2-2.33,3.06-1,1.26-2,2.51-3.09,3.73a77.37,77.37,0,0,1-6.63,6.8c-.55.49-1.11,1-1.67,1.44l-1,.77c-.09.08-.75.57-.14.11a46.1,46.1,0,0,1-4,2.69,40.28,40.28,0,0,1-3.78,2l-.87.39c.76-.32,0,0-.12,0-.83.3-1.64.6-2.48.86a35.78,35.78,0,0,1-4.24,1c-.22,0-1.27.15-.37.06l-1.11.09c-1.59.19-.31.07-.31.07-.83-.26-.71-.14.35.36l.17.27-.24-.42c.14.36.15.37,0,0s-.22-.8-.31-1.21a15,15,0,0,1-.31-1.79,32.52,32.52,0,0,1,0-6.24c.59-7.3,3.86-14.94,7-21.78,3.51-7.67,7.09-15.31,10.64-23,7.23-15.6,14.54-31.17,21.7-46.81,5.76-12.59,9.77-25.93,14.15-39.05a388,388,0,0,0,12-42.44c3-14.3,5.2-29,5.16-43.66,0-9.63-.68-19.1.5-28.7,0-.33.08-.67.13-1-.11.77,0-.11,0-.22.13-.91.27-1.82.41-2.72.31-1.91.64-3.82,1-5.72.71-3.75,1.52-7.49,2.46-11.2a120.42,120.42,0,0,1,5.58-17.18c-.49,1.16.2-.45.33-.72.22-.5.44-1,.68-1.48.47-1,1-2,1.5-3,.83-1.55,1.73-3.07,2.71-4.54.41-.62.83-1.22,1.26-1.81l.35-.46c.39-.54-.39.4-.38.48,0-.16.56-.71.66-.83.75-.9,1.53-1.78,2.34-2.62a59.35,59.35,0,0,1,14.1-10.59c2.61-1.47,5.3-2.8,8-4l2-.85c-1,.41.3-.13.65-.27l3.24-1.29a98,98,0,0,1,29.95-7,93.19,93.19,0,0,1,15.22.26l2,.22c1.59.19-.54-.08.42.06l1.27.19c1.67.26,3.34.58,5,.94a83.87,83.87,0,0,1,10.32,3,77.22,77.22,0,0,1,33.38,23.77c.42.51.84,1,1.24,1.53l.53.67c-.62-.8-.05-.07.1.14.69.94,1.38,1.88,2,2.84q1.73,2.51,3.28,5.12c1,1.73,3.61,3.11,5.64,2.3a93.4,93.4,0,0,1,18.09-5.17q1.66-.3,3.33-.54c-.79.12.43,0,.66-.08l2-.22q3.76-.35,7.56-.38a69.84,69.84,0,0,1,15.53,1.57,74.46,74.46,0,0,1,8.44,2.39c1.36.48,2.69,1,4,1.55.71.29.22.13-.25-.11.33.17.7.3,1,.45a72.81,72.81,0,0,1,9.11,4.73,49.43,49.43,0,0,1,10.2,8.07,52.79,52.79,0,0,1,9.46,13,54.81,54.81,0,0,1,4.83,13.4c.24,1,.46,2.11.65,3.17.1.55.19,1.11.27,1.66,0,.24.07.47.11.71-.08-.52-.05-.37,0,.06.24,2,.41,4.06.5,6.1.13,3.19.06,6.38-.12,9.56-.11,2-.26,4-.49,6.06-.12.94-.22,1.61-.44,2.89s-.46,2.53-.74,3.79a80.83,80.83,0,0,1-4.34,13.65c.31-.72-.15.33-.24.55-.22.5-.45,1-.68,1.49-.45,1-.91,1.91-1.39,2.85q-1.37,2.67-2.9,5.23c-1.74,2.89-3.66,5.63-5.65,8.34-.54.72.67-.85-.08.1l-.56.7c-.43.55-.87,1.08-1.32,1.62-.68.81-1.37,1.61-2.07,2.39a85.07,85.07,0,0,1-19.34,16.4c-2.69,1.67-5.52,3.09-8.18,4.81a121,121,0,0,0-15,11.7c-6.57,5.86-12.73,12.18-18.7,18.66-8.31,9-16.24,18.41-24,27.94-10.56,13-20.75,26.37-30.73,39.86-12.69,17.14-25,34.54-37.17,52.08q-5.13,7.44-10.23,14.9c-1.52,2.23-.42,5.54,1.79,6.84a5.11,5.11,0,0,0,6.85-1.8c12.9-18.9,26-37.66,39.47-56.17q8.43-11.58,17.06-23c1.32-1.73,2.63-3.46,4-5.19l1.79-2.34,1-1.25-.1.13.68-.87q3.66-4.71,7.36-9.39c8.23-10.36,16.67-20.58,25.51-30.43,6.33-7.06,12.87-14,19.82-20.41,2.63-2.44,5.32-4.82,8.1-7.08l1.83-1.46c1-.78-.92.7-.06,0l.93-.7c1.09-.82,2.2-1.61,3.32-2.37,2.08-1.42,4.24-2.67,6.44-3.9a97.77,97.77,0,0,0,44.06-52.67,92.32,92.32,0,0,0,4.57-26.84,78.37,78.37,0,0,0-3-25.31,63.51,63.51,0,0,0-17.92-28.59,71.85,71.85,0,0,0-20.31-12.79A82.44,82.44,0,0,0,537,475.1a95.47,95.47,0,0,0-26.47,4.25c-2.37.73-4.72,1.56-7,2.48l5.64,2.3a91.74,91.74,0,0,0-23.05-25.93A88.08,88.08,0,0,0,443.41,441c-21.74-2.76-43.57,2.54-63,12.33-9.16,4.61-17.7,10.8-23.9,19.05-5.5,7.32-8.93,16.16-11.56,24.85a157.16,157.16,0,0,0-7.05,40.56c-.28,9.88.62,19.71-.11,29.59a245.2,245.2,0,0,1-8.26,45.77c-3.67,13.59-8.34,26.85-12.75,40.21-2.08,6.31-4.13,12.63-6.68,18.77-3.15,7.6-7,15.28-10.49,22.86l-22,47.44c-3.53,7.59-7.24,15.29-9,23.52a43.32,43.32,0,0,0-1.06,12.22c.3,4.2.91,9.14,4.54,11.83s8.19,1.82,12.2.9a40.67,40.67,0,0,0,9.25-3.43,56.62,56.62,0,0,0,15-11.52c9.68-10,16.84-22.19,24.85-33.51q13.86-19.58,29.58-37.7c5-5.79,10.07-11.65,15.6-17,4.74-4.57,10-8.65,16.23-10.28.58-.15,1.16-.28,1.75-.39,0,0,1.42-.2.66-.11s.71,0,.68,0a28.29,28.29,0,0,1,4.51.08c-1-.09.54.09.89.16.73.15,1.45.33,2.17.54.56.17,1.12.37,1.67.58-.92-.34,0,0,.21.1.46.23.91.45,1.35.7s1,.62,1.46.93c1.14.73-.44-.4.17.13.27.23.54.46.8.7.41.4.79.82,1.17,1.24.9,1-.32-.5.13.17.24.36.47.72.69,1.09,1.44,2.52,1.67,5.5,1.55,9-.44,13.4-4.94,27.44-10.9,39.48-6.49,13.11-14.9,25.21-23.83,36.76-1.71,2.2-4.07,5.18-6.06,7.65q-3.44,4.26-6.91,8.49c-1.71,2.09-2,5,0,7.07,1.76,1.77,5.35,2.1,7.07,0Z" transform="translate(-267.48 -262.12)"/><path class="cls-1" d="M365.39,688.7q-6.43,9.7-12.89,19.39c-1.71,2.56-3.44,5.09-5,7.71a126.4,126.4,0,0,0-8.37,16.13,77.17,77.17,0,0,0-3.88,10.93c-.92,3.56-2.08,8-.67,11.55,2.19,5.53,8.91,7.18,14.21,5.52,4.68-1.46,9-4.19,13-6.93a222.66,222.66,0,0,0,22.92-18.4c8.87-8,18.1-16.1,27.34-23.1q2.89-2.19,5.82-4.32c1.69-1.23,2.69-3.53,1.44-5.47-1.08-1.67-3.67-2.75-5.48-1.44a379.27,379.27,0,0,0-33.39,27.41q-3.15,2.9-6.41,5.68-2.73,2.34-5.52,4.61c-1,.84-2,1.66-3.09,2.48l-.74.58c-.79.62.41-.31-.16.12l-1.73,1.32a90.62,90.62,0,0,1-12.69,8.28c-.48.25-1,.48-1.44.71l-.66.29c-.37.18.56-.21.5-.21a2.82,2.82,0,0,0-.45.18,17,17,0,0,1-2.51.8,5.17,5.17,0,0,1-.54.11c-.75.17.52,0,.41,0a6.59,6.59,0,0,0-1.09,0c-.51.06.82.22-.08,0-.42-.11-.84-.25-1.26-.34s.48.33.06,0c-.11-.08-.26-.13-.38-.2s-.3-.19-.45-.27c-.6-.32.45.46.2.18,0,0-.65-.59-.62-.61-.15.12,1.06,1.05.39.47,0,0-.18-.35-.19-.35s.29,1,.14.3c-.08-.34-.1-1.23-.15-.43,0-.47,0-.93,0-1.4s.17-1.29,0-.43q.09-.65.21-1.29a56.07,56.07,0,0,1,2.88-10c.29-.77.6-1.54.91-2.31s.07-.17,0,0c.1-.22.19-.43.28-.65l.57-1.28q1-2.31,2.19-4.59c1.3-2.58,2.69-5.12,4.15-7.62,4.67-8,10.12-15.54,15.24-23.24l3.88-5.85a4,4,0,0,0-1.43-5.47,4.11,4.11,0,0,0-5.48,1.43Z" transform="translate(-267.48 -262.12)"/><path class="cls-1" d="M460.11,733.45c-.81,6.69-1.87,13.39-2.4,20.1-.39,5-.1,10.76,3,15a12.52,12.52,0,0,0,7.23,5,15.12,15.12,0,0,0,9.85-1.32c5.68-2.69,8.87-8.4,11.26-13.92a66.29,66.29,0,0,1,4.58-8.71c4.75-7.72,9.25-15.59,13.7-23.48q14.64-26,28.61-52.38a345.11,345.11,0,0,1,28-43.72c1.21-1.64,2.44-3.26,3.68-4.88s.31-4.55-1.44-5.48c-2.11-1.11-4.11-.35-5.47,1.44q-9,11.78-17.1,24.21c-4.62,7.1-9.15,14.3-13.18,21.75-8.61,15.92-17.12,31.89-25.92,47.71-5.33,9.56-10.69,19.12-16.38,28.47a84.68,84.68,0,0,0-4.67,8c-.8,1.7-1.47,3.45-2.27,5.15a35.52,35.52,0,0,1-1.92,3.67,13.14,13.14,0,0,1-2.36,3.1c-.23.23-.46.46-.7.67s-.77.6-.21.19a14.62,14.62,0,0,1-1.59,1c.05,0-1.05.51-.54.28s-.61.22-.56.2c-.3.1-.59.18-.89.26s-1.44.19-.56.13a13.52,13.52,0,0,1-1.8,0c.75.05.18,0,0,0-.35-.11-.69-.18-1-.3.64.23.09,0-.05-.05l-.82-.49c-.61-.39,0,0,.07.06l-.86-.86c-.18-.18-.32-.56.06.1-.15-.26-.34-.5-.49-.77s-.19-.36-.29-.53c-.51-.86.23.77-.09-.19-.17-.5-.34-1-.48-1.51-.05-.21-.1-.42-.14-.63s-.27-1.61-.13-.57c-.7-5.44.45-11.06,1.1-16.45l1.23-10.12c.26-2.08-2-4.08-4-4-2.38.11-3.72,1.77-4,4Z" transform="translate(-267.48 -262.12)"/><path class="cls-1" d="M344.56,507.56c-1.41.11-2.83.16-4.24.13-1,0-1.92-.08-2.87-.19-.32,0-1.08.07-.06,0a4.19,4.19,0,0,1-.85-.14c-.57-.1-1.15-.22-1.72-.36s-1.14-.31-1.7-.5l-.56-.2c-.95-.31.76.39-.14-.05-.53-.26-1.06-.52-1.57-.83l-.5-.32-.48-.34c.42.33.46.35.12.07a14.11,14.11,0,0,0-1.16-1.16c-.42-.32.47.75,0,0-.09-.15-.2-.29-.29-.45s-.32-.57-.48-.86a2.09,2.09,0,0,0-.19-.4c.63.84.24.59.08.09-.1-.3-.18-.6-.26-.91s-.07-.38-.11-.57c-.17-.81.21.07,0,.26.09-.09-.07-.88-.07-1.05,0-.53,0-1.06,0-1.59a6.49,6.49,0,0,0,.12-1.23c.11.92-.07.48,0,0l.15-.81a35.89,35.89,0,0,1,.92-3.53c.39-1.25.83-2.49,1.31-3.71.09-.24.19-.48.29-.72,0,0,.5-1.2.22-.54.39-.94.81-1.86,1.24-2.78q2.11-4.54,4.57-8.93a154.08,154.08,0,0,1,10.26-16c.81-1.12,1.64-2.23,2.49-3.32l.27-.35.67-.85c.44-.56.89-1.11,1.34-1.66q2.4-2.94,4.93-5.78a192.29,192.29,0,0,1,15.28-15.07c9.11-8.18,18.24-16.36,27.8-24,1.09-.88,2.18-1.74,3.29-2.6l.39-.3.6-.47,2.12-1.6q3.49-2.62,7.09-5.14,7.31-5.09,15-9.6a247.72,247.72,0,0,1,67.23-27q4.72-1.15,9.5-2.07c1-.19,1.94-.36,2.91-.53,2.53-.44,5.55-.9,7.71-1.18a224.92,224.92,0,0,1,37.59-1.76q3.66.14,7.3.39a4,4,0,0,0,4-4,4.11,4.11,0,0,0-4-4,222.59,222.59,0,0,0-62.49,4.36A256.67,256.67,0,0,0,429.74,379c-21.91,12-41,27.88-59.5,44.45-5.89,5.26-11.77,10.49-17.15,16.27a167.78,167.78,0,0,0-21,27.74,129.3,129.3,0,0,0-9.59,19c-1.73,4.33-3.31,9.23-2.93,14a15.05,15.05,0,0,0,6.53,11.45c4.05,2.87,9.41,3.72,14.25,3.84,1.41,0,2.83,0,4.24-.13,2.08-.17,4.1-1.72,4-4-.09-2-1.77-4.19-4-4Z" transform="translate(-267.48 -262.12)"/><path class="cls-1" d="M386.18,459.85q16.26-15.51,33.72-29.66a274.59,274.59,0,0,1,26.57-19.4q7.36-4.62,15-8.76c2.88-1.55,5.78-3.07,8.75-4.42l1.4-.62c.53-.23.66-.34.05,0,.25-.13.53-.22.79-.33,1.07-.44,2.15-.86,3.23-1.26a198.27,198.27,0,0,1,33.92-8.9q5.25-1,10.53-1.73l2.44-.35.82-.11.29,0,.3,0,.83-.11q2.86-.37,5.73-.69,12.25-1.38,24.58-2,3.26-.15,6.53-.26a4,4,0,0,0,0-8,380.44,380.44,0,0,0-48.82,4.66,220.5,220.5,0,0,0-35.94,8.63c-11.45,3.93-22,9.79-32.33,16.08a272.18,272.18,0,0,0-26.76,19.13q-16.81,13.32-32.5,28-2.41,2.25-4.8,4.53a4,4,0,0,0,0,5.66,4.08,4.08,0,0,0,5.65,0Z" transform="translate(-267.48 -262.12)"/><path class="cls-1" d="M558.38,629.75c5.43,7.14,13.21,13.81,22.72,13.7,5.77-.07,11.24-2.93,15.8-6.25,10.2-7.44,18.41-17.61,25.54-27.93a172,172,0,0,0,17.67-33.18A215.18,215.18,0,0,0,653.69,522a126.42,126.42,0,0,0,.62-27.29c-1.14-12.33-4.24-24.17-8.31-35.82a671.91,671.91,0,0,0-31.53-74.61c-1.21-2.46-2.42-4.91-3.65-7.35a4,4,0,0,0-6.91,4,686.64,686.64,0,0,1,30.54,69.38c4.14,11.15,8.2,22.42,10.42,34.14a110.22,110.22,0,0,1,1.88,17.08c.13,3.56.06,7.12-.15,10.68a183.33,183.33,0,0,1-3.8,26.71,206.13,206.13,0,0,1-6.66,24.92c-.82,2.44-1.7,4.86-2.62,7.27-.46,1.19-.94,2.38-1.42,3.56l-.45,1.09c0,.09-.3.7,0,.13l-1,2.19a169.3,169.3,0,0,1-8,15.91,138.88,138.88,0,0,1-23.08,30.5c-1.77,1.73-3.62,3.4-5.56,5-.13.11-1,.75-.17.14l-.47.36-1.16.84c-.78.55-1.58,1.07-2.4,1.57s-1.39.81-2.1,1.18l-.94.46-.45.21c-.84.4.42-.15.17-.06a31.86,31.86,0,0,1-3.31,1.06c-.42.1-.86.13-1.28.24,1.62-.41.27,0-.27,0s-1.2,0-1.8,0l-.33,0c.69.07-.17,0-.33-.07-.33-.06-.65-.12-1-.2-.64-.15-1.26-.34-1.88-.55,0,0-1.22-.48-.47-.16-.35-.15-.69-.32-1-.48a25.22,25.22,0,0,1-3.19-1.92c-.06,0-1-.77-.35-.24l-.55-.45c-.54-.44-1.07-.91-1.57-1.39-.8-.75-1.56-1.53-2.29-2.35-.36-.41-.72-.83-1.07-1.26l-.44-.55c-.61-.74.52.69,0,0-1.31-1.72-3.45-2.62-5.48-1.43-1.69,1-2.75,3.74-1.43,5.47Z" transform="translate(-267.48 -262.12)"/><path class="cls-1" d="M606.07,575.19a139,139,0,0,0,13.7-31.91,109.4,109.4,0,0,0,3.71-41.23c-1-9.09-3.53-17.88-6.19-26.6-3.55-11.61-7.42-23.13-11.53-34.56q-7.56-21-16.26-41.64c-.87-2.06-1.74-4.11-2.63-6.17s-3.81-2.51-5.47-1.43c-2,1.29-2.32,3.4-1.43,5.47,5.76,13.43,11.3,27.38,16.4,41.27q6,16.44,11.31,33.12c3,9.55,6.18,19.24,7.64,29.18.16,1.07-.11-.9,0,.16,0,.37.09.74.13,1.11.09.85.17,1.7.24,2.54a98.47,98.47,0,0,1,.3,11.39c0,1.83-.15,3.66-.3,5.48-.07.86-.16,1.72-.25,2.58s-.24,2.07-.29,2.42c.06-.37,0,.31,0,.31l-.09.62c-.06.41-.13.83-.2,1.24-.14.89-.29,1.77-.46,2.66q-.46,2.49-1,5a122.14,122.14,0,0,1-5.76,18c-.13.33-.26.66-.4,1-.06.16-.13.33-.2.49,0-.06.25-.58.07-.16-.3.68-.59,1.37-.9,2-.56,1.26-1.14,2.52-1.74,3.76-1.12,2.3-2.29,4.58-3.53,6.82-.56,1-1.13,2-1.72,3a4,4,0,1,0,6.91,4Z" transform="translate(-267.48 -262.12)"/><path class="cls-1" d="M602.71,366.33c0,.59,0,1.17-.06,1.75,0,.15,0,.95-.1,1,.29-.24.16-1.05,0-.14a22.8,22.8,0,0,1-.83,3.45c-.1.31-.21.63-.32.94s-.24,1.1-.12.34,0,.12-.14.31l-.36.75a31.33,31.33,0,0,1-1.87,3.09c-.3.45-.19.76.09-.09-.07.21-.37.46-.51.63-.35.42-.72.83-1.1,1.22s-.84.85-1.29,1.25l-.49.43-.51.42c-.33.27-.34.27,0,0,.69-.29-.13.09-.28.19l-.69.46c-.5.33-1,.64-1.55.93s-1,.52-1.47.75a2.48,2.48,0,0,1-.61.27c.69-.29.78-.33.27-.13l-.46.18a25,25,0,0,1-3.41.95l-.67.12-.33.06.3,0c-.19.25-1.76.13-2.08.14-.58,0-1.17,0-1.75,0-.3,0-1.59.07-1.73-.13,0,0,1.28.21.3,0l-1-.18c-.67-.14-1.32-.3-2-.49s-1.07-.33-1.59-.52a3.5,3.5,0,0,1-.62-.24l.58.25-.61-.27a23.85,23.85,0,0,1-3.16-1.77l-.55-.37-.26-.19c-.43-.31-.36-.25.22.2-.4-.13-1-.79-1.25-1.06a24.36,24.36,0,0,1-2.49-2.59,2.62,2.62,0,0,1-.41-.51l.38.49c-.13-.18-.26-.35-.38-.53q-.48-.68-.9-1.38c-.28-.47-.55-1-.8-1.44-.13-.24-.25-.49-.37-.74l-.21-.45c-.21-.5-.17-.4.12.28-.21-.08-.51-1.39-.56-1.57-.17-.54-.33-1.08-.46-1.62s-.25-1.11-.35-1.66c0-.21,0-1.13-.06-.36s0-.5,0-.71a25.55,25.55,0,0,1,0-3.5c0-.29.06-.57.08-.86.05-.75-.23,1.27,0,.14.12-.67.24-1.34.4-2s.28-1.09.46-1.62c.06-.2.37-1.49.56-1.57-.28.12-.44.94,0,.12l.36-.74c.29-.59.61-1.17.95-1.74s.58-.92.9-1.37c.1-.16.48-1,.19-.29s.08-.09.22-.26a23.54,23.54,0,0,1,2.49-2.6,5.41,5.41,0,0,1,1.25-1.05l-.49.38.53-.38.55-.37a23.85,23.85,0,0,1,3.16-1.77l.3-.13c.5-.22.41-.18-.27.11a3.74,3.74,0,0,1,.62-.24c.52-.19,1-.36,1.59-.52s1.08-.29,1.63-.41c.34-.07.67-.14,1-.19l.5-.09-.47.07c.16-.2,1.41-.12,1.73-.14.58,0,1.17,0,1.75,0s1.16.08,1.74.11c1.21.08-1.15-.2,0,0,.33.06.67.11,1,.18a30.1,30.1,0,0,1,3.87,1.12c1.06.37-.76-.39-.11-.06.34.18.7.32,1.05.49.59.3,1.16.61,1.73.95s1.1.72,1.64,1.09.41,0-.22-.19a3.76,3.76,0,0,1,.88.73,24.65,24.65,0,0,1,2.65,2.66,3.23,3.23,0,0,1,.62.77c-.41-.54-.51-.66-.28-.36.09.13.19.26.28.4.38.54.73,1.09,1.07,1.66s.64,1.15.93,1.74c.12.25.22.51.34.76s.09.2-.18-.43l.24.62a25.19,25.19,0,0,1,1.07,3.89c0,.23.07.45.11.68.08.55.07.45,0-.31,0,.23.05.46.07.69.06.69.09,1.39.09,2.09a5,5,0,0,0,10,0,29.71,29.71,0,0,0-19.59-27.63A29.33,29.33,0,0,0,561,347.57a30.2,30.2,0,0,0-6.74,16.67,29,29,0,0,0,4.08,17.16A29.68,29.68,0,0,0,589.56,395c13.41-2.7,23.05-15.13,23.15-28.64a5,5,0,1,0-10,0Z" transform="translate(-267.48 -262.12)"/><path class="cls-1" d="M572.16,350.27q.9-2.24,1.82-4.45c.08-.18.38-.89,0,0l.51-1.2,1-2.41q1.86-4.2,3.85-8.34,4-8.37,8.61-16.47a280.39,280.39,0,0,1,20.54-31.21l.53-.69.56-.72q.79-1,1.62-2.07,1.62-2.06,3.29-4.08c2.22-2.71,4.5-5.36,6.82-8,1.74-2,2.07-5.17,0-7.07-1.9-1.74-5.22-2.09-7.07,0a284.69,284.69,0,0,0-42.77,63.67c-3.27,6.67-6.25,13.48-9,20.38-1,2.44,1.06,5.6,3.49,6.15,2.89.66,5.11-.88,6.15-3.49Z" transform="translate(-267.48 -262.12)"/><path class="cls-1" d="M611.68,381.44l39.86-63.57,11.25-17.95a5,5,0,0,0-1.79-6.84,5.1,5.1,0,0,0-6.84,1.79L614.3,358.45,603.05,376.4a5,5,0,0,0,1.79,6.84,5.1,5.1,0,0,0,6.84-1.8Z" transform="translate(-267.48 -262.12)"/><path class="cls-1" d="M579.42,342v48.58a4,4,0,0,0,8,0V342a4,4,0,0,0-8,0Z" transform="translate(-267.48 -262.12)"/><path class="cls-1" d="M420.54,546.25c0,.52,0,1-.06,1.57,0,.14,0,.79-.08.86s.22-1.28,0-.31a23.18,23.18,0,0,1-.71,3c-.09.28-.33,1.4-.57,1.57,0,0,.53-1.13.1-.28-.1.19-.19.4-.28.59a28.05,28.05,0,0,1-1.62,2.68l-.09.13c-.32.43-.26.36.19-.22a3,3,0,0,1-.41.5c-.29.34-.58.66-.88,1s-.69.69-1.05,1l-.62.54c-.15.12-.92.59-.26.22s-.18.12-.28.19l-.55.37c-.37.23-.74.46-1.12.68s-1,.5-1.47.75.09.16.28-.1c-.13.17-.75.29-.93.35a20.15,20.15,0,0,1-2.76.77l-.67.13c-.91.16-.07.26.14,0-.17.22-1.42.12-1.73.13a29.59,29.59,0,0,1-3-.11c-.74-.05,1.27.24.14,0-.22,0-.45-.08-.67-.12-.55-.11-1.1-.24-1.64-.4s-.86-.26-1.28-.41c-.26-.09-.52-.21-.78-.29-.68-.21,1.11.55.13,0a28.36,28.36,0,0,1-2.59-1.43l-.55-.37c-.1-.07-1-.59-.28-.19s-.15-.13-.27-.22l-.49-.43a21.59,21.59,0,0,1-2-2.12c-.1-.11-.61-.95-.22-.26s0,0-.1-.15c-.27-.41-.55-.81-.81-1.24s-.44-.75-.65-1.14-.24-.5-.37-.74-.14-.3-.2-.45q.39.95.18.42c-.31-.9-.65-1.78-.88-2.7-.12-.5-.23-1-.31-1.5,0-.21-.05-.93,0-.18s0-.36,0-.54a22.64,22.64,0,0,1,0-3c0-.29.06-.58.08-.87,0-.69-.18,1-.05.31s.22-1.22.37-1.83a25.23,25.23,0,0,1,.82-2.55c.37-1-.42.73-.06.12.14-.23.24-.5.36-.75.25-.49.52-1,.8-1.44s.47-.74.72-1.1a3.3,3.3,0,0,1,.38-.53c-.26,0-.68.8-.07.11a25.22,25.22,0,0,1,2.15-2.24c.22-.2.72-.82,1-.84l-.49.38.4-.29.54-.37a28,28,0,0,1,2.73-1.53c.84-.42-.27.09-.28.11.09-.14.61-.24.77-.3.48-.17.95-.33,1.44-.46s.87-.24,1.31-.33l.67-.13.67-.11-.65.08c1,.12,2.13-.16,3.14-.12.47,0,.93.06,1.39.09,1.16.07-.87-.17-.13,0l.84.15a22.13,22.13,0,0,1,3.38,1c.23.08.75.44.18.06s.28.14.45.23c.5.24,1,.51,1.45.79s1,.65,1.51,1,0-.17-.22-.19c.19,0,.62.51.75.62a23,23,0,0,1,2.3,2.33,3.39,3.39,0,0,1,.41.51c-.41-.54-.51-.66-.29-.36l.29.4c.31.45.61.91.88,1.39s.54,1,.78,1.45a4.24,4.24,0,0,1,.28.6q-.42-1-.12-.27l.12.31a21.25,21.25,0,0,1,.92,3.23c.05.28.09.56.15.84s0,.23-.07-.48c0,.17,0,.35.05.52q.09,1,.09,1.92a5,5,0,0,0,10,0,26.48,26.48,0,0,0-17.4-24.6,26.14,26.14,0,0,0-28.57,7.72,27,27,0,0,0-6.14,15.13,25.77,25.77,0,0,0,3.66,15.2,26.43,26.43,0,0,0,27.81,12.06c12-2.38,20.54-13.48,20.64-25.51a5,5,0,0,0-10,0Z" transform="translate(-267.48 -262.12)"/><circle class="cls-7" cx="136.97" cy="284.13" r="5.14"/><path class="cls-1" d="M507.86,582.09c0,.53,0,1-.06,1.58,0,.14,0,.79-.08.86s.21-1.28,0-.31a25,25,0,0,1-.72,3c-.09.28-.32,1.4-.57,1.57,0,0,.54-1.13.11-.29l-.29.6a26,26,0,0,1-1.61,2.68l-.09.13c-.32.43-.26.35.19-.23a3.17,3.17,0,0,1-.42.51c-.28.33-.57.66-.87,1s-.69.7-1.06,1c-.2.19-.4.37-.61.54s-.92.6-.26.22-.19.13-.29.2l-.54.36c-.37.24-.75.47-1.13.69s-1,.5-1.47.75.09.15.29-.11c-.13.18-.75.29-.94.36a20.42,20.42,0,0,1-2.75.77l-.67.13c-.91.15-.08.26.14,0-.17.21-1.42.12-1.73.13a29.37,29.37,0,0,1-3-.11c-.75-.05,1.27.24.14,0L489,598q-.83-.16-1.65-.39c-.43-.12-.85-.26-1.27-.41-.26-.09-.52-.21-.78-.29-.68-.22,1.11.54.13,0a26.38,26.38,0,0,1-2.6-1.44l-.54-.36c-.1-.07-1-.6-.29-.2s-.14-.12-.26-.22l-.49-.43a20.43,20.43,0,0,1-2.05-2.11c-.1-.12-.61-.95-.22-.26s0,0-.1-.15c-.28-.41-.56-.82-.81-1.24s-.45-.76-.65-1.15-.24-.49-.37-.74l-.21-.45c.26.64.32.78.18.43-.31-.9-.64-1.78-.87-2.71-.12-.49-.23-1-.32-1.49,0-.21-.05-.93,0-.18s0-.37,0-.54a21.17,21.17,0,0,1,0-3c0-.28,0-.57.07-.86,0-.7-.17,1,0,.31s.22-1.23.37-1.83c.22-.88.51-1.71.81-2.56.37-1-.42.73-.05.13.14-.23.24-.51.36-.75.25-.49.51-1,.8-1.44s.46-.74.71-1.1c0,0,.33-.53.39-.53-.26,0-.68.8-.08.11a24.08,24.08,0,0,1,2.16-2.24c.22-.2.71-.83,1-.85l-.49.39.39-.29.55-.37a25.1,25.1,0,0,1,2.73-1.53c.84-.43-.27.08-.29.11.1-.14.61-.24.78-.3.47-.18.95-.33,1.43-.47s.88-.23,1.32-.32l.66-.14.68-.11-.65.09c1,.12,2.13-.16,3.14-.13.46,0,.92.07,1.39.09,1.15.07-.87-.16-.14,0,.28,0,.56.09.84.15a21.9,21.9,0,0,1,3.39,1c.23.09.74.45.17.06s.29.15.46.23c.49.25,1,.51,1.45.79s1,.66,1.51,1,0-.17-.23-.19c.2,0,.62.51.76.63a21.9,21.9,0,0,1,2.29,2.33c.08.1.41.42.42.51-.42-.54-.51-.66-.29-.36l.29.4c.31.45.6.91.88,1.38s.54,1,.78,1.46a4.24,4.24,0,0,1,.28.6c-.29-.69-.32-.78-.12-.28l.12.31a20.54,20.54,0,0,1,.91,3.24c.06.28.1.56.15.84s0,.22-.06-.48c0,.17,0,.34,0,.52.06.63.08,1.27.09,1.91a5,5,0,0,0,10,0,26.48,26.48,0,0,0-17.41-24.59,26.1,26.1,0,0,0-28.56,7.72,27,27,0,0,0-6.15,15.13,25.84,25.84,0,0,0,3.66,15.2,26.47,26.47,0,0,0,27.82,12.06c12-2.39,20.54-13.48,20.64-25.52a5,5,0,0,0-10,0Z" transform="translate(-267.48 -262.12)"/><path class="cls-1" d="M477.93,523.1c3.61-1.4,7.27-2.7,11-3.75q2.69-.75,5.41-1.34c.91-.19,1.83-.36,2.74-.52l1.19-.19.72-.1q-.67.09,0,0a71.35,71.35,0,0,1,8.77-.43c1.46,0,2.93.11,4.38.23.73.07,1.46.14,2.19.23.1,0,1.3.18.39,0l1.44.22a67.91,67.91,0,0,1,8.92,2.08c1.28.39,2.56.81,3.82,1.28.69.25,1.38.51,2.06.79.07,0,1.19.49.4.16l1.34.59a70.33,70.33,0,0,1,8.09,4.3q1.88,1.15,3.67,2.43c.49.35,1,.71,1.48,1.08l.35.27,1.14.91a67.73,67.73,0,0,1,7.4,7.07c.57.64,1.13,1.29,1.67,1.94l.7.86.45.57c-.25-.33-.24-.3,0,.06,1,1.39,2,2.78,2.91,4.23a4,4,0,1,0,6.91-4,71.28,71.28,0,0,0-28.62-25.57A72.22,72.22,0,0,0,501.22,509c-8.79.74-17.23,3.23-25.42,6.41-1.95.75-3.51,2.72-2.8,4.92.62,1.89,2.84,3.61,4.93,2.79Z" transform="translate(-267.48 -262.12)"/><path class="cls-1" d="M412.73,614.4c-1.41-.87-2.77-1.79-4.12-2.73-1-.68.83.7,0,0l-.47-.39c-.49-.41-1-.85-1.41-1.31-.21-.22-.71-1-1-1.11.47.13.71,1,.2.26-.08-.14-.18-.26-.27-.39A26.78,26.78,0,0,1,404,606a4.84,4.84,0,0,1-.42-.86s.44,1.2.12.25c-.24-.69-.42-1.39-.62-2.09-.34-1.18,0,1.06,0-.19,0-.39,0-.8,0-1.19-.08-1.21-.31.91,0-.3.11-.42.23-.85.35-1.27.33-1.24-.48.74.1-.21.15-.25.29-.51.44-.77s.58-.76-.07,0a10.61,10.61,0,0,1,.78-.86,3.72,3.72,0,0,1,.81-.73c-.08,0-.94.63-.18.18s1.23-.72,1.88-1c.9-.45-1.15.41-.26.11.2-.06.39-.14.59-.21s.67-.23,1-.33c.49-.13,1-.22,1.47-.32,1-.19-1.3.12-.27,0l1.11-.09a28.63,28.63,0,0,1,3.34,0c.66,0,1.32.11,2,.18,1.14.11-.89-.14-.14,0l1.23.19a69,69,0,0,1,9.07,2.22c1.49.46,3,1,4.43,1.49.82.3,1.63.6,2.45.92l1.23.49c.17.07,1.87.79.87.36A84.91,84.91,0,0,1,444,606.2a32.48,32.48,0,0,1,3.13,2.06c.23.17,1,.64.05,0a11.4,11.4,0,0,1,.93.76c.78.65,1.53,1.33,2.27,2s1.23,1.22,1.83,1.85a14,14,0,0,0,1.07,1.24c-.9-.76-.33-.43,0,0s.37.55.54.83.35.61.51.91.21.43.31.65l-.22-.52a6.82,6.82,0,0,1,.67,2.18l.08.39c.09.57.09.52,0-.13a3.72,3.72,0,0,1,0,1.25c0,.2-.17,1.59,0,.39-.05.27-.1.54-.16.8s-.19.74-.3,1.1l-.24.66q.45-1,.12-.33c-.23.44-.45.88-.71,1.3-.15.23-.8,1.32-.15.3a8.26,8.26,0,0,1-1.46,1.55l-.26.23c-.42.35-.34.3.22-.14-.14.27-.81.57-1.07.73q-.66.41-1.35.75c-.26.13-.56.22-.8.37,1.11-.69.61-.25.18-.09a19.49,19.49,0,0,1-2.58.75c-.47.1-.95.16-1.42.25,2.2-.41.75-.08.1-.08-.41,0-.81-.06-1.22-.06,1.91,0,1,.14.41,0-.37-.07-.73-.16-1.09-.25a53.49,53.49,0,0,1-6-2c-1.55-.59-3.09-1.21-4.63-1.84l-1.25-.52-1-.44q-1.47-.61-2.94-1.26a118.3,118.3,0,0,1-14.77-7.49,5.05,5.05,0,0,0-6.84,1.79,5.11,5.11,0,0,0,1.79,6.85,117.76,117.76,0,0,0,14.38,7.32c5.85,2.56,11.81,5.33,18,7.07a18.5,18.5,0,0,0,8.62.42,20.77,20.77,0,0,0,14-9.35,17.69,17.69,0,0,0,2.25-11.78,20.19,20.19,0,0,0-4.71-9.86c-4.51-5.52-10.58-9.26-17-12.18a99.67,99.67,0,0,0-21.52-7.43c-5.55-1.12-11.79-1.91-17.23.11a17.91,17.91,0,0,0-8.91,6.64,15.57,15.57,0,0,0-2.08,12c1.22,5.79,5.21,10.65,9.82,14.11,1.41,1,2.89,2,4.39,2.94a5,5,0,0,0,5.05-8.64Z" transform="translate(-267.48 -262.12)"/><path class="cls-1" d="M283.41,817.17A265.57,265.57,0,0,1,361.86,796c25.23-2.64,50.76-1.29,75.82,2.33a259.25,259.25,0,0,1,32.82,6.42c6,1.68,11.86,3.69,18.1,4.44a87.88,87.88,0,0,0,28.15-1.49c9.15-1.91,17.7-5.65,26.25-9.31,19.43-8.32,39.8-14.65,61-16.36a159.46,159.46,0,0,1,43.4,2.15c11.13,2.18,21.69,6,32.18,10.18,8.75,3.51,17.44,6.72,26.87,7.8a73.82,73.82,0,0,0,25.59-2c17.68-4.25,35.27-8.28,53.21-11.27,7.35-1.23,13.71-2.27,21.13-2,7.92.25,15.84,1,23.72,1.83,26.08,2.8,52,7.08,77.81,11.89q11.77,2.19,23.52,4.58c6.29,1.27,9-8.37,2.66-9.65-28.92-5.85-58-11-87.26-14.81-9.87-1.29-19.77-2.45-29.69-3.22a131.42,131.42,0,0,0-18.18-.59c-10.61.64-21.35,3.15-31.79,5.1-9.32,1.74-18.62,3.65-27.82,6-6,1.5-11.87,3.32-18,4.08A62.59,62.59,0,0,1,693,788.82c-9.24-3.17-18.1-7.32-27.41-10.3a155,155,0,0,0-42.49-7,184.26,184.26,0,0,0-68.7,11.55c-9.29,3.39-18.19,7.72-27.44,11.17a83.82,83.82,0,0,1-28.31,5.36c-2.19,0-4.39,0-6.58-.12-1.79-.11-3.15-.26-3.91-.39a76.25,76.25,0,0,1-8.18-2,233.64,233.64,0,0,0-26.86-6.42c-26.25-4.57-53.09-7.18-79.73-5.63a268,268,0,0,0-72.55,14.61c-7.61,2.65-15.09,5.66-22.47,8.89-2.49,1.09-3,4.69-1.8,6.84,1.47,2.57,4.39,2.87,6.85,1.79Z" transform="translate(-267.48 -262.12)"/><path class="cls-1" d="M669.32,783.62a355.65,355.65,0,0,0,2.44-55.93,189,189,0,0,0-5.39-38.82,115.15,115.15,0,0,0-4.27-13.31c-.8-2.06-1.67-4.08-2.56-6.09-.13-.31-.26-.61-.4-.91.9,2,.29.69.09.2s-.31-.77-.46-1.16A145.8,145.8,0,0,1,653.15,650q-1.67-6.48-2.78-13.09c-.19-1.12-.36-2.25-.52-3.38-.05-.31-.09-.62-.14-.92.14.92,0,.11,0-.07-.09-.7-.18-1.41-.26-2.12-.28-2.46-.5-4.94-.64-7.41-.13-2.25-.19-4.51-.14-6.77,0-1.09.08-2.18.16-3.27,0-.59.09-1.19.15-1.77,0-.3.07-.6.1-.9.15-1.43-.11.59,0-.23a58.41,58.41,0,0,1,1.65-7.53c.35-1.18.75-2.34,1.19-3.48.07-.19.62-1.54.35-.91.33-.77.69-1.53,1.06-2.28a45.67,45.67,0,0,1,3.73-6.14l.54-.73s.48-.63.15-.21.22-.27.31-.38.37-.46.57-.69c.81-1,1.66-1.94,2.53-2.88q2.23-2.39,4.67-4.59c.72-.65,1.46-1.29,2.21-1.91.4-.34.8-.66,1.21-1l.61-.48c.57-.47-.95.7.07,0a83,83,0,0,1,10.48-6.73q2.74-1.49,5.6-2.76c.22-.1,1.76-.75.6-.27l1.44-.59c1-.38,1.94-.75,2.92-1.1a87,87,0,0,1,12-3.33c1-.2,2.05-.39,3.08-.56l1.54-.23c.12,0,.78-.12.11,0s.34,0,.5-.06c2.06-.25,4.14-.43,6.22-.53a85,85,0,0,1,12.66.34l1.35.16.78.09c-1.15-.18-.42,0-.18,0q1.65.24,3.27.54,3.06.57,6.08,1.4t6,1.89c1.07.39,2.12.79,3.17,1.21l1.68.69c-.82-.34-.09,0,.06,0l1,.45c4.71,2.06,9.35,4.25,14.1,6.2A67.55,67.55,0,0,0,778.36,578a50.79,50.79,0,0,0,16.46.17c10.11-1.47,19.53-5.64,29.34-8.28,2.34-.63,4.71-1.17,7.09-1.62,1.2-.22,2.4-.41,3.6-.59.07,0,.82-.11.24,0s.32,0,.46,0l2-.23a81.89,81.89,0,0,1,14.52-.13l1.81.17c.31,0,1.94.24.91.1,1.19.16,2.38.36,3.56.59a63.86,63.86,0,0,1,7,1.73c1.15.35,2.3.73,3.42,1.15l1.69.65c.16.06.88.37.06,0l.83.36a46.18,46.18,0,0,1,5.65,3c.79.49,1.55,1,2.3,1.53.16.11,1,.88,1.17.86-.06,0-.92-.74-.16-.12l.7.57a51.2,51.2,0,0,1,4.12,3.81c1.26,1.31,2.41,2.71,3.57,4.1.43.52-.56-.76-.17-.22l.4.53c.23.31.46.62.68.94.54.74,1.05,1.5,1.56,2.28a70.64,70.64,0,0,1,4.71,8.52q.45,1,.87,1.92c.07.17.14.34.22.5.32.74-.17-.4-.19-.45.14.37.3.73.45,1.1.5,1.25,1,2.51,1.42,3.78.66,1.88,1.25,3.79,1.8,5.7a5,5,0,1,0,9.64-2.66c-3.47-12-8.94-23.71-17.65-32.86-13.39-14-33.74-19-52.62-17.65a98.38,98.38,0,0,0-15.72,2.41c-5,1.18-9.86,2.84-14.74,4.44a115.1,115.1,0,0,1-14.91,4.12l-1.86.31c-.18,0-1,.13-.07,0l-.93.11c-1.33.14-2.66.23-4,.25-1.17,0-2.34,0-3.5-.09l-1.79-.17c-1-.11-.19,0,0,0l-1.1-.17a67.5,67.5,0,0,1-13.88-4.26l-.84-.35c.83.34.1,0-.06,0L764.8,563l-3.54-1.58c-2.28-1-4.57-2.06-6.87-3.05a99,99,0,0,0-13.66-4.94A88.23,88.23,0,0,0,727.34,551a90.62,90.62,0,0,0-51.08,10,83.8,83.8,0,0,0-21.21,15.8c-7.5,7.74-12.94,17-15.08,27.68-2.07,10.28-1.31,20.72.13,31a158.18,158.18,0,0,0,5.7,25.25,131.85,131.85,0,0,0,4.94,13.35l.48,1.08.59,1.35c.24.56-.55-1.33-.14-.33.11.27.22.53.32.8.83,2,1.59,4.11,2.29,6.19a131.24,131.24,0,0,1,4,15.07c.61,3,1.13,5.92,1.58,8.89.12.78.2,1.57.34,2.35,0-.08-.17-1.29-.06-.44,0,.2.05.4.08.6.06.46.11.92.17,1.37.21,1.73.39,3.46.56,5.2a297.12,297.12,0,0,1-.11,51.49c-.41,5.3-.94,10.58-1.54,15.86-.29,2.61,2.52,5.11,5,5,3-.14,4.69-2.21,5-5Z" transform="translate(-267.48 -262.12)"/><path class="cls-1" d="M719,559.05a100.91,100.91,0,0,1,13.47-4.65c2.08-.55,4.18-1,6.3-1.44q1.39-.27,2.79-.48l.73-.11c.12,0,.88-.12.37-.06s.24,0,.35,0l.88-.1a73.88,73.88,0,0,1,10.2-.45c1.42,0,2.83.12,4.25.24,1.77.15,3,.3,4.47.55,7.88,1.32,15.19,4.42,22.88,6.4a51,51,0,0,0,23.73.51,39,39,0,0,0,6.72-2.34l1.39-.6.78-.34.41-.17c.44-.19-1,.4-.2.08,1.35-.55,2.71-1.09,4.09-1.58a153,153,0,0,1,21-5.58,111.26,111.26,0,0,1,12.2-1.85,106.81,106.81,0,0,1,14.75-.41c3.88.16,7.76.34,11.63.72,1,.09,2,.2,3,.33l.75.09c-.07,0-.59-.08-.11,0l1.71.26c2,.34,4.07.75,6.08,1.26a57.65,57.65,0,0,1,6,1.88c.5.18,1,.38,1.49.58-.59-.24.55.25.7.32,1.06.48,2.09,1,3.1,1.55a43.5,43.5,0,0,1,5.65,3.64c-.34-.26.61.49.73.59.4.33.8.67,1.19,1,.77.68,1.5,1.38,2.22,2.11s1.22,1.29,1.8,2l.79.93.43.55c.72.89-.45-.64.22.29a49.89,49.89,0,0,1,2.93,4.43c.91,1.56,1.73,3.16,2.48,4.8l.27.61c0,.11.33.77.13.29s.24.6.3.76c.34.87.67,1.76,1,2.65a70.69,70.69,0,0,1,2.6,10c.14.77.27,1.55.39,2.32.07.41.12.82.18,1.23,0,.21.1.79,0-.14l.09.76c.19,1.53.34,3.06.45,4.6a132.37,132.37,0,0,1,.13,15.81c-.11,2.36-.23,4.71-.48,7,0,.31-.07.62-.1.93,0,.11,0,.22,0,.34-.05.51.14-.91.06-.4s-.18,1.21-.28,1.81c-.18,1.08-.4,2.15-.65,3.21-1.06,4.58-2.66,9-4.09,13.5a340.35,340.35,0,0,0-9.68,38.79,365.37,365.37,0,0,0-6.49,53,316.23,316.23,0,0,0,2,51.2q.93,7.83,2.21,15.62c.33,2.07,3,3.41,4.92,2.79a4.12,4.12,0,0,0,2.79-4.92,318,318,0,0,1-4.15-55.23q.15-11.73,1.2-23.42c.87-9.78,2-18.48,3.67-28.09a360.35,360.35,0,0,1,9.21-40.84c1.57-5.39,3.43-10.68,5-16.05a69.23,69.23,0,0,0,2.63-14.35c.9-11.37.71-23-1.73-34.19a62.22,62.22,0,0,0-8.21-20.44,49.1,49.1,0,0,0-18.76-17.08c-8-4.07-16.68-5.89-25.53-6.76a138.52,138.52,0,0,0-26.78-.3,145.15,145.15,0,0,0-43.08,11c-.34.14-1.16.34.06,0-.21.07-.41.17-.62.25-.49.2-1,.39-1.49.57a26.51,26.51,0,0,1-3.13.89c-.62.14-1.25.26-1.87.37a3.53,3.53,0,0,1-1,.16s.84-.1.37-.05l-.9.1a48.51,48.51,0,0,1-6.82.29c-1,0-2-.1-3.07-.21-.17,0-1.62-.21-.77-.08-.53-.08-1.06-.16-1.6-.26-1.83-.33-3.63-.77-5.42-1.28-3.67-1-7.25-2.34-10.9-3.45a79.16,79.16,0,0,0-22.34-3.59,84.89,84.89,0,0,0-23.6,3.27,114.87,114.87,0,0,0-14.36,5.17c-1.93.83-2.5,3.81-1.43,5.47,1.29,2,3.4,2.33,5.47,1.44Z" transform="translate(-267.48 -262.12)"/><path class="cls-1" d="M726.36,658.55c0,.7,0,1.4-.09,2.1,0,.17,0,.92-.1,1,.33-.34.15-1,0-.14a25.56,25.56,0,0,1-.91,3.77c-.13.41-.34,1.63-.68,1.89l.24-.59-.27.61c-.12.25-.24.5-.37.74a26.43,26.43,0,0,1-1.94,3.24,3.38,3.38,0,0,1-.59.8l.38-.5-.41.51c-.39.46-.79.91-1.21,1.34s-.84.85-1.29,1.25l-.74.65-.51.41.5-.38c-.22.43-1.21.88-1.61,1.14s-1,.64-1.55.93-1.07.57-1.62.83l-.3.14c-.5.21-.41.18.28-.11-.14.17-.71.27-.94.36a26.31,26.31,0,0,1-3.72,1l-.84.16-.33.05c-.56.08-.45.07.31,0-.28.28-1.67.15-2.08.17a33.77,33.77,0,0,1-4-.15c-.75-.06,1.28.23.14,0l-1-.18c-.66-.13-1.32-.29-2-.47s-1.29-.38-1.92-.61a3.46,3.46,0,0,1-.93-.36c.35.46.8.37.13,0a32.47,32.47,0,0,1-3.32-1.83c-.43-.28-1.35-.7-1.61-1.14l.49.38-.5-.41-.62-.54a26.71,26.71,0,0,1-2.62-2.7l-.21-.25c-.33-.42-.28-.34.17.24a3.35,3.35,0,0,1-.58-.8c-.35-.49-.67-1-1-1.51s-.61-1-.88-1.58c-.15-.3-.3-.59-.44-.89s-.19-.4-.27-.61l.24.59c-.32-.22-.56-1.51-.68-1.89-.19-.58-.36-1.18-.51-1.78s-.27-1.21-.38-1.83l-.05-.33c-.09-.56-.07-.45,0,.31-.13-.14-.08-.81-.1-1a27,27,0,0,1,0-4c0-.29.05-.58.08-.86.09-1.21-.22,1.14,0,0,.12-.67.23-1.34.39-2,.3-1.26.78-2.44,1.17-3.67.22-.69-.53,1.12-.05.12.15-.3.28-.6.43-.9.29-.59.61-1.17.95-1.73s.69-1.12,1.07-1.66c.14-.2.37-.67.58-.79-.71.42-.45.55-.07.11a33.4,33.4,0,0,1,2.61-2.71l.74-.65.25-.21c.42-.33.34-.28-.24.17.24-.4,1.08-.78,1.47-1a27.44,27.44,0,0,1,3.31-1.85l.3-.14c.5-.22.4-.18-.28.11a3.46,3.46,0,0,1,.93-.36c.58-.21,1.17-.4,1.76-.57s1.19-.32,1.8-.45l1-.19.68-.11-.65.09c.23-.25,1.73-.15,2.08-.16.64,0,1.29,0,1.93,0s1.28.08,1.91.13c1.21.09-1.15-.22,0,0,.33.06.67.11,1,.18a25.6,25.6,0,0,1,4.21,1.2l.31.12c.5.2.41.16-.28-.12.24-.06,1,.45,1.2.56.59.29,1.17.61,1.74.95s1.3.81,1.92,1.26a2.67,2.67,0,0,1,.53.39c-.58-.45-.66-.5-.24-.17l.5.42a27.6,27.6,0,0,1,3,3l.21.25q.49.63-.18-.24c.23.13.43.57.59.79.44.63.85,1.28,1.24,1.94s.64,1.16.92,1.75c.08.15.46.74.42.9q-.42-1-.12-.27l.24.62a27,27,0,0,1,1.15,4.23c0,.22.07.45.11.67.08.55.07.45,0-.31,0,.23.05.46.08.69.07.81.1,1.63.11,2.44a5,5,0,0,0,10,0,31.86,31.86,0,0,0-20.9-29.6,31.49,31.49,0,0,0-34.52,9.32,32.31,32.31,0,0,0-7.35,18A31.2,31.2,0,0,0,678,674.75a31.82,31.82,0,0,0,33.43,14.55c12.3-2.43,22.59-13,24.47-25.43a36.52,36.52,0,0,0,.48-5.32,5,5,0,0,0-10,0Z" transform="translate(-267.48 -262.12)"/><circle class="cls-1" cx="424.22" cy="394.26" r="13.22"/><path class="cls-1" d="M699.92,656.38c0,.35,0,.7,0,1,0,1.18.27-1.1,0,0-.13.55-.24,1.09-.41,1.63l-.11.32c-.15.41-.15.42,0,0l.12-.29c-.09.2-.18.4-.28.6a19.33,19.33,0,0,1-1,1.69c-.61.95.75-.79,0,0-.16.16-.29.33-.44.49s-.46.46-.71.68l-.24.22c-.42.34-.33.29.24-.17,0,.25-1.17.78-1.38.9l-.73.38c-1.11.59.76-.2-.18.07-.55.15-1.07.33-1.63.45l-.33.07c-.55.09-.45.08.31,0a4.15,4.15,0,0,0-.69.05c-.26,0-2,.17-2.1-.05,0,0,1.29.25.31,0-.44-.1-.88-.19-1.31-.32l-.64-.2c-1.1-.31,1,.52,0,0-.49-.25-1-.5-1.45-.79-.11-.07-.79-.43-.81-.56,0,.07.78.68.25.17s-1-1.07-1.5-1.51.66,1,.08.1c-.17-.28-.36-.54-.53-.83s-.82-1.15-.76-1.46l.25.57c-.07-.2-.15-.41-.22-.63l-.19-.64c-.08-.33-.14-.66-.22-1-.25-1.06,0,1,0,0,0-.64,0-1.28,0-1.92.07-1-.2,0,0,.13a4.3,4.3,0,0,1,.2-1c.06-.23.33-1.58.49-1.6l-.25.58c.09-.2.18-.4.28-.6s.31-.59.48-.87.36-.55.53-.83c.53-.81-.17.26-.18.23s1.19-1.27,1.35-1.42a4.31,4.31,0,0,1,.5-.43l-.5.38.54-.38c.55-.36,1.13-.66,1.72-1,1-.5-.8.26-.12.06.27-.07.53-.18.8-.26s1.51-.52,1.65-.37l-.65.09.69-.06c.36,0,.71,0,1.06,0l.7,0c.56,0,.46,0-.31-.06.23,0,.45.08.67.12s1.91.35,1.94.57c0,0-1-.47-.28-.12.4.21.79.4,1.17.62l.69.45c1.06.65-.54-.55.16.11l1.39,1.39c.77.81-.59-.93,0,0,.18.28.37.55.54.83s.32.57.47.87a4.54,4.54,0,0,1,.21.45c.16.34.1.2-.18-.43.21,0,.51,1.68.57,1.93l.06.34c.09.55.08.45,0-.31.15.09.07,1.21.07,1.39a5,5,0,0,0,10,0,18.52,18.52,0,0,0-12.2-17.18A18.18,18.18,0,0,0,678,644.47a18.19,18.19,0,0,0,17.5,29.73c8.41-1.55,14.36-9.46,14.47-17.82a5,5,0,0,0-5-5A5.11,5.11,0,0,0,699.92,656.38Z" transform="translate(-267.48 -262.12)"/><path class="cls-1" d="M852.91,658.55c0,.7,0,1.4-.08,2.1,0,.17,0,.92-.11,1,.33-.34.15-1,0-.14a25.56,25.56,0,0,1-.91,3.77c-.13.41-.34,1.63-.68,1.89l.24-.59-.27.61c-.12.25-.24.5-.37.74a26.43,26.43,0,0,1-1.94,3.24,3.65,3.65,0,0,1-.58.8l.37-.5-.41.51c-.39.46-.79.91-1.21,1.34s-.84.85-1.29,1.25l-.74.65c-.17.14-.33.28-.51.41l.5-.38c-.22.43-1.21.88-1.61,1.14s-1,.64-1.55.93-1.07.57-1.62.83l-.3.14c-.5.21-.41.18.28-.11-.14.17-.71.27-.94.36a26.31,26.31,0,0,1-3.72,1l-.83.16-.34.05c-.56.08-.45.07.31,0-.28.28-1.67.15-2.08.17a33.77,33.77,0,0,1-4-.15c-.75-.06,1.28.23.14,0l-1-.18c-.66-.13-1.32-.29-2-.47s-1.29-.38-1.92-.61a3.46,3.46,0,0,1-.93-.36c.35.46.8.37.13,0a32.47,32.47,0,0,1-3.32-1.83c-.43-.28-1.35-.7-1.61-1.14l.49.38-.5-.41-.62-.54a26.71,26.71,0,0,1-2.62-2.7l-.21-.25c-.33-.42-.28-.34.17.24a3.65,3.65,0,0,1-.58-.8c-.34-.49-.67-1-1-1.51s-.6-1-.88-1.58c-.15-.3-.3-.59-.44-.89l-.27-.61.24.59c-.32-.22-.56-1.51-.68-1.89-.19-.58-.36-1.18-.51-1.78s-.27-1.21-.38-1.83l0-.33c-.09-.56-.07-.45,0,.31-.13-.14-.08-.81-.1-1a27,27,0,0,1,0-4c0-.29,0-.58.08-.86.09-1.21-.22,1.14,0,0,.12-.67.23-1.34.39-2,.3-1.26.78-2.44,1.17-3.67.22-.69-.53,1.12,0,.12.15-.3.28-.6.43-.9.29-.59.61-1.17,1-1.73s.69-1.12,1.07-1.66a3.36,3.36,0,0,1,.58-.79c-.71.42-.45.55-.06.11a31.66,31.66,0,0,1,2.6-2.71l.74-.65.25-.21c.42-.33.34-.28-.24.17.24-.4,1.08-.78,1.47-1a27.44,27.44,0,0,1,3.31-1.85l.3-.14c.5-.22.4-.18-.28.11a3.46,3.46,0,0,1,.93-.36c.58-.21,1.17-.4,1.76-.57s1.19-.32,1.8-.45l1-.19.68-.11-.65.09c.23-.25,1.73-.15,2.08-.16.64,0,1.29,0,1.93,0s1.28.08,1.91.13c1.21.09-1.15-.22,0,0l1,.18a25.77,25.77,0,0,1,4.2,1.2l.31.12c.5.2.41.16-.28-.12.24-.06,1,.45,1.2.56.6.29,1.17.61,1.74.95s1.3.81,1.92,1.26a2.41,2.41,0,0,1,.53.39c-.58-.45-.66-.5-.24-.17l.5.42a25.92,25.92,0,0,1,3,3l.21.25c.33.42.28.34-.17-.24.22.13.42.57.58.79.44.63.85,1.28,1.24,1.94s.64,1.16.93,1.75c.07.15.45.74.41.9q-.42-1-.12-.27l.24.62a27,27,0,0,1,1.15,4.23c0,.22.07.45.11.67.08.55.07.45,0-.31,0,.23.06.46.08.69.07.81.1,1.63.11,2.44a5,5,0,0,0,10,0A31.86,31.86,0,0,0,842,629a31.49,31.49,0,0,0-34.52,9.32,32.31,32.31,0,0,0-7.35,18,31.2,31.2,0,0,0,4.39,18.47A31.82,31.82,0,0,0,838,689.3c12.3-2.43,22.59-13,24.47-25.43a36.52,36.52,0,0,0,.48-5.32,5,5,0,0,0-10,0Z" transform="translate(-267.48 -262.12)"/><circle class="cls-1" cx="550.77" cy="394.26" r="13.22"/><path class="cls-1" d="M826.47,656.38c0,.35,0,.7,0,1,0,1.18.27-1.1,0,0-.13.55-.24,1.09-.41,1.63l-.11.32c-.15.41-.15.42,0,0l.12-.29c-.09.2-.18.4-.28.6a19.33,19.33,0,0,1-1,1.69c-.61.95.75-.79,0,0l-.44.49c-.23.24-.46.46-.71.68l-.24.22c-.41.34-.33.29.24-.17,0,.25-1.17.78-1.38.9l-.73.38c-1.11.59.76-.2-.18.07-.55.15-1.07.33-1.62.45l-.34.07c-.55.09-.45.08.31,0a4.15,4.15,0,0,0-.69.05c-.26,0-2,.17-2.1-.05,0,0,1.3.25.31,0-.44-.1-.88-.19-1.31-.32l-.64-.2c-1.1-.31,1,.52,0,0-.49-.25-1-.5-1.44-.79-.12-.07-.8-.43-.82-.56,0,.07.79.68.25.17s-1-1.07-1.5-1.51.66,1,.09.1c-.18-.28-.37-.54-.54-.83s-.82-1.15-.76-1.46l.26.57c-.08-.2-.16-.41-.23-.63s-.13-.43-.18-.64-.15-.66-.23-1c-.24-1.06,0,1,0,0,0-.64-.05-1.28,0-1.92.07-1-.19,0-.05.13a4.3,4.3,0,0,1,.2-1c.06-.23.33-1.58.5-1.6l-.26.58.28-.6q.22-.45.48-.87c.17-.28.36-.55.54-.83.52-.81-.18.26-.19.23s1.19-1.27,1.35-1.42a4.31,4.31,0,0,1,.5-.43l-.5.38.54-.38c.55-.36,1.13-.66,1.72-1,1-.5-.8.26-.12.06.27-.07.53-.18.8-.26s1.51-.52,1.65-.37l-.65.09c.23,0,.46,0,.7-.06s.7,0,1.05,0l.7,0c.56,0,.46,0-.31-.06.23,0,.45.08.68.12s1.9.35,1.93.57c0,0-1-.47-.28-.12.4.21.79.4,1.17.62l.69.45c1.06.65-.54-.55.16.11l1.39,1.39c.77.81-.59-.93,0,0,.18.28.37.55.54.83s.32.57.47.87a4.54,4.54,0,0,1,.21.45c.16.34.1.2-.18-.43.22,0,.51,1.68.57,1.93l.06.34c.09.55.08.45,0-.31.15.09.07,1.21.07,1.39a5,5,0,0,0,10,0,18.52,18.52,0,0,0-12.2-17.18,18.18,18.18,0,0,0-19.77,5.27A18.19,18.19,0,0,0,822,674.2c8.41-1.55,14.37-9.46,14.47-17.82a5,5,0,0,0-5-5A5.11,5.11,0,0,0,826.47,656.38Z" transform="translate(-267.48 -262.12)"/><path class="cls-1" d="M749.38,716.7s0-1.16,0-1.15-.23,1.13.05,0c0-.12.2-.89.29-.9-.19,0-.43.85,0,0,.16-.28.33-.55.5-.83.61-1-.66.66.16-.22.35-.37.91-1.2,1.4-1.37l-.41.3.49-.35c.28-.18.56-.36.85-.53s.7-.38,1.06-.57c.84-.43-.47.13.1,0s1.26-.43,1.91-.58a3.06,3.06,0,0,1,1-.2l-.33,0,.6,0c.67,0,1.33,0,2,0,1.25,0-.63-.16.06,0,.33.06.66.11,1,.19a19.73,19.73,0,0,1,2,.62c.57.2-.82-.42,0,0l.84.44c.27.16.54.32.8.5s1.27.71.21.11a7.32,7.32,0,0,1,1.4,1.27c.26.27.51.55.76.84.51.59,0-.12-.08-.12.29,0,1.05,1.69,1.17,1.93a5.06,5.06,0,0,0,6.85,1.8,5.12,5.12,0,0,0,1.79-6.84,20.27,20.27,0,0,0-19.58-10.69c-8.34.91-17.28,7.12-16.91,16.39a5,5,0,0,0,10,0Z" transform="translate(-267.48 -262.12)"/><path class="cls-1" d="M790.87,625.83a40.39,40.39,0,0,1,6.14-5.91l-1,.78a40.85,40.85,0,0,1,4-2.73,5.19,5.19,0,0,0,2.3-3,5.11,5.11,0,0,0-.51-3.86,5,5,0,0,0-3-2.29,5.2,5.2,0,0,0-3.86.5,43.58,43.58,0,0,0-11.18,9.42,5.35,5.35,0,0,0-1.46,3.54,5,5,0,0,0,5,5,4.87,4.87,0,0,0,3.53-1.47Z" transform="translate(-267.48 -262.12)"/><path class="cls-1" d="M724.44,619c3.22,2.61,6.32,5.36,9.32,8.22a5.17,5.17,0,0,0,3.53,1.47,5.11,5.11,0,0,0,3.54-1.47,5,5,0,0,0,1.46-3.53,5.14,5.14,0,0,0-1.46-3.54c-3-2.86-6.1-5.61-9.32-8.22a3.74,3.74,0,0,0-1.6-1,3.88,3.88,0,0,0-1.93-.43,5.11,5.11,0,0,0-3.54,1.47,5,5,0,0,0-1.46,3.53,4.86,4.86,0,0,0,1.46,3.54Z" transform="translate(-267.48 -262.12)"/><circle class="cls-7" cx="224.28" cy="319.98" r="5.14"/><path class="cls-1" d="M398.64,603.24c6.38,5.07,13.07,10.17,20.27,14,6.77,3.65,13.49,7.49,20.43,10.82a81,81,0,0,0,8.57,3.55c1.21.42,2.43.82,3.67,1.15l.89.23c1.2.26-.2.63-1.73-1.13l-1.29-2.21v-2.64c.37-1.07,2.07-3.3,3.29-3.38a2.13,2.13,0,0,0-.27.07,2.5,2.5,0,0,1-.38.06c-.53.12,1.74-.18.74-.1s-1.93.14-2.91.15a73.4,73.4,0,0,1-9.37-.55c-.69-.07,1.36.2.36.05l-.56-.08-1.43-.23q-1.55-.27-3.09-.6c-2.05-.46-4.09-1-6.09-1.67-1-.33-2-.68-2.92-1.06-.1,0-1.12-.39-.32-.13s-.21-.09-.32-.14c-.55-.25-1.11-.5-1.66-.77a42.2,42.2,0,0,1-6-3.55l-.55-.4c-.88-.64.7.58-.07-.06-.53-.44-1.07-.88-1.58-1.35a35.3,35.3,0,0,1-3.34-3.47s-.88-1.06-.4-.47-.48-.64-.56-.76c-.34-.48-.68-1-1-1.48-.61-.94-1.17-1.91-1.69-2.91a5,5,0,0,0-6.84-1.79,5.12,5.12,0,0,0-1.8,6.84c9,17,28.34,24.05,46.62,24.57a37.08,37.08,0,0,0,7.44-.4,5.29,5.29,0,0,0,3.8-2.53,5.14,5.14,0,0,0-1.81-6.88,7.31,7.31,0,0,0-2.21-.79,60,60,0,0,1-7.52-2.56c-.89-.36-.13-.05,0,0l-1.1-.49c-.6-.27-1.19-.54-1.78-.83-1.12-.54-2.24-1.11-3.35-1.69-4.45-2.35-8.88-4.75-13.32-7.12-2.28-1.23-4.56-2.43-6.76-3.81q-3.69-2.31-7.27-4.8-2-1.38-3.92-2.82l-2.23-1.68c.63.48,0,0-.12-.1l-1.53-1.2c-2-1.63-5.1-2.15-7.07,0-1.66,1.81-2.19,5.33,0,7.07Z" transform="translate(-267.48 -262.12)"/></g></svg>