<svg xmlns="http://www.w3.org/2000/svg" viewBox="0 0 844.99 734.7"><defs><style>.cls-1{fill:#3f8e93;}.cls-2{fill:#22565a;}.cls-3{fill:#fff;}.cls-4{fill:#b8d8ef;}</style></defs><g id="Слой_6" data-name="Слой 6"><path class="cls-1" d="M803.39,368.59c0,3.44-.14,6.89-.41,10.33-.13,1.66-.3,3.33-.49,5l-.15,1.24s-.08.62,0,.21,0,.28,0,.38c-.12.82-.24,1.64-.37,2.46a128.32,128.32,0,0,1-4.68,19.42c-1,3.07-2.11,6.1-3.33,9.09-.08.18-.48,1.14-.22.53l-.48,1.11c-.34.79-.69,1.57-1,2.35q-1,2.19-2.09,4.33a129.73,129.73,0,0,1-9.95,16.5q-1.43,2-2.92,4c.37-.49-.13.16-.25.31l-.74.94c-.53.66-1.07,1.32-1.61,2q-3,3.65-6.34,7.07t-7,6.71c-1.18,1.05-2.39,2.09-3.6,3.1-.61.51-1.23,1-1.85,1.5l-.93.74-.4.31c-.49.39.68-.51-.18.14A133.79,133.79,0,0,1,738.2,478.8q-4.28,2.35-8.72,4.38c-.68.31-1.36.62-2,.91l-1.11.48c.61-.26-.47.19-.69.28-1.49.61-3,1.2-4.51,1.75a128.38,128.38,0,0,1-19,5.33c-1.67.33-3.36.63-5,.9l-2.29.34-.38.05-.21,0-1.42.17q-5.1.6-10.23.79a131.45,131.45,0,0,1-20.42-.83l-1.24-.15c-.45-.06,0,0,.11,0l-.7-.09-2.46-.38c-1.63-.26-3.25-.55-4.87-.88q-4.9-1-9.71-2.35t-9.41-3.06c-1.51-.56-3-1.14-4.5-1.76l-.64-.26c.06,0,.5.21.11,0l-1.11-.47c-.74-.33-1.47-.65-2.2-1a128.39,128.39,0,0,1-17-9.44q-4-2.62-7.76-5.52l-.45-.35-.93-.74c-.66-.53-1.32-1.07-2-1.62q-1.83-1.51-3.59-3.11a129.17,129.17,0,0,1-13.27-13.81c-.51-.61-1-1.23-1.5-1.85l-.74-.93-.31-.4c.23.3.14.18,0,0-1-1.31-2-2.63-2.91-4q-2.8-4-5.3-8.14t-4.61-8.39q-1.08-2.14-2.08-4.33c-.33-.73-.66-1.46-1-2.2l-.2-.47-.15-.35c.16.38-.06-.15-.07-.18l-.33-.8a127.34,127.34,0,0,1-6-18.68q-1.17-4.89-2-9.86c-.12-.76-.23-1.52-.34-2.28,0-.13-.09-.74,0-.06L553,385l-.18-1.41c-.19-1.67-.35-3.33-.47-5a131,131,0,0,1,0-20.49c.14-1.72.31-3.45.52-5.17l.15-1.23c-.08.63,0-.21.06-.42.13-.88.26-1.76.4-2.63q.81-5,2-9.84a132.64,132.64,0,0,1,6.09-18.64c.06-.16.13-.32.2-.47-.26.6,0,.05,0-.06l.41-.95c.35-.79.7-1.57,1.06-2.35.69-1.51,1.42-3,2.17-4.48q2.17-4.26,4.65-8.36c1.68-2.76,3.46-5.47,5.34-8.1.43-.6.86-1.2,1.3-1.79.23-.32.47-.64.71-.95l.41-.54c0-.06.46-.6.22-.3s.11-.13.13-.16l.42-.53.74-.93c.53-.66,1.07-1.32,1.61-2a130.16,130.16,0,0,1,13.34-13.74q1.78-1.59,3.61-3.1l1.85-1.49c.26-.22.53-.43.8-.63l.29-.23c-.31.23.24-.19.29-.23,2.58-1.95,5.22-3.82,7.93-5.58A128.62,128.62,0,0,1,626,253.92c.73-.34,1.47-.66,2.2-1l.53-.23,1.28-.52c1.49-.61,3-1.19,4.51-1.74q4.58-1.65,9.26-3t9.73-2.31c1.62-.32,3.24-.61,4.88-.87l2.46-.36c.44-.06,0,0-.12,0l.71-.09,1.42-.17a131.65,131.65,0,0,1,20.44-.72c3.41.15,6.82.43,10.21.84l1.06.14.59.08,2.64.4q2.43.41,4.86.9a128,128,0,0,1,19.1,5.46c1.51.56,3,1.16,4.49,1.77l.19.08c-.41-.18.26.1.35.14l.94.41,2.35,1.06q4.44,2.05,8.7,4.44t8.16,5Q749,265,751,266.46l1.78,1.3,1,.71c.18.15,1.1.85.59.45a131,131,0,0,1,14.22,12.83c2.23,2.33,4.37,4.75,6.42,7.23l1.5,1.85.63.8c.07.1.43.57,0,.05l.41.54c1,1.26,1.89,2.54,2.81,3.84a130.82,130.82,0,0,1,10,16.69c.71,1.44,1.4,2.88,2.06,4.34.33.73.66,1.47,1,2.2l.16.38c.17.42.35.84.52,1.27q1.86,4.57,3.36,9.27A130.1,130.1,0,0,1,802,349.49c.13.82.25,1.64.36,2.47-.09-.68,0,.39.07.59l.15,1.24c.18,1.61.34,3.21.46,4.82.25,3.32.37,6.65.38,10a3.75,3.75,0,1,0,7.5,0,132.49,132.49,0,0,0-24.42-76.87,136.12,136.12,0,0,0-28.11-29.1A133.09,133.09,0,0,0,575,283.68a135.56,135.56,0,0,0-20.8,34.79,132.15,132.15,0,0,0-9.39,40,133.86,133.86,0,0,0,3.39,41.79,133.48,133.48,0,0,0,74.31,89.65,133.79,133.79,0,0,0,82,9.22A133.12,133.12,0,0,0,809.26,389.32a138.48,138.48,0,0,0,1.63-20.73,3.75,3.75,0,0,0-7.5,0Z" transform="translate(-91.7 -164.61)"/><path class="cls-1" d="M536.52,281.09c-.53-2.68-4.67-2.56-6.67-3.15a17.5,17.5,0,0,1-8.33-5.81,28,28,0,0,1-2.62-3.57,16.83,16.83,0,0,1-2.22-5.32,51.74,51.74,0,0,1-.89-5.95,25.56,25.56,0,0,1-.12-6.42l-4.91-.67c-.84,7-1.84,14.57-6.28,20.35a16.5,16.5,0,0,1-7.53,5.54,44,44,0,0,1-10.74,2,2.5,2.5,0,0,0,0,5c6.54.58,13,4,15.64,10.26a49.79,49.79,0,0,1,2.67,11.26c.48,3.1.65,6.22.89,9.35a6.9,6.9,0,0,0,.58,2.94,2.65,2.65,0,0,0,4.16.6c1.28-1.29,1.14-4,1.33-5.44a39.58,39.58,0,0,1,7.28-18.56,21.15,21.15,0,0,1,10.35-7.2c2.51-.83,7.28-1.09,7.5-4.51a2.5,2.5,0,0,0-5,0,3.1,3.1,0,0,1,.93-1.73s-.14.05-.18.09.19-.08.22-.09l-.36.13-1.7.48a41.44,41.44,0,0,0-5,1.64,25.32,25.32,0,0,0-9.89,7.12,41.45,41.45,0,0,0-8.71,19.52c-.26,1.5-.45,3-.63,4.52,0,.25-.06.5-.1.75s0-.27,0-.26,0,.23-.05.34a2.29,2.29,0,0,0-.09.44l0,.12c-.44-.18,1.74-1.61,1-1.25l1.26-.34,1,.57a1.16,1.16,0,0,1,1.1.79s.18.4.06.1c0-.08-.09-.53,0-.08s0-.21,0-.3l-.06-.71c-.09-1.29-.16-2.58-.27-3.86a93.41,93.41,0,0,0-1.74-11.66,30.51,30.51,0,0,0-3.16-9.2,20.65,20.65,0,0,0-7.38-7.3,27.47,27.47,0,0,0-11.62-3.53v5c4.19-.4,8.5-.79,12.47-2.29a21.53,21.53,0,0,0,9.33-6.68c5.46-6.82,6.75-15.47,7.75-23.89.32-2.77-4.51-3.45-4.91-.66-.65,4.47-.06,9,.7,13.47A25.15,25.15,0,0,0,517,274.39a24.34,24.34,0,0,0,7.52,6.69,21.59,21.59,0,0,0,5.62,2.08c.64.14,1.29.25,1.94.37a4.26,4.26,0,0,0,.69.15c.27.09.21.05-.18-.11.54.32.26-.06-.85-1.15a2.52,2.52,0,0,0,3.07,1.75A2.55,2.55,0,0,0,536.52,281.09Z" transform="translate(-91.7 -164.61)"/><path class="cls-1" d="M481,237.58c-.55-2.23-3.1-2.18-4.87-2.65a11.85,11.85,0,0,1-6-4,18.89,18.89,0,0,1-1.86-2.5,11.87,11.87,0,0,1-1.53-3.5,25,25,0,0,1-.79-8.85l-4.91-.66c-.58,4.9-1.28,10.24-4.38,14.28s-7.94,4.71-12.67,5.17a2.5,2.5,0,0,0,0,5c4.57.41,9.1,2.85,10.78,7.29,1.76,4.64,2,9.72,2.42,14.6a5.22,5.22,0,0,0,.52,2.24,2.61,2.61,0,0,0,3.56.94c1.55-.93,1.45-3,1.65-4.57,0-.41.27-1.8.45-2.66a30.75,30.75,0,0,1,1.1-4,24,24,0,0,1,3.67-6.71,14.72,14.72,0,0,1,7.34-5c2.28-.73,5.31-.91,5.64-3.84a2.52,2.52,0,0,0-2.5-2.5,2.55,2.55,0,0,0-2.5,2.5v.08l.34-1.26a2.09,2.09,0,0,1,.6-.62c.35-.14.42-.17.23-.1a4.75,4.75,0,0,0-.73.23c-.57.16-1.15.31-1.72.48a24.21,24.21,0,0,0-5.11,2.1,20.82,20.82,0,0,0-7.18,7.24,29.93,29.93,0,0,0-4,10c-.28,1.36-.47,2.74-.65,4.11l-.09.76c0,.18-.13.77,0,0a1.67,1.67,0,0,1-.06.39c0,.07,0,.14-.05.2q-.37,1.19,1.58-1.49h1.3l1.1.65c-.13-.12.83,1.46.5.73,0,.06.05.59,0,0,0-.44-.06-.89-.09-1.34-.09-1.49-.21-3-.4-4.46a45.13,45.13,0,0,0-2.16-10.28c-2.5-6.63-8.7-10.19-15.55-10.81v5c6.07-.59,12.14-1.62,16.2-6.63s5.1-11.51,5.85-17.82c.33-2.77-4.52-3.46-4.91-.67a32.63,32.63,0,0,0,.49,10,18,18,0,0,0,3.71,8.12,19.82,19.82,0,0,0,5.63,5.28,16,16,0,0,0,4.21,1.68c.48.12,1,.2,1.45.29.2,0,.44.11.64.13,1,.07-.38,1.39-1.06-1.35C476.9,242,481.72,240.71,481,237.58Z" transform="translate(-91.7 -164.61)"/><circle class="cls-2" cx="352.22" cy="132.6" r="8.04"/><circle class="cls-1" cx="282.6" cy="642.26" r="36.18"/><path class="cls-1" d="M478.31,862.18c-.53-2.68-4.66-2.56-6.66-3.15a17.45,17.45,0,0,1-8.33-5.81,27.06,27.06,0,0,1-2.63-3.57,16.83,16.83,0,0,1-2.22-5.32,49.62,49.62,0,0,1-.88-6,25.56,25.56,0,0,1-.13-6.42l-4.91-.67c-.83,7-1.84,14.57-6.28,20.35a16.53,16.53,0,0,1-7.52,5.54,44.51,44.51,0,0,1-10.74,2,2.5,2.5,0,0,0,0,5c6.53.58,13,4,15.63,10.26a49.3,49.3,0,0,1,2.67,11.25c.48,3.11.65,6.23.89,9.36a7,7,0,0,0,.58,2.93,2.64,2.64,0,0,0,4.16.61c1.28-1.29,1.14-4,1.34-5.44a39.46,39.46,0,0,1,7.27-18.56,21.15,21.15,0,0,1,10.35-7.2c2.51-.83,7.28-1.09,7.5-4.51a2.52,2.52,0,0,0-2.5-2.5,2.55,2.55,0,0,0-2.5,2.5,3.17,3.17,0,0,1,.93-1.73c-.05,0-.13,0-.18.09s.19-.08.23-.09c-.12,0-.24.09-.37.12l-1.69.49a41.44,41.44,0,0,0-5,1.64,25.17,25.17,0,0,0-9.89,7.12A41.46,41.46,0,0,0,448.73,890c-.26,1.5-.45,3-.63,4.52l-.09.75c0,.3,0-.27,0-.26s0,.23-.05.34a2.36,2.36,0,0,0-.09.43.79.79,0,0,0,0,.13c-.45-.18,1.73-1.61,1-1.25l1.26-.34,1,.57a1.15,1.15,0,0,1,1.1.79s.18.4.07.1c0-.08-.1-.53,0-.08s0-.21,0-.31,0-.47-.05-.7c-.09-1.29-.16-2.58-.27-3.86a95.33,95.33,0,0,0-1.75-11.66A30.24,30.24,0,0,0,447,870a20.65,20.65,0,0,0-7.38-7.3A27.47,27.47,0,0,0,428,859.15v5c4.19-.4,8.5-.79,12.46-2.29a21.5,21.5,0,0,0,9.34-6.69c5.46-6.81,6.74-15.46,7.74-23.88.33-2.77-4.51-3.45-4.91-.66-.65,4.47-.05,9,.7,13.47a25.15,25.15,0,0,0,5.41,11.38,24.45,24.45,0,0,0,7.52,6.69,21.73,21.73,0,0,0,5.62,2.08c.64.14,1.29.24,1.94.37a4.26,4.26,0,0,0,.69.15c.28.09.22.05-.18-.11.54.32.26-.06-.85-1.15a2.52,2.52,0,0,0,3.08,1.75A2.56,2.56,0,0,0,478.31,862.18Z" transform="translate(-91.7 -164.61)"/></g><g id="Слой_5" data-name="Слой 5"><path class="cls-3" d="M497.28,630.81a145.41,145.41,0,0,0,1.07,33.85c2.58,16.94,7.21,26.47,10.89,51.64,1.72,11.77,1.95,18.18-1.32,24.9-.54,1.12-6.41,12.72-18.39,15.28-10.65,2.28-19.81-3.94-24.93-7.42-29-19.68-43-70.52-46.08-82.12-10.17-.73-21-1.18-32.37-1.21q-11.85,0-22.81.52a197.47,197.47,0,0,1-11.88,32.63c-6,12.9-9.63,20.63-17.33,28.74-4,4.18-20.92,22-41.43,19.24-2.92-.4-9.89-1.49-15.53-6.85-8.12-7.72-9-20.64-5.86-31.4s9.41-20.28,14-30.49c11.34-25.12,11.13-53.44,1.73-110.84-7.29-44.59-15.43-60-20.18-110.13-1.38-14.61-2.61-33.59,6.84-53.83,2.85-6.11,11.13-23.2,30.57-34.67s38.67-10.48,45.16-10c11.92.82,25.29,6.34,51.54,17.34,10.92,4.57,19.8,8.6,25.74,11.36,3.94-3.88,9.73-9.33,17.11-15.4,3.7-3,16.32-13.42,26-18.81,16.58-9.23,41.88-13.46,65.73-5,31.29,11.14,44.72,38.73,47.44,44.71,4.75,10.43,8.14,23.69,0,93.51-5.89,50.53-7.7,43.9-9.12,68.43-3,51.48-4.48,77.22,4.1,100.82,0,0,6.89,18.94,5.48,47.25-.19,3.83-1,9.91-5.3,14.56-5.22,5.58-14.21,6.25-21.3,3.4a38.66,38.66,0,0,1-17.43-14.51c-13.47-19.55-21.55-42.56-26-58l-13.76.12" transform="translate(-91.7 -164.61)"/><path class="cls-3" d="M494.78,630.81a150.83,150.83,0,0,0,.84,32.28,208.4,208.4,0,0,0,4.93,23.3c2.44,9.58,4.56,19.22,6.05,29,1.24,8.18,2.92,17.46-1.15,25.14-3,5.72-8.1,10.89-14.34,12.93-9.51,3.09-18.47-1.77-26.06-7.13C451.21,736.56,442,720.87,435,705.8a233.3,233.3,0,0,1-14-39.52,2.57,2.57,0,0,0-2.41-1.84,468.15,468.15,0,0,0-55.18-.69,2.56,2.56,0,0,0-2.41,1.83A207.53,207.53,0,0,1,348.2,700c-4.47,9.56-9.08,18.84-16.45,26.52-11.63,12.12-29.5,23.33-46.63,15.81-10.91-4.8-14.27-16.78-12.56-27.8,2-13,10-24,15.24-35.82,6.37-14.41,8.66-29.91,8.68-45.59,0-23.77-3.74-47.65-7.77-71-3.52-20.44-8.84-40.46-12.94-60.78q-3.45-17.15-5.39-34.53c-1.33-11.73-2.6-23.6-1.56-35.4,1.72-19.73,10.78-39.06,25.56-52.37,15.44-13.91,37.26-20.33,57.84-17.6,7.95,1.05,15.64,3.89,23.08,6.74,12.17,4.66,24.19,9.76,36.12,15q7.06,3.11,14.05,6.35a2.61,2.61,0,0,0,3-.39,281.53,281.53,0,0,1,26-22.47c10.2-7.83,20.68-14.6,33.24-17.9a80.84,80.84,0,0,1,43.58.63A76.26,76.26,0,0,1,562.48,368a88.92,88.92,0,0,1,15.37,20.19c1.08,1.94,2.08,3.91,3,5.93.14.3.27.61.41.91l.21.5c-.06-.14-.15-.37,0,.1.28.68.55,1.37.79,2.06a44.16,44.16,0,0,1,1.4,4.81c.22.95.41,1.92.57,2.88.09.51.17,1,.25,1.54.13.86.08.46.19,1.44a137.78,137.78,0,0,1,.66,18.95c-.51,25.35-3.63,50.76-6.93,75.88q-1.63,12.45-3.78,24.82c-.87,4.93-1.75,9.85-2.31,14.83-1.13,10-1.45,20.08-2,30.11-.69,12.62-1.34,25.27-1.31,37.91a173.07,173.07,0,0,0,2.12,28.58,145.49,145.49,0,0,0,4.93,18.4,118.2,118.2,0,0,1,4.68,26.52c.5,6.89.87,14.13,0,21-.77,6.1-3.91,11.9-10.08,13.83-12.82,4-24.27-6.74-30.71-16.54a183.42,183.42,0,0,1-18.88-38.73c-1.94-5.37-3.69-10.82-5.28-16.31a2.57,2.57,0,0,0-2.41-1.84l-13.76.12c-3.21,0-3.22,5,0,5l13.76-.12L511,648.91a240.69,240.69,0,0,0,14,37.19,162.45,162.45,0,0,0,11.28,19.95,47.3,47.3,0,0,0,13.34,13.8c5.65,3.65,12.25,5.78,19,4.86a18.88,18.88,0,0,0,14.92-10.85c2.77-6.05,2.68-12.93,2.65-19.45a151.18,151.18,0,0,0-1.57-20.93,99.92,99.92,0,0,0-4.19-18.56A108.15,108.15,0,0,1,574.91,630a250.34,250.34,0,0,1-.67-32.29c.43-14.57,1.32-29.14,2.19-43.69.2-3.35.44-6.7.79-10,.29-2.75.49-4.21.93-6.94,1-6,2.08-11.86,3-17.81,4.07-26.17,7.12-52.68,8.68-79.13.77-13,1.67-26.91-1.51-39.7-2.38-9.6-7.88-18.61-13.84-26.34a86.6,86.6,0,0,0-24.56-21.95,82.08,82.08,0,0,0-42.6-11c-13.74.2-27.76,3.54-39.71,10.44-10.11,5.84-19.34,13.39-28.24,20.91q-7.45,6.3-14.41,13.15l3-.39c-11.61-5.38-23.37-10.4-35.19-15.31-9.8-4.07-19.64-8.31-29.87-11.22-18.08-5.16-38.22-3-55.05,5.25-18.64,9.14-32.25,26-39.29,45.32-4.45,12.2-5.65,25.26-5,38.16a373.62,373.62,0,0,0,4.22,37.89c3.23,20.72,8.68,41,12.9,61.48,2.71,13.17,4.87,26.44,6.76,39.75,1.69,11.87,3.1,23.8,3.7,35.78.84,16.73,0,33.7-5.94,49.53-4.26,11.41-11.34,21.53-15.36,33-3.71,10.6-4.42,23.83,2.44,33.38,6.36,8.85,17.91,12.42,28.45,11.24,10.39-1.16,19.69-6.37,27.62-13A74.79,74.79,0,0,0,344.59,718a164.68,164.68,0,0,0,8.09-15.82c3-6.48,5.84-13,8.25-19.8q2.73-7.62,4.82-15.46l-2.41,1.84a468.15,468.15,0,0,1,55.18.69l-2.41-1.83a246.78,246.78,0,0,0,12.44,36.08c7,16.1,16.22,32.53,29.95,43.88,7.13,5.89,15.82,11.42,25.29,11.87s17.92-4.93,23.45-12.4A29.71,29.71,0,0,0,513,728.49a124.13,124.13,0,0,0-2.09-17.81q-1.32-8.05-3.16-16c-1.91-8.28-4.3-16.44-5.94-24.78a138.81,138.81,0,0,1-2.49-29c0-3.34.23-6.68.49-10s-4.74-3.19-5,0Z" transform="translate(-91.7 -164.61)"/><path class="cls-3" d="M698.13,623.54a145.32,145.32,0,0,1-1.08,33.85c-2.57,16.94-7.2,26.47-10.88,51.64-1.72,11.76-1.95,18.18,1.32,24.9.54,1.11,6.41,12.71,18.39,15.28,10.65,2.28,19.81-4,24.93-7.43,29-19.67,43-70.52,46.07-82.11,10.18-.74,21-1.18,32.38-1.21,7.9,0,15.51.17,22.81.51a197.88,197.88,0,0,0,11.87,32.63c6,12.9,9.64,20.64,17.34,28.74,4,4.19,20.91,22,41.42,19.24,2.92-.39,9.89-1.48,15.54-6.85,8.12-7.71,9-20.63,5.86-31.4s-9.42-20.27-14-30.48c-15.49-34.34-10.82-74.29-1.74-110.84s22.34-72.64,23.21-110.3c.33-14.17.75-33.82-8-55.79-4.41-11.05-11-27.43-27.91-39.2-19.7-13.69-41.52-12.87-50-12-37.14,3.95-60.21,27-60.21,27-4.43,4.43-9.85,10.94-16.77,10.26-6.52-.63-9.4-7.17-17.1-15.39a103.77,103.77,0,0,0-26-18.82c-22.61-11.6-47.37-5.62-50.63-4.79-35.6,9.1-51.29,43.42-54.74,51C610,414.36,612,436.49,616,479.66c3.7,39.78,7.68,34.23,9.68,64.6,3,45.28,5.25,79.65-7.49,109.55a94.54,94.54,0,0,0-6.23,41.75c.4,5.25,1.69,10.72,5.29,14.56,5.23,5.58,14.22,6.26,21.31,3.41A38.71,38.71,0,0,0,656,699c13.47-19.55,21.55-42.56,26-58l13.75.11" transform="translate(-91.7 -164.61)"/><path class="cls-3" d="M695.63,623.54a145.65,145.65,0,0,1-.89,32.53c-1.23,8.34-3.38,16.45-5.43,24.6a268.5,268.5,0,0,0-6.25,32.79c-1,7.93-1.09,16,3,23.1,3.84,6.68,10,12.4,17.45,14.62,10.24,3.06,20-1.43,28.38-7.12,14.78-10.09,24.77-26,32.32-41.86a237.48,237.48,0,0,0,14.41-39.36l.67-2.5-2.42,1.83a468.35,468.35,0,0,1,55.19-.7l-2.41-1.83a214.07,214.07,0,0,0,13.07,35.25c4.65,9.93,9.47,19.55,17.1,27.56,12.23,12.83,29.49,23.47,47.84,18.73A27.06,27.06,0,0,0,922,732.35,29.45,29.45,0,0,0,928,717c1.47-12.78-4.16-24.61-9.9-35.63a155,155,0,0,1-8.71-18.77,115.25,115.25,0,0,1-5-19.08c-2.31-13.24-2.37-26.82-1.2-40.17,2.48-28.2,10.93-55.32,18.33-82.5a420.24,420.24,0,0,0,9.68-42.3,233.23,233.23,0,0,0,3-38.87,131.83,131.83,0,0,0-5-37.11,122.73,122.73,0,0,0-12.61-29A69.29,69.29,0,0,0,890,348.36a76.84,76.84,0,0,0-33-8.5c-20-.71-40.19,5.73-57.14,16.07a100,100,0,0,0-14.66,10.73c-4.61,4.11-9.65,12-16.69,10.83-4.62-.77-7.78-6-10.51-9.35a79.06,79.06,0,0,0-6.64-7.29,101.5,101.5,0,0,0-26.81-18.33c-17.5-8-39.22-8.44-57.26-1.68-17.71,6.63-31.77,20-41.7,35.89-7.11,11.34-12.35,23.84-14.19,37.16a154.74,154.74,0,0,0-.82,28.63c.62,12.81,1.87,25.58,3.09,38.34a266.65,266.65,0,0,0,4.28,30c1.28,6,2.84,12,3.76,18.09,1.69,11.18,2,22.6,2.72,33.88.75,12.81,1.35,25.65,1.06,38.49a164.28,164.28,0,0,1-3.77,33.6A111.52,111.52,0,0,1,617,650c-.8,2.07-1.71,4.09-2.45,6.19a97.34,97.34,0,0,0-5.35,29c-.42,11.81.52,26.8,13.61,31.35,11.34,3.94,23.53-2.52,31-10.85,4.11-4.55,7.36-9.91,10.41-15.21a181.42,181.42,0,0,0,8.87-17.62,250.9,250.9,0,0,0,11.24-31.22L682,643.47l13.75.11c3.22,0,3.23-5,0-5L682,638.47a2.54,2.54,0,0,0-2.41,1.83,241.07,241.07,0,0,1-11.29,31.28,178.35,178.35,0,0,1-8.86,17.3c-2.94,5-6,10.12-10.07,14.31-7,7.22-20.58,14.07-29.54,6-4.51-4.08-5.29-10.57-5.56-16.3a93.27,93.27,0,0,1,1-18.81,96,96,0,0,1,3.08-13.38c.41-1.35.86-2.69,1.35-4,.16-.44.33-.88.5-1.31s.27-.66.07-.2a119.69,119.69,0,0,0,7.93-27.9c3.8-23.84,2.18-48.26.65-72.23-.63-10-1.11-20-2.81-29.9-1-5.83-2.55-11.55-3.73-17.35a295.91,295.91,0,0,1-4.13-31.25c-1.13-12.08-2.3-24.17-2.79-36.29-.66-16.49.39-32.8,7.4-48,5.67-12.26,13.34-23.68,23.39-32.79a70.4,70.4,0,0,1,46-18.21,68.17,68.17,0,0,1,35.45,8.47,98.3,98.3,0,0,1,21.61,16.06c3,3,5.56,6.45,8.31,9.69,3,3.49,6.38,6.63,11.14,7,8.38.72,13.82-6.65,19.3-11.71,10.58-9.79,24.2-17,37.94-21.38,19.39-6.14,41-6.79,59.63,2.28A64.31,64.31,0,0,1,912,375.61a117.15,117.15,0,0,1,12.29,27.92,126.58,126.58,0,0,1,5,36.15,225.83,225.83,0,0,1-2.8,37.54c-4.56,27.89-13.66,54.75-20.46,82.12-6.3,25.4-10.6,52-7.42,78.21a118.44,118.44,0,0,0,10.65,37.21c5.45,11.32,13.11,22.5,14,35.38.36,5.19-.23,10.64-2.63,15.33A21.16,21.16,0,0,1,908,735.87c-9.41,3-19.28,1.1-27.8-3.57a70.53,70.53,0,0,1-17-13.53c-7.51-7.9-12.08-17.63-16.65-27.4a201.28,201.28,0,0,1-12.1-33.06,2.57,2.57,0,0,0-2.41-1.84,468.35,468.35,0,0,0-55.19.7,2.59,2.59,0,0,0-2.41,1.84A240.22,240.22,0,0,1,763,692.76c-6.63,15.45-15.11,31.07-27.8,42.4-6.27,5.6-14.65,11.46-23.29,12s-15.87-4.46-20.46-11.34c-3.72-5.59-4.38-11.8-3.83-18.41A213.31,213.31,0,0,1,693.38,685c2.14-8.78,4.61-17.48,6-26.42a150.62,150.62,0,0,0,1.25-35.05c-.26-3.19-5.26-3.22-5,0Z" transform="translate(-91.7 -164.61)"/><path class="cls-4" d="M343.91,358.38c-3.68,4.18,3.1,15.34,4.58,17.78s4.63,7.21,13.76,15.21c0,0,11.46,10.05,31.87,19,2.08.92,5.95,2.54,9.55,1,1.33-.56,1.79-1.19,4.44-4,5.64-6,6.59-6.32,9.52-10.11,3.86-5,3.83-6.5,3.68-7.24-.5-2.49-3-4-5.29-5.08-21.32-10.35-32.29-14.87-34.7-15.59a272,272,0,0,1-33.84-12.57A5.26,5.26,0,0,0,343.91,358.38Z" transform="translate(-91.7 -164.61)"/><path class="cls-4" d="M342.14,356.61c-2.3,2.77-2,6.36-1.09,9.63a42.62,42.62,0,0,0,4.14,9.25A59.39,59.39,0,0,0,355,388.06c9.07,9,20,15.89,31.46,21.53,2.46,1.21,4.95,2.38,7.49,3.44a17.08,17.08,0,0,0,6.36,1.51,9.78,9.78,0,0,0,5.76-1.62,29.18,29.18,0,0,0,4-3.91c2.34-2.47,4.85-4.78,7.14-7.28a30.77,30.77,0,0,0,6.2-9c1.15-2.9-.19-5.83-2.55-7.72a30.72,30.72,0,0,0-6.18-3.47l-7.24-3.46c-6.5-3.07-13-6.09-19.68-8.88-3.83-1.61-7.7-2.78-11.66-4.06A268.82,268.82,0,0,1,349.42,355a5.14,5.14,0,0,0-3.94-.32,7.45,7.45,0,0,0-3.34,2c-2.25,2.31,1.28,5.84,3.53,3.54a2.86,2.86,0,0,1,1.81-.82l-1.26-.35c8.44,3.77,17,7.18,25.79,10.11,4,1.35,8.17,2.42,12.12,4l1.23.5.68.29.36.15c-.32-.14-.19-.08.05,0l3.4,1.46q4.56,2,9.08,4.11c4.06,1.87,8.11,3.79,12.14,5.72a42.7,42.7,0,0,1,6.16,3.18,4.47,4.47,0,0,1,1.38,1.39c.15.27.16.56.29.84s-.06-.76,0-.28-.19.15.05-.19a2,2,0,0,0-.12.5c0,.16-.3.77-.05.2-.12.28-.26.54-.4.81a29.61,29.61,0,0,1-3.07,4.48,66.37,66.37,0,0,1-5.15,5.46c-1.49,1.5-2.95,3-4.4,4.56-.58.63-1.16,1.27-1.77,1.87l-.61.59c-.11.1-.38.25.09-.07a2.54,2.54,0,0,1-.34.23c-3.35,1.7-7.32-.48-10.34-1.87A150.68,150.68,0,0,1,371.21,395q-1.63-1.12-3.24-2.28l-1.3-1-.57-.43c-.3-.22.38.3-.18-.14s-1.28-1-1.9-1.55a91,91,0,0,1-9-8.86c-.45-.51-.89-1-1.32-1.55l-.6-.76c-.31-.38-.09-.11,0,0l-.38-.51c-.54-.73-1.06-1.48-1.55-2.25q-1.64-2.58-3-5.31a32.63,32.63,0,0,1-1.73-3.91c-.26-.72-.49-1.46-.68-2.2-.09-.36-.16-.72-.23-1.08,0-.13-.05-.26-.07-.4.06.42,0-.35,0-.36,0-.33,0-.65,0-1a3.59,3.59,0,0,1,0-.47c0,.12-.1.45,0,0,0-.12.24-.76.14-.53s.57-.77.14-.26a2.56,2.56,0,0,0,0-3.54A2.52,2.52,0,0,0,342.14,356.61Z" transform="translate(-91.7 -164.61)"/></g><g id="Слой_2" data-name="Слой 2"><path class="cls-2" d="M693.13,623.54a156.66,156.66,0,0,1,.38,18.89q-.16,3.71-.52,7.4c-.11,1.14-.23,2.27-.37,3.4l-.18,1.46c.12-.91-.07.44-.11.72-1.23,8.33-3.38,16.45-5.43,24.6a273.49,273.49,0,0,0-6.34,33.45c-1,8.38-1,16.85,3.35,24.37,4.17,7.23,10.85,13.36,18.94,15.77,10.89,3.24,21.42-1.32,30.31-7.38,15.15-10.34,25.47-26.45,33.22-42.76a241.47,241.47,0,0,0,14.66-40c.22-.83.45-1.66.67-2.5l-4.83,3.67a468.35,468.35,0,0,1,55.19-.7l-4.82-3.67a217.26,217.26,0,0,0,13.32,35.86c4.75,10.13,9.7,19.88,17.49,28.06,12.87,13.5,31,24.35,50.28,19.37a29.25,29.25,0,0,0,15.4-9.47A32.33,32.33,0,0,0,930.53,717c1.52-13.2-4.31-25.51-10.24-36.89a149,149,0,0,1-8.46-18.17,114.5,114.5,0,0,1-5-19.08c-2.28-13-2.27-26.39-1.12-39.51,2.46-28,10.91-54.88,18.24-81.84a419.65,419.65,0,0,0,9.69-42.3,238,238,0,0,0,3.06-39.53,134.22,134.22,0,0,0-5.11-37.77,125.84,125.84,0,0,0-12.86-29.61,71.91,71.91,0,0,0-27.5-26.1,79.73,79.73,0,0,0-34.3-8.84c-20.39-.72-41.1,5.86-58.4,16.41a104.57,104.57,0,0,0-15.17,11.12c-1.19,1.06-2.29,2.2-3.41,3.34a37.28,37.28,0,0,1-5.68,5.12,9.67,9.67,0,0,1-2.94,1.48c-.18.05-1.39.28-.9.22a9,9,0,0,1-1.16,0c-.43,0-.8-.12-.17,0a10.81,10.81,0,0,1-1.48-.41l.2.07c-.26-.14-.52-.27-.77-.42l-.55-.37c-.65-.41.52.46-.08-.05-.43-.36-.85-.74-1.25-1.14a81.19,81.19,0,0,1-5.47-6.39,79.06,79.06,0,0,0-6.64-7.29,103.65,103.65,0,0,0-27.32-18.72c-18.09-8.28-40.5-8.93-59.19-1.94-18.34,6.87-32.89,20.62-43.19,37.05-7.21,11.5-12.58,24.25-14.44,37.75a158.51,158.51,0,0,0-.91,29.3c.62,12.81,1.87,25.58,3.09,38.34a271.16,271.16,0,0,0,4.37,30.69c1.28,6,2.84,12,3.76,18.1.07.44.13.89.2,1.34,0,.19.05.39.08.59,0-.05-.12-.9,0-.31q.21,1.65.39,3.3c.26,2.42.47,4.85.65,7.29.52,7,.94,14,1.36,21,.75,12.81,1.35,25.65,1.06,38.49a158.16,158.16,0,0,1-3.68,32.93c-1.77,7.63-4.59,14.28-7.06,21.26a99.45,99.45,0,0,0-5.44,29.64c-.24,6.59-.22,13.84,2,20.12a21.59,21.59,0,0,0,13.4,13.64c12.15,4.22,25.4-2.53,33.48-11.49a90.61,90.61,0,0,0,10.81-15.72,181.42,181.42,0,0,0,8.87-17.62,255.16,255.16,0,0,0,11.49-31.81L682,646l13.75.11c6.44.06,6.45-9.94,0-10L682,636a5.09,5.09,0,0,0-4.82,3.67,235.16,235.16,0,0,1-11,30.68,178.35,178.35,0,0,1-8.86,17.3c-3,5.09-5.86,9.86-9.68,13.81a28.78,28.78,0,0,1-13.49,8.27c-4.18,1-9.35.55-12.51-2.29-4-3.62-4.59-9.42-4.83-14.53a92.36,92.36,0,0,1,.92-18.15,96,96,0,0,1,3.08-13.38c.41-1.35.86-2.69,1.35-4,.16-.44.33-.87.5-1.31.4-1,0,0-.18.41a72.64,72.64,0,0,0,4.79-13.21,124.92,124.92,0,0,0,3.39-15.29c3.84-24.09,2.29-48.68.74-72.9-.65-10.21-1.16-20.46-2.9-30.56-1-5.83-2.55-11.56-3.73-17.36a279.12,279.12,0,0,1-4-30.58c-1.13-12.08-2.3-24.17-2.79-36.29-.2-4.82-.27-9.64-.1-14.46q.12-3.23.4-6.45.13-1.6.33-3.21c0-.33.18-1.36.05-.47.09-.6.17-1.19.27-1.78a79.65,79.65,0,0,1,2.75-11.71q.89-2.82,2-5.56c.11-.27.22-.55.34-.82,0,.08-.31.7-.07.17s.42-.95.64-1.43l.45-1a115,115,0,0,1,7.64-14c1-1.53,2-3,3.07-4.52.54-.76,1.1-1.5,1.66-2.25a4.58,4.58,0,0,1,.43-.56c.38-.47.75-.94,1.13-1.4a89,89,0,0,1,9.07-9.55A68.47,68.47,0,0,1,672.24,347a67,67,0,0,1,8.46-2.11c.78-.14,1.55-.26,2.33-.38l.59-.09c.75-.11-.86.1-.08,0l1.54-.18q3.52-.39,7.08-.48a65.49,65.49,0,0,1,34.19,8.13,92.38,92.38,0,0,1,21.1,15.67c6.35,6.38,11.2,16.66,21.22,17.45,9.17.73,15.05-6.88,21.06-12.45,1.4-1.28,2.86-2.49,4.34-3.67.15-.12.94-.74.31-.25s.34-.26.5-.37c.64-.48,1.28-1,1.93-1.42,1.49-1.07,3-2.1,4.54-3.08a104,104,0,0,1,25.22-11.94c19-6,39.71-6.74,57.71,2a62.13,62.13,0,0,1,25.51,23,97.16,97.16,0,0,1,6.61,12.78c.09.2.54,1.27.39.92s.34.8.45,1.09c.39.94.77,1.88,1.15,2.82,1.27,3.19,2.44,6.42,3.44,9.72a124.08,124.08,0,0,1,4.86,35.48A222,222,0,0,1,924,476.55c-4.57,27.9-13.66,54.75-20.46,82.13-6.35,25.59-10.72,52.49-7.51,78.87A121.84,121.84,0,0,0,907,676c2.85,5.93,6.14,11.65,8.89,17.64,2.4,5.2,4.41,11.17,4.78,16.48.71,10.23-3.08,20-13.31,23.32a33.08,33.08,0,0,1-5.56,1.24l.29,0c-.41,0-.81.09-1.22.12-.61.05-1.21.08-1.82.09a33.64,33.64,0,0,1-4.14-.17,31.2,31.2,0,0,1-3.24-.6,39.56,39.56,0,0,1-3.82-1.1,35.53,35.53,0,0,1-6.35-2.86c-6.56-3.6-11.19-7.55-16.5-13.14a56.81,56.81,0,0,1-8.42-11.27c-2.94-5-5.38-10.35-7.84-15.63a197.18,197.18,0,0,1-11.85-32.45,5.13,5.13,0,0,0-4.82-3.68,468.35,468.35,0,0,0-55.19.7,5.17,5.17,0,0,0-4.82,3.67q-1.78,6.79-3.93,13.49-1.59,4.95-3.39,9.84-.87,2.37-1.8,4.74c-.35.89-.7,1.78-1.06,2.66l-.56,1.35c-.12.31-.25.61-.38.91.19-.44.16-.38-.07.17a167.89,167.89,0,0,1-11.89,23,83.36,83.36,0,0,1-15.51,18.89c-.74.66-1.5,1.3-2.27,1.93,0,0-1.29,1-.53.43-.39.3-.79.59-1.19.88-1.65,1.18-3.35,2.32-5.08,3.38-3.89,2.38-8,4.37-12.46,4.64a17.94,17.94,0,0,1-12-3.5,25.11,25.11,0,0,1-3.68-3.34c-.58-.62-1.12-1.27-1.66-1.92.77.93,0,0-.14-.21l-.79-1.13c-.54-.83-1.06-1.67-1.53-2.55a11.35,11.35,0,0,1-1.22-3c-.29-.91-.47-1.84-.68-2.77-.33-1.49,0,1-.1-.59,0-.5-.09-1-.12-1.51a47.42,47.42,0,0,1,.16-6.74,208.62,208.62,0,0,1,5.64-31.73c2.15-8.78,4.61-17.47,6-26.42a153,153,0,0,0,1.34-35.71,5.14,5.14,0,0,0-5-5c-2.54,0-5.22,2.29-5,5Z" transform="translate(-91.7 -164.61)"/><path class="cls-2" d="M739,489.86c0,.76,0,1.51-.09,2.27,0,.34-.05.69-.09,1-.13,1.18.12-.66,0,.2a33,33,0,0,1-1,4.26c-.22.69-.49,1.36-.73,2-.19.53.17-.46.18-.43s-.17.38-.2.45c-.16.35-.33.7-.5,1a31.07,31.07,0,0,1-2.28,3.8c-.12.16-.65,1.05-.29.41s-.18.22-.33.39c-.48.59-1,1.15-1.52,1.7s-.92.92-1.41,1.36c-.28.26-.57.51-.86.75s-1.13.77-.51.43-.25.17-.42.29l-.81.55c-.64.43-1.3.82-2,1.2s-1.26.67-1.91,1l-.45.2c-.51.25.45-.2.44-.18-.12.19-.88.34-1.09.42a29.12,29.12,0,0,1-4.2,1.19l-1.17.21c-.95.18.94-.09,0,0-.81.09-1.61.16-2.42.19a32.63,32.63,0,0,1-4.53-.19c-1-.09.93.17,0,0-.34-.06-.68-.11-1-.18-.77-.15-1.54-.34-2.3-.55s-1.28-.39-1.91-.61c-.36-.13-.72-.3-1.08-.42-.55-.18.46.17.43.19s-.51-.23-.61-.27a30.8,30.8,0,0,1-3.73-2.07c-.28-.18-.55-.37-.82-.56s-1.18-.73-.55-.38-.21-.18-.39-.32-.58-.49-.86-.75a29.2,29.2,0,0,1-3-3c-.17-.21-.77-1.13-.43-.52s-.17-.25-.29-.41c-.44-.63-.86-1.27-1.25-1.93s-.66-1.14-1-1.72c-.15-.3-.29-.59-.43-.89l-.21-.45c-.48-1,.27.74.05.13a40.62,40.62,0,0,1-1.32-4.14c-.16-.66-.3-1.33-.41-2-.2-1.17.06.72,0-.2,0-.4-.09-.8-.12-1.2a31.27,31.27,0,0,1,0-4.54c0-.34.06-.69.1-1,.14-1.29-.13.71,0-.2.13-.72.26-1.45.44-2.16a39.84,39.84,0,0,1,1.32-4.14c.22-.63-.42.88-.12.28.08-.15.14-.3.21-.45s.28-.6.43-.89c.34-.69.72-1.36,1.11-2s.7-1.11,1.08-1.64c.08-.13.44-.78.57-.8s-.78,1-.18.24l.42-.51a30.32,30.32,0,0,1,3-3c.33-.29,1.07-1.18,1.5-1.26-.05,0-1,.72-.23.19l.4-.28,1-.65a29.5,29.5,0,0,1,3.73-2.07l.46-.2c.5-.26-.45.2-.44.18.14-.21.84-.33,1.09-.42.68-.25,1.37-.47,2.06-.67s1.42-.37,2.13-.52l1-.19c1.17-.2-.68.06.19,0a32.12,32.12,0,0,1,4.7-.17c.69,0,1.39.08,2.07.15a4.6,4.6,0,0,0,.52.06s-1.05-.16-.49-.05.9.15,1.34.24a29.12,29.12,0,0,1,4.2,1.19l.93.35c.54.19-.45-.17-.43-.18a1.78,1.78,0,0,1,.45.2c.7.33,1.39.67,2.06,1s1.24.71,1.83,1.1l.82.55c.19.13,1.18.74.55.39s.21.17.38.32.59.49.87.74c.53.48,1,1,1.53,1.48s1,1,1.42,1.57c.14.17.58.55.62.76,0,0-.6-.83-.29-.36.12.18.26.35.39.53a31.07,31.07,0,0,1,2.28,3.8c.15.29.29.59.43.89s.13.3.21.45c.25.51-.21-.45-.18-.43.39.24.65,1.74.79,2.19a32.63,32.63,0,0,1,1,4.26c.17.95-.09-.94,0,0,0,.34.07.68.1,1,.07.81.1,1.62.1,2.44a5,5,0,1,0,10,0A35.23,35.23,0,0,0,726,457.12a34.86,34.86,0,0,0-38.23,10.33,35.64,35.64,0,0,0-8.11,20,34.66,34.66,0,0,0,19.95,33.92,35.77,35.77,0,0,0,21.88,2.53c13.65-2.72,25-14.4,27.08-28.19a39.21,39.21,0,0,0,.52-5.82,5,5,0,0,0-10,0Z" transform="translate(-91.7 -164.61)"/><ellipse class="cls-2" cx="605.7" cy="324.45" rx="12.89" ry="22.35"/><path class="cls-2" d="M874.83,489.88c0,.76,0,1.52-.09,2.27,0,.35,0,.69-.09,1-.13,1.19.12-.65,0,.2a34.29,34.29,0,0,1-1,4.26c-.23.69-.5,1.36-.74,2-.19.53.17-.46.18-.43a1.78,1.78,0,0,1-.2.45c-.16.35-.33.7-.5,1a29.86,29.86,0,0,1-2.28,3.8c-.12.17-.65,1-.29.41s-.18.22-.32.39q-.74.89-1.53,1.71c-.45.46-.92.92-1.41,1.36l-.86.75c-.19.16-1.13.77-.51.43s-.25.17-.42.28l-.81.56c-.64.42-1.29.82-2,1.19s-1.27.67-1.92,1l-.45.2c-.51.26.45-.2.44-.17s-.88.34-1.09.41a29.12,29.12,0,0,1-4.2,1.19l-1.17.22c-.95.18.94-.09,0,0-.81.08-1.61.15-2.42.18a34.25,34.25,0,0,1-4.53-.18c-1-.1.93.16,0,0l-1-.18c-.77-.16-1.54-.34-2.29-.56s-1.29-.38-1.91-.61c-.37-.13-.73-.29-1.09-.41-.55-.18.46.17.43.18s-.51-.23-.61-.27a29.5,29.5,0,0,1-3.73-2.07l-.82-.55c-.2-.14-1.18-.73-.55-.38s-.21-.18-.39-.33l-.86-.74a30.32,30.32,0,0,1-3-3c-.17-.21-.77-1.13-.43-.52s-.17-.24-.29-.41c-.44-.62-.86-1.27-1.25-1.92s-.66-1.14-1-1.73c-.15-.29-.29-.59-.43-.89l-.21-.45c-.48-1,.27.74,0,.13a39.84,39.84,0,0,1-1.32-4.14c-.16-.66-.3-1.32-.41-2-.2-1.17.06.72,0-.2l-.12-1.2a31.27,31.27,0,0,1,0-4.54c0-.34.06-.68.1-1,.14-1.29-.13.71,0-.2.13-.72.26-1.44.44-2.16a39.67,39.67,0,0,1,1.32-4.13c.23-.64-.42.88-.12.27.08-.14.14-.3.21-.45.14-.3.28-.59.43-.89.34-.68.72-1.36,1.11-2s.7-1.11,1.08-1.65c.08-.12.44-.78.57-.8s-.77,1-.18.24l.42-.5a28.34,28.34,0,0,1,3-3.05c.33-.3,1.07-1.19,1.5-1.26,0,0-1,.71-.23.19l.4-.29c.31-.22.63-.43,1-.64a29.5,29.5,0,0,1,3.73-2.07c.15-.07.31-.13.46-.21.51-.25-.45.21-.44.18.14-.2.84-.33,1.09-.42.68-.25,1.37-.47,2.07-.67s1.41-.37,2.13-.52c.33-.06.66-.13,1-.18,1.17-.2-.68.05.19,0a32.13,32.13,0,0,1,4.7-.18c.69,0,1.39.08,2.07.16l.52.06s-1-.17-.49-.06.9.15,1.34.24a30.46,30.46,0,0,1,4.2,1.19c.31.11.62.25.93.36.54.19-.45-.18-.43-.19s.39.18.45.21c.7.33,1.39.66,2.07,1s1.23.71,1.82,1.1l.82.55c.19.13,1.18.73.55.38s.21.18.39.32.58.49.86.75q.79.71,1.53,1.47c.49.51,1,1,1.42,1.58.14.17.58.54.62.76,0,0-.6-.83-.29-.36.12.18.26.35.39.53a30.22,30.22,0,0,1,2.28,3.79c.15.3.29.59.43.89.07.15.13.31.21.45.25.51-.21-.44-.18-.43.39.24.65,1.74.8,2.19a34.73,34.73,0,0,1,1,4.26c.17,1-.09-.94,0,0,0,.34.07.69.1,1,.07.81.1,1.63.1,2.44a5,5,0,0,0,10,0,35.21,35.21,0,0,0-23.08-32.73,34.86,34.86,0,0,0-38.24,10.33,35.64,35.64,0,0,0-8.11,20,34.64,34.64,0,0,0,20,33.92,35.85,35.85,0,0,0,21.88,2.54c13.65-2.72,25-14.4,27.09-28.2a40.46,40.46,0,0,0,.51-5.82,5,5,0,0,0-10,0Z" transform="translate(-91.7 -164.61)"/><ellipse class="cls-2" cx="741.49" cy="324.47" rx="12.89" ry="22.35"/><path class="cls-2" d="M684.9,502l-10.06,9.14a4,4,0,0,0,0,5.66,4.09,4.09,0,0,0,5.66,0l10.06-9.14a4,4,0,0,0,0-5.66,4.1,4.1,0,0,0-5.66,0Z" transform="translate(-91.7 -164.61)"/><path class="cls-2" d="M694.34,513.72q-5.85,5.56-11.19,11.64a4.24,4.24,0,0,0-1.17,2.82,4.07,4.07,0,0,0,1.17,2.83c1.52,1.39,4.19,1.68,5.66,0,3.55-4,7.29-7.92,11.18-11.63a4,4,0,0,0-5.65-5.66Z" transform="translate(-91.7 -164.61)"/><path class="cls-2" d="M706.15,518.6a41.25,41.25,0,0,1-1.2,4.07c-.12.33-.24.66-.37,1a3.3,3.3,0,0,1-.39,1c.23-.55.27-.63.09-.23l-.21.49-.39.84a41.56,41.56,0,0,1-4.35,7.1,4,4,0,0,0-.41,3.08,4.14,4.14,0,0,0,1.84,2.4,4,4,0,0,0,3.08.4,4.64,4.64,0,0,0,2.39-1.84,43.81,43.81,0,0,0,7.63-16.16,4,4,0,0,0-7.71-2.13Z" transform="translate(-91.7 -164.61)"/><path class="cls-2" d="M849.86,522.43a34.22,34.22,0,0,1,2.3,8.49l-.14-1.06a35.8,35.8,0,0,1,.29,5.28,4,4,0,0,0,4,4,4.09,4.09,0,0,0,4-4,37.13,37.13,0,0,0-2.73-14.84,4.43,4.43,0,0,0-1.84-2.39,4.09,4.09,0,0,0-3.08-.4,4,4,0,0,0-2.39,1.84,3.84,3.84,0,0,0-.41,3.08Z" transform="translate(-91.7 -164.61)"/><path class="cls-2" d="M862.5,518.38a126.44,126.44,0,0,0,7.61,11,4.35,4.35,0,0,0,2.39,1.84,4.09,4.09,0,0,0,3.08-.4,4,4,0,0,0,1.84-2.39,3.89,3.89,0,0,0-.4-3.08,128.93,128.93,0,0,1-7.62-11,4,4,0,0,0-6.9,4Z" transform="translate(-91.7 -164.61)"/><path class="cls-2" d="M873,514.27a57.77,57.77,0,0,0,10,4.34,4,4,0,1,0,2.13-7.71c-1.32-.44-2.62-.92-3.9-1.46l.95.4a53.06,53.06,0,0,1-5.09-2.47A4.14,4.14,0,0,0,874,507a4,4,0,0,0-1,7.31Z" transform="translate(-91.7 -164.61)"/><path class="cls-2" d="M767.72,550.25a20.43,20.43,0,0,0,13.12,17.17c6.89,2.78,15.39,1.08,21.26-3.25,3.86-2.85,7.06-6.58,8.35-11.28a5,5,0,0,0-9.65-2.66c-.07.26-.37,1.89-.15.66a4.38,4.38,0,0,1-.53,1.06c-.26.46-.56.89-.85,1.34.46-.71.09-.11-.21.23a19.84,19.84,0,0,1-1.95,1.94c-.18.16-1.18.82-.21.19-.44.28-.85.6-1.3.87-.72.45-1.48.81-2.24,1.2-.33.15-.23.11.3-.13l-.73.28c-.37.13-.74.24-1.11.35s-1,.27-1.51.37c-.33.06-1.38.45-.2.06a9,9,0,0,1-2.7.09,5.62,5.62,0,0,1-1.16-.09c1.33.39-.3-.1-.58-.16s-.68-.18-1-.29c-.14,0-1.45-.58-.72-.24s-.55-.29-.68-.36c-.31-.16-.61-.34-.91-.53s-.4-.25-.59-.39c-.44-.32-.39-.27.16.15a6.77,6.77,0,0,0-.81-.68,7.05,7.05,0,0,1-1.7-1.79c.42.55.47.61.15.17-.1-.14-.2-.29-.29-.44q-.33-.51-.63-1.05a5.85,5.85,0,0,0-.46-.94c.27.67.31.74.11.23-.08-.22-.15-.44-.22-.66s-.19-.67-.26-1-.09-.46-.13-.69c.09.75.11.84.05.28-.23-2.59-2.13-5.13-5-5-2.5.11-5.25,2.21-5,5Z" transform="translate(-91.7 -164.61)"/><path class="cls-2" d="M492.28,631.7a153.2,153.2,0,0,0,.93,32.95,210,210,0,0,0,4.92,23.29c2.45,9.59,4.57,19.23,6.06,29,.76,5.06,1.52,10.23,1.23,15.36,0,.5-.08,1-.13,1.5-.15,1.55.24-.89-.1.6-.21.93-.39,1.85-.67,2.77a11.17,11.17,0,0,1-1.23,3c-2.78,5.26-7,9.88-12.85,11.78-8.94,2.91-16.95-1.81-24.12-6.88l-1.2-.86c-1.29-1,.72.58-.55-.43-.77-.62-1.54-1.26-2.28-1.92a65.65,65.65,0,0,1-4.72-4.57,79.37,79.37,0,0,1-7.72-9.47,146.41,146.41,0,0,1-12.73-22.39A211.51,211.51,0,0,1,428,682.31q-2.59-7.83-4.69-15.8a5.12,5.12,0,0,0-4.82-3.67,466,466,0,0,0-55.18-.7,5.14,5.14,0,0,0-4.83,3.67,204.36,204.36,0,0,1-12.46,33.79c-4.47,9.53-9,18.67-16.07,26a83.73,83.73,0,0,1-6.88,6.44,43.56,43.56,0,0,1-4.72,3.52,58.2,58.2,0,0,1-6.39,3.73,35.86,35.86,0,0,1-6.6,2.53,27,27,0,0,1-7.24,1.18,32,32,0,0,1-3.92-.1l-.91-.09.14,0c-.4-.06-.8-.12-1.2-.2a31.56,31.56,0,0,1-5.87-1.62,19.53,19.53,0,0,1-6.71-4.71,19.22,19.22,0,0,1-3.41-5.66,30.17,30.17,0,0,1-1.3-14.6c2-12.78,9.87-23.62,15-35.23,6.55-14.82,9-30.7,9-46.84,0-24-3.79-48.11-7.86-71.69-3.52-20.44-8.84-40.47-12.94-60.78q-3.39-16.81-5.3-33.87c-1.33-11.73-2.6-23.6-1.56-35.4a79,79,0,0,1,8.86-29.85,70.79,70.79,0,0,1,16-20.75,68.51,68.51,0,0,1,33.4-16.21A72,72,0,0,1,343,364.27c1.66,0,3.31.05,5,.15q1,0,1.95.12l1,.1c.19,0,1.67.19.9.09s.5.08.75.12l1.07.18c.93.17,1.85.35,2.76.56,1.85.42,3.68.91,5.5,1.45,4.29,1.27,8.5,2.79,12.67,4.39,12,4.59,23.79,9.59,35.52,14.74q7.05,3.1,14,6.35a5.2,5.2,0,0,0,6.06-.79,286,286,0,0,1,25.45-22.07c10.13-7.77,20.33-14.41,32.64-17.65a78.18,78.18,0,0,1,42.26.64,73.25,73.25,0,0,1,30.1,18c1.79,1.76,3.51,3.6,5.15,5.5.79.92,1.56,1.86,2.31,2.8l.41.52c.47.61-.44-.59,0,0l1.13,1.53a91.47,91.47,0,0,1,6,9.32c1.08,1.93,2.08,3.91,3,5.92l.41.92c.6,1.35-.4-1,0,0,.27.69.54,1.37.79,2.06a43.19,43.19,0,0,1,1.39,4.81c.23,1,.42,1.92.58,2.89.09.51.17,1,.25,1.54,0,.28.35,1.22,0,.31s0,.13.05.46a137.78,137.78,0,0,1,.66,18.95c-.51,25.36-3.63,50.76-6.93,75.88-.31,2.3-.65,4.8-1,7.54-.32,2.24-.66,4.47-1,6.7-.52,3.31-1.08,6.62-1.66,9.92-.9,5.15-1.81,10.29-2.39,15.49-1.13,10-1.45,20.08-2,30.11-.69,12.62-1.34,25.27-1.31,37.92A176.55,176.55,0,0,0,568.75,641a145.64,145.64,0,0,0,4.93,18.41,113.1,113.1,0,0,1,4.59,25.85c.5,6.9.84,14.11,0,21-.1.83.13-.68,0,.19-.06.35-.12.7-.19,1.05-.14.65-.29,1.28-.48,1.91a13.51,13.51,0,0,1-1.7,3.79,10.31,10.31,0,0,1-5.84,4.48,15.79,15.79,0,0,1-7.56.47,24.82,24.82,0,0,1-8.52-3.5c-5.16-3.2-8.68-7.61-11.81-12.36a181.25,181.25,0,0,1-18.62-38.13q-2.91-8.07-5.28-16.32a5.1,5.1,0,0,0-4.82-3.67l-13.76.12c-6.43,0-6.44,10,0,10l13.76-.12-4.82-3.67a244.7,244.7,0,0,0,14.23,37.79,161.71,161.71,0,0,0,11.28,20c3.87,5.77,8.37,10.9,14.24,14.7,6.24,4,13.5,6.17,20.92,5.11a21.21,21.21,0,0,0,16.41-12c3-6.49,3-13.69,3-20.7A157.84,157.84,0,0,0,587,673.7a100,100,0,0,0-4.19-18.55,106.25,106.25,0,0,1-3.49-12.09q-.69-3.16-1.19-6.38c-.09-.55-.16-1.1-.24-1.64,0-.22-.13-1,0,.08,0-.28-.07-.56-.1-.84-.15-1.14-.27-2.28-.38-3.42a250.34,250.34,0,0,1-.67-32.29c.43-14.57,1.32-29.13,2.19-43.68.2-3.36.44-6.71.79-10l.21-1.87.12-1,.06-.47c.1-.86-.1.36-.08.53a14.78,14.78,0,0,1,.53-3.52c1-5.94,2.08-11.85,3-17.8,4.11-26.4,7.2-53.13,8.77-79.8.78-13.24,1.64-27.35-1.6-40.37-2.46-9.9-8.13-19.2-14.29-27.18a89.17,89.17,0,0,0-25.26-22.6,84.51,84.51,0,0,0-43.86-11.38c-14.17.21-28.65,3.66-41,10.78-10.29,6-19.69,13.64-28.75,21.3q-7.44,6.32-14.41,13.15l6.06-.78c-11.81-5.47-23.77-10.56-35.78-15.56-9.8-4.07-19.65-8.31-29.87-11.22-18.74-5.35-39.55-3.05-57,5.5-19.24,9.44-33.18,26.91-40.44,46.82-4.52,12.38-5.75,25.72-5.07,38.82a380.83,380.83,0,0,0,4.31,38.56c3.23,20.72,8.67,40.95,12.9,61.47,2.7,13.17,4.87,26.45,6.76,39.76,1.66,11.65,3,23.36,3.61,35.11a163.32,163.32,0,0,1-.65,27.53l-.18,1.48c.13-1,0,.16-.09.54-.15,1-.32,2-.5,3.06-.33,1.84-.71,3.68-1.15,5.5A91.44,91.44,0,0,1,282.85,672c-.31.84-.64,1.67-1,2.5-.07.18-.14.35-.22.53-.27.67.35-.79.06-.13-.21.47-.41.94-.62,1.4-1.37,3.07-2.9,6.06-4.45,9-3.34,6.42-6.76,12.84-9.16,19.69-3.9,11.19-4.51,25.25,2.71,35.32,6.84,9.55,19.13,13.75,30.6,12.47,11.11-1.24,20.9-6.64,29.38-13.7a76.55,76.55,0,0,0,16.58-19,163.43,163.43,0,0,0,8.08-15.82c3.13-6.67,6-13.45,8.51-20.39q2.73-7.63,4.82-15.46l-4.82,3.67a466,466,0,0,1,55.18.7l-4.82-3.67a252.28,252.28,0,0,0,12.69,36.67c7.1,16.28,16.47,32.92,30.34,44.39,7.67,6.33,16.87,12.12,27.06,12.6,10.52.5,19.57-5.47,25.6-13.64a31.87,31.87,0,0,0,6.08-19.81,130.52,130.52,0,0,0-2.18-18.47q-1.32-8.07-3.16-16c-1.91-8.27-4.3-16.44-5.93-24.78q-.65-3.24-1.12-6.51c0-.21-.2-1.37-.14-.93s-.1-.79-.12-1c-.15-1.21-.29-2.43-.4-3.64a142.84,142.84,0,0,1-.63-16.29c0-3.34.23-6.68.49-10,.22-2.69-2.45-5-5-5a5.11,5.11,0,0,0-5,5Z" transform="translate(-91.7 -164.61)"/><path class="cls-2" d="M446.37,498a34.75,34.75,0,0,0,61.32,22.41,35.64,35.64,0,0,0,8.11-20,34.66,34.66,0,0,0-19.95-33.93A35.78,35.78,0,0,0,474,464c-13.66,2.72-25,14.4-27.09,28.19a40.71,40.71,0,0,0-.51,5.82,5,5,0,0,0,10,0c0-.75,0-1.51.08-2.26,0-.35.06-.69.1-1,.13-1.18-.13.66,0-.19a32.74,32.74,0,0,1,1-4.27c.22-.69.5-1.35.74-2s-.18.45-.19.43.18-.39.21-.46c.16-.34.32-.69.5-1a29.07,29.07,0,0,1,2.28-3.79c.12-.17.65-1.06.29-.42s.18-.21.32-.39c.49-.58,1-1.15,1.53-1.7s.92-.92,1.41-1.36c.28-.26.56-.51.86-.75s1.13-.77.51-.43.25-.17.42-.29.53-.37.81-.55c.64-.42,1.29-.82,2-1.19s1.26-.67,1.91-1c.15-.07.31-.13.46-.21.5-.25-.45.21-.44.18.12-.18.88-.34,1.09-.42a29,29,0,0,1,4.19-1.18l1.17-.22c1-.18-.94.09,0,0,.81-.09,1.61-.16,2.42-.18a32.42,32.42,0,0,1,4.52.18c1,.1-.92-.16,0,0l1,.18c.77.15,1.54.34,2.29.55s1.28.39,1.91.62c.37.13.72.29,1.09.41.54.18-.47-.17-.43-.18s.51.22.6.27a28.94,28.94,0,0,1,3.74,2.07l.82.55c.2.14,1.17.73.54.38s.22.18.39.32l.87.75a29.33,29.33,0,0,1,3,3.05c.17.2.77,1.13.43.51s.17.25.28.42c.45.62.86,1.26,1.26,1.92s.65,1.14.95,1.73c.15.29.3.59.44.88l.21.45c.47,1-.27-.74-.05-.12a42.2,42.2,0,0,1,1.32,4.13c.16.66.3,1.33.41,2,.2,1.16-.06-.73,0,.19,0,.4.08.8.11,1.21a28.55,28.55,0,0,1,0,4.53c0,.35-.05.69-.09,1-.15,1.3.13-.71,0,.2-.13.73-.27,1.45-.44,2.16a42.39,42.39,0,0,1-1.32,4.14c-.23.63.41-.88.11-.28l-.2.45c-.14.3-.28.6-.43.9-.35.68-.72,1.35-1.12,2s-.69,1.11-1.07,1.65c-.09.12-.44.78-.58.79,0,0,.78-1,.18-.23l-.41.5a31.46,31.46,0,0,1-3,3c-.33.29-1.07,1.19-1.5,1.26,0,0,1-.72.23-.19-.14.09-.27.19-.4.29-.31.22-.63.43-1,.64a28.94,28.94,0,0,1-3.74,2.07l-.45.21c-.51.25.45-.21.43-.18-.13.2-.83.33-1.08.42-.68.24-1.37.47-2.07.66s-1.41.38-2.13.52l-1,.19c-1.17.2.68,0-.2,0a30.61,30.61,0,0,1-4.69.17c-.7,0-1.39-.08-2.08-.15l-.51-.06s1.05.16.48.06l-1.34-.25a30.29,30.29,0,0,1-4.19-1.18c-.31-.12-.62-.25-.93-.36-.54-.19.45.17.43.18s-.39-.17-.46-.2c-.69-.33-1.38-.67-2.06-1s-1.23-.71-1.83-1.1l-.81-.55c-.19-.13-1.18-.74-.55-.38s-.21-.18-.39-.33l-.86-.74c-.53-.47-1-1-1.53-1.47s-1-1-1.42-1.58c-.15-.17-.58-.54-.62-.76,0,0,.6.83.29.36-.12-.18-.26-.35-.39-.53a29.75,29.75,0,0,1-2.28-3.79c-.15-.3-.3-.6-.43-.9s-.13-.3-.21-.45c-.25-.51.21.45.18.43-.39-.24-.65-1.74-.8-2.18a32.74,32.74,0,0,1-1-4.27c-.17-.95.09.94,0,0,0-.35-.08-.69-.1-1-.07-.82-.1-1.63-.1-2.45a5,5,0,0,0-10,0Z" transform="translate(-91.7 -164.61)"/><ellipse class="cls-2" cx="406.32" cy="332.61" rx="12.89" ry="22.35"/><path class="cls-2" d="M310.58,498.05a35.23,35.23,0,0,0,23.08,32.74,34.88,34.88,0,0,0,38.24-10.34,35.61,35.61,0,0,0,8.11-20,34.66,34.66,0,0,0-19.95-33.92A35.86,35.86,0,0,0,338.18,464c-13.66,2.72-25,14.4-27.09,28.2a40.46,40.46,0,0,0-.51,5.82,5,5,0,0,0,10,0c0-.76,0-1.51.08-2.27,0-.34.06-.69.1-1,.13-1.19-.13.65,0-.2a32.6,32.6,0,0,1,1-4.26c.22-.69.5-1.36.74-2,.19-.53-.18.46-.19.43s.18-.39.21-.45c.16-.35.32-.7.5-1a29.86,29.86,0,0,1,2.28-3.8c.12-.17.65-1.05.29-.41s.18-.22.32-.39c.49-.59,1-1.16,1.53-1.7s.92-.93,1.41-1.37c.28-.25.56-.5.86-.75s1.13-.77.51-.42.25-.17.42-.29.53-.38.81-.56c.64-.42,1.29-.82,2-1.19s1.26-.67,1.91-1l.45-.2c.51-.26-.44.2-.43.18.11-.19.88-.35,1.09-.42a29,29,0,0,1,4.19-1.19l1.17-.22c1-.18-.94.1,0,0,.81-.08,1.61-.15,2.42-.18a34.1,34.1,0,0,1,4.52.18c1,.1-.92-.16,0,0l1,.19c.77.15,1.53.33,2.29.55s1.28.38,1.91.61c.37.13.72.29,1.09.41.54.18-.47-.17-.43-.18s.51.23.6.27a28.94,28.94,0,0,1,3.74,2.07l.82.55c.2.14,1.17.74.54.39s.22.17.39.32.59.49.87.74a31.46,31.46,0,0,1,2.95,3c.17.21.77,1.13.42.52s.18.24.29.41c.45.63.86,1.27,1.26,1.92s.65,1.14,1,1.73c.15.29.3.59.44.89l.21.45c.47,1-.27-.74-.05-.13a42.39,42.39,0,0,1,1.32,4.14c.16.66.3,1.32.41,2,.2,1.17-.06-.72,0,.2,0,.4.08.8.11,1.2a28.67,28.67,0,0,1,0,4.54c0,.34-.06.69-.09,1-.15,1.29.13-.71,0,.2-.13.72-.27,1.44-.44,2.16a43.27,43.27,0,0,1-1.32,4.14c-.23.63.41-.88.11-.28-.07.14-.13.3-.2.45-.14.3-.28.6-.43.89-.35.69-.72,1.36-1.12,2s-.69,1.11-1.07,1.65c-.09.12-.44.78-.58.8,0,0,.78-1,.18-.24-.14.17-.27.34-.41.5a29.33,29.33,0,0,1-2.95,3c-.33.3-1.07,1.19-1.5,1.26,0,0,1-.71.23-.19l-.4.29c-.31.22-.63.44-.95.64a29,29,0,0,1-3.74,2.08l-.45.2c-.51.25.45-.2.43-.18-.13.21-.83.33-1.08.42-.68.25-1.37.47-2.07.67s-1.41.37-2.13.52c-.33.07-.66.13-1,.18-1.17.2.68-.05-.2,0a31.94,31.94,0,0,1-4.69.18c-.7,0-1.39-.08-2.08-.16l-.51-.06s1,.17.48.06-.89-.15-1.34-.24a29,29,0,0,1-4.19-1.19c-.32-.11-.62-.25-.93-.36-.54-.19.45.18.43.19s-.39-.18-.46-.21c-.69-.32-1.38-.66-2.06-1s-1.23-.71-1.83-1.1c-.27-.17-.54-.36-.81-.55s-1.18-.73-.55-.38-.21-.18-.39-.32-.58-.49-.86-.75q-.79-.7-1.53-1.47c-.49-.51-1-1-1.42-1.58-.15-.17-.59-.54-.62-.76,0,0,.6.83.29.37-.13-.19-.26-.36-.39-.53a29.86,29.86,0,0,1-2.28-3.8c-.15-.29-.3-.59-.43-.89-.07-.15-.13-.31-.21-.45-.25-.51.21.44.18.43-.39-.24-.65-1.74-.8-2.19a33,33,0,0,1-1-4.26c-.17-1,.09.94,0,0,0-.34-.08-.69-.1-1-.07-.81-.1-1.63-.1-2.44a5,5,0,0,0-10,0Z" transform="translate(-91.7 -164.61)"/><ellipse class="cls-2" cx="270.53" cy="332.64" rx="12.89" ry="22.35"/><path class="cls-2" d="M504.85,515.8,514.91,525a4.2,4.2,0,0,0,2.82,1.17,4,4,0,0,0,4-4,4,4,0,0,0-1.17-2.83l-10.06-9.14a4.2,4.2,0,0,0-2.83-1.17,4,4,0,0,0-2.82,6.82Z" transform="translate(-91.7 -164.61)"/><path class="cls-2" d="M495.42,527.54q5.83,5.57,11.18,11.64a4,4,0,0,0,5.65,0,4.09,4.09,0,0,0,0-5.66q-5.33-6.06-11.18-11.64a4,4,0,0,0-5.65,5.66Z" transform="translate(-91.7 -164.61)"/><path class="cls-2" d="M481.54,528.9a44,44,0,0,0,7.63,16.16,4.41,4.41,0,0,0,2.39,1.83,4.07,4.07,0,0,0,3.09-.4c1.64-1.06,2.78-3.69,1.43-5.47a41.4,41.4,0,0,1-4.35-7.11l-.39-.84-.22-.48c-.17-.4-.14-.33.1.22-.19-.17-.3-.74-.4-1l-.36-1a41.06,41.06,0,0,1-1.2-4.06,4,4,0,0,0-4.92-2.79,4.09,4.09,0,0,0-2.8,4.92Z" transform="translate(-91.7 -164.61)"/><path class="cls-2" d="M337.83,528.47a37.09,37.09,0,0,0-2.73,14.83,4,4,0,0,0,8,0,34.48,34.48,0,0,1,.29-5.28l-.14,1.06a34.75,34.75,0,0,1,2.29-8.49,4,4,0,0,0-.4-3.08,4.11,4.11,0,0,0-2.39-1.84,4,4,0,0,0-3.08.41,4.66,4.66,0,0,0-1.84,2.39Z" transform="translate(-91.7 -164.61)"/><path class="cls-2" d="M326,522.51a126.44,126.44,0,0,1-7.61,11,4,4,0,0,0,1.44,5.47,4.05,4.05,0,0,0,3.08.41l.95-.41a4,4,0,0,0,1.44-1.43,128,128,0,0,0,7.61-11,4,4,0,1,0-6.91-4Z" transform="translate(-91.7 -164.61)"/><path class="cls-2" d="M318.35,515.53a52.18,52.18,0,0,1-5.1,2.48l1-.4c-1.28.53-2.58,1-3.9,1.45a4.24,4.24,0,0,0-2.39,1.84,4,4,0,0,0,1.43,5.48,4.05,4.05,0,0,0,3.08.4,59.11,59.11,0,0,0,10-4.34,4.16,4.16,0,0,0,1.84-2.39,4,4,0,0,0-5.88-4.52Z" transform="translate(-91.7 -164.61)"/><path class="cls-2" d="M421.93,560.64c-.06.56,0,.47.05-.28,0,.23-.08.46-.13.68s-.16.68-.26,1-.14.44-.22.66c-.2.51-.16.43.11-.23,0,.27-.34.72-.46.94s-.34.61-.53.91l-.39.58c-.32.44-.27.38.15-.17-.17.06-.57.66-.69.8-.32.34-.66.67-1,1a5.14,5.14,0,0,1-.8.68c1.14-.68,0,0-.29.14-.47.31-1.43,1.1-2,1.1.66-.27.73-.3.22-.1l-.67.23c-.34.11-.68.2-1,.29-.14,0-1.63.32-.86.19s-.72,0-.87.06a8.4,8.4,0,0,1-2.7-.1c1.15.39.11,0-.21-.06s-.88-.19-1.32-.31-.87-.25-1.3-.4-1.06-.32-.25-.07a10.79,10.79,0,0,1-2.42-1.28c-.44-.27-.87-.57-1.29-.87.69.48.14.12-.22-.19a19.84,19.84,0,0,1-2-1.94c-.18-.2-.76-1.17-.21-.23-.27-.46-.59-.88-.85-1.34a6.17,6.17,0,0,1-.53-1.06c.4,1.24-.09-.44-.15-.66a5,5,0,1,0-9.64,2.65c2.09,7.64,9.36,13.48,16.91,15.22s15.43-.27,20.63-6a20,20,0,0,0,5.18-11.85c.24-2.61-2.47-5.11-5-5a5.13,5.13,0,0,0-5,5Z" transform="translate(-91.7 -164.61)"/><path class="cls-2" d="M423,384.66,401.6,408c-1.76,1.93-2.05,5.19,0,7.07s5.19,2.06,7.07,0L430,391.73c1.77-1.93,2.05-5.19,0-7.07a5.07,5.07,0,0,0-7.07,0Z" transform="translate(-91.7 -164.61)"/><path d="M95.57,164.61H94.2a1.9,1.9,0,0,0-1,.22,1.82,1.82,0,0,0-.8.52,1.85,1.85,0,0,0-.52.8,1.88,1.88,0,0,0-.21,1l.09.67a2.5,2.5,0,0,0,.64,1.1l.51.39a2.43,2.43,0,0,0,1.26.34h1.37a1.8,1.8,0,0,0,1-.21,1.82,1.82,0,0,0,.8-.52,1.85,1.85,0,0,0,.52-.8,1.89,1.89,0,0,0,.21-1l-.09-.66a2.41,2.41,0,0,0-.64-1.1l-.5-.39a2.58,2.58,0,0,0-1.27-.35Z" transform="translate(-91.7 -164.61)"/></g></svg>