<svg xmlns="http://www.w3.org/2000/svg" viewBox="0 0 670.64 830.08"><defs><style>.cls-1{fill:#3f8e93;}.cls-2{fill:#22565a;}.cls-3{fill:#fff;}.cls-4{fill:#b8d8ef;}</style></defs><g id="Слой_6" data-name="Слой 6"><path class="cls-1" d="M758.51,630.56c-.56,2.35-2.11,1.47-1.07,1.34l.52-.11c.51-.1,1-.18,1.54-.3a16.85,16.85,0,0,0,4.44-1.7,20.51,20.51,0,0,0,6.11-5.66,19,19,0,0,0,3.91-8.55,34.35,34.35,0,0,0,.51-10.51c-.38-2.76-5.24-2.13-4.91.67.79,6.63,1.81,13.36,6.12,18.72s10.68,6.4,17.08,7v-5c-7.21.66-13.71,4.42-16.34,11.4a48.22,48.22,0,0,0-2.3,11c-.17,1.48-.29,3-.39,4.45,0,.52-.07,1-.1,1.56,0,.31-.19.52,0-.08-.21.58.42-.65.48-.7l1.11-.64h1.29c1.32,1.78,1.84,2.28,1.58,1.5a1.29,1.29,0,0,1,0-.19,1.59,1.59,0,0,1-.07-.38c.18.8,0,0,0-.2s-.05-.43-.08-.65c-.18-1.47-.38-2.93-.68-4.38A31.8,31.8,0,0,0,773,638.59a22.14,22.14,0,0,0-7.5-7.59,25.5,25.5,0,0,0-5.46-2.24c-.65-.19-1.31-.35-2-.54a3.52,3.52,0,0,0-.6-.2,1.19,1.19,0,0,1,.79.69l.34,1.26v-.08a2.57,2.57,0,0,0-2.5-2.5,2.52,2.52,0,0,0-2.5,2.5c.28,2.69,2.81,3,4.95,3.65a16.7,16.7,0,0,1,7.49,4.14c3.79,3.85,5.79,9.2,6.65,14.43.16,1,.17,1.14.29,2.12a13.22,13.22,0,0,0,.33,2.17,2.65,2.65,0,0,0,5.16-.25,47,47,0,0,0,.52-6.06,57.49,57.49,0,0,1,1.63-8.93,12.07,12.07,0,0,1,4.25-6.78,15.62,15.62,0,0,1,7.89-2.91,2.5,2.5,0,0,0,0-5c-5.06-.48-10.26-1.23-13.55-5.55s-4-10-4.65-15.18l-4.91.66a26.82,26.82,0,0,1-.78,9.22,12.93,12.93,0,0,1-1.67,3.94,21,21,0,0,1-2,2.64,12.8,12.8,0,0,1-6.22,4.25c-1.84.53-4.78.41-5.34,2.78C753,632.36,757.77,633.69,758.51,630.56Z" transform="translate(-278.55 -130.85)"/><path class="cls-1" d="M818.06,571.73a2.1,2.1,0,0,1-.87,1.15c-.41.16-.48.2-.21.11a5.36,5.36,0,0,0,.75-.17c.61-.12,1.24-.22,1.86-.35a22.35,22.35,0,0,0,5.82-2.08,25.15,25.15,0,0,0,8-7.06A25.94,25.94,0,0,0,839,551.81c.82-4.64,1.45-9.49.77-14.18-.4-2.76-5.25-2.14-4.91.66,1,8.72,2.36,17.65,8,24.72a22.26,22.26,0,0,0,9.87,7c4.06,1.49,8.45,1.89,12.72,2.3v-5c-7.35.65-14.56,3.79-18.87,10a26.34,26.34,0,0,0-3.72,9.23,97.43,97.43,0,0,0-2,12.23c-.16,1.65-.27,3.31-.38,5,0,.5-.08,1-.11,1.5s.13-.47,0,0a.66.66,0,0,1,0,.15,2.11,2.11,0,0,1,2.18-1.52l1.26.34c.33.15,1.07,1,1,1.21,0,0-.07-.25-.08-.32s-.05-.29-.08-.43c-.1-.51.06.52,0-.23-.15-1.28-.31-2.56-.5-3.84a46,46,0,0,0-2.62-10.18c-2.86-7.33-7.7-14.38-15-17.88a38.17,38.17,0,0,0-6.28-2.32c-.72-.21-1.45-.39-2.17-.6-.15-.05-1-.25-.63-.2s.11.08,0,0-.15-.09.06.06a1.79,1.79,0,0,1,.76,1.59c-.19-3.19-5.19-3.21-5,0s4.22,3.53,6.62,4.25A23,23,0,0,1,830,581.23c5,5.22,7.76,12.35,9,19.38.25,1.48.31,2,.49,3.43a17.19,17.19,0,0,0,.39,2.67,2.77,2.77,0,0,0,3.32,2.06,3.08,3.08,0,0,0,2.06-2.84c.37-2.75.39-5.56.7-8.32a71,71,0,0,1,2.36-12.25,16.68,16.68,0,0,1,5.8-8.85,22,22,0,0,1,11.32-4.19,2.5,2.5,0,0,0,0-5,47.15,47.15,0,0,1-11-2,17.28,17.28,0,0,1-8-5.77c-4.69-6-5.74-13.94-6.61-21.28l-4.91.67a27.57,27.57,0,0,1-.14,6.79,55.66,55.66,0,0,1-.9,6,17.37,17.37,0,0,1-2.2,5.41c-.53.86-1.11,1.67-1.71,2.48l-.16.21c-.11.14-.21.28-.32.41l-.63.77a18.29,18.29,0,0,1-8.54,6.06c-1.35.41-2.73.62-4.11.91s-2.68.94-3,2.36a2.57,2.57,0,0,0,1.75,3.08A2.53,2.53,0,0,0,818.06,571.73Z" transform="translate(-278.55 -130.85)"/><circle class="cls-2" cx="629.01" cy="488.49" r="12.08"/><path class="cls-1" d="M323.72,282.27a2.12,2.12,0,0,1-.87,1.16c-.41.16-.48.19-.21.1a7.2,7.2,0,0,0,.75-.16c.61-.13,1.24-.22,1.86-.36a22.35,22.35,0,0,0,5.82-2.08,25.15,25.15,0,0,0,8-7.06,25.91,25.91,0,0,0,5.55-11.51c.82-4.65,1.45-9.5.77-14.19-.4-2.75-5.25-2.13-4.91.67,1,8.72,2.36,17.64,8,24.71a22.18,22.18,0,0,0,9.87,7c4.06,1.49,8.45,1.89,12.72,2.3v-5c-7.35.65-14.56,3.79-18.87,10a26.31,26.31,0,0,0-3.72,9.24,97,97,0,0,0-2,12.22c-.16,1.65-.27,3.31-.38,5,0,.5-.08,1-.11,1.49s.13-.46,0,0a.66.66,0,0,1,0,.15,2.12,2.12,0,0,1,2.18-1.52l1.26.34c.33.15,1.07,1,1,1.22,0,0-.07-.26-.08-.32s-.05-.3-.08-.44c-.1-.51.06.52,0-.23-.15-1.28-.31-2.56-.5-3.83A46,46,0,0,0,347,301c-2.86-7.33-7.7-14.37-15-17.88a38.17,38.17,0,0,0-6.28-2.32c-.72-.2-1.45-.39-2.17-.6-.15,0-1-.25-.63-.2s.11.08,0,0-.15-.08.06.06a1.82,1.82,0,0,1,.76,1.6c-.19-3.2-5.19-3.22-5,0s4.22,3.52,6.62,4.24a23,23,0,0,1,10.22,5.92c5,5.22,7.76,12.35,9,19.38.26,1.48.31,2,.49,3.43a17.19,17.19,0,0,0,.39,2.67,2.76,2.76,0,0,0,3.32,2.06,3.06,3.06,0,0,0,2.06-2.83c.37-2.76.39-5.56.7-8.33a70.75,70.75,0,0,1,2.36-12.24,16.67,16.67,0,0,1,5.8-8.86,22.07,22.07,0,0,1,11.32-4.19,2.5,2.5,0,0,0,0-5,46.13,46.13,0,0,1-11-2,17.34,17.34,0,0,1-8-5.76c-4.69-6-5.74-13.95-6.61-21.28l-4.91.66a27.64,27.64,0,0,1-.14,6.8,56,56,0,0,1-.9,6,17.32,17.32,0,0,1-2.2,5.4c-.53.86-1.11,1.68-1.71,2.48-.29.38-.35.45-.16.22l-.32.4-.63.78a18.34,18.34,0,0,1-8.54,6.05c-1.35.42-2.73.62-4.11.92s-2.68.93-3,2.35a2.57,2.57,0,0,0,1.75,3.08A2.52,2.52,0,0,0,323.72,282.27Z" transform="translate(-278.55 -130.85)"/><path class="cls-1" d="M302.69,702.66c-.56,2.36-2.11,1.48-1.07,1.34.17,0,.35-.07.52-.1.51-.1,1-.19,1.54-.3a17.2,17.2,0,0,0,4.44-1.7,20.51,20.51,0,0,0,6.11-5.66,19,19,0,0,0,3.91-8.55,34.38,34.38,0,0,0,.51-10.51c-.38-2.76-5.24-2.14-4.91.66.79,6.63,1.81,13.36,6.12,18.72s10.68,6.4,17.08,7v-5c-7.21.66-13.71,4.41-16.34,11.39a48.3,48.3,0,0,0-2.3,11c-.17,1.48-.29,3-.39,4.45,0,.52-.07,1-.1,1.56,0,.3-.19.51,0-.09-.21.59.42-.64.48-.69l1.11-.65h1.29c1.32,1.79,1.84,2.29,1.58,1.5a1.06,1.06,0,0,1,0-.19s-.06-.34-.07-.38c.18.8,0,0,0-.2s-.05-.43-.08-.64c-.18-1.47-.38-2.93-.68-4.38a31.72,31.72,0,0,0-4.22-10.61,22.06,22.06,0,0,0-7.5-7.59,25,25,0,0,0-5.46-2.24l-2-.55a3.47,3.47,0,0,0-.6-.19,1.19,1.19,0,0,1,.79.68l.34,1.27V702a2.57,2.57,0,0,0-2.5-2.5,2.52,2.52,0,0,0-2.5,2.5c.28,2.69,2.81,3,5,3.64a16.71,16.71,0,0,1,7.49,4.15c3.79,3.84,5.79,9.19,6.65,14.43.16,1,.17,1.14.29,2.11a13.34,13.34,0,0,0,.33,2.18,2.65,2.65,0,0,0,5.16-.25,47.18,47.18,0,0,0,.52-6.06,57.49,57.49,0,0,1,1.63-8.93,12,12,0,0,1,4.25-6.78,15.44,15.44,0,0,1,7.89-2.91,2.5,2.5,0,0,0,0-5c-5.06-.49-10.26-1.24-13.55-5.55s-4-10-4.65-15.19l-4.91.67a26.76,26.76,0,0,1-.78,9.21,12.72,12.72,0,0,1-1.67,3.94,19.67,19.67,0,0,1-1.95,2.64,12.82,12.82,0,0,1-6.22,4.26c-1.84.52-4.78.41-5.34,2.77C297.13,704.46,302,705.8,302.69,702.66Z" transform="translate(-278.55 -130.85)"/><circle class="cls-2" cx="12.08" cy="500.57" r="12.08"/></g><g id="Слой_4" data-name="Слой 4"><path class="cls-3" d="M524.15,396.37c-24.46-2.31-24.16-15.16-44-13.23-23.27,2.27-39.09,21.5-43.1,26.77-9.32,12.23-12,24.5-14.28,33.08-11.11,42.52-9.73,87.2-15.42,130.78-2.38,18.26-6,36.34-9.7,54.39-10.65,52-22,104.49-44.64,152.55-3.45,7.32-6.31,17.85.64,22,6,3.58,13.29-1.53,18.25-6.43a468.42,468.42,0,0,0,82.84-110.62c2.33-4.33,4.72-8.84,8.66-11.77s10-3.73,13.6-.42c3.22,2.92,3.51,7.81,3.47,12.16a266.91,266.91,0,0,1-20.23,99.41,127,127,0,0,0,50.88-23,211,211,0,0,0,43.69,70.07c7.43,7.91,19.2,15.67,28.22,9.64,7.65-5.11,4.92-22.42,3.89-29.28-3.64-24.29-6.23-63-3.07-128.42a246.33,246.33,0,0,0,24,53.17s16.6,27.43,36.45,35.77c3.23,1.35,7.24,2.26,11.29,1,5.44-1.73,8.62-7.67,9-13.37s-1.47-11.27-3.12-16.73A290.06,290.06,0,0,1,672.2,547.79c8.87-20.8,20.36-41.11,22.67-63.6,1.77-17.18-3.78-37.05-19.29-44.63-16.77-8.19-36.74,1.2-55.29-.77l-3.69-26.18c-1.88-13.31-5.19-16.72-8.17-19-5.15-4-11.59-3.66-15-3.44C558.65,392.35,542.54,398.1,524.15,396.37Z" transform="translate(-278.55 -130.85)"/><path class="cls-3" d="M524.15,393.87a47.32,47.32,0,0,1-15.59-4.05c-3.5-1.66-6.69-3.84-10.09-5.66-8.57-4.6-18.19-4.44-27.4-1.82-18.4,5.23-34.6,20.36-43,37.36-5.48,11.12-8.27,23.7-10.73,35.78a402.63,402.63,0,0,0-6.17,45.1c-2.71,30.66-3.92,61.38-9.14,91.77-5.14,29.94-11.49,59.82-18.58,89.35-7,29-15.31,57.83-27,85.31-2.56,6-5.77,11.88-7.86,18.09-1.57,4.69-2.59,10.27-.48,15,2.34,5.18,8.18,7.31,13.5,5.85,6.18-1.69,10.87-6.59,15.23-11a470.7,470.7,0,0,0,53.6-64.67q12-17.43,22.41-35.9c3.16-5.63,5.79-12.4,10.43-17,4-3.94,11.8-5.55,14,1.1.93,2.84.79,5.95.74,8.9q-.09,5.53-.4,11c-.43,7.42-1.15,14.83-2.22,22.18a267.46,267.46,0,0,1-10,43.46q-3.31,10.32-7.46,20.36c-.79,1.91,1.43,3.42,3.07,3.07a129.91,129.91,0,0,0,51.48-23.27l-3.67-1.49a215.91,215.91,0,0,0,33,58.14c6.55,8.23,13.67,17.31,23.09,22.39,7.45,4,18.56,5.08,23.29-3.55C591.83,833,591,824.26,590.1,817c-.7-5.46-1.58-10.89-2.19-16.36-1.6-14.34-2.38-28.78-2.73-43.2-.6-24.46,0-48.94,1.2-73.38l-4.91.67a253.19,253.19,0,0,0,21.79,49.55,134,134,0,0,0,16.88,23.16,80.52,80.52,0,0,0,17.17,14.72c7.12,4.35,16.74,7.63,23.87,1.46s6.67-16.34,4.45-24.64c-2.62-9.79-5.64-19.4-7.74-29.34A287.39,287.39,0,0,1,676.65,543.8c8.14-18.27,17.62-36.45,20.35-56.51,2-15.13-.54-32.63-11.77-43.85-6.07-6.06-14.11-9.06-22.57-9.67-9.54-.68-19,1.41-28.46,2.34a71.05,71.05,0,0,1-13.91.18l2.41,1.84q-1.4-9.93-2.8-19.87c-.76-5.4-1.31-10.92-3-16.13-2.12-6.5-6.27-11.56-13-13.61-4.29-1.31-8.76-1-13.17-.71q-8.73.62-17.41,1.64c-8.61,1-17.17,2.36-25.77,3.47a106.53,106.53,0,0,1-23.4.95c-3.2-.29-3.18,4.71,0,5,14.38,1.31,28.77-1.8,43-3.65q7.41-1,14.87-1.69a140.16,140.16,0,0,1,14.91-1c6.68.11,12.2,3.18,14.64,9.43,2.08,5.31,2.62,11.14,3.41,16.74q1.47,10.38,2.93,20.77a2.52,2.52,0,0,0,2.41,1.83c9.24.9,18.39-.78,27.54-1.86,8.79-1,18.29-1.71,26.48,2.29,13.52,6.59,18.49,22.75,18.38,36.81-.16,18.91-8.59,36.89-16.28,53.76-7.89,17.28-14.9,34.76-19.78,53.15a294.06,294.06,0,0,0-7.27,113.68q1.88,14.21,5.12,28.17,1.57,6.72,3.48,13.34c1.39,4.85,3.2,9.68,3.95,14.69,1.28,8.5-2.9,18.65-13.16,16.46-7.14-1.53-13.65-6.79-18.89-11.63-18.14-16.76-29.89-39.89-38.62-62.64q-2.68-7-5-14.12a2.51,2.51,0,0,0-4.91.66c-1.74,36.1-2.54,72.5.72,108.54q.75,8.28,1.87,16.53c.82,6,1.89,12,1.8,18.09,0,3.45-.31,7.33-2.15,10.35-2,3.28-6.19,4.25-9.78,3.68-9.91-1.58-17.39-10.75-23.53-17.89a208.53,208.53,0,0,1-36.75-62c-.51-1.34-2.26-2.55-3.67-1.49a126.79,126.79,0,0,1-50.28,22.76l3.07,3.08a270.35,270.35,0,0,0,19.77-85.21c.43-6.7,1.18-13.84.23-20.52-.83-5.75-4.37-10.49-10.43-11.09s-11.34,3-14.86,7.65c-4,5.29-6.78,11.62-10.06,17.38a464.53,464.53,0,0,1-47.68,68.57q-13.47,16.07-28.35,30.88c-3.62,3.6-10,10.12-15.75,7.51-4.71-2.14-3.88-8.32-2.78-12.38,1.68-6.19,5-11.93,7.49-17.8q4.32-10.07,8.11-20.34c5.11-13.84,9.51-27.92,13.43-42.14,7.88-28.52,13.87-57.53,19.73-86.51,3.1-15.31,6-30.67,8.12-46.16,2-14.9,3.16-29.9,4.24-44.89,2.15-29.89,4.28-59.72,11.79-88.84a118.3,118.3,0,0,1,4.95-15.71,68.15,68.15,0,0,1,4.69-9.21c1-1.59,2-3.15,3.11-4.66.74-1,.73-1,1.28-1.68a76.6,76.6,0,0,1,17.46-16.25c8.76-5.79,20-10.2,30.7-8.63,7.54,1.1,13.45,6.51,20.31,9.4a54.82,54.82,0,0,0,16,3.78C527.35,399.19,527.33,394.19,524.15,393.87Z" transform="translate(-278.55 -130.85)"/><path class="cls-4" d="M483.16,693.09q11.61,33.12,22.56,66.46a5.24,5.24,0,0,1,.34,3.25,5.34,5.34,0,0,1-2.38,2.46c-9.82,6.4-19.67,12.83-30.09,18.19-2.9,1.5-6,2.95-9.26,2.86s-6.72-2.18-7.23-5.41c-.42-2.66,1.17-5.19,2.6-7.48,14.57-23.42,18.18-51.8,21.46-79.18" transform="translate(-278.55 -130.85)"/><path class="cls-4" d="M480.75,693.75q7.77,22.15,15.24,44.41c2.46,7.34,5,14.67,7.32,22.05.35,1.11.68,1.73-.31,2.49-1.42,1.11-3.06,2-4.57,3-3.19,2.08-6.39,4.14-9.62,6.15s-6.22,3.8-9.38,5.6a92.94,92.94,0,0,1-9.93,5.22c-2.45,1-5.38,1.78-7.84.42s-2.42-3.78-1.14-6.16c1.56-2.9,3.42-5.64,5-8.57,1.62-3.09,3.07-6.27,4.4-9.49a139.52,139.52,0,0,0,6.27-19.11c3.82-14.92,5.68-30.25,7.51-45.51a2.52,2.52,0,0,0-2.5-2.5,2.55,2.55,0,0,0-2.5,2.5c-1.71,14.25-3.48,28.55-6.91,42.51a145.59,145.59,0,0,1-6.36,20A101.76,101.76,0,0,1,461,766.2c-1.67,3.16-3.88,6.11-5.33,9.36-1.53,3.43-1.49,7.14,1.15,10a10.92,10.92,0,0,0,8.87,3.2c3.78-.33,7.17-2.08,10.47-3.81q5.25-2.78,10.35-5.84c3.4-2,6.75-4.13,10.09-6.27a111.79,111.79,0,0,0,9.76-6.43A5.81,5.81,0,0,0,508.7,762c0-2-.87-4-1.5-5.94q-1.84-5.62-3.73-11.26-8.75-26.25-17.9-52.38a2.55,2.55,0,0,0-3.07-1.74,2.52,2.52,0,0,0-1.75,3.07Z" transform="translate(-278.55 -130.85)"/><path class="cls-4" d="M405.32,555.26c-12.32,1.68-24.93,5.1-34.22,13.36s-14.24,22.4-8.83,33.58c4.51,9.3,14.9,14.72,19.3,24.07-10.57,1.51-19.2,11.61-19,22.28s9.1,20.51,19.7,21.7a436.08,436.08,0,0,0,19.65-111.5" transform="translate(-278.55 -130.85)"/><path class="cls-4" d="M404.65,552.85c-14.74,2-30.55,6.75-40,19.09a34.21,34.21,0,0,0-7.14,19.14c-.3,7.24,2.52,13.67,7.13,19.12,4.9,5.78,11.38,10.36,14.73,17.33l1.49-3.67c-9.13,1.39-16.78,8.52-19.68,17.16-3,9,.12,18.87,7,25.2a25,25,0,0,0,14.05,6.53,2.52,2.52,0,0,0,2.41-1.84,440.09,440.09,0,0,0,17.92-87.31q1.26-12.4,1.82-24.85c.14-3.21-4.86-3.21-5,0a434.28,434.28,0,0,1-12.77,86.87q-3,12.07-6.79,24l2.41-1.83c-7.24-.88-13.71-6.57-16.1-13.36a19.26,19.26,0,0,1,5-20.06,19.92,19.92,0,0,1,11.12-5.65c1.73-.26,2.11-2.39,1.5-3.67-5.44-11.33-20.05-17.41-21.12-30.9a28.12,28.12,0,0,1,4.89-17.54c3.69-5.62,9.19-9.68,15.19-12.58,7.27-3.51,15.34-5.22,23.29-6.32a2.53,2.53,0,0,0,1.75-3.08,2.57,2.57,0,0,0-3.08-1.74Z" transform="translate(-278.55 -130.85)"/><path class="cls-4" d="M349.43,487.65c-.19-1-1.4-1.39-2.41-1.56q-3.67-.64-7.38-1c-2.54-.24-5.37-.29-7.33,1.35-1.65,1.39-2.25,3.65-2.75,5.75a17,17,0,0,0-.69,6.25,15.28,15.28,0,0,0,2.59,5.9,10.23,10.23,0,0,0,2.22,2.67,7.68,7.68,0,0,0,3.67,1.4c5.55.73,11.09-2.78,13.85-7.65a6.51,6.51,0,0,0,1.07-3.78c-.27-2.93-3.64-4.93-3.73-7.88" transform="translate(-278.55 -130.85)"/><path class="cls-4" d="M351.84,487c-.95-3.18-4.42-3.4-7.19-3.79-3-.42-6.08-1-9.07-.61a8.67,8.67,0,0,0-7.09,4.87,24.66,24.66,0,0,0-2.19,9.2c-.15,3.29,1.26,6.25,3,8.95s4,4.71,7.38,5.22a16.41,16.41,0,0,0,14.69-6c2.13-2.55,4.18-6,3.14-9.41a12.56,12.56,0,0,0-1.92-3.52c-.36-.51-.73-1-1-1.55a3.65,3.65,0,0,1-.5-1.26,2.55,2.55,0,0,0-2.5-2.5,2.52,2.52,0,0,0-2.5,2.5,10.78,10.78,0,0,0,2.41,5.59c1,1.47,1.75,2.38,1,4.1a12.81,12.81,0,0,1-8.62,7c-1.72.38-4.05.4-5.53-.72s-2.62-3.32-3.34-5c-1-2.4-.55-4.81,0-7.25.39-1.61.74-3.67,2.19-4.69,1.81-1.27,4.76-.67,6.79-.45,1.37.15,2.74.33,4.11.55l1.71.3c.07,0,.6.08.37.07.41,0,.11.42-.12-.33.92,3.07,5.75,1.76,4.82-1.33Z" transform="translate(-278.55 -130.85)"/><path class="cls-4" d="M410.77,476.27c-12.86,5.22-36.47-12.72-44-34.44-1.18-3.4-6.05-20.87,1.69-36.57A49.17,49.17,0,0,1,396.14,381c2.43-.86,5.17-1.72,6.41-4,2-3.75-1.42-7.94-3.79-11.49-6.64-9.93-5.1-23.89,1.77-33.66s18.17-15.7,29.8-18.44c4.72-1.11,9.71-1.75,14.4-.49,3.74,1,7.06,3.15,10.26,5.32,10.57,7.16,21.19,15.61,25.66,27.57a81.9,81.9,0,0,1,19.71-13.33c6.18-2.95,10.84-5.11,17.24-4.85s11,2.79,14.32,4.61c3.53,1.94,11.5,6.32,16.07,15.77,3.67,7.58,3.34,14.68,3.14,18.91a44,44,0,0,1-1.73,10.19c-1.12,4.33-2.49,9-6.13,11.59-3.88,2.75-9.52,2.45-12.94,5.76-4.82-3.48-23.72-16.27-49.3-13.33-2.74.32-27.58,3.56-44.94,24.25C411.45,434.77,426.49,469.89,410.77,476.27Z" transform="translate(-278.55 -130.85)"/><path class="cls-4" d="M410.1,473.86a12.46,12.46,0,0,1-2,.61c-.15,0-1.08.18-.54.11-.38.05-.76.07-1.14.09a16.81,16.81,0,0,1-2.24-.06,13.36,13.36,0,0,1-2-.34,30.87,30.87,0,0,1-9.76-4.22,57.78,57.78,0,0,1-17.94-18.15,49,49,0,0,1-7.25-19.47c-1.35-9.48-.17-19.72,4.69-28.27a47,47,0,0,1,20.56-19c4.08-1.95,10.07-2.67,12.32-7.08,2.68-5.26-1.51-10.1-4.18-14.32-5.06-8-4.48-18.51-.28-26.73,4.4-8.63,12.67-14.78,21.52-18.34a51.85,51.85,0,0,1,15.22-3.89,20.55,20.55,0,0,1,8.7,1.06,34.58,34.58,0,0,1,7.22,4c8.21,5.49,16.57,11.69,22,20.13a35.86,35.86,0,0,1,3.29,6.44,2.54,2.54,0,0,0,4.18,1.11,85.8,85.8,0,0,1,23.7-15A25,25,0,0,1,520,330.38a33.05,33.05,0,0,1,11,4.22c6.46,3.56,11.9,8.29,15.09,15.15,3.6,7.74,3.42,17.42,1.28,25.54-1,3.86-1.91,8.74-5.31,11.29-1.9,1.42-4.35,1.9-6.57,2.57a16.93,16.93,0,0,0-6.87,3.59l3-.39a75.45,75.45,0,0,0-29.29-12.75,67.78,67.78,0,0,0-32.15,1.33c-13.22,3.84-25.6,11.1-34.76,21.46a66.83,66.83,0,0,0-12.81,21.76A94.23,94.23,0,0,0,418,445.21c-.37,3.1-.64,6.22-.92,9.33-.14,1.44-.27,2.88-.43,4.31s-.23,2-.46,3.44a33.65,33.65,0,0,1-1.68,6.62c-.14.35.14-.28-.15.32-.1.21-.19.41-.3.61a13.21,13.21,0,0,1-.77,1.31c-.12.17-.24.35-.37.52.39-.52-.1.1-.19.2a14.13,14.13,0,0,1-1,1c-.33.28.37-.23-.15.11-.18.11-.35.24-.54.35a7,7,0,0,1-.66.37c-.12.07-.86.39-.28.15a2.59,2.59,0,0,0-1.74,3.08,2.51,2.51,0,0,0,3.07,1.74c9.75-4.06,10-16.31,10.79-25.31A144.84,144.84,0,0,1,424.93,434a65.55,65.55,0,0,1,8.6-20.95C441.35,400.93,453.6,392,467,387.22A72.21,72.21,0,0,1,479.22,384c.56-.1,1.12-.16,1.68-.27-.26.05-.62.08-.09,0l1.78-.19a66.45,66.45,0,0,1,12.77.07,70,70,0,0,1,32.13,12l1.58,1.11a2.52,2.52,0,0,0,3-.39c1.57-1.46,3.7-2,5.71-2.6a22.71,22.71,0,0,0,6.57-2.67c4.33-3,6.06-8,7.34-12.82,2.27-8.59,3.07-18,.34-26.63-2.81-8.86-9.12-15.79-17.06-20.41a48.7,48.7,0,0,0-10.35-4.82,27.87,27.87,0,0,0-16.23.1,74.9,74.9,0,0,0-14.64,6.74,87.14,87.14,0,0,0-14.89,10.92l4.18,1.1c-3.95-10.35-11.88-18.11-20.58-24.64-4.54-3.41-9.29-7-14.57-9.13-6-2.44-12.51-1.76-18.64-.28-10.17,2.45-20.17,7.33-27.35,15.08a36,36,0,0,0-9.58,29.16,28.88,28.88,0,0,0,2.1,7.46,43.52,43.52,0,0,0,4,6.66c1.07,1.62,2.93,4.14,2,6.2-.78,1.75-3.36,2.34-5,2.92a52.75,52.75,0,0,0-24.76,18.26c-11.08,14.91-11.63,35.95-3.49,52.34a64.2,64.2,0,0,0,18.17,22c5.92,4.56,13.55,8.89,21.29,8.44a15.13,15.13,0,0,0,4.75-1,2.57,2.57,0,0,0,1.75-3.07A2.52,2.52,0,0,0,410.1,473.86Z" transform="translate(-278.55 -130.85)"/><path class="cls-4" d="M475.33,276.11c-3.21-10.82,1.84-21.51,8.2-27.7A30.2,30.2,0,0,1,504,240.13c2.85,0,11.35.1,18.38,6.46,7.5,6.78,8.14,16,8.37,19.25a33.67,33.67,0,0,1-2.59,14.89c-1.54,3.68-3.66,8.75-9.06,12.3a23.65,23.65,0,0,1-13.27,3.56A29,29,0,0,1,496.4,295C492.4,293.61,479.19,289.11,475.33,276.11Z" transform="translate(-278.55 -130.85)"/><path class="cls-4" d="M477.74,275.44c-3.77-13.17,5.2-27.38,17.89-31.43a31.23,31.23,0,0,1,3.81-1c.48-.09,1-.17,1.46-.23-.48.06.15,0,.31,0l.68-.07a31.7,31.7,0,0,1,3.9-.05,23.69,23.69,0,0,1,15.39,6.26,21.74,21.74,0,0,1,5.08,7.61,28.09,28.09,0,0,1,1.17,3.82c.14.57.26,1.15.36,1.73l.12.74c0,.16.05.32.07.48,0-.25,0-.21,0,0a32.8,32.8,0,0,1-1,13,35.45,35.45,0,0,1-3.52,8.33,18.38,18.38,0,0,1-6.72,6.84,22.93,22.93,0,0,1-15.29,2.22,37.7,37.7,0,0,1-6.57-1.91l-1.14-.44-.16-.07-.8-.35c-.94-.42-1.88-.89-2.79-1.38a25.64,25.64,0,0,1-10.69-10.23,20,20,0,0,1-1.6-3.89c-.94-3.07-5.76-1.76-4.82,1.33,3.26,10.72,12.54,17.14,22.7,20.58a31.38,31.38,0,0,0,18.3.72,23,23,0,0,0,10.58-6.38,29.17,29.17,0,0,0,5.24-8.42,37.92,37.92,0,0,0,3.44-17.79c-.41-5.64-1.8-11.26-5-16-6.77-9.88-19.17-13.49-30.55-11.16-14.63,3-26.43,16.85-25.73,32a27.71,27.71,0,0,0,1.06,6.39C473.8,279.86,478.63,278.54,477.74,275.44Z" transform="translate(-278.55 -130.85)"/><path class="cls-4" d="M772.57,275.23c.89-2.32,3.66-3.47,6.14-3.28s4.74,1.42,6.92,2.63a10.51,10.51,0,0,1,4.24,3.42,7,7,0,0,1,.39,5.74,19.82,19.82,0,0,1-2.87,5.16c-1.4,2-3,4.12-5.38,4.74-3,.79-6.16-1.24-7.7-3.93s-1.82-5.9-2.06-9a12,12,0,0,1,.44-5.55" transform="translate(-278.55 -130.85)"/><path class="cls-4" d="M774.73,276.5a3.2,3.2,0,0,1,2.84-2,8.47,8.47,0,0,1,4.3,1,23.76,23.76,0,0,1,4.88,2.78,3.86,3.86,0,0,1,1.38,3.82,12.22,12.22,0,0,1-2.27,4.7,16.27,16.27,0,0,1-3.06,3.75c-2.4,1.87-5.19.15-6.51-2.36a15.76,15.76,0,0,1-1.41-5.91c-.2-2.11-.55-4.34.22-6.37a2.53,2.53,0,0,0-1.75-3.08,2.56,2.56,0,0,0-3.07,1.75c-.95,2.51-.64,5.28-.39,7.89a22.89,22.89,0,0,0,1.92,7.91c2.19,4.51,7.6,7.46,12.38,5.15,2.27-1.09,3.85-3.16,5.26-5.16a19,19,0,0,0,3.49-6.91,9.08,9.08,0,0,0-1.69-7.72c-1.54-1.88-3.89-3.05-6-4.14-2.71-1.4-5.62-2.43-8.7-1.94a7.93,7.93,0,0,0-6.13,4.38,2.58,2.58,0,0,0,.9,3.42,2.51,2.51,0,0,0,3.42-.89Z" transform="translate(-278.55 -130.85)"/><path class="cls-4" d="M726.22,302.41a18.71,18.71,0,0,0-17.43,3.46,6.61,6.61,0,0,0-1.52,1.69,7.76,7.76,0,0,0-.82,3.23,21.27,21.27,0,0,0,.19,6.85,8.79,8.79,0,0,0,3.71,5.58,12.38,12.38,0,0,0,6.29,1.34c4.55.08,9.67-.59,12.45-4.19a10.14,10.14,0,0,0,1.48-8.65,17.24,17.24,0,0,0-4.7-7.66" transform="translate(-278.55 -130.85)"/><path class="cls-4" d="M726.88,300a21.43,21.43,0,0,0-16.46,1.73c-2.56,1.41-5.19,3.4-6,6.32a20.94,20.94,0,0,0-.58,4.8,19.54,19.54,0,0,0,.43,5.45,11.41,11.41,0,0,0,4.56,6.88c2.58,1.74,5.89,1.92,8.91,1.88,5.31-.06,11.32-1.39,14.18-6.37,3.63-6.35.42-13.63-4.24-18.4-2.25-2.3-5.79,1.23-3.54,3.54,2.86,2.92,5.33,7,4,11.22-1.2,3.67-5.31,4.74-8.75,5a19.13,19.13,0,0,1-6.45-.39,5.45,5.45,0,0,1-3.51-3.6,16.68,16.68,0,0,1-.38-7.44,3.67,3.67,0,0,1,1-2.43,13.58,13.58,0,0,1,2.48-1.83,16.29,16.29,0,0,1,13.08-1.49c3.08.95,4.4-3.88,1.33-4.83Z" transform="translate(-278.55 -130.85)"/><path class="cls-4" d="M765,373.12c7-11.75,23.14-17,35.73-11.7a48.2,48.2,0,0,1,8.16,4.67A49.13,49.13,0,0,1,815.3,371c9.48,9,11.7,24.65,5.08,35.89-2.62,4.46-6.38,8.13-10.21,11.61a38.78,38.78,0,0,1-5.43,4.31,25.15,25.15,0,0,1-17.11,3.05,39.91,39.91,0,0,1-16.18-6.93,26.28,26.28,0,0,1-8-8.05c-2.15-3.7-2.82-8.05-3.45-12.29s-1.28-8.65-.87-13,2-8.7,5.17-11.66" transform="translate(-278.55 -130.85)"/><path class="cls-4" d="M767.18,374.39c5.41-8.95,16.74-14,27.05-12.26,6.41,1.08,12.27,4.87,17.27,8.88a26.68,26.68,0,0,1,9.18,13.93,28,28,0,0,1-.49,16.48c-2.11,6.1-6.8,10.78-11.47,15a28.17,28.17,0,0,1-8,5.66,23.25,23.25,0,0,1-10.11,1.57c-6.76-.37-13.12-3.48-18.54-7.37A21.47,21.47,0,0,1,765,408.5c-1.66-3.4-2.12-7.34-2.67-11-1.07-7.24-2.11-16.13,3.72-21.73,2.33-2.23-1.21-5.77-3.53-3.54-5.89,5.66-6.56,14.2-5.66,21.86.93,7.86,1.85,16.16,7.51,22.19a40.67,40.67,0,0,0,8.95,6.85A42.3,42.3,0,0,0,784,427.66c7.5,1.94,16,1.32,22.54-3A61.08,61.08,0,0,0,815.4,417a43.67,43.67,0,0,0,7.32-9.16,31.39,31.39,0,0,0,3.79-18.7,32.67,32.67,0,0,0-7.61-18A43.77,43.77,0,0,0,810,363.8a44.84,44.84,0,0,0-10.16-5.4c-11.78-4.08-26.08,0-34.11,9.5a32.63,32.63,0,0,0-2.86,4c-1.67,2.76,2.65,5.28,4.32,2.53Z" transform="translate(-278.55 -130.85)"/><path class="cls-4" d="M589.69,380.44c-2.21-7.64,9.56-18.31,19.24-23a42.93,42.93,0,0,1,34.18-.67c10.78,4.52,19.38,14.65,20.73,26.27,11-9.23,24.44-12,32.8-7,6.26,3.76,10.42,12.33,10.81,13.15a34.76,34.76,0,0,1,2.91,9.38c1.92,13.86-9.13,25.66-11,27.6,22.15,1.2,30.92,9.26,33.67,12.22,2.56,2.76,7.21,9,8.74,11,5.22,7,7.83,10.46,8.65,13,2.88,9-4.6,19-9.85,25.78-6.13,7.95-18.89,21.79-42.63,32,2.77.4,13.64,2.31,21.12,11.94,8.64,11.12,6.21,24.12,5.55,27.64a38.85,38.85,0,0,1-9.71,19.1,42.77,42.77,0,0,1-23.3,12.95c-12.2,2.7-23-.06-25.25-3.24A10.64,10.64,0,0,1,664.5,584a6.39,6.39,0,0,1,.21-3.12q9.51-26.21,20.74-51.74c7.46-17,14-28.38,13.78-44.59-.08-4.67-.52-19.51-9.91-31.95A47.46,47.46,0,0,0,678,441.93a46.72,46.72,0,0,0-13.59-5.83c-14.86-4.07-30.47-3.1-38-2.34.15-14.17-2.16-31.44-14.08-40.71C602.62,385.54,591.64,387.15,589.69,380.44Z" transform="translate(-278.55 -130.85)"/><path class="cls-4" d="M592.11,379.78a5.29,5.29,0,0,1,0-2.71,11.16,11.16,0,0,1,1.45-3.42,30.59,30.59,0,0,1,6.09-7,47.55,47.55,0,0,1,8.11-5.77c1-.6,2.11-1.15,3.2-1.65l.44-.19c-.61.27,0,0,.16-.06.5-.2,1-.39,1.5-.56,12.49-4.41,27.51-2.87,37.75,6,5.49,4.74,9.65,11.33,10.55,18.63a2.54,2.54,0,0,0,4.27,1.77c5.35-4.44,12.09-8,19.12-8.64a19.27,19.27,0,0,1,8.4.94,17.32,17.32,0,0,1,6.83,5.12,36.89,36.89,0,0,1,4.41,6.44,30.38,30.38,0,0,1,1.94,4.24A25.49,25.49,0,0,1,708,403.5a26.75,26.75,0,0,1-2.35,9,41.16,41.16,0,0,1-8.08,11.9,2.52,2.52,0,0,0,1.76,4.26c9.56.54,19.37,2.39,27.27,7.59.58.38,1.14.79,1.7,1.2.29.22-.48-.39-.05,0l.36.29.68.57a24.75,24.75,0,0,1,1.88,1.81,124.54,124.54,0,0,1,8.31,10.43c2.87,3.83,6.06,7.63,8.25,11.91.07.13.28.7,0,0,.06.15.12.3.17.45a13.64,13.64,0,0,1,.45,1.78,12.27,12.27,0,0,1,.05,3.63,23.18,23.18,0,0,1-2.9,8.12,78.41,78.41,0,0,1-8.46,12.11,94.12,94.12,0,0,1-7.82,8.4A110.87,110.87,0,0,1,696.67,518c-1.89.82-1.46,4.27.6,4.57,8.88,1.3,17.17,6.07,21.81,14a30,30,0,0,1,3.84,15.57c0,1-.07,2-.16,3,0,.47-.09.93-.15,1.4s0,.07,0,0l-.12.78a41.41,41.41,0,0,1-1.57,6.69A37.9,37.9,0,0,1,702,585.59a45.51,45.51,0,0,1-11.08,3.8c-6,1.31-12.63,1.57-18.59-.23a11.82,11.82,0,0,1-2.44-1c-.36-.19-.71-.41-1-.63s.4.38,0,0l-.5-.49c.62.64-.22-.37-.28-.48a7.91,7.91,0,0,1-.56-1.08,10.68,10.68,0,0,1-.37-1.22c-.07-.3-.27-1.56-.09-.26,0-.08-.1-.58-.12-.81.06.69,0-.2,0-.34,0-1.65,1-3.41,1.57-5,.66-1.82,1.34-3.63,2-5.45q2-5.22,4-10.41c5.47-14,11.37-27.8,17.57-41.48a140.46,140.46,0,0,0,7.22-18.21,60.48,60.48,0,0,0,2.46-18.08c-.19-9.94-2.35-20-7.39-28.63a46.51,46.51,0,0,0-21.81-19.39c-12.31-5.19-26.31-6.19-39.54-5.51q-3.32.18-6.62.51l2.5,2.5C629,424,628,414,624.14,404.93a35.25,35.25,0,0,0-7.94-11.79,37.43,37.43,0,0,0-14.13-8,71,71,0,0,1-6.71-2.33,11.58,11.58,0,0,1-2.1-1.26c-.18-.17-.35-.34-.51-.52-.33-.37.09.22-.19-.25a2.65,2.65,0,0,1-.45-1c-1-3.07-5.79-1.76-4.83,1.33,1.3,4.17,5.06,6,8.92,7.33,4.78,1.66,9.53,3,13.73,6,7.74,5.44,11.3,14.82,12.85,23.81a86.16,86.16,0,0,1,1.08,15.55,2.51,2.51,0,0,0,2.5,2.5c12.42-1.24,25.27-1.07,37.37,2.25,9.89,2.72,18,7.79,23.95,16.07,6.16,8.52,8.76,18.9,9,29.09a55.71,55.71,0,0,1-2.17,17,132.44,132.44,0,0,1-7.18,18.21q-9.6,21.14-18.06,42.76-2.12,5.43-4.15,10.87-.93,2.5-1.85,5c-.68,1.84-1.5,3.67-1.4,5.68,0,.43.24,2.29.1.85a8.56,8.56,0,0,0,.17,1.13,12.65,12.65,0,0,0,1.76,4.3,10.53,10.53,0,0,0,5.18,3.84c5.63,2.3,12.27,2.47,18.22,1.74a51.93,51.93,0,0,0,13.32-3.38,44,44,0,0,0,22.83-20.86c4.43-8.91,5.84-20,3-29.57-3.38-11.41-12.86-19.78-24.24-22.74a34.81,34.81,0,0,0-3.63-.73l.6,4.57c19.78-8.56,37.46-22.26,49-40.62,3.39-5.37,6.14-11.7,5-18.18-.77-4.38-3.85-8-6.42-11.51-3.25-4.39-6.51-8.79-10-13a35,35,0,0,0-6-5.84c-8.89-6.73-20.68-8.9-31.56-9.52l1.77,4.27c8.7-9.05,14.46-21.79,10.69-34.35A41.24,41.24,0,0,0,704.58,380a23.44,23.44,0,0,0-7.86-6.76,22.39,22.39,0,0,0-10-2.17c-9.15.08-17.78,4.48-24.69,10.2l4.27,1.77c-2-16.33-15.68-28.55-31.52-31.3A46.18,46.18,0,0,0,613,353.17a46.86,46.86,0,0,0-15.6,8.85c-5.26,4.35-12.13,11.55-10.1,19.09C588.12,384.21,592.94,382.89,592.11,379.78Z" transform="translate(-278.55 -130.85)"/><path class="cls-3" d="M635.42,861.66c.12-5.37.89-10.13,4.31-13.23,2.62-2.38,5.8-2.73,7-3,15.17-4.07,30.66-7.8,46.36-7.44,18.54.42,36.43,6.51,54,12.54a34.84,34.84,0,0,1,5.5,2.65c6.13,3.06,9.19,4.59,10.82,6,5,4.26,4.88,12,4.79,18.66-.11,8.25-.26,19.16-7.88,26.44-6.12,5.86-13.86,6.3-27.77,7.09-2.25.13-8,.39-26.43-1.41-16-1.56-24.91-2.46-36.82-5.23-14.2-3.3-21.31-4.94-25.84-9.63C634.88,886.24,635.15,873.85,635.42,861.66Z" transform="translate(-278.55 -130.85)"/><path class="cls-3" d="M637.92,861.66c.13-5.12.89-11.24,6.5-13.12,2.61-.87,5.4-1.41,8.07-2.1,3.58-.92,7.17-1.81,10.78-2.6,14.08-3.1,28.36-4.48,42.68-2.23A162.6,162.6,0,0,1,727,846.56q5.1,1.53,10.15,3.22c3.3,1.1,6.69,2.1,9.92,3.39,2.15.86,4.15,2.12,6.22,3.16s4.46,2.2,6.59,3.46c.34.2.67.4,1,.62.16.1,1,.75.43.28a9.37,9.37,0,0,1,2.24,2.58,16.94,16.94,0,0,1,1.93,7.19,93,93,0,0,1-.21,15.65c-.48,5.16-1.83,10.57-5.21,14.65A18.45,18.45,0,0,1,749.64,907c-5.14,1.25-10.52,1.4-15.8,1.7a132.54,132.54,0,0,1-17.93-.47c-12-.92-24.1-1.94-36-4-5.84-1-11.61-2.35-17.36-3.75-4.41-1.07-9.3-2.24-13-4.13a14.49,14.49,0,0,1-3.93-2.68,22.45,22.45,0,0,1-4.68-6.57c-2.47-5.14-3-11-3.1-16.68-.06-2.94,0-5.88.07-8.82.07-3.22-4.93-3.22-5,0-.27,12.25-.44,26.22,9,35.46,3,3,7,4.66,10.93,6,5.82,1.89,11.89,3.19,17.86,4.5,12.11,2.66,24.47,3.8,36.79,5,7.94.75,16,1.64,24,1.32,5-.2,9.94-.51,14.85-1.18,4.59-.63,9.24-1.8,13-4.56A25.69,25.69,0,0,0,769,893.78c1.47-5.44,1.58-11.12,1.65-16.71s.13-12.31-3.3-17.18c-2.83-4-7.63-5.95-11.89-8.08-2.33-1.17-4.58-2.51-7-3.46-3.46-1.35-7-2.44-10.59-3.61-7.17-2.38-14.42-4.59-21.79-6.26a107.15,107.15,0,0,0-45.61-1.14c-7.6,1.31-15.09,3.16-22.54,5.14-2.63.7-5.37,1.14-7.75,2.55a13.88,13.88,0,0,0-5.84,7.32,29,29,0,0,0-1.39,9.31C632.84,864.87,637.84,864.87,637.92,861.66Z" transform="translate(-278.55 -130.85)"/><path class="cls-1" d="M644.48,840.16c-3.07-7.48-13.22-10-20.68-6.94s-12.47,10.3-15.65,17.73c-6.85,16-7,34-7.06,51.46a17.87,17.87,0,0,0,.84,6.72c1,2.42,2.91,4.29,4.8,6.08,5.66,5.35,11.65,10.89,19.17,12.88,3.1.82,6.34,1,9.48,1.68,8.15,1.78,15.26,6.87,23.34,8.94,6,1.52,12.19,1.34,18.33,1.62,27.21,1.25,53.76,11.64,81,9.88a19.81,19.81,0,0,0,6.26-1.15c4.58-1.84,7.41-6.38,9.69-10.76,8-15.38,13-32.11,17.88-48.73,1.15-3.89,2.31-7.84,2.38-11.9.1-5.63-2.16-11.46-6.68-14.82s-11.35-3.68-15.64,0c.41,7.42.54,14.95-1,22.22s-5,14.35-10.61,19.18c-5.34,4.58-12.28,6.84-19.18,8.21-27.71,5.47-56.16-1.94-83.43-9.29-3.74-1-7.54-2-10.82-4.11-5.59-3.53-9.06-9.76-10.59-16.2s-1.34-13.14-1-19.75c.33-6.77,1-14.08,5.5-19.13.61-.68,1.27-1.3,1.93-1.92" transform="translate(-278.55 -130.85)"/><path class="cls-1" d="M646.64,838.9c-3.3-7.72-12.73-10.59-20.45-9-9,1.83-15.48,9.86-19.26,17.73-4.58,9.56-6.62,20.08-7.56,30.57-.47,5.35-.65,10.72-.72,16.08,0,2.64,0,5.28-.06,7.92,0,2.79,0,5.62,1.18,8.22a19.22,19.22,0,0,0,4.59,6c1.79,1.72,3.6,3.41,5.47,5a44.74,44.74,0,0,0,12.33,8c4.89,2,10.24,1.9,15.26,3.44s9.42,4,14.13,6a47.57,47.57,0,0,0,15.56,3.59c5.56.38,11.13.35,16.69.88,10.9,1,21.63,3.32,32.38,5.36s21.88,4,33,4.2c2.79.07,5.59,0,8.37-.14a23.38,23.38,0,0,0,8-1.54c4.39-1.9,7.36-5.89,9.63-10,5.26-9.42,9.11-19.71,12.53-29.92,1.74-5.22,3.35-10.48,4.92-15.75s3.5-10.7,4-16.28c.78-9.14-4.31-19.48-14-21.27a16.25,16.25,0,0,0-7,.15c-1.91.48-5.17,1.71-6,3.67-.51,1.21-.11,3-.06,4.29s.1,2.85.11,4.28a81.18,81.18,0,0,1-.35,8.54c-.92,9.22-4.45,19.09-12.3,24.65a38.55,38.55,0,0,1-13.29,5.68,90,90,0,0,1-16.08,2.33c-22.61,1.35-44.89-4.33-66.55-10.15-4.86-1.3-10.23-2.33-14.29-5.5a22.82,22.82,0,0,1-7.18-10.49,45.54,45.54,0,0,1-2.12-15.3,87.49,87.49,0,0,1,1-14.91,23.74,23.74,0,0,1,1.79-6.06,18,18,0,0,1,4.17-5.42c2.35-2.2-1.19-5.73-3.53-3.53a22.54,22.54,0,0,0-6,8.79,38.46,38.46,0,0,0-2,10.09c-.66,7.72-1,15.81.65,23.44,1.38,6.49,4.6,12.95,9.89,17.12a29.92,29.92,0,0,0,10.24,4.94c3.83,1.14,7.72,2.12,11.59,3.14,15.84,4.17,31.93,7.91,48.33,8.83A115,115,0,0,0,738,915.5c7.24-1.13,14.7-3,20.86-7.09,13-8.66,16.08-24.82,15.8-39.41,0-2.07-.13-4.12-.25-6.18l-.73,1.77c3.67-3,9.54-2.23,13,.73,4.07,3.5,5.45,9,5,14.22a52,52,0,0,1-2.32,9.81q-1.44,4.9-2.93,9.79c-1.94,6.37-4,12.72-6.29,19A165.46,165.46,0,0,1,772,936.63c-2.5,4.85-5.45,9.81-11.25,10.8a55.53,55.53,0,0,1-9.73.48c-3.4,0-6.8-.2-10.19-.51-6.67-.6-13.28-1.69-19.87-2.9C707.55,942,694.18,939,680.54,938c-6.72-.49-13.62,0-20.23-1.52-6.17-1.4-11.7-4.61-17.51-7a41.07,41.07,0,0,0-9-2.59,49.16,49.16,0,0,1-9.55-2c-5.42-2-9.92-6.06-14.09-10-2-1.89-4.5-3.81-5.73-6.37-1.33-2.78-.83-6.38-.82-9.37,0-6.65.14-13.31.68-19.94,1-12.06,3.4-25,10.41-35.15,2.79-4,6.75-7.79,11.58-9.16a15,15,0,0,1,12.49,1.9,10.22,10.22,0,0,1,3.56,4.52,2.52,2.52,0,0,0,3.42.9,2.57,2.57,0,0,0,.9-3.42Z" transform="translate(-278.55 -130.85)"/><path class="cls-1" d="M729.24,134.5h0l16.33,11.06c-4,5.22-7.54,13.47-9.68,23.58-1.73,8.24,2.33,16.41,5,24.39a77.34,77.34,0,0,1-2.32,54.82c-9.8-5.45-19.64-10.91-30.07-15-8-3.14-16.3-5.48-23.89-9.47-4.34-2.29-8.39-5.09-12.67-7.49-9.75-5.49-20.55-8.84-30.58-13.8a6.06,6.06,0,0,1-3-2.44,5.5,5.5,0,0,1-.39-2.7c.56-12.69,11.7-22.86,23.8-26.74s25.13-2.92,37.84-2.53a7.65,7.65,0,0,0,3.95-.5,7.53,7.53,0,0,0,3.26-3.25C710.83,157.27,729.08,134.74,729.24,134.5Z" transform="translate(-278.55 -130.85)"/><path class="cls-1" d="M728,136.66l16.32,11.06-.89-3.42a54.35,54.35,0,0,0-7.88,16.35,52.41,52.41,0,0,0-2.47,10.7,30.74,30.74,0,0,0,1.39,11.18c1,3.52,2.38,6.93,3.59,10.38a77.66,77.66,0,0,1,2.83,10.16,75.73,75.73,0,0,1,1.2,21.14,73.52,73.52,0,0,1-5.65,22.88l3.42-.9A289.82,289.82,0,0,0,713.7,232.8c-8.75-3.77-18.07-6.22-26.6-10.47-4.26-2.13-8.21-4.79-12.3-7.2a110.82,110.82,0,0,0-12.54-6.23c-4.37-1.88-8.8-3.62-13.16-5.51-2.18-.94-4.36-1.91-6.48-3a5.15,5.15,0,0,1-1.91-1.21,3.76,3.76,0,0,1-.21-2.31c.48-7.13,5-13.34,10.41-17.67,6.32-5,14.21-7.48,22.15-8.38a109.94,109.94,0,0,1,14.4-.55c4.44.07,8.89.42,13.33.43,4,0,6.58-2.36,8.48-5.57,1.1-1.84,2.35-3.6,3.59-5.35,5.69-8,11.63-15.36,17.75-23,.26-.33.54-.66.79-1a2.51,2.51,0,0,0-.9-3.42,2.55,2.55,0,0,0-3.42.89c.61-.85.15-.19-.14.17L725.7,135l-4.14,5.21c-3.73,4.73-7.43,9.49-11,14.35-1.52,2.06-3,4.15-4.45,6.3-1.16,1.76-2,4.1-4.06,4.75a6.46,6.46,0,0,1-2.28.09c-1.13-.06-2.27-.07-3.41-.11-2.5-.09-5-.18-7.48-.24a124.12,124.12,0,0,0-14.43.38c-8.74.84-17.4,3.07-24.67,8.18-6.31,4.44-11.64,10.73-13.55,18.35a22.09,22.09,0,0,0-.76,6,6.78,6.78,0,0,0,3.36,5.81,46.52,46.52,0,0,0,6.07,2.94c2.23,1,4.48,1.93,6.73,2.87,4.48,1.85,9,3.66,13.35,5.74a137,137,0,0,1,12.61,7.1,92.29,92.29,0,0,0,13,6.66c4.47,1.84,9,3.36,13.58,5A198.22,198.22,0,0,1,730.88,247q3.23,1.77,6.43,3.56c1.07.59,2.88.36,3.42-.9a80.64,80.64,0,0,0,5.83-42.68c-1-7.13-3.14-13.77-5.57-20.52a47.05,47.05,0,0,1-2.88-10.67,28,28,0,0,1,1.26-10.4c1.75-6.54,4.26-13.06,8.36-18.52.84-1.13.11-2.73-.9-3.42L730.5,132.35C727.83,130.54,725.33,134.87,728,136.66Z" transform="translate(-278.55 -130.85)"/><path class="cls-4" d="M866.45,810.18c1.25-2,4.09.53,4.74,2.76a36,36,0,0,1,1.42,9.89c15.36,2.85,31-2.63,46.62-2.6,6.57,0,13.47,1.14,18.63,5.2s7.93,11.71,4.82,17.49-10.16,7.6-16.53,8.56A153.45,153.45,0,0,1,871,849.72c-3.63-.79-7.35-1.71-11-1.16-4,.61-7.47,2.88-11,4.74-12.39,6.48-26.58,8.4-40.44,10.22-3.48.46-7.37.82-10.19-1.27a33,33,0,0,0-29.85-4.62C758.26,848,744.85,842.15,731.12,839s-27.88-3.92-42-4.65a85.3,85.3,0,0,0,2.65-24.8c-.12-3.1,3.76-5,6.79-4.32s5.46,2.81,8.16,4.33a40.28,40.28,0,0,0,9.07,3.34c24.54,6.76,49.6,12.33,75,13s51.43-3.64,73.81-15.77c.31-.17,0,.58-.21.31s0-.67.32-.9" transform="translate(-278.55 -130.85)"/><path class="cls-4" d="M868.61,811.44c-.27.37-.55.34-.92.53a.78.78,0,0,1-.28-.05c0-.07.73.6.81.69a5.71,5.71,0,0,1,.93,2.38,34.54,34.54,0,0,1,1,7.84,2.54,2.54,0,0,0,1.83,2.42c9.45,1.7,18.9.54,28.32-.76,8.65-1.2,17.85-2.81,26.54-1.12,6.81,1.32,14.12,5.6,14.65,13.29s-6.84,10.65-13.1,11.91a129.15,129.15,0,0,1-27.41,2.08,149.68,149.68,0,0,1-28.54-3.19c-4.73-1-9.51-2.22-14.33-1.06-4.31,1-8,3.64-12,5.55-8,3.88-16.75,5.89-25.46,7.33q-6.42,1.07-12.89,1.84a17.73,17.73,0,0,1-5.63.08c-1.88-.39-3.25-1.71-4.86-2.68a35.88,35.88,0,0,0-23.57-4.7,33.53,33.53,0,0,0-5.86,1.39l2.43.65c-16.33-15.34-38.79-20.65-60.47-22.68-6.86-.65-13.74-1-20.62-1.36l2.41,3.17a89.27,89.27,0,0,0,2.81-21.14,39.62,39.62,0,0,1-.08-4.56,1.47,1.47,0,0,1,.31-.64,2.93,2.93,0,0,1,1.23-.82c2.09-.81,4.3.47,6.22,1.69a40.62,40.62,0,0,0,8.68,4.44c3.31,1.12,6.73,1.95,10.1,2.85,6.79,1.81,13.61,3.51,20.47,5,27.12,6,55.16,8.94,82.74,4.44a133.28,133.28,0,0,0,41.88-14l-1.26.34h.12l-2.5-2.5v.12l.34-1.26.2-.26,2.43-.64-.14-.05,1.75,1.74-.08-.3-.25,1.92v-.08c2.19-2.36-1.34-5.9-3.54-3.54-1.43,1.54-1.61,4.32.78,5.08a2.75,2.75,0,0,0,3.5-2.73,2.54,2.54,0,0,0-2.5-2.5c-1.58.09-3.17,1.31-4.57,2-1.6.81-3.22,1.57-4.86,2.3-2.93,1.31-5.93,2.48-9,3.54a138,138,0,0,1-19.47,5.21,169.49,169.49,0,0,1-40,2.57,262.75,262.75,0,0,1-42.88-5.95c-7.18-1.55-14.32-3.31-21.43-5.2-3.38-.9-6.8-1.74-10.13-2.84a40.09,40.09,0,0,1-8.44-4.4c-2.84-1.74-6.1-2.93-9.42-1.9-3.07,1-5.4,3.45-5.33,6.78a87.45,87.45,0,0,1-2.57,23.9,2.53,2.53,0,0,0,2.41,3.16c21.68,1.12,44.36,2.3,63.88,12.83a65.17,65.17,0,0,1,13.68,9.74,2.51,2.51,0,0,0,2.43.65,30.67,30.67,0,0,1,23.29,1.53c1.87.94,3.48,2.21,5.27,3.26a12.63,12.63,0,0,0,6.06,1.54,40.65,40.65,0,0,0,6.32-.55c2.39-.32,4.78-.64,7.17-1,9.05-1.32,18.14-3,26.65-6.48,2.21-.9,4.39-1.88,6.5-3s3.9-2.2,6-3.11a14.82,14.82,0,0,1,6-1.36,34.89,34.89,0,0,1,7.25,1.08c19.24,4.2,39.69,5.15,59.13,1.59,7.26-1.32,15.56-4.75,17.34-12.77s-3.33-16.11-10.43-19.69c-8.17-4.11-17.8-3.72-26.64-2.75-9.63,1-19.24,3.1-29,2.77a47.07,47.07,0,0,1-6.81-.7l1.84,2.41a42.23,42.23,0,0,0-.65-6.83,16.24,16.24,0,0,0-1.63-5.48c-1.87-3.16-6-5.07-8.54-1.6a2.52,2.52,0,0,0,.9,3.42,2.56,2.56,0,0,0,3.42-.9Z" transform="translate(-278.55 -130.85)"/></g><g id="Слой_2" data-name="Слой 2"><path class="cls-2" d="M587,636.78c-4.52,24.38-9,48.83-11,73.57a283.39,283.39,0,0,0-.75,36.74,302.28,302.28,0,0,0,4.47,36.48c2,11.5,4,23,4.56,34.68.24,5.28.42,10.75-.77,15.93a20.5,20.5,0,0,1-1.54,4.71,8.22,8.22,0,0,1-2.63,3.56c.75-.66-.61.36-.88.53-1.07.7.3,0,.07,0a4.53,4.53,0,0,0-1.2.32c-.16.07,1.51-.05.36-.08h-.87c-.86,0-.82-.14.07.06-.53-.12-1.08-.19-1.61-.33s-1-.29-1.54-.47l-.67-.24c-1.2-.43,1,.47-.25-.1a37.62,37.62,0,0,1-4.15-2.22,69.56,69.56,0,0,1-10.55-8.18c-14.37-13.13-25.28-29.35-33.31-47-1.57-3.46-2.26-5.11-3.64-8.54q-1.79-4.5-3.42-9c-2.14-5.94-4.08-11.94-6-18-5.32-16.68-10.78-33.3-16.87-49.73-2-5.42-4-10.84-6.28-16.16a44.93,44.93,0,0,0-6.14-10.94c-4-4.93-10.59-6.75-16.21-3.43-5.23,3.1-8.64,9-11.62,14.12-5,8.55-9.41,17.44-14.2,26.12-3.53,6.4-7.38,12.63-11.32,18.79a395.32,395.32,0,0,1-29.42,40.46,273.39,273.39,0,0,1-19.61,21.23c-3.36,3.24-6.8,6.42-10.4,9.38-3.19,2.63-6.86,5.4-11,6.33a4,4,0,0,1-3.33-.4,8,8,0,0,1-3.26-3.87c-1.9-4.4-.7-9.31.83-13.67,1.94-5.52,4.46-10.87,6.73-16.26s4.63-11.07,6.87-16.63A500.09,500.09,0,0,0,388.73,685c11.48-47.54,22.1-95.68,27-144.41,1.19-11.88,1.95-23.79,2.36-35.72.4-11.71.61-23.44,1.61-35.11,1-11.41,2.8-22.83,6.45-33.71q.39-1.19.84-2.34c.16-.42.34-.84.5-1.26.4-1.06-.48,1.06,0,0l.42-.94q1.62-3.62,3.56-7.07c6.87-12.29,16.24-23.08,28.8-29.95,15.75-8.61,34.89-8.27,50.95-1.21a83.68,83.68,0,0,1,14.5,8.23c2.21,1.55,5.56.39,6.84-1.8,1.46-2.5.42-5.28-1.79-6.84-13-9.17-28.86-15.1-44.87-15-18.51.09-35.67,8.54-48.41,21.71a93.92,93.92,0,0,0-20.4,32.16c-7.86,21.17-8.11,44.8-8.8,67.08A614.15,614.15,0,0,1,401.72,572C398,596.58,393,621,387.6,645.28s-10.71,49-18.32,72.85c-3.74,11.71-8.08,23.22-12.68,34.62q-3.47,8.57-7.08,17.09c-2.31,5.46-4.95,10.9-6.72,16.57-3.19,10.25-1.51,24,9.91,28.3,9.5,3.58,19.35-4.47,26-10.24,15-12.91,27.93-28.09,39.83-43.83a431.25,431.25,0,0,0,25.13-37.15c5.69-9.42,10.67-19.21,15.94-28.87,1.9-3.5,3.83-7,6-10.34.78-1.21,1.58-2.42,2.46-3.56-.68.89.49-.57.71-.83a20.81,20.81,0,0,1,1.47-1.5c.24-.22.49-.42.73-.63-.13.11-1,.56-.29.23a7.42,7.42,0,0,0,1.21-.72c.7-.55-.89.25-.35.15.21,0,.4-.16.61-.19,1.2-.18-1.24.07.41,0a4.36,4.36,0,0,1,.51,0c-1.43-.09-.13-.08.09.12.49.45.1.08-.18-.08.33.19.65.38,1,.6-.94-.65.57.62.83.89s.4.46.59.7c-.54-.69.41.66.51.82a66.39,66.39,0,0,1,5.6,12c2.2,5.65,4.29,11.35,6.35,17q4.81,13.34,9.2,26.81c9.38,28.8,17.77,58.22,36.17,82.86a130,130,0,0,0,23.84,25c5.07,4,10.89,8.06,17.42,9.05a13.79,13.79,0,0,0,11.93-3.45c7.28-6.47,8.09-17.83,8-26.86-.25-24.41-7.46-48.1-9-72.41-1.57-25,1-50.11,4.89-74.81,1.91-12,4.12-24,6.34-36a5.14,5.14,0,0,0-3.49-6.15c-2.43-.67-5.65.82-6.15,3.49Z" transform="translate(-278.55 -130.85)"/><path class="cls-2" d="M507.85,421.94A55.49,55.49,0,0,1,518.2,411.4a76,76,0,0,1,13.38-8c9.31-4.44,20-7.42,30.37-9.66s21.83-3.77,32.11-1.63a35.71,35.71,0,0,1,14.25,6.15c.51.37.18.12.07,0l.81.66c.39.34.78.69,1.16,1.05a33,33,0,0,1,2.52,2.64,19.11,19.11,0,0,1,1.72,2.33,34.16,34.16,0,0,1,1.85,3.15c.32.61.62,1.24.91,1.88,0,0,.33.77.16.36s.2.54.24.62a37.77,37.77,0,0,1,1.25,4,33.79,33.79,0,0,1,.77,3.86c-.09-.66.09.95.12,1.27q.06.91.09,1.83a34.28,34.28,0,0,1-.13,4.18c0,.24-.21,1.71-.1,1-.11.69-.23,1.37-.38,2.05a27.84,27.84,0,0,1-2.54,7.12c-1.72,3.28.38,7.57,4.32,7.53,10-.12,19.78-2.45,29.75-2.88a44,44,0,0,1,12.7,1,28.76,28.76,0,0,1,8.64,3.51,40.57,40.57,0,0,1,13.46,13,44.5,44.5,0,0,1,7,18.77c.14,1-.11-1.18,0,.47,0,.34.07.68.1,1,.07.86.12,1.72.15,2.59a42.93,42.93,0,0,1-.19,5.67,33.69,33.69,0,0,1-.73,4.27,64.85,64.85,0,0,1-2.09,7.19c-3,8.41-7.47,16.19-11.34,24.19a315.84,315.84,0,0,0-19.48,51.07,323.39,323.39,0,0,0-11.78,107.07,319,319,0,0,0,7.77,53.8c1,4.2,2.11,8.35,3.2,12.52.45,1.71.86,3.43,1.21,5.16a34.82,34.82,0,0,1,.8,5.32c.29,3.76.31,6.2-1,9.51.28-.7,0,.07-.11.17-.25.44-.47.88-.74,1.3s-.37.57-.57.83c.47-.58-.26.23-.38.36-.3.31-.62.62-1,.91-.87.74-.45.34-.29.22-.43.31-.9.55-1.36.83-.77.47.21,0-.71.33a15.16,15.16,0,0,1-2.49.64c.75-.12-.11,0-.22,0-.53,0-1.06.05-1.58,0l-1.07,0c-1.66-.06.41.1-.55,0a22.93,22.93,0,0,1-3-.66,32.28,32.28,0,0,1-9.72-4.84c-5.9-4.11-11.85-10.74-16.36-16.68-10-13.24-17.32-28.6-23.67-43.77-1.62-3.87-3.19-7.77-4.77-11.66-1-2.5-3.33-4.26-6.15-3.49-2.37.65-4.51,3.63-3.49,6.15,6.68,16.52,13.43,33.2,22.93,48.34a122.76,122.76,0,0,0,16.39,21c6.15,6.24,13.15,11.77,21.64,14.38,8.16,2.51,17.64,1.33,23.32-5.59s5.6-15.73,4.19-24c-1.45-8.58-4.24-16.93-6.07-25.44-1.91-8.92-3.45-17.94-4.52-27a314.26,314.26,0,0,1,6.55-110.77,304.2,304.2,0,0,1,17.75-52.46c3.88-8.68,8.46-17,12.42-25.65,3.82-8.35,6.94-17.1,7.24-26.36a54.58,54.58,0,0,0-17.22-41,45.72,45.72,0,0,0-19.57-10.87c-9.85-2.48-19.94-1.15-29.84.17a130.22,130.22,0,0,1-15.27,1.35l4.32,7.52a40.91,40.91,0,0,0,2-32.77,40.38,40.38,0,0,0-24.22-24.23c-11.84-4.44-25.06-3.62-37.29-1.55a155.73,155.73,0,0,0-34.53,9.79c-12.69,5.35-24.09,13.06-32.23,24.32-1.58,2.19-.38,5.58,1.8,6.85,2.52,1.47,5.25.4,6.84-1.8Z" transform="translate(-278.55 -130.85)"/><path class="cls-2" d="M475.67,681.46c-1.88,12.9-3.67,25.81-5.66,38.68-1.83,11.84-4.08,23.72-8.39,34.93a77.21,77.21,0,0,1-3.36,7.52c-1.37,2.69-3,5.26-4.3,8-2.7,5.56-4.17,12.27-.9,18,2.82,4.91,8.5,7,13.95,6.53s10.51-2.66,15.32-5.26a89.09,89.09,0,0,0,28.9-25.15c1.25-1.68.32-4.54-1.44-5.48a4.12,4.12,0,0,0-5.47,1.44l-.62.82c-.47.61.57-.71-.26.32-.38.49-.77,1-1.16,1.44-.88,1.06-1.78,2.09-2.7,3.1-1.76,1.92-3.61,3.75-5.53,5.5a74.18,74.18,0,0,1-12.19,9.06c-2.23,1.35-4.51,2.59-6.86,3.72-.55.27-1.11.54-1.68.78.74-.32-.42.16-.67.26a28.56,28.56,0,0,1-3.41,1c-.57.14-1.15.25-1.74.35-.17,0-.77.07,0,0l-.69.07c-.57,0-1.14.06-1.7,0l-.67,0c-.4,0-.94-.15-.24,0a13.65,13.65,0,0,1-1.56-.38c-.21-.06-.4-.14-.6-.21.82.31.15.06-.05-.06s-1.31-.93-.65-.35c-.2-.18-.41-.35-.6-.55s-.69-.79-.48-.51c.31.43-.36-.59-.32-.53-.13-.22-.24-.44-.35-.67.29.6,0,0,0-.08-.1-.37-.22-.72-.31-1.09s-.1-.5-.14-.75c.1.72,0,.05,0-.08a22.26,22.26,0,0,1,.05-2.31c-.07.73.11-.59.17-.84a19.87,19.87,0,0,1,.58-2c.1-.28.2-.55.31-.82.51-1.32-.14.28.2-.46s.69-1.46,1.07-2.17c1.31-2.48,2.75-4.88,4-7.39,1.33-2.68,2.52-5.44,3.61-8.23,4.15-10.63,6.41-21.89,8.21-33.13,2.17-13.6,4-27.26,6-40.89.3-2.06-.51-4.4-2.8-4.92-1.89-.43-4.6.58-4.92,2.79Z" transform="translate(-278.55 -130.85)"/><path class="cls-2" d="M673.65,828c-10.17,1.4-20.67,3.53-29.29,9.44a34.5,34.5,0,0,0-12.19,14,43.76,43.76,0,0,0-3.83,17.71c-.1,11.62,3.88,24,12.12,32.41,10.29,10.49,26,12.55,39.86,14.27l25,3.1c7.13.89,14.27,1.84,21.46,2,14.11.42,29.26-2.49,39.13-13.41,9.21-10.21,12.93-25.1,8.55-38.28-4.29-12.9-14.82-23.13-26.84-29.06-8.25-4.08-17.5-6-26.41-8-11.7-2.6-23.39-5.29-35.43-5.19a87,87,0,0,0-10.82.71,5.49,5.49,0,0,0-3.53,1.46,5.11,5.11,0,0,0-1.47,3.54c.11,2.41,2.22,5.37,5,5a91.69,91.69,0,0,1,16.81-.6c1.15.06,2.3.15,3.45.26l2.12.23c.22,0,1.6.17.25,0,.49,0,1,.14,1.47.21,2.66.41,5.28,1,7.91,1.51,10.45,2.18,21.15,4.13,31.25,7.66.78.27,1.56.56,2.33.86.43.18,1.81.84,0,0,.39.19.79.35,1.17.53a53.94,53.94,0,0,1,6.84,3.84c.63.42,1.26.85,1.88,1.29l.91.67c1.05.76-.81-.66.19.15,1.18.94,2.34,1.92,3.44,3s2.14,2.12,3.13,3.25c.5.56,1,1.14,1.44,1.72.81,1-.6-.86.13.18l.65.9a39,39,0,0,1,2.35,3.78c.36.65.69,1.31,1,2a9.19,9.19,0,0,1,.46,1c-.4-1.3.09.26.19.52a35.14,35.14,0,0,1,1.2,3.9c.18.72.33,1.45.45,2.18.06.32.41,1.42,0,.13a7.75,7.75,0,0,1,.15,1.45,32.16,32.16,0,0,1,0,4.39c0,.61-.1,1.22-.15,1.83-.12,1.26.2-1.12,0,.12-.09.48-.16,1-.26,1.44a34.58,34.58,0,0,1-1.14,4.25,11.38,11.38,0,0,1-.76,2.07c.58-1,.13-.32,0,0s-.36.77-.55,1.16a35.1,35.1,0,0,1-2.19,3.81,13.28,13.28,0,0,1-1.27,1.8c.87-.94,0,0-.13.14-.31.37-.63.74-.95,1.1a32,32,0,0,1-2.88,2.82l-.84.7c-1,.8.87-.59-.16.11-.74.52-1.48,1-2.25,1.51a37.22,37.22,0,0,1-4.05,2.13c-.28.12-1,.57-.08,0a8.73,8.73,0,0,1-1.11.42c-.86.32-1.74.61-2.62.87a45.85,45.85,0,0,1-4.63,1.11c-.78.14-1.58.31-2.37.38,1.12-.11.37,0,.13,0l-1.6.17a102.51,102.51,0,0,1-20.12-.5c-7.43-.77-14.84-1.78-22.26-2.7l-12.3-1.53-4.75-.6c-1.41-.18,1.07.16-.34,0l-1.26-.18c-1-.14-2-.29-2.93-.45a87.39,87.39,0,0,1-9.88-2.16c-1.6-.46-3.19-1-4.74-1.59-.16-.06-1.45-.59-.34-.12l-1-.42c-.82-.37-1.63-.77-2.42-1.19a37.56,37.56,0,0,1-4.14-2.57c-.38-.27-.73-.84.08.08a6.13,6.13,0,0,0-.68-.56c-.52-.44-1-.91-1.52-1.39-.79-.78-1.5-1.61-2.22-2.45s.68.94,0,.05c-.18-.25-.37-.49-.54-.74-.42-.59-.82-1.2-1.2-1.81-.61-1-1.17-2-1.68-3-.29-.57-.55-1.16-.82-1.74-.47-1,.42,1.08,0,0-.16-.41-.32-.8-.47-1.21a44,44,0,0,1-2.06-7.56,8.92,8.92,0,0,0-.32-2l.09.68c0-.22,0-.44-.07-.66s-.07-.66-.1-1c-.12-1.43-.18-2.85-.17-4.28q0-1.8.18-3.6c0-.32.07-.65.1-1,.12-1.16-.19,1.19,0,0,.12-.74.24-1.49.4-2.23a34,34,0,0,1,.89-3.4c.19-.61.39-1.21.62-1.8a3.55,3.55,0,0,0,.34-.88c-.3.71-.34.82-.13.32l.27-.57a30,30,0,0,1,1.8-3.29c.3-.46.62-.9.93-1.35.67-1-.7.82.06-.11.3-.35.59-.71.9-1.05a29.31,29.31,0,0,1,2.92-2.87l.78-.64c.9-.75-.91.64.05,0,.59-.42,1.18-.84,1.79-1.23,1.07-.69,2.18-1.33,3.31-1.91.59-.3,1.18-.59,1.78-.86.12-.06.79-.45.9-.4l-.29.12.61-.24a70.24,70.24,0,0,1,14-3.73c1.9-.33,3.81-.6,5.72-.86,2.6-.36,4.25-3.81,3.49-6.15C678.88,828.64,676.44,827.62,673.65,828Z" transform="translate(-278.55 -130.85)"/><path class="cls-2" d="M650.16,841a17.93,17.93,0,0,0-10.36-14.72,25.88,25.88,0,0,0-18.31-1.55c-6.91,2.09-12.35,7.46-16.09,13.46s-6,13-7.78,19.79q-3.25,12.62-5.29,25.51c-.73,4.63-1.46,9.29-1.86,14a24.94,24.94,0,0,0,2.12,12.9c3.13,6.73,9.74,11.4,16,15A167.21,167.21,0,0,0,630.77,936c14.89,5.88,30.47,9.77,46.15,12.87,16.5,3.26,33.14,5.76,49.74,8.46,8.3,1.35,16.68,3.12,25.09,3.54,7.78.38,16.09-.85,22.47-5.63,11.23-8.44,13.66-22.51,16.77-35.35a98.59,98.59,0,0,1,2.9-10c1.37-3.86,3-7.62,4.47-11.43,2.78-7.2,5-14.92,4.21-22.72-.76-7.57-3.9-15.13-10.57-19.33a20.82,20.82,0,0,0-19.37-1.3,15.19,15.19,0,0,0-6.84,6.38,5,5,0,1,0,8.63,5c.15-.26.29-.51.45-.76s.18-.23.25-.35c.26-.43-.33.44-.34.44a7.31,7.31,0,0,0,1.4-1.38s-.88.6-.45.36a4.15,4.15,0,0,0,.34-.24l.73-.43a3.77,3.77,0,0,0,.75-.38s-1,.38-.54.23c.18,0,.36-.13.54-.19a13.56,13.56,0,0,1,1.66-.45c.2,0,1.22-.2.34-.07s.45,0,.65,0a15.08,15.08,0,0,1,1.78,0c.21,0,1.24.14.38,0s.3.07.52.11a17.12,17.12,0,0,1,1.74.46c.29.09.57.2.85.3s.67.22,0,0,.09.06.22.12a15,15,0,0,1,1.56.9,3.56,3.56,0,0,0,.73.51s-.78-.67-.43-.32c.14.14.3.26.45.4.48.44.89,1,1.35,1.43s-.23-.29-.2-.29.28.38.32.45c.29.4.55.81.8,1.23.38.63.69,1.29,1,1.95s-.16-.33-.14-.35a3.34,3.34,0,0,0,.2.51c.15.4.29.81.42,1.22.22.71.4,1.43.56,2.16l.21,1.1c0,.12.15.75,0,.07s0,.4.05.46a34.11,34.11,0,0,1,.11,4.74c0,.77-.1,1.53-.19,2.29a4.07,4.07,0,0,0-.07.56s.16-1,.05-.38-.16,1-.26,1.49a48.73,48.73,0,0,1-1.31,5.16c-2.25,7.32-5.74,14.18-7.93,21.52-1.73,5.79-2.83,11.75-4.39,17.59a80.3,80.3,0,0,1-2.74,8.42c-.21.53.17-.41.17-.41s-.13.31-.2.46c-.13.31-.27.62-.42.92-.33.7-.68,1.39-1.06,2.07s-.66,1.15-1,1.7c-.18.27-.91,1.71-1.21,1.75,0,0,.65-.79.28-.37-.11.12-.21.26-.31.38s-.42.5-.64.74c-.52.57-1.05,1.11-1.62,1.63l-.75.66-.38.31c-.42.35.34-.26.34-.27a13.16,13.16,0,0,0-1.92,1.29c-.7.42-1.44.75-2.16,1.13-.5.27.22-.08.28-.1l-.56.22c-.5.19-1,.36-1.52.52-.76.24-1.54.44-2.33.61l-1.18.23-.6.09c-.66.11-.15.14.13,0a7.36,7.36,0,0,1-2.45.2c-1,0-1.92.07-2.89.06-1.74,0-3.48-.14-5.21-.3-.84-.08-1.68-.17-2.51-.28-.21,0-.42,0-.63-.08l.29,0-1.66-.24c-1.84-.27-3.67-.58-5.51-.88-15.89-2.59-31.8-5.05-47.65-7.86-14.84-2.62-29.65-5.69-44-10.22-3.57-1.13-7.11-2.34-10.61-3.66q-2.67-1-5.31-2.09l-.61-.26c-.06,0-.73-.31-.21-.08s-.15-.07-.21-.1l-.61-.26c-.87-.38-1.74-.76-2.61-1.16-6.45-2.93-13-6.15-18.74-10.34l-.46-.34c-.46-.34.23.19.26.2a4.68,4.68,0,0,1-.89-.72c-.67-.57-1.33-1.15-1.95-1.77s-1-1.07-1.53-1.63l-.35-.43c-.39-.43.24.28.21.29a8.84,8.84,0,0,1-.73-1,19.79,19.79,0,0,1-1.1-1.89c-.09-.17-.51-1.2-.28-.56s0,0,0-.08c-.1-.29-.2-.57-.29-.87s-.2-.71-.29-1.07-.08-.42-.13-.64c0-.06-.11-.81,0-.24s0-.19,0-.25c0-.23,0-.46,0-.69,0-.54,0-1.08,0-1.62a58.55,58.55,0,0,1,.55-6.06c.06-.48.12-1,.19-1.44,0,0,.11-.83,0-.3s0-.26,0-.3c.14-1,.29-2.08.44-3.12q.92-6.14,2.11-12.21a193.08,193.08,0,0,1,5.37-22q.75-2.34,1.65-4.63c.07-.17.15-.34.21-.52.21-.54-.14.31-.14.33a3.89,3.89,0,0,1,.45-1c.34-.74.69-1.47,1.06-2.18a38.76,38.76,0,0,1,2.42-4.13l.62-.9c.11-.15.81-1,.37-.51s.3-.34.41-.47c.28-.33.56-.64.84-1,.49-.53,1-1,1.54-1.53.26-.25.54-.49.81-.72s.29-.23.42-.35c.46-.4-.77.54,0,0a33,33,0,0,1,3.43-2c.46-.24-.55.22-.53.22a2.26,2.26,0,0,0,.41-.15l.82-.29a16.76,16.76,0,0,1,2-.51c.29-.06.58-.09.86-.16.53-.12-.63.08-.6.08a3.29,3.29,0,0,0,.44,0c.63-.05,1.27-.09,1.9-.1s1.18,0,1.76.06a5.24,5.24,0,0,0,.88.08s-1.15-.19-.61-.08l.72.12a22.25,22.25,0,0,1,3.46,1,1.85,1.85,0,0,0,.39.15s-1-.47-.54-.22c.24.13.51.24.75.36a16.23,16.23,0,0,1,1.67,1c.17.11.94.69.27.16s.09.07.23.2a13,13,0,0,1,1.24,1.22c.09.1.17.21.26.3.36.34-.38-.52-.37-.49.12.22.32.43.46.65.32.48.54,1,.83,1.5s-.24-.6-.24-.57a2,2,0,0,0,.14.38c.08.26.17.51.24.77s.12.54.18.81c.25,1.1-.08-.93,0-.07.25,2.6,2.12,5.13,5,5,2.49-.11,5.27-2.21,5-5Z" transform="translate(-278.55 -130.85)"/><path class="cls-2" d="M690.57,831.06c-.1-7.24-.29-14.51-.1-21.75,0-.19,0-.37,0-.55-.08.46-.07.46,0,0s0-.18-.16.13c.42-.63-.64.46-.05,0l.44-.24c-.57.23-.64.26-.24.11,1.13-.34,2.27-.58,3.41-.85a8.78,8.78,0,0,0,4-1.92,5.83,5.83,0,0,0,1.53-5.58l-7.31,3.08c6.19,10.38,18.09,14.67,29.29,17.19a391.21,391.21,0,0,0,39.52,6.66c26.36,3.14,53.79,3.1,79.29-5.08,3.7-1.19,7.33-2.56,10.91-4.08,1.64-.69,3.26-1.41,4.87-2.18s3.55-1.79,5-2.34a12,12,0,0,1,4.75-1c1,0-.21-.17.74.11.47.13.7.3.16,0l.76.45c-.83-.48.12.13.33.35l.4.45c-.66-.8.08.27.19.45.46.73,0-.49,0,0a5.6,5.6,0,0,0,.27,1c-.28-1-.08-.3-.05,0,.07.8.24-.75,0,0s.45-.78,0,0c-.23.36-.18.3.15-.16-.31.29-.26.26.16-.08a4,4,0,0,0,2,7.46l31.14.42c5,.07,10,.11,15,.21,2.3,0,4.61.13,6.91.36a22,22,0,0,1,2.67.37,31.58,31.58,0,0,1,3.2.74,17.37,17.37,0,0,1,5.41,2.37l.46.31c.08,0,.71.51.35.23s.25.21.33.28l.42.37a18.41,18.41,0,0,1,2.06,2.17c-.46-.57.39.57.47.7.24.36.46.73.67,1.11s.39.75.57,1.14c-.31-.68.18.52.25.74.14.45.26.92.36,1.38.05.23.09.47.12.7,0-.08,0-.63,0-.18s0,.83,0,1.24c0,.24,0,.47,0,.71,0-.58,0-.2,0,.17a10.43,10.43,0,0,1-.32,1.22c-.07.23-.15.45-.24.67.06-.16.35-.65,0,0-.2.34-.37.69-.58,1-.08.14-.18.27-.27.41-.5.83.31-.26-.07.12-.6.58-1.14,1.2-1.76,1.76-.13.11-.6.42,0,0-.14.1-.27.21-.41.3-.43.28-.86.56-1.3.82-.71.41-1.44.76-2.18,1.1.75-.34-.54.2-.7.26-.45.17-.9.32-1.36.46a40.82,40.82,0,0,1-5.24,1.27,127.31,127.31,0,0,1-43-.56c-5.11-1-10.11-2.66-15.28-3.25a24.34,24.34,0,0,0-13.28,2.66,39,39,0,0,0-5.53,3.54,24.35,24.35,0,0,1-3.22,1.91c-.68.34-1.38.65-2.08,1-.46.21,1-.42.19-.08l-.56.23-1.37.52a104.46,104.46,0,0,1-14.35,3.88c-3.44.71-6.89,1.32-10.36,1.86-4.49.7-7.67,1.12-12.2,1.65q-3.64.42-7.31.79c-2.08.21-4.11,1.69-4,4,.08,2,1.77,4.23,4,4,9.09-.92,18.19-2,27.19-3.66a128.83,128.83,0,0,0,16.89-4,46.92,46.92,0,0,0,10.1-4.38c1.31-.81,2.49-1.81,3.78-2.65q.9-.59,1.86-1.11.57-.32,1.17-.6l.46-.21c1-.49-.73.25.38-.16a24.9,24.9,0,0,1,2.79-.85c.47-.12.94-.21,1.42-.29l.21,0,1.13-.08a24.5,24.5,0,0,1,7.2,1.16c2.46.63,4.94,1.21,7.43,1.7a142.17,142.17,0,0,0,16.17,2.22,132.48,132.48,0,0,0,31.2-1.24c7.54-1.21,16.33-4.27,19.83-11.69,4.11-8.7-.6-18.32-8.11-23.38-8.18-5.5-18.91-5.09-28.34-5.22l-32.41-.44-7.91-.1,2,7.45a8.37,8.37,0,0,0,3.4-8.83,11.34,11.34,0,0,0-5.12-7.14c-6.89-4.22-15,1.08-21.25,3.91a119.84,119.84,0,0,1-18.19,6.37q-4.89,1.3-9.88,2.23c-1.59.3-3.18.57-4.78.82-2,.31-2.77.41-4.63.63-27.27,3.19-54.35-.31-80.85-5.46-6.55-1.28-13.15-2.54-19.39-5l-1-.42c.73.3-.63-.29-.76-.35-.67-.31-1.34-.63-2-1a37.92,37.92,0,0,1-4-2.5c-1-.66.57.5-.34-.25-.27-.23-.55-.45-.82-.69a24.78,24.78,0,0,1-1.8-1.75c-.21-.22-.41-.44-.61-.67s-.87-1.1-.39-.46a22,22,0,0,1-1.42-2.14,4,4,0,0,0-7.31,3.09c-.06-.7-.09-.84-.09-.43a1.91,1.91,0,0,1,.2-1,1.89,1.89,0,0,1,.54-.87c.59-.42.72-.52.37-.29-.69.46.09-.24.2-.06l-.68.21c-1.12.31-2.27.47-3.38.81a9.65,9.65,0,0,0-4.19,2.33,8.92,8.92,0,0,0-2.23,6.43c-.07,7.13,0,14.27.1,21.4a4,4,0,0,0,8,0Z" transform="translate(-278.55 -130.85)"/><path class="cls-2" d="M931.45,835.56v-1.93a3.82,3.82,0,0,0-.43-1.92,3.71,3.71,0,0,0-1-1.61,5.53,5.53,0,0,0-3.53-1.47l-1.33.18a5.05,5.05,0,0,0-2.21,1.29l-.78,1a5,5,0,0,0-.68,2.52v1.93a5.58,5.58,0,0,0,1.46,3.54,3.84,3.84,0,0,0,1.61,1,3.77,3.77,0,0,0,1.93.43l1.33-.18a5,5,0,0,0,2.2-1.28l.79-1a5.06,5.06,0,0,0,.68-2.52Z" transform="translate(-278.55 -130.85)"/><path class="cls-2" d="M703.32,799.9l-3.17-48.16c-.17-2.6-2.17-5.12-5-5-2.56.12-5.18,2.21-5,5l3.17,48.16c.17,2.6,2.18,5.12,5,5,2.56-.12,5.19-2.21,5-5Z" transform="translate(-278.55 -130.85)"/><path class="cls-2" d="M706.25,753.14l8.28,57.73c.37,2.6,3.81,4.25,6.15,3.49,2.85-.92,3.89-3.37,3.49-6.15l-8.27-57.73c-.38-2.6-3.81-4.25-6.15-3.49-2.85.92-3.9,3.37-3.5,6.15Z" transform="translate(-278.55 -130.85)"/><path class="cls-2" d="M728.75,749.81q.16,31.85,2.15,63.64c.16,2.6,2.18,5.12,5,5,2.56-.12,5.17-2.21,5-5q-2-31.79-2.15-63.64a5,5,0,0,0-10,0Z" transform="translate(-278.55 -130.85)"/><path class="cls-2" d="M746.7,756.54l1.84,60.73a5,5,0,0,0,10,0l-1.84-60.73a5,5,0,0,0-10,0Z" transform="translate(-278.55 -130.85)"/><path class="cls-2" d="M767.35,757.52q-.29,25.08,0,50.16.07,7.2.19,14.4a5,5,0,1,0,10,0q-.4-25.08-.28-50.16,0-7.2.12-14.4a5,5,0,0,0-10,0Z" transform="translate(-278.55 -130.85)"/><path class="cls-2" d="M785.5,765.23q.86,27-.92,53.95a5,5,0,0,0,5,5,5.11,5.11,0,0,0,5-5q1.77-26.94.92-53.95a5,5,0,0,0-10,0Z" transform="translate(-278.55 -130.85)"/><path class="cls-2" d="M806.82,762.34l1.28,57.8a5,5,0,0,0,10,0l-1.28-57.8a5,5,0,0,0-10,0Z" transform="translate(-278.55 -130.85)"/><path class="cls-2" d="M830.88,766.19v46.25a5,5,0,0,0,10,0V766.19a5,5,0,0,0-10,0Z" transform="translate(-278.55 -130.85)"/><path class="cls-2" d="M855.79,765q-3.24,22.2-6.2,44.44c-.27,2.06,1.74,4.38,3.67,4.82a5.23,5.23,0,0,0,5.65-2.3l.53-.78a5,5,0,0,0-1.79-6.84,5.13,5.13,0,0,0-6.84,1.8l-.53.78,9.31,2.52.36-2.7c.06-.41.11-.81.17-1.22-.14,1,.08-.59.08-.63.24-1.8.49-3.6.73-5.4q.72-5.27,1.46-10.53,1.49-10.65,3.05-21.3a5.48,5.48,0,0,0-.51-3.85,5.07,5.07,0,0,0-3-2.3c-2.37-.54-5.74.73-6.15,3.49Z" transform="translate(-278.55 -130.85)"/><path class="cls-2" d="M874.18,766.2a46.45,46.45,0,0,1,0,5.78c-.06.89-.14,1.77-.25,2.66.13-1.13,0,.19-.08.43-.07.44-.15.88-.23,1.31a46.85,46.85,0,0,1-1.46,5.59c-.28.85-.59,1.68-.91,2.51-.42,1.1.27-.53-.18.45-.22.47-.43.94-.66,1.41-3.25,6.7-8.16,12.54-9.95,19.91a5,5,0,1,0,9.64,2.66,25.56,25.56,0,0,1,.85-2.83c.09-.23.58-1.39.13-.36.17-.38.34-.77.52-1.15.79-1.65,1.71-3.25,2.65-4.83a93.36,93.36,0,0,0,5.36-9.56,51.31,51.31,0,0,0,4.58-24c-.16-2.61-2.19-5.12-5-5-2.58.12-5.17,2.2-5,5Z" transform="translate(-278.55 -130.85)"/><path class="cls-2" d="M702.78,741.14v1a2.91,2.91,0,0,0,.34,1.54,3.64,3.64,0,0,0,2.11,2.12,3.06,3.06,0,0,0,1.55.34l1.06-.14a3.88,3.88,0,0,0,1.76-1l.63-.81a4.08,4.08,0,0,0,.55-2v-1a3,3,0,0,0-.35-1.54,3,3,0,0,0-.83-1.29,3.09,3.09,0,0,0-1.28-.83,3,3,0,0,0-1.54-.34l-1.07.14a4,4,0,0,0-1.76,1l-.63.81a4,4,0,0,0-.54,2Z" transform="translate(-278.55 -130.85)"/><path class="cls-2" d="M716.58,733.43a32.54,32.54,0,0,0,.77,6.53,33,33,0,0,0,2.12,6.19,4,4,0,0,0,2.39,1.84,4,4,0,0,0,4.93-2.8l.14-1.06a4,4,0,0,0-.55-2c-.08-.18-.16-.36-.23-.54l.4,1a27.89,27.89,0,0,1-1.87-6.83l.15,1.07a28.7,28.7,0,0,1-.25-3.34,4,4,0,0,0-8,0Z" transform="translate(-278.55 -130.85)"/><path class="cls-2" d="M732,733.5l2.07,9.6a4,4,0,0,0,7.72-2.12l-2.07-9.61A4,4,0,0,0,732,733.5Z" transform="translate(-278.55 -130.85)"/><path class="cls-2" d="M747.51,732.52A87.56,87.56,0,0,0,751.14,746a4.35,4.35,0,0,0,1.84,2.39,4.09,4.09,0,0,0,3.08.4c1.94-.62,3.55-2.81,2.8-4.92a85.36,85.36,0,0,1-3.63-13.52,4,4,0,0,0-7.72,2.13Z" transform="translate(-278.55 -130.85)"/><path class="cls-2" d="M761.74,733.52c.26,1.19.47,2.39.64,3.6l-.14-1.07a46.17,46.17,0,0,1,.23,9.9,4,4,0,0,0,4,4,4.1,4.1,0,0,0,4-4,49.15,49.15,0,0,0-1-14.56,4,4,0,0,0-4.92-2.79,4.1,4.1,0,0,0-2.8,4.92Z" transform="translate(-278.55 -130.85)"/><path class="cls-2" d="M776.59,733.45c.1.56.18,1.12.26,1.69l-.14-1.07a46.85,46.85,0,0,1,.17,10.91,4,4,0,0,0,6.83,2.83,4.5,4.5,0,0,0,1.17-2.83,50.37,50.37,0,0,0-.58-13.65,4,4,0,0,0-1.83-2.39,4.07,4.07,0,0,0-3.09-.41,4.12,4.12,0,0,0-2.39,1.84,4.55,4.55,0,0,0-.4,3.08Z" transform="translate(-278.55 -130.85)"/><path class="cls-2" d="M791.42,737.29v12.52a4,4,0,0,0,8,0V737.29a4,4,0,0,0-8,0Z" transform="translate(-278.55 -130.85)"/><path class="cls-2" d="M803.94,738.25v13.49a4,4,0,0,0,8,0V738.25a4,4,0,0,0-8,0Z" transform="translate(-278.55 -130.85)"/><path class="cls-2" d="M818,741.16c.1.56.18,1.12.26,1.68l-.14-1.06a46.85,46.85,0,0,1,.17,10.91,4,4,0,0,0,1.17,2.83,4,4,0,0,0,2.83,1.17,4,4,0,0,0,2.83-1.17,4.58,4.58,0,0,0,1.17-2.83,50.46,50.46,0,0,0-.58-13.66,4,4,0,0,0-1.83-2.39,4.12,4.12,0,0,0-3.09-.4,4,4,0,0,0-2.39,1.84,4.55,4.55,0,0,0-.4,3.08Z" transform="translate(-278.55 -130.85)"/><path class="cls-2" d="M834.71,742.11a29.35,29.35,0,0,1,0,7.55l.15-1.06a32.2,32.2,0,0,1-.83,4,4,4,0,1,0,7.71,2.13,32.11,32.11,0,0,0,1-12.64,4.44,4.44,0,0,0-1.17-2.83,4.13,4.13,0,0,0-2.83-1.17,4.07,4.07,0,0,0-2.83,1.17,3.84,3.84,0,0,0-1.17,2.83Z" transform="translate(-278.55 -130.85)"/><path class="cls-2" d="M851.2,746.07l.12.81-.14-1.06a20.48,20.48,0,0,1,0,5.07l.14-1.06a20.18,20.18,0,0,1-.6,2.88,4.11,4.11,0,0,0,.4,3.09,4,4,0,0,0,5.47,1.43,4.19,4.19,0,0,0,1.84-2.39,24.44,24.44,0,0,0,.48-10.89,4,4,0,0,0-1.84-2.39A4,4,0,0,0,851.6,743l-.4,1a3.82,3.82,0,0,0,0,2.12Z" transform="translate(-278.55 -130.85)"/><path class="cls-2" d="M865.6,746v8.67a4.17,4.17,0,0,0,1.17,2.83,4.13,4.13,0,0,0,2.83,1.17,4.07,4.07,0,0,0,2.83-1.17,4.17,4.17,0,0,0,1.17-2.83V746a4.09,4.09,0,0,0-1.17-2.83,4,4,0,0,0-5.66,0A4.18,4.18,0,0,0,865.6,746Z" transform="translate(-278.55 -130.85)"/><path class="cls-2" d="M455.23,487.19a25.39,25.39,0,0,1,.78-3.56c.18-.58.38-1.14.59-1.7.33-.88-.08.12-.09.21a3.93,3.93,0,0,1,.54-1.11,24.21,24.21,0,0,1,1.75-2.83c.66-.94-.53.6,0,.05.19-.21.37-.44.56-.66.42-.47.87-.92,1.33-1.36l.64-.57c.06-.05.92-.79.29-.26s.25-.17.32-.22l.57-.39c.48-.31,1-.6,1.48-.87l.77-.39c1.17-.55-.73.22.24-.1a20.78,20.78,0,0,1,3.11-.87c.49-.09,1.64-.06-.14,0,.35,0,.71-.08,1.05-.11a22.76,22.76,0,0,1,2.86-.06,7.19,7.19,0,0,0,1.52.12c-.68.16-.93-.15-.38,0,.32.06.65.11,1,.18.5.11,1,.23,1.48.38l.84.27c.31.11,1.3.28.15,0a10.38,10.38,0,0,1,3.33,1.95c-.16-.12-.73-.63,0,0,.31.28.61.54.91.83.46.44.87.92,1.3,1.4.82.92-.55-.87.1.15l.4.59a16.93,16.93,0,0,1,.86,1.49c.1.2.19.4.3.6.53,1-.38-1.06,0,0,.18.49.36,1,.51,1.48s.32,1.14.44,1.72.24,2.36.13.56c.05.86.16,1.71.17,2.57,0,.64,0,1.27-.06,1.9,0,.23-.06.45-.07.68,0,.47.25-1.7.12-.93-.42,2.57.67,5.51,3.49,6.15,2.41.55,5.7-.73,6.15-3.49,1.6-9.74-2.43-20-11-25.21a25.16,25.16,0,0,0-27.45,1.4,26.82,26.82,0,0,0-10.44,17.38,5.5,5.5,0,0,0,.51,3.86,5.07,5.07,0,0,0,3,2.29c2.37.54,5.75-.72,6.15-3.49Z" transform="translate(-278.55 -130.85)"/><path class="cls-2" d="M556.48,492.93c.17-.59.36-1.18.58-1.76,0-.1.28-.66.26-.69.11.17-.4.85-.07.19a29.27,29.27,0,0,1,1.74-3.15c.16-.25.33-.49.5-.73s.41-.94,0,0a5.12,5.12,0,0,1,.91-1.07c.39-.43.79-.84,1.22-1.24a9.5,9.5,0,0,0,1.3-1.13c-.41.59-.58.42-.19.15l.71-.49c.43-.28.87-.55,1.32-.8s.91-.46,1.37-.7c.65-.34-1.17.42-.09,0l1-.35a19.35,19.35,0,0,1,2.49-.64l.53-.09c.75-.14-1.65.18-.24,0a20.74,20.74,0,0,1,2.09-.11c.36,0,.73,0,1.09,0l.73.05c.18,0,1.3.13.41,0s.17,0,.29.06l.66.13a16,16,0,0,1,1.68.45,7.33,7.33,0,0,1,1.38.5c-1-.54-.24-.09,0,0s.7.37,1,.57c.54.31,1.05.66,1.56,1-.76-.52-.15-.11,0,0s.49.43.73.66c.4.38.8.79,1.17,1.21a3.61,3.61,0,0,1,.46.56c-.52-1.07-.13-.16.06.13.61.89,1,1.85,1.55,2.77.34.61-.43-1.17-.08-.17l.21.59c.17.47.31.95.44,1.43s.25,1,.35,1.52l.12.66c.16.9-.12-1.25,0-.31.06.75.14,1.5.15,2.25s0,1.21,0,1.82-.26,2.1.09-.38a5.5,5.5,0,0,0,.5,3.86,5.12,5.12,0,0,0,3,2.29c2.35.54,5.76-.72,6.15-3.49,1.26-9.05-2-18.24-9.43-23.8-7.93-5.93-19.73-5.91-27.88-.41a28.6,28.6,0,0,0-11.38,15.78,5,5,0,0,0,3.49,6.15,5.1,5.1,0,0,0,6.15-3.49Z" transform="translate(-278.55 -130.85)"/><path class="cls-2" d="M483.73,543.77c1.64,8,7.91,13.87,15.19,16.87,7.74,3.19,16.41,1.93,23.81-1.55A41,41,0,0,0,534,551a5,5,0,0,0-7.07-7.07c-.58.57-1.16,1.13-1.77,1.67l-.93.8-.48.38c-.56.48.64-.46,0,0a43.91,43.91,0,0,1-4.28,2.76c-.72.39-1.45.74-2.18,1.09-.88.41.61-.22-.3.12-.44.17-.88.34-1.32.49-.76.26-1.54.48-2.32.68a9.37,9.37,0,0,1-2.55.5s.93-.09.33-.06l-.6.06-1.2.07a24.12,24.12,0,0,1-2.55-.06l-.7-.07c-.58-.05.43,0,.44.06a3.91,3.91,0,0,0-1.05-.2,21.76,21.76,0,0,1-2.24-.6c-.34-.11-.68-.23-1-.36a2.61,2.61,0,0,0-.5-.2s.86.4.37.15c-.69-.35-1.39-.68-2.06-1.07-.27-.16-1.54-1.23-1.78-1.18,0,0,.74.6.31.24l-.41-.33c-.32-.27-.62-.54-.92-.83-.6-.57-1.13-1.18-1.67-1.8-.36-.41.25.3.25.32s-.32-.45-.4-.57c-.23-.33-.45-.68-.65-1s-.4-.71-.58-1.07c-.07-.16-.14-.32-.22-.47-.3-.6.3.87.11.23-.26-.85-.54-1.67-.72-2.54a5,5,0,0,0-6.15-3.49,5.13,5.13,0,0,0-3.5,6.15Z" transform="translate(-278.55 -130.85)"/><path class="cls-2" d="M412.85,474a46.88,46.88,0,0,1-7.4-.15l-1.05-.11c-.78-.09-.13,0,0,0-.58-.08-1.15-.18-1.73-.28-1.27-.23-2.52-.51-3.77-.83s-2.25-.64-3.36-1L393.9,471l-1-.38c-.17-.07-1.13-.47-.35-.14a54.51,54.51,0,0,1-6.59-3.37q-1.51-.91-3-1.92l-1.44-1-.7-.53c-.23-.17-.19-.15.11.08l-.56-.44a56.39,56.39,0,0,1-5.46-5c-.81-.85-1.59-1.73-2.35-2.63-.38-.45-.74-.91-1.11-1.37.45.57.07.08,0,0-.28-.38-.56-.75-.83-1.14a52.45,52.45,0,0,1-3.86-6.29c-.54-1-1-2.1-1.51-3.17.06.15.28.7,0,0-.13-.33-.26-.65-.38-1-.23-.6-.45-1.21-.66-1.82a46.68,46.68,0,0,1-1.78-7c-.06-.35-.12-.7-.17-1.05-.19-1.13,0,.53,0-.16s-.13-1.16-.17-1.75c-.11-1.21-.16-2.44-.16-3.66s0-2.32.11-3.48c0-.58.1-1.16.16-1.73,0-.35.08-.69.12-1-.12.95,0-.2.05-.31a51,51,0,0,1,1.65-7.12c.34-1.11.71-2.21,1.13-3.3.2-.55.42-1.09.64-1.62-.35.84.11-.23.15-.33l.44-1a56.06,56.06,0,0,1,3.56-6.43c.63-1,1.29-1.94,2-2.89l.52-.7c.41-.55-.58.72.13-.16.44-.55.88-1.09,1.33-1.62a56.6,56.6,0,0,1,5.65-5.73c.53-.46,1.06-.91,1.6-1.35.08-.06,1-.78.29-.24l.84-.62c1.12-.83,2.27-1.61,3.46-2.35s2.19-1.3,3.33-1.88c.61-.32,1.24-.63,1.87-.93l.95-.43c.78-.35-.55.21.33-.13a49.68,49.68,0,0,1,8-2.44c2.35-.5,3.87-3.85,2.39-5.88a47.34,47.34,0,0,1-4.56-7.66c-.25-.53-.49-1.06-.73-1.6-.4-.9.2.57,0,0-.08-.25-.19-.49-.29-.73-.48-1.24-.91-2.49-1.28-3.77s-.68-2.53-.93-3.81c-.12-.61-.22-1.23-.32-1.84-.2-1.22.06.8-.05-.45-.05-.45-.1-.9-.13-1.35a34.54,34.54,0,0,1,2.59-16.66c.27-.65-.39.83.1-.21.15-.32.29-.65.45-1,.26-.53.52-1.06.81-1.59a37.29,37.29,0,0,1,2.2-3.63c.33-.49.67-1,1-1.44.68-.94-.49.6.23-.3l.67-.81c.85-1,1.75-2,2.7-3s1.75-1.68,2.67-2.46c.52-.45,1.06-.89,1.6-1.31-.59.46-.11.09,0,0l1.11-.81a48.25,48.25,0,0,1,6.54-3.87c.55-.27,1.1-.53,1.66-.78.12-.06,1.15-.48.25-.12l.61-.24c1.21-.48,2.43-.91,3.68-1.29s2.23-.63,3.37-.88c.51-.11,1-.21,1.54-.3l.95-.16c.46-.07.43-.07-.1,0l.64-.07a41.72,41.72,0,0,1,7.07-.21c.59,0,1.18.07,1.76.13l.81.08c.17,0,1.25.17.22,0,1.28.19,2.56.42,3.83.71a47.66,47.66,0,0,1,6.88,2.15c.13,0,1.15.47.27.1.26.1.51.22.76.33.56.25,1.11.51,1.66.78,1.21.59,2.39,1.23,3.55,1.91s2.31,1.44,3.43,2.22l.83.59.7.52.41.32,1.07.88a56.11,56.11,0,0,1,6.25,6.18q.7.81,1.38,1.65c0,.06.77,1,.26.32.29.39.58.77.86,1.17q1.29,1.77,2.44,3.65,1.26,2.07,2.36,4.23.51,1,1,2l.47,1.05c.18.43.2.47,0,.1l.3.71a4.21,4.21,0,0,0,2.79,2.8,4,4,0,0,0,3.89-1,55.44,55.44,0,0,1,4.88-4.57l.62-.51.38-.3.38-.29.48-.35c.95-.7,1.92-1.36,2.92-2a52.1,52.1,0,0,1,5.38-3l1.38-.62c-.65.29.63-.26.78-.31,1-.39,2-.73,3-1a43.17,43.17,0,0,1,5.82-1.38l.71-.11c-.16,0-.79.09,0,0l1.23-.13c1-.08,2-.13,3-.13s1.85,0,2.77.1l1.38.13c.18,0,.77.14,0,0l.84.14a31.06,31.06,0,0,1,5.35,1.43l1.14.44c-.74-.29,0,0,.3.15.8.37,1.57.77,2.33,1.2s1.43.84,2.12,1.3c.34.23.69.46,1,.71l.5.37c.62.44-.3-.27.06,0a48.43,48.43,0,0,1,3.89,3.55c.56.58,1.11,1.19,1.63,1.81.29.33.55.68.84,1s-.37-.51,0,0l.49.66a45.65,45.65,0,0,1,3,4.67c.41.75.81,1.51,1.18,2.28.2.41.4.83.59,1.25.1.21.19.42.28.63-.37-.8.1.25.14.34a51.43,51.43,0,0,1,3,11.23c0,.19,0,.37.08.55-.13-.88,0,.33,0,.41.07.56.12,1.11.16,1.67.09,1.13.15,2.26.17,3.39a58.84,58.84,0,0,1-.36,7.15c0,.12-.1.79,0,.11,0,.33-.09.66-.14,1-.1.59-.2,1.18-.31,1.77-.23,1.2-.5,2.39-.8,3.57a59.68,59.68,0,0,1-2.54,7.58c-.79,1.94.86,4.48,2.8,4.92,2.32.53,4.07-.72,4.92-2.8,6.8-16.68,5.93-36.72-4.1-52-4.28-6.51-10.2-12.25-17.39-15.46a39.31,39.31,0,0,0-25.23-2.08c-10.2,2.4-19.5,8.29-26.7,15.83l6.69,1.76a62.63,62.63,0,0,0-22.32-28.39,51.65,51.65,0,0,0-30.78-9.36,50.65,50.65,0,0,0-30.46,12.2,44.83,44.83,0,0,0-16.12,31.86c-.54,10.71,3.17,21.72,9.47,30.34l2.39-5.88c-21.07,4.45-38,22.64-42.79,43.4a51.92,51.92,0,0,0,2.93,32.24,58.6,58.6,0,0,0,20.46,24.56A55,55,0,0,0,412.85,482a4,4,0,0,0,0-8Z" transform="translate(-278.55 -130.85)"/><path class="cls-2" d="M591.22,386.53a32.23,32.23,0,0,1,.1-5.38c0-.11.11-.88,0-.38s0-.16,0-.2c.07-.43.14-.86.23-1.28.18-.91.39-1.81.65-2.7s.5-1.65.8-2.46c.17-.47.35-.93.54-1.39-.28.67.28-.59.36-.74a36.91,36.91,0,0,1,2.67-4.7c.24-.37.48-.72.74-1.08l.33-.45c.06-.08.53-.7.25-.34l.15-.19.48-.57c.32-.39.65-.76,1-1.13a38.55,38.55,0,0,1,3.92-3.75c.15-.12,1.07-.84.51-.42.35-.27.7-.52,1.06-.77.77-.54,1.55-1.05,2.36-1.53s1.58-.9,2.4-1.31l1.31-.62.47-.21.48-.19a40.16,40.16,0,0,1,5.71-1.77c.93-.22,1.88-.41,2.83-.56l.82-.13.17,0c.54-.06,1.09-.12,1.64-.16a46.5,46.5,0,0,1,6-.09c1,0,1.93.12,2.9.22.19,0,1.36.18.79.09l1.65.27a49.11,49.11,0,0,1,5.86,1.44c.93.29,1.85.61,2.76,1l1.35.53c-.15-.06-.53-.23.15.07l.68.31a38.13,38.13,0,0,1,4.79,2.69c.38.24.75.5,1.11.75l.62.45s.52.39.21.15l.79.64,1.16,1c.8.72,1.56,1.48,2.29,2.27.34.37.68.75,1,1.14l.36.43c.76.92-.23-.32.18.22a29.91,29.91,0,0,1,3.08,5.2c-.31-.66.18.46.27.71.16.45.31.9.44,1.36a20.42,20.42,0,0,1,.6,2.77c-.12-.85,0,.47,0,.71,0,.53,0,1.07,0,1.61s-.07,1-.1,1.44,0-.1,0-.16c-.07.36-.13.72-.21,1.09a4,4,0,0,0,6.69,3.89c.46-.51,1-1,1.46-1.48l.71-.63c.24-.2.95-.69.3-.25a33.38,33.38,0,0,1,3.48-2.13l.85-.4c.65-.31-.6.21.35-.14.64-.24,1.28-.47,1.93-.66s1.32-.36,2-.51l.93-.18c.34-.06,1.18-.18.35-.08a30,30,0,0,1,4.13-.23c.7,0,1.39.05,2.08.11l1,.09c.46,0-.23,0-.27,0l.63.1a29.82,29.82,0,0,1,4.05,1c.66.21,1.3.48,2,.69.43.14-.18-.08-.22-.1l.44.2,1,.47a27,27,0,0,1,3.54,2.13c.27.19.75.57.21.14.29.23.57.46.86.71.52.45,1,.92,1.5,1.42s.91,1.05,1.38,1.55c.3.31-.07-.11-.11-.15.11.13.21.27.3.4.23.32.46.64.67,1a31.7,31.7,0,0,1,2.07,3.8c-.33-.7.06.15.17.43s.23.62.33.93c.24.69.44,1.38.62,2.07s.33,1.41.46,2.12c.06.33.11.66.16,1s0-.19,0-.24c0,.22.05.45.07.67a31.57,31.57,0,0,1,.11,4.35c0,.73-.08,1.46-.16,2.19l-.06.5c0-.05.11-.7,0-.23s-.12.78-.19,1.16a32.92,32.92,0,0,1-1.3,4.89c-.13.38-.27.75-.41,1.11-.06.16-.13.32-.19.47.13-.34.17-.39,0,0-.35.76-.71,1.52-1.12,2.26s-.77,1.37-1.2,2l-.76,1.11c-.15.21-.77,1-.28.4a34.33,34.33,0,0,1-3.48,3.65,4,4,0,0,0-.83,4.37,4.13,4.13,0,0,0,3.65,2.46c-.59-.08.11,0,.19,0l.84.12,1.87.31c1.18.21,2.35.45,3.51.71a69.32,69.32,0,0,1,7.11,2,48.28,48.28,0,0,1,6.07,2.41,57.35,57.35,0,0,1,6.25,3.42q1.5,1,2.94,2l.68.5.18.14c.54.43,1.06.86,1.58,1.31a47.23,47.23,0,0,1,4.75,4.74c.34.39.68.8,1,1.21.17.2.34.41.5.62-.37-.47,0,.06.09.13.7,1,1.38,1.93,2,2.93a42.74,42.74,0,0,1,3.12,5.91c-.25-.57,0,0,0,.13.09.25.19.49.28.73.18.49.36,1,.52,1.48.38,1.11.7,2.24,1,3.38q.18.76.33,1.53c0,.26.09.51.14.77,0-.07.19,1.2.1.63s0,.34,0,.44c0,.26.06.52.08.78,0,.58.09,1.17.12,1.76a31.57,31.57,0,0,1-2,12.8c-.18.51-.36,1-.55,1.5l-.18.45c.2-.49-.31.72-.27.62-.47,1-1,2.06-1.51,3.06a49.66,49.66,0,0,1-3.79,5.93c-.16.22-.32.44-.49.65.11-.14.38-.48-.12.14-.34.42-.68.83-1,1.24-.79.92-1.61,1.82-2.45,2.68a60.14,60.14,0,0,1-5.25,4.72s-.59.46-.2.16c-.34.27-.68.52-1,.77l-1.57,1.12c-1.11.77-2.24,1.51-3.39,2.21q-3.46,2.13-7.13,3.91a114,114,0,0,1-15,5.94,4,4,0,0,0,1.07,7.86c.53,0,1.06,0,1.59.08l.87.09c-.16,0-.79-.14,0,0a29.44,29.44,0,0,1,3.05.74c.49.16,1,.33,1.47.52.19.08.9.4.18.07l.63.29a25.39,25.39,0,0,1,2.75,1.53c.45.28.89.58,1.32.88.15.11.78.58.18.12l.55.44c.82.68,1.6,1.4,2.35,2.16s1.45,1.57,2.11,2.41c-.45-.57.31.43.45.63.34.48.67,1,1,1.49a29.64,29.64,0,0,1,1.55,2.82c.08.16.63,1.43.32.68.25.6.48,1.22.69,1.84a26.65,26.65,0,0,1,.8,2.91c.12.51.22,1,.3,1.54,0-.09.17,1.22.11.67,0-.33.06.72.08.87a35.46,35.46,0,0,1-.13,7.21c-.08.68.09-.54,0,.13,0,.34-.1.67-.16,1-.09.53-.2,1.06-.31,1.58-.28,1.25-.62,2.49-1,3.71a43.39,43.39,0,0,1-6.46,12.41c-.2.28-.4.55-.61.82.11-.14.37-.47-.13.15l-1,1.2c-.71.82-1.45,1.62-2.22,2.39s-1.4,1.35-2.14,2l-1.18,1-.67.54c.44-.35.1-.08-.15.11a49.75,49.75,0,0,1-5.22,3.41c-.86.48-1.73.94-2.61,1.37q-.71.35-1.41.66l-.79.35c.64-.28-.08,0-.33.13a50.16,50.16,0,0,1-5.9,1.92q-1.32.33-2.67.6c-.56.11-1.12.21-1.68.29l-.68.1c.72-.1.06,0-.28,0a42.07,42.07,0,0,1-6.73.21c-.56,0-1.12-.07-1.67-.12l-.67-.06c-.14,0-1.24-.19-.25,0-1.1-.18-2.18-.37-3.26-.62s-2.14-.57-3.18-.92c-.53-.18-1-.38-1.56-.58-1-.37.47.24-.12,0l-.75-.34a32.81,32.81,0,0,1-6-3.67c-1.68-1.28-4.55-.32-5.48,1.43a4.12,4.12,0,0,0,1.44,5.47c15.14,11.54,37.15,8.79,52.17-1.47C728,578,739,554.09,729,534.34c-5-10-15.29-17.52-26.68-17.76l1.06,7.85c19.67-6.44,39.73-17.3,48.2-37.3a41.9,41.9,0,0,0,1.56-29.73A50.48,50.48,0,0,0,735.07,433c-9.64-7.16-21.37-10.8-33.16-12.34l2.83,6.83c10.19-9,14.21-24.73,9.69-37.58a29.68,29.68,0,0,0-12.54-15.72A33.09,33.09,0,0,0,683,369.62c-7.47.46-14.8,3.38-19.91,9l6.69,3.89c1.83-8.77-1.45-17.15-7.24-23.73s-13.77-10.88-22.15-13.07c-17.28-4.52-36.95-.06-48.3,14.34-5.92,7.5-9.5,16.86-8.9,26.5a4,4,0,0,0,8,0Z" transform="translate(-278.55 -130.85)"/><path class="cls-2" d="M406.84,550.32a53.63,53.63,0,0,0-28,5.36,59.32,59.32,0,0,0-11.85,8,44.37,44.37,0,0,0-13.4,19,34.88,34.88,0,0,0,2.17,27.15,32.89,32.89,0,0,0,24.94,18v-8a30.34,30.34,0,0,0-16.9,7.42,29.45,29.45,0,0,0,3,46.36,29.24,29.24,0,0,0,19,5.09c2.08-.18,4.1-1.71,4-4-.09-2-1.77-4.19-4-4a27.35,27.35,0,0,1-3.84.07l-.86-.07c-.22,0-1-.12-.12,0q-1-.13-2-.36a34.33,34.33,0,0,1-3.54-1.08c-.15-.05-.71-.28,0,0l-.91-.41q-.9-.44-1.77-.93a25.46,25.46,0,0,1-2.76-1.84c.74.57-.13-.12-.23-.2l-.75-.66c-.49-.45-1-.91-1.42-1.4s-.74-.82-1.1-1.24c-.08-.11-.73-1-.19-.24l-.39-.54a25.11,25.11,0,0,1-2-3.31c-.13-.25-.24-.51-.37-.76-.49-1,.27.75-.12-.29-.2-.54-.4-1.07-.57-1.61a28,28,0,0,1-.88-3.7c-.2-1.14,0,.82,0-.34,0-.29-.05-.58-.07-.88,0-.64-.06-1.28-.05-1.92s0-1.15.07-1.72c0-.35.06-.69.1-1-.08.72,0,0,.06-.28a24.94,24.94,0,0,1,.9-3.6c.18-.53.38-1.05.58-1.57-.28.74-.09.19,0,0,.19-.41.37-.81.58-1.21a24.79,24.79,0,0,1,1.7-2.84c.19-.28.39-.55.58-.81-.55.75.11-.13.2-.24.42-.51.87-1,1.33-1.48s.94-.94,1.44-1.38l.5-.43.52-.42c-.37.28-.38.29,0,0a27.41,27.41,0,0,1,3.42-2.12l.9-.45c.11,0,1.14-.45.29-.14.64-.24,1.28-.48,1.93-.68s1.32-.39,2-.54l1-.2.69-.12c-.48.06-.48.06,0,0,2.07-.25,4.11-1.67,4-4s-1.77-3.72-4-4c.9.11-.59-.12-.83-.16-.51-.11-1-.23-1.51-.36a24.61,24.61,0,0,1-2.93-1c.78.32-.42-.2-.61-.29-.42-.2-.82-.42-1.22-.64a28.4,28.4,0,0,1-2.76-1.74c-.09-.07-.68-.49-.29-.2s-.18-.15-.27-.22c-.4-.33-.8-.67-1.18-1a30.72,30.72,0,0,1-2.21-2.21c-.31-.35-.62-.7-.91-1.06l-.44-.54c.47.6,0,0-.12-.17-.62-.85-1.2-1.72-1.74-2.63s-1-1.73-1.4-2.63c-.08-.17-.63-1.42-.31-.65q-.33-.81-.63-1.65c-.32-.93-.61-1.89-.85-2.85-.13-.52-.24-1-.34-1.55,0-.22-.09-.45-.13-.69s-.16-1.26-.06-.32a31.2,31.2,0,0,1-.1-6.11c0-.23,0-.46.07-.69s.11-.85,0-.31.08-.47.08-.47l.12-.66c.19-1,.43-1.93.7-2.88s.56-1.72.88-2.57c.05-.12.29-.76.1-.25l.1-.25c.22-.47.44-.94.67-1.4a36.1,36.1,0,0,1,2.72-4.56c.25-.37.52-.72.78-1.08.59-.81-.36.42.27-.35s1.17-1.4,1.78-2.07c1-1.15,2.16-2.25,3.31-3.3.58-.52,1.16-1,1.76-1.52l.78-.64.38-.3c.69-.55-.74.55,0,0,1-.76,2.07-1.52,3.15-2.23a54,54,0,0,1,4.76-2.81,43.44,43.44,0,0,1,12.56-4.14l.78-.13s1.31-.18.47-.08c.62-.08,1.23-.14,1.85-.2,1.14-.1,2.28-.17,3.42-.19a53.16,53.16,0,0,1,5.5.15,4,4,0,0,0,4-4,4.11,4.11,0,0,0-4-4Z" transform="translate(-278.55 -130.85)"/><path class="cls-2" d="M666.42,866a28.49,28.49,0,0,0,25,12.28,4.07,4.07,0,0,0,4-4c-.1-2-1.77-4.15-4-4a23.69,23.69,0,0,1-2.92,0c-.48,0-1-.09-1.45-.13s.72.13,0,0l-.64-.11a24.83,24.83,0,0,1-2.82-.73c-.52-.16-1-.35-1.53-.54s-.24-.11.06,0l-.73-.34a24.31,24.31,0,0,1-2.55-1.41c-.41-.26-.82-.53-1.21-.81l-.52-.39c.43.33.22.17-.08-.08a23.43,23.43,0,0,1-2.11-2c-.33-.35-.65-.72-1-1.09s-.18-.23,0,0c-.19-.26-.38-.52-.56-.79-1.19-1.71-3.56-2.67-5.48-1.43-1.7,1.1-2.71,3.63-1.43,5.47Z" transform="translate(-278.55 -130.85)"/><path class="cls-2" d="M529.35,269.52c0,.7,0,1.4-.07,2.1,0,.4-.09.8-.11,1.2s0-.15,0-.21c0,.23-.07.45-.1.68a29.73,29.73,0,0,1-1,4.26c-.21.64-.46,1.26-.69,1.88.24-.65,0,0-.12.27s-.32.7-.5,1a28.86,28.86,0,0,1-2.2,3.66l-.37.52c.26-.35-.3.38-.39.49q-.74.88-1.53,1.71c-.46.47-.93.92-1.41,1.36l-.74.65c-.12.11-.25.21-.38.31s-.8.62-.36.3-.4.28-.52.37l-.82.55c-.59.39-1.2.76-1.82,1.11s-1.27.67-1.92,1c-.14.06-1,.43-.58.26l-.76.29a30.56,30.56,0,0,1-4.21,1.18l-1,.18c-.32.05-1,.11-.3.05-.81.07-1.61.16-2.42.19a42.26,42.26,0,0,1-4.36-.17c-.47,0,.16,0,.21,0l-.68-.11-1-.18c-.72-.15-1.43-.32-2.14-.52s-1.28-.38-1.91-.61l-1.09-.41c.73.27-.16-.07-.41-.19a29,29,0,0,1-3.74-2.08l-.82-.55c-.12-.09-.87-.63-.52-.37s-.37-.3-.49-.4q-.44-.36-.87-.75a29.33,29.33,0,0,1-2.95-3c-.21-.25-.42-.5-.62-.76.43.55,0,0-.16-.24-.44-.63-.86-1.27-1.26-1.93s-.66-1.14-1-1.72l-.44-.89c-.12-.27-.54-1.33-.26-.57a38.45,38.45,0,0,1-1.28-4c-.17-.71-.32-1.43-.44-2.16-.05-.31-.11-1-.05-.3,0-.4-.08-.8-.11-1.2a28.67,28.67,0,0,1,0-4.54c0-.35.07-.69.09-1s0,.16,0,.21c0-.16,0-.33.07-.5.13-.79.29-1.56.47-2.33a35,35,0,0,1,1.28-4c-.28.74.08-.16.2-.41s.28-.6.43-.89c.32-.64.66-1.26,1-1.88s.76-1.2,1.17-1.78c.08-.13.63-.88.36-.52s.38-.47.51-.62a30.46,30.46,0,0,1,2.95-3.06c.49-.43,1-.85,1.51-1.26-.55.43,0,0,.24-.15s.63-.44.95-.65a29,29,0,0,1,3.74-2.08c.13-.06,1-.43.58-.26l.76-.29c.68-.25,1.38-.47,2.07-.66s1.31-.35,2-.49l1.17-.21.51-.08c.61-.1-.65.05,0,0a42.26,42.26,0,0,1,4.36-.17c.75,0,1.5.11,2.25.17.47,0-.16,0-.21,0l.51.08q.58.09,1.17.21a29.22,29.22,0,0,1,4.21,1.18l.93.36c-.66-.24,0,0,.26.12.7.32,1.39.67,2.07,1s1.13.66,1.69,1l.81.55c.19.13,1.2.88.51.34a29.26,29.26,0,0,1,3,2.74c.49.51,1,1,1.42,1.58.21.25.42.5.62.76-.48-.61.09.15.25.38a28.86,28.86,0,0,1,2.2,3.66c.15.29.29.59.43.89.07.14.43,1,.27.59s.17.46.22.6c.16.42.3.84.44,1.26a29.27,29.27,0,0,1,1,4.11c0,.31.11,1,0,.29,0,.4.08.8.11,1.21.06.75.09,1.51.09,2.27a4,4,0,0,0,8,0,33.38,33.38,0,0,0-66.67-2.45,33.19,33.19,0,0,0,4.62,19.58,33.39,33.39,0,0,0,61.57-11.57,38.4,38.4,0,0,0,.48-5.56,4,4,0,0,0-8,0Z" transform="translate(-278.55 -130.85)"/><path class="cls-2" d="M730.8,315.28c0,.41,0,.82,0,1.23,0,.17,0,.34,0,.51,0,0,.12-.67,0-.21a21,21,0,0,1-.59,2.46c-.1.32-.23.63-.34.94.28-.82-.1.2-.2.41a20.7,20.7,0,0,1-1.27,2.11c-.42.62.32-.35-.17.22-.25.29-.5.58-.77.85s-.46.47-.7.69l-.49.43c-.06.06-.61.5-.23.2s-.48.33-.66.45-.56.35-.84.51l-1,.54-.45.2c.77-.35,0,0-.13,0a16.79,16.79,0,0,1-2.1.6c-.18,0-1.27.2-.81.15s-.65,0-.85,0c-.82,0-1.62,0-2.44-.08.71,0,0,0-.29-.06s-.88-.18-1.31-.3-.75-.23-1.12-.36l-.47-.17c.14.05.72.34,0,0a19.77,19.77,0,0,1-2-1.12l-.81-.56c.71.49-.16-.15-.33-.3a20.18,20.18,0,0,1-1.7-1.76c-.5-.57.24.4-.18-.22-.21-.32-.43-.64-.63-1s-.39-.67-.56-1c-.09-.17-.51-1.1-.35-.72s-.2-.56-.27-.77-.19-.64-.28-1-.18-.77-.25-1.15c0-.17-.06-.34-.08-.51.13.87,0,.05,0-.13a15.77,15.77,0,0,1,0-2.28c0-.23,0-.46,0-.69,0,.06-.12.68,0,.22s.16-.89.27-1.33c.18-.71.42-1.39.66-2.07-.23.65,0,0,.13-.26s.4-.78.63-1.16.41-.64.62-1c.09-.14.19-.27.28-.4-.08.12-.5.59,0,0a17.6,17.6,0,0,1,1.58-1.65c.13-.12,1-.8.6-.53s.4-.27.52-.35a18.19,18.19,0,0,1,2.15-1.21c.69-.33-.45.14.27-.11.37-.12.74-.25,1.12-.36s.75-.21,1.14-.29c.2,0,1.23-.19.81-.15s.67,0,.85-.05c.41,0,.82,0,1.23,0s.69.06,1,.07c.61,0-.64-.13,0,0l.67.12a18.94,18.94,0,0,1,2.42.68c.71.25.11,0,0,0l.6.28c.39.2.78.41,1.15.63s.74.47,1.1.72c.06,0,.5.36.12.07s.36.31.36.31a18.83,18.83,0,0,1,1.72,1.74c.11.12.21.25.31.38-.35-.43-.15-.21.06.11s.43.63.62,1,.44.77.63,1.16c.1.2.19.4.28.6-.15-.33-.16-.43,0,0a19.37,19.37,0,0,1,.72,2.58l.09.51c.11.58,0-.64,0,0s.06,1,.07,1.56a4,4,0,0,0,8,0,20.69,20.69,0,0,0-13.64-19.22,20.38,20.38,0,0,0-24.28,29.6,20.67,20.67,0,0,0,21.7,9.57c9.41-1.8,16.12-10.53,16.22-20a4,4,0,0,0-8,0Z" transform="translate(-278.55 -130.85)"/><path class="cls-2" d="M791,284.21c0,.35,0,.7,0,1.05,0,.16-.2,1.27,0,.31a17.08,17.08,0,0,1-.47,2c-.1.32-.21.63-.33.94.33-.88-.06.12-.13.26a18.74,18.74,0,0,1-1.19,2c-.58.88.54-.54-.18.22-.22.24-.43.49-.66.73s-.47.46-.71.67-1,.77-.2.21a15.15,15.15,0,0,1-1.66,1.07c-.29.16-.58.3-.88.45-.69.35.54-.18-.43.16a13.7,13.7,0,0,1-1.77.5c-.15,0-1.27.2-.29.08-.34,0-.69.07-1,.09a20.83,20.83,0,0,1-2.09-.05c-1.1-.07.77.21-.3,0-.43-.11-.88-.19-1.31-.31l-1-.31c-1-.32.68.38-.27-.11a18,18,0,0,1-1.72-1c-.28-.18-.55-.37-.81-.56.75.56-.1-.11-.2-.21a20.65,20.65,0,0,1-1.59-1.65c.51.57.14.19,0,0s-.37-.54-.54-.82a14.59,14.59,0,0,1-.92-1.75c.39.87,0-.15-.08-.28-.11-.32-.21-.64-.29-1s-.14-.66-.23-1-.08-.45,0,.05q0-.34-.06-.69a14.72,14.72,0,0,1,0-2.1c0-.16.2-1.26,0-.3.06-.34.12-.67.2-1a14.24,14.24,0,0,1,.6-1.92c-.33.89.06-.12.13-.26.2-.39.41-.77.64-1.15.14-.23.3-.45.45-.68s.6-.74.06-.11c.43-.5.87-1,1.34-1.43l.74-.65c-.71.61.12-.07.24-.15a19.89,19.89,0,0,1,2-1.15c1-.48-.75.21.27-.1.32-.1.64-.22,1-.31s.65-.18,1-.25c.15,0,1.26-.2.29-.08a16.1,16.1,0,0,1,2.08-.1l1.05.06c.47.06.46.05,0,0l.67.13a18.5,18.5,0,0,1,1.93.56c1,.33-.68-.39.27.1.4.21.79.4,1.17.62s.56.34.83.53.36.24.54.38c-.38-.3-.39-.3,0,0,.56.53,1.09,1.06,1.62,1.62.72.77-.4-.66.18.22.25.37.49.73.72,1.1s.32.58.47.87.19.4.28.6q-.28-.66,0,0c.23.76.43,1.5.62,2.27.26,1.07,0-.81,0,.3,0,.46.06.92.07,1.39a4,4,0,1,0,8,0,19,19,0,0,0-12.46-17.61,18.71,18.71,0,0,0-20.44,5.48,18.67,18.67,0,0,0,18,30.42c8.64-1.63,14.77-9.66,14.88-18.29a4,4,0,0,0-8,0Z" transform="translate(-278.55 -130.85)"/><path class="cls-2" d="M822.3,393.33c0,.93,0,1.85-.11,2.78,0,.4-.07.8-.11,1.2,0,.13-.11.85,0,.32s-.08.48-.08.48a35,35,0,0,1-1.28,5.23c-.25.79-.57,1.56-.85,2.34-.16.43.06-.15.08-.19l-.27.6c-.2.45-.42.89-.64,1.34a36.55,36.55,0,0,1-2.71,4.48c-.22.31-.45.61-.68.92.55-.74-.27.33-.39.47-.55.67-1.13,1.31-1.74,1.94s-1.23,1.23-1.87,1.81l-.87.75-.5.41c-.29.24-.53.41-.09.08a35.47,35.47,0,0,1-4.39,2.85c-.72.39-1.45.77-2.2,1.11-.25.12-1.14.49-.41.19-.46.19-.92.37-1.39.54a35.26,35.26,0,0,1-5.16,1.45l-1.17.21-.67.1c.82-.13.22,0,0,0-.91.1-1.83.18-2.75.22a39.71,39.71,0,0,1-5.56-.22c-.18,0-.78-.12,0,0l-.67-.1-1.17-.21c-.93-.19-1.86-.42-2.78-.68s-1.59-.48-2.38-.77l-1.08-.41c-.71-.28-.1,0,0,0l-.76-.34a35.49,35.49,0,0,1-4.59-2.55c-.68-.44-1.35-.92-2-1.41.69.52-.29-.24-.47-.39s-.66-.56-1-.85a35.59,35.59,0,0,1-3.62-3.75c-.16-.19-.91-1.17-.39-.47l-.67-.92c-.54-.76-1-1.53-1.52-2.33s-.82-1.42-1.19-2.15c-.18-.35-.35-.69-.51-1l-.27-.6c-.44-1,.16.46,0-.11a45.49,45.49,0,0,1-1.63-5.08q-.3-1.23-.51-2.49c0-.22-.07-.45-.1-.67,0,.15.09.82,0,0,0-.45-.1-.91-.13-1.37a34.53,34.53,0,0,1,0-5.57c0-.46.08-.92.13-1.37,0-.18.12-.78,0,0,0-.17,0-.33.08-.5q.23-1.43.57-2.82a49.48,49.48,0,0,1,1.59-4.92c.2-.56-.28.58,0,0,.1-.19.18-.4.27-.6.16-.35.33-.69.5-1,.42-.83.87-1.64,1.35-2.44s.87-1.39,1.34-2.06l.77-1.05c-.5.67.22-.26.39-.47a35.59,35.59,0,0,1,3.62-3.75c.32-.29.65-.57,1-.85l.62-.5.77-.57c.4-.28.81-.56,1.22-.82a34.44,34.44,0,0,1,4.45-2.46c.2-.09.41-.17.61-.27.53-.26-.61.22-.05,0,.37-.14.72-.29,1.09-.42.88-.33,1.78-.62,2.69-.88s1.63-.42,2.46-.59l1.33-.25.67-.1c-.36.06-.47,0,0,0a38.25,38.25,0,0,1,5.56-.22c.86,0,1.72.1,2.58.2.13,0,.85.11.32,0s.19,0,.32.05l1.5.28a35.56,35.56,0,0,1,5.15,1.47l1.08.42c.56.2-.57-.29,0,0l.45.2c.85.39,1.68.81,2.5,1.26a38.09,38.09,0,0,1,4.24,2.77c-.7-.52.28.23.47.39l1,.85c.64.58,1.27,1.19,1.87,1.81s1.19,1.27,1.74,1.94c.11.13.78,1,.51.62s.1.14.18.24l.47.66a34.74,34.74,0,0,1,2.69,4.5c.17.35.34.69.5,1s.49,1.13.19.41c.36.87.69,1.75,1,2.65a37.34,37.34,0,0,1,1.25,5.24c0,.17,0,.33.08.5-.14-.82,0-.22,0,0,0,.45.09.91.13,1.37.07.93.1,1.86.11,2.79a4,4,0,0,0,8,0,39.64,39.64,0,0,0-79.19-2.79A39.55,39.55,0,0,0,774,429.3a40.51,40.51,0,0,0,24.73,2.84c15.67-3.13,28.55-16.41,31-32.24a43.93,43.93,0,0,0,.57-6.57,4,4,0,1,0-8,0Z" transform="translate(-278.55 -130.85)"/><path class="cls-2" d="M351.75,497.37c0,.41,0,.82-.05,1.23,0,.17,0,.34-.05.51,0-.05.12-.67,0-.21a19.13,19.13,0,0,1-.59,2.46c-.1.32-.22.63-.33.94.28-.82-.1.2-.21.41a20.7,20.7,0,0,1-1.27,2.11c-.42.62.33-.35-.17.22-.25.29-.5.58-.76.85s-.46.47-.7.69l-.49.43c-.07.06-.62.5-.23.2s-.49.33-.66.45-.56.35-.85.51-.68.36-1,.54l-.45.2c.77-.35.05,0-.12,0a19.31,19.31,0,0,1-2.1.6c-.18,0-1.28.2-.82.15s-.64,0-.84.05c-.82,0-1.62,0-2.44-.08.7,0,0,0-.29-.06s-.88-.18-1.32-.3-.75-.23-1.11-.36c-.16-.05-.32-.12-.47-.18l0,0a18.75,18.75,0,0,1-2-1.12c-.28-.18-.54-.37-.81-.56.71.49-.17-.15-.33-.3a18.93,18.93,0,0,1-1.71-1.76c-.5-.57.25.4-.17-.22q-.33-.48-.63-1c-.2-.33-.39-.67-.57-1-.09-.17-.5-1.1-.35-.72s-.2-.56-.26-.77-.2-.64-.28-1-.18-.77-.25-1.15l-.09-.51c.13.87,0,0,0-.13a17.35,17.35,0,0,1,0-2.28c0-.23.05-.46.06-.69,0,.06-.12.68,0,.22s.16-.89.27-1.33c.17-.71.42-1.39.65-2.07-.22.65,0,0,.14-.26s.4-.78.62-1.16.41-.64.62-1l.29-.4c-.09.12-.5.59,0,0a20.39,20.39,0,0,1,1.58-1.64c.13-.12,1-.8.6-.53s.4-.27.53-.35a18.19,18.19,0,0,1,2.15-1.21c.69-.34-.46.14.27-.11.37-.12.73-.25,1.11-.36s.76-.21,1.14-.29c.2,0,1.24-.19.82-.15s.66,0,.84-.05c.41,0,.82,0,1.23,0s.7.06,1,.07c.62,0-.64-.13,0,0,.22,0,.45.07.67.12a18.07,18.07,0,0,1,2.42.68c.71.25.11,0,0,0l.6.28c.39.2.78.41,1.16.63s.73.47,1.1.72c.05,0,.49.36.12.07s.35.31.35.31a20.29,20.29,0,0,1,1.73,1.74l.31.38c-.35-.43-.15-.21.06.11s.42.63.62,1,.43.77.63,1.16c.09.2.18.4.28.6-.15-.33-.17-.43,0,0a19.37,19.37,0,0,1,.72,2.58c0,.17,0,.34.08.51.12.58,0-.65,0,0s.07,1,.08,1.56a4,4,0,0,0,8,0,20.72,20.72,0,0,0-13.64-19.22,20.42,20.42,0,0,0-22.25,6,20.36,20.36,0,0,0,19.66,33.15c9.41-1.8,16.13-10.53,16.23-20a4,4,0,0,0-8,0Z" transform="translate(-278.55 -130.85)"/><path class="cls-2" d="M724.27,133.29l-21.75,28.35,5.64-2.3a63.55,63.55,0,0,0-71.42,30.56,65.59,65.59,0,0,0-5,11.26,5,5,0,0,0,2.3,5.65l78.43,38.39L734.39,256c2.35,1.14,5.51.74,6.85-1.8,10.37-19.71,13.61-43.8,4.87-64.72a71.75,71.75,0,0,0-11.6-18.82l.79,6.06q5.9-12.78,11.8-25.55c1.1-2.37.75-5.49-1.79-6.84-2.2-1.16-5.67-.74-6.84,1.8q-5.91,12.76-11.81,25.54a5.3,5.3,0,0,0,.78,6.06c.42.49.84,1,1.25,1.5l.52.66c.46.58-.73-1,0-.05.87,1.19,1.73,2.38,2.53,3.61a63.32,63.32,0,0,1,4.47,8.06l.45,1c.61,1.33-.35-.93.2.45.28.71.56,1.42.82,2.14q1,2.66,1.69,5.4.63,2.41,1.08,4.89c.13.72.24,1.45.35,2.19-.18-1.2,0,.24,0,.4.07.58.12,1.15.17,1.72a66.41,66.41,0,0,1,.16,9.14c-.07,1.45-.19,2.89-.35,4.33,0,.37-.07.77-.14,1.14.23-1.19,0-.32,0,0-.12.8-.25,1.6-.39,2.39a82.15,82.15,0,0,1-3.9,14.13c-.39,1.05-.92,2.09-1.25,3.15,0,0,.54-1.23.23-.53-.13.28-.25.56-.37.84s-.35.77-.53,1.16c-.58,1.25-1.19,2.49-1.83,3.71l6.84-1.8L661,208.93l-22-10.75,2.3,5.64c.35-1.06.74-2.11,1.16-3.14.08-.18.15-.36.22-.54-.14.39-.53,1.24-.19.48.19-.44.38-.87.58-1.3.42-.91.87-1.81,1.33-2.7a64.24,64.24,0,0,1,3.88-6.41c.36-.52.72-1,1.09-1.54a6.25,6.25,0,0,0,.63-.83c0,.07-.75.95-.23.29l.39-.48q1.44-1.82,3-3.5t3.4-3.34c.61-.55,1.24-1.1,1.87-1.62l1-.8c.09-.08.58-.46.07-.06s.26-.19.38-.28a57.32,57.32,0,0,1,9.94-5.92c.51-.24,1-.47,1.54-.69-.72.31.33-.13.55-.22,1.07-.42,2.16-.81,3.25-1.16a58.09,58.09,0,0,1,6.09-1.62c.94-.2,1.88-.37,2.83-.52.49-.08,1.09-.28.24,0a11.31,11.31,0,0,1,1.55-.18c1.76-.18,3.53-.28,5.3-.31s3.48,0,5.21.14c.77,0,1.55.12,2.31.21l1.08.12c1.09.13-1.12-.17-.07,0,1.93.3,3.84.66,5.73,1.14,2.38.61,4.25-.48,5.64-2.29l21.75-28.35c1.6-2.09.39-5.69-1.79-6.84-2.65-1.4-5.14-.43-6.84,1.79Z" transform="translate(-278.55 -130.85)"/><path class="cls-2" d="M628.51,214.11Q614.92,240.74,600.75,267q-4,7.47-8.1,14.92a5,5,0,0,0,8.64,5q14.34-26.21,28.09-52.74,3.9-7.53,7.76-15.09c1.19-2.33.69-5.53-1.79-6.84-2.29-1.21-5.58-.69-6.84,1.79Z" transform="translate(-278.55 -130.85)"/><path class="cls-2" d="M641.65,224.42a63.16,63.16,0,0,1-2.48,7.92c-.13.33-.27.67-.4,1s-.47,1.13-.08.22c-.23.53-.47,1.06-.71,1.59-.6,1.33-1.23,2.65-1.89,4-2.53,5-5.43,9.76-8.3,14.55a281.46,281.46,0,0,0-16.07,30.5q-4.23,9.49-7.76,19.3a5,5,0,0,0,3.5,6.15,5.13,5.13,0,0,0,6.15-3.49c1-2.77,2-5.53,3.11-8.26.51-1.3,1-2.59,1.57-3.87,0,.06.56-1.34.29-.69s.32-.76.29-.69c.3-.71.61-1.42.92-2.13q3.54-8.09,7.64-15.91c5.2-9.95,11.49-19.29,16.69-29.24a80.64,80.64,0,0,0,7.17-18.25,5,5,0,1,0-9.64-2.66Z" transform="translate(-278.55 -130.85)"/><path class="cls-2" d="M661.64,234q-2.07,6-4.39,11.85c-.74,1.88-1.51,3.76-2.29,5.63-.23.54-.24.58,0,.1-.09.22-.19.43-.28.65-.21.5-.43,1-.65,1.5-.4.93-.81,1.86-1.22,2.78Q647.67,268,641.62,279a5,5,0,0,0,8.63,5.05,305.68,305.68,0,0,0,21-47.31,5,5,0,0,0-3.49-6.15,5.11,5.11,0,0,0-6.15,3.49Z" transform="translate(-278.55 -130.85)"/><path class="cls-2" d="M633.44,292.57q-5.64,11.88-11.27,23.74c-1.12,2.36-.73,5.51,1.79,6.85,2.23,1.17,5.65.72,6.85-1.8l11.26-23.74c1.12-2.36.74-5.5-1.79-6.84-2.23-1.18-5.64-.73-6.84,1.79Z" transform="translate(-278.55 -130.85)"/><path class="cls-2" d="M683.1,241.85q-1.56,4-3.16,7.93l-1.53,3.72c-.27.66-.54,1.31-.82,2l-.36.87c0,.05-.61,1.45-.24.55q-3.27,7.75-6.75,15.4-7,15.31-14.71,30.24-4.42,8.52-9.1,16.89a5,5,0,0,0,8.64,5.05,642,642,0,0,0,30-61.22q4-9.31,7.67-18.74c1-2.44-1-5.59-3.49-6.15-2.88-.65-5.13.88-6.15,3.49Z" transform="translate(-278.55 -130.85)"/><path class="cls-2" d="M700.53,249.54a131,131,0,0,1-4.68,13.53q-.21.49.06-.15l-.36.84c-.24.56-.49,1.11-.74,1.66-.5,1.11-1,2.2-1.55,3.29q-1.6,3.27-3.41,6.42a5,5,0,1,0,8.63,5.05,125,125,0,0,0,11.69-28,5,5,0,1,0-9.64-2.66Z" transform="translate(-278.55 -130.85)"/><path class="cls-2" d="M677.75,302.25q-8.64,17.94-17.27,35.87c-1.13,2.36-.72,5.52,1.8,6.85,2.23,1.18,5.63.72,6.84-1.8q8.63-17.94,17.26-35.87c1.13-2.36.72-5.51-1.79-6.84-2.24-1.19-5.63-.73-6.84,1.79Z" transform="translate(-278.55 -130.85)"/><path class="cls-2" d="M719,256l-9.58,21.22c-1.08,2.37-.77,5.49,1.79,6.84,2.19,1.15,5.69.75,6.84-1.8l9.59-21.22c1.07-2.37.76-5.49-1.8-6.84-2.19-1.15-5.69-.75-6.84,1.8Z" transform="translate(-278.55 -130.85)"/></g></svg>