<svg xmlns="http://www.w3.org/2000/svg" viewBox="0 0 688.98 621.2"><defs><style>.cls-1{fill:#3f8e93;}.cls-2{fill:#fff;}.cls-3,.cls-4{fill:#b8d8ef;}.cls-4{stroke:#b8d8ef;stroke-miterlimit:10;}.cls-5{fill:#22565a;}</style></defs><g id="Слой_6" data-name="Слой 6"><path class="cls-1" d="M591.75,764.64c0,3.53-.14,7.05-.42,10.57-.13,1.71-.3,3.41-.5,5.12-.05.42-.11.84-.16,1.26,0,0-.08.63,0,.23s0,.31,0,.4c-.12.84-.25,1.68-.38,2.52a131.29,131.29,0,0,1-4.79,19.87q-1.53,4.73-3.41,9.31c-.07.16-.48,1.15-.23.57-.16.38-.33.75-.49,1.13-.35.81-.71,1.61-1.08,2.41-.68,1.49-1.4,3-2.13,4.43a132.75,132.75,0,0,1-10.19,16.88q-1.46,2.05-3,4.06c.36-.47-.16.19-.27.34l-.76,1c-.54.68-1.09,1.35-1.64,2q-3.12,3.74-6.49,7.24t-7.13,6.86q-1.82,1.62-3.68,3.18L543,865.52l-.95.76-.42.32c-.5.4.69-.51-.2.16A137.5,137.5,0,0,1,525,877.52q-4.38,2.41-8.93,4.49c-.7.32-1.39.63-2.09.93l-1.13.49c.57-.25-.52.21-.74.3-1.52.62-3.06,1.22-4.61,1.78A131,131,0,0,1,488.08,891q-2.58.52-5.17.93l-2.34.35-.4,0-.23,0-1.45.18c-3.47.41-7,.67-10.47.8a133.91,133.91,0,0,1-20.9-.84l-1.27-.16c-.44-.06,0,0,.09,0l-.72-.1c-.84-.12-1.68-.24-2.51-.38-1.67-.27-3.33-.57-5-.9q-5-1-9.94-2.4c-3.24-.92-6.46-2-9.63-3.14-1.54-.57-3.08-1.17-4.6-1.8l-.66-.27.09,0-1.13-.49c-.76-.33-1.51-.66-2.25-1a132.25,132.25,0,0,1-17.43-9.66q-4.07-2.69-7.94-5.65c.51.39-.34-.27-.48-.38l-.95-.75-2-1.65c-1.24-1-2.47-2.1-3.67-3.19a132.4,132.4,0,0,1-13.58-14.14c-.52-.62-1-1.25-1.54-1.89l-.75-.95c-.11-.14-.22-.27-.32-.41.24.3.11.14-.05-.07-1-1.34-2-2.69-3-4.07q-2.86-4-5.42-8.32t-4.72-8.59q-1.1-2.19-2.12-4.43c-.34-.75-.68-1.5-1-2.25l-.21-.49c0-.08-.33-.76-.16-.36s-.07-.18-.08-.2l-.34-.82a131.76,131.76,0,0,1-6.13-19.12q-1.18-5-2-10.09c-.12-.78-.24-1.56-.35-2.34,0-.11-.09-.73,0-.08,0-.18-.05-.37-.07-.55-.06-.48-.12-1-.17-1.45-.2-1.7-.36-3.41-.49-5.11a134.68,134.68,0,0,1,0-21c.14-1.77.32-3.53.53-5.29.05-.42.11-.85.16-1.27-.08.62,0-.25.06-.45.13-.9.27-1.8.41-2.69.55-3.38,1.24-6.75,2.05-10.07A134.57,134.57,0,0,1,344.1,715c.07-.16.14-.32.2-.49-.24.59,0,0,0-.07l.42-1c.35-.81.71-1.61,1.08-2.41q1.07-2.31,2.22-4.58,2.22-4.37,4.76-8.56t5.46-8.29c.83-1.17,2.12-2.89,2.72-3.68l.13-.17.43-.54.76-.95c.54-.68,1.1-1.35,1.65-2a134.43,134.43,0,0,1,13.66-14.07c1.21-1.07,2.44-2.13,3.69-3.16q.93-.78,1.89-1.53c.27-.22.54-.44.82-.65.07-.06.64-.5.3-.24l.31-.24q4-3,8.12-5.71a132.26,132.26,0,0,1,17.32-9.5c.75-.34,1.5-.68,2.25-1,.16-.07,1.17-.5.56-.25l1.31-.53c1.53-.62,3.07-1.22,4.62-1.78q4.68-1.7,9.48-3t9.95-2.37c1.66-.32,3.32-.62,5-.88.84-.13,1.68-.26,2.52-.37.45-.06,0,0-.09,0l.72-.09,1.46-.17a134.12,134.12,0,0,1,20.92-.74c3.49.15,7,.44,10.45.86l1.09.14.62.09,2.7.41c1.66.28,3.32.58,5,.92A131.23,131.23,0,0,1,508.15,644c1.55.57,3.08,1.18,4.61,1.81l.2.08.36.16,1,.42c.81.35,1.61.71,2.41,1.08q4.53,2.1,8.9,4.54t8.35,5.08c1.41.92,2.79,1.88,4.16,2.86.62.44,1.23.88,1.83,1.33l1,.73c.18.14,1.1.85.62.47A133.29,133.29,0,0,1,556.1,675.7q3.42,3.59,6.57,7.4c.52.63,1,1.26,1.53,1.9l.64.81c.07.09.44.57.06.07l.42.55q1.47,2,2.87,3.94a131.46,131.46,0,0,1,10.2,17.08c.73,1.47,1.44,2.95,2.11,4.44.34.75.67,1.5,1,2.25.07.18.41,1,.17.4l.54,1.31q1.9,4.68,3.43,9.49a132.45,132.45,0,0,1,4.66,19.73q.19,1.26.36,2.52c-.08-.65.06.45.08.64l.15,1.27c.19,1.64.34,3.28.47,4.93.26,3.4.38,6.8.39,10.21a3.75,3.75,0,0,0,7.5,0,135.56,135.56,0,0,0-25-78.63,139.39,139.39,0,0,0-28.74-29.76A136.14,136.14,0,0,0,358,677.8a138.62,138.62,0,0,0-21.27,35.57A136.35,136.35,0,0,0,406.61,888.7a136.86,136.86,0,0,0,83.82,9.43A136.15,136.15,0,0,0,597.58,785.84a140.69,140.69,0,0,0,1.67-21.2,3.75,3.75,0,1,0-7.5,0Z" transform="translate(-263.56 -296.31)"/><path class="cls-1" d="M870,483.35c-.56-2.25-3.15-2.19-4.94-2.67a12.23,12.23,0,0,1-6.16-4.05,15.78,15.78,0,0,1-3.52-6.22,25.38,25.38,0,0,1-.81-9.09l-4.92-.66c-.6,5.06-1.31,10.6-4.56,14.74s-8.12,4.76-13,5.22a2.5,2.5,0,0,0,0,5c4.84.45,9.56,3.07,11.21,7.83s1.87,9.87,2.39,14.87a4.75,4.75,0,0,0,.51,2.06,2.62,2.62,0,0,0,4.06.52,3.27,3.27,0,0,0,.85-1.92c.08-.45.13-.9.18-1.35,0-.14,0-.28,0-.42s.13-1,.07-.54a28.06,28.06,0,0,1,5.38-13.73,15.28,15.28,0,0,1,7.56-5.07c2.28-.73,5.37-.92,5.69-3.86a2.5,2.5,0,0,0-5,0v.08l.34-1.26a2.19,2.19,0,0,1,.62-.63c.37-.14.43-.16.15-.06s-.41.13-.62.19c-.66.19-1.33.36-2,.56a24.54,24.54,0,0,0-5.08,2.11,21.17,21.17,0,0,0-7.24,7.27,30.83,30.83,0,0,0-4.15,10.35c-.28,1.37-.48,2.75-.65,4.14,0,.23-.26,1.69-.11.89a1.76,1.76,0,0,1-.06.4,1.33,1.33,0,0,1,0,.19q-.37,1.18,1.58-1.49h1.3l1.1.64s.68,1.21.5.75c0,.05,0,.61,0,0,0-.44-.06-.88-.09-1.31-.09-1.46-.2-2.91-.37-4.36a46.75,46.75,0,0,0-2.2-10.67c-2.53-6.85-8.86-10.54-15.92-11.19v5c6.21-.59,12.43-1.65,16.56-6.79s5.19-11.73,5.95-18.17c.33-2.77-4.52-3.45-4.91-.66a33.63,33.63,0,0,0,.51,10.2,18.86,18.86,0,0,0,4,8.54,19.51,19.51,0,0,0,5.57,5.14,16,16,0,0,0,4.29,1.71c.49.12,1,.21,1.48.3.2,0,.45.11.66.13,1,.06-.38,1.38-1.05-1.34C865.93,487.8,870.75,486.48,870,483.35Z" transform="translate(-263.56 -296.31)"/><path class="cls-1" d="M407.68,376.74c-.52-2.7-4.78-2.58-6.79-3.19a17.48,17.48,0,0,1-8.17-5.69l-.56-.67c-.05-.07-.66-.85-.39-.51-.58-.75-1.15-1.53-1.66-2.34a16.81,16.81,0,0,1-2.3-5.3,49.88,49.88,0,0,1-.94-6.2,26.28,26.28,0,0,1-.13-6.45l-4.91-.66c-.84,7.08-1.85,14.8-6.42,20.58a16.67,16.67,0,0,1-7.73,5.52,46,46,0,0,1-10.49,1.87,2.5,2.5,0,0,0,0,5c6.56.58,13.08,4,15.7,10.31a49.74,49.74,0,0,1,2.68,11.3c.49,3.12.66,6.25.89,9.39a7.07,7.07,0,0,0,.59,2.95,2.65,2.65,0,0,0,4.16.6c1.28-1.29,1.14-4,1.33-5.46a39.78,39.78,0,0,1,7.31-18.63,21.17,21.17,0,0,1,10.4-7.23c2.51-.84,7.3-1.1,7.52-4.53a2.5,2.5,0,0,0-5,0,3.11,3.11,0,0,1,.93-1.72c-.05,0-.14.05-.18.09s.18-.08.22-.09l-.37.13-1.7.48a42.39,42.39,0,0,0-5,1.65,25.22,25.22,0,0,0-9.92,7.14,41.65,41.65,0,0,0-8.75,19.6c-.26,1.5-.45,3-.63,4.53l-.09.76c0,.29,0-.27,0-.26s0,.23-.05.34a2.2,2.2,0,0,0-.09.43l0,.13c-.45-.18,1.76-1.62,1-1.25l1.26-.34,1,.57a1.16,1.16,0,0,1,1.1.79s.18.4.06.1c0-.08-.09-.53,0-.08s0-.22,0-.31,0-.47-.05-.71c-.09-1.29-.16-2.58-.27-3.87a96.42,96.42,0,0,0-1.75-11.71,30.71,30.71,0,0,0-3.17-9.23,20.71,20.71,0,0,0-7.41-7.32,27.48,27.48,0,0,0-11.65-3.55v5c4.1-.39,8.31-.78,12.22-2.19a21.47,21.47,0,0,0,9.53-6.66c5.56-6.89,6.88-15.59,7.89-24.12.33-2.78-4.5-3.46-4.91-.67-.66,4.61-.05,9.41.79,14a25.28,25.28,0,0,0,5.43,11.07,24.17,24.17,0,0,0,7.67,6.73,21.64,21.64,0,0,0,5.46,2c.63.14,1.26.24,1.89.36a5.31,5.31,0,0,0,.77.17c.27.08.2.05-.2-.11a2.16,2.16,0,0,1-.87-1.16,2.52,2.52,0,0,0,3.07,1.75A2.56,2.56,0,0,0,407.68,376.74Z" transform="translate(-263.56 -296.31)"/><circle class="cls-1" cx="241.49" cy="578.6" r="38.87"/><path class="cls-1" d="M462.43,874.91a42.61,42.61,0,0,0,85.11,3.14,42.53,42.53,0,0,0-24.64-41.83,43.45,43.45,0,0,0-26.39-3.07C479.5,836.5,465.6,850.88,463,868a46.47,46.47,0,0,0-.57,6.87,3.75,3.75,0,0,0,7.5,0c0-1,0-2,.11-3,0-.46.07-.92.13-1.38,0-.19.12-1,0-.19,0-.28.09-.57.13-.85a38.8,38.8,0,0,1,1.4-5.72c.28-.84.59-1.67.91-2.5.27-.67.07-.16,0,0l.27-.6c.23-.5.47-1,.72-1.49a38.42,38.42,0,0,1,2.87-4.77l.38-.53s.63-.84.3-.41.15-.18.21-.26l.41-.51c.63-.75,1.28-1.48,2-2.18s1.3-1.31,2-1.92c.33-.29.65-.58,1-.86l.5-.41c.06-.05.92-.71.27-.22a39.74,39.74,0,0,1,4.67-3c.81-.45,1.65-.87,2.5-1.26l.6-.27c.53-.24-.52.21,0,0s.92-.37,1.39-.54a38.45,38.45,0,0,1,5.64-1.59c.5-.1,1-.19,1.51-.27l.68-.11c-.16,0-.73.08,0,0,1-.11,2.07-.2,3.11-.24a41.74,41.74,0,0,1,5.91.24c.74.07.17,0,0,0l.67.11c.51.08,1,.17,1.51.27,1,.2,2,.44,3,.71s1.81.55,2.7.88l1.24.48c.12,0,.65.28,0,0l.9.41a39.43,39.43,0,0,1,4.88,2.72c.73.48,1.44,1,2.13,1.51-.59-.45.49.39.65.53q.57.47,1.11,1a39.31,39.31,0,0,1,4,4.1l.41.51c.07.08.49.62.21.26s.32.43.3.41c.13.17.26.35.38.53.57.8,1.1,1.63,1.61,2.47s.87,1.52,1.27,2.3c.2.39.39.79.58,1.19l.27.6c.46,1-.26-.69.14.32a40.92,40.92,0,0,1,1.74,5.4c.23.93.42,1.88.57,2.82,0,.23.07.45.11.68.1.66-.09-.91,0,.19.05.52.11,1,.15,1.55a34.61,34.61,0,0,1-4.94,21.11c-.48.79-1,1.57-1.52,2.33-.25.36-.51.71-.77,1.06.41-.55.07-.1,0,0l-.62.76a38.19,38.19,0,0,1-3.86,4l-1,.86-.63.51c-.08.07-.63.49-.27.22s-.19.13-.27.19l-.53.39c-.44.31-.89.62-1.35.92a40.44,40.44,0,0,1-5,2.77l-.6.27c.13-.07.65-.26,0,0l-1.24.48c-.94.34-1.9.65-2.86.92s-1.74.46-2.62.64c-.5.1-1,.19-1.51.27l-.67.11c-.45.07.54,0-.19,0a42.72,42.72,0,0,1-6.09.23c-1,0-2-.13-2.93-.23-.14,0-.74-.1,0,0l-.68-.1c-.56-.09-1.12-.19-1.67-.3a39.84,39.84,0,0,1-5.48-1.56c-.42-.15-.83-.32-1.24-.48-.68-.26-.16-.07,0,0l-.6-.27c-.9-.41-1.79-.86-2.65-1.34s-1.61-.93-2.39-1.43c-.42-.27-.82-.54-1.22-.83l-.53-.38c-.08-.05-.78-.58-.41-.29s-.18-.15-.26-.22l-.63-.51c-.34-.28-.66-.57-1-.86-.73-.65-1.43-1.33-2.11-2s-1.18-1.27-1.74-1.94c-.28-.33-.56-.67-.82-1,.44.58,0,0-.11-.15l-.48-.66a38.82,38.82,0,0,1-2.95-4.92c-.19-.39-.39-.79-.57-1.19l-.27-.6c-.27-.59.31.82-.08-.17s-.67-1.76-1-2.66a40.17,40.17,0,0,1-1.38-5.73c0-.23-.07-.45-.1-.68.11.72,0,.12,0,0,0-.46-.09-.92-.13-1.37-.08-1-.12-2.09-.12-3.14a3.75,3.75,0,0,0-7.5,0Z" transform="translate(-263.56 -296.31)"/><circle class="cls-1" cx="166.25" cy="17.81" r="14.11"/><path class="cls-1" d="M412,314.13A18.15,18.15,0,0,0,423.86,331a17.88,17.88,0,0,0,19.56-5.28,17.85,17.85,0,0,0-17.33-29c-8.22,1.6-14,9.24-14.14,17.47a3.78,3.78,0,0,0,3.75,3.75,3.83,3.83,0,0,0,3.75-3.75c0-.35,0-.7,0-1,0-.13.19-1.21,0-.36a16.12,16.12,0,0,1,.47-1.94,9.33,9.33,0,0,1,.34-.93c-.32.78.12-.2.17-.3a19,19,0,0,1,1-1.67c.56-.85-.49.49.21-.26.22-.24.42-.49.65-.72l.7-.67c.08-.07.92-.72.25-.23a13.83,13.83,0,0,1,1.36-.89c.28-.16.57-.3.86-.46s.39-.18,0,0l.62-.23a18.31,18.31,0,0,1,1.93-.52c.7-.16.17-.05,0,0,.34-.05.69-.07,1-.09a17.88,17.88,0,0,1,2.07.05c1.07.08-.68-.2.35.06.43.11.86.19,1.29.32l.79.26c.18.06.83.37.17,0a17.68,17.68,0,0,1,1.71.94c.28.17.55.36.81.55-.67-.49.16.16.24.23.49.44.92.91,1.36,1.39.69.75-.35-.59.21.26.17.28.36.54.53.82s.33.56.48.85c.05.1.48,1.08.16.3a13,13,0,0,1,.57,1.73c.07.27.12.54.19.81.07.44.08.44,0,0,0,.22.05.45.07.68a14.3,14.3,0,0,1,0,2.07c0,.13-.2,1.21,0,.36-.06.27-.11.55-.17.82a17.64,17.64,0,0,1-.53,1.75c-.33,1,.36-.6-.14.31-.21.38-.39.77-.62,1.14s-.36.55-.53.82c-.56.86.48-.49-.21.26-.37.4-.72.8-1.12,1.17l-.73.64c.64-.53-.19.12-.28.18a15.59,15.59,0,0,1-2,1.12c.62-.3.13-.05,0,0-.31.1-.62.22-.94.31s-.64.18-1,.25c-.1,0-1.2.21-.33.1a13,13,0,0,1-2.07.09c-.34,0-.68,0-1-.06-.81-.06.51.16-.34-.06s-1.5-.38-2.24-.63c-1-.34.6.35-.31-.14-.38-.21-.77-.4-1.15-.63l-.54-.35c-.18-.12-.36-.24-.53-.37.33.26.33.25,0,0-.56-.52-1.09-1-1.6-1.6-.7-.75.35.6-.21-.26-.24-.37-.48-.72-.7-1.1-.11-.19-.21-.38-.31-.57s-.2-.39-.29-.59c.16.4.16.39,0,0-.25-.74-.44-1.48-.63-2.24-.27-1,0,.72-.06-.35,0-.46-.07-.91-.07-1.37a3.75,3.75,0,0,0-7.5,0Z" transform="translate(-263.56 -296.31)"/></g><g id="Слой_5" data-name="Слой 5"><path class="cls-2" d="M722,692.28c1.59-.69,5.51,1.08,13.36,4.62,3.22,1.45,5.87,2.78,7.79,3.79a87,87,0,0,1,14.46-45.78,15.34,15.34,0,0,0,2.63-6.3c1-6.26-2.61-11.55-3.74-13.36-3.17-5.08-4.12-14.15-6-32.3-.92-8.77-.55-19.62,9-53.47,4.36-15.48,10.64-35.74,19.52-59.27a98.05,98.05,0,0,0-9.35-5.13c-2.65-1.27-5.19-2.35-7.59-3.26a25.11,25.11,0,0,1,10.11-12.4,16.88,16.88,0,0,1,1,9.55c-2.81-.78-.63-6.18,1.93-4.79,1.5,3-4.26,5.28-6,2.48s.52-6.71,3.62-7.91c2.58,3.26.77,8.91-3.22,10.07-3.45-1.68-1.7-7.95,2.13-8.22s6.72,4.39,5.52,8c-1.33,4-7,5.9-10.2,3.17s-1.66-9.11,2.5-9.7,7.2,5.87,3.87,8.43-8.77-2.91-6-6,8.7,2.7,5.44,5.35A28,28,0,0,0,782.58,467c5.06-14.56-5.58-28.81-8.78-33.09-1.57-2.11-7.11-9.19-24.62-18.8C720.26,399.2,707,399.91,694.35,388.7c-3.93-3.47-7.16-7.72-11.26-11a44.54,44.54,0,0,0-13.63-7c-27.05-9.12-59.06-1.15-78.68,19.57-5.8,6.14-10,12.67-16.75,12.47-7.25-.23-13-8.12-16.82-15.1C573.3,398.27,577.07,400.88,577,401s-15-13.28-35.91-15.54A67.82,67.82,0,0,0,520,386.71a81.4,81.4,0,0,0-23.52,9.23c-3.46,2-16.31,9.66-28.83,25.81-12.64,16.31-17.54,31.7-21.9,45.83-1.72,5.6-9,30-9.47,63.43-.21,14.32-.39,41.15,9.79,71.85,5,15,10.56,28.87,10.56,28.87C467.73,659.37,473.82,667,470,675.38c-4.48,9.77-16.15,7-21.91,19.26-4.76,10.16-.73,20.46-.34,21.42,4.06,9.93,13,14,18.13,16.34a42.86,42.86,0,0,0,24.79,3.2c10.17-1.78,16.81-6.91,23.69-12.34,6.27-5,8.7-8.28,17.6-18.44,14.61-16.66,21.91-25,26.05-27.33,4.95-2.8,16.68-3.84,39.94-5.83,26.28-2.24,29.83-1.81,33.28.9,9.13,7.17,2.11,18.08,10.18,33.15,10.1,18.87,34.12,26.13,50.7,26.09,8,0,18.63,0,24.28-7.08C724.93,714.05,716,694.91,722,692.28Z" transform="translate(-263.56 -296.31)"/><path class="cls-2" d="M722.69,694.69c.34-.13.28-.13,0-.05a1.62,1.62,0,0,1,.58,0c-.58-.09.25.07.29.08.28.07.57.14.85.23a39.85,39.85,0,0,1,4.58,1.79c4.38,1.9,8.73,3.89,13,6.1a2.53,2.53,0,0,0,3.76-2.16,85.28,85.28,0,0,1,5.25-27.13,82.79,82.79,0,0,1,5.57-12c1.94-3.45,4.63-6.65,5.77-10.49a18.35,18.35,0,0,0-1.1-12.52c-.94-2.17-2.36-4-3.36-6.18-2-4.23-2.63-10.32-3.24-15.28-1.18-9.62-2.48-19.09-1.32-28.76,1.64-13.76,5.65-27.54,9.47-40.9q8.21-28.65,18.75-56.55a2.53,2.53,0,0,0-1.15-2.82,104.13,104.13,0,0,0-17.53-8.64l1.74,3.07a22.8,22.8,0,0,1,9-10.9l-3.67-1.5a15.23,15.23,0,0,1,1,8.22l3.08-1.74c.65.23.51,1.15.58.17,0,.32.19-.51.22-.36.12-.13.14-.15.07-.05a.83.83,0,0,1-.87,0l-1.15-1.49c.15.36.33.13-.21.39-.22.1-1,.34-1.23.18-.67-.45-.2-1.75.06-2.26a5,5,0,0,1,2.63-2.25l-3.42-.9c1.5,2.06.9,5.52-1.73,6.4l1.93.25c-1.89-1.05.76-5.49,3.22-2.44s-.95,7.55-4.62,6.15c-2.64-1-1.72-6.65,1.09-5.72,2.33.78,2.24,5.57-.37,3.49-.44-.36-1.11-1.1-1-1.71.08-.44.34-.31.43-.3a2.37,2.37,0,0,1,1.45,1.09c.4.61.41.54.07.86-2.06,1.87.75,5.67,3,3.92a31.51,31.51,0,0,0,9.59-11.24,28.5,28.5,0,0,0,2.18-17.48c-1.42-8-5.76-15.41-10.76-21.75-4.21-5.35-9.94-9.52-15.59-13.2a189.77,189.77,0,0,0-32.89-16.65c-7.36-2.95-15.07-5.27-22.1-9a43.56,43.56,0,0,1-8.66-6c-4.8-4.31-8.66-9.49-14.13-13.05-9.65-6.28-22-8.87-33.37-9.19a80.37,80.37,0,0,0-32.57,5.95A77,77,0,0,0,588.57,389c-2.14,2.3-4.14,4.75-6.37,7-1.73,1.74-3.67,3.45-6.11,4.07-5.07,1.28-9.51-3.11-12.32-6.75a53.39,53.39,0,0,1-4.4-6.9L556,389.8c5.21,3.45,10.43,6.89,15.62,10.38,1,.71,2.1,1.42,3.14,2.15.24.17.48.36.74.52s-.47-.45-.28-.21c.54.67-.53-4.48-.65-1.68l1.84-2.41,1.88.23-.08,0s-.12-.13-.17-.13.48.37,0,0c-.71-.55-1.42-1.1-2.14-1.63q-2.94-2.18-6.08-4.06a73.42,73.42,0,0,0-20.35-8.53c-13.38-3.26-27.65-1.77-40.49,3A94.07,94.07,0,0,0,475,409.52c-13.26,13.32-22.44,29.51-28.48,47.22a248.6,248.6,0,0,0-12.88,79.58,223.83,223.83,0,0,0,4.38,46.48c3.5,16.82,9.54,33.07,15.89,49,2.73,6.87,5.68,13.64,8.65,20.4,2.06,4.68,4.36,9.43,5.56,14.43.82,3.41.61,6.28-1.3,9.22-3.16,4.86-9.89,6.06-14.33,9.41-12.16,9.18-11.8,28.51-2.34,39.47,4,4.63,9.43,7.65,15,10.08A43.95,43.95,0,0,0,510,729.7a90.1,90.1,0,0,0,14.47-12.54c10.13-11.15,19.4-23.2,30.2-33.72.68-.67,1.38-1.32,2.09-1.94a12.79,12.79,0,0,1,1.65-1.31,14,14,0,0,1,1.5-.88c.56-.28-.12,0,.61-.26.46-.17.93-.33,1.4-.47,4.87-1.49,10.08-2,15.12-2.51,9-1,18-1.7,27-2.41a175.59,175.59,0,0,1,18.76-.92c.86,0,1.7.08,2.55.16s-.24-.07.48.06c.33.06.66.11,1,.19a13,13,0,0,1,1.5.46c-.78-.28.49.28.77.46s.36.24.54.36.4.31,0,0c-.58-.44.59.51.56.48a10.25,10.25,0,0,1,2.64,3.55c1.2,2.75,1.27,5.9,1.48,8.84.58,8.29,2.31,16.12,7,23.11a48.94,48.94,0,0,0,16.07,14.69c12.11,7,26.09,9.62,40,9.11,7.25-.27,15.45-1.53,20.46-7.35,4.73-5.49,5.28-12.88,4.93-19.82-.15-2.88-.48-5.77-.48-8.66a11.25,11.25,0,0,1,.3-3c.21-.74.17-.68.74-.95,2.9-1.39.37-5.71-2.52-4.32-4.77,2.29-3.52,9.65-3.23,13.83.42,6.2,1.09,13.59-2.86,18.88-4.35,5.83-12.65,6.34-19.3,6.45a73.32,73.32,0,0,1-19.08-2c-13.63-3.39-27-11.07-33.39-24.1a35.81,35.81,0,0,1-3.3-11.8c-.36-3.33-.43-6.69-.92-10-.72-4.85-3.19-9.51-7.61-11.94a17.85,17.85,0,0,0-8.09-1.72,164,164,0,0,0-18.4.86c-9,.7-17.91,1.45-26.84,2.38a105.57,105.57,0,0,0-16.22,2.49,20.53,20.53,0,0,0-8.7,4.81,147.4,147.4,0,0,0-11.24,11.8c-6,6.68-11.83,13.44-17.71,20.19a91.59,91.59,0,0,1-12.61,12.22c-6.58,5.17-13.56,9.51-22,10.8A40.42,40.42,0,0,1,468,730.64c-.42-.17-1.62-.72-2.39-1.08-1.27-.59-2.53-1.22-3.75-1.9a29.86,29.86,0,0,1-7.82-6.09,24.11,24.11,0,0,1-5.8-16.59,21.49,21.49,0,0,1,3.85-12.34,19.91,19.91,0,0,1,7.2-5.69c5.47-2.83,10.79-5.22,13.25-11.31,3.34-8.28-2-17.68-5.26-25.1-5.55-12.67-10.8-25.41-15.45-38.44a235.29,235.29,0,0,1-8.56-28.7,197.29,197.29,0,0,1-3.87-26.17c-2.26-28-.19-56.89,7.26-84,3.52-12.8,7.81-25.59,14.39-37.16,8.05-14.16,19.42-26.92,33.14-35.81a78.26,78.26,0,0,1,31.88-12.07c15.54-2.09,30.66,2.12,43.66,10.64,1.59,1,3.13,2.14,4.64,3.29l.24.18a10.46,10.46,0,0,0,.84.65,2.91,2.91,0,0,0,2.22.45,2.52,2.52,0,0,0,1.83-2.41c.09-2.08-3.24-3.61-4.66-4.58-5.43-3.67-10.91-7.28-16.39-10.89-2.17-1.44-4.57,1.33-3.42,3.42,4.68,8.46,13.43,20.16,24.57,15.14,5.11-2.3,8.58-7.31,12.27-11.3a69.14,69.14,0,0,1,12.41-10.62c17.86-11.91,40.93-15.91,61.63-9.92,5.94,1.72,11.89,4.17,16.6,8.27,4.2,3.68,7.62,8.16,12,11.63,5.8,4.58,12.5,7.42,19.35,10a281.22,281.22,0,0,1,27.6,11.71c9.26,4.7,18.7,9.9,26.28,17.09.91.85,1.78,1.74,2.6,2.67.28.31.55.63.81.95l.33.41c.35.44-.35-.46,0,0a67.62,67.62,0,0,1,5.5,8.42c5.16,9.57,6.53,21.22-1,30a29.47,29.47,0,0,1-4.46,4.26l3,3.92c3.68-3.36.66-8.9-3.41-10.2-5.09-1.64-8.62,4-6.18,8.3,2.28,4,8.46,5.73,11.28,1.27,2.47-3.92,0-9.68-4.29-11.09-4.94-1.63-9,3-9.21,7.6-.2,5.34,4.55,8.82,9.62,7.9s8.7-5.94,7.19-11c-1.45-4.86-7.45-8.48-11.8-4.65a7.92,7.92,0,0,0-2.58,6.42c.19,2.45,2.3,5.88,5.19,5,5.49-1.58,7.79-9.16,4.5-13.67a2.6,2.6,0,0,0-3.42-.9c-4.1,1.79-7.08,7.16-4.51,11.33,2.14,3.48,7.49,3.1,9.88.12,1.2-1.49,1.6-4.14.09-5.63s-4-1.11-5.43.13c-2.94,2.5-2.81,7.44,1.07,8.84a2.51,2.51,0,0,0,3.07-1.75,20.19,20.19,0,0,0-1-10.88,2.53,2.53,0,0,0-3.67-1.49,28.45,28.45,0,0,0-11.26,13.9c-.52,1.34.59,2.63,1.75,3.07a98,98,0,0,1,16.34,8.14l-1.15-2.83q-9.58,25.45-17.3,51.56c-4.19,14.22-8.37,28.66-10.58,43.35a85.57,85.57,0,0,0-1.08,12.16,131.31,131.31,0,0,0,1.17,14.28c.7,6.49,1.25,13.17,3,19.49a24,24,0,0,0,2.4,5.93c1.54,2.62,3.09,5.13,3.56,8.21.72,4.74-1.7,8-4,11.78a90.89,90.89,0,0,0-7,14.16,89.68,89.68,0,0,0-6.1,30.23l3.77-2.16c-4.7-2.44-9.52-4.65-14.4-6.71-2.4-1-6-3-8.69-2C718.38,691,719.67,695.83,722.69,694.69Z" transform="translate(-263.56 -296.31)"/><path class="cls-3" d="M582.89,392.64c.92-16.6,48.15-25.24,67.52-27,6.84-.63,14.26-.88,22.61,2.08,10.77,3.81,18.94,12.54,26.67,21a135.31,135.31,0,0,0-44.22,13.75c-15.44,8-20,14.24-31.31,15.25C604.9,419.4,582.24,404.41,582.89,392.64Z" transform="translate(-263.56 -296.31)"/><path class="cls-3" d="M585.39,392.64c0-.16,0-.33,0-.49,0,.65-.06.32,0,.17s.1-.54.17-.8.19-.58.28-.87.22-.54,0,.05c.07-.16.14-.31.22-.46a10.82,10.82,0,0,1,.88-1.51c.1-.15.21-.3.32-.44-.33.44-.13.16,0,.06.23-.29.48-.58.74-.86a18.63,18.63,0,0,1,1.42-1.39c.26-.23.52-.46.79-.68l.5-.4c-.43.33.15-.11.19-.13a41.59,41.59,0,0,1,4.15-2.64c6.79-3.77,14.29-6.12,22-8.14A221.67,221.67,0,0,1,641,369.26l1.27-.18.83-.11,2.62-.34q2.22-.27,4.47-.48a56.32,56.32,0,0,1,16.7.45c13.12,2.76,22.29,12.36,31,21.86l1.1-4.18a139.76,139.76,0,0,0-55.94,20.43,108.85,108.85,0,0,1-9.84,5.89,27,27,0,0,1-9.43,2.62c-8.69.68-17.52-1.94-25-6.26a37.08,37.08,0,0,1-10-8.08,18.13,18.13,0,0,1-2.76-4.42,7.59,7.59,0,0,0-.26-.74,10.88,10.88,0,0,1-.3-1.12c0-.18-.07-.37-.1-.55s0,.38,0-.11,0-.86,0-1.3c.14-3.22-4.86-3.21-5,0-.33,7.62,6.2,13.94,11.87,18a51.75,51.75,0,0,0,25.83,9.54A34.31,34.31,0,0,0,630.68,419,44.55,44.55,0,0,0,640.83,414c4-2.5,8-5.11,12.16-7.43a124.72,124.72,0,0,1,16.17-7.6,138.09,138.09,0,0,1,31.19-7.91c2-.26,2.23-3,1.11-4.18-8.18-8.91-16.9-18.06-28.7-21.93-9.73-3.19-19.91-2.32-29.87-1a228.88,228.88,0,0,0-24.9,4.68c-8.28,2.06-16.61,4.6-24.21,8.55-6,3.13-12.91,8-13.39,15.41a2.52,2.52,0,0,0,2.5,2.5A2.55,2.55,0,0,0,585.39,392.64Z" transform="translate(-263.56 -296.31)"/><ellipse class="cls-4" cx="586.3" cy="410.3" rx="97.29" ry="99"/><path class="cls-1" d="M835.73,611.66c-12.34,7.73-21.94,19.15-30.12,31.19a132.9,132.9,0,0,0-14.75,27.27,95.36,95.36,0,0,0-4.92,49.11c1,5.95,2.52,11.79,4.06,17.62a90,90,0,0,0,5.14,15.5c2.81,6,6.9,11.23,11,16.43L831.25,801l-22.83-7.62c-4.45-1.48-8.94-3-12.95-5.41-4.16-2.52-7.67-5.94-11.14-9.34l-10.46-10.23c-4.91-4.8-9.87-9.67-13.41-15.55-5-8.33-6.84-18.13-8.59-27.7-2.3-12.63-4.59-25.71-1.5-38.17,2.12-8.58,6.68-16.32,11.18-23.92s9.08-15.32,14.86-22.05a77.23,77.23,0,0,1,56.53-26.56" transform="translate(-263.56 -296.31)"/><path class="cls-1" d="M834.47,609.51c-11.45,7.21-20.55,17.36-28.37,28.28-8.37,11.69-15.73,24.33-19.85,38.17a98.38,98.38,0,0,0-2.8,43.48,202.81,202.81,0,0,0,5.24,22.14,66.12,66.12,0,0,0,8.8,19.79c4.74,7,10.24,13.53,15.43,20.19l16.56,21.24,2.44-4.18c-9-3-18.17-5.86-27.14-9.09a40.34,40.34,0,0,1-11.51-6.08,127.63,127.63,0,0,1-9.79-9.11c-3.35-3.28-6.71-6.54-10-9.83a82.72,82.72,0,0,1-8.51-9.44c-5.12-7-7.57-15.11-9.3-23.47-1.83-8.88-3.6-17.93-4.13-27a59.71,59.71,0,0,1,.59-13.69,52.08,52.08,0,0,1,4.07-12.75c1.85-4,4.05-7.87,6.29-11.69s4.57-7.76,7-11.56a88.29,88.29,0,0,1,16-19.45,74.83,74.83,0,0,1,41.76-18.17c1.92-.18,3.83-.28,5.75-.32,3.21-.07,3.22-5.07,0-5a79.79,79.79,0,0,0-45.76,15.69,82.79,82.79,0,0,0-18,18.62A231,231,0,0,0,754.68,670,77.91,77.91,0,0,0,749,682.9,53.58,53.58,0,0,0,746.44,697c-.47,9.83,1.34,19.61,3.1,29.23,1.6,8.76,3.34,17.63,7.49,25.6s11.06,14.4,17.51,20.72c3.52,3.43,7,6.91,10.56,10.3A50.28,50.28,0,0,0,796,791.16a87.39,87.39,0,0,0,13.17,5.13l14.45,4.82,7,2.33a2.52,2.52,0,0,0,2.82-1.15,2.62,2.62,0,0,0-.39-3c-9.27-11.88-18.69-23.65-27.79-35.67-4.21-5.55-7.86-11.33-10.09-18a200.68,200.68,0,0,1-5.68-21.3,94.3,94.3,0,0,1,.19-41.72c3.23-13.7,9.78-26.12,17.6-37.73,8-11.92,17.46-23.31,29.74-31,2.71-1.71.21-6-2.52-4.31Z" transform="translate(-263.56 -296.31)"/><path class="cls-1" d="M849.89,614c1.36,10.68,2.71,21.42,2.15,32.17-.24,4.42-.8,8.8-1.19,13.2-.84,9.26-1,18.56-.93,27.85.14,39.48,3.18,79.12-1.34,118.34,8.06-11.36,20.08-19.2,29.55-29.41a26.67,26.67,0,0,0,4.66-6.38c2-4.1,2.07-8.82,3.09-13.25,1.7-7.43,5.94-14,8.77-21.08A86.76,86.76,0,0,0,899.27,718c2.83-16.36,3.25-33.3-.48-49.48s-11.76-31.6-24.08-42.73a69.66,69.66,0,0,0-25.06-14.53" transform="translate(-263.56 -296.31)"/><path class="cls-1" d="M847.39,614c1.57,12.34,2.93,24.63,1.78,37.07-.57,6.18-1.23,12.34-1.48,18.55s-.3,12.39-.27,18.59c.12,25,1.37,50,1.09,75.05a415.19,415.19,0,0,1-2.43,42.3,2.5,2.5,0,0,0,1.83,2.41,2.62,2.62,0,0,0,2.83-1.15c4.24-5.94,9.67-10.92,15.1-15.75s11.42-9.7,16.09-15.48a24,24,0,0,0,5-10.79c.75-3.84,1.16-7.68,2.44-11.41,2.55-7.44,6.85-14.13,9.24-21.65a122.85,122.85,0,0,0,4.64-24.58,127.69,127.69,0,0,0,.21-25.11c-1.44-15.09-5.89-30-14.14-42.76a74.21,74.21,0,0,0-33.79-28.52c-1.71-.72-3.46-1.36-5.22-2-3.07-1-4.38,3.82-1.33,4.83a68,68,0,0,1,33.75,24.82A88.07,88.07,0,0,1,898,678.12a120.08,120.08,0,0,1,.64,24.27A133.19,133.19,0,0,1,895,726.14a66.67,66.67,0,0,1-3.81,11c-1.58,3.48-3.36,6.87-4.87,10.38A48.12,48.12,0,0,0,883,758.42c-.62,3.64-.93,7.55-2.73,10.84s-4.4,5.74-6.93,8.23-5.29,5-8,7.38c-5.36,4.74-10.8,9.45-15.42,14.94-1.21,1.44-2.36,2.93-3.45,4.45l4.66,1.27c2.84-24.86,2.69-49.91,2.15-74.88-.28-12.51-.64-25-.77-37.54a332.08,332.08,0,0,1,1.22-37.19,139.13,139.13,0,0,0,.83-21c-.35-7-1.24-14-2.12-20.94a2.58,2.58,0,0,0-2.5-2.5,2.51,2.51,0,0,0-2.5,2.5Z" transform="translate(-263.56 -296.31)"/><path class="cls-1" d="M589.39,546.85c14.37.58,16.43-10.63,41.92-13.84,11.46-1.44,16.49.36,20.44,2.86,6.42,4.06,9.67,12.3,8.42,19.8s-6.64,14-13.49,17.31c-3.86,1.85-8.73,3.39-9.84,7.52-.83,3.1.95,6.22,2.29,9.14a36.53,36.53,0,0,1,2.22,24,15.66,15.66,0,0,1-2.91,6.36,16,16,0,0,1-7,4.36c-15.11,5.46-33.43.31-43.49-12.22-6.24,12.91-18.55,20.68-30.44,19.55-10.13-1-17-8.1-17.76-8.89-2-2.13-7-7.23-7.25-14.4-.2-5.61,1.27-11.13,2.11-16.67a14,14,0,0,0-.23-6.85c-.94-2.55-3.14-4.39-5-6.34a34.64,34.64,0,0,1-9.4-27.42c.85-7.88,6.13-13,8-14.8,7.34-7,16.46-7.72,19.2-7.9C567.19,527.21,570.88,546.11,589.39,546.85Z" transform="translate(-263.56 -296.31)"/><path class="cls-1" d="M589.39,549.35A26.59,26.59,0,0,0,603,546c4.33-2.27,8.68-5,13-6.73A63,63,0,0,1,639.05,535a22.44,22.44,0,0,1,8.21,1.35l.42.16c.37.15-.34-.15,0,0l.68.31q.74.36,1.44.78a16,16,0,0,1,3.73,3,18,18,0,0,1,2.52,19.76,22.34,22.34,0,0,1-7.09,8.34c-3,2.11-6.56,3.13-9.64,5.07-3.67,2.31-5.79,5.9-5,10.31a27.87,27.87,0,0,0,2.55,6.58A34.28,34.28,0,0,1,639.57,610c-.65,4-1.73,8.16-5.41,10.4a27.82,27.82,0,0,1-10.71,3.38,36.56,36.56,0,0,1-10.6-.19,37.89,37.89,0,0,1-19.32-9.14,36.45,36.45,0,0,1-3.81-4.05,2.52,2.52,0,0,0-3.93.51,33.85,33.85,0,0,1-16,16.23,23.51,23.51,0,0,1-20.54-.44,29.78,29.78,0,0,1-10.3-8.57,17.6,17.6,0,0,1-3.93-9.5c-.25-5.16,1-10.21,1.87-15.26a23.38,23.38,0,0,0,.34-7.46,12.42,12.42,0,0,0-3.09-6c-1.38-1.59-3-3-4.35-4.57a30.7,30.7,0,0,1-3.46-5.05c-3.82-6.88-5.69-16.28-2.62-23.79a25.74,25.74,0,0,1,13.45-13.22,28,28,0,0,1,4.88-1.56c.7-.17,1.4-.31,2.11-.42l.6-.1.72-.08a26.68,26.68,0,0,1,8.24.24c5.69,1.2,10.15,4.69,14.53,8.26,4.77,3.88,9.72,7.63,15.83,9a30,30,0,0,0,5.34.7c3.22.15,3.21-4.85,0-5-6.31-.29-11.59-3.41-16.28-7.18-4.92-3.95-9.7-8.11-15.83-10a32.19,32.19,0,0,0-18.94.41,31.85,31.85,0,0,0-17.19,13.1c-4.94,7.7-4.79,17.69-1.85,26.12a38,38,0,0,0,6.81,12c1.44,1.7,3.17,3.15,4.6,4.87a7.54,7.54,0,0,1,1.68,5.58c-.29,5.35-2,10.55-2.33,15.91a22.27,22.27,0,0,0,3,13.29,34.82,34.82,0,0,0,10.68,10.93,29,29,0,0,0,23.34,4.08c8-2.12,14.89-7.53,19.67-14.24a40.27,40.27,0,0,0,3.37-5.7l-3.92.51c10.07,12.42,27.78,17.91,43.17,13.73,4.31-1.17,8.75-3,11.5-6.7s3.67-9,4-13.58a38.63,38.63,0,0,0-1.72-14.33,58.58,58.58,0,0,0-2.79-6.71c-.79-1.74-1.73-3.94-.89-5.8,1.28-2.83,5.55-4,8.2-5.28a27.31,27.31,0,0,0,9.64-7.61c5.27-6.62,7.27-15.49,4.09-23.52A21.79,21.79,0,0,0,646.79,531a34.36,34.36,0,0,0-10.6-.89,77.05,77.05,0,0,0-14.08,2.08,66.88,66.88,0,0,0-17.39,7.16c-2,1.13-3.94,2.3-6,3.26l-.64.28c-.43.19,0,0,0,0l-.37.14c-.53.21-1.07.4-1.61.57s-1.06.3-1.6.42l-.83.17c-.18,0-1.05.15-.52.09a25.37,25.37,0,0,1-3.8.13C586.17,544.24,586.18,549.24,589.39,549.35Z" transform="translate(-263.56 -296.31)"/><path class="cls-3" d="M333.12,548.09c-6.44,2.06-16.32-2.67-18.65,3.69-1.48,4,2.9,7.91,7.07,9s8.88.93,12.26,3.59l-23.7,8.8c-4.22,1.56-9.14,4-9.42,8.52-.34,5.35,6,8.25,11.23,9.61l34.24,9a137.42,137.42,0,0,0-45.63,13c-3.32,1.61-6.9,3.75-7.76,7.34-1.54,6.38,6.19,10.72,12.45,12.69l45.44,14.26a129.29,129.29,0,0,0-74.06,15c-4.42,2.4-9.35,7.1-7.06,11.57a10,10,0,0,0,4,3.58c44.09,26.76,102.31,28.47,147.89,4.32,3.4-1.8,7-4.08,8.1-7.78,2.14-7.29-6.52-12.78-13.64-15.44l-50.59-19a111.68,111.68,0,0,0,36.89-9.92,10,10,0,0,0,4.19-3c1.94-2.78.72-6.69-1.22-9.46-10.11-14.37-32.56-11.34-47.41-20.73,6.35-2.34,13.51-1.22,20-3.14s12.33-9.7,8.33-15.17c-1.56-2.14-4.16-3.2-6.65-4.12a214,214,0,0,0-27.15-8c4.66.06,9.55.06,13.67-2.12s7.07-7.35,5.18-11.61c-2.09-4.7-8.23-5.62-13.36-5.88l-30.2-1.53" transform="translate(-263.56 -296.31)"/><path class="cls-3" d="M332.46,545.68c-5.26,1.59-11.88-1.59-17.07,1.33a7.46,7.46,0,0,0-3.34,8.7c1.23,3.7,4.86,6.3,8.47,7.37,4,1.18,8.55.81,12,3.43l.6-4.57-20.22,7.5c-4.89,1.82-11.43,3.63-13.85,8.79s.67,10.18,5.29,12.78a30.22,30.22,0,0,0,7.13,2.74l10.37,2.72,23.63,6.19.66-4.91a141.91,141.91,0,0,0-26.68,5.36c-4.31,1.32-8.56,2.84-12.72,4.58-3.8,1.59-7.9,3.13-11.29,5.51-3.1,2.18-5.67,5.45-5.38,9.45a11.63,11.63,0,0,0,4.85,8.17,30.62,30.62,0,0,0,9.62,4.82c4.64,1.48,9.3,2.92,14,4.38L350,649.9l.66-4.91a132,132,0,0,0-71,13.11c-5,2.46-10.86,5.43-12.76,11.06a7.94,7.94,0,0,0,1.52,7.64c1.79,2.14,4.57,3.48,6.95,4.84a148.6,148.6,0,0,0,30.57,13.13,157.13,157.13,0,0,0,65.8,5.37,152.67,152.67,0,0,0,32.37-7.8,149.19,149.19,0,0,0,15.34-6.56c4.73-2.35,10.25-5,12.24-10.25,1.79-4.75-.44-9.56-4-12.79-4-3.63-8.94-5.58-13.93-7.45L375.2,640.87l-9.29-3.48-.66,4.91A113.68,113.68,0,0,0,403.4,632c3.75-1.75,6.76-4.66,6.38-9.12-.59-6.86-6.69-12.31-12.43-15.32s-12.06-4.48-18.29-6c-6.92-1.64-14-3.27-20.1-7.08l-.6,4.57c5.39-1.92,11.21-1.49,16.79-2.41a18.31,18.31,0,0,0,12.35-7.44c2.6-3.68,3.3-8.68.46-12.43a14.72,14.72,0,0,0-6.67-4.49c-2.71-1.09-5.49-2-8.27-2.93q-9.91-3.28-20.13-5.57l-.66,4.91c5.3.06,11.25.05,15.84-3,4-2.65,6.8-7.4,5.91-12.26s-5.18-7.46-9.54-8.49c-5.14-1.22-10.64-1.06-15.88-1.32l-21-1.07c-3.21-.17-3.21,4.83,0,5l16.34.83c5.16.26,10.36.39,15.52.81,2.94.24,6.83.81,8.74,3.16,2.27,2.78.45,6.52-1.95,8.55-3.7,3.13-9.41,2.84-13.94,2.79-2.77,0-3.46,4.28-.67,4.91q8.08,1.83,16,4.25c2.68.83,5.34,1.7,8,2.63a37.4,37.4,0,0,1,6.4,2.58c3.28,1.92,3.53,4.92,1.68,7.92-2.14,3.48-5.71,5.13-9.61,5.8-5.66,1-11.5.49-17,2.45a2.54,2.54,0,0,0-.59,4.57c10.41,6.51,23,7,34.32,11.23,4.94,1.84,9.9,4.76,12.71,9.4a8.1,8.1,0,0,1,1.34,4.14,3.61,3.61,0,0,1-2.13,3.16A63.66,63.66,0,0,1,392,631.36a109.27,109.27,0,0,1-26.71,5.94,2.52,2.52,0,0,0-.67,4.92l36.21,13.55,9.28,3.47c2.47.93,5,1.76,7.39,2.87,3.47,1.61,7.85,4.06,9.38,7.63,1.76,4.08-1.81,7.28-5.29,9.28a114,114,0,0,1-13.75,6.56,147.7,147.7,0,0,1-30,8.61,152.42,152.42,0,0,1-61.64-1.84A145.06,145.06,0,0,1,286.75,682q-3.44-1.65-6.78-3.49a51.28,51.28,0,0,1-6.85-4.07c-4.1-3.18.75-7.37,3.76-9.21A93.73,93.73,0,0,1,292,658.06a128.64,128.64,0,0,1,16.39-5.14,127,127,0,0,1,33.87-3.48c2.79.09,5.57.28,8.35.55s3.25-4.1.66-4.91l-26-8.17-12.78-4c-3.54-1.11-7.25-2-10.6-3.63-2.43-1.18-5.07-2.77-6.34-5.14a4.25,4.25,0,0,1-.42-2.77,6.08,6.08,0,0,1,2.35-3.46c2.77-2.26,6.46-3.62,9.71-5,3.73-1.61,7.55-3,11.41-4.27a135.13,135.13,0,0,1,27.54-5.87,2.5,2.5,0,0,0,.67-4.91l-19.05-5-9.41-2.47c-2.78-.72-5.62-1.34-8.33-2.29-3.1-1.08-7.47-3.27-6.8-6.73.35-1.84,2.1-3.12,3.67-4a45.1,45.1,0,0,1,6.88-2.89l20.69-7.68a2.54,2.54,0,0,0,.59-4.57c-2.77-2.09-6.22-2.63-9.56-3.18-2.94-.49-6.18-1.11-8.08-3.67a2.88,2.88,0,0,1-.59-2.73,3.62,3.62,0,0,1,.47-.82,2.09,2.09,0,0,1,.74-.54c-.15.07.38-.13.5-.16s.49-.12.74-.17a1.5,1.5,0,0,1,.39-.06l1-.05c1.31,0,2.62.06,3.93.15,3.07.21,6.23.44,9.22-.46s1.76-5.76-1.33-4.82Z" transform="translate(-263.56 -296.31)"/><path class="cls-3" d="M592.12,558.87c-7.76-.92-17-1.26-21.78,4.93-2.76,3.58-3.13,8.39-3.4,12.91-.31,5.25-.54,10.87,2.13,15.41,2.56,4.34,7.27,6.86,11.75,9.16a26.44,26.44,0,0,0,7.93,3.05c7.28,1.11,14.34-4.25,17.49-10.91s3.22-14.32,2.93-21.69c-.09-2.28-.3-4.78-1.89-6.43-1.24-1.28-3.07-1.75-4.8-2.18l-14.07-3.43" transform="translate(-263.56 -296.31)"/><path class="cls-3" d="M592.12,556.37c-8.83-1-20.35-1.13-25.1,8-2.44,4.68-2.57,10.31-2.73,15.48-.17,5.56.53,11.14,4.1,15.62,3.16,4,7.92,6.35,12.37,8.58,4.89,2.46,10,3.91,15.39,2a22.31,22.31,0,0,0,11.19-9.38c2.93-4.77,4-10.48,4.33-16a85.48,85.48,0,0,0,0-9.47c-.16-3-.74-6.13-3.17-8.12s-5.79-2.43-8.73-3.15l-10.67-2.61c-3.13-.76-4.46,4.06-1.33,4.82l8.24,2c2.56.62,5.18,1.13,7.68,1.92,1.86.59,2.6,1.83,2.87,3.71a50.82,50.82,0,0,1,.24,7.09c0,8.71-1.73,18.62-9.93,23.37a12.27,12.27,0,0,1-11.3.6,62.67,62.67,0,0,1-6.23-3.15,28.14,28.14,0,0,1-5.29-3.52c-3.38-3-4.61-6.92-4.75-11.34-.07-2.37.07-4.73.22-7.09a31.78,31.78,0,0,1,.89-6.3,10.86,10.86,0,0,1,8.5-8c4.3-1,8.89-.58,13.23-.07a2.51,2.51,0,0,0,2.5-2.5,2.57,2.57,0,0,0-2.5-2.5Z" transform="translate(-263.56 -296.31)"/></g><g id="Слой_2" data-name="Слой 2"><path class="cls-5" d="M613.89,417.13c-12.78-13.43-28.36-24.73-45.75-31.32a88.12,88.12,0,0,0-61-.17,101.92,101.92,0,0,0-26.58,14.51,71,71,0,0,0-13.4,13.7c-11,14.39-19.07,31.17-24.93,48.27a209.81,209.81,0,0,0-10.83,76.66c1.24,29.84,7.72,59.24,16.72,87.64q3.35,10.55,7.11,21C457.74,654.25,460.7,661,463,668a18,18,0,0,1,1,4.14,10.37,10.37,0,0,1-.09,2c-.08.37-.21.73-.32,1.1-.17.53.38-.59-.09.19-.3.47-.56,1-.9,1.42.63-.85-.52.5-.74.72l-.63.57c-.1.09-.8.67-.33.29s-.25.18-.37.26l-.91.63c-4.65,3.06-10,5.29-13.56,9.72a26.12,26.12,0,0,0-5.7,18.26,32,32,0,0,0,7.86,18.38c8.51,10.08,22.15,15.3,35.13,15.46s25.05-4.83,34.78-13.34c8.06-7,14.29-15.84,21.2-23.94a90.31,90.31,0,0,1,10.88-11.07c.16-.13,1.52-1.21.74-.61.47-.37,1-.72,1.44-1.06,1.09-.77,2.21-1.5,3.37-2.18s2.22-1.23,3.37-1.76l.82-.37c.72-.32-.68.26.06,0s1.4-.53,2.11-.77c7-2.29,14.12-2.5,21.44-3.15l23.75-2.12,22.72-2-5-5A70.9,70.9,0,0,0,643.21,716a69.82,69.82,0,0,0,66,20.45c4.17-1,8.34-2.75,11.32-5.93a21.57,21.57,0,0,0,5.21-10.41c3.13-15.15-1.73-30.66-6.12-45-1.26-4.16-2.48-8.33-3.43-12.57-.44-1.94-.82-3.9-1.15-5.86-.11-.71-.2-1.43-.32-2.14s.14,1.24,0-.12l-.15-1.3a102.59,102.59,0,0,1,.42-25.79c.38-2.67-.66-5.37-3.49-6.15-2.35-.65-5.77.8-6.15,3.49a111.35,111.35,0,0,0,1.82,43.07c1.74,7,4.12,13.85,6.07,20.81a77.81,77.81,0,0,1,3.39,21.54c0,1.43,0,2.85-.12,4.27,0,.73-.11,1.45-.21,2.18.14-1.06-.21,1.05-.28,1.39a22.93,22.93,0,0,1-.65,2.29c-.1.29-.21.6-.33.9.34-.79-.12.15-.21.34a12.46,12.46,0,0,1-1.17,1.87c.48-.61-.24.19-.36.32s-1.07,1-.83.8c-2.62,2-6.07,2.53-9.53,3.09-1.37.22-3,.39-4.86.5s-3.77.15-5.65.1a60.1,60.1,0,0,1-37.95-15c-1.46-1.33-2.85-2.73-4.18-4.18-.6-.67-1.19-1.34-1.77-2-.35-.41-.68-.83-1-1.25A6.17,6.17,0,0,1,647,705a69,69,0,0,1-6.17-10.09A62.55,62.55,0,0,1,635,673.68c-.19-2.51-2.14-5.26-5-5l-46.13,4.11c-7.43.66-15.08,1-22.31,2.91a45,45,0,0,0-15,7.26c-8.59,6.32-15.12,14.64-21.81,22.84a152.07,152.07,0,0,1-10.38,11.73,71.33,71.33,0,0,1-5.66,5.05c.67-.53-.56.43-.81.61q-.74.54-1.5,1c-1.19.8-2.42,1.55-3.69,2.24A40.51,40.51,0,0,1,486.61,731a41.17,41.17,0,0,1-17.79-2.76,33.7,33.7,0,0,1-13.26-9.3,17.1,17.1,0,0,1-2.06-2.79c-.38-.6-.73-1.2-1.06-1.82l-.48-.94s-.59-1.41-.33-.74a23.93,23.93,0,0,1-1.16-4c-.06-.34-.13-.67-.17-1,0,.25,0,.8,0-.19,0-.77-.09-1.53-.08-2.3s0-1.36.12-2c.08-.85-.13.66,0-.18.06-.33.12-.67.2-1a20.86,20.86,0,0,1,.6-2.19c.1-.32.22-.64.34-.95-.25.63.09-.19.2-.42a19.92,19.92,0,0,1,1-1.75c.18-.28.37-.56.56-.83.48-.68-.4.45.14-.18a19.18,19.18,0,0,1,1.39-1.46c.18-.17,1.66-1.35.9-.8,4.28-3.12,9.33-5.11,13.19-8.82,5.38-5.19,6-12.44,3.75-19.29S467.46,651.79,465,645c-9.7-26.86-17.92-54.83-21.58-83a242.73,242.73,0,0,1-2-42.6,189.5,189.5,0,0,1,5.22-36.61q2-8.28,4.68-16.37c.84-2.5,1.72-5,2.66-7.45.44-1.15.89-2.31,1.35-3.46.23-.56.45-1.13.69-1.69l.34-.84c-.39.95.12-.26.2-.46A171.91,171.91,0,0,1,469,428.73c1.92-3,3.95-6,6.12-8.9.1-.14.95-1.24.4-.54s.29-.36.39-.49c.48-.6,1-1.19,1.45-1.78.89-1.07,1.81-2.12,2.76-3.14,5.62-6,12.76-10.41,20-14.27a85.08,85.08,0,0,1,25.1-8.48,10.37,10.37,0,0,0,2.52-.4l-.63.08.41-.05.74-.08c.82-.09,1.64-.15,2.46-.2a98.58,98.58,0,0,1,16.83.45c12,1.38,22.51,5.74,32.68,11.83q3.39,2,6.64,4.28c1,.69,2,1.4,3,2.11l1.41,1.06.69.52c-.88-.67.24.19.33.26,3.2,2.52,6.3,5.19,9.27,8,1.8,1.69,3.56,3.44,5.26,5.23a5,5,0,0,0,7.07-7.07Z" transform="translate(-263.56 -296.31)"/><path class="cls-5" d="M717,694.47a52.83,52.83,0,0,0,33.21,8.65,4.08,4.08,0,0,0,4-4c-.09-2-1.77-4.18-4-4a48.84,48.84,0,0,1-7,.08c-.67,0-1.34-.09-2-.16-.42,0-.84-.09-1.26-.15l-.45-.07a47,47,0,0,1-4.82-1,43.13,43.13,0,0,1-13.69-6.23A4,4,0,0,0,715.6,689a4.11,4.11,0,0,0,1.43,5.48Z" transform="translate(-263.56 -296.31)"/><path class="cls-5" d="M770.41,649a71.63,71.63,0,0,1-4.5-7.53c-.6-1.17-1.17-2.36-1.7-3.56-.11-.24-.22-.49-.32-.73-.54-1.22.38,1-.11-.26-.29-.73-.58-1.46-.86-2.2a84.08,84.08,0,0,1-4.16-16.06c-.1-.66-.22-1.32-.29-2,.13,1.31,0,0,0-.26l-.12-1c-.16-1.47-.29-2.93-.39-4.4q-.3-4.34-.27-8.69a111.14,111.14,0,0,1,1.21-17.1c-.2,1.25.11-.74.16-1.1.11-.75.22-1.49.34-2.23.24-1.48.5-3,.77-4.43q.81-4.31,1.82-8.56c1.45-6.15,3.19-12.24,5-18.29,3.83-12.56,8.17-25,11.86-37.56,3.74-12.8,6.78-25.86,7.94-39.17s-.14-26.76-6.38-38.64c-5.61-10.69-14.6-19.43-24.31-26.43a101.41,101.41,0,0,0-29.41-14.43c-20.91-6.42-44.18-6.38-64.86.94-2.77,1-5.5,2.1-8.18,3.31-2.4,1.07-3.15,4.74-1.8,6.84,1.6,2.47,4.28,2.94,6.84,1.79.58-.25,1.15-.53,1.73-.76-1.21.48,0,0,.2-.07l.7-.28c1.28-.51,2.58-1,3.88-1.44,2.49-.86,5-1.61,7.57-2.25s5.13-1.18,7.73-1.61l1.86-.29.16,0c.24,0,.5-.06.74-.09,1.37-.17,2.75-.31,4.12-.42a101.76,101.76,0,0,1,15.81,0q1.88.15,3.75.36l.92.11c.74.08,1.49.21,2.23.33,2.61.41,5.2.93,7.77,1.54a104.55,104.55,0,0,1,15,4.87c.85.34,0,0-.15-.07.35.13.69.3,1,.45l1.72.77c1.25.58,2.49,1.19,3.71,1.82q3.51,1.81,6.86,3.91t6.51,4.47a4.54,4.54,0,0,1,.6.46c-.84-.87,0,0,.18.14l1.46,1.19c1.1.9,2.17,1.84,3.23,2.79a82.56,82.56,0,0,1,6.17,6.24c.93,1.05,1.82,2.12,2.68,3.21-.12-.14-.58-.77,0,0,.24.34.49.67.74,1,.44.62.88,1.25,1.3,1.88a53.07,53.07,0,0,1,4.23,7.63c.11.24.47,1.12.07.14.14.34.28.68.41,1,.27.7.52,1.41.76,2.12.52,1.57,1,3.15,1.34,4.76.34,1.46.62,2.93.85,4.42,0,.25.17,1.25,0,.23,0,.37.09.74.13,1.12.1.82.17,1.65.23,2.47a81.74,81.74,0,0,1,.14,9.52c-.13,3.19-.41,6.36-.8,9.52-.06.46-.11.92-.18,1.37.13-.94,0-.13,0,.05-.11.76-.22,1.52-.34,2.28-.26,1.67-.54,3.33-.86,5-1.18,6.34-2.72,12.62-4.44,18.83-6.74,24.26-16.58,47.75-20.66,72.69-3.75,22.84-3.29,47.26,7.63,68.21a71.43,71.43,0,0,0,4.31,7.18c1.48,2.15,4.47,3.33,6.85,1.79,2.14-1.38,3.37-4.53,1.79-6.84Z" transform="translate(-263.56 -296.31)"/><path class="cls-5" d="M583.12,395.27c2-1.72,4.08-3.4,6.18-5l.66-.52.36-.28c.5-.39,1-.77,1.52-1.15,1.13-.85,2.27-1.68,3.42-2.5a132.13,132.13,0,0,1,13.38-8.46c2.26-1.24,4.57-2.41,6.91-3.48,2.12-1,4.15-1.79,6.74-2.69s5-1.59,7.5-2.2c1.19-.28,2.4-.54,3.61-.76,1.42-.26,2.55-.42,3.41-.52a69.52,69.52,0,0,1,16,.13l.75.1.72.1,1.83.3c1.22.22,2.44.46,3.66.73q3.21.71,6.36,1.67,2.46.75,4.89,1.66c.58.21,1.15.44,1.73.67l.64.26c.87.36-1-.43-.1,0a84.68,84.68,0,0,1,12.87,7c1.16.77,2.29,1.57,3.4,2.4l.59.44c1,.72-.6-.48.33.25l1.37,1.1c1.75,1.44,3.44,3,5.07,4.54a82.89,82.89,0,0,1,7.12,7.87c1.31,1.64,4.31,1.47,5.66,0a4.13,4.13,0,0,0,0-5.66,84.93,84.93,0,0,0-39.06-27.43,81.1,81.1,0,0,0-30.53-4.37c-11.15.69-21.83,4.12-31.78,9.08-11.2,5.59-21.34,13.11-30.86,21.17a4,4,0,0,0,0,5.65,4.1,4.1,0,0,0,5.66,0Z" transform="translate(-263.56 -296.31)"/><path class="cls-5" d="M590.92,546.46a61.17,61.17,0,0,0-15.13-15.4,57.44,57.44,0,0,0-26.46-9.86c-11.41-1.25-22.67,3.31-30.72,11.33a33.29,33.29,0,0,0-8.39,13.28c-1.76,5.51-1,11.3.68,16.73,2,6.23,4.76,12.27,9.16,17.16a25.78,25.78,0,0,0,17.19,8.6l-4.31-7.53c-5.11,8.08-9.15,17.17-9.44,26.85-.28,8.94,2.91,18.53,10,24.33A32.68,32.68,0,0,0,557,639a46.08,46.08,0,0,0,23-9c4.56-3.39,9-7.43,12-12.31a5,5,0,0,0-1.8-6.84,5.1,5.1,0,0,0-6.84,1.79c-.28.46-.59.9-.91,1.33-.82,1.11.75-.92,0,0-.3.38-.61.75-.93,1.12a45.58,45.58,0,0,1-5.28,5.21l-.7.58-.49.38c-.25.21-.22.38,0,0s.14-.11-.13.09l-.39.29-1.09.76a45.94,45.94,0,0,1-4.36,2.64c-.77.42-1.55.8-2.34,1.17l-.4.19c-.47.22-1,.4-1.47.58a38.1,38.1,0,0,1-5.43,1.63l-1.25.24-.54.08c-.71.13,1-.1.24,0-.91.09-1.81.18-2.73.2s-1.71,0-2.56,0l-1.09-.07-.73-.07c-1-.09.7.12.07,0a32.76,32.76,0,0,1-5.08-1.25l-1-.38c-.83-.31.79.37-.29-.13a26.53,26.53,0,0,1-2.35-1.26c-.35-.22-.7-.44-1-.68l-.58-.41c-.46-.31.3.24.31.25a9.67,9.67,0,0,1-2-1.79c-.3-.3-.58-.61-.86-.93s-.32-.39-.49-.58c0,0,.5.69.18.23-.57-.82-1.12-1.63-1.61-2.5-.22-.41-.43-.82-.63-1.24a2,2,0,0,1-.25-.53c0,.59.22.56,0,.09-.35-.93-.67-1.87-.93-2.83s-.43-1.81-.58-2.73a3.13,3.13,0,0,1-.1-.6c0,.14.12,1.12,0,.14,0-.54-.09-1.07-.12-1.61q-.07-1.61,0-3.21c0-.53.06-1.07.12-1.6a4.07,4.07,0,0,1,.09-.79c-.12.43-.1.63,0,.06a45.1,45.1,0,0,1,1.71-6.75c.19-.55.39-1.1.6-1.64.1-.28.21-.55.32-.82.17-.42.2-.45,0,0,.51-1.14,1-2.27,1.6-3.37,1.1-2.15,2.32-4.24,3.61-6.28a5,5,0,0,0,0-5.05,5.17,5.17,0,0,0-4.32-2.47,4.29,4.29,0,0,1-.79-.07c1,.31.43.07.15,0-.58-.13-1.16-.24-1.74-.41s-1-.34-1.5-.51c-.69-.23.73.37.09,0-.35-.18-.72-.34-1.07-.53a28.1,28.1,0,0,1-2.71-1.71c-.65-.45.86.77-.09-.09l-.61-.53c-.45-.4-.88-.82-1.3-1.26s-.83-.92-1.24-1.38c-.13-.15-.59-.75,0,0-.17-.22-.34-.45-.5-.68a31.87,31.87,0,0,1-2-3.2c-.55-1-1-2-1.52-3l-.34-.78c.4.91.09.22,0,0q-.39-1-.75-2a50,50,0,0,1-2.06-7.61c.17.89,0,.12,0-.07s-.06-.62-.08-.94a13.15,13.15,0,0,1,0-1.54c0-.46.06-.91.1-1.37.05-.69-.19,1,0,.3.08-.33.13-.68.21-1a23.72,23.72,0,0,1,.9-2.86c.15-.42,0-.57-.09.2a3.09,3.09,0,0,1,.31-.66c.24-.5.5-1,.77-1.46a31.49,31.49,0,0,1,1.74-2.68c.13-.19.52-.78-.09.1.14-.2.32-.4.48-.59.41-.5.83-1,1.27-1.46.71-.76,1.45-1.49,2.23-2.19.39-.35.78-.7,1.19-1l.61-.49c-.92.76.09-.07.24-.17a35.72,35.72,0,0,1,5.67-3.39l.69-.32c1.12-.53-.7.24,0,0s1.18-.46,1.79-.65a28.54,28.54,0,0,1,4.07-1c.15,0,1.08-.2.44-.09s.28,0,.43-.05c.64-.07,1.29-.11,1.93-.14a34.25,34.25,0,0,1,3.51,0l1.77.15c.26,0,1,.06-.19,0,.25,0,.51.07.75.11,1.06.17,2.11.38,3.16.63,1.68.4,3.34.9,5,1.43.8.26,1.59.53,2.38.81.58.21,1.15.45,1.73.67s-.74-.34-.07,0l.91.41a48.55,48.55,0,0,1,5.83,3.2c1,.6,1.87,1.24,2.78,1.91a4.13,4.13,0,0,1,.55.41c-.77-.87-.25-.2.05,0s.85.69,1.26,1a55.19,55.19,0,0,1,4.15,3.94c1.09,1.16,2.14,2.36,3.13,3.61l.27.34c.54.68-.74-1-.27-.34l.59.78c.33.45.65.9,1,1.36,1.48,2.15,4.46,3.33,6.85,1.8,2.13-1.38,3.37-4.54,1.79-6.84Z" transform="translate(-263.56 -296.31)"/><path class="cls-5" d="M592.35,550.51q1.62-1.44,3.3-2.81l.73-.58c-.65.53,0,0,.08-.06q.9-.67,1.8-1.32c2-1.46,4.12-2.81,6.28-4.07,1.88-1.1,3.82-2.12,5.79-3,.83-.39,1.67-.76,2.51-1.13.65-.3-1.19.48-.21.08l.54-.22,1.33-.52a95.88,95.88,0,0,1,12.7-4c.56-.13,1.12-.25,1.68-.35l.84-.16.61-.1c-.66.1.25,0,.4-.05l1.08-.11c.73-.05,1.45-.09,2.18-.1,1.27,0,2.52.09,3.79.18.79.06-.76-.15,0,0,.37.08.76.13,1.14.21q1.17.24,2.31.57c.72.2,1.43.44,2.13.69l.78.29.48.19c.73.28-1-.45-.47-.2a35.29,35.29,0,0,1,4.41,2.37c.41.26.81.55,1.21.83s.3.49-.21-.16a4.7,4.7,0,0,0,.54.44,25.24,25.24,0,0,1,2.53,2.43c.15.18,1.32,1.62.6.67.33.44.66.89,1,1.35.15.23.29.47.43.71.24.4.46.82.68,1.24.13.25.25.5.37.76s.17.36.25.54c.35.73-.06-.13-.15-.38a42.57,42.57,0,0,1,1.64,5.29c.06.29.11.58.16.87s.2.95,0,.22,0,.34.05.43l.06.75a24.6,24.6,0,0,1,0,3.54s-.14,1.36,0,.57,0,.21-.07.37c-.12.64-.26,1.28-.42,1.91s-.33,1.13-.53,1.69c-.09.26-.19.52-.29.78.4-1.08,0,0-.13.28a23.5,23.5,0,0,1-1.9,3.26l-.42.58c-.63.91.59-.66-.07.09-.37.42-.72.84-1.1,1.25a42.33,42.33,0,0,1-4.25,3.89c-.19.15-.38.3-.56.46s-.25.2.07,0l-.38.28c-.67.48-1.35,1-2,1.4a35.8,35.8,0,0,1-3.59,2l-.68.32c-.14.07-1.3.56-.56.26s0,0-.2.07l-.92.35c-.93.34-1.87.64-2.82.91a5,5,0,0,0-3,7.34c1.13,1.8,2.21,3.62,3.2,5.5.48.9.94,1.82,1.37,2.75.22.46.42.93.63,1.4,0-.07-.29-.72-.08-.19.14.34.28.68.41,1a43.86,43.86,0,0,1,1.85,6,12.17,12.17,0,0,1,.53,2.79c0-1.19,0,.4.06.69,0,.53.08,1.07.1,1.6,0,.87,0,1.74,0,2.61,0,.47-.06.94-.1,1.41a5.56,5.56,0,0,1-.08.8c.11-.38.12-.74,0-.14a29.22,29.22,0,0,1-1.47,5.58c-.06.15-.41.92-.13.32s0,0-.07.13c-.21.41-.4.83-.62,1.23a27.29,27.29,0,0,1-1.58,2.52c-.14.19-.6.67,0-.07l-.37.45c-.27.32-.55.63-.85.93-.62.64-1.29,1.22-2,1.81-.42.36.28-.24.31-.24a3.49,3.49,0,0,0-.58.41c-.34.24-.69.47-1,.69a25.36,25.36,0,0,1-2.35,1.28l-.48.22c-.62.31.86-.33.2-.08-.39.14-.77.3-1.17.44-.85.29-1.72.55-2.59.76s-1.54.33-2.31.46c-.93.16.14,0,.24,0a2.94,2.94,0,0,1-.72.08c-.48,0-1,.09-1.46.11a33.44,33.44,0,0,1-5.1-.16c-.92-.09.9.15-.3,0q-.63-.1-1.26-.24c-.91-.19-1.82-.42-2.71-.69s-1.82-.57-2.71-.9l-1.29-.5c-.41-.15-.62,0,.11.05a2.88,2.88,0,0,1-.7-.31,47.06,47.06,0,0,1-4.71-2.49c-.33-.2-4.06-2.7-4-2.74s.8.64.39.3l-.61-.48-.93-.77c-.58-.5-1.14-1-1.7-1.52q-1.46-1.36-2.79-2.85-.56-.62-1.08-1.26c-.18-.21-.35-.43-.52-.64-.58-.71.78,1.06.27.36-.37-.52-.75-1-1.08-1.57a5,5,0,0,0-8.64,5.05,42.38,42.38,0,0,0,9.28,10.17c6.28,5.12,13.81,9.26,21.87,10.64,8.27,1.42,17.23.35,24.38-4.3,8-5.24,12.27-14,12.94-23.37.76-10.75-3.75-21.17-9.38-30.07l-3,7.35a43.26,43.26,0,0,0,23.61-16.55c6.18-9,5.78-20.68,1.14-30.27-3.49-7.22-10.14-12.24-17.51-15.06a34.42,34.42,0,0,0-15.57-2.1,73.8,73.8,0,0,0-16.66,4.1,85.84,85.84,0,0,0-29.22,17.2,5,5,0,0,0,0,7.08,5.13,5.13,0,0,0,7.07,0Z" transform="translate(-263.56 -296.31)"/><path class="cls-5" d="M608.44,581.48c0,.7,0,1.4-.08,2.1l-.09.86c-.06.75.23-1.28,0-.14a29.63,29.63,0,0,1-1,3.93c-.08.23-.36,1.45-.57,1.56l.24-.58q-.12.3-.27.6c-.14.3-.28.6-.43.89a27,27,0,0,1-1.87,3.09l-.19.26c-.32.43-.26.36.19-.23-.06.23-.47.59-.62.76-.36.42-.72.82-1.1,1.22s-.77.77-1.17,1.14l-.73.64-.51.42q-.63.5.24-.18c0,.23-1.14.8-1.34.93-.46.3-.93.59-1.41.86s-1.16.62-1.76.9c-.12,0-1.1.38-.31.15s-.5.18-.64.23a25.72,25.72,0,0,1-3.56,1l-.83.16c-.82.13-.25.34.14,0-.33.29-1.8.16-2.24.17a29.78,29.78,0,0,1-3.66-.13c-1.2-.11,1.15.22,0,0l-1-.19c-.66-.13-1.31-.29-2-.48s-1.07-.32-1.59-.51c-.15,0-.87-.23-.94-.36l.59.25-.61-.27a25.69,25.69,0,0,1-3.16-1.76c-.27-.17-.55-.36-.81-.55l-.27-.19c-.43-.32-.35-.25.23.19-.38-.08-1-.8-1.25-1.05a25,25,0,0,1-2.72-2.82,2.69,2.69,0,0,1-.41-.51l.38.5-.38-.53c-.35-.49-.68-1-1-1.51s-.6-1-.88-1.58c-.15-.29-.3-.59-.44-.89l-.13-.3c-.22-.5-.18-.4.11.28-.27-.14-.53-1.42-.62-1.72-.19-.59-.36-1.18-.51-1.78s-.25-1.1-.35-1.66l0-.33c-.09-.56-.07-.45,0,.31-.17-.2-.11-1.11-.13-1.38a29,29,0,0,1,0-3.49c0-.35.07-.69.09-1,.1-1.2-.2,1.16,0,0,.12-.67.24-1.33.4-2s.29-1.08.45-1.62c.11-.33.38-1.72.68-1.88-.18.09-.42.92-.11.28.14-.3.27-.6.42-.9.29-.58.61-1.16.95-1.73s.69-1.11,1.07-1.65c.09-.13.52-1,.19-.28s.1-.11.22-.26a24.17,24.17,0,0,1,2.72-2.82c.28-.25.88-1,1.25-1.05l-.49.38.53-.38c.26-.19.54-.38.81-.56a27,27,0,0,1,3.16-1.75l.3-.14-.28.12c.07-.13.79-.31.94-.36q.78-.29,1.59-.51c.54-.16,1.08-.29,1.63-.41l1-.2.68-.11c-.77.1-.87.12-.31,0a33.63,33.63,0,0,1,3.48-.14c.7,0,1.39.08,2.08.14,1.16.09-.88-.16-.14,0l1.17.21a29.91,29.91,0,0,1,4.18,1.22c.63.23,0-.17-.27-.12.26,0,1,.44,1.2.56.59.29,1.17.61,1.73.94s1.19.77,1.78,1.17l.14.1c.43.32.35.25-.23-.19.31.08.76.62,1,.83a26.84,26.84,0,0,1,2.75,2.79c.15.17.56.53.62.76-.45-.59-.51-.66-.19-.23l.37.53c.38.54.73,1.1,1.06,1.67s.64,1.15.92,1.74c.08.17.44.72.41.9q-.42-1-.12-.27l.12.31a25.39,25.39,0,0,1,1.17,4.2c0,.14.25.91.17,1l-.09-.65c0,.23.06.46.08.69.07.81.11,1.62.11,2.43a5,5,0,0,0,10,0,31.15,31.15,0,0,0-20.7-29,30.81,30.81,0,0,0-33.62,9.38,31.7,31.7,0,0,0-7.06,17.57,30.5,30.5,0,0,0,4.39,18.08,31.15,31.15,0,0,0,32.73,14c14.05-2.85,24.17-15.86,24.26-30a5,5,0,0,0-10,0Z" transform="translate(-263.56 -296.31)"/><path class="cls-5" d="M625.69,495.65c.37-.54.75-1.07,1.14-1.6.75-1-.46.52.06-.08l.62-.76c.85-1,1.75-2,2.69-2.87s1.95-1.75,3-2.58c-.93.75.63-.45.88-.63q.81-.56,1.65-1.08a38.46,38.46,0,0,1,3.43-1.92c.58-.28,1.18-.6,1.79-.83-1,.37-.32.14-.11.06l1.29-.49a39.65,39.65,0,0,1,3.95-1.17c.77-.18,1.54-.33,2.32-.46l.9-.14c-1.12.15.45,0,.68-.06a38.76,38.76,0,0,1,4-.13c.68,0,1.35,0,2,.1l.78.06.85.09c-.84-.09.36,0,.44.07l.71.11,1.72.34c1.09.24,2.18.52,3.26.83,1.81.52,3.6,1.12,5.37,1.78l1,.4c.9.34.2.07,0,0,.66.28,1.3.58,1.94.88,1.33.64,2.63,1.33,3.89,2.07s2.3,1.42,3.4,2.19c.51.35,1,.75,1.51,1.09s-1-.76-.11-.09l.73.59a55.61,55.61,0,0,1,4.39,4,5,5,0,0,0,7.07-7.07,60.08,60.08,0,0,0-25.6-15.2c-11.79-3.63-24.4-2.76-35.23,3.35a45,45,0,0,0-15.11,14.1,5,5,0,0,0,1.79,6.84,5.13,5.13,0,0,0,6.84-1.8Z" transform="translate(-263.56 -296.31)"/><path class="cls-5" d="M490.31,498.23c.43-.7.88-1.38,1.35-2.05a12.25,12.25,0,0,0,.9-1.24c0,.08-.76,1-.23.3l.7-.86a42.94,42.94,0,0,1,5.69-5.59c.72-.59.14-.11,0,0l1.05-.77c.61-.43,1.24-.85,1.87-1.24s1.33-.81,2-1.18,1.58-.83,2.39-1.21l.82-.37c.57-.26.08.19-.34.14.45.06,1.39-.55,1.85-.71a31.56,31.56,0,0,1,7.74-1.92l.35,0c.36,0,.73-.07,1.09-.09.74-.05,1.48-.09,2.23-.1a44.85,44.85,0,0,1,4.91.25c.25,0,1,0-.13,0,.38,0,.79.13,1.17.19l1.89.39c1.31.31,2.61.68,3.89,1.11.55.19,1.09.39,1.63.61.09,0,1.15.44.35.13s.22.1.32.14c1,.47,2.07,1,3.08,1.54a50.72,50.72,0,0,1,5.22,3.4c.59.43-.53-.41-.52-.4.2.17.41.33.62.49l.8.67,1.16,1a5,5,0,0,0,7.07-7.07A45.83,45.83,0,0,0,527.6,472a45.06,45.06,0,0,0-33.24,7.68,47.29,47.29,0,0,0-12.68,13.53,5.05,5.05,0,0,0,1.79,6.84,5.11,5.11,0,0,0,6.84-1.79Z" transform="translate(-263.56 -296.31)"/><path class="cls-5" d="M942.53,706.63c0,2.69-.1,5.37-.32,8-.1,1.21-.21,2.41-.36,3.62,0,.28-.07.57-.1.85-.14,1.21.17-1.16,0,0-.1.68-.2,1.35-.31,2A98.38,98.38,0,0,1,937.86,736q-1.14,3.5-2.54,6.9c-.16.39-.24,1.22,0,0a4.26,4.26,0,0,1-.33.76c-.24.56-.49,1.12-.75,1.67-.53,1.15-1.08,2.3-1.65,3.43A99.26,99.26,0,0,1,925,761.34a16.22,16.22,0,0,1-2.14,2.9c.92-.78.23-.29,0,0l-.41.51c-.48.6-1,1.19-1.45,1.78q-2.31,2.76-4.82,5.36c-1.67,1.72-3.41,3.39-5.2,5-.89.8-1.8,1.59-2.73,2.35-.42.35-.84.7-1.27,1-.25.21-.51.41-.77.61l-.51.41.23-.18A106.18,106.18,0,0,1,893.79,789q-3.33,1.85-6.8,3.42l-1.52.67c-.31.14-1.17.7,0,0a4.26,4.26,0,0,1-.62.26c-1.23.5-2.48,1-3.73,1.44a98.34,98.34,0,0,1-14.59,4.07c-1.18.23-2.35.44-3.53.63l-1.87.28c-1.15.17.89-.11.14,0l-1.2.14c-2.53.29-5.08.49-7.63.59a100.45,100.45,0,0,1-15.7-.63,5,5,0,0,1-1-.13c1.06.39.6.08.14,0l-1.87-.28c-1.29-.21-2.58-.45-3.86-.71-2.49-.5-5-1.1-7.4-1.8s-4.7-1.43-7-2.28c-1.14-.43-2.28-.87-3.41-1.33-.42-.18-1.2-.21,0,0a3.33,3.33,0,0,1-.61-.27c-.71-.31-1.41-.62-2.12-1a98.15,98.15,0,0,1-12.68-7c-1-.66-2-1.34-3-2l-1.34-1-.79-.59c-.27-.2-1.51-.92-.29-.21a20,20,0,0,1-2.55-2.06c-1-.83-2-1.69-3-2.57a100.33,100.33,0,0,1-10.19-10.63l-1-1.28c-.21-.25-.41-.51-.61-.77-.54-.69.1.17.18.23a8.38,8.38,0,0,1-1.18-1.57c-.39-.53-.78-1.06-1.16-1.6-1.39-2-2.7-4-3.95-6.06s-2.52-4.39-3.65-6.65c-.52-1-1-2.09-1.5-3.14-.26-.55-.51-1.11-.75-1.67,0-.09-.5-1.09-.14-.32s-.2-.49-.26-.63a98.9,98.9,0,0,1-4.6-14.37c-.57-2.43-1.06-4.88-1.45-7.35l-.27-1.86c-.11-.76.15,1.29,0,.13,0-.34-.09-.68-.13-1-.15-1.31-.27-2.64-.37-4a100,100,0,0,1,0-15.58c.1-1.26.22-2.53.37-3.79a4.91,4.91,0,0,1,.13-1c0,.09-.17,1.22,0,.3.11-.73.22-1.47.34-2.2q.62-3.78,1.52-7.5a101.59,101.59,0,0,1,4.7-14.32c.15-.38.06-.66-.12.27a4.07,4.07,0,0,1,.4-.91c.22-.51.44-1,.67-1.52.56-1.2,1.14-2.4,1.74-3.58,1.09-2.15,2.27-4.27,3.52-6.34s2.7-4.26,4.16-6.31a13.61,13.61,0,0,1,2-2.64c-.91.75-.25.31,0,0l.61-.77c.41-.51.83-1,1.25-1.52a100.4,100.4,0,0,1,10.26-10.57q1.23-1.08,2.49-2.13l1.52-1.25.64-.5c1-.8-.64.48.16-.12,1.93-1.45,3.89-2.85,5.91-4.17a100.18,100.18,0,0,1,13-7.15l1.67-.74c.33-.14.93-.56-.13,0a8.1,8.1,0,0,1,.92-.38c1.19-.48,2.38-.94,3.58-1.38,2.37-.85,4.77-1.62,7.19-2.29s4.82-1.24,7.25-1.72c1.23-.24,2.46-.46,3.7-.66l1.7-.25c1.2-.17-1.17.14,0,0l1.2-.14a99.63,99.63,0,0,1,15.54-.55c2.66.11,5.32.33,8,.65l.69.09c-1.45-.13-.27,0,0,0l1.69.25c1.35.22,2.7.47,4,.74a99.54,99.54,0,0,1,14.56,4.17c1,.39,2.07.79,3.1,1.22.4.16,1.23.23,0,0a4.62,4.62,0,0,1,.92.39l1.81.82q3.31,1.53,6.49,3.3c2.21,1.23,4.36,2.54,6.47,3.93.92.61,1.82,1.23,2.71,1.86.54.38,1.07.77,1.6,1.16.22.16.44.32.65.49s1.34.81.17.11a23.35,23.35,0,0,1,2.8,2.27c.93.77,1.83,1.56,2.73,2.36,1.86,1.68,3.67,3.43,5.4,5.25s3.26,3.53,4.79,5.39c.38.46.76.93,1.13,1.4l.51.64c.72.91-.67-.9,0,0s1.5,2,2.23,3.05a99.12,99.12,0,0,1,7.51,12.57c.54,1.09,1.07,2.19,1.57,3.29.23.51.46,1,.68,1.52.13.31.69,1.19,0,0a7.92,7.92,0,0,1,.45,1.08q1.41,3.48,2.55,7.07a98.92,98.92,0,0,1,3.49,14.83,12.2,12.2,0,0,1,.24,1.7c0-1.52,0,.32.08.72.15,1.26.27,2.52.37,3.79.2,2.56.29,5.13.29,7.7a5,5,0,0,0,10,0,103.94,103.94,0,0,0-19.08-60,105.55,105.55,0,0,0-49.38-37.72,104,104,0,0,0-78.7,192.33,105.48,105.48,0,0,0,64.13,7.27A104,104,0,0,0,951.22,723a108.48,108.48,0,0,0,1.31-16.4,5,5,0,1,0-10,0Z" transform="translate(-263.56 -296.31)"/><path class="cls-5" d="M426.48,673.78c0,.33-.05.66-.06,1,0,.14.24-1.15,0-.39,0,.17-.07.34-.12.52s-.21.63-.3,1c-.17.59.47-1,.13-.29-.09.16-.17.34-.25.51s-.35.63-.55.93l-.33.5c-.31.43-.67.45.09-.11a23.78,23.78,0,0,0-1.73,1.87c-.32.3-.65.59-1,.88l-.49.4c-.4.34.74-.54,0,0s-1.7,1.19-2.58,1.73a51,51,0,0,1-6.28,3.24c-.35.16-1,.42-.23.11L412,686c-.65.27-1.3.52-1.95.76-1.33.5-2.67,1-4,1.4-3,1-6,1.81-9.11,2.55q-5,1.18-10,2.06-2.69.46-5.38.85l-1.43.2-.59.08-2.93.36a245.11,245.11,0,0,1-49.27.58q-2.91-.26-5.81-.58l-2.93-.36-.59-.08-1.63-.23c-3.52-.51-7-1.11-10.51-1.83a120.08,120.08,0,0,1-17.83-5c-.61-.22-1.21-.46-1.82-.7l-.94-.39c.83.34,0,0-.36-.16-1.12-.5-2.22-1-3.31-1.59a41.87,41.87,0,0,1-5.5-3.39c-.71-.52.53.44,0,0l-.49-.4c-.36-.31-.71-.62-1.05-.95s-.6-.58-.88-.89c-.15-.16-.29-.32-.43-.49s-.6-.75-.15-.15-.26-.38-.4-.59-.41-.66-.59-1c-.09-.17-.16-.35-.25-.51-.31-.61.21.59.16.37s-.26-.73-.35-1.11c0-.15-.06-.3-.1-.44-.17-.64.06.21,0,.46,0-.36-.07-.76-.06-1.13s.08-.66.06-1c0,.24-.21,1.11,0,.46.05-.19.08-.39.13-.59s.24-.64.32-1-.47,1-.16.37l.29-.58c.17-.32.35-.63.55-.93l.29-.43.21-.28c.29-.43-.26.36-.3.38a18.12,18.12,0,0,0,1.73-1.86c.32-.3.65-.6,1-.88s.39-.3.57-.46-.42.31-.39.29a1.52,1.52,0,0,0,.35-.26,41.93,41.93,0,0,1,5.66-3.45c1.09-.57,2.2-1.09,3.33-1.58.39-.17.72-.31.1-.05l.94-.39,2-.76c2.74-1,5.53-1.91,8.35-2.69a158.55,158.55,0,0,1,20.24-4.14l1.23-.17.8-.11,2.93-.35q2.91-.33,5.82-.58,6.06-.53,12.14-.75c8.44-.31,16.91-.2,25.34.33q5.89.38,11.78,1.05c.91.1,1.81.21,2.72.33l.62.08c.7.09-.51-.07.18,0l1.42.21c1.8.26,3.59.54,5.37.86a137.8,137.8,0,0,1,19.11,4.62c1.34.43,2.68.9,4,1.4.61.23,1.21.46,1.81.71l.81.33c-1-.4.13.06.36.16a50.73,50.73,0,0,1,6.25,3.25c.91.56,1.79,1.17,2.65,1.8.57.41-.65-.54-.13-.1l.49.4c.38.33.76.66,1.12,1s.59.59.87.9l.37.41.18.21c.43.49-.16-.17-.23-.31.35.66.87,1.24,1.22,1.93.08.14.14.29.22.43.36.7-.27-.84-.13-.3.08.33.22.64.3,1s.08.35.12.52c.17.65-.08-.23,0-.46a6.22,6.22,0,0,0,.06,1,4,4,0,0,0,8,0c-.08-9.14-9.27-15-16.64-18.32-12.64-5.76-26.54-8.37-40.24-10a244.06,244.06,0,0,0-51.41-.62c-14.09,1.31-28.52,3.58-41.74,8.81a53.5,53.5,0,0,0-13.94,7.66c-3,2.39-5.72,5.65-6.6,9.46-2.11,9.08,5.76,15.82,12.92,19.68,11.36,6.11,24.5,8.95,37.16,10.81a244.57,244.57,0,0,0,51.66,2c14.77-1,29.81-3,43.87-7.81a65.14,65.14,0,0,0,14.83-6.82c3.45-2.27,6.93-5.17,8.72-9a13.85,13.85,0,0,0,1.41-5.82,4,4,0,0,0-8,0Z" transform="translate(-263.56 -296.31)"/><path class="cls-5" d="M405.8,623.43a3.78,3.78,0,0,0,0,.75c-.2-.77.2-1,.06-.54,0,.12-.06.25-.09.37s-.17.49-.24.74c-.14.46-.13-.42.22-.52-.07,0-.17.36-.22.44-.14.24-.27.48-.42.72l-.3.42c-.21.34-.26,0,.31-.39a13.39,13.39,0,0,0-1.36,1.45c-.23.21-.45.41-.69.61s-.36.37-.49.4.84-.61.29-.23-1.32.92-2,1.34a41,41,0,0,1-4.81,2.45c-.19.09-.7.28.16-.06l-.68.27-1.26.49c-1.08.41-2.18.78-3.29,1.13q-3.29,1.05-6.65,1.84a130.55,130.55,0,0,1-14.95,2.59,183,183,0,0,1-36.55.41A125.25,125.25,0,0,1,317,635.83a88.82,88.82,0,0,1-13.2-3.69l-1.4-.54-.54-.22c.89.36.25.1,0,0-.88-.39-1.74-.78-2.59-1.22a41,41,0,0,1-4.11-2.51c-.65-.44.6.51.2.16l-.4-.33c-.26-.22-.52-.44-.76-.67a11.41,11.41,0,0,0-1.29-1.39c.6.38.52.73.25.32-.07-.12-.16-.23-.24-.35s-.29-.48-.43-.72a2.59,2.59,0,0,0-.14-.29c-.37-.55.32,1,.15.37-.07-.25-.18-.49-.24-.74s-.06-.3-.1-.44c-.12-.39.3-.25.07.61a3.83,3.83,0,0,0-.05-.75,6.61,6.61,0,0,0,.05-.76s-.25,1.09-.07.62c.05-.14.06-.3.1-.45s.17-.49.24-.74c.16-.61-.44.83-.19.45a3,3,0,0,0,.18-.36c.15-.24.28-.49.43-.72l.19-.29c.49-.73-.35.37-.14.18.44-.4.79-.9,1.23-1.31.24-.23.5-.46.76-.68l.32-.26c.56-.49-.81.57,0,0a34.46,34.46,0,0,1,4.25-2.56c.73-.37,1.47-.72,2.23-1.05.18-.08,1.09-.45.1,0l.54-.22c.56-.23,1.12-.44,1.69-.65,2-.76,4.12-1.41,6.22-2a121.27,121.27,0,0,1,14.87-3l.7-.1.71-.09,2.1-.25c1.43-.17,2.87-.31,4.3-.43,3-.26,6-.45,9-.56,6.27-.23,12.56-.15,18.82.24q4.38.27,8.73.77l1.89.23s1.37.18.59.07l.82.12q2.19.31,4.38.69a105.63,105.63,0,0,1,14,3.39c1,.31,1.9.63,2.84,1l1.27.49.81.33c-.59-.24-.33-.15.1,0a38.61,38.61,0,0,1,4.66,2.39c.65.41,1.27.86,1.91,1.29.31.21.16.34-.29-.23a4.54,4.54,0,0,0,.41.33c.29.24.57.48.84.74a10.63,10.63,0,0,0,1.29,1.38s-.61-.87-.31-.39l.25.36c.17.25.32.52.47.79.06.1.13.36.22.43s-.35-1-.22-.52c.07.25.17.49.24.74s0,.2.07.3c.16.51-.24.39,0-.47a3.92,3.92,0,0,0,0,.76,4,4,0,0,0,8,0c-.08-7.15-6.91-11.78-12.73-14.47-9.63-4.44-20.22-6.43-30.68-7.68a182.08,182.08,0,0,0-38.49-.46c-10.67,1-21.63,2.7-31.63,6.72-6.13,2.47-14.15,6.34-15.77,13.47s4.36,12.6,10.07,15.69c8.58,4.65,18.51,6.82,28.08,8.21a184.13,184.13,0,0,0,38.84,1.49c11.13-.74,22.5-2.29,33.1-5.92a49,49,0,0,0,11.26-5.21c2.68-1.78,5.35-4,6.77-7a11.43,11.43,0,0,0,1.18-4.84,4,4,0,0,0-4-4A4.07,4.07,0,0,0,405.8,623.43Z" transform="translate(-263.56 -296.31)"/><path class="cls-5" d="M388.39,584.14c0,.64-.28.45.09-.31a3,3,0,0,0-.11.52,2.25,2.25,0,0,0-.17.52c-.06-.69.44-.87.22-.52-.07.12-.12.25-.19.36s-.2.34-.3.51c-.46.77.45-.48.1-.11s-.67.76-1,1.1c-.18.17-.36.32-.54.47-.64.55.61-.41,0,0s-1,.7-1.55,1a36.75,36.75,0,0,1-3.65,1.85c-.41.19.28-.12.29-.12l-.55.22-1.13.43c-.79.29-1.6.57-2.41.82-1.65.52-3.32,1-5,1.37-1.91.46-3.84.84-5.78,1.18l-2.79.44-.49.07-.5.06-1.68.2a140.91,140.91,0,0,1-27.93.33c-1-.09-2-.19-3-.3l-1.68-.2-.83-.11-.17,0c-2-.3-4-.64-6.05-1a69.68,69.68,0,0,1-10.13-2.79l-1.13-.43-.55-.22s.7.31.29.12c-.67-.3-1.33-.6-2-.93a29.12,29.12,0,0,1-3.21-1.94c-.56-.38.73.63,0,0-.18-.15-.36-.3-.54-.47-.38-.34-.7-.72-1-1.1s.56.88.1.11c-.1-.17-.21-.33-.31-.51a2.34,2.34,0,0,0-.25-.5c.54.57.3.81.12.14a3,3,0,0,0-.11-.52c.36.75.11.95.09.31,0-.2.09-.89,0-.07s0,0,.08-.21.33-.84,0-.11,0,.06.07-.11l.35-.57c.44-.75-.51.53-.1.1s.63-.7,1-1l.53-.47c.78-.68-.59.39.13-.1a28.53,28.53,0,0,1,3.24-1.93c.57-.29,1.16-.55,1.74-.82.19-.08.7-.26-.16.07l.55-.22,1.13-.43c1.58-.59,3.2-1.09,4.83-1.54a97.5,97.5,0,0,1,11.35-2.3c.09,0,.78-.11.17,0l.62-.08,1.68-.21c1.15-.13,2.3-.24,3.45-.34,2.24-.19,4.49-.32,6.74-.41,4.73-.17,9.47-.12,14.19.17q3.39.21,6.78.58l1.47.18.83.11c-.61-.09.08,0,.17,0,1.06.16,2.13.32,3.19.51a79.48,79.48,0,0,1,10.74,2.56c.76.24,1.51.49,2.25.77l1,.37.55.22c.53.2-.88-.39,0,0a33.24,33.24,0,0,1,3.52,1.79c.5.3,1,.63,1.46,1,.77.53-.52-.46,0,0,.23.2.47.39.69.6s.65.69,1,1-.56-.87-.15-.17l.39.64c.1.16.4.85.07.11s0-.08,0,.11a2.21,2.21,0,0,0,.13.59c-.2-.22-.1-1.2-.09-.31a4,4,0,0,0,8,0c-.09-5.82-5.38-9.66-10.18-11.88-7.51-3.49-15.74-5-23.92-6a139.85,139.85,0,0,0-29.85-.37c-8.28.78-16.79,2.08-24.55,5.21-5,2-11.35,5.16-12.71,11s3.3,10.45,8,13.05c6.67,3.65,14.41,5.37,21.87,6.46a142.65,142.65,0,0,0,30.28,1.18c8.67-.58,17.54-1.78,25.78-4.64,5.14-1.78,11.8-4.52,14.25-9.84a9.68,9.68,0,0,0,1-4.1,4,4,0,0,0-8,0Z" transform="translate(-263.56 -296.31)"/><path class="cls-5" d="M371.63,556.18c0,.93.26-1,0-.16s.54-.85,0-.09a2.67,2.67,0,0,0-.22.36c-.13.41.73-.78.25-.32-.25.25-.47.52-.74.76-.85.76.53-.3-.19.16-.3.19-.59.39-.89.57s-.73.42-1.11.61-1.82.8-.81.4a44.27,44.27,0,0,1-6.28,1.94c-1.23.29-2.48.54-3.73.75-.66.12-1.32.22-2,.32l-.16,0-1.26.15a95.23,95.23,0,0,1-18.57.21c-.72-.06-1.44-.13-2.15-.21l-.84-.1c-1.36-.15.75.12-.59-.07s-2.6-.41-3.89-.67a47.33,47.33,0,0,1-6.84-1.86l-1.26-.48c1,.41-.31-.15-.57-.28-.82-.4-1.55-.9-2.33-1.36-.52-.32.39.19.29.23s-.42-.36-.47-.4c-.21-.2-.4-.42-.6-.62-.6-.57.56.8.05,0-.06-.09-.15-.38-.23-.43.42.26.33,1,.19.37-.21-.92.05,1.09,0,.16s-.26,1.06,0,.17-.56.85,0,.08a2.09,2.09,0,0,0,.17-.28c.22-.6-.65.69-.2.24.22-.22.42-.46.66-.68,0,0,.42-.42.47-.4s-.88.6-.29.23,1.44-.91,2.21-1.3l.61-.29c.05,0,.9-.4.3-.14s.28-.11.33-.13l.57-.21c1.13-.42,2.27-.77,3.43-1.08a65.33,65.33,0,0,1,7.44-1.5c1.31-.19-.4.05.38,0l1-.12c.71-.08,1.43-.15,2.15-.21,1.49-.13,3-.22,4.48-.28,3.24-.12,6.49-.08,9.73.12a63.49,63.49,0,0,1,8.55,1,51.31,51.31,0,0,1,7.82,2c.27.1,2,.82,1,.36.46.21.91.41,1.36.64s.81.43,1.2.67l.49.32.28.19c.34.25.24.17-.29-.23.1,0,.75.67.82.74s.2.24.31.34c.43.43-.41-.78-.2-.24a1.88,1.88,0,0,0,.21.36c.46.64-.33-.91-.12-.31,0,.1.06.2.08.3.13.63-.08-1.24-.06-.32a4,4,0,0,0,8,0c-.1-4.43-3.81-7.42-7.53-9.14a55.29,55.29,0,0,0-16.7-4.22,93.54,93.54,0,0,0-20.28-.23c-5.68.54-11.51,1.43-16.82,3.59-3.82,1.56-8.26,3.9-9.32,8.27s2.26,8.13,5.91,10.16c4.56,2.54,9.87,3.76,15,4.52a97.53,97.53,0,0,0,20.77.86c6.53-.43,13.34-1.32,19.45-3.81,4.36-1.77,9.41-4.67,9.53-10a4,4,0,0,0-4-4A4.09,4.09,0,0,0,371.63,556.18Z" transform="translate(-263.56 -296.31)"/><path class="cls-5" d="M842.7,604.13a117.23,117.23,0,0,0-29.64,23.29,107.3,107.3,0,0,0-26.79,54.27,122.69,122.69,0,0,0,2.72,51.4,142,142,0,0,0,18.75,42.78A140.17,140.17,0,0,0,835,806.17c.78.65,1.58,1.29,2.38,1.92,1.64,1.29,4.08,1.72,5.66,0,1.32-1.44,1.75-4.27,0-5.66a137,137,0,0,1-11.23-9.9q-3.54-3.48-6.82-7.21c-1.23-1.4-2.45-2.84-3.63-4.3l-1.62-2c.49.61.12.15,0,0l-.51-.67-.91-1.22a130.57,130.57,0,0,1-13.29-22.35c-.52-1.11-1-2.23-1.5-3.35,0-.07-.3-.7-.08-.18-.11-.26-.22-.51-.32-.77-.27-.64-.53-1.29-.78-1.94-.92-2.33-1.76-4.68-2.54-7.06-.68-2.08-1.34-4.16-2-6.26a135.51,135.51,0,0,1-4.19-19.2c0-.13-.12-.84-.05-.3s0-.18,0-.31c-.07-.51-.13-1-.19-1.53-.12-1.05-.22-2.1-.32-3.15q-.27-3.19-.38-6.41a107.89,107.89,0,0,1,.4-13.81c.25-2.75.43-4.13.86-6.67s.95-5.05,1.56-7.54a97.73,97.73,0,0,1,5-15,100.86,100.86,0,0,1,7-13.32q1.8-2.92,3.8-5.71c.63-.88,1.27-1.74,1.91-2.6.39-.51-.33.43.06-.07.19-.25.38-.49.58-.73.34-.44.69-.86,1-1.29a110.74,110.74,0,0,1,16.33-16.14l1-.8.44-.35c-.08.07-.7.54-.15.12l2-1.46c1.21-.89,2.45-1.76,3.69-2.6,2-1.36,4.09-2.66,6.2-3.89.79-.47,1.6-.92,2.4-1.37a4,4,0,0,0,1.44-5.47,4.08,4.08,0,0,0-5.47-1.44Z" transform="translate(-263.56 -296.31)"/><path class="cls-5" d="M846.54,611a116.32,116.32,0,0,1,12.29,7.86l1.94,1.46c.17.12.59.46-.14-.12l.44.35,1.12.89c1.32,1.06,2.62,2.16,3.89,3.28a109.8,109.8,0,0,1,8.23,8.06c1.45,1.57,2.86,3.19,4.21,4.85.31.38.62.76.92,1.15l.52.66c.69.9,1.37,1.81,2,2.74a104.82,104.82,0,0,1,7.35,11.92,98.64,98.64,0,0,1,10,29.89c.1.56.19,1.13.27,1.69,0,.35.11.7.15,1,0-.18-.08-.63,0,.2.15,1.24.29,2.48.4,3.73q.32,3.51.41,7a115.41,115.41,0,0,1-.43,13.15q-.14,1.49-.3,3c-.05.45-.11.91-.17,1.36,0,.23,0,.45-.08.68.12-1,0,.13,0,.26-.27,1.86-.57,3.71-.92,5.55-.6,3.23-1.33,6.44-2.17,9.62a158.17,158.17,0,0,1-5.65,17.39c-.23.58-.47,1.16-.71,1.74-.1.26-.21.51-.32.77.07-.17.24-.56-.08.18-.49,1.12-1,2.24-1.5,3.35-1,2.09-2,4.16-3.09,6.19a127.57,127.57,0,0,1-6.7,11.18q-1.7,2.54-3.51,5c-.26.37-.53.73-.8,1.09l-.51.66c-.07.1-.5.66-.19.26s-.12.15-.2.24-.34.43-.5.65l-.92,1.14c-2.22,2.74-4.56,5.4-7,8a136.94,136.94,0,0,1-12.27,11.45q-1.14.95-2.31,1.86c-1.65,1.31-1.46,4.31,0,5.66a4.12,4.12,0,0,0,5.66,0A137.49,137.49,0,0,0,903.19,737c4.47-15.36,6.5-31.6,4.86-47.55a108.15,108.15,0,0,0-23.76-57.3,115.58,115.58,0,0,0-31.23-26.61c-.82-.49-1.65-1-2.49-1.42a4,4,0,0,0-4,6.91Z" transform="translate(-263.56 -296.31)"/><path class="cls-5" d="M844.55,607.65V796.47c0,2.56,0,5.13,0,7.69,0,.1,0,.21,0,.32a4,4,0,0,0,8,0V615.66c0-2.56.05-5.12,0-7.68v-.33a4,4,0,1,0-8,0Z" transform="translate(-263.56 -296.31)"/><path class="cls-5" d="M864.2,797.79h-.37a5.13,5.13,0,0,0-5,5l.18,1.33a5.05,5.05,0,0,0,1.29,2.21l1,.78a5,5,0,0,0,2.52.68h.37a3.72,3.72,0,0,0,1.92-.43,4.5,4.5,0,0,0,2.65-2.64,3.88,3.88,0,0,0,.43-1.93l-.18-1.33a5.05,5.05,0,0,0-1.29-2.21l-1-.78a5,5,0,0,0-2.52-.68Z" transform="translate(-263.56 -296.31)"/></g></svg>