<svg xmlns="http://www.w3.org/2000/svg" viewBox="0 0 676.17 542.67"><defs><style>.cls-1{fill:#3f8e93;}.cls-2{fill:#22565a;}.cls-3{fill:#b8d8ef;}.cls-4{fill:#fff;}</style></defs><g id="Слой_5" data-name="Слой 5"><path class="cls-1" d="M916.21,642.12a162.3,162.3,0,0,1-30.14,94.45,163,163,0,0,1-76.56,58.53A163,163,0,0,1,595,603.45a161.07,161.07,0,0,1,18.91-45.7,162.71,162.71,0,0,1,120.36-77.49,165.68,165.68,0,0,1,51.53,2.16,163.35,163.35,0,0,1,113.51,87.27,163.42,163.42,0,0,1,15.08,47.56,165.63,165.63,0,0,1,1.86,24.87c0,4.82,7.5,4.83,7.5,0a171.32,171.32,0,0,0-8.26-52.54,169.58,169.58,0,0,0-23-45.88,173.67,173.67,0,0,0-35.8-37.08,170.31,170.31,0,0,0-234.72,27,172.64,172.64,0,0,0-26.5,44.31,169.45,169.45,0,0,0-12,51.17,170.51,170.51,0,0,0,204.18,180,169.09,169.09,0,0,0,48.58-18,171,171,0,0,0,69.74-73,169.11,169.11,0,0,0,15.8-49.6,177.05,177.05,0,0,0,2.06-26.41C923.71,637.29,916.21,637.28,916.21,642.12Z" transform="translate(-247.54 -301.55)"/><circle class="cls-2" cx="268.42" cy="158.31" r="8.04"/><circle class="cls-2" cx="399.81" cy="8.04" r="8.04"/><path class="cls-1" d="M439.38,404.44c0,2-.07,4-.23,5.94-.07.92-.17,1.84-.27,2.75,0,.24-.2,1.46-.09.71-.07.51-.15,1-.23,1.53a74.24,74.24,0,0,1-2.66,11c-.57,1.75-1.21,3.47-1.9,5.17l-.14.32c.18-.42-.09.22-.14.31-.17.4-.35.81-.54,1.21-.39.85-.8,1.7-1.22,2.53a75,75,0,0,1-5.6,9.3c-.51.71-1,1.41-1.55,2.11s-.11.13,0,0l-.4.51c-.34.43-.69.85-1,1.27q-1.73,2.07-3.6,4t-3.89,3.74c-.65.59-1.31,1.16-2,1.72l-1,.83-.51.4c-.84.69.59-.43-.27.22A76.42,76.42,0,0,1,403,466q-2.46,1.37-5,2.53l-1.22.54c-.12.05-.66.28,0,0l-.61.25q-1.31.54-2.64,1a72.74,72.74,0,0,1-10.85,3c-.89.18-1.79.34-2.69.48l-1.35.21c.78-.12-.69.08-.88.1-1.9.22-3.81.36-5.72.44a74.91,74.91,0,0,1-11.5-.46c-.18,0-1.5-.2-.71-.08l-1.36-.21c-1-.16-2-.34-3-.54-1.83-.37-3.63-.81-5.42-1.32s-3.53-1.07-5.26-1.7c-.83-.31-1.66-.63-2.48-1l-.62-.25c.64.27.11,0,0,0l-1.51-.68a73.41,73.41,0,0,1-9.5-5.28c-1.56-1-3.08-2.09-4.55-3.23l-.53-.42-1-.83q-1.06-.9-2.1-1.83a72.52,72.52,0,0,1-7.58-7.9l-.83-1-.41-.51c.09.11.42.55,0,0q-.84-1.11-1.65-2.25-1.56-2.22-2.95-4.54c-.94-1.56-1.81-3.14-2.63-4.76-.39-.79-.78-1.59-1.15-2.39l-.54-1.21c0-.09-.32-.73-.14-.31s-.16-.39-.19-.48a72.5,72.5,0,0,1-3.44-10.67c-.43-1.82-.8-3.66-1.09-5.5l-.21-1.36c.11.75-.05-.47-.08-.71-.12-1-.22-2.06-.3-3.1a74,74,0,0,1,0-11.53q.11-1.38.27-2.76c0-.17.2-1.5.08-.71.09-.56.17-1.13.26-1.69.31-1.84.68-3.68,1.12-5.49a76.72,76.72,0,0,1,3.48-10.66c.06-.12.29-.66,0,0l.27-.61.54-1.21q.6-1.28,1.23-2.52c.82-1.62,1.71-3.21,2.65-4.76s1.93-3.05,3-4.52c.51-.72,1-1.42,1.56-2.11.35-.46-.34.43,0,0,.13-.17.27-.34.4-.52l.93-1.14a75.52,75.52,0,0,1,7.62-7.87c.65-.58,1.31-1.15,2-1.71l1-.82.51-.41c.34-.27-.41.3.15-.12q2.22-1.68,4.56-3.21a74.65,74.65,0,0,1,9.53-5.23l1.21-.54c.66-.3.16-.07,0,0l.62-.26c.92-.38,1.85-.73,2.79-1.07,1.74-.63,3.49-1.19,5.27-1.69s3.6-.93,5.43-1.29c.89-.17,1.79-.33,2.68-.48l1.36-.2c-.71.1-.12,0,0,0l1-.13a75,75,0,0,1,11.51-.4c1.91.08,3.81.24,5.71.46l.68.09c.6.08-.57-.09,0,0l1.35.21c.95.15,1.9.33,2.85.52a73.88,73.88,0,0,1,10.83,3.08c.84.31,1.66.63,2.48,1,.1,0,.74.31.32.13l.32.14,1.36.61q2.55,1.17,5,2.55a73.14,73.14,0,0,1,9,5.95c-.57-.44.35.29.52.43l1,.83c.75.63,1.49,1.27,2.22,1.93q2,1.81,3.87,3.76c1.25,1.3,2.44,2.65,3.59,4,.28.33.55.67.83,1,.13.17.27.34.4.52-.42-.54-.06-.09,0,0,.59.78,1.17,1.57,1.74,2.38a73,73,0,0,1,5.56,9.32c.39.79.77,1.58,1.14,2.39.19.4.36.8.54,1.21.06.12.29.66,0,0,.11.25.22.51.32.77q1,2.55,1.88,5.17a73.24,73.24,0,0,1,2.61,11c0,.22.07.45.11.68s.12.82,0,.35,0,.24.05.35.05.46.08.68c.1.92.19,1.84.26,2.76q.22,2.88.22,5.77a3.75,3.75,0,0,0,7.5,0,77.71,77.71,0,0,0-14.23-44.81,78.89,78.89,0,0,0-37-28.24,77.71,77.71,0,1,0,50.25,85.29,82.34,82.34,0,0,0,1-12.24,3.78,3.78,0,0,0-3.75-3.75A3.82,3.82,0,0,0,439.38,404.44Z" transform="translate(-247.54 -301.55)"/></g><g id="Слой_4" data-name="Слой 4"><path class="cls-3" d="M719.54,354.32a37,37,0,0,1,9.64-4.85c9.43-3.62,19.06-7.11,29.12-8s20.75,1,28.71,7.19a147.69,147.69,0,0,0-29.85,17.5,5.57,5.57,0,0,1-2.95,1.41,5.51,5.51,0,0,1-3-1.16A93.3,93.3,0,0,0,721,354.12" transform="translate(-247.54 -301.55)"/><path class="cls-3" d="M720.8,356.48c3.66-2.77,8.07-4.25,12.32-5.84a142.67,142.67,0,0,1,14-4.61c8.48-2.26,17.46-3.26,26.09-1.18a33.08,33.08,0,0,1,12.57,5.93v-4.32a148.82,148.82,0,0,0-24.93,13.93c-2,1.35-3.8,2.88-5.78,4.18a1.36,1.36,0,0,1-1.85.07c-1-.58-2-1.23-3-1.82a96.9,96.9,0,0,0-13.07-6.39,93.67,93.67,0,0,0-15.42-4.72c-3.14-.68-4.48,4.14-1.33,4.82a92.11,92.11,0,0,1,27.29,10.6c2.08,1.22,4.21,3,6.76,2.88s4.56-2.18,6.53-3.61a145.16,145.16,0,0,1,12.47-8.09,148.92,148.92,0,0,1,14.86-7.53c1.93-.85,1.29-3.32,0-4.32-7.22-5.56-16.52-7.81-25.52-7.75-10.14.06-20,3.05-29.44,6.53-5.11,1.89-10.65,3.6-15,6.92a2.58,2.58,0,0,0-.9,3.42,2.52,2.52,0,0,0,3.42.9Z" transform="translate(-247.54 -301.55)"/><path class="cls-3" d="M768.22,559.46c5.11,20.14,3.47,41.27,3.61,62,.06,7.27.36,14.7,3,21.47s8,12.87,15.08,14.55a4.79,4.79,0,0,0,3.11-.07c1.83-.85,2.15-3.28,2.18-5.29a176.86,176.86,0,0,0-25.74-94.42" transform="translate(-247.54 -301.55)"/><path class="cls-3" d="M765.81,560.12c3.82,15.23,3.77,31,3.61,46.59-.08,7.65-.37,15.36.19,23,.52,7,2,14.21,6,20.13,3.43,5.06,9.09,10,15.49,10.39,3.58.23,5.91-2.4,6.41-5.76a60.45,60.45,0,0,0,.12-10.68,179.44,179.44,0,0,0-26-87.3c-1.67-2.74-6-.23-4.32,2.53a174.54,174.54,0,0,1,24.89,76.86q.42,5.26.51,10.56c0,1.61,0,3.23,0,4.85a8.87,8.87,0,0,1-.38,3.43c-.37.78-1.17.55-2.11.31a15.2,15.2,0,0,1-3.78-1.55,20,20,0,0,1-5.87-5.25c-3.92-5.19-5.41-11.7-5.92-18.06-.57-7.15-.32-14.38-.24-21.54.18-16.67.32-33.54-3.77-49.83-.78-3.12-5.6-1.79-4.82,1.33Z" transform="translate(-247.54 -301.55)"/><path class="cls-3" d="M520.69,527.63c3.22,0,3.23-5,0-5s-3.22,5,0,5Z" transform="translate(-247.54 -301.55)"/><path class="cls-3" d="M304.22,623.58c-8.94-7.19-18-14.48-24.75-23.74s-11.1-20.88-9.3-32.2c2.84-17.9,20.25-30.45,38-34.24s36.08-.89,54.16.47c53.85,4,107.71-5.85,160.48-17.29,9.22-2,18.44-4.05,27.79-5.33A173.53,173.53,0,0,1,658.72,532a30.2,30.2,0,0,0-8.18,27.56A82.71,82.71,0,0,1,653,542.59c3.11,7.22-2.76,15.13-9,19.9s-13.84,9.14-16,16.71a45,45,0,0,0-60.93,30.63c-10-11.07-26.8-14.51-41.17-10.52s-26.32,14.51-34.45,27c-8.09-11.05-18.36-21.56-31.64-24.91s-29.77,3.2-33.12,16.49a26.18,26.18,0,0,1,15.69-10.4,25.55,25.55,0,0,0-15.94,9.58c-6.26-11.39-16.51-21.22-29.19-24.05s-27.59,3-32.69,14.91c-3.79-5.47-7.78-11.12-13.61-14.32-9.24-5.06-21.28-2.53-29.55,4S308.08,614,304.66,623.9l4.15-2.94" transform="translate(-247.54 -301.55)"/><path class="cls-3" d="M306,621.81c-11.6-9.32-23.81-19.09-30.09-33-3-6.59-4.51-14.16-3.18-21.35a33.12,33.12,0,0,1,7.72-15.67c20.7-23.75,54.95-17.4,82.63-15.39,33.34,2.42,66.82-.51,99.77-5.73,16.57-2.63,33-5.85,49.45-9.31,16.13-3.4,32.21-7.5,48.69-8.73A171.44,171.44,0,0,1,647.58,529q5,2.41,9.87,5.15l-.5-3.92a33,33,0,0,0-8.82,30c.61,2.85,4.8,2,4.91-.67a82.82,82.82,0,0,1,2.35-16.27h-4.82c3.15,7.91-4.68,14.78-10.38,18.94-6,4.38-12.36,8.9-14.62,16.34l3.07-1.74a47.44,47.44,0,0,0-56.93,17,47.65,47.65,0,0,0-7.07,15.41l4.18-1.1c-8.14-8.86-20.26-13.13-32.14-12.85-12.5.3-24.14,5.76-33.53,13.81a75.44,75.44,0,0,0-13.88,16h4.32c-7.44-10.12-16.35-19.66-28.23-24.45-10-4-22-3.3-31,2.84a24.32,24.32,0,0,0-10.1,13.78c-.77,2.88,3,4.15,4.57,1.93a24,24,0,0,1,14.2-9.25c3.17-.73,1.79-5.38-1.33-4.82a28,28,0,0,0-17.05,10.22l3.93.5c-5.5-9.87-13.71-18.63-24.25-23.09A34.45,34.45,0,0,0,374,594.19a27.28,27.28,0,0,0-11.59,12.49h4.32c-3.32-4.78-6.73-9.61-11.41-13.17a25.22,25.22,0,0,0-15.66-5.06c-11.83.17-21.89,7.21-28.52,16.59a72.38,72.38,0,0,0-8.86,18.2c-.69,2,1.91,4.08,3.67,2.82l4.15-2.94c2.6-1.85.11-6.19-2.52-4.32l-4.15,3,3.67,2.82c4.17-12,11.19-24.91,23.88-29.46,5.64-2,12.11-2.45,17.66.14,6.08,2.84,10.06,8.61,13.77,14,.95,1.37,3.5,1.87,4.32,0,3.64-8.26,12-13.29,20.79-14.21,9.72-1,19,3.13,26.08,9.6a54.07,54.07,0,0,1,10.69,13.75c.71,1.28,2.93,1.78,3.93.5A23.88,23.88,0,0,1,443,609.92l-1.33-4.82a29.21,29.21,0,0,0-17.19,11.55l4.57,1.92c2.34-8.8,10.85-14,19.47-15.24,10.38-1.5,20.27,3.35,27.94,10a87.25,87.25,0,0,1,12.78,14.23,2.54,2.54,0,0,0,4.32,0c12.14-18.52,33.94-32.63,56.61-25.49a34.39,34.39,0,0,1,15.08,9.5,2.52,2.52,0,0,0,4.18-1.1,42.57,42.57,0,0,1,57.85-28.89c1.28.52,2.72-.58,3.08-1.75,2.31-7.59,10.29-11.52,16.06-16.17,6.22-5,12.24-13.48,8.94-21.77-.84-2.12-4.17-2.61-4.82,0a89.47,89.47,0,0,0-2.53,17.6l4.92-.66a27.82,27.82,0,0,1,7.52-25.14,2.52,2.52,0,0,0-.5-3.92,176.71,176.71,0,0,0-88.55-22.6c-16.48.21-32.5,3.33-48.55,6.81-17,3.69-34.06,7.21-51.22,10.17-34.06,5.88-68.69,9.51-103.29,7.58-29.57-1.65-63.81-9.22-88,13-10.12,9.28-14.93,22.37-12.29,36,3,15.32,13.84,27.37,25.33,37.21,3,2.54,6,5,9.06,7.44,2.48,2,6-1.52,3.54-3.54Z" transform="translate(-247.54 -301.55)"/><path class="cls-3" d="M309.2,741.84A118.59,118.59,0,0,1,295,685.54c-8.39-8.32-23.63-5.33-31.43,3.56s-9.65,21.5-9.45,33.31c.22,12.87,2.59,26,8.9,37.17,11.34,20.13,33.47,31.44,55,39.87a435.88,435.88,0,0,0,91.35,24.74c20.78,3.26,41.76,5,62.73,6.68,33.48,2.65,67.13,5.09,100.62,2.52s67-10.37,96.21-27a118.43,118.43,0,0,0,16.48-11.13c31.46-25.83,41.34-74.52,22.45-110.56L693.1,686.4a68.37,68.37,0,0,1-29,52.16c-3.49,2.41-7.27,4.54-10.08,7.71-3.09,3.46-4.78,7.9-7,12-11,20.19-36.84,30.91-58.86,24.4-3.27-1-6.62-2.27-10-1.68-4,.72-7,3.95-9.88,6.8-11.27,11.06-28.53,18.81-42.8,12-5-2.35-9-6.24-14-8.56-18.54-8.66-40.9,7.06-60.44,1-12.13-3.79-20.14-15-27.24-25.57a40.71,40.71,0,0,1-67.19-21.74,46.62,46.62,0,0,1-33.22,10.18c-6.35-.57-14.13-5-12.44-11.13" transform="translate(-247.54 -301.55)"/><path class="cls-3" d="M311.36,740.58a117.83,117.83,0,0,1-12.6-37.85c-.45-3-.77-6-1-9.05-.11-1.63-.18-3.25-.23-4.88s.35-3.65-.77-5c-2.9-3.55-8.33-5.19-12.69-5.56-10.09-.84-19.75,4.71-25.22,13-6.32,9.55-7.55,21.64-7.2,32.81.38,12.47,2.8,25.12,8.82,36.16,5.33,9.78,13.34,17.73,22.36,24.13,9.32,6.62,19.71,11.56,30.26,15.88,12.47,5.11,25.24,9.53,38.15,13.39a461.49,461.49,0,0,0,81,16.19c28.41,3.19,57.08,5.42,85.64,6.67,53.27,2.32,110-1.81,156.57-30.4a90.15,90.15,0,0,0,39.9-48.71c6.73-19.07,7.52-40.49,1.45-59.84a87.77,87.77,0,0,0-5.81-14,2.43,2.43,0,0,0-2.16-1.23L693.1,683.9a2.57,2.57,0,0,0-2.5,2.5,66.12,66.12,0,0,1-20.74,44.3c-4.26,4-9.23,6.84-13.84,10.38-4.81,3.7-7.42,8.54-10.1,13.85a47.7,47.7,0,0,1-9,12.55,51.4,51.4,0,0,1-26.42,13.74,48.07,48.07,0,0,1-14.66.5c-5.62-.68-11.14-3.78-16.83-3.36s-9.55,4.92-13.5,8.61a52.78,52.78,0,0,1-14.18,9.55,34.14,34.14,0,0,1-16.06,3.27c-5.78-.36-10.51-3-15.19-6.21s-9.63-6.07-15.45-7a51.39,51.39,0,0,0-15.85.36c-11.65,1.76-24,6.34-35.79,3.23-12.41-3.26-20.26-14.74-27-24.79a2.56,2.56,0,0,0-3.93-.51,39.06,39.06,0,0,1-38.39,7.63c-12.4-4.37-21.81-15.51-24.61-28.27-.45-2-2.83-2.19-4.18-1.1a44.13,44.13,0,0,1-24.42,9.52c-3.89.26-8,.26-11.67-1.27-2.68-1.11-6.18-3.4-5.4-6.76.73-3.13-4.09-4.47-4.82-1.33-1.07,4.61,1.3,8.45,5.07,11,4.09,2.76,9,3.49,13.85,3.48a49.73,49.73,0,0,0,30.92-11.08l-4.18-1.11A44.41,44.41,0,0,0,373.5,773a43,43,0,0,0,34.17,5.07,44,44,0,0,0,17.91-9.69l-3.93-.51c6.33,9.38,13.28,19.49,23.7,24.68s22.11,3.58,33.2,1.36c10.43-2.08,22.3-5.24,32.39-.19,5.7,2.87,10.34,7.38,16.44,9.51a31.87,31.87,0,0,0,16.64.86,47.23,47.23,0,0,0,15.5-6.31c5.08-3.13,9.12-7.17,13.51-11.14,2.19-2,4.59-3.54,7.66-3.32,3.36.23,6.57,1.77,9.84,2.5a50.89,50.89,0,0,0,15.66,1,56.49,56.49,0,0,0,28.54-10.9,53.67,53.67,0,0,0,11.06-11.11c3.56-4.84,5.41-10.66,8.93-15.48,3.9-5.35,10.53-8.21,15.56-12.36a69.77,69.77,0,0,0,13-14.3A70.83,70.83,0,0,0,695.6,686.4l-2.5,2.5,14.75-1.71L705.69,686c16.58,31.95,10.24,73.91-14.21,100.16-7.24,7.77-16,13.76-25.24,18.91A185.64,185.64,0,0,1,635,818.77c-22.11,7.44-45.3,11.18-68.54,12.54-25.46,1.5-51,.27-76.39-1.57-25.09-1.81-50.28-3.6-75.19-7.23a437,437,0,0,1-70.42-16.31c-20.3-6.51-41.53-13.78-59.06-26.24a68.29,68.29,0,0,1-19.83-21c-5.65-9.75-8.12-21-8.75-32.18-.57-10-.13-20.94,4.63-30,4.13-7.9,11.76-13.59,20.91-13.57a15.47,15.47,0,0,1,10.91,4.17l-.73-1.77A122.58,122.58,0,0,0,307,743.1c1.52,2.84,5.84.32,4.32-2.52Z" transform="translate(-247.54 -301.55)"/><path class="cls-4" d="M641.13,514.65l-4.4-60.27c-1.33-18.23-2.56-37.17,4-54.22,8.08-20.86,27.93-36.4,50-40.35s45.53,3.38,62.19,18.31c8.17-7.57,18.64-12.25,29.33-15.4,12.08-3.58,25-5.36,37.31-2.84s24.1,9.81,30,20.95L828.14,358c25.18,15,45.69,41.79,44.05,71.05-.49,8.84-3,17.45-5.4,26l-12.3,42.85a50.58,50.58,0,0,1,7-19.41l-10.55,30.85c-3.11,9.09-6.23,18.22-7.87,27.69-2.64,15.16-1.43,30.68-.9,46.06a512.24,512.24,0,0,1-6.95,103.54c-.41,2.41-.87,4.91-2.32,6.87-3.87,5.29-12.83,3.62-16.94-1.48s-4.75-12.08-5.33-18.6q-2.62-29.21-8.08-58c-3.8-20-8.78-40.25-19.5-57.58-6.52-10.53-16.77-20.57-29.15-20.16-7.86.25-15.07,4.82-20.26,10.73S725,561.4,721.53,568.49c-4.72,9.79-9.57,20.57-7.1,31.16-4.51-20.82-9.53-42.66-23.79-58.49-9.36-10.4-21.92-17.26-34.22-23.92-4.65-2.52-9.59-5.11-14.87-4.9a14.66,14.66,0,0,0,9.67,4.24l-6.58-.74,12.19,5.53" transform="translate(-247.54 -301.55)"/><path class="cls-4" d="M646.13,514.65,642,458.35c-1.23-16.84-2.95-34.35,1.48-50.53.54-1.94,1.16-3.87,1.87-5.76.19-.5.38-1,.58-1.48.37-.94.16-.37.07-.17.39-.9.81-1.79,1.25-2.68a61.58,61.58,0,0,1,5.34-8.8c.29-.4.58-.8.88-1.19-.49.64.16-.19.28-.34.52-.63,1-1.26,1.58-1.88q1.77-2,3.71-3.93t3.84-3.47l.76-.63s1.28-1,.54-.44c.71-.56,1.44-1.09,2.18-1.61a69.28,69.28,0,0,1,9.11-5.43c.74-.36,1.49-.71,2.24-1.05l.9-.4c-.89.39.6-.25.63-.26q2.52-1,5.11-1.81a59.21,59.21,0,0,1,20.73-2.7,58.23,58.23,0,0,1,11.93,1.5,76.84,76.84,0,0,1,11.79,3.62c1,.4,1.11.44,2.27,1,1,.44,1.95.91,2.91,1.39,1.91,1,3.79,2,5.62,3.15s3.62,2.33,5.34,3.61c1.23.91,2.86,2.25,4.4,3.62a5.12,5.12,0,0,0,7.07,0c9.91-9.07,23.48-13.9,36.94-16.54a67.24,67.24,0,0,1,21.79-.94,50.67,50.67,0,0,1,9.15,2.19c.72.24,1.43.52,2.15.78l.21.08.93.41a44.38,44.38,0,0,1,4.49,2.33,32.14,32.14,0,0,1,7.35,5.62c.59.59,1.16,1.19,1.71,1.81l.82.95c.15.19.7.89.3.36a35.77,35.77,0,0,1,3,4.65l7.86-6.06-21.4-22.84-6.06,7.85q3,1.77,5.8,3.73c.91.63,1.82,1.27,2.72,1.93,1.14.85,1.39,1,2.25,1.73a101.43,101.43,0,0,1,10.25,9.41q2.4,2.52,4.59,5.21l1.13,1.39c.51.65,0-.05.46.61.71,1,1.41,1.92,2.09,2.9A80.94,80.94,0,0,1,861.7,401c.25.53.48,1.06.72,1.6s0,.05,0-.05c.1.23.19.46.29.7.43,1.08.84,2.17,1.22,3.27a62.45,62.45,0,0,1,1.88,6.44c.25,1.05.47,2.1.67,3.16.1.57.2,1.14.29,1.72,0,.24.07.49.11.73.12.84-.08-.69,0,.16a60.66,60.66,0,0,1,.41,6.74c.05,10.9-3.38,21.46-6.41,32l-11.2,39,9.64,2.65A47.52,47.52,0,0,1,865.78,481l-9.13-3.85-8.72,25.5c-2.82,8.24-5.79,16.46-7.94,24.91-4.39,17.2-3.65,34.7-3,52.27a509.16,509.16,0,0,1-6.54,104.81,25.13,25.13,0,0,1-1.11,5c.21-.47-.6,1.06-.5.9.34-.56.08-.06,0,.09s-1.15.94-.18.27c-.32.22-.69.38-1,.6.65-.47.51-.16.12,0s-.76.21-1.15.3-.73-.07.14,0c-.4,0-.82,0-1.22,0s-.55,0-.82-.06c1.11.1.17,0-.12-.06s-.68-.16-1-.27c-.14,0-1.43-.55-.4-.09-.67-.3-1.25-.68-1.88-1s-.22-.12,0,0a10.76,10.76,0,0,1-.95-.84,11.91,11.91,0,0,1-2.27-3.47c-.73-1.47.12.4-.21-.49-.16-.41-.3-.82-.44-1.24-.26-.84-.49-1.69-.69-2.56a40.34,40.34,0,0,1-.74-4.51c-1-8.55-1.65-17.13-2.74-25.67q-1.71-13.57-4-27.06c-2.73-15.93-5.82-32-11.42-47.19-5.3-14.39-12.71-29.33-25.44-38.54-5.89-4.26-13.3-6.75-20.6-5.88-8,1-15.1,5.09-20.59,10.83s-9.42,13-12.93,20.25c-3.66,7.54-7.58,15.31-8.91,23.67a35.7,35.7,0,0,0,.28,13.47,5,5,0,1,0,9.64-2.66c-3.41-15.72-7-31.69-14.74-46a73.43,73.43,0,0,0-14.77-19.2A115.77,115.77,0,0,0,669,518.51c-4-2.31-8.07-4.56-12.18-6.7-4.78-2.49-9.83-4.58-15.31-4.47-4.24.08-6.72,5.46-3.54,8.53a20.44,20.44,0,0,0,13.21,5.71,5.05,5.05,0,0,0,5-5c0-3-2.31-4.7-5-5l-6.58-.74c-4.85-.54-6.94,7.32-2.52,9.32l12.19,5.53c2.46,1.11,5.38.7,6.84-1.8,1.26-2.14.68-5.72-1.79-6.84l-12.2-5.52-2.52,9.31,6.58.74v-10c-.2,0-.83-.05-.28,0-.36-.05-.72-.13-1.06-.21a17.65,17.65,0,0,1-2-.61,11.2,11.2,0,0,1-2.84-2l-3.53,8.54a13,13,0,0,1,5,.76,31.35,31.35,0,0,1,5.3,2.34c3.51,1.83,7,3.75,10.43,5.7,6.8,3.85,13.53,8,19.15,12.94,11.25,9.86,17.63,22.7,22,36.77,2.55,8.26,4.42,16.7,6.25,25.13l9.64-2.66c-1.56-7.07.93-14.84,4-21.67,3.22-7.23,6.63-14.63,11.12-21.16a39.65,39.65,0,0,1,7.07-7.77c1.28-1.08-.66.43.7-.54l.88-.62c.75-.5,1.51-1,2.29-1.41a16.74,16.74,0,0,1,4.19-1.79c.85-.25,1.71-.44,2.58-.61,1.63-.33-.46,0,.51-.08.44,0,.89-.07,1.33-.08.84,0,1.67,0,2.52.06.14,0,1,.1.14,0,.49.06,1,.16,1.46.26a20.6,20.6,0,0,1,8.28,3.65c.42.28.83.58,1.24.88.07.05.74.57.2.14.67.54,1.32,1.1,2,1.67a51,51,0,0,1,3.65,3.7,37.47,37.47,0,0,1,2.8,3.48c1,1.41,2,2.87,2.89,4.36a109.48,109.48,0,0,1,9.75,20.73c5.43,15.33,8.45,31.46,11.14,47.46q2.13,12.71,3.69,25.4c1,8.54,1.57,17.15,2.74,25.67,1,7.32,3.63,15,10.26,19,5.79,3.53,14.42,3.93,19.3-1.41,3-3.28,3.75-7.45,4.45-11.67s1.38-8.66,2-13c1.25-8.91,2.3-17.85,3.09-26.82a512.46,512.46,0,0,0,2-52.57c-.24-17.29-2.31-34.86,0-52.09,1.07-8.08,3.51-16.31,6.11-24.17,2.76-8.34,5.66-16.63,8.5-24.94l4.31-12.59a5,5,0,0,0-9.14-3.85,55.14,55.14,0,0,0-7.48,20.61c-.39,2.66.66,5.37,3.49,6.15a5.08,5.08,0,0,0,6.15-3.5l10.28-35.81c3.32-11.56,7.19-23.23,7.65-35.35.76-19.86-8.19-38.68-21.1-53.33a107.54,107.54,0,0,0-25.48-21c-5-3-9.89,3.76-6.06,7.85L846,384.36c4,4.25,10.49-1.16,7.85-6.06-6.67-12.38-19.69-20.6-33.3-23.3-16.26-3.23-33.56-.05-48.8,6a72.6,72.6,0,0,0-22.4,13.55h7.07A82.51,82.51,0,0,0,712,354.36,72.71,72.71,0,0,0,667,363.23c-12.94,7.37-23.86,18.85-29.77,32.58-7.3,17-7,35.61-5.81,53.69,1.49,21.72,3.17,43.44,4.75,65.15a5.12,5.12,0,0,0,5,5c2.56,0,5.2-2.29,5-5Z" transform="translate(-247.54 -301.55)"/><path class="cls-4" d="M677.11,537.47c-5-4.42-13.55-.61-16.26,5.47s-1.38,13.12,0,19.64a35.93,35.93,0,0,0-27.67,18.62c-.86,1.62-1.68,3.42-3.28,4.33-1.86,1.05-4.17.59-6.28.23-20.13-3.36-41.81,8.41-50,27.12-1.66,3.82-4.48,8.77-8.44,7.52-2.55-.8-3.52-3.77-4.9-6.06-5.16-8.59-17.41-8.55-27.38-7.46-13.85,1.52-30.22,4.83-35.56,17.69-1.27,3.06-3.18,7.3-6.35,6.34-1.34-.41-2.19-1.7-3-2.86-12.83-18.82-43.32-22-59.76-6.23a66.58,66.58,0,0,0-25-18.39,45.36,45.36,0,0,0-40.42,16.17l-9.46,58.07c-1.2,7.35-2.13,15.74,2.67,21.42,2.55,3,6.57,5,7.67,8.84.64,2.22.1,4.6-.49,6.84-3.87,14.65-9.72,31.35-1.26,43.93a30.85,30.85,0,0,0,10.89,9.42c16.85,9.3,39.39,6.93,53.94-5.68,12.9,19.61,39.52,26.21,62.68,22.35a54.66,54.66,0,0,1,9.6-1.19c4.6.06,9,1.6,13.35,3.19,12.82,4.74,27.08,10.17,39.66,4.85,6.34-2.68,11.27-7.77,16.53-12.2a19.57,19.57,0,0,1,5.11-3.36c3.4-1.34,7.21-.86,10.83-.4,17,2.15,36.55,2.32,48.69-9.83,8.14-8.15,11-20,13.48-31.28,5.3,4.47,13.5,1.37,19-2.89a56.76,56.76,0,0,0,21.45-40.89c.1-1.63.21-3.46,1.42-4.56s3-1,4.62-1.14c9.65-.61,17.3-9.19,20-18.48s1.49-19.2.27-28.8c-4.58-36-10.28-74.57-34.88-101.3" transform="translate(-247.54 -301.55)"/><path class="cls-4" d="M678.88,535.7c-5.59-4.67-13.67-2.49-18.1,2.77-5.8,6.89-4,16.71-2.35,24.78l2.41-3.17a38.72,38.72,0,0,0-26.25,14.43,45.65,45.65,0,0,0-4.17,6.55,5.33,5.33,0,0,1-1.79,2.31c-1.19.64-2.81.24-4.07,0a48.44,48.44,0,0,0-14.77-.19,51.28,51.28,0,0,0-26.38,12.31,47.59,47.59,0,0,0-9.35,11.14c-1.22,2-2.14,4.14-3.17,6.26-.79,1.66-1.95,4.29-3.8,5s-2.9-1.7-3.57-3a19.7,19.7,0,0,0-4.06-5.59c-3.44-3.09-7.87-4.54-12.38-5.14a58.76,58.76,0,0,0-14.15.12,110.51,110.51,0,0,0-14.12,2.31c-8.73,2.12-17.81,6.17-22.45,14.3-1.13,2-1.75,4.17-3,6.07-.28.44-.85,1.49-1.44,1.5-.78,0-1.38-1.23-1.75-1.77A39.17,39.17,0,0,0,481,617.4c-14-10.21-34.94-11.14-49.43-1.41a39.73,39.73,0,0,0-5.08,4.07h3.54A68.66,68.66,0,0,0,406.19,602c-4.28-1.93-9.47-1.62-14.07-1a49.35,49.35,0,0,0-13.62,3.77,47.58,47.58,0,0,0-11.85,7.44,43.36,43.36,0,0,0-5,5c-1.81,2.15-1.76,5.39-2.2,8.11l-5.89,36.12c-.95,5.82-2,11.64-2.84,17.48-.7,4.71-1.17,9.53-.16,14.23s3.73,7.92,7.22,11c1.47,1.3,3.21,2.73,3.65,4.75.53,2.44-.54,5.14-1.17,7.47-2.6,9.6-5.79,19.65-5,29.73a29.16,29.16,0,0,0,4.4,13.62,32.54,32.54,0,0,0,10.94,10c15.85,9.3,36.91,8.57,52.35-1.29a51.22,51.22,0,0,0,5.63-4.21l-3.93-.51c8.72,13.09,23.19,20.81,38.46,23.46a79.4,79.4,0,0,0,23.34.58c4.84-.61,9.69-2,14.6-1.53s9.3,2.48,13.76,4.11c9,3.32,18.73,6.69,28.52,5.91a31.09,31.09,0,0,0,13.27-4.06,73,73,0,0,0,11-8.57,43.07,43.07,0,0,1,5.2-4.23,11.41,11.41,0,0,1,6.56-1.66c4.43.08,8.87,1,13.3,1.29,8.15.59,16.51.45,24.47-1.59a37.65,37.65,0,0,0,22.16-15c5.49-8,7.74-17.79,9.83-27.13l-4.18,1.1c6.78,5.4,15.76,2.26,22-2.5a58,58,0,0,0,15.58-18.32,59.5,59.5,0,0,0,7-23.33c.11-1.21-.2-3.63,1-4.31a7,7,0,0,1,2.59-.29,24.62,24.62,0,0,0,3.2-.44,22.8,22.8,0,0,0,10-5.23c14.41-12.42,11-33.14,8.8-49.79-2.15-16.43-4.61-32.9-9.21-48.85-5.13-17.77-13.1-34.79-25.67-48.54-2.18-2.38-5.71,1.17-3.54,3.54,21.41,23.41,28.07,55.8,32.38,86.24,1.18,8.32,2.5,16.71,3,25.1s-.25,16.93-5,24a22,22,0,0,1-7.5,7,16.34,16.34,0,0,1-4.58,1.71c-1.82.39-3.72.18-5.53.66-4.31,1.15-4.66,5.16-4.95,8.92A52.1,52.1,0,0,1,682.44,703a54.45,54.45,0,0,1-12.87,21.83,36.08,36.08,0,0,1-10,7.72c-3.29,1.6-7.87,2.74-11,.22-1.36-1.08-3.73-.91-4.18,1.11-1.79,8.06-3.64,16.36-7.83,23.58a31.52,31.52,0,0,1-17.14,14c-7.48,2.58-15.5,3-23.35,2.66-3.94-.18-7.85-.57-11.76-1.06-4.61-.57-9.24-.81-13.42,1.59-3.85,2.23-7,5.69-10.42,8.54s-7.08,5.49-11.35,6.83c-8.84,2.77-18.23.41-26.74-2.42-9.26-3.08-18-7.59-28-6.2-4,.55-7.91,1.37-11.94,1.66a78.73,78.73,0,0,1-11.39,0c-16.18-1.21-32.74-8.07-42-22a2.56,2.56,0,0,0-3.93-.51c-12.81,11-32.13,13.74-47.56,7-8.27-3.64-15.09-9.71-16.86-18.89s1.09-18.8,3.48-27.58c1.21-4.45,3.46-9.76,1.89-14.36-1.39-4-5.13-6.08-7.83-9.1-2.85-3.19-3.36-7.63-3.21-11.73a112.25,112.25,0,0,1,1.89-14l5.54-34,1.33-8.15.63-3.89a35.62,35.62,0,0,1,.81-5l-.18,0c.23-.28.47-.56.71-.83s.73-.82,1.1-1.22q.94-1,1.95-1.92a39.57,39.57,0,0,1,5.52-4.31,43.28,43.28,0,0,1,27.39-6.91,7.85,7.85,0,0,1,3.07,1c1.07.51,2.12,1,3.16,1.61a66.65,66.65,0,0,1,7,4.38,65,65,0,0,1,11.61,10.8,2.54,2.54,0,0,0,3.54,0c12.29-11.63,32.44-12.12,46.41-3.26a32.37,32.37,0,0,1,9,8.42c1.48,2.08,2.88,4.3,5.6,4.71a6,6,0,0,0,5.58-2.44,25,25,0,0,0,3.15-5.84,18.84,18.84,0,0,1,3.61-5.34,28,28,0,0,1,10.78-6.56,80.49,80.49,0,0,1,27.36-4.4c4.33,0,8.94.54,12.71,2.85a11.79,11.79,0,0,1,4.11,4.28c1.13,2,2,4.1,3.84,5.55,4.31,3.44,9,.43,11.53-3.49,1.32-2,2.14-4.31,3.25-6.45a41.57,41.57,0,0,1,3.78-6A45.88,45.88,0,0,1,603.7,589.7a43.6,43.6,0,0,1,13.84-2c4.88.1,11.09,2.72,15.09-1.15,1.76-1.7,2.62-4.13,3.9-6.17a32.06,32.06,0,0,1,4.59-5.73,33.64,33.64,0,0,1,12.59-7.92,32.82,32.82,0,0,1,7.13-1.65,2.54,2.54,0,0,0,2.41-3.16c-1.26-6-3-13.76.64-19.31,2.21-3.33,7.84-6.39,11.46-3.38,2.45,2,6-1.47,3.53-3.53Z" transform="translate(-247.54 -301.55)"/><path class="cls-4" d="M364.07,619.42c-1.82-6.1-3.87-12.26-7.64-17.39s-9.59-9.13-15.95-9.21c-6.88-.09-13,4.24-18.24,8.67a30.17,30.17,0,0,0-6.64,7c-2.11,3.44-2.88,7.52-3.61,11.49L305.59,655c-.57,3.07-1.13,6.26-.38,9.29,1,4,4.1,7.64,3.11,11.58-.54,2.09-2.16,3.71-3.22,5.59-3,5.27-1.38,11.79-.52,17.78,1.08,7.53.84,15.21,1.81,22.75s3.35,15.27,8.74,20.64c3.51,3.51,8.08,5.79,12.76,7.44,4.9,1.72,10.36,2.81,15.22,1,6.77-2.52,10.37-9.73,13.34-16.31,2.15-4.77,4.31-9.6,5.17-14.76s.28-10.77-2.71-15.06c-1.12-1.6-2.54-3-3.58-4.62-2.41-3.77-2.61-8.51-2.43-13,1-23,10.23-45.18,9.5-68.15" transform="translate(-247.54 -301.55)"/><path class="cls-4" d="M366.49,618.75c-3.44-11.44-8.95-25-22-27.93-6.21-1.43-12.32.59-17.53,4a69.52,69.52,0,0,0-7.49,5.75,28.55,28.55,0,0,0-6.28,7.1,30,30,0,0,0-3.15,9.15c-.7,3.43-1.28,6.88-1.91,10.33l-3.92,21.35c-.65,3.54-1.46,7.09-1.8,10.68a19.09,19.09,0,0,0,1.85,9.75c1,2.19,2.42,4.77,1.29,7.16a43.75,43.75,0,0,1-2.44,3.75,15.35,15.35,0,0,0-1.76,4.32c-1.46,6.26.57,12.69,1.15,18.93.66,7.05.58,14.14,1.67,21.15.92,5.9,2.78,11.9,6.32,16.77,3.77,5.18,9.06,8.5,15,10.81,6.2,2.43,13.23,3.92,19.56,1.13,5-2.22,8.49-6.91,11-11.64,1.36-2.54,2.53-5.19,3.69-7.83a68.25,68.25,0,0,0,3.61-9.68c1.61-6.06,1.7-12.75-1.25-18.42-1.41-2.72-3.84-4.71-5.23-7.42s-1.53-5.66-1.52-8.52a115.59,115.59,0,0,1,2.17-19.8c2.43-13.43,6-26.68,7.11-40.33a92.55,92.55,0,0,0,.27-10.13c-.09-3.21-5.09-3.22-5,0,.38,12.94-2.4,25.6-5,38.19-1.34,6.43-2.63,12.87-3.5,19.38-.82,6.13-1.67,12.68-.5,18.82a18.41,18.41,0,0,0,3.92,8.19c1.74,2.16,3.29,4.16,4,6.88,1.57,5.66.09,11.53-2,16.86a76.13,76.13,0,0,1-7.19,14.77c-2.86,4.27-6.86,7.24-12.17,7.22a27.59,27.59,0,0,1-8.95-1.84,38.15,38.15,0,0,1-7.64-3.62,24.19,24.19,0,0,1-9.75-12.51c-2.06-5.72-2.63-11.74-3-17.76-.19-3.4-.32-6.8-.62-10.19-.27-3.14-.79-6.24-1.25-9.36a25,25,0,0,1-.24-8.13,10.9,10.9,0,0,1,1.28-3.54c.75-1.29,1.74-2.43,2.44-3.75a10.25,10.25,0,0,0,.47-8.46c-.93-2.62-2.55-5.08-2.86-7.88-.36-3.23.54-6.56,1.12-9.71l1.87-10.19,3.74-20.38a60.81,60.81,0,0,1,2.06-9,18.09,18.09,0,0,1,4.64-7c3.93-3.83,8.71-7.83,13.94-9.71a15.43,15.43,0,0,1,14.51,2.06c4.48,3.11,7.44,8,9.45,13,1.14,2.82,2.05,5.74,2.92,8.65.93,3.08,5.75,1.77,4.83-1.33Z" transform="translate(-247.54 -301.55)"/></g><g id="Слой_2" data-name="Слой 2"><path class="cls-2" d="M308.31,620.79c-11.85-9.56-24.49-19.55-31.46-33.45a41.78,41.78,0,0,1-4.6-20.38,28.65,28.65,0,0,1,2.09-9.84,29.52,29.52,0,0,1,2-3.84c.36-.58.74-1.16,1.14-1.72a9,9,0,0,1,1.08-1.39,34,34,0,0,1,3-3,19.1,19.1,0,0,1,3.1-2.44c1.11-.75,2.25-1.44,3.43-2.08.67-.36,1.35-.71,2-1,.21-.1,1.94-.89,1.38-.65a73.54,73.54,0,0,1,18.3-4.71c.9-.13-.6.07.3-.05l1.37-.16c.72-.09,1.45-.17,2.18-.24,1.64-.16,3.28-.3,4.92-.41,3.23-.22,6.47-.34,9.71-.42,8.91-.2,17.82-.34,26.73-.51l54.86-1c17.85-.34,35.78-.28,53.59-1.71a211.32,211.32,0,0,0,26.5-3.66,254.15,254.15,0,0,0,25-7.11c15.15-4.86,30.41-8.29,46.26-9.2a175,175,0,0,1,88.37,18q5.16,2.59,10.12,5.52c5.56,3.28,10.59-5.37,5-8.63A184.66,184.66,0,0,0,572,501.4a180.79,180.79,0,0,0-47.87,6.25c-8.53,2.32-16.85,5.34-25.34,7.8a162.17,162.17,0,0,1-26.09,5.29c-18.15,2.16-36.49,2.13-54.73,2.48l-56.8,1.08-28,.54c-6.9.13-13.8.29-20.67,1-13.36,1.45-27.14,4.66-37.53,13.69-11.89,10.34-15,26.7-11.12,41.52,4.19,16.07,15.72,28.59,28,39.11,3.07,2.61,6.2,5.14,9.33,7.67,2.1,1.7,5,2,7.07,0,1.76-1.75,2.12-5.36,0-7.07Z" transform="translate(-247.54 -301.55)"/><path class="cls-2" d="M351.71,678.09c-.93.24-1.86.46-2.8.65l-1.8.33a6.73,6.73,0,0,0-.9.13s1.12-.13.55-.07l-.65.08a45.79,45.79,0,0,1-9.58.06c-.4,0-1.26-.16-.36,0l-1.3-.2c-1-.17-1.91-.37-2.86-.61a40.91,40.91,0,0,1-5.3-1.71l-.37-.15c-.61-.22,1.19.52.84.36a3.92,3.92,0,0,0-.36-.16c-.6-.26-1.19-.53-1.78-.82q-2.51-1.2-4.88-2.64c-.93-.56-1.85-1.16-2.74-1.78-.44-.31-.86-.68-1.32-1-.05,0,.88.7.47.36l-.33-.26c-.29-.24-.58-.47-.86-.72a30.66,30.66,0,0,1-2.55-2.42c-.38-.41-.75-.84-1.11-1.26-.63-.74.26.38.09.13s-.38-.53-.56-.8c-.33-.49-.65-1-.93-1.53-.14-.24-.26-.49-.38-.73l-.18-.38c-.3-.61.16.29.18.44a15.84,15.84,0,0,0-.52-1.56c-.07-.26-.14-.53-.19-.8s-.23-1.33-.1-.43,0-.54,0-.85c0-.47,0-1,0-1.43s0-1,.1-1.43c0-.24.05-.48.07-.72.07-.81-.13.71,0-.09.37-2,.72-4,1.11-6q1.2-6.18,2.41-12.36c.73-3.73,1.47-7.45,2.39-11.14.47-1.87,1-3.73,1.58-5.56.27-.85.56-1.69.86-2.52.15-.42.31-.84.47-1.25l.24-.62c0-.09.39-.94.17-.42s.07-.17.1-.22l.27-.61q.27-.6.57-1.2c.34-.7.69-1.4,1.07-2.08s.72-1.26,1.1-1.88q.78-1.28,1.65-2.49c.3-.42.64-.83.93-1.26,0,0-.71.89-.37.47.09-.1.17-.21.26-.32l.63-.77c.8-.94,1.64-1.86,2.52-2.72.48-.47,1-.92,1.48-1.36.24-.21.48-.4.73-.6.86-.72-.57.38.11-.09A28.18,28.18,0,0,1,333,599l1-.48s-1,.36-.45.2l.46-.17a18.36,18.36,0,0,1,2-.61c.32-.08.65-.15,1-.2a4.21,4.21,0,0,0,.49-.09s-1,.1-.49.08,1.3-.09,2-.09,1.26.08,1.89.13-.63-.1-.6-.08a1.93,1.93,0,0,0,.43.07l1,.21c.58.14,1.16.3,1.73.49.29.09.58.2.87.3l.42.17c.61.2-.91-.43-.33-.15a38.72,38.72,0,0,1,3.63,2c.56.36,1.09.75,1.63,1.14l-.35-.26a2,2,0,0,0,.39.32c.31.25.62.51.92.78a35.61,35.61,0,0,1,3.22,3.28l.7.84.35.43c.37.45-.21-.28-.21-.28.39.09,1.18,1.65,1.41,2a45.59,45.59,0,0,1,2.55,4.39c.36.72.68,1.46,1,2.19.25.51-.08-.21-.1-.26.08.19.16.38.23.57.18.45.35.91.52,1.36.91,2.45,3.43,4.37,6.15,3.49,2.4-.77,4.47-3.52,3.5-6.15-4.81-13-15.29-26-30.13-26.93-12.2-.75-22.11,9.06-27.7,18.92-3.81,6.69-6,14.2-7.62,21.69-.9,4.17-1.68,8.37-2.5,12.56s-1.83,8.67-2.47,13c-.57,4-.8,8.09.63,11.9a26.19,26.19,0,0,0,4.9,8.07,44,44,0,0,0,12.28,9.38A51.47,51.47,0,0,0,329.13,688a50.42,50.42,0,0,0,22.17.41c1-.2,2.05-.43,3.07-.7a5,5,0,1,0-2.66-9.64Z" transform="translate(-247.54 -301.55)"/><path class="cls-2" d="M433.07,622.83a60.14,60.14,0,0,0-14.45-18.36c-6.4-5.45-14.09-10.27-22.56-11.41-16.49-2.22-30.27,10.27-36.91,24.29-7.25,15.29-8.25,32.4-9.68,49l-1.19,13.79c-.39,4.48-1.3,9.28-.17,13.72,1.17,4.6,4.72,7.75,8.46,10.36a58.43,58.43,0,0,0,9.67,5.49,68.49,68.49,0,0,0,46.05,3.82q2.68-.74,5.29-1.73c2.44-.92,4.38-3.42,3.49-6.15-.77-2.38-3.53-4.49-6.15-3.49A60.24,60.24,0,0,1,404.79,705c-.78.15-1.57.28-2.35.4-.19,0-.4.07-.59.08,0,0,.93-.11.34,0l-1.58.17c-1.72.17-3.44.26-5.16.28s-3.45,0-5.17-.14c-.86-.06-1.72-.14-2.58-.23a6.78,6.78,0,0,1-1.19-.14s.93.14.35,0c-.33,0-.66-.09-1-.15a62.07,62.07,0,0,1-10-2.46c-.81-.27-1.63-.56-2.43-.87l-1.11-.43c-.18-.08-.38-.14-.55-.23.35.19.61.27.09,0-1.57-.7-3.12-1.45-4.64-2.28s-3.1-1.78-4.59-2.77c-.66-.44-1.29-.91-1.94-1.36-.46-.33.2.15.24.18l-.61-.5c-.34-.29-.68-.6-1-.92s-.52-.58-.79-.85.18.24.19.26a3.06,3.06,0,0,1-.42-.64c-.1-.16-.17-.35-.28-.5-.33-.46.08.29.1.32a5.4,5.4,0,0,1-.43-1.5c-.19-.52,0,.12,0,.24,0-.3-.05-.6-.06-.89,0-.45,0-.9,0-1.35,0-1,.11-2,.2-3q.56-6.52,1.12-13.06c.69-8,1.27-16,2.21-24,.06-.42.11-.85.16-1.28,0-.26.23-1.72.07-.58.13-.93.26-1.85.4-2.76.29-1.84.61-3.66,1-5.48a84.46,84.46,0,0,1,2.89-10.84c.27-.8.56-1.59.86-2.38l.54-1.37c.22-.53-.07.17-.09.23.11-.26.22-.51.34-.77.74-1.67,1.57-3.3,2.47-4.89a46,46,0,0,1,2.93-4.53,2.61,2.61,0,0,1,.34-.46s-.56.69-.19.25l.73-.89c.58-.69,1.18-1.35,1.8-2a46.82,46.82,0,0,1,3.68-3.36c.44-.37-.24.17-.26.19a2.61,2.61,0,0,1,.46-.34l1.09-.76c.68-.45,1.38-.88,2.09-1.28s1.44-.76,2.17-1.11-.72.26.18-.08c.46-.18.93-.35,1.4-.51.7-.23,1.41-.43,2.14-.6l1.08-.23a3.48,3.48,0,0,1,.73-.12c-.29,0-.9.09-.22,0a24.06,24.06,0,0,1,5.09,0c-.9-.11,0,0,.37.1s1,.21,1.48.33c.9.24,1.8.52,2.68.84l.81.3c.07,0,.73.31.21.08s.13.07.2.1l.59.27c.92.43,1.82.9,2.71,1.4,1.56.89,3.08,1.86,4.55,2.89l1,.71.49.37c-.05,0-.66-.52-.22-.17.74.6,1.47,1.19,2.18,1.81q2,1.72,3.8,3.63c1.26,1.32,2.43,2.7,3.57,4.13-.54-.68,0,0,.2.27l.7,1c.55.77,1.07,1.55,1.58,2.35.93,1.48,1.79,3,2.59,4.57a5,5,0,0,0,6.84,1.79,5.11,5.11,0,0,0,1.79-6.84Z" transform="translate(-247.54 -301.55)"/><path class="cls-2" d="M496.39,637.65c-3.75-15.46-16.14-28.29-31.3-32.95-8.82-2.71-19-2.65-26.93,2.62-7,4.68-11.53,12-14.28,19.86-3.09,8.83-3.5,18.4-4.66,27.61-.1.81.12-.74,0,.07,0,.23-.06.46-.1.7-.09.62-.18,1.23-.28,1.85q-.3,1.86-.69,3.69c-.47,2.24-1.07,4.45-1.75,6.63-1.37,4.39-3,8.69-4.24,13.13A41.29,41.29,0,0,0,410.41,695a30.37,30.37,0,0,0,3.82,12.65,38.16,38.16,0,0,0,18.06,15.74c9,3.87,18.85,4.87,28.6,4.67A93.08,93.08,0,0,0,474,727a24.77,24.77,0,0,0,10.68-4.14,19.08,19.08,0,0,0,4.76-5,5,5,0,0,0-1.79-6.84,5.12,5.12,0,0,0-6.84,1.79,4.53,4.53,0,0,0-.39.58s.63-.73.26-.34-.51.6-.79.87-.58.53-.87.79.35-.3.35-.27-.6.4-.7.47a20,20,0,0,1-1.93,1.05c-.79.38.86-.32-.25.09-.43.16-.88.3-1.32.44-.8.24-1.6.44-2.42.61l-1.23.23c-.39.07-1.8.12-.45.09-1.71,0-3.46.34-5.17.43a115.59,115.59,0,0,1-13,.07c-1.06-.06-2.12-.15-3.18-.25l-1.58-.18c.08,0,.79.12.2,0l-1.12-.17A52,52,0,0,1,441,716c-1-.29-2-.62-3-1-.4-.14-.79-.3-1.19-.45-.95-.37.17,0,.18.08a3.46,3.46,0,0,0-.67-.3,37.32,37.32,0,0,1-4.68-2.58c-.73-.47-1.43-1-2.12-1.48-.46-.33.26.21.28.22a4.32,4.32,0,0,1-.57-.47q-.57-.46-1.11-1c-.34-.31-3.46-3.74-3.51-3.72s.56.76.23.3l-.43-.59c-.25-.34-.49-.69-.71-1-.46-.71-.89-1.43-1.28-2.18-.19-.37-.37-.75-.55-1.13-.53-1.15.18.56-.13-.29s-.6-1.7-.83-2.58c-.1-.4-.2-.82-.28-1.23,0-.2-.25-1.52-.18-.93s0-.14,0-.22c0-.29-.06-.58-.07-.87,0-.58-.06-1.17-.06-1.75,0-.95.05-1.89.14-2.83,0-.35.23-1.63.06-.63.1-.57.19-1.15.3-1.73,1.65-8.46,5.48-16.31,7.15-24.78.92-4.66,1.44-9.4,2-14.12.11-1,.23-2,.34-3,.07-.55.13-1.1.2-1.64l.12-.93c0-.1.13-1.05.06-.5s0-.37.07-.5.07-.47.1-.7c.09-.54.17-1.09.26-1.63.19-1.15.41-2.31.65-3.46a53.48,53.48,0,0,1,1.37-5.26c.27-.82.55-1.64.86-2.44.07-.19.57-1.44.3-.78s0,0,0-.09l.38-.84a39.34,39.34,0,0,1,2.47-4.51c.46-.72,1-1.41,1.46-2.09.33-.46-.22.3-.23.3a6.4,6.4,0,0,0,.45-.56c.31-.37.63-.73,1-1.08.57-.6,1.16-1.19,1.78-1.74.26-.24.54-.46.81-.69.72-.61-.08.12-.18.13.14,0,.45-.33.57-.42a24,24,0,0,1,2.11-1.31q.54-.3,1.11-.57c.08,0,.44-.15.48-.22-.14.27-.9.35,0,0a22.18,22.18,0,0,1,2.67-.8c.51-.12,1-.2,1.54-.31.76-.16-.78.05,0,0l.89-.08a27.6,27.6,0,0,1,3.15-.05c.53,0,1.05.05,1.58.1l.67.07c.6,0-.72-.13.24,0a39.16,39.16,0,0,1,5.25,1.21c.8.24,1.59.52,2.37.81.18.07,1.42.58.73.29l.07,0,.81.37a41.75,41.75,0,0,1,4.4,2.41c.71.45,1.4.92,2.08,1.41a12.47,12.47,0,0,1,1,.74l.39.34a41.14,41.14,0,0,1,3.67,3.44c.58.61,1.13,1.23,1.67,1.87l.8,1c.35.43-.22-.29-.23-.3a5.57,5.57,0,0,1,.53.72,41.41,41.41,0,0,1,2.69,4.23c.41.73.79,1.48,1.15,2.23a4.41,4.41,0,0,0,.52,1.14s-.36-.89-.16-.37l.34.84a41.47,41.47,0,0,1,1.48,4.79,5,5,0,0,0,6.15,3.49,5.1,5.1,0,0,0,3.49-6.15Z" transform="translate(-247.54 -301.55)"/><path class="cls-2" d="M577.66,637.1a43.8,43.8,0,0,0-6.94-23.16A38.07,38.07,0,0,0,536,597.21a48.64,48.64,0,0,0-19,6.14,72.56,72.56,0,0,0-18,13.71,40.13,40.13,0,0,0-10.64,20.82c-1.47,8.43-1.94,17.09-2.77,25.6s-1.69,17.13-2.53,25.69q-.63,6.42-1.27,12.85a69.62,69.62,0,0,0-.62,11.72,22.94,22.94,0,0,0,3.72,11.65,29.89,29.89,0,0,0,8.57,7.93,66.44,66.44,0,0,0,10.38,5.07A87.34,87.34,0,0,0,514.74,742a92.79,92.79,0,0,0,23.69,3,91.56,91.56,0,0,0,11.7-.86,47.49,47.49,0,0,0,11.48-2.63A29.36,29.36,0,0,0,577,726.94a49.48,49.48,0,0,0,4.06-11.56c2.06-9.76,2.13-20,1.8-29.88a363.18,363.18,0,0,0-4.43-43.66q-1-6.14-2.06-12.24c-.46-2.58-3.74-4.28-6.15-3.5a5.14,5.14,0,0,0-3.49,6.15q1.08,6,2,12c.29,1.85.56,3.7.83,5.55.13.91.25,1.82.38,2.72a4,4,0,0,1,.06.47l.24,1.78c.86,6.77,1.57,13.55,2.05,20.36.75,10.56,1.12,21.27,0,31.81-.05.49-.11,1-.17,1.47,0,.24-.07.48-.09.72.11-1.66.11-.8,0-.4-.14,1-.29,1.9-.47,2.85a41.25,41.25,0,0,1-1.08,4.52c-.21.7-.45,1.38-.69,2.07-.15.42-.3.85-.46,1.27s-1,2.28-.26.73c-.52,1.07-1,2.15-1.56,3.19-.31.57-.64,1.13-1,1.67-.18.28-.37.56-.56.83s-.83,1.55-.24.37a12.5,12.5,0,0,1-3,3.15,3.42,3.42,0,0,1-.58.49c1-.5,0,0-.23.16a19.76,19.76,0,0,1-2.5,1.51c-.38.2-.77.38-1.17.56,1-.46-.27.08-.41.13-.82.3-1.65.55-2.49.77a52.65,52.65,0,0,1-5.56,1.13l-1.32.2c1.19-.17-.27,0-.42,0-.88.11-1.76.2-2.65.27-1.91.17-3.83.28-5.75.31a85.42,85.42,0,0,1-10.61-.43l-1.32-.14c-.16,0-1.62-.22-.43,0-.88-.12-1.76-.26-2.63-.41q-2.84-.48-5.64-1.14a86.73,86.73,0,0,1-10.58-3.25l-2.47-1c1,.42-.32-.15-.43-.2l-1.22-.54c-1.44-.67-2.87-1.37-4.26-2.15a30.5,30.5,0,0,1-3.91-2.55c1,.78,0-.06-.18-.19s-.58-.5-.85-.77a9.56,9.56,0,0,1-1.81-1.95c.61,1.08,0,0-.11-.2s-.42-.64-.61-1-.35-.68-.53-1c-.58-1.08.24.93-.15-.36-.24-.83-.51-1.64-.67-2.49,0-.18-.22-1.6-.09-.38-.06-.58-.11-1.16-.14-1.74a77.89,77.89,0,0,1,.69-11.31q1.18-12.1,2.38-24.21t2.38-24.2c.2-2,.39-4,.59-5.93.09-.92.18-1.83.28-2.75l.15-1.37c0-.31.07-.61.11-.92-.08.57-.08.56,0,0a52.18,52.18,0,0,1,1.05-5.41c.23-.88.49-1.76.79-2.63.15-.43.31-.86.48-1.28-.44,1.16.21-.46.31-.67a32,32,0,0,1,2.2-3.86c.44-.68.91-1.33,1.4-2-.72,1,.12-.12.23-.26.35-.42.7-.83,1.06-1.23a60.91,60.91,0,0,1,7.5-6.95c1.07-.85-.82.6.28-.21l1-.77c.7-.52,1.4-1,2.11-1.5,1.55-1.06,3.13-2.06,4.76-3,1.44-.82,2.9-1.58,4.4-2.28l1-.44c1.3-.58-.94.34.39-.16.94-.35,1.87-.71,2.83-1a42.32,42.32,0,0,1,5-1.29l1.09-.19c.77-.13-1.48.17-.66.09l.77-.08a35,35,0,0,1,6.79,0,3.54,3.54,0,0,1,1,.12l-.64-.09.69.11c.72.13,1.43.27,2.14.44a41.08,41.08,0,0,1,4.5,1.39c1.29.46-.91-.46.35.14l1.16.55c.79.4,1.56.83,2.32,1.29s1.44.94,2.16,1.43c1,.71-.8-.68.17.12l1.11.94a29.54,29.54,0,0,1,2.94,3l.65.78c.76.89-.64-.9,0,0,.44.62.88,1.23,1.29,1.87a35,35,0,0,1,1.84,3.27c.27.53.51,1.08.76,1.62.34.76-.14-.31-.16-.38a10.78,10.78,0,0,0,.42,1.07,41.48,41.48,0,0,1,1.79,6.2c.17.84.31,1.68.44,2.53.18,1.17-.17-1.45,0-.05.05.38.08.75.12,1.12.06.78.11,1.55.11,2.33a5,5,0,0,0,10,0Z" transform="translate(-247.54 -301.55)"/><path class="cls-2" d="M577.3,711.79c16.25,9.7,37.24,10.92,54.68,3.71,9.39-3.88,18.08-9.87,24-18.28a28.8,28.8,0,0,0,5.17-16.14c.08-6.14-1.56-12.2-3-18.12l-8.58-35.38c-2.43-10.06-4.45-20.34-8.51-29.9-3.78-8.9-10-16.89-19.32-20.35-9.67-3.6-20.67-.41-29.41,4.2a51.46,51.46,0,0,0-20.47,19,52.58,52.58,0,0,0-6.73,18.78c-.16,1.11-.31,2.22-.43,3.33-.27,2.61,2.5,5.12,5,5,2.94-.13,4.71-2.2,5-5,0-.28.07-.57.1-.85.11-1-.2,1.34-.09.62,0-.22.07-.45.1-.67.17-1.09.38-2.17.62-3.25.32-1.38.69-2.75,1.11-4.1.24-.75.49-1.49.76-2.22l.42-1.08c.07-.19.15-.37.22-.55.4-1-.49,1.08,0,.07a51,51,0,0,1,2.5-4.88c.49-.85,1-1.68,1.57-2.48.3-.45.61-.88.92-1.32a6.87,6.87,0,0,0,.44-.58c.06.1-.66.84,0,0A42.15,42.15,0,0,1,588,596.5c.4-.36.81-.71,1.23-1.06l.64-.52c.64-.53-.21.18-.29.22a22.37,22.37,0,0,0,2.34-1.69,56.06,56.06,0,0,1,5.46-3.29c.88-.46,1.77-.91,2.68-1.32l.69-.31c.89-.4-.07,0-.14.06a5.64,5.64,0,0,1,1.78-.69,37.66,37.66,0,0,1,6.44-1.77l.74-.13c.78-.15-1.25.11,0,0,.5,0,1-.1,1.5-.13a25.12,25.12,0,0,1,3.36,0l.74.06c1,.09-.15,0-.23,0a5.64,5.64,0,0,0,1.46.27,12.4,12.4,0,0,1,3.22,1l.7.39c.43.23.84.47,1.25.72s.89.57,1.32.87a3.38,3.38,0,0,0,.57.41l-.46-.35.54.44a18.78,18.78,0,0,1,4.07,4.23c-.66-1.11,0,.09.26.39s.59.87.88,1.31c.57.89,1.1,1.81,1.6,2.75s.93,1.81,1.36,2.73a12.15,12.15,0,0,0,.58,1.33c-.53-.85-.21-.5-.08-.19l.4,1c.75,1.95,1.41,3.92,2,5.92,1.35,4.49,2.41,9.07,3.51,13.63q4.06,16.74,8.11,33.46c1.32,5.46,2.76,10.9,3.93,16.4.29,1.38.56,2.78.75,4.19-.14-1,.08.78.1,1,.06.77.11,1.55.12,2.33a25.4,25.4,0,0,1-.17,3.7c.12-.93,0-.12,0,0s-.12.61-.19.92c-.15.67-.34,1.34-.55,2s-.36,1-.56,1.5c.48-1.17-.31.57-.42.79a29.92,29.92,0,0,1-1.87,3.07c-.16.22-.32.43-.47.66-.45.66.75-.9-.08.1-.35.41-.69.83-1,1.24-.8.91-1.65,1.78-2.52,2.61s-1.53,1.41-2.33,2.08l-.57.46s-1,.8-.35.3-.09.06-.23.16l-.73.55a53.63,53.63,0,0,1-5.57,3.5c-.86.47-1.73.91-2.61,1.34l-1.33.61a6.76,6.76,0,0,1-.67.29c1.21-.39.13-.05-.15.06a54.93,54.93,0,0,1-6.08,2,58.38,58.38,0,0,1-6.27,1.37c-.4.06-1.81.11-.49.08-.48,0-1,.12-1.45.17-1.1.12-2.2.2-3.3.25a57.29,57.29,0,0,1-6.42,0c-1-.06-2.07-.15-3.1-.27a4.41,4.41,0,0,1-.73-.09c1.13.28.54.08.24,0-.6-.09-1.21-.18-1.81-.29a57.42,57.42,0,0,1-6.22-1.49c-1-.3-2-.63-2.95-1-.46-.16-.92-.34-1.37-.52a3.31,3.31,0,0,0-.68-.27l.36.15-.51-.23a51.54,51.54,0,0,1-5.52-2.87,5,5,0,0,0-5.05,8.63Z" transform="translate(-247.54 -301.55)"/><path class="cls-2" d="M634.41,589.61c.51-1.25-.45.94.12-.28.16-.36.32-.72.49-1.08.29-.6.59-1.19.89-1.78q1.11-2.1,2.42-4.08c.37-.55.74-1.09,1.13-1.62.23-.32.46-.63.7-.94-.74,1,.06-.07.19-.22a44.75,44.75,0,0,1,3.13-3.47c1-1,2-1.87,3-2.74l.75-.61c1-.82-.85.6.21-.15.62-.45,1.24-.9,1.88-1.32a27.24,27.24,0,0,1,4-2.27c-1,.44.33-.09.46-.13.35-.11.72-.16,1.06-.27.67-.21-1.05-.09.17,0a8,8,0,0,1,.85,0c-.59-.08-.62-.07-.11,0,.34.13,1.35.17.16,0a2.58,2.58,0,0,1,.64.33c.22.12.8.36.93.58l-.42-.33c.2.16.4.32.59.5A16.94,16.94,0,0,1,659,571.1l.58.68.39.47c-.43-.57-.54-.7-.31-.4a67.76,67.76,0,0,1,4,6.35c1.25,2.3,2.39,4.67,3.44,7.06.22.49.43,1,.64,1.47.44,1-.44-1.08,0-.06l.29.68c.39,1,.77,1.92,1.14,2.89a153.38,153.38,0,0,1,6.08,20.31c.56,2.45,1.06,4.91,1.48,7.38.11.69.22,1.37.32,2.05,0,.11.22,1.23.06.36s0,.25,0,.36c.17,1.34.3,2.69.39,4a45.12,45.12,0,0,1,0,7.26c0,.48-.43,2,0,.4-.12.44-.15.92-.25,1.37-.27,1.34-.79,2.61-1.1,3.94,0,.21,0,.46.14-.31a6.29,6.29,0,0,1-.6,1.29c-.39.78-.8,1.54-1.24,2.29a46.37,46.37,0,0,1-2.74,4c-.46.63.76-.91,0,0-.31.38-.62.77-.94,1.14-.46.55-.93,1.08-1.41,1.6-.94,1-1.91,2-2.9,3-1.69,1.63-3.42,3.22-5.25,4.69-.18.14-1.12.94-.15.13-.35.29-.73.55-1.1.81-.73.54-1.46,1.05-2.21,1.56-1.66,1.13-3.37,2.19-5.11,3.2a5,5,0,0,0,5,8.63,81.6,81.6,0,0,0,15-11.17,55.88,55.88,0,0,0,11.19-14c5.55-10.46,4-22.62,1.66-33.76a150.32,150.32,0,0,0-6.39-22.41,128,128,0,0,0-6.41-14.54,51.81,51.81,0,0,0-4.33-7c-2-2.7-4.29-5.42-7.41-6.89-4.82-2.27-9.76-1.33-14.29,1.18a46.65,46.65,0,0,0-9.14,6.77,53.31,53.31,0,0,0-12.77,19c-1,2.43,1.08,5.6,3.49,6.15,2.91.66,5.09-.89,6.16-3.49Z" transform="translate(-247.54 -301.55)"/><path class="cls-2" d="M664.11,563.84c-.07-.46-.14-.93-.2-1.39.13.93,0,.14,0,0-.09-.75-.18-1.5-.26-2.24-.17-1.56-.29-3.13-.38-4.7a66.56,66.56,0,0,1,0-8c0-.56.09-1.13.15-1.69a5.45,5.45,0,0,0,.11-1c0,.1-.19,1.25,0,.39.19-1.07.38-2.13.66-3.17.11-.44.24-.87.38-1.29.07-.21.49-1,.43-1.19.13.47-.54,1.12-.12.31l.21-.41c.2-.39.43-.76.66-1.14.62-1-.83.87,0,0,.22-.24.44-.46.67-.69.77-.78-1.07.63-.14.11l.39-.23c.56-.36.63.08-.38.14a3.26,3.26,0,0,0,.51-.16c.91-.34-1.25,0-.25,0h.89c.54.06.42,0-.36,0a9.3,9.3,0,0,0,1.85.48c.36.11.71.24,1,.37l.68.26c.51.21.45.18-.18-.08.15.28,1.37.63,1.64.76q.81.4,1.59.84a38.72,38.72,0,0,1,3.3,2.06,7.64,7.64,0,0,1,1.42,1c-.08-.09-.88-.7-.19-.14l.81.65c1,.81,1.9,1.65,2.8,2.53a55,55,0,0,1,4.58,5.07c.13.16.46.44.51.64-.17-.71-.49-.65-.1-.12s.64.85,1,1.28q.94,1.33,1.83,2.7a91.83,91.83,0,0,1,5.51,9.83c.79,1.6,1.54,3.22,2.29,4.83.6,1.31,1.19,2.63,1.77,3.95s-.37-.93.18.42l.33.82c.33.82.64,1.64,1,2.47a52.31,52.31,0,0,1,2.36,8.79c.23,1.34,0-.7,0,.14,0,.35.07.69.1,1,.05.69.07,1.39.07,2.08s-.07,1.37-.1,2.06c-.07,1.32.16-.7,0,.1-.09.47-.17.95-.28,1.41-.19.82-.46,1.59-.71,2.39-.06.18-.35.91,0,0-.18.45-.4.89-.61,1.32a28.74,28.74,0,0,1-2.2,3.65,6.86,6.86,0,0,0-.56.77c.42-.93.44-.56.09-.13s-.58.69-.88,1-.54.58-.82.85-.47.43-.71.63l-.71.59c.37-.29.41-.33.13-.12-.65.4-1.25.85-1.91,1.23s-1.31.72-2,1a9,9,0,0,1-.92.42c0,.05,1.17-.48,0,0a37.25,37.25,0,0,1-8.73,2.37c-2.6.36-4.25,3.81-3.49,6.15.92,2.86,3.36,3.88,6.15,3.49a36.78,36.78,0,0,0,17.42-7.21,28.56,28.56,0,0,0,8.15-10.6,27.83,27.83,0,0,0,2.59-11,38,38,0,0,0-1.32-10.12c-1.62-6.25-4.42-12.17-7.18-18-3.78-8-8.4-15.7-14.57-22.12a47,47,0,0,0-13.59-10c-3-1.41-6.31-2.86-9.68-2.82a11.3,11.3,0,0,0-7.49,3.07c-4,3.6-5.16,9.47-5.77,14.55-.86,7.1-.09,14.33,1,21.36.39,2.59,3.79,4.25,6.15,3.49,2.83-.91,3.91-3.37,3.49-6.15Z" transform="translate(-247.54 -301.55)"/><path class="cls-2" d="M307.13,672.26c-9.76,5.14-11,17.53-10.33,27.35.49,7,1.35,13.94,2.51,20.84,1,6,2.14,12.14,4.47,17.83,2.42,5.92,5.79,11.16,10.9,15.1a23.61,23.61,0,0,0,17.23,5.09,53.55,53.55,0,0,0,19.25-6,34.52,34.52,0,0,0,12-11.69,61,61,0,0,0,6.27-13.86,56.45,56.45,0,0,0,2.65-19.4c-.1-2.61-2.24-5.12-5-5a5.07,5.07,0,0,0-5,5,56.35,56.35,0,0,1-.16,6.75c-.06.66-.1,1.34-.22,2,.2-1.11-.06.34-.12.74-.25,1.46-.56,2.9-.93,4.33a60,60,0,0,1-2.36,7c-.16.39-.34.79-.49,1.19,0,0,.52-1.2.19-.45-.07.17-.14.34-.22.51-.4.9-.81,1.79-1.26,2.67a39.37,39.37,0,0,1-3.23,5.31c-.13.17-.26.39-.41.55.81-.88.22-.3,0,0-.34.41-.69.81-1.05,1.21a29,29,0,0,1-2.66,2.54,6.71,6.71,0,0,1-.58.48c.93-.6.17-.14-.06,0-.48.35-1,.67-1.47,1s-1.26.74-1.9,1.07l-.8.39c-.09,0-1.43.63-.44.22a58.77,58.77,0,0,1-8.08,2.56c-1.36.35-2.72.66-4.09.92-1,.19-.26,0-.05,0-.38,0-.76.08-1.15.11a17.19,17.19,0,0,1-2.38,0,3.26,3.26,0,0,1-.76-.07c1.07.38.39.05,0,0-.56-.11-1.11-.24-1.65-.4s-1.07-.37-1.61-.56c-.72-.26,1.06.55,0,0-.33-.18-.68-.33-1-.51-.51-.28-1-.57-1.48-.89-.26-.17-1.75-1.06-.7-.45a13.85,13.85,0,0,1-2.84-2.62c-.35-.38-.68-.78-1-1.16-.84-.93.39.58-.06,0l-.56-.78a32.23,32.23,0,0,1-2.18-3.67c-.27-.51-.5-1-.76-1.57-.61-1.25.21.58-.1-.21l-.4-1c-.52-1.36-1-2.76-1.38-4.16-.77-2.69-1.36-5.42-1.88-8.16-.56-2.92-1.06-5.86-1.49-8.8-.1-.72-.21-1.45-.3-2.17.12.93,0-.12,0-.35q-.09-.6-.15-1.2-.28-2.29-.51-4.59c-.3-3-.59-6-.64-9.06,0-1.2,0-2.41.06-3.61,0-.63.09-1.26.16-1.89,0-.22.06-.45.08-.68-.09,1.41,0,.3,0,0a24.16,24.16,0,0,1,.86-3.55l.21-.62c.05-.15.11-.3.17-.46.14-.35.07-.2-.2.46.17,0,.6-1.24.7-1.42.28-.5.65-1,.92-1.45s-.83.91-.12.16c.22-.23.41-.46.63-.68l.45-.43c.9-.82.05.06,0,0l1.64-1a5,5,0,0,0,1.8-6.84,5.11,5.11,0,0,0-6.84-1.79Z" transform="translate(-247.54 -301.55)"/><path class="cls-2" d="M356.11,738.69c.14,10.42.93,22.16,9,29.8,4.11,3.89,9.33,6.14,14.62,7.94a65.36,65.36,0,0,0,15.58,3.75c10.24.86,20.31-3.63,27.37-10.91a37.7,37.7,0,0,0,9.74-18.1,157.36,157.36,0,0,0,2.6-17.42,131.07,131.07,0,0,0,.76-16.69,5,5,0,0,0-10,0q.12,6.62-.42,13.21c-.23,2.73-.57,5.44-.92,8.15-.05.36-.1.72-.14,1.08-.1.77.11-.84,0-.08-.08.59-.17,1.19-.25,1.79q-.24,1.66-.51,3.33c-.33,2-.71,3.89-1.22,5.8-.2.77-.43,1.53-.69,2.29-.13.41-.28.82-.44,1.23l-.21.53c-.22.58.48-1.06.11-.27a31.66,31.66,0,0,1-2.58,4.58c-.25.37-.52.73-.78,1.09-.63.86.64-.8.28-.36l-.56.7a35.53,35.53,0,0,1-2.78,3q-.87.84-1.8,1.62l-.47.38c-.68.56.22-.22.28-.21-.24,0-1.1.8-1.31.94-.79.54-1.61,1-2.46,1.52-.46.26-.94.5-1.42.74l-.66.31c-1.13.54,1-.37-.18.08a30.7,30.7,0,0,1-2.94,1q-.93.25-1.89.45c-.39.08-.79.15-1.18.21.72-.11.09,0-.29,0a27.89,27.89,0,0,1-3.77.1c-.57,0-1.14-.06-1.71-.11-.27,0-.56,0-.83-.1,1.19.21-.05,0-.32-.07a54.41,54.41,0,0,1-7-1.79c-2.23-.69-4.45-1.4-6.63-2.22-.57-.21-1.13-.43-1.69-.67,1,.43-.35-.17-.64-.31a29,29,0,0,1-3.15-1.71c-.56-.35-1.1-.73-1.64-1.12.84.61.25.2.09.05s-.6-.52-.89-.79a16.43,16.43,0,0,1-1.35-1.42,5.68,5.68,0,0,1-.49-.59c.68,1,.05,0-.1-.2-.35-.52-.68-1.05-1-1.6-.1-.19-.94-1.53-.83-1.68-.05.07.34.88.07.16-.13-.36-.27-.71-.39-1.06-.2-.6-.39-1.21-.55-1.82a37,37,0,0,1-.81-3.76,4,4,0,0,1-.12-.77l.07.56-.09-.78c-.08-.65-.14-1.3-.19-2-.22-2.6-.28-5.21-.31-7.82a5,5,0,0,0-10,0Z" transform="translate(-247.54 -301.55)"/><path class="cls-2" d="M421.92,753.29a43.39,43.39,0,0,0,9,26.06c6.14,7.77,15.46,12.23,24.89,14.64a61.26,61.26,0,0,0,15.37,1.87,79.78,79.78,0,0,0,10.35-.94,68.9,68.9,0,0,0,7.94-1.47,25.54,25.54,0,0,0,13.23-7.92,29.24,29.24,0,0,0,5.57-11.61,197.55,197.55,0,0,0,4.64-37.71,5,5,0,1,0-10,0c-.08,5-.39,10-.93,14.95-.08.76-.17,1.52-.26,2.27l-.12.93c-.13,1,0,.29,0,.08-.23,1.72-.5,3.44-.77,5.16-.41,2.55-.81,5.1-1.31,7.63a58.57,58.57,0,0,1-1.44,6c-.27.87-.64,1.7-.91,2.57,0,0,.54-1.2.2-.49l-.26.57q-.3.61-.63,1.2c-.2.35-.41.69-.63,1s-.89,1.21-.31.46-.2.22-.37.41c-.32.36-.66.71-1,1-.17.17-.36.34-.54.5s-.95.84-.33.3-.28.2-.35.24-.39.27-.59.39a13.94,13.94,0,0,1-1.5.87c-.25.14-.51.26-.77.39-1,.49.34-.11-.07,0a42.26,42.26,0,0,1-6.81,1.83c-1.3.23-2.6.43-3.91.61l-.82.12c-.15,0-1.54.2-.41.06-.79.1-1.58.19-2.37.26a55.26,55.26,0,0,1-8.63.08c-.63,0-1.27-.09-1.91-.16l-.73-.07-.4,0c.86.1-.26,0-.36-.05l-.66-.11c-.62-.1-1.23-.21-1.85-.34a57.85,57.85,0,0,1-8.45-2.44l-1.51-.56-.78-.31c-.33-.13-1.06-.27.08,0a16.58,16.58,0,0,1-3.29-1.58,34.48,34.48,0,0,1-3.19-2l-.85-.61c.78.54.17.14,0,0-.68-.57-1.35-1.14-2-1.75s-1.16-1.15-1.71-1.76l-.69-.79c-.16-.19-.92-1.17-.25-.28a32.26,32.26,0,0,1-2.38-3.62c-.34-.6-.67-1.21-1-1.83-.14-.27-.27-.55-.4-.82s-.7-1.28-.07-.13a18.83,18.83,0,0,1-1.25-3.54c-.33-1.09-.61-2.2-.84-3.32-.12-.55-.22-1.11-.32-1.67,0-.18-.05-.36-.08-.53-.14-.92.06-.15,0,.3.08-1.45-.3-3-.33-4.51a5,5,0,0,0-10,0Z" transform="translate(-247.54 -301.55)"/><path class="cls-2" d="M497,782.41a52.08,52.08,0,0,0,22.52,18.18,50.14,50.14,0,0,0,35.24.86c10.94-3.89,20.28-11.57,24.94-22.36a103.44,103.44,0,0,0,5.23-16.71,124.07,124.07,0,0,0,2.41-12.23,133.23,133.23,0,0,0-.92-42.27c-.46-2.59-3.75-4.28-6.15-3.5a5.14,5.14,0,0,0-3.49,6.15c.3,1.68.55,3.36.81,5.05.14.91-.15-1.19,0,.31l.15,1.16c.11.92.21,1.83.3,2.75q.44,4.55.56,9.12a120.56,120.56,0,0,1-.64,16c-.06.55-.12,1.11-.19,1.66,0,.21,0,.43-.08.64-.14,1.16.18-1.19,0-.05s-.32,2.22-.51,3.32c-.32,1.89-.68,3.77-1.1,5.64a148.33,148.33,0,0,1-3.79,14.38c-.37,1.11-.76,2.21-1.19,3.3-.11.27-.63,1.3,0,.07-.1.2-.18.42-.27.62q-.4.93-.87,1.83c-.5,1-1.05,2-1.64,2.91-.33.52-.67,1-1,1.53a3.17,3.17,0,0,1-.49.69c.43-.56.49-.63.15-.21l-.21.27a33.84,33.84,0,0,1-2.5,2.72q-.66.64-1.35,1.26l-.71.61c-.1.08-1.24,1-.66.54s-.35.26-.39.29l-.76.54c-.56.38-1.14.76-1.72,1.12-1.12.68-2.27,1.31-3.45,1.88l-.85.41c-.2.09-1.36.64-.18.09-.56.26-1.16.47-1.75.69q-1.95.71-4,1.23c-1.22.32-2.45.59-3.7.8l-.75.12-.37.06.2,0a9.61,9.61,0,0,0-2.27.23,46.36,46.36,0,0,1-8-.11l-.75-.08c-1.3-.13,1.1.19-.18,0-.63-.1-1.26-.2-1.88-.32a40.89,40.89,0,0,1-4.07-1c-.74-.22-1.48-.45-2.21-.71l-.8-.29c-.2-.08-1.86-.77-.72-.27a43.86,43.86,0,0,1-4.23-2.11c-1.17-.66-2.31-1.38-3.42-2.15l-.85-.61c-.52-.38-.72-.46-.08,0a15.29,15.29,0,0,1-1.54-1.25,47.63,47.63,0,0,1-4.91-4.83c-.6-.68-1.17-1.39-1.74-2.1-.23-.27-.5-.74.41.54l-.44-.58-.57-.78c-1.51-2.13-4.43-3.35-6.84-1.8-2.11,1.36-3.41,4.56-1.79,6.84Z" transform="translate(-247.54 -301.55)"/><path class="cls-2" d="M576.39,784.39a101.77,101.77,0,0,0,27.61,3.5,76,76,0,0,0,17.81-2.42,44.46,44.46,0,0,0,13.37-5.65,31.89,31.89,0,0,0,8.91-9A42.72,42.72,0,0,0,649.57,757a124.12,124.12,0,0,0,2.74-30.88,213.39,213.39,0,0,0-2.26-25.74c-.37-2.6-3.8-4.25-6.15-3.5-2.84.93-3.89,3.37-3.49,6.16.08.55.15,1.1.23,1.65s-.17-1.29-.09-.68l.06.45.15,1.19q.3,2.34.54,4.68.62,5.94.88,11.9c.2,4.64.24,9.29,0,13.93-.1,2.4-.26,4.79-.5,7.18-.11,1.2-.25,2.4-.41,3.6.15-1.12-.07.47-.12.78-.1.69-.22,1.39-.34,2.09-.41,2.34-.91,4.67-1.54,7q-.42,1.54-.93,3.06c-.19.55-.39,1.1-.61,1.64-.06.15-.39.91-.11.28s-.15.31-.21.44A30.28,30.28,0,0,1,636,765c-.26.42-.53.84-.81,1.25a4.17,4.17,0,0,1-.54.76c.45-.41.34-.43,0,0a25.78,25.78,0,0,1-3.46,3.47,5.84,5.84,0,0,0-.48.39s1-.76.39-.31l-.89.63c-.75.5-1.53,1-2.33,1.4s-1.65.84-2.49,1.22.06,0,.15-.06a3.45,3.45,0,0,1-.74.29c-.65.25-1.31.49-2,.71a60.5,60.5,0,0,1-7.91,2.06c-.72.14-1.43.27-2.15.38l-1,.14c-.82.13.73-.07-.09,0-1.4.15-2.8.31-4.21.4a80.19,80.19,0,0,1-8.77.08c-1.28-.05-2.55-.13-3.83-.24a18,18,0,0,1-4-.44c.13.05,1.12.16.17,0l-1.13-.17-1.65-.27c-1.1-.18-2.2-.39-3.29-.61-2-.4-3.92-.86-5.86-1.37a5,5,0,0,0-2.66,9.65Z" transform="translate(-247.54 -301.55)"/><path class="cls-2" d="M654.18,747.11a49.54,49.54,0,0,0,16.35-7.6,50.92,50.92,0,0,0,18.13-24.14c3.11-8.47,3.93-17.64,3.88-26.6a156.13,156.13,0,0,0-1.92-20c-1.47-10.79-3-21.56-4.76-32.31-.42-2.59-3.78-4.26-6.16-3.49-2.8.91-3.94,3.37-3.49,6.15,1.49,9.17,2.84,18.36,4.11,27.57.17,1.24.35,2.48.51,3.72.08.54.15,1.07.22,1.61a4.2,4.2,0,0,1,.11.77l-.08-.57c0,.24.07.48.1.73q.36,2.71.69,5.44c.29,2.53.58,5.08.64,7.63.08,3.29.06,6.59-.13,9.87-.06,1-.13,2-.23,3,0,.48-.1,1-.15,1.45,0,.3,0,.62-.11.92.13-.61.09-.68,0,0a61.63,61.63,0,0,1-1.38,6.75,51.46,51.46,0,0,1-2.27,6.75c.4-.94-.25.51-.38.79-.28.6-.57,1.2-.88,1.78q-.93,1.79-2,3.48c-.63,1-1.3,1.93-2,2.86.64-.87-.24.29-.44.53-.41.5-.83,1-1.26,1.45a41.18,41.18,0,0,1-4.43,4.23c-.17.15-.35.29-.53.43-.9.76.89-.64,0,0l-1.32,1c-.81.57-1.64,1.1-2.48,1.61a44,44,0,0,1-4.81,2.52c-.21.1-1.42.62-.54.24s-.38.15-.6.23q-.93.38-1.89.69-1.54.53-3.12.93a5,5,0,0,0,2.66,9.64Z" transform="translate(-247.54 -301.55)"/><path class="cls-2" d="M688.3,688.85c7,1.21,14.59.78,20.73-3.17a22.2,22.2,0,0,0,7.75-8.32,35.48,35.48,0,0,0,3.29-10.23,144.64,144.64,0,0,0,2.12-17.73A123,123,0,0,0,721,625.76a127.69,127.69,0,0,0-7-27.35c-.92-2.44-3.42-4.37-6.15-3.49-2.39.77-4.48,3.53-3.49,6.15a129,129,0,0,1,6.14,22.18c.2,1.1.38,2.21.55,3.32.09.54.16,1.08.24,1.62,0,.19.13,1,0,0,0,.3.07.6.11.89q.39,3.18.61,6.37.36,5.21.26,10.42-.09,3.78-.43,7.55c-.09.88-.18,1.76-.29,2.64l-.15,1.23c-.06.5-.12,1-.19,1.51,0,.21,0,.42-.08.63,0,0-.17,1.32-.07.57s0,0,0,.14-.07.52-.11.78c-.07.45-.13.89-.2,1.34-.14.9-.29,1.81-.46,2.71a42.17,42.17,0,0,1-1.18,4.81c-.2.65-.58,1.32-.71,2,0,0,.47-1,.21-.52-.07.13-.12.27-.18.4-.19.39-.38.77-.59,1.15-.33.58-.72,1.1-1.07,1.67s.38-.47.36-.45a3.13,3.13,0,0,0-.36.44c-.25.29-.51.58-.78.85s-.55.55-.85.81l-.61.53c.3-.27.5-.36.06-.06a31.28,31.28,0,0,1-2.8,1.62c-.49.27.31-.15.36-.14a4.52,4.52,0,0,0-.85.32c-.44.16-.89.3-1.35.43s-.89.23-1.34.32a6.36,6.36,0,0,0-1.48.26s1.06-.09.52-.08c-.26,0-.53.06-.79.08s-.81.05-1.22.06c-.76,0-1.51,0-2.27,0s-1.36-.1-2-.18c-1-.1,1.28.21.34.05l-.74-.12c-2.57-.44-5.51.68-6.15,3.49-.55,2.43.74,5.68,3.49,6.15Z" transform="translate(-247.54 -301.55)"/><path class="cls-2" d="M305.25,679.48c-10.13-9.31-25-8.93-36.63-2.59-13.23,7.22-19.43,21.52-20.76,36-1.4,15.08,1.91,31.28,7.7,45.19a71.15,71.15,0,0,0,30.7,35.71c12.16,7.41,26.13,11.08,39.66,15.11q24.79,7.38,50,13.33,42.32,10,85.46,15.77c20.34,2.72,40.78,4.68,61.28,5.64,10.2.48,20.44.76,30.66.5a292.09,292.09,0,0,0,40-4.06A305.5,305.5,0,0,0,638.72,829c14.37-4.71,28.95-10.21,41.89-18.15,19.71-12.08,32.89-32.5,39-54.55a109.67,109.67,0,0,0,.23-59.11,115.73,115.73,0,0,0-6.28-16.79c-1.13-2.45-4.67-3.06-6.84-1.79-2.52,1.47-2.92,4.37-1.79,6.84a102.82,102.82,0,0,1,5.55,15.41,95.42,95.42,0,0,1,3.33,21.63c.08,2.11.06,4.23,0,6.34-.06,1.72-.16,3.44-.31,5.15q-.12,1.44-.27,2.88c-.05.51-.11,1-.17,1.52l-.12.9c.07-.52.06-.4,0,0-3.09,21.7-12.34,42.93-29.4,57.29-.6.51-1.22,1-1.84,1.5,1-.78-.08,0-.32.22-.42.32-.85.63-1.28.93-1.81,1.28-3.67,2.47-5.58,3.61a143.69,143.69,0,0,1-16.55,8.3,278.34,278.34,0,0,1-46.68,15.16,293.56,293.56,0,0,1-55.7,7.75c-6.82.29-13.66.19-20.47,0-16.77-.41-33.51-1.59-50.19-3.3-24.83-2.55-49.3-6.31-73.95-11.17a901,901,0,0,1-93.64-23.8c-12.3-3.83-23.39-7.68-33.64-16-11.61-9.39-18.62-22-22.52-36.28-3.64-13.34-5.53-28.23-.93-41.57a29.55,29.55,0,0,1,9.83-14.17,27.9,27.9,0,0,1,14.87-5.58c5-.24,9.59.95,13.26,4.32,4.73,4.35,11.82-2.7,7.07-7.07Z" transform="translate(-247.54 -301.55)"/><path class="cls-2" d="M391.41,558.14a258.57,258.57,0,0,0,81.12,14.42q10.64.16,21.27-.56a4.07,4.07,0,0,0,4-4c-.1-2-1.77-4.15-4-4a250,250,0,0,1-81.43-7.78q-9.53-2.54-18.83-5.8a4,4,0,0,0-4.93,2.79,4.12,4.12,0,0,0,2.8,4.93Z" transform="translate(-247.54 -301.55)"/><path class="cls-2" d="M527.45,571.08a68.71,68.71,0,0,0,28.78-6.23c1.91-.87,2.52-3.79,1.43-5.48a4.11,4.11,0,0,0-5.47-1.43,59.7,59.7,0,0,1-24.74,5.14,4,4,0,0,0,0,8Z" transform="translate(-247.54 -301.55)"/><path class="cls-2" d="M643.83,515.54a567,567,0,0,1-7.38-60.13c-.67-9.77-1.16-19.58-1-29.38,0-3.62.18-7.24.47-10.84.13-1.51.29-3,.47-4.5.1-.92-.16,1.07,0-.11,0-.3.09-.61.14-.92.11-.68.22-1.37.35-2.05a57.2,57.2,0,0,1,1.61-6.6c.31-1,.64-2,1-2.92.16-.41.33-.81.48-1.22.28-.73-.56,1.26-.13.31.11-.23.2-.46.3-.68a74.88,74.88,0,0,1,8-13.56c.13-.17.8-1.07.57-.77l.33-.42.45-.55c.67-.83,1.35-1.64,2.06-2.44a69.8,69.8,0,0,1,5-5.07A52,52,0,0,1,667.34,366c.93-.51,1.87-1,2.83-1.44l1.33-.61.67-.3c-.64.28.13,0,.39-.15,2-.78,4-1.47,6.07-2s4.2-1.07,6.33-1.46l1.49-.25c.22,0,1.72-.24.94-.15,1.1-.13,2.2-.25,3.31-.34a82,82,0,0,1,13.93.1c2.56.23,3.67.38,6.24.82s4.94,1,7.38,1.59a107.66,107.66,0,0,1,28,11.55c2.34,1.36,4.63,2.79,6.89,4.29a5.09,5.09,0,0,0,6.06-.78c11.81-10.61,26.23-18.34,42.15-21a67.23,67.23,0,0,1,11-.76c1.85,0,3.7.13,5.54.3a49.62,49.62,0,0,1,5.25.78,55.22,55.22,0,0,1,36.73,24.16,67.73,67.73,0,0,1,9.17,19.58c.92,3.09,1.66,6.22,2.27,9.38.27,1.38.5,2.76.72,4.15.11.66.2,1.31.3,2,0,.26.07.52.11.78.07.57.07.5,0-.2,0,.25.06.5.1.74a96.68,96.68,0,0,1,.83,13.39c0,2.94-.21,5.87-.48,8.8-.15,1.65-.33,3.31-.54,5-.22,1.8-.42,3.17-.77,5.41-1.39,8.75-3.2,17.46-5.44,26-3.23,12.36-7.76,24.23-12,36.24a168.77,168.77,0,0,0-7.76,28.72,195.25,195.25,0,0,0-2.46,27.1c-.27,10.09-.1,20.2,0,30.3.08,13.35,0,26.7-.47,40q-.45,12.71-1.26,25.4c-.26,4-.52,8-.86,12.06-.1,1.23-.22,2.45-.36,3.67,0,.4-.09.79-.14,1.19.14-1.15,0-.2,0,.09q-.16,1.14-.36,2.28A50.26,50.26,0,0,1,838,691c-.47,1.29.47-.88-.14.34-.13.24-.24.49-.36.74q-.49,1-1.08,1.92c-.18.28-.37.54-.55.82-.68,1,.47-.52,0,0s-1,1-1.44,1.49c-.85.85.86-.49-.16.13-.21.13-.41.28-.63.4a9.33,9.33,0,0,1-1,.52c.89-.41-.13,0-.37.1-.42.13-.84.22-1.25.33-1.49.41.44,0-.45.09a15,15,0,0,1-2.84,0c1,.09-.69-.13-.72-.13-.43-.09-.85-.2-1.27-.32l-1.26-.41c-1.56-.52.35.19-.52-.21a17.5,17.5,0,0,1-4.09-2.56c-6.83-6-9-15.16-10.51-24.09q-2.65-15.53-5.32-31c-1.84-10.64-3.66-21.29-5.59-31.91-2.51-13.88-5.91-27.89-12.17-40.6-2.94-6-6.77-11.91-12-16.15a42,42,0,0,0-10.54-6.28,24.94,24.94,0,0,0-23.86,2.29c-15.94,11.3-19.83,31.77-23.49,49.65-1.61,7.88-3,15.8-4.33,23.74-.43,2.66.7,5.38,3.5,6.15,2.38.66,5.71-.81,6.15-3.49,2.39-14.7,5-29.52,9.14-43.84.64-2.21,1.33-4.4,2.12-6.56.29-.79.6-1.58.91-2.37.48-1.22-.49,1.08,0-.07.17-.39.34-.78.52-1.16a34.39,34.39,0,0,1,3.45-5.89l.42-.56c.22-.31.61-.72-.55.71.25-.31.49-.63.74-1,1-1.26,2-2.51,3.14-3.69.54-.57,1.09-1.13,1.67-1.66l.72-.64s1.26-1,.51-.44a19.14,19.14,0,0,1,2.08-1.37c.44-.26.89-.49,1.34-.72.84-.43-.26,0,.73-.3a15.23,15.23,0,0,1,10-.06c.49.16,1,.34,1.45.51.94.33.37.14.16.05.76.33,1.5.7,2.23,1.1,1.15.61,2.25,1.3,3.34,2,.35.23.71.48,1.06.73.17.12.33.25.51.37.77.55-1.19-1-.26-.19s1.7,1.46,2.49,2.26,2.41,2.1,2.79,3.18c-.31-.89-.63-.83-.23-.28l.35.48c.24.33.48.66.71,1,.58.85,1.13,1.71,1.66,2.59a64.71,64.71,0,0,1,3.1,5.81c.52,1.09,1,2.2,1.49,3.31-.51-1.21.27.67.39,1,.31.77.6,1.54.89,2.31a160.09,160.09,0,0,1,6,21.19c2.58,11.7,4.4,23.59,6.44,35.4q2.89,16.67,5.74,33.36.75,4.42,1.51,8.85a48.19,48.19,0,0,0,5.77,15.23c4.17,7.27,11,13.21,19.52,14.45a18.77,18.77,0,0,0,19.51-9.15c3.36-5.66,4.57-12.34,5.37-18.78.93-7.46,1.26-15,1.69-22.52q1.32-22.89,1.4-45.84c0-11.23-.14-22.47-.12-33.71a262,262,0,0,1,1.21-27.3c.11-1,.23-2,.36-3,0-.35.06-1.41,0,.11,0-.26.07-.52.1-.77l.27-1.83q.52-3.33,1.18-6.63c.93-4.58,2.08-9.11,3.42-13.59,3.44-11.45,8.12-22.47,11.78-33.85a251.3,251.3,0,0,0,10.56-49,115.94,115.94,0,0,0-1.12-32.48c-2.51-14.93-8.24-29.06-18-40.77-10.85-13-26.38-20.74-43.09-22.9s-33.59,1.95-48.3,9.85a104,104,0,0,0-20,14.23l6.06-.78c-17.74-11.78-38.74-19.71-60.21-20-19.83-.24-38.9,6.87-52.48,21.58-7.78,8.43-14.38,18.85-17.32,30.05a90.46,90.46,0,0,0-2.54,18.24,265.87,265.87,0,0,0,.31,28.51,589,589,0,0,0,6.69,61.71c.5,3.05,1,6.1,1.55,9.14.47,2.66,3.72,4.16,6.15,3.49,2.81-.77,4-3.48,3.49-6.15Z" transform="translate(-247.54 -301.55)"/><path class="cls-2" d="M720.14,356.39c1-.89,2-1.76,3-2.59.65-.52,1.56-1.21,2.69-2a66.78,66.78,0,0,1,6.62-4c1.11-.58,2.24-1.14,3.39-1.66l.72-.33.51-.22c.61-.26,1.23-.5,1.85-.74a67.35,67.35,0,0,1,7.59-2.37c1.16-.28,2.32-.54,3.5-.77l2-.34.79-.12c.48-.07.52-.08.12,0l.59-.08a64.4,64.4,0,0,1,7.73-.46,61.84,61.84,0,0,1,7.93.49c-.67-.08,0,0,.12,0l1,.16,1.71.3c1.32.26,2.63.57,3.92.94.68.2,1.35.41,2,.64l.72.26.72.27.23.09c-.51-.21.64.28.57.25l1,.5c.62.31,1.23.65,1.82,1s1.16.74,1.73,1.14.22.15.08,0c.35.27.68.56,1,.85.51.45,1,.93,1.47,1.43l.5.56.47.58c-.24-.3-.23-.27,0,.1,1.21,1.7,3.55,2.68,5.48,1.44,1.68-1.09,2.73-3.65,1.43-5.47-7-9.79-19.37-12.95-30.8-13.52a70.22,70.22,0,0,0-33.83,7.06,68.1,68.1,0,0,0-16.07,10.93,4,4,0,0,0,0,5.66,4.09,4.09,0,0,0,5.66,0Z" transform="translate(-247.54 -301.55)"/><path class="cls-2" d="M758.86,550.79c3.26,9.86,4.35,19.2,4.73,29.44s0,20.64,0,31,.6,20.63,2.85,30.66c1.89,8.41,5.88,17.86,14,22,7.92,4.09,19.7,2.89,24-5.83a4.08,4.08,0,0,0-1.44-5.47c-1.81-1-4.47-.56-5.47,1.44a10.83,10.83,0,0,1-.59,1.05c-.1.17-.22.33-.33.49.08-.11.56-.63.08-.12-.24.24-.46.49-.71.73s-.3.24-.44.38c-.32.33.63-.39,0,0-.33.2-.65.42-1,.61s-1.32.53-.38.21a18.24,18.24,0,0,1-2.29.68l-.6.11c.13,0,.9-.08.16,0l-1.07.08c-.42,0-.83,0-1.24,0-.25,0-1.7-.19-.64,0a17.83,17.83,0,0,1-2.28-.5c-.39-.11-.78-.29-1.18-.39s.59.32.1,0c-.22-.12-.47-.22-.7-.33s-.72-.4-1.07-.61l-.38-.26c-.08-.05-.6-.42-.27-.18s-.27-.21-.34-.27l-.57-.5c-.41-.37-.81-.77-1.2-1.18s-.58-.64-.86-1c-.06-.07-.53-.68-.26-.32l-.25-.35a28,28,0,0,1-1.67-2.73c-.21-.39-.41-.78-.6-1.18-.11-.23-.22-.46-.32-.69s-.36-.81-.18-.4-.09-.21-.09-.23c-.1-.24-.19-.48-.28-.72-.23-.6-.44-1.2-.64-1.82a56.86,56.86,0,0,1-1.51-5.77c-1.91-9.11-2.31-18.63-2.37-28.29s.3-19.42,0-29.13c-.35-11-1.57-22.18-5.06-32.7a4,4,0,1,0-7.71,2.12Z" transform="translate(-247.54 -301.55)"/><path class="cls-2" d="M726.12,480.84a20.91,20.91,0,0,0,34.9-.39,5,5,0,0,0-1.79-6.84,5.12,5.12,0,0,0-6.84,1.79c-.08.13-.73,1-.27.41s-.13.13-.21.22a16.84,16.84,0,0,1-1.18,1.21c-.23.21-.48.41-.72.61-.51.45.7-.45.12-.1s-.94.63-1.44.9c-.27.16-.55.3-.83.44-.12.06-.89.38-.26.13s-.31.11-.46.15l-.71.23c-.17,0-1.81.33-1.84.41,0-.1,1-.08.21,0l-.93,0a16.58,16.58,0,0,1-1.73,0c-.67,0-.13.08.18,0a3.15,3.15,0,0,1-1-.19,15.72,15.72,0,0,1-1.66-.47c-.14-.05-.65-.15-.73-.27l.49.21-.53-.25a17.18,17.18,0,0,1-1.51-.85c-.22-.13-.43-.28-.64-.42-1-.67.44.43-.06,0s-.87-.76-1.28-1.18c-.17-.18-.34-.38-.52-.56-.87-.93.58.83-.17-.2-1.54-2.11-4.41-3.36-6.84-1.8-2.09,1.35-3.44,4.58-1.8,6.84Z" transform="translate(-247.54 -301.55)"/><path class="cls-2" d="M817.61,430.18c0,.7,0,1.4-.09,2.09,0,.29-.06.57-.08.86-.07.75.23-1.27,0-.14a29.63,29.63,0,0,1-1,3.93c-.07.23-.36,1.45-.57,1.57l.25-.59-.27.61c-.14.3-.29.59-.44.89a24.77,24.77,0,0,1-1.87,3.08l-.19.27c-.32.43-.26.35.19-.23-.06.23-.47.58-.62.76-.35.42-.72.82-1.09,1.21s-.77.78-1.17,1.14c-.24.23-.49.44-.74.65l-.5.42.23-.18c0,.24-1.14.8-1.34.93-.46.3-.93.59-1.41.86s-1.16.62-1.76.9c-.11.05-1.1.39-.31.15s-.5.18-.64.23a24.4,24.4,0,0,1-3.56,1l-.83.16c-.81.13-.26.34.14,0-.33.29-1.8.16-2.25.17a29.85,29.85,0,0,1-3.66-.13c-1.2-.11,1.15.22,0,0l-1-.19c-.66-.13-1.32-.29-2-.48s-1.06-.32-1.59-.51c-.14,0-.86-.22-.93-.36l.58.25-.6-.27a25.81,25.81,0,0,1-3.17-1.76c-.27-.17-.54-.36-.81-.55l-.27-.19c-.43-.32-.35-.25.23.19-.38-.09-1-.8-1.25-1a25.89,25.89,0,0,1-2.72-2.82,2.69,2.69,0,0,1-.41-.51l.39.49-.39-.53q-.51-.74-1-1.5c-.31-.52-.6-1.05-.88-1.58-.15-.3-.29-.59-.43-.89l-.14-.3c-.22-.5-.18-.41.11.28-.27-.15-.52-1.42-.62-1.73-.19-.58-.36-1.18-.51-1.77s-.25-1.11-.34-1.66l-.06-.34c-.08-.55-.07-.45,0,.31-.17-.19-.11-1.11-.13-1.37a29.19,29.19,0,0,1,0-3.5c0-.35.07-.69.09-1,.1-1.21-.2,1.15,0,0,.12-.67.24-1.34.4-2s.29-1.08.46-1.62c.1-.33.37-1.72.67-1.88-.18.1-.42.92-.11.28.14-.3.27-.6.42-.89.3-.59.61-1.17,1-1.74s.69-1.11,1.07-1.65c.09-.13.53-1,.19-.28s.1-.12.22-.27a26.82,26.82,0,0,1,2.72-2.82c.28-.25.89-.95,1.25-1.05l-.49.39.53-.39.81-.55a25.74,25.74,0,0,1,3.17-1.75l.3-.14c.5-.22.4-.18-.28.11.07-.13.79-.3.93-.35.53-.19,1.06-.36,1.59-.52s1.09-.29,1.64-.41l1-.19.67-.11c-.76.1-.86.11-.31,0a31.33,31.33,0,0,1,3.49-.14c.7,0,1.38.08,2.08.14,1.15.09-.88-.16-.14,0l1.17.21a29.94,29.94,0,0,1,4.18,1.23c.63.22.06-.17-.27-.12.27,0,.95.43,1.2.55.59.3,1.17.61,1.73.95s1.2.77,1.79,1.17l.13.09c.43.32.35.26-.23-.19.32.09.76.62,1,.84a25.78,25.78,0,0,1,2.75,2.78c.15.18.56.54.62.76-.45-.58-.51-.65-.19-.22.13.17.25.35.38.53.37.54.72,1.1,1.05,1.66s.64,1.16.93,1.75c.08.17.44.72.41.9-.29-.68-.33-.77-.13-.27l.12.31a25.7,25.7,0,0,1,1.18,4.2c0,.14.25.91.17,1l-.09-.65c0,.23.05.46.07.69.08.81.11,1.62.12,2.44a5,5,0,0,0,10,0,31.15,31.15,0,0,0-20.71-29.05,30.8,30.8,0,0,0-33.63,9.38,31.7,31.7,0,0,0-7.06,17.57,30.46,30.46,0,0,0,4.39,18.08,31.17,31.17,0,0,0,32.74,14.07c14.06-2.86,24.17-15.87,24.27-30.05a5,5,0,1,0-10,0Z" transform="translate(-247.54 -301.55)"/><circle class="cls-2" cx="540.79" cy="128.63" r="16.38"/><path class="cls-2" d="M713.84,430.18c0,.7,0,1.4-.08,2.09l-.09.86c-.06.75.23-1.27,0-.14a29.63,29.63,0,0,1-1,3.93c-.08.23-.36,1.45-.57,1.57l.24-.59a6.65,6.65,0,0,1-.27.61c-.14.3-.28.59-.43.89a26,26,0,0,1-1.87,3.08l-.19.27c-.32.43-.26.35.19-.23-.07.23-.47.58-.62.76-.36.42-.72.82-1.1,1.21s-.77.78-1.17,1.14c-.24.23-.49.44-.73.65l-.51.42q-.63.49.24-.18c0,.24-1.14.8-1.35.93-.46.3-.92.59-1.4.86s-1.16.62-1.76.9c-.12.05-1.1.39-.31.15s-.5.18-.64.23a24.4,24.4,0,0,1-3.56,1l-.84.16c-.81.13-.25.34.15,0-.34.29-1.81.16-2.25.17a29.78,29.78,0,0,1-3.66-.13c-1.2-.11,1.15.22,0,0l-1-.19c-.66-.13-1.31-.29-2-.48s-1.07-.32-1.59-.51c-.15,0-.87-.22-.94-.36l.59.25-.61-.27a25.69,25.69,0,0,1-3.16-1.76c-.28-.17-.55-.36-.81-.55l-.27-.19c-.43-.32-.35-.25.23.19-.39-.09-1-.8-1.26-1a25.8,25.8,0,0,1-2.71-2.82,2.69,2.69,0,0,1-.41-.51l.38.49c-.13-.17-.26-.35-.38-.53q-.52-.74-1-1.5c-.31-.52-.61-1.05-.88-1.58-.15-.3-.3-.59-.44-.89l-.14-.3c-.21-.5-.18-.41.12.28-.28-.15-.53-1.42-.63-1.73-.19-.58-.36-1.18-.5-1.77s-.25-1.11-.35-1.66l-.06-.34c-.08-.55-.07-.45,0,.31-.17-.19-.11-1.11-.13-1.37a25.55,25.55,0,0,1,0-3.5c0-.35.06-.69.09-1,.1-1.21-.21,1.15,0,0,.12-.67.25-1.34.41-2s.28-1.08.45-1.62c.11-.33.38-1.72.68-1.88-.19.1-.42.92-.12.28.15-.3.28-.6.43-.89.29-.59.61-1.17.94-1.74s.7-1.11,1.08-1.65c.09-.13.52-1,.19-.28s.09-.12.22-.27a26.73,26.73,0,0,1,2.71-2.82c.29-.25.89-.95,1.26-1.05l-.49.39.53-.39c.26-.19.53-.37.81-.55a25.62,25.62,0,0,1,3.16-1.75l.3-.14c.5-.22.41-.18-.28.11.07-.13.79-.3.94-.35.52-.19,1-.36,1.59-.52s1.08-.29,1.63-.41l1-.19.68-.11c-.77.1-.87.11-.31,0a31.15,31.15,0,0,1,3.48-.14c.7,0,1.39.08,2.08.14,1.16.09-.87-.16-.14,0,.4.08.79.13,1.18.21A30.76,30.76,0,0,1,701.1,411c.62.22,0-.17-.27-.12.26,0,.95.43,1.19.55.59.3,1.17.61,1.74.95s1.19.77,1.78,1.17l.13.09c.43.32.36.26-.22-.19.31.09.76.62,1,.84a25.87,25.87,0,0,1,2.76,2.78,3.69,3.69,0,0,1,.62.76c-.45-.58-.51-.65-.19-.22l.37.53c.38.54.73,1.1,1.06,1.66s.64,1.16.92,1.75c.08.17.44.72.41.9q-.42-1-.12-.27l.12.31a25.67,25.67,0,0,1,1.17,4.2c0,.14.25.91.17,1l-.09-.65c0,.23.06.46.08.69.07.81.11,1.62.11,2.44a5,5,0,0,0,10,0,31.15,31.15,0,0,0-20.71-29.05,30.79,30.79,0,0,0-33.62,9.38,31.71,31.71,0,0,0-7.07,17.57,30.47,30.47,0,0,0,4.4,18.08,31.17,31.17,0,0,0,32.74,14.07c14-2.86,24.17-15.87,24.26-30.05a5,5,0,1,0-10,0Z" transform="translate(-247.54 -301.55)"/><circle class="cls-2" cx="437.03" cy="128.63" r="16.38"/><path class="cls-1" d="M486.38,380.34c-1.1,1.08-1.39,1.47-.85,1.15-.39.16-.45.19-.18.11a3,3,0,0,0,.58-.13c.63-.13,1.27-.22,1.89-.36a21.91,21.91,0,0,0,5.57-2,24.19,24.19,0,0,0,7.73-6.82,25.06,25.06,0,0,0,5.38-11.15c.79-4.49,1.39-9.16.74-13.7-.4-2.75-5.25-2.13-4.91.67,1,8.42,2.28,17.07,7.74,23.88a21.55,21.55,0,0,0,9.33,6.69c4,1.5,8.28,1.88,12.47,2.29v-5c-7.11.63-14.06,3.65-18.24,9.64a25.26,25.26,0,0,0-3.58,8.83,91.85,91.85,0,0,0-1.95,11.76c-.16,1.62-.27,3.24-.37,4.85,0,.51-.1,1-.12,1.52s.15-.53,0-.06c0,.06,0,.14,0,.19.34-.61.4-1.75,2.18-1.55l1.27.34c.26.13,1.07,1,1,1.21,0-.06-.07-.27-.08-.34s-.05-.3-.08-.45,0,.3,0,.28,0-.24-.05-.36c-.15-1.28-.31-2.56-.5-3.83a44.21,44.21,0,0,0-2.57-9.88c-2.79-7.05-7.45-13.8-14.45-17.15a36.72,36.72,0,0,0-6-2.22c-.71-.2-1.42-.38-2.12-.59-.17-.05-.87-.2-.54-.16s.13.08,0,0-.15-.08,0,.06a1.82,1.82,0,0,1,.76,1.6,2.5,2.5,0,0,0-5,0c.2,3.12,3.95,3.44,6.3,4.14a22.24,22.24,0,0,1,9.78,5.55c4.89,5,7.57,11.88,8.75,18.65.25,1.44.31,2,.47,3.35a18.07,18.07,0,0,0,.39,2.64,2.74,2.74,0,0,0,3.3,2.07,2.91,2.91,0,0,0,2-2.46c.49-2.74.42-5.61.72-8.37a70.47,70.47,0,0,1,2.22-11.6,16.09,16.09,0,0,1,5.65-8.68,21.08,21.08,0,0,1,10.8-4,2.5,2.5,0,0,0,0-5,45.39,45.39,0,0,1-10.54-1.9,16.61,16.61,0,0,1-7.73-5.61c-4.43-5.79-5.44-13.33-6.27-20.35l-4.91.66a26.11,26.11,0,0,1-.13,6.43,55.68,55.68,0,0,1-.83,5.73,17,17,0,0,1-2.28,5.54c-.54.86-1.14,1.7-1.77,2.51.27-.35-.18.24-.22.28-.21.27-.42.52-.63.78a17.54,17.54,0,0,1-8.14,5.75c-2,.62-6.32.49-6.86,3.21a2.58,2.58,0,0,0,1.75,3.08A2.53,2.53,0,0,0,486.38,380.34Z" transform="translate(-247.54 -301.55)"/><path class="cls-1" d="M554.52,427.92c-.58,2.34-2.1,1.47-1.06,1.35.17,0,.35-.07.53-.1.46-.09.93-.17,1.4-.28a16.66,16.66,0,0,0,4.19-1.61,19.56,19.56,0,0,0,5.82-5.39,17.93,17.93,0,0,0,3.67-7.9,32.8,32.8,0,0,0,.52-10.22c-.38-2.76-5.24-2.13-4.91.67.75,6.32,1.73,12.72,5.85,17.82s10.14,6,16.2,6.63v-5c-6.85.62-13,4.18-15.55,10.81A45.13,45.13,0,0,0,569,445c-.18,1.48-.3,3-.4,4.46l-.09,1.34c0,.49-.1.22,0-.06-.35.8.53-.71.49-.67l1.1-.65h1.3q1.95,2.67,1.58,1.49l0-.14a2.11,2.11,0,0,1-.08-.45c.15.79,0-.44-.08-.68-.17-1.36-.35-2.72-.62-4.06a30.09,30.09,0,0,0-4-10.17,21.07,21.07,0,0,0-7-7.13,23.23,23.23,0,0,0-5.14-2.16c-.62-.19-1.26-.35-1.89-.53-.21-.06-.42-.15-.64-.2s-.23-.08.14.07a2.09,2.09,0,0,1,.6.62l.35,1.26v-.08a2.58,2.58,0,0,0-2.5-2.5,2.51,2.51,0,0,0-2.5,2.5c.28,2.56,2.55,2.94,4.63,3.54a15.81,15.81,0,0,1,7.12,3.88c3.56,3.58,5.44,8.59,6.26,13.49a29.84,29.84,0,0,0,.6,4.15,2.64,2.64,0,0,0,5.13-.14,37.54,37.54,0,0,0,.51-5.8,54.33,54.33,0,0,1,1.53-8.41,11.26,11.26,0,0,1,3.87-6.28,14.44,14.44,0,0,1,7.47-2.79,2.5,2.5,0,0,0,0-5c-4.73-.46-9.58-1.15-12.66-5.17s-3.8-9.38-4.39-14.28l-4.91.66a25.14,25.14,0,0,1-.74,8.63,11.9,11.9,0,0,1-1.58,3.72,18,18,0,0,1-1.86,2.5,11.86,11.86,0,0,1-5.86,3.95c-1.79.49-4.48.42-5,2.69C548.93,429.71,553.75,431,554.52,427.92Z" transform="translate(-247.54 -301.55)"/></g></svg>