<svg xmlns="http://www.w3.org/2000/svg" viewBox="0 0 640.62 700.57"><defs><style>.cls-1{fill:#3f8e93;}.cls-2,.cls-5{fill:#22565a;}.cls-3{fill:#fff;}.cls-4{fill:#b8d8ef;}.cls-5{stroke:#22565a;stroke-miterlimit:10;stroke-width:2px;}</style></defs><g id="Слой_6" data-name="Слой 6"><path class="cls-1" d="M929,795.47c0,3.45-.14,6.9-.41,10.34-.13,1.66-.3,3.33-.49,5l-.15,1.24s-.09.62,0,.21,0,.28,0,.38c-.12.82-.24,1.64-.37,2.46a129.53,129.53,0,0,1-4.68,19.42q-1.5,4.61-3.33,9.09c-.08.18-.48,1.14-.22.53l-.48,1.11c-.34.79-.69,1.57-1,2.35q-1,2.19-2.09,4.33a128.92,128.92,0,0,1-10,16.49c-.95,1.34-1.93,2.67-2.93,4l-.24.31-.74.94c-.53.66-1.07,1.32-1.61,2q-3,3.64-6.34,7.07t-7,6.71c-1.18,1-2.38,2.09-3.6,3.1-.6.51-1.22,1-1.84,1.5l-.93.74-.4.31c-.5.39.68-.51-.18.14a133.79,133.79,0,0,1-16.11,10.52q-4.27,2.35-8.72,4.38c-.68.31-1.36.62-2,.91l-1.11.48c.61-.26-.47.19-.69.28-1.5.61-3,1.2-4.51,1.75a127.48,127.48,0,0,1-19,5.32c-1.68.34-3.36.64-5,.91l-2.28.34-.38.05-.21,0-1.42.17q-5.1.6-10.23.79a131.45,131.45,0,0,1-20.42-.83l-1.24-.15c-.45-.06,0,0,.11,0l-.7-.09-2.46-.38c-1.63-.26-3.25-.55-4.87-.88q-4.9-1-9.71-2.35t-9.41-3.06c-1.51-.56-3-1.14-4.5-1.76l-.64-.26c.06,0,.5.21.1,0l-1.1-.48c-.74-.32-1.47-.64-2.2-1a128.39,128.39,0,0,1-17-9.44q-4-2.62-7.76-5.52l-.45-.35-.93-.74c-.66-.54-1.32-1.07-2-1.62q-1.83-1.51-3.6-3.11a130.06,130.06,0,0,1-13.26-13.81c-.51-.61-1-1.23-1.5-1.85l-.74-.93-.31-.4c.23.3.14.18,0,0-1-1.31-2-2.63-2.92-4q-2.79-4-5.29-8.14t-4.61-8.39q-1.08-2.15-2.08-4.33c-.33-.73-.66-1.46-1-2.2-.06-.16-.13-.31-.2-.47l-.15-.35c.16.38-.06-.15-.08-.18-.1-.27-.22-.53-.32-.8a127.34,127.34,0,0,1-6-18.68q-1.17-4.89-2-9.86c-.12-.76-.23-1.52-.34-2.28,0-.13-.09-.74,0-.07,0-.17,0-.35-.07-.53-.05-.47-.11-.94-.17-1.41-.19-1.67-.35-3.33-.47-5A131,131,0,0,1,678,785c.14-1.72.31-3.45.52-5.17l.15-1.24c-.08.64,0-.2.06-.41.13-.88.26-1.76.4-2.63q.81-5,2-9.84A131.36,131.36,0,0,1,687.19,747c.06-.16.13-.32.2-.48-.26.61,0,.06,0,0l.41-1c.35-.79.7-1.57,1.06-2.35.69-1.51,1.42-3,2.17-4.48,1.44-2.84,3-5.63,4.65-8.36s3.46-5.47,5.34-8.1c.43-.6.86-1.2,1.3-1.79.23-.32.47-.64.71-1l.41-.55c0-.05.46-.59.22-.29s.1-.13.13-.16l.42-.53.74-.93c.53-.66,1.07-1.32,1.61-2a131.23,131.23,0,0,1,13.34-13.75c1.18-1.05,2.39-2.08,3.61-3.09l1.85-1.49c.26-.22.53-.43.8-.64.07,0,.63-.49.29-.22s.24-.19.29-.23c2.58-1.95,5.21-3.82,7.93-5.58a129.86,129.86,0,0,1,16.92-9.29l2.2-1,.53-.23,1.28-.52q2.24-.92,4.51-1.74,4.57-1.65,9.26-3t9.73-2.31c1.62-.32,3.24-.61,4.87-.87.82-.13,1.64-.25,2.47-.36.44-.06-.05,0-.12,0l.71-.09,1.42-.17a131.65,131.65,0,0,1,20.44-.72c3.41.15,6.82.43,10.21.84l1.06.14.59.08,2.63.4c1.63.27,3.25.57,4.87.9a128.39,128.39,0,0,1,19.1,5.46c1.51.56,3,1.16,4.49,1.77l.19.08c-.41-.18.26.1.35.14l.94.41,2.35,1.06q4.44,2.05,8.7,4.44t8.16,5q2.06,1.35,4.07,2.79l1.78,1.3,1,.71c.18.15,1.1.85.58.45a130.11,130.11,0,0,1,14.23,12.83q3.35,3.5,6.42,7.23l1.5,1.85.63.8c.07.1.43.56,0,.05l.42.54c1,1.26,1.89,2.54,2.81,3.84a130.82,130.82,0,0,1,10,16.69c.71,1.44,1.4,2.88,2.06,4.34.33.73.66,1.47,1,2.2.08.19.39,1,.16.37.17.43.35.85.52,1.28q1.86,4.57,3.35,9.27a128.89,128.89,0,0,1,4.55,19.28c.13.82.25,1.64.36,2.47-.09-.68.05.39.07.59l.15,1.24c.18,1.61.33,3.21.46,4.82.25,3.32.37,6.65.38,10a3.75,3.75,0,0,0,7.5,0,132.68,132.68,0,0,0-24.42-76.86A135.89,135.89,0,0,0,884,689.51a133.09,133.09,0,0,0-183.32,21.06,135.39,135.39,0,0,0-20.8,34.79,131.85,131.85,0,0,0-9.39,40,133.24,133.24,0,0,0,252,69.62,132.06,132.06,0,0,0,12.36-38.73,138.51,138.51,0,0,0,1.63-20.74,3.75,3.75,0,0,0-7.5,0Z" transform="translate(-295.86 -228.12)"/><circle class="cls-1" cx="567.75" cy="376.58" r="29.85"/><path class="cls-1" d="M830,604.7a33.75,33.75,0,1,0,.47-5.5,38.87,38.87,0,0,0-.47,5.5,3.75,3.75,0,0,0,7.5,0c0-.76,0-1.52.09-2.28,0-.34.06-.69.09-1l.06-.52c0,.38,0,.32,0,0a31.24,31.24,0,0,1,1-4.27c.22-.69.47-1.37.73-2,.16-.41,0,.07,0,.12.06-.15.13-.3.2-.45.16-.35.33-.7.5-1a29.36,29.36,0,0,1,2.29-3.81c.09-.12.6-.82.39-.54l.42-.52q.74-.88,1.53-1.71c.46-.47.93-.92,1.41-1.36.29-.26.57-.51.87-.76l.38-.31s.59-.46.26-.21.42-.31.54-.39.54-.38.82-.56c.64-.42,1.3-.82,2-1.19s1.26-.67,1.91-1c.21-.09.92-.39.33-.15l1.08-.42a29.25,29.25,0,0,1,4.21-1.19l1.18-.22c.72-.13-.38,0,.36-.05s1.61-.16,2.42-.18a29.93,29.93,0,0,1,4.54.18c.74.08-.36-.07.36.05l1,.19c.78.15,1.54.34,2.3.55s1.29.39,1.92.61c.37.13.73.28,1.09.42s-.07,0-.13-.06l.61.27a31,31,0,0,1,3.74,2.08l.82.55.53.38.15.11c-.28-.21.4.32.52.42l.87.75a30.35,30.35,0,0,1,3,3l.42.51s.36.47.11.14.3.42.39.54c.44.63.86,1.27,1.25,1.93s.66,1.14,1,1.73c.15.29.3.59.44.89l.21.45c.45.95-.15-.39.08.18a31.63,31.63,0,0,1,1.32,4.14c.16.67.3,1.33.41,2,0,.17.06.34.08.51-.11-.71,0-.12,0,0,0,.41.08.81.11,1.21a28.8,28.8,0,0,1,0,4.55c0,.35-.06.69-.09,1,0,.11-.12.83,0,.36s0,.13,0,.18c-.13.73-.26,1.45-.44,2.17a32.25,32.25,0,0,1-1.32,4.15c-.22.54.23-.51,0,0l-.21.45c-.14.3-.28.6-.43.9-.35.68-.72,1.36-1.12,2s-.7,1.12-1.08,1.66l-.57.79c.43-.58-.3.36-.44.53a29.33,29.33,0,0,1-3,3c-.49.44-1,.87-1.51,1.27.56-.44-.25.17-.42.29-.32.22-.63.44-1,.65a29.69,29.69,0,0,1-3.74,2.08c-.21.09-.92.39-.33.15l-1.08.42c-.69.25-1.38.47-2.08.67s-1.41.37-2.13.52l-1,.19-.5.08c.37-.06.31,0,0,0a32.21,32.21,0,0,1-4.71.18c-.7,0-1.39-.08-2.08-.16l-.51-.06c.06,0,.58.09.14,0l-1.34-.24a29.25,29.25,0,0,1-4.21-1.19l-.93-.36c-.4-.16.07,0,.13.06l-.46-.2c-.7-.33-1.39-.67-2.06-1s-1.24-.71-1.84-1.1l-.81-.55-.4-.29-.28-.2c.28.21-.4-.32-.52-.42q-.44-.36-.87-.75-.78-.71-1.53-1.47c-.49-.51-1-1-1.42-1.58l-.62-.76c.42.53-.17-.25-.3-.43a31.14,31.14,0,0,1-2.29-3.8c-.15-.3-.29-.6-.43-.9s-.4-.91-.15-.32c-.3-.72-.57-1.45-.8-2.2a31.24,31.24,0,0,1-1-4.27c-.13-.73,0,.37-.06-.36,0-.35-.07-.69-.1-1-.07-.81-.09-1.63-.1-2.44a3.75,3.75,0,0,0-7.5,0Z" transform="translate(-295.86 -228.12)"/><path class="cls-1" d="M300.78,317.74c-.58,2.35-2.1,1.48-1.06,1.35.18,0,.35-.07.53-.1.47-.09.94-.17,1.4-.28a15.67,15.67,0,0,0,4.19-1.61,19.32,19.32,0,0,0,5.82-5.39,17.93,17.93,0,0,0,3.67-7.9,33.06,33.06,0,0,0,.53-10.21c-.39-2.76-5.25-2.14-4.91.66.75,6.32,1.73,12.72,5.84,17.82s10.15,6.05,16.21,6.63v-5c-6.85.62-13.05,4.18-15.55,10.81a44.59,44.59,0,0,0-2.17,10.29c-.18,1.48-.3,3-.4,4.45l-.09,1.35c0,.49-.1.22,0-.06-.35.79.53-.71.49-.68l1.11-.64h1.29c1.31,1.78,1.83,2.27,1.58,1.49l0-.15a1.57,1.57,0,0,1-.07-.45c.14.8-.05-.44-.08-.68-.17-1.36-.36-2.71-.63-4.06a30.15,30.15,0,0,0-4-10.17,21.07,21.07,0,0,0-7-7.12,23.38,23.38,0,0,0-5.13-2.17c-.63-.19-1.27-.35-1.89-.53-.22-.06-.43-.14-.65-.19s-.23-.08.14.06a2.4,2.4,0,0,1,.61.62l.34,1.26v-.08a2.57,2.57,0,0,0-2.5-2.5,2.52,2.52,0,0,0-2.5,2.5c.29,2.57,2.56,2.95,4.64,3.54a15.87,15.87,0,0,1,7.11,3.88c3.56,3.59,5.44,8.6,6.26,13.49a30,30,0,0,0,.61,4.15,2.64,2.64,0,0,0,5.12-.14,38.83,38.83,0,0,0,.52-5.8,53.56,53.56,0,0,1,1.52-8.41,11.4,11.4,0,0,1,3.87-6.28,14.47,14.47,0,0,1,7.48-2.79,2.5,2.5,0,0,0,0-5c-4.73-.46-9.59-1.15-12.67-5.17s-3.8-9.37-4.38-14.28l-4.92.67a24.7,24.7,0,0,1-.74,8.63,11.72,11.72,0,0,1-1.58,3.71,18,18,0,0,1-1.86,2.51,11.92,11.92,0,0,1-5.85,3.94c-1.8.5-4.48.42-5,2.69C295.19,319.53,300,320.87,300.78,317.74Z" transform="translate(-295.86 -228.12)"/><path class="cls-1" d="M348.32,545.36c-.58,2.35-2.11,1.48-1.06,1.35.17,0,.35-.07.53-.1.46-.09.93-.17,1.4-.28a15.93,15.93,0,0,0,4.19-1.61,19.5,19.5,0,0,0,5.81-5.38,17.91,17.91,0,0,0,3.67-7.91,32.76,32.76,0,0,0,.53-10.21c-.38-2.76-5.24-2.14-4.91.66.75,6.32,1.73,12.72,5.85,17.82s10.14,6,16.2,6.63v-5c-6.85.63-13,4.18-15.55,10.82a44.9,44.9,0,0,0-2.16,10.28c-.19,1.48-.3,3-.4,4.45l-.09,1.35c0,.49-.1.22,0-.06-.35.79.53-.71.49-.68l1.1-.64h1.3c1.3,1.78,1.83,2.27,1.58,1.49l0-.15s-.07-.41-.08-.45c.15.8,0-.44-.08-.68-.17-1.36-.35-2.71-.62-4.06a30.17,30.17,0,0,0-4-10.17,21,21,0,0,0-7-7.12,23.26,23.26,0,0,0-5.14-2.17c-.63-.19-1.26-.35-1.89-.53-.21-.06-.42-.14-.64-.19s-.23-.08.14.06a2.36,2.36,0,0,1,.6.62l.34,1.26v-.07a2.58,2.58,0,0,0-2.5-2.5,2.5,2.5,0,0,0-2.5,2.5c.28,2.56,2.55,2.94,4.63,3.53a16,16,0,0,1,7.12,3.88c3.56,3.59,5.44,8.6,6.26,13.49a29.84,29.84,0,0,0,.6,4.15,2.64,2.64,0,0,0,5.13-.14,37.43,37.43,0,0,0,.51-5.8,54.76,54.76,0,0,1,1.53-8.41,11.29,11.29,0,0,1,3.87-6.28,14.44,14.44,0,0,1,7.47-2.79,2.5,2.5,0,0,0,0-5c-4.73-.46-9.58-1.15-12.66-5.16s-3.81-9.38-4.39-14.29l-4.91.67a25.18,25.18,0,0,1-.74,8.63,12,12,0,0,1-1.58,3.71,18.81,18.81,0,0,1-1.86,2.51,11.9,11.9,0,0,1-5.86,3.94c-1.79.5-4.48.42-5,2.69C342.73,547.16,347.55,548.49,348.32,545.36Z" transform="translate(-295.86 -228.12)"/><path class="cls-1" d="M357,262.18c-1.12,1.09-1.4,1.47-.86,1.15-.4.16-.46.2-.19.11a3.06,3.06,0,0,0,.57-.12c.61-.13,1.24-.22,1.85-.35a21.87,21.87,0,0,0,5.48-2,23.94,23.94,0,0,0,7.66-6.78,24.6,24.6,0,0,0,5.25-11.1c.74-4.35,1.32-8.84.69-13.23-.4-2.76-5.24-2.14-4.91.66,1,8.29,2.25,16.76,7.62,23.48a21.17,21.17,0,0,0,9.36,6.62c3.84,1.41,8,1.79,12,2.18v-5c-7,.62-13.81,3.58-17.92,9.46a25,25,0,0,0-3.54,8.77,90.92,90.92,0,0,0-1.91,11.59c-.15,1.51-.25,3-.35,4.55,0,.51-.09,1-.11,1.53s.19-.51,0,0c0,0,0,.1,0,.14.36-.6.35-1.75,2.19-1.54l1.26.34c.26.12,1.09,1,1,1.2a2.09,2.09,0,0,0-.08-.34c0-.12,0-.25-.07-.38-.06-.32.06.51,0-.15-.14-1.24-.3-2.48-.48-3.71a43.93,43.93,0,0,0-2.42-9.44c-2.73-7.05-7.37-13.82-14.36-17.15a36.94,36.94,0,0,0-5.85-2.15c-.67-.19-1.35-.36-2-.56-.15,0-.88-.2-.56-.16s.12.08,0,0-.16-.08.05.06a1.85,1.85,0,0,1,.76,1.6,2.56,2.56,0,0,0-2.5-2.5,2.51,2.51,0,0,0-2.5,2.5c.2,3,3.75,3.38,6.06,4.06a21.93,21.93,0,0,1,9.81,5.57c4.77,4.92,7.37,11.68,8.5,18.34.24,1.39.3,1.91.45,3.15a16.67,16.67,0,0,0,.37,2.55,2.7,2.7,0,0,0,5.31-.33c.49-2.6.4-5.34.68-8a70.09,70.09,0,0,1,2.2-11.66,15.81,15.81,0,0,1,5.47-8.46,20.53,20.53,0,0,1,10.62-3.93,2.5,2.5,0,0,0,0-5,45,45,0,0,1-10.12-1.79,16.29,16.29,0,0,1-7.67-5.45c-4.42-5.65-5.41-13.13-6.23-20l-4.91.67a24.92,24.92,0,0,1-.13,6.28,52.62,52.62,0,0,1-.81,5.61A21.45,21.45,0,0,1,367,252a17.14,17.14,0,0,1-8.2,5.74c-2,.59-6,.46-6.57,3.13a2.56,2.56,0,0,0,1.75,3.07A2.53,2.53,0,0,0,357,262.18Z" transform="translate(-295.86 -228.12)"/><circle class="cls-2" cx="145.57" cy="78.99" r="11.41"/></g><g id="Слой_5" data-name="Слой 5"><path class="cls-3" d="M578.69,375.63c20.26-13.59,63-38,114.29-34.92,15.52.91,38.26,2.58,54.15,19.18,2.23,2.33,9.42,10.29,16.55,34.38a208.84,208.84,0,0,1,8.67,63.86c-2.62,61.6-13.65,87.47-19.6,152.45-2.93,31.87-4.39,47.81-2.76,61.45,6,50.5,34.8,112.77,45.08,163.42,1.11,5.46,2.9,16.67-2.46,21.69-7.08,6.64-18.65,1.41-26.14-4.77-43.54-35.86-61.21-95.29-102.29-133.93-4-3.73-8.79-7.46-14.2-6.91-10,1-12.48,14.24-12.21,24.24A911,911,0,0,0,653,878.42c1.32,7.05,2.43,15.23-2.32,20.6-4.2,4.73-11.72,5.25-17.53,2.77s-10.25-7.32-14.21-12.25c-38-47.35-47.1-111-72.2-166.29-2.61-5.75-6.76-12.3-13.07-12.12-5.22.14-9,4.9-11.85,9.26C489.79,768.87,465.61,824.5,420.62,861.3c-5.54,4.53-12.23,9-19.27,7.74-7.42-1.27-12.52-8.69-13.61-16.13a42.62,42.62,0,0,1,2.95-22.2C406.42,796.48,429,706.3,434.48,679.37c7.12-34.86,5.68-61.68,3.67-99.06-2.5-46.4-9.34-61.84-10.19-117-.5-32.67,1.67-66,20.59-89.25a61.77,61.77,0,0,1,25-18.79c8.87-3.54,18.93-5,36.09-2.79C524.44,354.3,549.27,359.41,578.69,375.63Z" transform="translate(-295.86 -228.12)"/><path class="cls-3" d="M580,377.79C607.42,359.4,639,346,672.23,343.42a173.26,173.26,0,0,1,27.9.27,97.53,97.53,0,0,1,24,4.66c12,4.15,21.78,11.74,27.76,22.79,4.24,7.83,7.17,16.34,9.64,24.87a212.24,212.24,0,0,1,6.67,32,203.12,203.12,0,0,1,1.25,37.22,527.86,527.86,0,0,1-6,54.67c-2.72,16.89-5.91,33.69-8.42,50.62C752,591.28,750,612.12,748.25,633c-1.12,13.36-2.29,26.92-.6,40.28,5,39.67,20.06,77.5,32.08,115.39,3,9.41,5.86,18.86,8.41,28.4,2.18,8.17,4.68,16.64,5.46,25.09.33,3.64.48,7.8-1.22,11.15-2,3.87-6.47,4.91-10.45,4.21-9-1.6-16.3-8.76-22.6-14.89-26.74-26-43.05-60.21-64-90.6a257.24,257.24,0,0,0-16.75-22q-4.46-5.21-9.29-10c-3.28-3.29-6.7-6.77-10.85-9-7.22-3.8-15.25-1.76-19.33,5.36-3.92,6.81-4,15.06-3.78,22.68a936.48,936.48,0,0,0,15.23,140c1.53,8.27,2.46,20.54-8.85,21.61-10.26,1-17.6-8.38-23.16-15.65-11.91-15.55-21-33.08-28.54-51.11-15.14-36.3-24.45-74.77-40.57-110.69-3.1-6.9-8.34-15.85-17.27-14.46s-13.71,12.05-18,18.75c-10.55,16.6-20.29,33.7-30.47,50.53s-20.7,33.33-32.95,48.65a235.77,235.77,0,0,1-19.21,21.37c-3.44,3.36-7,6.61-10.68,9.71-4,3.39-8.35,7-13.51,8.41-10.2,2.84-16.78-6.83-17.47-15.87-.59-7.61,1.26-14.49,4.23-21.37a382.77,382.77,0,0,0,13.26-37.07c9.21-29.31,17.09-59.07,24.25-88.95,3-12.36,5.88-24.75,7.73-37.34,2.95-20,3.22-40.21,2.44-60.41-.75-19.13-1.78-38.26-4-57.27-1.73-14.79-4-29.5-5.34-44.33a475.88,475.88,0,0,1-1.92-59.82c.67-19.39,3.14-39.62,12.46-57,7.54-14,19.79-25.86,35.24-30.6,14.81-4.55,31.4-1.94,46.24,1.33a199.78,199.78,0,0,1,52.9,20.25c2.82,1.55,5.35-2.77,2.53-4.32a204.19,204.19,0,0,0-55.11-21c-15.23-3.26-32.08-5.76-47.29-1.3-15.38,4.52-28.08,15.5-36.45,29-10.37,16.71-13.92,36.7-15.15,56.05-1.31,20.55-.56,41.38,1.08,61.89,1.24,15.4,3.47,30.67,5.36,46,2.33,19,3.47,38,4.3,57.11.91,20.72,1,41.51-1.95,62.08-1.87,13-4.87,25.83-7.94,38.6q-5.24,21.87-11.12,43.57c-7.64,28.28-15.31,57.12-27.16,84a43.89,43.89,0,0,0-3.2,24.13c1.22,7.89,6.73,16.12,15,17.79,10.11,2.06,18.8-5.38,25.9-11.51a212,212,0,0,0,21-21c26.25-30.08,44.83-65.7,65.6-99.53q3.94-6.42,8-12.74c2.55-4,5-8.78,9-11.53,9.19-6.4,14.85,9.28,17.44,15.31,8,18.57,14.29,37.82,20.69,57,12.43,37.21,25.46,76.61,51.63,106.75,6,6.9,14.07,12.85,23.69,11.42s13.82-9.74,13.43-18.69c-.23-5.05-1.4-10-2.29-15q-1.62-8.9-3-17.83-2.89-18.07-5-36.25-4.23-35.65-5.63-71.57c-.33-8.54-1.62-18.46,2.39-26.43,1.58-3.14,4.16-5.67,7.86-5.76,5.24-.12,9.61,4.34,13.09,7.71,27.4,26.49,43.9,61.5,65.4,92.46,10.47,15.1,22.36,30.25,37.13,41.4,6.5,4.91,16.08,9.6,24.2,5.86,7.69-3.55,8.63-12.46,7.84-19.95-.89-8.4-3.19-16.73-5.34-24.87-2.6-9.83-5.56-19.57-8.63-29.26-6.36-20-13.27-39.87-19.34-60-5.58-18.49-10.9-37.48-12.89-56.75-1.46-14.22.13-28.72,1.37-42.88,1.86-21.37,4.06-42.67,7.42-63.87,2.67-16.9,5.9-33.72,8.43-50.65,4.72-31.65,7.65-63.53,2.19-95.25a202.81,202.81,0,0,0-8.47-33.09A98.06,98.06,0,0,0,754,364.72c-7.2-11.3-19.21-18.56-31.88-22.29a114.79,114.79,0,0,0-23.66-3.87,170.54,170.54,0,0,0-29.55.15,184.75,184.75,0,0,0-55,14.71,231.05,231.05,0,0,0-36.49,20.05C574.77,375.25,577.27,379.59,580,377.79Z" transform="translate(-295.86 -228.12)"/><path class="cls-1" d="M434.65,662.63c-11.2-3.12-25-1.85-31.94,7.45-4.47,6-5.19,14.1-3.62,21.4s5.17,14,8.72,20.53c-19.23,3.33-35.33,20.14-37.83,39.5s8.8,39.7,26.56,47.81c-.1-11.93,6.84-22.58,11.6-33.51,13.79-31.62,10-68.58,22.74-100.61a83,83,0,0,1-3.8,28.56" transform="translate(-295.86 -228.12)"/><path class="cls-1" d="M435.31,660.22c-9.46-2.59-20.87-2.53-29.21,3.24-9.72,6.74-11.85,19.11-9.11,30,1.76,7,5.24,13.47,8.66,19.79l1.5-3.67c-15.59,2.77-29.36,14-35.82,28.38a45.76,45.76,0,0,0-4,23.35,50.7,50.7,0,0,0,7.9,22.48,48.41,48.41,0,0,0,20,17.67,2.54,2.54,0,0,0,3.77-2.16c0-8.86,4-17,7.76-24.77A137.2,137.2,0,0,0,416.47,749c4.54-17.63,5.83-35.86,9-53.74a149.5,149.5,0,0,1,7.86-29.41l-4.91-.66a82.21,82.21,0,0,1-3.71,27.9c-1,3.08,3.87,4.39,4.83,1.33a86.66,86.66,0,0,0,3.88-29.23c-.11-3-3.89-3.23-4.91-.67-6.75,17-8.88,35.3-11.38,53.29-1.27,9.09-2.63,18.19-4.76,27.12a124.88,124.88,0,0,1-9,25.32c-4.43,9.19-9.32,18.6-9.3,29.06l3.76-2.16c-13.33-6.15-22.69-19.09-25.12-33.49S376.21,734.73,387,725a43.63,43.63,0,0,1,21.53-10.62c1.65-.29,2.2-2.37,1.49-3.67-5-9.3-10.8-19.81-8.76-30.79a18.86,18.86,0,0,1,6.84-11.77,23.57,23.57,0,0,1,11.12-4.32A37.42,37.42,0,0,1,434,665c3.11.85,4.43-4,1.33-4.82Z" transform="translate(-295.86 -228.12)"/><path class="cls-1" d="M430.6,403.23a48.74,48.74,0,0,0-16.74,3.38,27,27,0,0,0-6.52,3.53c-5.78,4.46-8.41,12.13-8.22,19.42s2.88,14.29,6.1,20.84c4.16,8.44,9.55,16.68,17.56,21.61,1.27-11.19-1.33-22.41-2.16-33.64s.49-23.51,8.11-31.8q-1.56,13.37-3.75,26.65a52.85,52.85,0,0,1-1.26-12.6,86.57,86.57,0,0,1-1.12,14.82" transform="translate(-295.86 -228.12)"/><path class="cls-1" d="M430.6,400.73a49.22,49.22,0,0,0-21.2,5.16,23.45,23.45,0,0,0-11.57,14.38c-1.91,6.39-1.37,13.22.47,19.56a78.41,78.41,0,0,0,8.45,18.6c3.78,6.21,8.55,11.86,14.77,15.74,1.76,1.09,3.57-.38,3.76-2.16,1.91-17.58-5.71-35.43-.66-52.79a27.54,27.54,0,0,1,5.88-10.88l-4.27-1.77q-1.53,13-3.66,26h4.82a52.08,52.08,0,0,1-1.17-11.94h-5a85,85,0,0,1-1,14.16,2.57,2.57,0,0,0,1.75,3.07A2.5,2.5,0,0,0,425,436.1a93.3,93.3,0,0,0,1.21-15.48c0-3.22-5-3.22-5,0a58.06,58.06,0,0,0,1.35,13.27c.51,2.31,4.42,2.45,4.82,0q2.24-13.62,3.84-27.32c.26-2.17-2.89-3.28-4.27-1.77-5.69,6.29-8.16,14.45-8.85,22.77-.77,9.19.87,18.29,1.85,27.4a78.94,78.94,0,0,1,.32,17l3.77-2.16A39.08,39.08,0,0,1,412.37,458a77.5,77.5,0,0,1-8.19-16.2c-2-5.57-3.3-11.67-2.16-17.58,1-5,3.44-9.89,7.83-12.76,6-3.91,13.71-5.5,20.75-5.69,3.21-.08,3.23-5.08,0-5Z" transform="translate(-295.86 -228.12)"/><path class="cls-1" d="M546.44,358.33c-.51-11.66,10.67-20.69,21.87-24s23.28-2.93,34.31-6.77a5.7,5.7,0,0,0,2.85-1.73c1.34-1.82.31-4.34.07-6.59-.78-7.6,7.77-12.46,15.07-14.72A171.08,171.08,0,0,1,650,298.2c8.73-1.09,19.09-.86,24.38,6.17,2.13,2.85,3.07,6.4,3.83,9.87a144.91,144.91,0,0,1,3.12,23.27c-13.64-.55-27,3.73-39.83,8.39q-27.6,10-54.2,22.58c-2.34,1.11-4.77,2.25-7.36,2.2a16.66,16.66,0,0,1-5.79-1.55l-29-11.68" transform="translate(-295.86 -228.12)"/><path class="cls-1" d="M548.94,358.33c-.37-10.94,10.24-18.58,19.7-21.45,6.66-2,13.63-2.68,20.49-3.7a94.13,94.13,0,0,0,10.25-2c3-.8,7.1-1.62,8.61-4.7s-.23-5.81,0-8.83a8.59,8.59,0,0,1,2.93-5.22c4-3.82,9.7-5.38,14.9-6.83a172.88,172.88,0,0,1,21.47-4.55c5.4-.78,11.1-1.42,16.48-.2a15.14,15.14,0,0,1,7.19,3.51c2.5,2.36,3.6,5.6,4.39,8.87a133.36,133.36,0,0,1,3.42,24.27l2.5-2.5c-9.32-.34-18.59,1.46-27.49,4.11s-17.64,6-26.3,9.36-17.53,7-26.17,10.84q-6.51,2.87-12.94,5.88a42.88,42.88,0,0,1-6,2.61,9.43,9.43,0,0,1-6.29-.58c-10.17-3.83-20.2-8.13-30.28-12.19a2.52,2.52,0,0,0-3.08,1.75,2.56,2.56,0,0,0,1.75,3.07l27.14,10.94a29.76,29.76,0,0,0,6.72,2.22,13.4,13.4,0,0,0,6.88-.91c4.4-1.73,8.63-4,12.94-5.92a521.63,521.63,0,0,1,52.7-20.91c9.85-3.21,20-5.65,30.45-5.27a2.51,2.51,0,0,0,2.5-2.5,149.55,149.55,0,0,0-3.11-23.46,30.47,30.47,0,0,0-3.47-9.88,17.11,17.11,0,0,0-6.43-6c-5.18-2.79-11.36-3.19-17.13-2.79a138.22,138.22,0,0,0-21.74,3.56c-6.51,1.51-13.37,3.06-19.29,6.28-4.91,2.68-9.63,7.11-9.64,13.11a35.19,35.19,0,0,0,.59,4.33c.18,1.37,0,1.9-1.27,2.43a50.89,50.89,0,0,1-10.47,2.66c-7.17,1.27-14.47,1.81-21.56,3.54-12.58,3.07-26.83,12.57-26.34,27.08.11,3.21,5.11,3.23,5,0Z" transform="translate(-295.86 -228.12)"/><path class="cls-1" d="M706.45,338.68a78.66,78.66,0,0,1,8.25-11.12,23.87,23.87,0,0,1,5.59-4.93c4.65-2.71,10.39-2.49,15.77-2.19a33.91,33.91,0,0,1,8.58,1.21c7.38,2.37,12.27,9.46,15.05,16.7a18.4,18.4,0,0,1,1.55,8.37c-.59,5.44-5,9.54-9.17,13.11a20.29,20.29,0,0,0-10.26-10.28,40,40,0,0,0-7.54-2.21l-25.11-5.61,1.39,1.49" transform="translate(-295.86 -228.12)"/><path class="cls-1" d="M708.61,339.94a75.13,75.13,0,0,1,5.61-8,34,34,0,0,1,6.28-6.51c4.77-3.35,11-2.8,16.47-2.47a23.63,23.63,0,0,1,8.45,1.62,18.68,18.68,0,0,1,6.1,4.63,31,31,0,0,1,7.08,14.11c1.26,6.38-3.94,11-8.29,14.71l3.92.51a22.6,22.6,0,0,0-6.93-8.63,27.54,27.54,0,0,0-10.78-4.65c-8.88-2.07-17.8-4-26.69-6a2.52,2.52,0,0,0-2.43,4.18l1.39,1.48c2.2,2.36,5.73-1.18,3.53-3.53L710.93,340l-2.43,4.18,25.33,5.66c3.62.81,7.13,1.71,10.19,3.89a18.08,18.08,0,0,1,5.89,7.4c.72,1.58,2.84,1.45,3.93.51,4.78-4.13,9.77-9,10-15.78.1-3.64-1.23-7.17-2.65-10.45a36,36,0,0,0-4.29-7.45,26.64,26.64,0,0,0-6.7-6.4,22.32,22.32,0,0,0-9.53-3.22,72.81,72.81,0,0,0-10.44-.52,24.79,24.79,0,0,0-9.7,2c-3.57,1.61-6.28,4.52-8.77,7.46a84.58,84.58,0,0,0-7.43,10.22c-1.7,2.75,2.63,5.26,4.32,2.53Z" transform="translate(-295.86 -228.12)"/><path class="cls-1" d="M765.6,386c9.86-2.06,20.48-3.82,29.72.2,11.06,4.8,17.35,16.91,19.23,28.82,3.5,22.24-6.39,46.07-24.62,59.27,7,4.22,11.12,12.16,12.23,20.24s-.5,16.29-2.95,24.06c-2.12,6.7-5,13.33-9.66,18.55S778,546,771,545.54a5,5,0,0,1-2.77-.81c-1.7-1.26-1.54-3.81-1.22-5.91,7.71-50.53,8.84-102.66-3.2-152.33" transform="translate(-295.86 -228.12)"/><path class="cls-1" d="M766.26,388.37c9-1.87,19-3.74,27.8-.06,7.13,3,12.18,9.51,15.07,16.49,6.18,14.89,4.15,32.58-3.11,46.7a58.63,58.63,0,0,1-17.36,20.59,2.54,2.54,0,0,0,0,4.32c5.62,3.47,9.08,9.45,10.54,15.77,1.84,7.92.41,16.24-1.85,23.91-2.1,7.1-4.92,14.38-10.11,19.83a23.53,23.53,0,0,1-8.39,5.82A18.66,18.66,0,0,1,774,543c-1.08.11-3.27.47-4.21-.23-.76-.57-.44-2.38-.33-3.28.27-2,.62-4.08.9-6.12.63-4.4,1.2-8.79,1.72-13.2q1.52-12.79,2.36-25.66a408.45,408.45,0,0,0,.24-51.42,333.21,333.21,0,0,0-7-51c-.46-2.09-1-4.17-1.45-6.26-.75-3.12-5.58-1.8-4.82,1.33a320,320,0,0,1,8.07,53.32,407.82,407.82,0,0,1-.08,54.27q-.9,13.58-2.55,27.08-.79,6.64-1.78,13.27c-.53,3.58-1.86,8.31,1.15,11.2,2.82,2.7,8.09,1.94,11.51,1.06a27.57,27.57,0,0,0,10.4-5.45c6.31-5.13,10.07-12.73,12.68-20.28,5.18-15,7.35-34.15-5.28-46.19a27,27,0,0,0-4.35-3.34v4.32a65.71,65.71,0,0,0,26.1-45c2-16.61-2.71-37.51-18.43-46.28-10.46-5.83-22.77-3.89-33.93-1.57a2.5,2.5,0,0,0,1.33,4.82Z" transform="translate(-295.86 -228.12)"/><path class="cls-4" d="M477.38,356.51q31,22.32,62.92,43.25a3.36,3.36,0,0,0,2.26.77,3.29,3.29,0,0,0,1.69-1.12L569.9,373l-46.27-13.89a63.69,63.69,0,0,0-10-2.42c-3.68-.49-7.41-.33-11.12-.48a68.74,68.74,0,0,1-19.77-3.72c-1.18-.41-2.49-.84-3.62-.33s-1.48,2.49-.3,2.89" transform="translate(-295.86 -228.12)"/><path class="cls-4" d="M476.12,358.67q19.26,13.88,38.9,27.22,9.72,6.6,19.52,13.07c1.5,1,3,2,4.5,3,1.79,1.12,3.82,1.6,5.7.35a25.11,25.11,0,0,0,3.7-3.59L553,394l18.72-19.25a2.53,2.53,0,0,0-1.11-4.18l-40.78-12.25c-6.58-2-13-4.17-20-4.47-3.44-.14-6.88-.06-10.31-.35a63.24,63.24,0,0,1-9.76-1.59c-1.83-.44-3.63-1-5.42-1.55s-3.57-1.28-5.45-.77c-3.2.88-4.75,5.95-1.28,7.6a2.56,2.56,0,0,0,3.42-.9,2.51,2.51,0,0,0-.9-3.42c.67.32.37.94.37,1.34,0,1.15-.45-.1-.15.2.09.09.59.1.77.15,1.47.4,2.9,1,4.36,1.39a70.09,70.09,0,0,0,8.71,1.91,73.19,73.19,0,0,0,9.34.86c3.07.09,6.14,0,9.19.34,5.92.61,11.74,2.88,17.41,4.58l18.36,5.52,20.75,6.23-1.1-4.18L552,387.83l-8.14,8.38a9.64,9.64,0,0,0-1.64,1.68l-.25.23c-.21.07-.06.06.45,0a5.12,5.12,0,0,1-.87-.48c-1.65-1.05-3.27-2.15-4.9-3.23Q517.87,382,499.4,369.08q-10.42-7.29-20.76-14.73a2.52,2.52,0,0,0-3.42.9,2.56,2.56,0,0,0,.9,3.42Z" transform="translate(-295.86 -228.12)"/></g><g id="Слой_3" data-name="Слой 3"><path class="cls-2" d="M581.22,380c27.08-18.14,58.26-31.47,91-34a173.26,173.26,0,0,1,27.9.27,94.48,94.48,0,0,1,23.38,4.57,50.18,50.18,0,0,1,20.35,12.95c.38.4.74.81,1.1,1.24l.6.72c.51.63-.17-.22-.22-.29l.6.82a59.93,59.93,0,0,1,3.84,6.21c4.14,7.64,7,15.94,9.39,24.26a208.81,208.81,0,0,1,6.58,31.38A202.24,202.24,0,0,1,767,465.27a520.38,520.38,0,0,1-5.93,54c-2.72,16.89-5.91,33.7-8.42,50.62-3.11,21-5.15,42-6.9,63.1-1.12,13.36-2.29,26.92-.6,40.28,5,39.92,20.07,77.92,32.17,116.05,3,9.41,5.86,18.86,8.41,28.4,2.12,7.94,4.62,16.24,5.37,24.43.29,3.18.53,6.94-.88,9.89s-4.72,3.52-7.63,3.06c-8.55-1.35-15.57-8.49-21.49-14.25C734.52,815,718.32,781,697.53,750.75a265.42,265.42,0,0,0-17.14-22.51c-3-3.46-6.06-6.83-9.29-10-3.43-3.43-7-7.06-11.36-9.34-8.41-4.43-18-2.07-22.75,6.25-4.14,7.21-4.37,15.88-4.12,23.95a940.2,940.2,0,0,0,15.32,140.7c1.21,6.57,2.77,17.36-6.44,18.44s-16.06-8-21-14.41c-11.79-15.34-20.86-32.7-28.29-50.52-15.22-36.5-24.61-75.16-40.82-111.28-3.63-8.09-9.89-17.35-20.09-15.62-9.57,1.63-14.78,12.53-19.46,19.9C501.55,742.87,491.8,760,481.62,776.8c-10,16.56-20.45,33-32.55,48.14a235.92,235.92,0,0,1-19.21,21.37q-5.17,5.06-10.68,9.72c-3.68,3.1-7.69,6.45-12.41,7.76-8.5,2.36-13.74-6-14.31-13.46a38.77,38.77,0,0,1,1.4-13.68c.2-.68.41-1.35.64-2,.08-.25.71-1.89.48-1.35s.32-.68.41-.88l1-2.18a385.51,385.51,0,0,0,13.51-37.67c9.21-29.31,17.09-59.07,24.25-88.94,3-12.36,5.88-24.76,7.73-37.34,3-20.27,3.32-40.64,2.53-61.08-.75-19.13-1.78-38.26-4-57.27-1.73-14.79-4-29.5-5.34-44.33a475.88,475.88,0,0,1-1.92-59.82c.66-18.94,3-38.76,12.12-55.7,7.23-13.45,18.9-24.9,33.75-29.45,7.78-2.39,15.91-2.5,24-1.87,4.29.33,7.22.71,11,1.31q5,.79,10,1.89a197.27,197.27,0,0,1,52.31,20c5.65,3.09,10.7-5.54,5.05-8.64a206.63,206.63,0,0,0-55.71-21.22c-15.65-3.35-33-5.88-48.61-1.3-16,4.7-29.24,16.1-37.94,30.12-10.62,17.09-14.24,37.54-15.5,57.32-1.31,20.55-.56,41.38,1.08,61.89,1.24,15.4,3.47,30.67,5.36,46,2.33,19,3.47,38,4.3,57.11.9,20.48,1.05,41.08-1.86,61.42-1.87,13-4.87,25.83-7.94,38.6q-5.23,21.85-11.12,43.57c-4.27,15.79-8.75,31.52-13.7,47.11a371.47,371.47,0,0,1-13.21,36.27,46.85,46.85,0,0,0-3.45,26c1.36,8.7,7.68,17.71,16.72,19.55,11.15,2.26,20.45-5.36,28.33-12.16a213.07,213.07,0,0,0,21-21c26.4-30.25,45.1-66,66-100q3.93-6.4,8-12.74c2.31-3.58,4.56-8.06,8.08-10.63,7.15-5.22,12.17,10.1,14,14.41,7.91,18.37,14.11,37.43,20.44,56.38,12.57,37.65,25.8,77.36,52.28,107.85,6.64,7.64,15.56,13.7,26.12,12.06s15.7-11.1,15.26-21.1c-.24-5.27-1.45-10.49-2.38-15.67q-1.62-8.89-3-17.83-2.85-17.75-5-35.59-4.23-35.65-5.63-71.57c-.31-8-1.68-17.63,2-25.17,1.27-2.57,3-4.44,5.7-4.52,4.47-.14,8.39,4.13,11.32,7,27.24,26.33,43.64,61.17,65,92,10.74,15.47,22.89,30.86,38,42.29,7.33,5.54,17.73,10,26.72,5.86,8.47-4,10-13.75,9.08-22.11-.92-8.63-3.22-17.16-5.43-25.53-2.6-9.84-5.56-19.57-8.63-29.27-6.36-20-13.27-39.86-19.34-60-5.51-18.27-10.84-37.06-12.8-56.09-1.46-14.22.13-28.72,1.37-42.88,1.84-21.15,4-42.23,7.33-63.2,2.68-16.91,5.91-33.72,8.43-50.65a501,501,0,0,0,5.4-56.16,197.79,197.79,0,0,0-3.2-40.42,203.87,203.87,0,0,0-8.48-33.09,101.19,101.19,0,0,0-9.54-20.74c-7.55-11.85-20.07-19.53-33.38-23.44a117,117,0,0,0-24.32-4,170.54,170.54,0,0,0-29.55.15,188.73,188.73,0,0,0-56.23,15.05,230.61,230.61,0,0,0-36.49,20.05C570.85,374.88,575.85,383.54,581.22,380Z" transform="translate(-295.86 -228.12)"/><path class="cls-2" d="M576.17,371.31a82.8,82.8,0,0,0-31.84,26.94c-1.53,2.13-.45,5.65,1.79,6.84a5.14,5.14,0,0,0,6.84-1.8c.38-.52.75-1,1.14-1.56s.49-.69,0-.08c.21-.28.44-.56.66-.84q1.44-1.8,3-3.51a78.47,78.47,0,0,1,7.71-7.44l1.13-.93c.14-.11,1.22-1,.48-.39.73-.56,1.47-1.11,2.22-1.64q2.08-1.48,4.28-2.84a78.56,78.56,0,0,1,7.61-4.11c2.37-1.12,3.17-4.71,1.79-6.84a5.13,5.13,0,0,0-6.84-1.8Z" transform="translate(-295.86 -228.12)"/><path class="cls-2" d="M546.88,510.61c0,.87,0,1.74-.1,2.61,0,.4-.08.8-.11,1.2,0,.6.2.23.05-.31a2.51,2.51,0,0,1-.13.85,34.31,34.31,0,0,1-1.19,4.9c-.12.37-.52,2.21-.86,2.35,0,0,.43-.94.19-.44-.1.2-.18.41-.27.61-.21.45-.42.89-.65,1.33a33.37,33.37,0,0,1-2.54,4.21c-.16.22-.69,1.17-.39.54s-.26.33-.42.52c-.55.67-1.13,1.32-1.73,1.95s-1.16,1.15-1.76,1.69c-.28.26-.57.51-.86.76l-.5.41c-.17.14-.93.53-.27.22s-.32.22-.54.38-.72.5-1.09.74c-.68.44-1.39.87-2.1,1.26s-1.46.78-2.2,1.12c-.27.12-1.3.43-.62.28s0,0-.17.06l-.78.29A34.71,34.71,0,0,1,523,539.5c-.44.09-.89.17-1.33.24l-.51.08c-.69.11,1-.11.31-.05-.86.08-1.72.17-2.59.2a42.08,42.08,0,0,1-5.38-.2c-.7-.06,1,.16.31.05l-.51-.08c-.45-.07-.89-.15-1.34-.24-.88-.18-1.75-.39-2.61-.64s-1.49-.45-2.23-.72c-.18-.06-1.17-.3-1.24-.47,0,0,.94.42.44.18l-.76-.34a35.44,35.44,0,0,1-4.31-2.38l-1.08-.74c-.19-.13-1.21-.71-.54-.38s-.33-.27-.52-.43q-.57-.47-1.11-1a33.16,33.16,0,0,1-3.39-3.52,3.8,3.8,0,0,1-.72-.88c.22.64.48.64.19.23-.12-.18-.26-.35-.38-.53-.5-.72-1-1.45-1.43-2.2s-.77-1.33-1.11-2c-.2-.39-.4-.78-.58-1.18l-.21-.45c-.41-.9-.15,0,.05.13-.34-.15-.72-2-.85-2.35-.26-.8-.49-1.6-.68-2.42s-.37-1.65-.51-2.48c0-.23-.07-.45-.11-.68-.09-.57.07.49.07.48,0-.49-.12-1-.15-1.54a34.76,34.76,0,0,1,0-5.4c0-.4.08-.8.12-1.2.05-.58-.07.48-.07.48.05-.22.06-.46.1-.68.14-.89.32-1.78.54-2.65s.39-1.52.63-2.26c.14-.44.51-2.33.9-2.5-.17.07-.41.93-.11.28l.27-.61c.16-.35.33-.69.5-1,.4-.78.82-1.54,1.27-2.29s.82-1.3,1.26-1.92l.38-.54c.12-.18.39-.77.09-.14s-.13.16,0,0,.34-.43.52-.63a33.44,33.44,0,0,1,3.51-3.63,7.6,7.6,0,0,1,1.75-1.47c-.68.25-.63.47-.23.19l.53-.38c.36-.25.72-.5,1.08-.73a34.21,34.21,0,0,1,4.31-2.39l.6-.27c.65-.3-.19-.07-.28.11.09-.18.87-.33,1.09-.41.83-.31,1.68-.58,2.54-.82s1.63-.43,2.45-.6l1.17-.21.51-.08c1.14-.19-.82.08-.14,0a42.08,42.08,0,0,1,5.38-.2c.81,0,1.62.1,2.42.18,1,.09-.25-.07-.31-.05a2.85,2.85,0,0,1,.68.1c.44.07.89.15,1.33.24a34.74,34.74,0,0,1,5,1.42c.21.07,1,.24,1.08.41,0,0-1.14-.5-.28-.11l.46.2c.79.37,1.58.76,2.35,1.19s1.42.82,2.1,1.27c.32.2.64.42.95.64l.53.38c.43.3.72.18-.09-.1a7.36,7.36,0,0,1,1.75,1.47c.65.58,1.27,1.18,1.88,1.81s1.11,1.19,1.63,1.82c.21.25.62.58.72.88,0-.06-.71-1-.19-.23.12.18.25.36.38.53a35.59,35.59,0,0,1,2.62,4.35c.17.35.34.69.5,1l.27.61c.3.65.05-.21-.12-.28.35.15.74,2,.86,2.34a35.3,35.3,0,0,1,1.22,5.07c0,.22,0,.46.1.68,0,0-.12-1.06-.07-.48,0,.4.09.8.12,1.2.07.93.1,1.85.11,2.79a5,5,0,0,0,10,0A39.22,39.22,0,0,0,549.71,488a40.54,40.54,0,0,0-18.9-14.44,39.53,39.53,0,0,0-43.48,11.75,40.29,40.29,0,0,0-9.13,22.53,39.28,39.28,0,0,0,22.62,38.46,40.36,40.36,0,0,0,24.68,2.89c15.56-3.06,28.44-16.35,30.81-32.06a44.34,44.34,0,0,0,.57-6.5,5,5,0,0,0-10,0Z" transform="translate(-295.86 -228.12)"/><circle class="cls-5" cx="226.9" cy="268.96" r="20.87"/><path class="cls-2" d="M693.36,504q0,1.3-.09,2.61c0,.4-.08.8-.12,1.2,0,.6.2.23.06-.31a2.79,2.79,0,0,1-.13.85,34.34,34.34,0,0,1-1.2,4.9c-.12.37-.51,2.21-.85,2.35,0,0,.42-.94.18-.44-.09.2-.17.41-.27.61-.2.45-.42.89-.64,1.33a34.67,34.67,0,0,1-2.55,4.21c-.15.22-.68,1.17-.38.54s-.26.33-.42.52q-.84,1-1.74,1.95c-.56.58-1.15,1.15-1.76,1.7l-.86.75-.5.41c-.17.14-.93.54-.26.22s-.33.22-.55.38-.72.5-1.08.74c-.69.44-1.39.87-2.11,1.26s-1.45.78-2.2,1.12c-.26.12-1.29.43-.61.28s0,0-.17.06l-.78.29a34.12,34.12,0,0,1-4.84,1.36c-.45.09-.89.17-1.34.24l-.5.08c-.69.11,1-.11.31,0-.87.08-1.72.17-2.59.2a40.42,40.42,0,0,1-5.39-.2c-.69-.06,1,.16.31,0l-.5-.08c-.45-.07-.9-.15-1.34-.24-.88-.18-1.75-.39-2.62-.64s-1.49-.45-2.22-.72c-.18-.06-1.17-.3-1.24-.47,0,0,.94.42.43.18l-.75-.34a35.44,35.44,0,0,1-4.31-2.38c-.37-.24-.73-.49-1.08-.74-.19-.13-1.22-.71-.55-.38s-.32-.26-.52-.42l-1.11-1a36.34,36.34,0,0,1-3.39-3.52,4.34,4.34,0,0,1-.71-.89c.22.64.48.64.19.23l-.39-.53c-.5-.71-1-1.45-1.43-2.2s-.76-1.32-1.11-2c-.2-.39-.39-.78-.58-1.18l-.2-.45c-.41-.89-.15,0,0,.13-.34-.15-.73-2-.85-2.35-.26-.79-.49-1.6-.69-2.42s-.37-1.65-.51-2.48c0-.23-.07-.45-.1-.68-.09-.56.06.49.06.48a13.37,13.37,0,0,0-.15-1.54,34.77,34.77,0,0,1,0-5.4c0-.4.08-.8.11-1.2.05-.57-.07.48-.07.48,0-.22.07-.45.1-.68.15-.89.33-1.77.54-2.65s.4-1.52.63-2.26c.14-.44.52-2.33.91-2.5-.17.07-.42.93-.12.28l.27-.61c.16-.34.33-.69.51-1,.39-.79.82-1.55,1.27-2.3s.81-1.3,1.25-1.92c.13-.18.25-.36.38-.53s.4-.77.1-.15-.13.16,0,0l.51-.63a33.53,33.53,0,0,1,3.52-3.63,7.6,7.6,0,0,1,1.75-1.47c-.68.25-.63.47-.23.19l.53-.38c.35-.25.71-.5,1.08-.73a34.21,34.21,0,0,1,4.31-2.39l.6-.27c.65-.3-.19-.07-.28.12.09-.19.86-.34,1.08-.42.84-.31,1.69-.58,2.54-.82s1.63-.43,2.46-.6l1.17-.21.5-.08c1.14-.18-.82.08-.14,0a42.17,42.17,0,0,1,5.39-.2c.81,0,1.61.1,2.42.18s-.25-.07-.31,0a2.85,2.85,0,0,1,.67.1c.45.07.89.16,1.34.24a34.74,34.74,0,0,1,5,1.42c.21.07,1,.24,1.08.42,0,0-1.14-.51-.28-.12l.45.2c.8.37,1.58.76,2.35,1.19s1.42.82,2.11,1.27c.32.2.63.42.95.64l.53.38c.43.3.71.18-.1-.1.59.2,1.29,1.06,1.75,1.47.65.58,1.28,1.18,1.88,1.81s1.11,1.19,1.63,1.82c.21.25.62.58.72.89,0-.07-.7-1-.19-.24l.38.53a33.8,33.8,0,0,1,2.62,4.36c.18.34.34.69.51,1l.27.61c.3.65.05-.21-.12-.28.35.15.73,2,.85,2.34a32.83,32.83,0,0,1,1.22,5.07c0,.23.06.46.11.68,0,0-.13-1-.07-.48,0,.4.08.8.11,1.2.08.93.11,1.86.11,2.79a5,5,0,0,0,10,0,39.28,39.28,0,0,0-7.16-22.63,40.64,40.64,0,0,0-18.9-14.44,39.54,39.54,0,0,0-43.48,11.75,40.21,40.21,0,0,0-9.13,22.53,39.26,39.26,0,0,0,22.61,38.46A40.37,40.37,0,0,0,672,542.53c15.56-3.06,28.44-16.34,30.82-32.06a44.32,44.32,0,0,0,.56-6.5,5,5,0,1,0-10,0Z" transform="translate(-295.86 -228.12)"/><circle class="cls-5" cx="373.38" cy="262.32" r="20.87"/><path class="cls-2" d="M567.52,601.36a24.81,24.81,0,0,1,3.15-3.25l.72-.6.28-.23c.46-.4-.9.67-.41.31s1.18-.85,1.79-1.24,1.26-.78,1.92-1.13l1-.49.58-.27c.93-.43-.11-.09-.14,0,.07-.28,2.09-.73,2.41-.83a24.62,24.62,0,0,1,2.83-.63c1.28-.22-.58,0,.36,0,.53,0,1-.08,1.58-.1a29.59,29.59,0,0,1,3.26.1c.71,0,.1-.18-.16,0a2,2,0,0,1,.57.09c.49.08,1,.18,1.47.29a25.59,25.59,0,0,1,2.72.78l1.1.41c.89.34-.29-.08-.29-.12s.61.28.57.26c.72.34,1.43.71,2.11,1.11s1.28.77,1.9,1.2l.85.61c.62.45-1-.83-.19-.14.62.52,1.22,1,1.8,1.61a5,5,0,1,0,7.07-7.07,31.21,31.21,0,0,0-16.64-8.61,30.62,30.62,0,0,0-14.39.92A33.48,33.48,0,0,0,564.9,590a27.21,27.21,0,0,0-4.46,4.32c-1.62,2-2.14,5.11,0,7.07,1.82,1.67,5.33,2.19,7.08,0Z" transform="translate(-295.86 -228.12)"/><path class="cls-2" d="M540.1,441.21q5.56,5,10.76,10.34a5,5,0,0,0,7.07,0A5,5,0,0,0,559.4,448a5.28,5.28,0,0,0-1.47-3.54q-5.19-5.36-10.76-10.34a5.3,5.3,0,0,0-3.54-1.46,5,5,0,0,0-5,5,5,5,0,0,0,1.47,3.53Z" transform="translate(-295.86 -228.12)"/><path class="cls-2" d="M613.78,429a19.9,19.9,0,0,0-3.77,1.83,19.65,19.65,0,0,0-3.25,2.64,19.3,19.3,0,0,0-4.34,7.09,3.88,3.88,0,0,0-.08,2,3.71,3.71,0,0,0,.59,1.86,5.09,5.09,0,0,0,3,2.29,5,5,0,0,0,3.85-.5l1-.78a5.05,5.05,0,0,0,1.29-2.21c.09-.26.19-.53.3-.79l-.5,1.2a14.23,14.23,0,0,1,1.71-2.92l-.78,1a13.86,13.86,0,0,1,2.48-2.48l-1,.78a13.72,13.72,0,0,1,2.91-1.71l-1.19.51a4.22,4.22,0,0,1,.45-.18,3.89,3.89,0,0,0,1.7-.9,3.75,3.75,0,0,0,1.28-1.4,5,5,0,0,0-1.79-6.84,4.88,4.88,0,0,0-3.85-.51Z" transform="translate(-295.86 -228.12)"/><path class="cls-2" d="M434.38,395.85c-7.73-1.22-15.94-1.09-23.32,1.76A31.37,31.37,0,0,0,400.63,404a27,27,0,0,0-6.94,11.18,48.19,48.19,0,0,0-2,13.56,116.37,116.37,0,0,0,.24,13.85A50.69,50.69,0,0,0,395,457a40.56,40.56,0,0,0,6.74,11.29,39.23,39.23,0,0,0,23.58,13.38c2.58.39,5.5-.65,6.15-3.49.54-2.39-.72-5.73-3.49-6.15a34.25,34.25,0,0,1-5.21-1.21q-1.14-.37-2.25-.81c-1-.38.18.05.17.08s-.47-.21-.5-.23l-1.33-.64a35.47,35.47,0,0,1-4.57-2.78l-.45-.33c-.58-.4.68.55.13.11l-1-.82c-.65-.56-1.29-1.14-1.91-1.74s-1.2-1.23-1.77-1.88c-.28-.33-.56-.65-.83-1,0-.06-.36-.36-.35-.43l.22.28-.22-.3a34.65,34.65,0,0,1-2.79-4.55l-.48-1-.3-.67c0,.07.31.8.1.23-.38-1.06-.78-2.11-1.1-3.19a53.26,53.26,0,0,1-1.39-6.35c-.1-.59,0,.13,0,.21,0-.3-.08-.6-.11-.9s-.1-.9-.14-1.35c-.1-1.13-.17-2.26-.23-3.39-.1-2.19-.12-4.39-.1-6.58,0-2,0-4,.16-6,.05-1,.13-2,.23-2.95,0-.21.06-.42.08-.63.07-.77-.15.83,0,.07.09-.55.17-1.1.28-1.65q.26-1.33.63-2.64c.13-.47.27-.93.43-1.39l.28-.78c0-.1.4-.91.14-.36s.12-.21.18-.35.19-.37.28-.56c.22-.42.46-.83.71-1.24s.42-.67.65-1c.1-.14.2-.27.29-.42.35-.51-.65.78-.05.09a21.46,21.46,0,0,1,1.58-1.72,6.86,6.86,0,0,1,1.75-1.53c-.75.3-.59.43-.22.18l.41-.28c.32-.22.65-.44,1-.64a23.53,23.53,0,0,1,2.2-1.21l.79-.39c-.61.32-.11.05,0,0l.8-.31c.86-.31,1.73-.59,2.62-.83s1.8-.45,2.71-.63l1.38-.23c.57-.1-.46.05-.46.05.29,0,.58-.07.87-.1a44.34,44.34,0,0,1,5.64-.23c.94,0,1.88.08,2.81.16l1.39.14.52.07c-1.42-.12-.25,0,0,0,2.57.4,5.5-.66,6.15-3.49.55-2.4-.73-5.72-3.49-6.15Z" transform="translate(-295.86 -228.12)"/><path class="cls-2" d="M546.42,358.92c.31-.83.63-1.66,1-2.49-.42,1,.15-.34.2-.45.18-.41.36-.81.55-1.22q1.22-2.62,2.65-5.16,1.2-2.13,2.55-4.19c.49-.74,1-1.48,1.51-2.21l.78-1.06c.34-.46.34-.46,0,0l.54-.66c.55-.65,1.16-1.23,1.77-1.83.91-.9-.78.39.32-.25.36-.21.7-.44,1.07-.63l.75-.36c-1.08.5.16,0,.35-.09a27.08,27.08,0,0,1,2.81-.76c1.84-.41,3.69-.74,5.54-1,1-.16,1.92-.31,2.89-.44s.33-.05.12,0l1.93-.24c4-.45,8.09-.72,12.15-.78,3.36-.06,6.77.26,10.12-.14,4.21-.5,7.95-2.12,10.4-5.75,1.92-2.83,2.31-6.36,2.49-9.68.07-1.45.14-2.89.26-4.33.11-1.23-.25,1.1,0-.09.08-.34.14-.68.23-1s.21-.72.33-1.07c.36-1.15-.5.83.09-.21a7.1,7.1,0,0,1,1.2-1.94c-.88.73,0,0,.17-.19s.52-.58.79-.85c.55-.56,1.13-1.08,1.73-1.58.15-.13,1.21-.91.22-.19.42-.31.84-.62,1.27-.91a53.79,53.79,0,0,1,8.36-4.65c.17-.08,1.41-.61.27-.14l1.11-.45c.74-.29,1.49-.57,2.25-.83,1.51-.52,3.05-1,4.59-1.39s3.12-.74,4.7-1l1.18-.2c.23,0,1.53-.32.26,0a19,19,0,0,1,2.39-.27,63,63,0,0,1,10-.08c.66.05,1.33.11,2,.18.39,0,.8.07,1.19.14-1.29-.23,0,0,.26.05q2.57.39,5.09,1c1.43.35,2.84.75,4.23,1.21.76.25,1.51.52,2.26.8l1.12.43c.52.22.5.2-.08,0l.73.32a42.68,42.68,0,0,1,5,2.58c.68.41,1.35.85,2,1.32.17.11,1.18,1,.26.18.4.34.81.68,1.2,1,.68.63,1.29,1.32,1.92,2,.87.95-.53-.85.19.24.3.45.61.89.89,1.36a21,21,0,0,1,1.12,2.22c-.47-1.1,0,.18.1.35.18.52.35,1,.5,1.58.26.94.47,1.89.65,2.85.08.42.14.83.21,1.25.08.58.08.55,0-.08l.09.85c.2,1.83.3,3.66.38,5.5.2,4.43.36,8.86.53,13.29.11,2.61,2.23,5.13,5,5a5.06,5.06,0,0,0,5-5c-.31-7.85-.13-15.93-1.6-23.67a26.84,26.84,0,0,0-4.23-10.55,30.4,30.4,0,0,0-8.64-8A55.85,55.85,0,0,0,658,289a68.18,68.18,0,0,0-22-.38A63.6,63.6,0,0,0,616,295c-6.61,3.38-13.29,8-15.9,15.29-1.13,3.14-1,6.6-1.23,9.89l-.09,1.06c-.07,1,.18-.9,0,0a9.12,9.12,0,0,1-.59,2.27c-.09,0,.51-.91.18-.44a4.34,4.34,0,0,0-.23.43,4.78,4.78,0,0,0-.26.42c-.2.46.19-.33.28-.35-.06,0-.73.78-.74.75s.8-.5.3-.24c-.21.11-.4.25-.61.37s-.45.16-.48.23.89-.29.37-.17c-.35.07-.7.21-1.05.29-.18,0-1.32.24-.6.13s-.6,0-.83.06c-1.73.1-3.48,0-5.22,0q-6.07-.07-12.16.46c-4.4.37-8.8,1-13.15,1.76-3.74.68-7.73,1.43-10.92,3.64-3.52,2.43-6,5.94-8.32,9.48a71.31,71.31,0,0,0-5.48,9.95q-1.34,2.94-2.46,5.94c-.91,2.46,1,5.59,3.5,6.16a5.15,5.15,0,0,0,6.15-3.5Z" transform="translate(-295.86 -228.12)"/><path class="cls-2" d="M707.25,340.43c0-.44.06-.88.08-1.32s0,.37-.07.4.08-.47.1-.55a18,18,0,0,1,.72-2.71c.07-.17.14-.35.2-.52.18-.55-.14.31-.14.33a5.19,5.19,0,0,1,.57-1.19,19.94,19.94,0,0,1,1.38-2.25c.09-.14.56-.81.17-.26s0,0,.08-.1l.74-.87a24.19,24.19,0,0,1,2-2,6,6,0,0,1,1-.85s-.73.51-.26.2c.16-.1.31-.22.47-.33.79-.54,1.61-1,2.44-1.5l1.35-.69c.28-.13,1.48-.65.58-.28.93-.38,1.88-.72,2.84-1a46.28,46.28,0,0,1,5.92-1.4l1.29-.21c.21,0,1-.11,0,0l.65-.08c1-.11,2-.2,3-.28,1.93-.14,3.86-.21,5.8-.16.89,0,1.79.07,2.68.15.22,0,1.62.19,1,.1s.05,0,.15,0l.81.14c.93.17,1.86.39,2.77.65l1.15.37c.38.13,1.62.7.69.24.78.39,1.57.76,2.32,1.22.41.25.8.52,1.19.79.08.05.61.47.14.09s.44.39.44.39a20.41,20.41,0,0,1,1.86,1.86c.27.3.53.62.79.93.48.55-.44-.65,0,0l.47.66a28.93,28.93,0,0,1,2.55,4.5,3.22,3.22,0,0,0,.21.46s-.37-.93-.18-.41.29.74.42,1.11c.26.75.49,1.51.7,2.27s.38,1.55.52,2.33c.06.33.12.67.17,1,0,.15.12.74,0,0s0,.17,0,.35a31.82,31.82,0,0,1,.11,4.58c0,.45-.06.9-.1,1.35l-.06.5c-.11,1.14.15-.82,0-.16-.15.83-.29,1.65-.49,2.47s-.46,1.72-.75,2.56c-.07.18-.31,1.18-.47,1.24s.43-.94.18-.44c-.1.2-.18.41-.27.61A25.84,25.84,0,0,1,756,357c-.2.33-.41.65-.62,1l-.38.54c-.42.6.17-.08.18-.23,0,.51-1.39,1.61-1.76,2a24.36,24.36,0,0,1-2,1.77c-2.06,1.62-1.82,5.39,0,7.07,2.2,2,4.87,1.73,7.08,0,12.34-9.69,13.59-28.95,6-41.89A28.79,28.79,0,0,0,754.83,317a31.77,31.77,0,0,0-13.5-4.08,57.1,57.1,0,0,0-12.8.36,50.92,50.92,0,0,0-14.45,3.81c-9.24,4.09-16.57,12.93-16.83,23.3a5,5,0,1,0,10,0Z" transform="translate(-295.86 -228.12)"/><path class="cls-2" d="M763.88,386.72a11.25,11.25,0,0,1,1.41-.66c-1.14.37.29-.1.6-.22,1-.37,2.08-.7,3.15-1s2-.47,3-.64c.17,0,1-.16.29-.05s.12,0,.3,0c.58-.06,1.16-.11,1.74-.14a40.11,40.11,0,0,1,6.39.19c.73.07-.9-.16-.18,0l.77.12c.45.08.89.16,1.33.26,1.14.24,2.27.54,3.38.89.49.16,1,.33,1.46.51.31.11,1.75.6.6.21a19.43,19.43,0,0,1,2.79,1.36c.9.5,1.79,1,2.64,1.62.45.31.88.63,1.31.94-.78-.56-.18-.13,0,0l1,.8a40,40,0,0,1,4.66,4.81c.17.2,1.14,1.48.52.63.33.45.66.9,1,1.36.68,1,1.33,2,1.94,3a56,56,0,0,1,3.14,6.12c-.44-1,.19.47.29.74.2.52.4,1,.58,1.56.39,1.12.75,2.25,1.07,3.38a59.7,59.7,0,0,1,1.44,6.73c0,.23.19,1,0-.08,0,.26.06.56.09.82.07.56.12,1.11.16,1.67.09,1.11.15,2.22.17,3.33a52.51,52.51,0,0,1-.32,6.87c0,.17-.11,1.05,0,.37s0,.21-.06.37q-.12.82-.27,1.65c-.21,1.14-.46,2.27-.75,3.4a52.71,52.71,0,0,1-1.93,6c-.09.24-.19.48-.29.72-.25.67.36-.79.06-.14-.2.47-.41.94-.62,1.4-.46,1-.95,2-1.47,2.92a54.59,54.59,0,0,1-3.67,5.85l-.45.62c-.11.15-.85,1.22-.15.21-.32.47-.72.9-1.08,1.34-.78.94-1.59,1.84-2.43,2.72a53.54,53.54,0,0,1-5.08,4.68c-.2.15-.4.33-.6.47,1-.7-.06,0-.21.15-.41.31-.83.6-1.25.9-1,.73-2.13,1.41-3.23,2.06a5.06,5.06,0,0,0,0,8.64c.64.4,1.28.82,1.9,1.27.15.1,1,.77.48.34s0,0,0,0l.68.56a37.62,37.62,0,0,1,3.4,3.28c.47.52.93,1.05,1.37,1.59a4.08,4.08,0,0,0,.44.55s-.57-.77-.25-.32.49.66.72,1a38.67,38.67,0,0,1,2.48,4q.54,1,1,2a6,6,0,0,0,.43,1s-.36-.9-.16-.38c.11.27.22.54.32.82a40.81,40.81,0,0,1,1.4,4.35q.29,1.11.51,2.22c.08.41.15.81.22,1.21,0,.23.16,1.48.11.73s0,.36.06.55c0,.41.07.82.1,1.23.06.81.08,1.63.09,2.45,0,1.5-.34,3.06-.27,4.54-.06-1.26,0-.21,0,.23s-.12.69-.19,1c-.16.81-.34,1.61-.56,2.4s-.48,1.66-.77,2.48c-.15.43-.3.85-.47,1.28l-.33.84c.18-.47.13-.31,0,.06q-1.26,2.81-2.78,5.48c-.91,1.62-1.88,3.2-2.89,4.75-.5.77-1,1.52-1.54,2.27l-.74,1c-.16.22-1.14,1.46-.5.67a57.66,57.66,0,0,1-7.67,8l-.65.53c-.08.06-.78.62-.32.26l-.16.12-.69.51c-.88.62-1.77,1.21-2.69,1.76s-1.87,1.07-2.83,1.55l-1.55.73c.85-.41-.29.11-.6.22a34.34,34.34,0,0,1-6.16,1.73l-.63.1c-1,.17.48,0-.14,0s-1,.1-1.49.13a32.32,32.32,0,0,1-3.41,0,5,5,0,0,0-5,5,5.12,5.12,0,0,0,5,5A39.84,39.84,0,0,0,787,549.68a64.25,64.25,0,0,0,17-19c4.43-7.24,7.74-15,8.28-23.55a45,45,0,0,0-4.3-21.48,42.69,42.69,0,0,0-15.94-18.14v8.64a59.17,59.17,0,0,0,28.75-48.3c.73-20.45-9.8-43.17-29.55-51.13a40.31,40.31,0,0,0-32.45,1.36,5,5,0,0,0-1.8,6.84,5.14,5.14,0,0,0,6.84,1.8Z" transform="translate(-295.86 -228.12)"/><path class="cls-2" d="M436.71,653.52c-11.09-1.83-23.33,0-32.56,6.76a32.69,32.69,0,0,0-11.26,14.13c-2.51,6.09-2.79,12.72-1.85,19.17a54,54,0,0,0,7.8,20.34l4.32-7.52a50.61,50.61,0,0,0-24.59,9.81A51.45,51.45,0,0,0,362,737.14c-7.3,17.29-3.71,37.93,8.26,52.23,7.16,8.55,17.26,14.1,27.31,18.55,2.39,1.05,5.49.77,6.84-1.8,1.15-2.17.76-5.71-1.79-6.84a110.45,110.45,0,0,1-12.19-6.16,67.19,67.19,0,0,1-5.84-3.88l-.51-.39c.76.58.16.12,0,0-.44-.35-.88-.71-1.31-1.08-.91-.78-1.8-1.59-2.65-2.43s-1.4-1.43-2.06-2.18c-.34-.38-.66-.76-1-1.15a6.75,6.75,0,0,1-.47-.59c.32.54.32.44,0,0a45.47,45.47,0,0,1-3.25-5.07c-.48-.88-.94-1.77-1.37-2.68a10.12,10.12,0,0,1-.54-1.21c.32,1,.17.4.07.16l-.42-1.06a46.27,46.27,0,0,1-1.76-5.77c-.22-.92-.41-1.84-.58-2.77l-.24-1.49c-.09-.58.07.38.06.39a6.53,6.53,0,0,0-.13-1.12,46.69,46.69,0,0,1-.21-6c0-1,.09-2,.19-3,0-.44.09-.88.14-1.32.08-.72-.15.93,0,.21.05-.3.09-.62.15-.92a42.42,42.42,0,0,1,1.43-5.86c.3-.94.65-1.86,1-2.79.1-.25.27-.88-.08.19a6.58,6.58,0,0,1,.29-.66c.2-.44.41-.88.62-1.32a46.37,46.37,0,0,1,2.9-5,26.57,26.57,0,0,1,1.69-2.36c-.09.11-.68.84-.11.15l.46-.56c.35-.42.71-.84,1.07-1.24a48.3,48.3,0,0,1,4.12-4.1c.41-.36.83-.72,1.25-1.06l.57-.46c.73-.59-.51.36,0,0,.89-.64,1.77-1.28,2.68-1.87a47.63,47.63,0,0,1,5.72-3.18l.66-.3c.58-.26.51-.27,0,0,.48-.24,1-.41,1.52-.6,1-.38,2.06-.72,3.1-1s2.1-.57,3.17-.79c.53-.12,1.07-.22,1.61-.31l.71-.12c1-.18-1,.12.12,0a5.23,5.23,0,0,0,4.31-2.48,5,5,0,0,0,0-5c-.72-1.17-1.41-2.35-2.05-3.56-.32-.61-.63-1.23-.93-1.85-.18-.37-.36-.75-.53-1.13s-.59-1.38-.16-.33a47.61,47.61,0,0,1-2.56-8.07c-.15-.66-.28-1.33-.4-2,0-.33-.12-.67-.15-1,.1,1.15,0,.2,0-.09a35,35,0,0,1-.2-4.22c0-.67,0-1.33.1-2a5.92,5.92,0,0,1,.11-1.19c0,.15-.18,1.1,0,.15a31.38,31.38,0,0,1,1-4.26c.21-.64.44-1.26.69-1.88-.38,1-.13.28,0,.08s.34-.7.51-1a26.55,26.55,0,0,1,1.86-3.06,5.67,5.67,0,0,1,.5-.68c-.76.69-.38.48-.15.22.37-.42.72-.85,1.11-1.27a29.26,29.26,0,0,1,2.69-2.53c.08-.06,1-.7.29-.23s.23-.16.31-.22c.46-.33.93-.64,1.4-.94a30.93,30.93,0,0,1,3.27-1.83,10.12,10.12,0,0,1,1.57-.72c-.12,0-1.08.42-.24.11.27-.1.53-.21.8-.3,1.15-.42,2.31-.79,3.48-1.1,1.36-.35,2.72-.61,4.1-.85.92-.15-.19,0-.28,0A5.75,5.75,0,0,1,425,663c.58-.05,1.16-.09,1.75-.12a39,39,0,0,1,4.19,0c.7,0,1.39.09,2.08.16a5.62,5.62,0,0,0,.69.08c-1.47,0,0,0,.38.07,2.57.43,5.51-.67,6.15-3.49.55-2.41-.73-5.69-3.49-6.15Z" transform="translate(-295.86 -228.12)"/></g></svg>