<svg xmlns="http://www.w3.org/2000/svg" viewBox="0 0 621.34 716.43"><defs><style>.cls-1{fill:#3f8e93;}.cls-2{fill:#22565a;}.cls-3{fill:#b8d8ef;}.cls-4{fill:#fff;}</style></defs><g id="Слой_6" data-name="Слой 6"><path class="cls-1" d="M550.7,366.27c0,3.45-.14,6.9-.41,10.33-.13,1.67-.29,3.34-.49,5l-.15,1.24s-.08.62,0,.21,0,.28,0,.38c-.12.82-.24,1.64-.37,2.46a129.5,129.5,0,0,1-4.67,19.42q-1.5,4.6-3.34,9.09c-.07.17-.48,1.14-.22.53l-.48,1.11c-.34.79-.69,1.57-1,2.35-.67,1.46-1.36,2.9-2.09,4.33a130.71,130.71,0,0,1-9.94,16.49c-1,1.34-1.93,2.66-2.93,4,.37-.49-.13.15-.25.31l-.74.93c-.53.67-1.06,1.32-1.61,2q-3,3.64-6.34,7.07t-7,6.71c-1.18,1.05-2.38,2.09-3.6,3.1l-1.84,1.5-.94.74-.4.31c-.49.39.69-.51-.18.14a132.51,132.51,0,0,1-16.11,10.51q-4.27,2.37-8.72,4.39l-2,.91-1.11.48c.61-.26-.47.19-.69.28-1.49.61-3,1.19-4.51,1.75a128.35,128.35,0,0,1-19,5.32c-1.67.34-3.35.64-5,.91l-2.29.34-.38.05-.21,0-1.42.17c-3.39.4-6.81.66-10.23.78a130.22,130.22,0,0,1-20.42-.82l-1.24-.16c-.44-.05.05,0,.12,0l-.71-.1c-.82-.11-1.64-.24-2.46-.37-1.63-.26-3.25-.56-4.87-.88q-4.89-1-9.71-2.35t-9.41-3.06c-1.51-.56-3-1.14-4.5-1.76l-.64-.26c.07,0,.51.21.11,0l-1.11-.48-2.19-1a129.65,129.65,0,0,1-17-9.44q-4-2.62-7.76-5.52c.54.41-.31-.25-.45-.36l-.93-.74-2-1.61c-1.22-1-2.41-2.05-3.59-3.11a131.16,131.16,0,0,1-13.27-13.81l-1.5-1.85-.74-.93c-.1-.14-.2-.27-.31-.4.23.3.14.18,0,0-1-1.31-2-2.63-2.92-4q-2.81-4-5.3-8.13t-4.61-8.39q-1.08-2.15-2.07-4.33c-.34-.73-.66-1.46-1-2.2l-.21-.47c0-.09-.32-.75-.14-.35s-.07-.15-.08-.19l-.33-.79a128.55,128.55,0,0,1-6-18.68q-1.17-4.89-2-9.86c-.12-.76-.23-1.52-.33-2.29,0-.12-.1-.73,0-.06,0-.17-.05-.35-.07-.53-.06-.47-.12-.94-.17-1.42-.19-1.66-.35-3.33-.48-5a130.87,130.87,0,0,1,0-20.48c.14-1.72.31-3.45.52-5.17.05-.41.1-.82.16-1.24-.09.64,0-.2.05-.41.13-.88.26-1.76.41-2.64.53-3.3,1.2-6.58,2-9.84a132.51,132.51,0,0,1,6.09-18.63l.2-.48c-.25.61,0,.06,0-.05l.41-.95c.35-.79.7-1.57,1.06-2.35q1-2.26,2.17-4.48,2.18-4.26,4.65-8.36t5.34-8.1c.43-.6.86-1.2,1.3-1.79l.71-1,.41-.54s.46-.6.23-.29.1-.13.12-.16l.42-.53.74-.93c.53-.66,1.07-1.32,1.62-2a131.14,131.14,0,0,1,13.33-13.75q1.78-1.58,3.61-3.09l1.85-1.5.8-.63c.07-.06.64-.49.29-.23s.24-.18.29-.22c2.58-2,5.22-3.82,7.93-5.58a129.86,129.86,0,0,1,16.92-9.29l2.2-1,.53-.23,1.28-.53c1.49-.6,3-1.18,4.51-1.73q4.57-1.66,9.27-3t9.72-2.31c1.62-.31,3.25-.6,4.88-.86l2.46-.36c.44-.06-.05,0-.12,0l.71-.09,1.42-.17a131.65,131.65,0,0,1,20.44-.71c3.41.15,6.82.43,10.21.84l1.06.13c-.71-.09.41.06.6.09.87.12,1.75.26,2.63.4,1.62.27,3.25.57,4.86.9a127.71,127.71,0,0,1,19.1,5.46c1.51.56,3,1.16,4.5,1.77,0,0,.56.23.18.07l.35.15.95.41,2.35,1.06q4.43,2.06,8.69,4.43c2.78,1.56,5.51,3.21,8.16,5,1.38.91,2.73,1.84,4.07,2.8l1.79,1.3.95.71c.19.14,1.1.85.59.45a129.1,129.1,0,0,1,14.22,12.83c2.23,2.33,4.38,4.74,6.42,7.23.51.61,1,1.23,1.5,1.85l.63.8c.07.1.43.56,0,.05l.41.54q1.44,1.89,2.81,3.84a129,129,0,0,1,10,16.69c.72,1.43,1.4,2.88,2.07,4.34.33.73.65,1.46,1,2.2.08.19.4.95.16.37.18.43.35.85.52,1.28,1.24,3,2.36,6.14,3.36,9.27a127.64,127.64,0,0,1,4.54,19.28q.19,1.23.36,2.46c-.09-.67.05.4.08.6,0,.41.1.82.14,1.24.19,1.6.34,3.21.46,4.82.25,3.32.37,6.64.38,10a3.75,3.75,0,0,0,7.5,0,133.77,133.77,0,0,0-6.44-41,132.31,132.31,0,0,0-18-35.84,135.89,135.89,0,0,0-28.1-29.11,133.08,133.08,0,0,0-183.33,21.07,135.5,135.5,0,0,0-20.8,34.78,132.58,132.58,0,0,0-9.39,40,134.09,134.09,0,0,0,3.39,41.78,133.47,133.47,0,0,0,74.31,89.66,133.82,133.82,0,0,0,81.95,9.22A133.12,133.12,0,0,0,556.57,387a138.51,138.51,0,0,0,1.63-20.74,3.75,3.75,0,0,0-7.5,0Z" transform="translate(-291.77 -217.01)"/><circle class="cls-2" cx="575.42" cy="307.33" r="8.04"/><path class="cls-1" d="M664.68,285.12c-.53-2.68-4.66-2.56-6.66-3.15a17.45,17.45,0,0,1-8.33-5.81,27.06,27.06,0,0,1-2.63-3.57,16.83,16.83,0,0,1-2.22-5.32,51.72,51.72,0,0,1-.88-5.95,25.56,25.56,0,0,1-.13-6.42l-4.91-.67c-.83,7-1.84,14.57-6.28,20.35a16.53,16.53,0,0,1-7.52,5.54,44,44,0,0,1-10.74,2,2.5,2.5,0,0,0,0,5c6.53.58,13,4,15.63,10.26a48.74,48.74,0,0,1,2.67,11.26c.48,3.1.65,6.22.89,9.35a7.05,7.05,0,0,0,.58,2.94,2.65,2.65,0,0,0,4.16.6c1.28-1.29,1.14-4,1.34-5.44a39.46,39.46,0,0,1,7.27-18.56,21.15,21.15,0,0,1,10.35-7.2c2.51-.83,7.28-1.09,7.5-4.51a2.52,2.52,0,0,0-2.5-2.5,2.55,2.55,0,0,0-2.5,2.5,3.17,3.17,0,0,1,.93-1.73c-.05,0-.13.05-.18.09s.19-.08.23-.09l-.37.13-1.69.48a41.44,41.44,0,0,0-5,1.64,25.17,25.17,0,0,0-9.89,7.12A41.46,41.46,0,0,0,635.1,313c-.26,1.5-.45,3-.63,4.52l-.09.75c0,.3,0-.27,0-.26s0,.23,0,.34a2.29,2.29,0,0,0-.09.44l0,.12c-.45-.18,1.73-1.61,1-1.25l1.26-.34,1,.57a1.15,1.15,0,0,1,1.1.79s.18.4.07.1c0-.08-.1-.53,0-.08s0-.21,0-.3c0-.24,0-.48-.05-.71-.09-1.29-.16-2.58-.27-3.86a95.33,95.33,0,0,0-1.75-11.66,30.24,30.24,0,0,0-3.16-9.2,20.65,20.65,0,0,0-7.38-7.3,27.47,27.47,0,0,0-11.61-3.53v5c4.19-.4,8.5-.79,12.47-2.29a21.59,21.59,0,0,0,9.33-6.68c5.46-6.82,6.74-15.47,7.74-23.89.33-2.77-4.51-3.45-4.91-.66-.65,4.47,0,9,.7,13.47a25.15,25.15,0,0,0,5.41,11.38,24.45,24.45,0,0,0,7.52,6.69,21.73,21.73,0,0,0,5.62,2.08c.64.14,1.29.25,1.94.37a4.26,4.26,0,0,0,.69.15c.28.09.22.05-.18-.11.54.32.26-.06-.85-1.15a2.52,2.52,0,0,0,3.08,1.75A2.56,2.56,0,0,0,664.68,285.12Z" transform="translate(-291.77 -217.01)"/><path class="cls-1" d="M609.12,241.61c-.55-2.23-3.09-2.18-4.86-2.65a11.81,11.81,0,0,1-6-4,18,18,0,0,1-1.86-2.5,11.38,11.38,0,0,1-1.53-3.5,25,25,0,0,1-.8-8.85l-4.91-.66c-.58,4.9-1.28,10.24-4.38,14.28s-7.94,4.71-12.67,5.17a2.5,2.5,0,0,0,0,5c4.57.41,9.1,2.85,10.79,7.29,1.76,4.64,2,9.72,2.42,14.6a5.21,5.21,0,0,0,.51,2.24,2.61,2.61,0,0,0,3.56.94c1.55-.93,1.45-3,1.65-4.57,0-.41.28-1.8.45-2.66a30.75,30.75,0,0,1,1.1-4,24,24,0,0,1,3.67-6.71,14.72,14.72,0,0,1,7.34-5c2.28-.73,5.31-.91,5.64-3.84a2.52,2.52,0,0,0-2.5-2.5,2.55,2.55,0,0,0-2.5,2.5v.08l.34-1.26a2.12,2.12,0,0,1,.61-.62c.34-.14.41-.17.22-.1a5.12,5.12,0,0,0-.73.23c-.57.16-1.15.31-1.72.48a24.21,24.21,0,0,0-5.11,2.1,21,21,0,0,0-7.18,7.24,30.14,30.14,0,0,0-4,10c-.28,1.36-.47,2.74-.64,4.11,0,.26-.07.51-.1.76s-.13.77,0,0a1.67,1.67,0,0,1-.06.39,1.17,1.17,0,0,1-.05.2q-.37,1.18,1.59-1.49h1.29l1.1.65c-.13-.12.83,1.46.51.73,0,.06,0,.59,0,0s-.07-.89-.1-1.34c-.09-1.49-.21-3-.39-4.46a45.14,45.14,0,0,0-2.17-10.28c-2.5-6.63-8.7-10.19-15.55-10.81v5c6.07-.59,12.14-1.62,16.2-6.63s5.1-11.51,5.85-17.82c.33-2.77-4.52-3.46-4.91-.67a33.26,33.26,0,0,0,.49,10,18,18,0,0,0,3.71,8.12,19.82,19.82,0,0,0,5.63,5.28,16,16,0,0,0,4.21,1.68c.48.12,1,.2,1.45.29.2,0,.44.11.65.13,1,.07-.39,1.39-1.06-1.35C605.06,246.06,609.89,244.74,609.12,241.61Z" transform="translate(-291.77 -217.01)"/><path class="cls-1" d="M856.13,473.37c-.53-2.68-4.66-2.56-6.66-3.16a17.36,17.36,0,0,1-8.33-5.8,27.74,27.74,0,0,1-2.63-3.57,16.93,16.93,0,0,1-2.22-5.32,54.36,54.36,0,0,1-.88-5.95,25.63,25.63,0,0,1-.13-6.43l-4.91-.66c-.83,7-1.84,14.57-6.28,20.35a16.53,16.53,0,0,1-7.52,5.54,44.51,44.51,0,0,1-10.74,2,2.5,2.5,0,0,0,0,5c6.53.58,13,4,15.63,10.26a48.78,48.78,0,0,1,2.67,11.25c.48,3.11.65,6.23.89,9.36a7,7,0,0,0,.58,2.93,2.65,2.65,0,0,0,4.16.61c1.28-1.29,1.14-4,1.34-5.44a39.57,39.57,0,0,1,7.27-18.56,21.15,21.15,0,0,1,10.35-7.2c2.51-.83,7.28-1.09,7.5-4.51a2.52,2.52,0,0,0-2.5-2.5,2.55,2.55,0,0,0-2.5,2.5,3.17,3.17,0,0,1,.93-1.73s-.13.05-.18.09.19-.08.23-.09c-.12,0-.24.09-.37.12l-1.69.49a41.44,41.44,0,0,0-5,1.64,25.17,25.17,0,0,0-9.89,7.12,41.42,41.42,0,0,0-8.72,19.52c-.26,1.5-.44,3-.63,4.52l-.09.75c0,.3,0-.27,0-.26s0,.23-.05.34a2.2,2.2,0,0,0-.09.43l0,.13c-.45-.18,1.74-1.61,1-1.25l1.26-.34,1,.56a1.17,1.17,0,0,1,1.1.8s.18.4.07.1c0-.09-.1-.53,0-.08s0-.21,0-.31,0-.47,0-.7c-.09-1.29-.16-2.58-.27-3.86A95.33,95.33,0,0,0,828,490.37a30.24,30.24,0,0,0-3.16-9.2,20.7,20.7,0,0,0-7.37-7.3,27.55,27.55,0,0,0-11.62-3.53v5c4.19-.41,8.5-.79,12.47-2.29a21.53,21.53,0,0,0,9.33-6.69c5.46-6.81,6.74-15.46,7.74-23.88.33-2.77-4.51-3.45-4.91-.66-.65,4.46-.05,9,.7,13.46a25.05,25.05,0,0,0,5.41,11.38,24.36,24.36,0,0,0,7.52,6.7,21.73,21.73,0,0,0,5.62,2.08c.64.14,1.3.24,1.94.37a4.26,4.26,0,0,0,.69.15c.28.08.22.05-.17-.11.53.32.25-.06-.86-1.15a2.5,2.5,0,1,0,4.82-1.33Z" transform="translate(-291.77 -217.01)"/><circle class="cls-2" cx="90.08" cy="470.39" r="8.04"/><circle class="cls-1" cx="377.18" cy="643.6" r="69.13"/><path class="cls-1" d="M734.32,860.6q0,2.73-.21,5.43c-.07.87-.15,1.73-.25,2.59,0,.16-.2,1.5-.08.71l-.21,1.36a68.71,68.71,0,0,1-2.45,10.19c-.55,1.7-1.17,3.37-1.84,5l-.07.17c.18-.42-.1.22-.14.31-.15.36-.31.71-.47,1.06-.37.81-.75,1.6-1.15,2.39a70.43,70.43,0,0,1-5.26,8.75c-.51.71-1,1.42-1.56,2.11l-.32.41-.94,1.14c-1.08,1.3-2.22,2.56-3.39,3.78s-2.4,2.39-3.66,3.51c-.58.51-1.15,1-1.74,1.5-.34.28-.67.56-1,.83l-.51.41c-.54.44.2-.14-.15.12a70.6,70.6,0,0,1-8.54,5.56q-2.24,1.24-4.58,2.31l-1.06.47-.31.14-.32.13q-1.25.51-2.49,1a67.89,67.89,0,0,1-10.05,2.82q-1.26.26-2.52.45l-1.19.18c-.6.09.57-.07,0,0l-.85.1c-1.79.21-3.58.34-5.38.41a68.64,68.64,0,0,1-10.82-.43c-.22,0-1.25-.17-.54-.06l-1.36-.21c-.89-.14-1.79-.3-2.68-.49q-2.58-.51-5.1-1.23c-1.67-.47-3.32-1-5-1.6-.78-.29-1.55-.59-2.33-.91l-.32-.13-.16-.07-1.36-.61a69.07,69.07,0,0,1-9-5c-1.42-.93-2.81-1.91-4.15-2.94.6.46-.42-.33-.54-.43l-.88-.72c-.72-.6-1.42-1.2-2.11-1.83a68.38,68.38,0,0,1-7-7.32l-.73-.89-.32-.41c-.53-.69-1-1.4-1.56-2.11-1-1.43-2-2.91-2.87-4.41s-1.7-3-2.46-4.49c-.38-.74-.73-1.48-1.08-2.24-.16-.35-.32-.7-.47-1.06-.05-.09-.32-.73-.14-.31l-.2-.48a68.28,68.28,0,0,1-3.16-9.9c-.41-1.71-.75-3.44-1-5.17l-.18-1.19c.12.79-.06-.55-.08-.71q-.16-1.38-.27-2.76a70.31,70.31,0,0,1,0-10.86c.07-.86.16-1.72.26-2.58,0-.22.17-1.27.06-.54.08-.51.15-1,.23-1.52q.43-2.61,1-5.17a72.6,72.6,0,0,1,3.22-9.88c0-.13.28-.66,0,0,.09-.2.17-.4.26-.61l.48-1c.37-.81.75-1.6,1.16-2.39q1.15-2.28,2.48-4.47t2.8-4.26c.47-.67,1-1.33,1.46-2-.46.6.32-.4.43-.54.27-.34.55-.67.83-1a69.36,69.36,0,0,1,7.05-7.29c.61-.55,1.24-1.08,1.87-1.61l1-.83.39-.3c.82-.66-.34.25.15-.12,1.35-1,2.73-2,4.16-2.93a67.88,67.88,0,0,1,9-4.94l1.21-.54c.12,0,.66-.28,0,0l.46-.19c.88-.36,1.76-.7,2.65-1,1.58-.57,3.17-1.08,4.79-1.54s3.5-.9,5.27-1.25c.78-.16,1.57-.3,2.35-.42l1.36-.21c-.76.11.49-.06.71-.08a70.92,70.92,0,0,1,11-.4c1.8.08,3.59.22,5.37.44l.68.08c-.06,0-.58-.08-.14,0l1.35.2c.9.15,1.8.32,2.69.5a68.31,68.31,0,0,1,10,2.86c.78.29,1.56.6,2.33.91.13.05.66.28,0,0l.46.2,1.36.61q2.34,1.08,4.57,2.33t4.37,2.65c.68.45,1.36.91,2,1.39l.93.67.53.39c.07.06.78.59.4.31s.52.4.65.52c.35.27.68.55,1,.83.67.56,1.33,1.13,2,1.72q1.89,1.7,3.64,3.53c1.18,1.22,2.3,2.49,3.38,3.79l.83,1,.3.39c.36.45-.33-.44,0,0,.53.7,1,1.4,1.55,2.12a67.38,67.38,0,0,1,5.24,8.76c.37.74.73,1.48,1.08,2.24l.54,1.21s.23.55.07.16.16.39.19.48q1,2.4,1.77,4.87a68.27,68.27,0,0,1,2.46,10.37c0,.19.18,1.22.13.86s0,.14,0,.19c0,.23.06.45.08.68.1.86.18,1.72.25,2.59.14,1.8.21,3.61.21,5.42a3.75,3.75,0,0,0,7.5,0,72.92,72.92,0,0,0-13.35-42,74,74,0,0,0-34.72-26.51,72.88,72.88,0,0,0-55.13,134.8A74,74,0,0,0,683.71,932a72.88,72.88,0,0,0,57.17-59.81,77.27,77.27,0,0,0,.94-11.57,3.79,3.79,0,0,0-3.75-3.75A3.83,3.83,0,0,0,734.32,860.6Z" transform="translate(-291.77 -217.01)"/></g><g id="Слой_4" data-name="Слой 4"><path class="cls-3" d="M672.78,679.22c3.31-1.29,0-9.76,3-17.89,2.66-7.25,7.45-9.16,10.7-15.53a12.61,12.61,0,0,1,2.54-3.92,10.08,10.08,0,0,1,5-1.91,186.78,186.78,0,0,1,29.09-2.88,535.19,535.19,0,0,0,4.08,55.63c3.19,25.22,4.79,37.83,8.11,44.89,3.63,7.72,9.66,17.33,10.22,31.56.32,8.13-1.38,12.17-4.07,14.8-3.43,3.35-9.16,5.24-13.49,3.42-4.69-2-8.1-6-11.32-10l-11.33-13.86c-3.62-4.41-7.28-8.91-9.48-14.18-2.12-5.08-2.78-10.65-4.43-15.91-3-9.47-9.13-17.68-12.19-27.12-2.77-8.51-3-18-7.82-25.54-.08-.14-1.23-.41-1.21-.78S671.93,679.56,672.78,679.22Z" transform="translate(-291.77 -217.01)"/><path class="cls-3" d="M674.05,681.38c3.77-1.69,2.82-7.54,2.84-10.81,0-5,1.06-9.67,4.17-13.66,1.29-1.67,2.8-3.16,4.14-4.78a30.56,30.56,0,0,0,3.79-5.77,7.7,7.7,0,0,1,1.8-2.72,7.44,7.44,0,0,1,3.15-1.11c2.9-.58,5.84-1,8.78-1.4a185.93,185.93,0,0,1,20.41-1.54l-2.5-2.5a588,588,0,0,0,4.81,61.33c1.11,8.77,2.15,17.57,3.72,26.27a58.12,58.12,0,0,0,4.48,15.19c1.67,3.45,3.48,6.84,5,10.38a57.62,57.62,0,0,1,3.84,13c.75,4.53,1.13,9.62-.08,14.11a9.93,9.93,0,0,1-1.76,3.79c-.29.39-.09.11,0,0l-.36.42c-.26.28-.52.54-.8.8a12.56,12.56,0,0,1-2.67,1.84,10.64,10.64,0,0,1-6,1.27,11.53,11.53,0,0,1-5.38-2.61c-4.18-3.25-7.36-7.86-10.69-11.93-3.63-4.44-7.39-8.81-10.87-13.37a40.09,40.09,0,0,1-7.24-14.16c-1.47-5.5-2.55-10.94-4.8-16.2-2.11-4.91-4.79-9.53-7.11-14.34a65,65,0,0,1-4.89-14.62c-1.12-5.14-2.11-10.29-4.23-15.12a24.26,24.26,0,0,0-1.72-3.32,3.77,3.77,0,0,0-1.2-1.31,3.25,3.25,0,0,0-.74-.32c.47.15-.28-.32.16.12l.64,1.11,0-.14-.25,1.93c-1.07.68-1.29.92-.65.73l.59-.11a7.67,7.67,0,0,0,1.15-.27c3-1,1.74-5.84-1.33-4.82-1.48.49-3.22.37-4.07,2a2.71,2.71,0,0,0,.55,3.28,3.86,3.86,0,0,0,.9.61l.82.35c-.27-.13-.32-.15-.17,0l-.9-.89c2.74,4.41,3.93,9.46,5,14.49a82.07,82.07,0,0,0,4.51,15.54c2.14,5,4.85,9.67,7.2,14.54a75.39,75.39,0,0,1,5.08,15.52,44.64,44.64,0,0,0,6.6,15.53c3.33,4.82,7.24,9.27,11,13.8,3.53,4.31,6.88,8.91,10.83,12.86,3.51,3.52,8.07,6.67,13.27,6.21a16.92,16.92,0,0,0,12-6.47c2.32-3.05,3.11-6.9,3.35-10.65.63-10-2.25-19.81-6.47-28.78-.82-1.75-1.69-3.48-2.56-5.21-.38-.78-.77-1.56-1.14-2.34-.16-.32-.31-.64-.46-1l-.16-.36c-.2-.44.2.51,0,0a48.91,48.91,0,0,1-2.06-6.7,219.46,219.46,0,0,1-3.6-21.94c-2.68-20.31-4.88-40.61-5.66-61.09q-.17-4.48-.27-9a2.53,2.53,0,0,0-2.5-2.5q-9.39.2-18.72,1.32-4.7.57-9.35,1.36c-2.71.46-5.5.88-7.66,2.72-2,1.68-2.77,4.26-4.14,6.4a39.62,39.62,0,0,1-4,5c-3.43,3.86-6.06,8.13-6.9,13.31a52.93,52.93,0,0,0-.44,8.72c0,.6,0,1.2,0,1.8,0,.25,0,.49,0,.74,0,.09-.11.84,0,.39,0,.15-.06.31-.1.46s0,.57,0,.2c0,.48-.08-.2,0,0-.13.13-.08.1.16-.1a1.54,1.54,0,0,1-.34.17,2.52,2.52,0,0,0-.89,3.42A2.56,2.56,0,0,0,674.05,681.38Z" transform="translate(-291.77 -217.01)"/><path class="cls-1" d="M419.44,553.78c.18,6.52.61,13.65,5,18.47a25.89,25.89,0,0,0,7.66,5.2A220.2,220.2,0,0,0,528,601.23c44.74.72,88.45-12.19,131.33-25l72.56-21.65c5.3-1.58,11.2-3.66,13.51-8.69,1.48-3.23,1.1-7,1.5-10.5s2.15-7.47,5.61-8.26c8.9,4.23,9,16.77,7,26.43a198.14,198.14,0,0,1-27.28,66.83,17.41,17.41,0,0,1-4.69,5.39c-2.15,1.42-4.78,1.85-7.32,2.26L613.34,645c-17.94,2.84-35.94,5.69-54.09,6.39-10.39.39-20.8.08-31.2-.22l-35.49-1.06c-19.26-.58-38.82-1.2-57.16-7.08-5.9-1.9-11.83-4.46-16-9-4.41-4.81-6.42-11.34-7.63-17.76A93.8,93.8,0,0,1,419,559.54c1-2.16,1.62-5.56-.68-6.21a47.48,47.48,0,0,0-5.55,23.18,2.32,2.32,0,0,1-3.24-.87" transform="translate(-291.77 -217.01)"/><path class="cls-1" d="M416.94,553.78c.16,5.42.48,11,2.85,16,2.52,5.28,7.45,8.07,12.48,10.58A222.67,222.67,0,0,0,540.7,603.58c26.26-1,52.17-6.29,77.52-13,25.75-6.78,51.19-14.77,76.7-22.38,12.85-3.83,25.74-7.55,38.55-11.5,4.52-1.4,9.38-3.21,12.44-7a14.76,14.76,0,0,0,3-7.76c.31-2.64.08-5.38.77-8,.5-1.89,1.44-3.87,3.47-4.42l-1.93-.26c5.16,2.57,6.65,8.23,6.79,13.61.19,6.88-1.62,13.68-3.36,20.27a195.59,195.59,0,0,1-17.8,44.51q-2.91,5.31-6.16,10.41c-2,3.18-3.83,5.89-7.65,6.87-4.17,1.08-8.58,1.48-12.83,2.15l-13.44,2.13-53.43,8.46c-17.72,2.81-35.42,5.83-53.2,8.27-8.88,1.22-17.81,2.19-26.76,2.69s-18,.43-27,.21c-17.67-.44-35.35-.93-53-1.59-16.8-.63-34-1.82-50-7.61-7-2.53-12.84-6.5-16.07-13.39s-4.14-14.9-4.52-22.33a91.72,91.72,0,0,1,1.89-23.89A95.35,95.35,0,0,1,418,568.49c.65-1.83,1.36-3.65,2.13-5.43a28.66,28.66,0,0,0,2-4.85c.71-3.07.05-6.1-3.13-7.29a2.5,2.5,0,0,0-2.82,1.14,51.15,51.15,0,0,0-5.89,24.45l1.24-2.16a.4.4,0,0,1,.18,0c-1.72-2.71-6-.2-4.32,2.52a4.92,4.92,0,0,0,6.67,1.76,2.45,2.45,0,0,0,1.23-2.15,45.66,45.66,0,0,1,5.21-21.92l-2.82,1.15c-.5-.19-.16-.51-.26.13a10.42,10.42,0,0,1-.28,1.64c-.44,1.43-1.2,2.78-1.78,4.16a94.44,94.44,0,0,0-3.67,10.19,97.82,97.82,0,0,0-3.74,21,96.36,96.36,0,0,0,.93,21c1,6.56,2.62,13.4,6.44,18.94s9.53,9,15.73,11.33a107.8,107.8,0,0,0,20.93,5.39c15,2.49,30.31,2.78,45.51,3.23,15.75.47,31.51,1.14,47.26,1.3a321,321,0,0,0,47.48-3.32c15.7-2.18,31.34-4.82,47-7.3l47.23-7.48,23.78-3.77c3.86-.61,7.72-1.19,11.57-1.84,3.45-.57,6.7-1.62,9.22-4.16,2.33-2.33,4-5.38,5.7-8.16q2.76-4.5,5.26-9.14a203.77,203.77,0,0,0,9.16-19.37,200.35,200.35,0,0,0,7.08-20.19A132.14,132.14,0,0,0,762.6,550c.68-5.16.77-10.73-1-15.7a17.1,17.1,0,0,0-4-6.57,14.5,14.5,0,0,0-3-2.3,4.16,4.16,0,0,0-4.38,0c-6.06,3-5.56,10.35-6.18,16a9.41,9.41,0,0,1-3.85,7,26,26,0,0,1-7.51,3.4c-15,4.73-30.24,9-45.35,13.54-29.73,8.86-59.38,18.39-89.66,25.22-29.48,6.66-59.72,10.25-89.89,6.94A217.94,217.94,0,0,1,465,588.3a210.09,210.09,0,0,1-20.17-7.59q-5.09-2.22-10.06-4.7c-2.94-1.47-6.07-2.91-8.37-5.32-4.19-4.4-4.31-11.22-4.48-16.91-.1-3.21-5.1-3.23-5,0Z" transform="translate(-291.77 -217.01)"/><path class="cls-1" d="M731.75,635.05c5.12,10,10.26,20.14,13.38,31,2,6.92,3.15,14.08,5.57,20.85,2.31,6.44,5.73,12.42,8.45,18.69a184.38,184.38,0,0,1,7.45,22.13,195.4,195.4,0,0,1,34.18-14.58c1.83-.58,3.9-1.11,5.58-.2a7.27,7.27,0,0,1,2.49,2.75l33.55,53.09a143.09,143.09,0,0,1,46.75-34.92c2.4-1.11,5.12-2.5,5.7-5.08.52-2.24-.84-4.45-2.13-6.36l-35-51.65c-2.58-3.81-5.16-7.62-7.44-11.61-2.62-4.59-4.84-9.4-7.53-14-4.68-7.94-10.72-15-16.82-21.9-19-21.49-39.15-42.48-63.92-56.88a457.2,457.2,0,0,1-31,68.09,1.42,1.42,0,0,1,1.88-1.32" transform="translate(-291.77 -217.01)"/><path class="cls-1" d="M729.59,636.31c5.83,11.43,11.38,22.84,14.44,35.36,1.53,6.23,2.84,12.51,5.27,18.46s5.53,11.51,8,17.41a191.3,191.3,0,0,1,6.89,20.81,2.53,2.53,0,0,0,3.67,1.49,192.83,192.83,0,0,1,18.29-8.75q4.74-2,9.56-3.65,2.19-.78,4.41-1.5c1.31-.42,3-1.2,4.38-1,1.11.14,1.64,1.14,2.19,2,1,1.54,1.95,3.09,2.93,4.64l5.86,9.27,11.71,18.54,13,20.65a2.52,2.52,0,0,0,3.92.5,141.91,141.91,0,0,1,40.57-31.73c1.92-1,3.88-1.95,5.84-2.88a15.42,15.42,0,0,0,4.77-3.09,7.28,7.28,0,0,0,2-6.07c-.32-2.43-1.71-4.47-3-6.45l-17.2-25.41-17.21-25.42c-2.75-4.06-5.5-8.13-7.89-12.42-2.32-4.13-4.34-8.43-6.72-12.53-4.69-8.11-10.79-15.31-17-22.33-5.93-6.74-12-13.4-18.2-19.84-12.52-12.91-26-25-41.25-34.71q-2.75-1.75-5.58-3.4a2.53,2.53,0,0,0-3.67,1.49,455.33,455.33,0,0,1-22.94,53Q733,626,728.93,633.22l4.66,1.26c-.11.79-.54,1.16-1.28,1.09,3.1.85,4.43-4,1.32-4.82a4,4,0,0,0-5,3.73c-.2,2.52,3.5,3.34,4.66,1.26a464.25,464.25,0,0,0,25.27-53.06q3.12-7.75,5.94-15.63l-3.67,1.5c15.09,8.8,28.51,20.08,40.89,32.34,6.22,6.17,12.18,12.57,18,19.09,6,6.68,12.09,13.37,17.24,20.74,5.34,7.65,8.93,16.28,13.92,24.13,5.27,8.3,11,16.35,16.47,24.49l16.93,25,4.19,6.2c1.26,1.85,2.89,3.76,3.71,5.86,1.37,3.52-3.62,4.93-6,6.08a145,145,0,0,0-41.24,29.84q-2.2,2.28-4.3,4.66l3.93.5-24.5-38.77L813.94,719,811,714.39a10.22,10.22,0,0,0-3.38-3.65c-3.21-1.82-7-.24-10.17.82q-5.07,1.7-10.05,3.66a204,204,0,0,0-22.08,10.3L769,727c-1.84-6.34-3.68-12.68-6.09-18.83s-5.51-11.85-8.15-17.84c-2.56-5.83-4-12-5.47-18.18a122.08,122.08,0,0,0-5.83-18.3c-2.85-6.85-6.19-13.48-9.56-20.09-1.46-2.86-5.77-.34-4.32,2.53Z" transform="translate(-291.77 -217.01)"/><path class="cls-3" d="M570,370.28a102,102,0,0,1,18.55-8c10.68-3.42,22-5.06,33.16-3.67s22,6,30.06,13.74c-5.91-.14-11.59,2.11-17.08,4.33L599.4,390.91a4.93,4.93,0,0,1-2.54.52,5,5,0,0,1-2.24-1.31,230.2,230.2,0,0,0-26.7-19.66" transform="translate(-291.77 -217.01)"/><path class="cls-3" d="M571.29,372.44c19.17-10.64,43.57-16.39,64.54-7.61A46.73,46.73,0,0,1,650,374.07l1.76-4.27c-6.15-.08-11.91,2.06-17.53,4.33l-17.65,7.14q-8.72,3.51-17.43,7c-1.08.44-1.7.91-2.66.16-1.21-1-2.36-2-3.55-3q-3.5-2.87-7.1-5.61-8.08-6.15-16.7-11.59c-2.73-1.72-5.24,2.6-2.52,4.32,5.13,3.25,10.15,6.69,15,10.32q3.68,2.74,7.23,5.65c1.09.89,2.17,1.78,3.24,2.69a10.31,10.31,0,0,0,3.88,2.51,7,7,0,0,0,4.5-.66l4.59-1.85,8.94-3.62,18.12-7.32c6.26-2.53,12.74-5.63,19.63-5.54a2.53,2.53,0,0,0,1.77-4.27,54.79,54.79,0,0,0-29.13-14.09c-12.23-2-24.78-.38-36.52,3.38a105.88,105.88,0,0,0-19.15,8.3c-2.81,1.57-.3,5.89,2.52,4.32Z" transform="translate(-291.77 -217.01)"/><path class="cls-3" d="M427.22,574.82c-4.25,6.77-5,14.84-5.24,22.64-.14,4-.19,8-.61,12-.46,4.36-1.51,8.63-2.27,12.94a44.63,44.63,0,0,0-.48,15.46,2.51,2.51,0,0,0,3.08,1.74,2.55,2.55,0,0,0,1.74-3.07c-1.46-8.47,1.62-17,2.72-25.33,1-7.45.38-15,1.47-22.47a29.11,29.11,0,0,1,3.91-11.38c1.72-2.73-2.61-5.25-4.32-2.52Z" transform="translate(-291.77 -217.01)"/><path class="cls-3" d="M443,585.81c.27,10.14-.22,20.34-2.51,30.24-2.23,9.65-6.44,19.26-5.08,29.35a2.58,2.58,0,0,0,2.5,2.5c1.21,0,2.68-1.15,2.5-2.5-1.34-10,3-19.4,5.11-28.95A127,127,0,0,0,448,585.81c-.08-3.21-5.09-3.22-5,0Z" transform="translate(-291.77 -217.01)"/><path class="cls-3" d="M467,591.5c2.33,15.24-3.36,30.27-6.15,45a96.38,96.38,0,0,0-1.66,13.32c-.15,3.21,4.85,3.21,5,0,.73-15.73,6.92-30.59,8.13-46.27a59.1,59.1,0,0,0-.5-13.42A2.5,2.5,0,0,0,467,591.5Z" transform="translate(-291.77 -217.01)"/><path class="cls-3" d="M487.57,595.39c-.23,9.32-1.72,18.62-2.81,27.87l-3.33,28.06a2.52,2.52,0,0,0,2.5,2.5,2.55,2.55,0,0,0,2.5-2.5l3.33-28.06c1.09-9.25,2.58-18.55,2.81-27.87.08-3.22-4.92-3.22-5,0Z" transform="translate(-291.77 -217.01)"/><path class="cls-3" d="M514.83,595a91.88,91.88,0,0,1,.53,14.64c-.32,4.65-1.53,9.17-2.36,13.75-1.72,9.55-2.38,19.25-3,28.92a2.52,2.52,0,0,0,2.5,2.5,2.55,2.55,0,0,0,2.5-2.5c.63-9.55,1.24-19.14,3-28.56.89-4.69,2-9.33,2.36-14.11a91.88,91.88,0,0,0-.53-14.64,2.56,2.56,0,0,0-2.5-2.5,2.52,2.52,0,0,0-2.5,2.5Z" transform="translate(-291.77 -217.01)"/><path class="cls-3" d="M538.13,602.35a205,205,0,0,1-1.33,47.42,2.59,2.59,0,0,0,1.74,3.08,2.53,2.53,0,0,0,3.08-1.75,210.4,210.4,0,0,0,1.51-48.75,2.55,2.55,0,0,0-2.5-2.5,2.52,2.52,0,0,0-2.5,2.5Z" transform="translate(-291.77 -217.01)"/><path class="cls-3" d="M565.3,602.46c2.19,15.49.5,31.24-1.18,46.69a2.51,2.51,0,0,0,2.5,2.5,2.56,2.56,0,0,0,2.5-2.5c1.73-16,3.26-32,1-48a2.52,2.52,0,0,0-3.08-1.75,2.57,2.57,0,0,0-1.74,3.08Z" transform="translate(-291.77 -217.01)"/><path class="cls-3" d="M587.25,599.56q.84,25-.35,50c-.16,3.21,4.84,3.21,5,0q1.19-25,.35-50c-.11-3.2-5.11-3.22-5,0Z" transform="translate(-291.77 -217.01)"/><path class="cls-3" d="M612.62,589.94a447.93,447.93,0,0,1-2,56.39,2.52,2.52,0,0,0,2.5,2.5,2.55,2.55,0,0,0,2.5-2.5,447.93,447.93,0,0,0,2-56.39c-.09-3.21-5.09-3.22-5,0Z" transform="translate(-291.77 -217.01)"/><path class="cls-3" d="M642,580.16A151.45,151.45,0,0,1,643.45,628c-.57,4.41-1.57,8.81-.47,13.23.77,3.12,5.6,1.79,4.82-1.33-.91-3.65.08-7.54.56-11.18q.79-6,1.12-12a153.31,153.31,0,0,0-.6-24.24c-.49-4.6-1.16-9.19-2-13.73a2.51,2.51,0,0,0-3.07-1.75,2.56,2.56,0,0,0-1.75,3.08Z" transform="translate(-291.77 -217.01)"/><path class="cls-3" d="M671.75,570.45a420.5,420.5,0,0,0-5.13,54.18q-.23,7.65-.16,15.3c0,3.21,5,3.22,5,0a416.35,416.35,0,0,1,3-53.18q.9-7.5,2.11-15a2.59,2.59,0,0,0-1.75-3.08,2.52,2.52,0,0,0-3.07,1.75Z" transform="translate(-291.77 -217.01)"/><path class="cls-3" d="M700.32,564.07c.31,18.45-5.15,36.23-8.53,54.2-1,5.24-1.78,10.51-2.27,15.82a2.51,2.51,0,0,0,2.5,2.5,2.56,2.56,0,0,0,2.5-2.5c1.69-18.38,7.53-36.07,9.87-54.36a109.28,109.28,0,0,0,.93-15.66c-.06-3.21-5.06-3.22-5,0Z" transform="translate(-291.77 -217.01)"/><path class="cls-3" d="M733.06,555.84c2.43,9.63-2.82,19.16-6.84,27.58a142.7,142.7,0,0,0-13.55,46.49,2.51,2.51,0,0,0,2.5,2.5,2.56,2.56,0,0,0,2.5-2.5,139.86,139.86,0,0,1,7.1-30.19,145.53,145.53,0,0,1,6-14.18,117,117,0,0,0,6.08-14.1,30.45,30.45,0,0,0,1.07-16.93c-.79-3.12-5.61-1.8-4.82,1.33Z" transform="translate(-291.77 -217.01)"/><path class="cls-3" d="M748.24,613.66c8.28-2.43,14.84-8.61,23.13-10.95,3.09-.87,1.77-5.7-1.33-4.82-8.33,2.35-14.87,8.53-23.13,11-3.08.91-1.77,5.73,1.33,4.82Z" transform="translate(-291.77 -217.01)"/><path class="cls-3" d="M736.72,646.54l55.14-24.64a2.52,2.52,0,0,0,.9-3.42,2.57,2.57,0,0,0-3.42-.9L734.2,642.22a2.52,2.52,0,0,0-.9,3.42,2.57,2.57,0,0,0,3.42.9Z" transform="translate(-291.77 -217.01)"/><path class="cls-3" d="M747.54,673.82a410.07,410.07,0,0,0,54.65-21.57,2.52,2.52,0,0,0,.9-3.42,2.57,2.57,0,0,0-3.42-.9A401.81,401.81,0,0,1,746.21,669c-3.06,1-1.75,5.78,1.33,4.82Z" transform="translate(-291.77 -217.01)"/><path class="cls-3" d="M760.45,704.08l28.49-14.49c8.38-4.27,17.49-8.14,24.2-14.94,2.26-2.29-1.28-5.83-3.54-3.54-6.48,6.58-15.52,10.26-23.63,14.39l-28.05,14.26c-2.86,1.46-.34,5.77,2.53,4.32Z" transform="translate(-291.77 -217.01)"/><path class="cls-3" d="M787.06,608.2l13.45-12.67A2.5,2.5,0,0,0,797,592l-13.46,12.68a2.52,2.52,0,0,0,0,3.53,2.55,2.55,0,0,0,3.54,0Z" transform="translate(-291.77 -217.01)"/><path class="cls-3" d="M768.27,588a53.54,53.54,0,0,0,11.14-10.11l-3,.39c.39.23-.19-.25,0,0l.12.12c.13.14.09.08-.11-.16,0,0,.17.31.18.31-.12-.3-.15-.36-.1-.18a2,2,0,0,1,.06.26,2.5,2.5,0,0,0,3.07,1.74,2.56,2.56,0,0,0,1.75-3.07A5.07,5.07,0,0,0,778.9,574a2.54,2.54,0,0,0-3,.39,49.82,49.82,0,0,1-4.89,5.17c-.85.78-1.73,1.53-2.63,2.25l-.41.33c.18-.15.21-.16,0,0s-.44.34-.67.5c-.5.37-1,.74-1.54,1.09a2.5,2.5,0,0,0,2.53,4.32Z" transform="translate(-291.77 -217.01)"/><path class="cls-3" d="M803.55,638.46a79.77,79.77,0,0,1,9.87-8.58c1.75-1.27,3.54-2.48,5.38-3.61,1-.58,1.91-1.14,2.88-1.69.79-.44,1.79-1.27,2.72-1.23a2.5,2.5,0,0,0,0-5c-2.52-.12-5,1.75-7.11,3s-4.11,2.57-6.07,4A87.58,87.58,0,0,0,800,634.92c-2.26,2.3,1.28,5.84,3.54,3.54Z" transform="translate(-291.77 -217.01)"/><path class="cls-3" d="M817.41,672.2l31.65-16.77c2.84-1.5.32-5.82-2.53-4.31l-31.64,16.76c-2.85,1.51-.32,5.83,2.52,4.32Z" transform="translate(-291.77 -217.01)"/><path class="cls-3" d="M814.91,724.12l42.74-26.47,11.93-7.39c2.73-1.69.22-6-2.53-4.32L824.66,712.2l-12.28,7.6c-2.73,1.69-.22,6,2.53,4.32Z" transform="translate(-291.77 -217.01)"/><path class="cls-3" d="M829.11,748.35c2.4.84,4.66-.48,6.69-1.64s3.77-2.25,5.6-3.45c3.79-2.5,7.43-5.21,11-8,6.9-5.35,13.53-11,20.56-16.24a122.94,122.94,0,0,1,12.61-8.24c2.8-1.58.28-5.9-2.53-4.32C868.16,714.86,856,727,842,736.79c-2,1.38-4,2.71-6,4-1,.6-1.94,1.18-2.92,1.74-.55.3-1.1.66-1.67.91s-.58.26-1,.12a2.52,2.52,0,0,0-3.08,1.74,2.56,2.56,0,0,0,1.75,3.08Z" transform="translate(-291.77 -217.01)"/><path class="cls-4" d="M432.57,574c-8.94-43.27-16.85-87.36-13.5-131.42,2.12-27.84,10.6-58.07,34-73.24,14.21-9.21,31.95-11.4,48.85-10.38a33.85,33.85,0,0,0-17.39-.53c18-1.17,36.39-1,53.82,3.8s34,14.41,44.39,29.2c2,2.89,4.39,6.31,7.92,6.44a10.62,10.62,0,0,0,4.22-1,278.23,278.23,0,0,1,95.13-18.52c8.2-.14,16.94.25,23.68,4.93,4.92,3.42,8.14,8.71,12.25,13.07,5,5.33,11.44,9.32,15.81,15.19,4,5.4,6,12,7.94,18.46,3.18,10.66,6.39,21.49,6.58,32.62.52,29.76-20.41,57-18.92,86.71-3.15-2.32-7.5-1.7-11.33-.95a609.32,609.32,0,0,0-97.27,27.71c-17.11,6.46-34.17,13.75-52.31,16.06-14.44,1.84-29.07.45-43.56-.94l-26.44-2.53c-21.56-2.06-43.62-4.26-63.21-13.5-3.91-1.85-9-3.81-12.1-.77" transform="translate(-291.77 -217.01)"/><path class="cls-4" d="M435,573.3c-7.86-38-14.94-76.62-14.13-115.62.59-28.76,5-62.95,28.56-82.59C464,363,483.66,360.37,502,361.43c2.87.17,3.32-4.14.67-4.91A37.49,37.49,0,0,0,483.9,356c-2.71.61-2.17,5.09.67,4.91,28-1.79,57.89-.08,81.34,17a65,65,0,0,1,13.2,12.73c3.8,4.9,7.37,11.42,14.71,9.27,3.61-1.06,7.12-2.66,10.68-3.9s7-2.34,10.53-3.41q10.74-3.24,21.73-5.62a273.7,273.7,0,0,1,44.44-5.85c6.86-.34,14-.84,20.84.32a26.29,26.29,0,0,1,9.05,3.1,28.18,28.18,0,0,1,6.95,6.26c2.07,2.42,4,5,6.17,7.3a99.35,99.35,0,0,0,7.51,6.84,58.83,58.83,0,0,1,7.26,7,33.37,33.37,0,0,1,5,8.78,172.21,172.21,0,0,1,6.39,20.72,86.81,86.81,0,0,1,3.4,22.23c0,26.56-16.14,49.87-18.68,76.06a67.63,67.63,0,0,0-.25,9.55l3.76-2.16c-3.95-2.7-8.83-2.06-13.26-1.2-5.27,1-10.53,2.15-15.77,3.32q-15.74,3.54-31.26,7.9c-20.66,5.8-40.82,12.9-60.85,20.55-9.82,3.75-19.71,7.4-30,9.83A118.82,118.82,0,0,1,556,590.4c-11-.37-22-1.62-33-2.68-10.56-1-21.14-1.92-31.68-3.14-11.23-1.3-22.46-3.11-33.29-6.44a155.46,155.46,0,0,1-15.31-6c-4.36-1.87-9.44-3.08-13.32.43-2.39,2.17,1.16,5.69,3.54,3.54,2.78-2.53,8,.7,10.72,1.92a114.75,114.75,0,0,0,13.62,5.08A182.23,182.23,0,0,0,486.47,589c10.16,1.32,20.38,2.19,30.58,3.16,10.79,1,21.57,2.24,32.38,2.92a138.3,138.3,0,0,0,32.08-1.2,168.23,168.23,0,0,0,29-8.23c9.77-3.57,19.42-7.46,29.21-10.95s19.94-6.82,30-9.84q17-5.08,34.25-9.18,8.47-2,17-3.77c2.73-.56,5.48-1.24,8.25-1.59,2.41-.3,4.79-.27,6.85,1.14a2.51,2.51,0,0,0,3.76-2.16c-1.23-27.11,15.27-51,18.43-77.42,1.8-15.11-2.28-29.63-6.59-44-2-6.67-4.3-13.33-8.68-18.84s-10.15-9.2-14.91-14.12c-4.57-4.73-8-10.49-13.6-14.17s-12.43-4.72-19-4.95c-14.94-.5-30.17,1.11-44.91,3.45a278.82,278.82,0,0,0-44.5,10.86q-5.4,1.82-10.72,3.83c-1.51.57-3.34,1.6-5,1.35a5.89,5.89,0,0,1-3.17-2.14c-2.06-2.26-3.65-5-5.61-7.35A66.42,66.42,0,0,0,575.1,379c-21.38-19.45-51.11-24.28-79-23.59-3.84.09-7.67.28-11.49.53l.66,4.91a32.18,32.18,0,0,1,16.07.53l.66-4.91c-17.31-1-35.75,1.23-50.53,11-12.51,8.26-21,20.89-26.39,34.69-5.67,14.54-7.94,30.19-8.82,45.7a342,342,0,0,0,2.37,59.76c2.7,22.54,7,44.84,11.57,67.06.65,3.15,5.47,1.82,4.82-1.33Z" transform="translate(-291.77 -217.01)"/><path class="cls-4" d="M684,641.76c3,4.87-7.83,11.73-17,30.73-11.31,23.5-10.69,46.1-10.09,67.87.39,14.3.87,31.84,7.12,53.86,1.86,6.57,13.36,45.75,8,54.83a22.14,22.14,0,0,1-7.06,7.29,16.68,16.68,0,0,1-4.28,1.81c-6.72,1.69-13.22-2.57-19.47-6.66-3.63-2.37-6.59-4.31-9.54-7.94A33.17,33.17,0,0,1,625.41,831c-4.35-16-15.18-28.91-26.64-65.47-6.1-19.44-14.15-51.21-24-76.49-1.4-3.6-7-17.75-14.42-17.81-1.54,0-2,.61-4.86,1.26-6.92,1.57-11.65-.32-15.16-.59-6.24-.48-11.36,4.33-21.36,14-7,6.73-14.24,13.84-22.24,26.15-5.82,9-6.27,11.79-16.43,31.58,0,0-6.2,12.07-13.76,25.68-14.12,25.42-22.93,41-38.52,56.87,0,0-16.31,16.57-34,18.09a7.16,7.16,0,0,1-5-1.13c-1.84-1.41-2.29-4-2.52-6.26-.86-9-.18-18.52,4.79-26,2.43-3.65,5.75-6.62,8.44-10.09,4.11-5.32,6.65-11.67,9.12-17.92,9.61-24.24,19.35-49,20.46-75.1.39-9.17,1.58-17.51,1.93-23.35.81-13.72.94-25.16.9-33.29,40.5,6.57,64,7.43,78.37,6.77,3.17-.15,15.11-.81,31.64-.92,13.18-.09,19.13.23,25.83.23,4.77,0,18.9-.14,51.21-5.74C665.09,643.46,680.51,636.17,684,641.76Z" transform="translate(-291.77 -217.01)"/><path class="cls-4" d="M681.8,643c.05.09.29.63.14.23s0,.09,0,.19c.13.48.07-.36,0,0,0,.1,0,.71,0,.27s-.16.55-.22.78-.18.47,0,.08c-.1.24-.22.48-.34.71a44.4,44.4,0,0,1-4,6,124.3,124.3,0,0,0-12.81,20.55c-8.36,17.65-10.59,36.81-10.43,56.14.13,16.27.56,32.68,3.32,48.75,2,11.89,5.79,23.33,8.65,35,1.48,6,2.81,12.06,3.78,18.18.77,4.87,1.5,10.13.84,15.11.06-.48-.12.63-.18.88-.09.43-.22.84-.35,1.26s-.25.55,0,.12c-.08.14-.14.29-.22.42a16.8,16.8,0,0,1-1.63,2.39,17.61,17.61,0,0,1-5,4.36c-3.77,2.11-7.74,1.93-11.66.28-4.26-1.8-8.21-4.59-12-7.21-6.26-4.34-10-10.45-12-17.67a91.45,91.45,0,0,0-5.24-13.57c-5.55-12.05-11.47-23.82-16.1-36.27-5.89-15.89-10.2-32.3-15-48.54-2.59-8.83-5.26-17.64-8.17-26.37-2.34-7-4.7-14.11-7.71-20.88-2.31-5.2-5.52-11.59-10.81-14.33a9.51,9.51,0,0,0-4.29-1.15,15.39,15.39,0,0,0-4.28,1,25.58,25.58,0,0,1-11.77.24c-2.83-.51-5.54-.92-8.37-.14A22.61,22.61,0,0,0,528.3,674c-6.25,4.84-11.92,10.66-17.42,16.32A124.81,124.81,0,0,0,488.24,722c-5.27,10.71-10.55,21.4-16.17,31.94q-6.92,12.93-14.15,25.69c-4.11,7.27-8.31,14.5-12.91,21.46-6.42,9.69-13.71,19.29-22.64,26.81a70.38,70.38,0,0,1-16.5,10.55,39,39,0,0,1-10.72,3.15c-1.39.18-3.14.43-4.37-.41-1.39-.94-1.55-3.1-1.7-4.61-.81-8.61-.22-17.88,4.92-25.16,2.73-3.87,6.34-7,9.06-10.91A64.81,64.81,0,0,0,409.52,788c7.61-18.26,15-37,19.18-56.43q1.6-7.33,2.48-14.81c.59-5,.71-10.06,1.1-15.09.69-9.08,1.68-18.09,2.05-27.2q.46-11.72.41-23.44l-3.17,2.41c21.11,3.42,42.45,6.32,63.86,6.94,5.76.17,11.51.09,17.26-.19q15.63-.75,31.29-.82c13.16-.06,26.25.66,39.38-.52,22.74-2,45.34-6.3,67.63-11.16,7.31-1.59,14.58-3.41,22-4.74.6-.1,1.2-.21,1.81-.3l.75-.11c.6-.09-.42.05,0,0l.52-.06a26.74,26.74,0,0,1,2.83-.21c.38,0,.76,0,1.14,0,.16,0,.31,0,.47,0s-.64-.16,0,0c.28.07.58.18.86.23.47.08-.4-.29-.13-.07a2.06,2.06,0,0,0,.41.23c.52.21-.54-.3.14.12.09.05.14.17.22.24-.5-.41-.31-.43-.1-.1,1.71,2.71,6,.2,4.31-2.53-2-3.1-5.73-3.4-9.06-3.11-6,.51-11.95,2.07-17.82,3.38-22.44,5-45,9.6-67.9,12.27-6.41.74-12.85,1.35-19.31,1.54-5.87.17-11.75-.07-17.62-.15q-17.79-.23-35.56.51c-5.86.24-11.71.59-17.58.56-19.49-.08-39-2.41-58.22-5.28q-5.07-.76-10.14-1.58a2.53,2.53,0,0,0-3.16,2.41q.06,12.41-.47,24.79c-.39,9.22-1.49,18.34-2.12,27.53-.35,5.12-.52,10.23-1.21,15.33-.65,4.88-1.6,9.73-2.73,14.52a254.18,254.18,0,0,1-9,29.17c-1.73,4.71-3.54,9.38-5.38,14.05-1.77,4.51-3.46,9.07-5.5,13.46a48.14,48.14,0,0,1-7.6,11.86c-3.11,3.5-6.35,6.9-8.36,11.18A38.53,38.53,0,0,0,384,826.2a47.59,47.59,0,0,0,.55,13.48,8.5,8.5,0,0,0,9,7.07,36.92,36.92,0,0,0,11.12-2.43c10.53-3.88,20-10.81,27.63-19,10.95-11.64,19.57-25,27.5-38.85s15.47-27.55,22.7-41.59c3.15-6.14,6.18-12.33,9.2-18.53a121.08,121.08,0,0,1,6.11-11.33,125.43,125.43,0,0,1,15.35-19.82,194.45,194.45,0,0,1,17.44-16.65,19.22,19.22,0,0,1,6.88-4,8.15,8.15,0,0,1,3.08-.23c1.24.11,2.9.5,4.32.72a28.67,28.67,0,0,0,13-.67c.64-.2,1.26-.45,1.9-.64a2.87,2.87,0,0,1,1.19,0,6.19,6.19,0,0,1,2.79,1.47,24.86,24.86,0,0,1,5.35,7.21,63.17,63.17,0,0,1,3,6.55c3.22,8.12,6,16.42,8.63,24.74,5.23,16.43,9.68,33.1,14.71,49.59A319.91,319.91,0,0,0,613,808.1c2.33,4.85,4.76,9.67,6.86,14.63.67,1.6,1.65,4.17,2.31,6.2.75,2.35,1.3,4.74,2.23,7A34.2,34.2,0,0,0,632,847.58c3.21,3.19,7.18,5.61,11,8,4,2.53,8.32,4.85,13.1,5.36a16.5,16.5,0,0,0,10.36-2.55c4.56-2.85,8.5-7.44,9.25-12.87s0-10.86-.82-16.16a271.83,271.83,0,0,0-7.57-32.85,205.41,205.41,0,0,1-4.95-20.94,200.23,200.23,0,0,1-2.56-24.68c-.38-8.15-.61-16.33-.63-24.5a151.92,151.92,0,0,1,2-27.69A98,98,0,0,1,671,670.06c3.53-6.6,8-12.49,12.32-18.55,2.21-3.09,5-7.18,2.77-11C684.49,637.73,680.16,640.24,681.8,643Z" transform="translate(-291.77 -217.01)"/></g><g id="Слой_2" data-name="Слой 2"><path class="cls-2" d="M433.29,575a353.35,353.35,0,0,1-8.51-35.44q-1.42-7.67-2.5-15.38l-.06-.48c-.12-.87,0,.27,0,.37,0-.33-.09-.65-.13-1-.1-.77-.2-1.54-.29-2.31-.19-1.52-.37-3.05-.54-4.58q-.53-4.75-.9-9.54a334.12,334.12,0,0,1-.61-45q.34-6.41.94-12.79c.21-2.2.43-4.39.68-6.58.12-1.07.25-2.13.38-3.19l.18-1.43.09-.71c.05-.38.14-1,0-.29a195.56,195.56,0,0,1,3.8-20.64c.64-2.61,1.36-5.2,2.19-7.75.72-2.21,1.74-4.34,2.41-6.55-.13.44-.45,1.05-.13.32l.33-.74c.2-.44.4-.89.61-1.33.41-.87.84-1.73,1.3-2.58.82-1.56,1.72-3.08,2.68-4.57q1.21-1.86,2.55-3.65c.16-.22.9-1.18.25-.35s.31-.39.51-.63q1-1.32,2.16-2.58,3-3.39,6.29-6.47,2.07-1.92,4.24-3.72l1.22-1,.53-.42c-.07,0-.56.42-.1.08.89-.67,1.78-1.33,2.68-2a88.73,88.73,0,0,1,9.55-5.85c1.19-.63,2.39-1.24,3.6-1.82l1.9-.88.91-.4c.32-.14,1.65-.6.37-.17,3.1-1,6.1-2.36,9.26-3.3a89.64,89.64,0,0,1,11-2.55l1.31-.21c.26,0,1.73-.23.67-.1q1.47-.18,2.94-.33,3-.27,6-.35a86.67,86.67,0,0,1,11.39.48l1.21.14.61.08c.75.09-.87-.13-.13,0s1.71.25,2.57.4c1.73.3,3.46.65,5.17,1.05q4.94,1.16,9.72,2.8c1.52.52,3,1.08,4.53,1.66l2,.79c.21.08.43.16.63.26l-.4-.17,1.09.48a158.29,158.29,0,0,1,14.74,7.52,180.15,180.15,0,0,1,16.73,10.54c.74.54,1.48,1.08,2.22,1.64l1.16.88.44.34q2.07,1.64,4.09,3.34c2.4,2,4.75,4.16,7,6.35q2.73,2.64,5.33,5.42a5,5,0,0,0,7.07,0,5.11,5.11,0,0,0,0-7.07,151.8,151.8,0,0,0-32.5-26.28c-10.06-6.05-20.47-11.61-31.61-15.4a94.89,94.89,0,0,0-81.4,9.33,93.8,93.8,0,0,0-25.18,22.92,72.7,72.7,0,0,0-10.75,20.9c-4.58,13.6-6.47,28.14-7.88,42.36a332.76,332.76,0,0,0-1.23,48.7,347.39,347.39,0,0,0,11.65,73.82q1.09,4.1,2.3,8.16a5,5,0,1,0,9.64-2.65Z" transform="translate(-291.77 -217.01)"/><path class="cls-2" d="M580.33,412.88A212.46,212.46,0,0,1,615.11,393c1.45-.66,2.92-1.3,4.39-1.93l.21-.09,1-.41c.94-.39,1.88-.77,2.83-1.14q4.56-1.8,9.2-3.39,9.39-3.21,19-5.54c3.25-.79,6.52-1.49,9.8-2.12,1.57-.3,3.15-.58,4.72-.85l2.72-.43,1-.15,1.06-.15a87.59,87.59,0,0,1,22.06-.48c-.9-.1.54.09.81.13l1,.17c1,.17,2.05.36,3.07.58a81.74,81.74,0,0,1,9,2.39c1.5.49,3,1.05,4.45,1.63,1.24.5-1-.43.26.11l1.07.48c.71.32,1.41.65,2.11,1a79.59,79.59,0,0,1,7.47,4.23c1.09.71,2.17,1.44,3.24,2.2.51.36,1,.74,1.53,1.12l.69.51c.42.33.35.28-.21-.16l.52.41q2.85,2.26,5.52,4.76a90.89,90.89,0,0,1,8,8.45c.45.54.88,1.08,1.32,1.63.77,1-.75-1-.11-.15l.54.72c.48.65,1,1.3,1.4,2a60.69,60.69,0,0,1,3.16,5.24q1.2,2.17,2.23,4.42c.19.4.37.8.55,1.21,0,0,.55,1.29.26.6l.25.61c.21.53.41,1.06.61,1.6a75.66,75.66,0,0,1,2.76,9.06c.34,1.4.63,2.81.89,4.22.12.63.22,1.25.32,1.88.06.38.12.75.17,1.12.08.57.08.5,0-.22l.09.74a93.24,93.24,0,0,1,.59,15.13c-.09,2.13-.24,4.27-.45,6.39-.09.89-.19,1.78-.3,2.66-.05.44-.11.89-.17,1.33s-.15.95.1-.7l-.12.81a79.44,79.44,0,0,1-2,10.37c-1,3.61-2.29,7.14-3.4,10.72-2,6.46-3.7,13-5.2,19.59a304.41,304.41,0,0,0-6,36.76q-.33,3.21-.58,6.44c-.21,2.61,2.45,5.11,5,5a5.14,5.14,0,0,0,5-5c.39-5,.92-9.91,1.56-14.84.16-1.25-.16,1.14,0-.12,0-.31.09-.61.13-.92l.3-2c.22-1.55.47-3.1.72-4.65.52-3.19,1.09-6.36,1.72-9.53a305,305,0,0,1,9.31-35.17,100.07,100.07,0,0,0,4.06-22,95,95,0,0,0-2.55-32.57A74.4,74.4,0,0,0,751.59,401a97,97,0,0,0-18.24-18.36,80.36,80.36,0,0,0-33.19-15.18,79.19,79.19,0,0,0-18.56-1.59,148.74,148.74,0,0,0-22.24,2.79,217.13,217.13,0,0,0-75.75,30c-2.82,1.79-5.6,3.66-8.33,5.58-2.14,1.5-3.34,4.44-1.79,6.84,1.36,2.12,4.55,3.4,6.84,1.79Z" transform="translate(-291.77 -217.01)"/><path class="cls-2" d="M566.8,374.13a101.13,101.13,0,0,1,17.52-8.27c6.18-2.3,12.46-4.5,18.79-6.33a40.35,40.35,0,0,1,9.58-1.8,42.48,42.48,0,0,1,9.79.79,83.37,83.37,0,0,1,8.51,2c1.4.41,2.78.86,4.15,1.35,1.57.57,2.33.88,3.45,1.39,6.07,2.77,10.53,5.85,14.67,11,1.31,1.64,4.3,1.48,5.65,0a4.1,4.1,0,0,0,0-5.65c-7.81-9.73-20-14.83-31.95-17.34a67.13,67.13,0,0,0-11.37-1.54,42.6,42.6,0,0,0-11,1.15c-6.89,1.56-13.66,4.1-20.3,6.5a118.26,118.26,0,0,0-21.56,9.86,4,4,0,1,0,4,6.9Z" transform="translate(-291.77 -217.01)"/><path class="cls-2" d="M508.7,504c0,.7,0,1.39-.08,2.09,0,.15,0,.93-.1,1,.29-.26.16-1,0-.15a25.56,25.56,0,0,1-.91,3.77c-.12.37-.36,1.67-.68,1.87l.25-.58c-.09.2-.18.4-.28.6s-.23.49-.36.74a27.08,27.08,0,0,1-1.94,3.23c-.13.18-.38.69-.58.79l.38-.5-.41.51c-.39.46-.79.9-1.2,1.33s-.84.85-1.29,1.25l-.73.64-.51.42.5-.38c-.18.39-1.24.89-1.61,1.12s-1,.64-1.54.93-1.07.57-1.61.83l-.3.13c-.5.22-.41.19.28-.11-.11.17-.72.28-.93.36a26.56,26.56,0,0,1-3.71,1.05l-.83.16-.34,0c-.55.08-.45.07.32,0-.23.26-1.7.15-2.07.16a31.46,31.46,0,0,1-4-.14c-.75-.06,1.28.23.14,0-.33-.06-.67-.11-1-.18-.66-.13-1.32-.28-2-.47s-1.28-.38-1.91-.61c-.16-.06-.83-.21-.92-.36l.58.25-.45-.2a31.3,31.3,0,0,1-3.31-1.83c-.39-.25-1.39-.71-1.6-1.12l.49.38-.5-.42-.62-.53a27.49,27.49,0,0,1-2.6-2.69l-.21-.25c-.34-.42-.28-.34.17.24-.19-.1-.45-.61-.58-.79-.34-.49-.67-1-1-1.51s-.61-1-.88-1.57c-.15-.3-.3-.59-.44-.89l-.27-.6.25.58c-.31-.16-.58-1.54-.69-1.87-.19-.59-.35-1.18-.5-1.78s-.27-1.21-.38-1.82l-.05-.33c-.09-.56-.07-.45,0,.31-.13-.11-.09-.82-.11-1a28.24,28.24,0,0,1,0-4c0-.28.06-.57.08-.86.09-1.2-.22,1.15,0,0,.12-.66.23-1.33.39-2,.3-1.26.78-2.43,1.16-3.66.22-.68-.53,1.13-.05.13.15-.3.28-.6.43-.89.29-.59.61-1.17.95-1.73s.69-1.11,1.06-1.65c.13-.18.39-.69.58-.79l-.38.5.31-.38a34.86,34.86,0,0,1,2.59-2.71c.24-.22.49-.43.74-.64l.25-.21c.42-.33.34-.28-.24.18.19-.39,1.1-.8,1.47-1a27.19,27.19,0,0,1,3.29-1.85l.3-.13c.49-.22.4-.18-.28.11.09-.15.76-.3.92-.36.58-.21,1.16-.4,1.75-.57s1.19-.32,1.8-.44c.33-.07.66-.14,1-.19l.67-.11-.65.09c.18-.24,1.75-.15,2.07-.16.64,0,1.28,0,1.92,0s1.27.08,1.9.13c1.21.09-1.15-.21,0,0l1,.18a25.54,25.54,0,0,1,4.18,1.2l.31.12c.51.2.41.16-.28-.13.2-.06,1,.47,1.2.56.59.3,1.16.61,1.73.95s1.29.81,1.91,1.26a2.32,2.32,0,0,1,.53.39c-.58-.46-.66-.51-.25-.18l.5.42a26.47,26.47,0,0,1,3,3l.21.25q.5.63-.18-.24c.22.11.43.58.58.79.44.63.85,1.27,1.24,1.93s.64,1.15.92,1.74c.07.14.46.77.42.9-.29-.68-.33-.78-.13-.27l.24.62a25.3,25.3,0,0,1,1.14,4.2l.12.67c.08.56.07.45,0-.31,0,.23.05.46.07.69.08.81.11,1.62.11,2.43a5,5,0,1,0,10,0,31.73,31.73,0,0,0-20.83-29.5,31.37,31.37,0,0,0-34.39,9.28,32.24,32.24,0,0,0-7.33,18,31,31,0,0,0,4.38,18.4,31.74,31.74,0,0,0,33.32,14.51c12.25-2.43,22.51-13,24.38-25.35a37.68,37.68,0,0,0,.47-5.3,5,5,0,1,0-10,0Z" transform="translate(-291.77 -217.01)"/><circle class="cls-2" cx="206.66" cy="284.68" r="12.66"/><path class="cls-2" d="M493,496.28c.25-.25.51-.48.77-.72.63-.58-1.06.74,0,0a11.65,11.65,0,0,1,1.64-.95c1-.5-1,.35-.16.06l.94-.32a14.2,14.2,0,0,1,1.94-.4l-1.33.18a14.18,14.18,0,0,1,3.19,0L498.7,494a14.06,14.06,0,0,1,1.93.4l.95.32c.8.27-1.22-.59-.05,0a14.6,14.6,0,0,1,1.53.9c1.08.74-.62-.58,0,0,.26.24.53.47.78.72s.47.51.71.77c.58.63-.74-1.07,0,0a11.79,11.79,0,0,1,.9,1.53c.58,1.18-.28-.85,0,0,.1.31.22.62.31.94a14.38,14.38,0,0,1,.4,1.93L506,500.1a13.09,13.09,0,0,1,0,3.19l.18-1.33a14.06,14.06,0,0,1-.4,1.93c-.09.32-.21.63-.31.95-.28.8.58-1.22,0,0a11.79,11.79,0,0,1-.9,1.53c-.74,1.08.58-.62,0,0-.24.26-.46.53-.71.78s-.52.47-.78.71c-.63.58,1.07-.74,0,0a11.79,11.79,0,0,1-1.53.9c-1.17.58.85-.28.05,0-.32.1-.63.22-.95.31a14.06,14.06,0,0,1-1.93.4l1.33-.18a14.18,14.18,0,0,1-3.19,0l1.33.18a14.2,14.2,0,0,1-1.94-.4c-.32-.09-.63-.21-.94-.31-.81-.28,1.22.58,0,0a11.15,11.15,0,0,1-1.53-.9c-1.08-.74.61.58,0,0-.26-.24-.52-.46-.77-.71s-.48-.52-.71-.78c-.58-.63.73,1.07,0,0a14.6,14.6,0,0,1-.9-1.53c-.58-1.17.28.85,0,0-.11-.32-.22-.63-.31-.95a12.72,12.72,0,0,1-.4-1.93l.18,1.33a13.09,13.09,0,0,1,0-3.19l-.18,1.32a13,13,0,0,1,.4-1.93c.09-.32.2-.63.31-.94.3-.88-.56,1.19-.06.16a13.55,13.55,0,0,1,.95-1.65c.74-1.08-.57.62,0,0,.23-.26.46-.52.71-.77a5,5,0,0,0-7.07-7.07,17.3,17.3,0,0,0-4.82,9.07,18.75,18.75,0,0,0,1.48,11.22,17.58,17.58,0,0,0,17.17,9.78,18.57,18.57,0,0,0,10.37-4.39,17.24,17.24,0,0,0,5.39-8.82,17.93,17.93,0,0,0-7.43-19.14c-6.84-4.69-16.35-3.42-22.16,2.28a5,5,0,0,0,0,7.07A5.11,5.11,0,0,0,493,496.28Z" transform="translate(-291.77 -217.01)"/><path class="cls-2" d="M640.4,504c0,.7,0,1.39-.09,2.09,0,.15,0,.93-.1,1,.3-.26.16-1,0-.15a25.53,25.53,0,0,1-.9,3.77c-.12.37-.36,1.67-.69,1.87l.25-.58-.27.6-.36.74a27.08,27.08,0,0,1-1.94,3.23c-.13.18-.39.69-.58.79l.38-.5-.42.51c-.38.46-.78.9-1.2,1.33s-.84.85-1.28,1.25l-.74.64L632,521l.5-.38c-.17.39-1.24.89-1.6,1.12s-1,.64-1.55.93-1.06.57-1.61.83l-.3.13c-.5.22-.4.19.28-.11-.1.17-.71.28-.93.36a26,26,0,0,1-3.7,1.05l-.84.16-.33,0c-.56.08-.45.07.31,0-.23.26-1.69.15-2.07.16a31.46,31.46,0,0,1-4-.14c-.75-.06,1.28.23.15,0l-1-.18c-.66-.13-1.32-.28-2-.47s-1.27-.38-1.9-.61c-.17-.06-.84-.21-.93-.36l.58.25-.45-.2a32.18,32.18,0,0,1-3.3-1.83c-.4-.25-1.39-.71-1.61-1.12l.5.38-.51-.42-.61-.53a27.59,27.59,0,0,1-2.61-2.69l-.21-.25q-.5-.63.18.24c-.2-.1-.45-.61-.58-.79-.35-.49-.67-1-1-1.51s-.6-1-.88-1.57c-.15-.3-.29-.59-.43-.89s-.19-.4-.28-.6l.25.58c-.3-.16-.58-1.54-.68-1.87-.19-.59-.36-1.18-.5-1.78s-.28-1.21-.38-1.82l-.06-.33c-.08-.56-.07-.45,0,.31-.13-.11-.09-.82-.1-1a25.56,25.56,0,0,1,0-4c0-.28,0-.57.07-.86.09-1.2-.21,1.15,0,0,.12-.66.24-1.33.4-2,.3-1.26.77-2.43,1.16-3.66.22-.68-.54,1.13-.05.13l.42-.89c.3-.59.61-1.17.95-1.73s.69-1.11,1.07-1.65c.13-.18.38-.69.58-.79l-.38.5c.1-.13.2-.26.31-.38a33.08,33.08,0,0,1,2.59-2.71l.73-.64.25-.21c.42-.33.34-.28-.24.18.2-.39,1.11-.8,1.47-1a27.19,27.19,0,0,1,3.29-1.85l.3-.13c.5-.22.4-.18-.28.11.09-.15.76-.3.93-.36.57-.21,1.16-.4,1.74-.57s1.2-.32,1.8-.44c.33-.07.66-.14,1-.19l.67-.11-.65.09c.18-.24,1.76-.15,2.07-.16.64,0,1.29,0,1.93,0s1.26.08,1.9.13c1.2.09-1.15-.21,0,0,.33.06.67.11,1,.18a25.38,25.38,0,0,1,4.19,1.2l.31.12c.5.2.41.16-.28-.13.19-.06,1,.47,1.19.56.59.3,1.17.61,1.73.95s1.3.81,1.92,1.26a2.28,2.28,0,0,1,.52.39c-.58-.46-.66-.51-.24-.18l.5.42a26.38,26.38,0,0,1,3,3l.21.25c.34.42.28.34-.17-.24.21.11.43.58.58.79.43.63.85,1.27,1.23,1.93s.64,1.15.93,1.74c.06.14.45.77.41.9-.29-.68-.33-.78-.12-.27.08.2.16.41.23.62a26.35,26.35,0,0,1,1.15,4.2c0,.23.07.45.11.67.08.56.07.45,0-.31,0,.23,0,.46.08.69.07.81.1,1.62.11,2.43a5,5,0,0,0,10,0,31.76,31.76,0,0,0-20.83-29.5,31.38,31.38,0,0,0-34.4,9.28,32.31,32.31,0,0,0-7.33,18,31,31,0,0,0,4.38,18.4,31.74,31.74,0,0,0,33.32,14.51c12.25-2.43,22.51-13,24.38-25.35a37.69,37.69,0,0,0,.48-5.3,5,5,0,1,0-10,0Z" transform="translate(-291.77 -217.01)"/><circle class="cls-2" cx="338.36" cy="284.68" r="12.66"/><path class="cls-2" d="M624.71,496.28c.25-.25.52-.48.78-.72.63-.58-1.07.74,0,0a11.65,11.65,0,0,1,1.64-.95c1-.5-1,.35-.16.06l.95-.32a14.06,14.06,0,0,1,1.93-.4l-1.33.18a14.18,14.18,0,0,1,3.19,0l-1.33-.18a14.2,14.2,0,0,1,1.94.4l.94.32c.81.27-1.22-.59,0,0a13.64,13.64,0,0,1,1.53.9c1.08.74-.61-.58,0,0,.26.24.52.47.77.72s.48.51.72.77c.58.63-.74-1.07,0,0a14.6,14.6,0,0,1,.9,1.53c.58,1.18-.28-.85,0,0,.11.31.22.62.31.94a13,13,0,0,1,.4,1.93l-.17-1.32a14.18,14.18,0,0,1,0,3.19l.17-1.33a12.72,12.72,0,0,1-.4,1.93c-.09.32-.2.63-.31.95-.27.8.59-1.22,0,0a14.6,14.6,0,0,1-.9,1.53c-.74,1.08.58-.62,0,0-.24.26-.47.53-.72.78s-.51.47-.77.71c-.63.58,1.06-.74,0,0a11.15,11.15,0,0,1-1.53.9c-1.17.58.86-.28,0,0-.31.1-.62.22-.94.31a14.2,14.2,0,0,1-1.94.4l1.33-.18a14.18,14.18,0,0,1-3.19,0l1.33.18a14.06,14.06,0,0,1-1.93-.4c-.32-.09-.63-.21-.95-.31-.8-.28,1.22.58,0,0a11.79,11.79,0,0,1-1.53-.9c-1.08-.74.62.58,0,0-.26-.24-.53-.46-.78-.71s-.47-.52-.71-.78c-.58-.63.74,1.07,0,0a11.79,11.79,0,0,1-.9-1.53c-.58-1.17.28.85,0,0-.1-.32-.22-.63-.31-.95a14.06,14.06,0,0,1-.4-1.93l.18,1.33a13.09,13.09,0,0,1,0-3.19l-.18,1.32a14.38,14.38,0,0,1,.4-1.93c.09-.32.21-.63.31-.94.3-.88-.55,1.19-.06.16a13.62,13.62,0,0,1,1-1.65c.74-1.08-.58.62,0,0,.24-.26.47-.52.71-.77a5,5,0,0,0-7.07-7.07,17.3,17.3,0,0,0-4.82,9.07,18.75,18.75,0,0,0,1.48,11.22,17.59,17.59,0,0,0,17.18,9.78,18.51,18.51,0,0,0,10.36-4.39,17.32,17.32,0,0,0,5.4-8.82,17.94,17.94,0,0,0-7.44-19.14c-6.84-4.69-16.35-3.42-22.16,2.28a5,5,0,0,0,0,7.07A5.11,5.11,0,0,0,624.71,496.28Z" transform="translate(-291.77 -217.01)"/><path class="cls-2" d="M586.18,470.22l.33-.44-.78,1a34,34,0,0,1,6-6l-1,.78a34.28,34.28,0,0,1,4.56-3,5,5,0,1,0-5-8.63,38.28,38.28,0,0,0-12.71,11.21A5,5,0,0,0,577,469a5,5,0,0,0,6.15,3.5l1.2-.51a5,5,0,0,0,1.79-1.79Z" transform="translate(-291.77 -217.01)"/><path class="cls-2" d="M476.75,440.34c.23-.13.46-.25.7-.36s.83-.37.12-.07.11,0,.28-.09l.6-.21c.91-.28,1.83-.41,2.75-.63-1.44.35-.06,0,.4,0s.94,0,1.41,0,1.05.05,1.58.09c.72.06-.22,0-.39-.06a2.89,2.89,0,0,0,.78.13,19.74,19.74,0,0,1,2.74.73l.6.22c.74.28.16.17-.18-.08a13.64,13.64,0,0,0,1.27.63c.41.22.82.46,1.21.72l.52.35.25.18c-.6-.45,0,0,.11.1l.58.53c.38.36.74.74,1.09,1.14a5,5,0,0,0,7.07,0,5.12,5.12,0,0,0,0-7.07c-7-7.92-19.3-9.74-28.54-4.86a5,5,0,0,0-1.79,6.84,5.11,5.11,0,0,0,6.84,1.8Z" transform="translate(-291.77 -217.01)"/><path class="cls-2" d="M546.1,508.84q.51,9,.38,18c0,2,1.56,4.45,3.67,4.82l6.87,1.22a5.43,5.43,0,0,0,3.85-.5,5.1,5.1,0,0,0,2.3-3c.55-2.44-.74-5.67-3.5-6.15l-6.86-1.22,3.67,4.82q.12-9-.38-18c-.14-2.61-2.19-5.13-5-5-2.58.11-5.15,2.2-5,5Z" transform="translate(-291.77 -217.01)"/><path class="cls-2" d="M551.68,578.26a30.12,30.12,0,0,1,2.65-2.65c.53-.48-.94.65.08-.06l.66-.44c.49-.33,1-.63,1.52-.91.29-.16.59-.29.88-.45.84-.45-.49.16.07,0s1.11-.41,1.68-.58,1.14-.31,1.72-.43a5.33,5.33,0,0,1,1-.17c-.65,0-.56.07.05,0a23.16,23.16,0,0,1,3.63.06c.62,0-.9-.18.07,0l.79.16a16.57,16.57,0,0,1,1.95.54l.76.27c1.2.42-.54-.3.11,0s1.09.52,1.62.83,1.15.7,1.71,1.09.26.23-.05,0l.91.79c1.94,1.76,5.19,2.06,7.08,0,1.75-1.91,2.07-5.19,0-7.07a24.89,24.89,0,0,0-35.93,2c-1.68,2-2.11,5.13,0,7.07,1.86,1.7,5.27,2.14,7.07,0Z" transform="translate(-291.77 -217.01)"/><path class="cls-2" d="M750.17,530.56c-1,.15.63,0,.68,0,.34,0,.67,0,1,0,1.51.08-.49-.13.38.07.4.09.79.18,1.19.31s.63.2.93.33c-.89-.37.57.33.6.34.29.16.58.33.86.51.05,0,1.24.9.63.42a18.39,18.39,0,0,1,1.88,1.76,8.58,8.58,0,0,1,1.17,1.45,19.38,19.38,0,0,1,2.07,4c2.62,7.85-.57,16.49-3.35,23.88-3.34,8.89-6.81,17.72-10.23,26.58-1.62,4.21-3.22,8.43-4.86,12.63l-1,2.43c-.14.32-.27.65-.4,1-.65,1.58.17-.4-.22.51-.73,1.7-1.5,3.39-2.32,5a67.78,67.78,0,0,1-5.31,9l-.14.2c-.3.41-.63.8-1,1.18-.49.58-1,1.14-1.52,1.69s-1,1.06-1.6,1.57l-1.13,1c-.74.65.33-.18-.56.43a22.12,22.12,0,0,1-9.4,4.09A79.3,79.3,0,0,1,706.54,632c-18.78.92-37.37,4.1-55.86,7.3-18.26,3.16-36.51,6-55,7.66-18.89,1.71-37.84,2.58-56.79,3.18-18.21.58-36.49,1.35-54.7.82-17.41-.52-34.78-2.55-51.23-8.56-6-2.21-12.44-5.43-16.67-10.63.14.17.42.61-.17-.23q-.37-.53-.72-1.08c-.43-.66-.79-1.36-1.16-2-.72-1.36.19.71-.33-.75-.14-.4-.28-.8-.41-1.21a24.63,24.63,0,0,1-.78-3.4c-.63-3.89-.57-8.52-.75-12.67q-.6-14.21-1.2-28.39a70.45,70.45,0,0,1,.24-13.15,29.54,29.54,0,0,1,1.35-5.45,8.85,8.85,0,0,1,.74-1.76,26.61,26.61,0,0,1,1.32-2.32,9.47,9.47,0,0,1,1.12-1.53c.6-.64,1.2-1.25,1.85-1.86a7.18,7.18,0,0,1,1.5-1c.3-.18.61-.34.91-.51,1.36-.74-.72.22.74-.31a5.15,5.15,0,0,0,3.49-6.16c-.67-2.44-3.6-4.42-6.15-3.49-8.39,3.09-13.93,10.6-16,19.15-2.29,9.55-1.08,19.71-.67,29.41l.64,14.93c.2,4.75.22,9.55.73,14.28a30.78,30.78,0,0,0,4,13.12,33.37,33.37,0,0,0,8.57,9c6.72,5,15,8,23,10.27a162.22,162.22,0,0,0,28.16,5.22c18.67,1.93,37.49,1.27,56.22.79,20.15-.53,40.3-1.17,60.4-2.62s39.87-3.86,59.65-7.2c19.37-3.28,38.71-7,58.33-8.45,9.38-.68,19.08-.22,27.8-4.31,6.89-3.23,12.17-9.23,16.09-15.62,4.17-6.81,7-14.37,9.84-21.8l10.94-28.41c3.43-8.92,7.41-18.28,6.81-28-.52-8.49-4.82-16.87-12.42-21.11a18.92,18.92,0,0,0-12.49-2.07c-2.67.41-4.15,3.76-3.49,6.15.78,2.85,3.47,3.91,6.15,3.49Z" transform="translate(-291.77 -217.01)"/><path class="cls-2" d="M427,582.44A610.49,610.49,0,0,0,490.11,596q16.25,2.58,32.6,4.32c10.79,1.14,21.66,2.25,32.52,2.09,20.28-.29,40.17-5.2,59.35-11.47S652.62,577,672,571c20.63-6.33,41.75-10.85,62.88-15.16l7.74-1.58a5,5,0,0,0,3.49-6.15,5.12,5.12,0,0,0-6.15-3.49c-20.93,4.25-41.9,8.5-62.47,14.33-19.5,5.53-38.34,13-57.48,19.57-9.44,3.27-19,6.31-28.67,8.74A164.27,164.27,0,0,1,563.11,592c-10.67.78-21.32.07-31.94-.91s-21-2.2-31.2-3.7a605.33,605.33,0,0,1-62.72-12.61q-3.83-1-7.63-2a5,5,0,0,0-2.66,9.64Z" transform="translate(-291.77 -217.01)"/><path class="cls-2" d="M426.92,648.93c.56,3.65,1,7.64,1.3,11.79s.43,8.4.42,12.61q0,6-.46,12-.23,3.15-.55,6.3c-.1,1-.21,1.91-.32,2.86l-.21,1.71c-.11.88,0,0-.13,1a240.54,240.54,0,0,1-12.23,48.26,369.22,369.22,0,0,1-19.48,43.9c-3.8,7.38-7.82,14.63-11.82,21.91-3.78,6.88-7.29,14.52-6.46,22.58.84,8.22,5.55,15,13.51,17.66,7.59,2.56,15.89.51,22.59-3.43,6.24-3.66,11.77-8.74,16.92-13.78a165.58,165.58,0,0,0,13.29-14.73c17.23-21.46,29.66-46.07,42.35-70.35,6.31-12.07,12.72-24.11,19.88-35.71,3.57-5.79,7.33-11.47,11.35-17l1.39-1.88.87-1.15c.06-.07.57-.75.15-.2,1.2-1.55,2.45-3.06,3.78-4.49a24.12,24.12,0,0,1,8.06-6.18s1.54-.66.75-.35l1-.38c.92-.33,1.86-.62,2.8-.88,2-.56,4-1,6-1.34,1.67-.31,3.36-.58,5-.84l1.35-.2c-1,.14-.15,0,0,0,1-.12,2-.23,3-.3a38.63,38.63,0,0,1,4.81-.11c.75,0,1.49.08,2.24.16-1.19-.12.25.06.41.09.43.08.86.17,1.28.28.69.17,1.37.4,2,.64-1.08-.38.2.1.36.18q.48.24.93.51c.31.18.6.38.9.58,1.12.73-.61-.66.35.29l.64.61c.23.24.45.48.67.73-.27-.37-.23-.32.12.16a21.36,21.36,0,0,1,1.26,2.11c.23.44.45.89.64,1.34-.09-.2-.28-.74.07.2.67,1.82,1.23,3.67,1.77,5.54q1.82,6.23,3.65,12.44,3.72,12.57,7.57,25.11,7.65,24.91,15.8,49.69,4.1,12.47,8.31,24.88c2.7,7.94,5.41,15.88,8.8,23.56,6,13.49,15,26.51,28.36,33.53,6.75,3.54,14.39,5.61,22,4.3a18.87,18.87,0,0,0,15.15-14c1.68-6.79.25-14-1.61-20.62-2.17-7.73-4.48-15.38-6.17-23.25a315.22,315.22,0,0,1-6.2-49c-.47-8.43-.72-16.86-.83-25.3a232.3,232.3,0,0,1,.73-25.17,96.28,96.28,0,0,1,1.86-11.92,95.17,95.17,0,0,1,3.29-11.48q1-2.68,2-5.32c-.26.62.18-.42.24-.56.18-.41.36-.83.55-1.24.44-1,.9-2,1.36-3,1.72-3.62,3.59-7.16,5.56-10.65,3.76-6.68,7.88-13.16,12-19.63a5,5,0,0,0-1.79-6.84,5.1,5.1,0,0,0-6.84,1.79c-8.54,13.42-17,27-22.49,42-5.79,15.9-6.69,32.87-6.54,49.65.3,33.36,2.76,67.15,12.58,99.2a87,87,0,0,1,2.44,9.36c.15.74.27,1.48.38,2.23-.17-1.18,0,.29,0,.44s.06.58.08.88c0,.79.08,1.58.07,2.38,0,.35,0,.71,0,1.06,0,.15-.16,1.71-.07,1s-.1.53-.11.56c-.08.4-.17.79-.28,1.19s-.15.51-.23.77-.6,1.39-.08.3a15.7,15.7,0,0,1-1,1.76s-.81,1-.33.49-.62.64-.72.74-1,.95-.5.5-.62.42-.59.4c-.38.24-.78.43-1.16.66-.15.09-.87.41,0,.05a14.77,14.77,0,0,1-2.14.68c-.44.11-.88.19-1.33.27,1.07-.19-.25,0-.49,0a21.7,21.7,0,0,1-2.55,0c-.38,0-.77,0-1.16-.07-.13,0-1.63-.24-.52,0a32.87,32.87,0,0,1-5-1.25c-.74-.25-1.48-.52-2.2-.81.83.33-.12-.06-.32-.15l-1.06-.5a43.2,43.2,0,0,1-4.49-2.55c-.66-.43-1.3-.87-1.94-1.33,0,0-1.28-1-.49-.36l-.92-.74a53.89,53.89,0,0,1-4-3.69c-1.12-1.13-2.18-2.31-3.2-3.53-.26-.3-.51-.61-.76-.92-.12-.16-.76-1-.24-.3-.58-.75-1.14-1.53-1.68-2.31a96,96,0,0,1-10.31-20.21c-3-7.71-5.53-15.58-8.16-23.41q-8.26-24.57-16-49.3t-15-49.32c-2.16-7.34-3.74-16.16-9.94-21.31-5.65-4.69-13-5.69-20.13-5.12-3.79.31-7.57.93-11.31,1.59a52.29,52.29,0,0,0-10.86,2.9c-7.81,3.19-13.21,9-18.22,15.61a291.53,291.53,0,0,0-21.85,34c-13.17,23.5-24.41,48.09-38.89,70.85-3.52,5.53-7.23,10.95-11.2,16.17,0,.06-1,1.27-.34.45-.28.37-.57.73-.85,1.09-.48.61-.95,1.21-1.44,1.81q-1.59,2-3.24,3.9-3.13,3.69-6.5,7.18c-2.36,2.45-4.8,4.83-7.32,7.11-1.16,1.05-2.33,2.07-3.52,3.08-.65.56-1.32,1.11-2,1.65,0,0-1.3,1-.62.49l-1.25.92a43.55,43.55,0,0,1-4.58,2.89l-1.13.59s-1.51.7-.67.34a22.7,22.7,0,0,1-2.91,1c-.75.21-1.51.35-2.27.52.9-.2.2,0,0,0-.45,0-.91.08-1.37.09-.76,0-1.52,0-2.28,0-1.43,0,.92.23-.48-.05-.44-.09-.88-.17-1.32-.28a15.7,15.7,0,0,1-2.14-.69c1,.42-.3-.19-.41-.25s-.52-.29-.77-.45-1.26-.93-.43-.25q-.43-.36-.84-.75c-.27-.26-.52-.54-.78-.82-.37-.45-.39-.47-.05-.07-.18-.25-.34-.5-.5-.76s-.3-.52-.44-.79c-.07-.11-.61-1.46-.24-.45a21.07,21.07,0,0,1-.67-2.18c-.09-.38-.14-.76-.22-1.13-.19-.83,0,1.15,0-.28,0-.93-.1-1.85-.06-2.78,0-.47.07-.93.11-1.39,0,.2-.17.94,0-.05s.32-1.68.55-2.51a30.51,30.51,0,0,1,1.89-5.19c1.68-3.61,3.71-7,5.64-10.52,7.86-14.25,15.29-28.75,21.72-43.71,13-30.39,22.14-62.88,21.84-96.19a171.12,171.12,0,0,0-2.07-24.76c-.4-2.59-3.78-4.25-6.15-3.49-2.82.91-3.92,3.37-3.49,6.15Z" transform="translate(-291.77 -217.01)"/><path class="cls-2" d="M718.66,636.31a361.92,361.92,0,0,0,7.49,72.51c1.89,9,4.23,17.92,6.81,26.77,3,10.2,6.15,20.4,8.1,30.85.2,1.11.39,2.21.56,3.32,0,.32.09.64.14,1-.14-.89,0-.3,0-.11.08.62.15,1.25.22,1.87a46,46,0,0,1,.24,6.32c0,.43,0,.87-.08,1.3,0,.25,0,.5-.07.75-.07.86.14-.77,0-.21-.17.87-.31,1.73-.56,2.58-.11.34-.24.67-.35,1-.24.74.46-.87.08-.2-.06.11-.11.24-.18.36-.16.32-.35.62-.54.93-.06.09-.27.29-.27.39,0-.55.61-.67.08-.15l-.74.71c-.43.42.33-.32.37-.28s-.75.48-.81.51c-.25.14-.5.27-.76.39-.6.28.88-.25-.23.08a22.77,22.77,0,0,1-2.29.62s-1.33.17-.58.1l-.84.06a14.47,14.47,0,0,1-2.55-.08c.18,0,.72.14,0,0l-1.06-.25-.86-.26c-.17-.06-1.31-.54-.52-.18a19.25,19.25,0,0,1-3-1.7c-.11-.08-1-.77-.26-.18-.22-.17-.43-.35-.64-.53-.53-.45-1-.93-1.53-1.42-.7-.71-1.37-1.45-2-2.22-.18-.21-.35-.43-.52-.64-.39-.48.18.12.14.18a10.65,10.65,0,0,0-.86-1.15c-6.64-9.11-12.91-18.54-18.61-28.26a165.81,165.81,0,0,1-7.89-14.84c-.21-.46-.41-.92-.62-1.39s.52,1.28.27.63l-.27-.67q-2.79-7-5.33-14.19-6.17-17.3-10.91-35.07-1.31-4.89-2.5-9.8a4,4,0,1,0-7.71,2.12q4.69,19.23,11,38c2.62,7.78,5.32,15.61,8.58,23.15A131.06,131.06,0,0,0,693,751a319.36,319.36,0,0,0,17.2,27.06c3,4.25,5.88,8.85,9.88,12.23a24,24,0,0,0,7.62,4.48,20.06,20.06,0,0,0,9.94.58,14,14,0,0,0,11.13-8.64c1.46-3.61,1.62-7.72,1.43-11.56-.55-10.57-3.52-21-6.41-31.14-2.7-9.45-5.59-18.85-7.88-28.41q-3.69-15.33-5.87-31c0-.39-.11-.78-.16-1.17,0,.08-.16-1.21-.09-.65s-.1-.74-.09-.66l-.15-1.2c-.19-1.48-.37-3-.54-4.46-.36-3.22-.68-6.46-1-9.69q-.85-9.93-1.17-19.91-.17-5.31-.19-10.62a4,4,0,0,0-8,0Z" transform="translate(-291.77 -217.01)"/><path class="cls-2" d="M754.27,585.07a176.78,176.78,0,0,1,18,19c.56.69,1.12,1.38,1.66,2.08l.42.52-.16-.21c.32.47.69.91,1,1.36,1.2,1.6,2.37,3.23,3.52,4.87,2.46,3.54,4.79,7.18,7,10.89a318.66,318.66,0,0,1,15,28.39q3.3,7,6.33,14.14c.12.27.23.55.35.82-.08-.18-.36-.86,0,0,.23.54.46,1.08.68,1.62.48,1.14.94,2.28,1.41,3.42q1.34,3.32,2.63,6.64,4.83,12.43,9,25.13l2.29-5.65q-22.53,11-45.17,21.79l-12.91,6.13,6.84,1.79q-4.08-8.73-8-17.56-2-4.65-4-9.33l-.45-1.07c-.09-.21-.49-1.15-.14-.32-.3-.72-.61-1.44-.91-2.17q-1-2.4-2-4.81-7.95-19.36-14.92-39.1-3.82-10.85-7.35-21.78c-.8-2.48-3.5-4.35-6.15-3.49a5.06,5.06,0,0,0-3.49,6.15q12.88,39.93,29.7,78.45,4.39,10.1,9.06,20.08c1.21,2.59,4.59,2.86,6.84,1.79Q793,724,815.52,713.1l12.93-6.29a5,5,0,0,0,2.3-5.65A487.17,487.17,0,0,0,811,650.6c-8.22-17.93-17.57-35.5-29.73-51.09a175.17,175.17,0,0,0-20-21.51c-1.93-1.76-5.19-2-7.07,0s-2.06,5.19,0,7.07Z" transform="translate(-291.77 -217.01)"/><path class="cls-2" d="M803.42,716.42q13,23.39,27.7,45.75,4.2,6.39,8.54,12.68a4.09,4.09,0,0,0,6.29.81l43.56-36.25L902,729c1.8-1.5,1.22-4.08,0-5.66-9.81-12.67-19.33-25.89-28.28-39.31-7.24-10.86-14-22-20.73-33.19a297.11,297.11,0,0,0-27.78-38.73,263.63,263.63,0,0,0-21.13-22.45,260.69,260.69,0,0,0-32.72-26c-1.89-1.28-3.8-2.52-5.72-3.75a4,4,0,0,0-5.48,1.44,4.09,4.09,0,0,0,1.44,5.47,247.09,247.09,0,0,1,35.75,27.48A251.09,251.09,0,0,1,816.28,614q7.74,8.88,14.53,18c4.68,6.31,9.13,12.8,13.23,19.51,6.76,11.06,13.32,22.21,20.44,33q13,19.75,27.33,38.55c1.49,2,3,3.93,4.51,5.88v-5.66l-43.56,36.25L840.29,770l6.28.81q-15.18-22-28.68-45.14-3.85-6.6-7.56-13.29a4,4,0,0,0-5.47-1.43,4.08,4.08,0,0,0-1.44,5.47Z" transform="translate(-291.77 -217.01)"/><path class="cls-2" d="M848.55,771.05A116.88,116.88,0,0,0,864,789.6a4,4,0,1,0,5.65-5.65q-4.09-4-7.78-8.36c-.58-.7-1.16-1.41-1.73-2.12l-.5-.63-.18-.23-.18-.24-.48-.64c-1.16-1.54-2.28-3.12-3.36-4.72a4.07,4.07,0,0,0-5.47-1.43c-1.73,1.11-2.69,3.61-1.44,5.47Z" transform="translate(-291.77 -217.01)"/><path class="cls-2" d="M863.11,758.35a152.43,152.43,0,0,0,16.21,16.92,4,4,0,0,0,5.65-5.66,153.17,153.17,0,0,1-16.2-16.91c-1.33-1.63-4.29-1.49-5.66,0a4.11,4.11,0,0,0,0,5.65Z" transform="translate(-291.77 -217.01)"/><path class="cls-2" d="M878.87,748.3l12.93,14a4,4,0,0,0,5.66,0,4.1,4.1,0,0,0,0-5.66l-12.93-14a4,4,0,0,0-5.66,0,4.09,4.09,0,0,0,0,5.65Z" transform="translate(-291.77 -217.01)"/><path class="cls-2" d="M894.38,736.6l.46.34-.18-.14.89.71q.88.72,1.74,1.47c1.11,1,2.17,2,3.2,3.08s2,2.18,2.93,3.33c.24.29.48.58.71.89-.09-.12-.53-.7-.21-.27l.41.55c.45.61.88,1.23,1.31,1.86a4.06,4.06,0,0,0,5.47,1.43c1.72-1.11,2.69-3.62,1.43-5.47a59.69,59.69,0,0,0-14.12-14.68,4,4,0,0,0-3.08-.41,4,4,0,0,0-2.8,4.92,4.64,4.64,0,0,0,1.84,2.39Z" transform="translate(-291.77 -217.01)"/><path class="cls-2" d="M775.74,731.51l9.57,17.4a5,5,0,0,0,8.64-5l-9.57-17.4a5,5,0,0,0-8.64,5Z" transform="translate(-291.77 -217.01)"/><path class="cls-2" d="M791.54,722.63a227.49,227.49,0,0,0,9.78,20.64,5,5,0,0,0,6.84,1.79,5.11,5.11,0,0,0,1.8-6.84q-2.52-4.66-4.81-9.44-1.12-2.34-2.19-4.72l-1.05-2.38-.51-1.19c-.22-.51-.2-.46.07.17-.1-.23-.2-.46-.29-.69a5.53,5.53,0,0,0-2.3-3,5.12,5.12,0,0,0-3.85-.5,5,5,0,0,0-3,2.3,4.79,4.79,0,0,0-.5,3.85Z" transform="translate(-291.77 -217.01)"/><path class="cls-2" d="M814.49,710.28l12,15.93a5.5,5.5,0,0,0,3,2.3,5,5,0,0,0,6.15-3.5,4.84,4.84,0,0,0-.5-3.85l-12-15.93a5.51,5.51,0,0,0-3-2.3,5.11,5.11,0,0,0-3.86.51,5.06,5.06,0,0,0-2.29,3,4.84,4.84,0,0,0,.5,3.85Z" transform="translate(-291.77 -217.01)"/><path class="cls-2" d="M672.44,373.12C667,378.94,669,389,674.88,394.4s14.27,6.91,22.21,7a34.21,34.21,0,0,0-4.59,13.4c-.68,5.65.21,11.74,3.73,16.21a18.29,18.29,0,0,0,15.47,6.46A24.44,24.44,0,0,0,727.06,430c.56,13.79,12.45,26.2,26.19,27.36a3.54,3.54,0,0,0,2.3-.37,3.57,3.57,0,0,0,1.16-2.41c2.66-14.61-2.14-29.57-8.56-43a78.7,78.7,0,0,0-10.79-17.42c-15-17.44-39.89-22.61-62.87-22.41" transform="translate(-291.77 -217.01)"/><path class="cls-2" d="M668.9,369.58c-5.41,6-5.62,14.26-2.49,21.42s10.17,11.66,17.47,13.69a51.64,51.64,0,0,0,13.21,1.7l-4.31-7.53c-5.41,9.17-7.49,21-3.07,30.95s15.76,14.14,25.92,12.12a30.11,30.11,0,0,0,15-8.37L722.06,430a34.74,34.74,0,0,0,19.25,29c6,2.9,17.67,6.7,20.08-2.45a42.65,42.65,0,0,0,1.07-11,66.56,66.56,0,0,0-1.16-11.18,94.18,94.18,0,0,0-6.74-20.76,97.51,97.51,0,0,0-10.12-18.48c-7.6-10.47-18.06-17.7-30.1-22.21-12.62-4.74-26.43-6.28-39.85-6.18a5,5,0,0,0,0,10,133.51,133.51,0,0,1,16.36.84l1.15.14c.93.11,0,0-.19,0,.69.08,1.39.2,2.08.3,1.45.23,2.89.49,4.33.77,2.61.53,5.2,1.15,7.75,1.9a78.16,78.16,0,0,1,7.63,2.65c.28.11,1.11.4,0,0a10.37,10.37,0,0,1,1,.45q.84.38,1.68.78c1.23.59,2.43,1.21,3.62,1.88a66.77,66.77,0,0,1,6.64,4.32c.62.45-.94-.76,0,0l.86.69c.47.39.94.79,1.4,1.2,1,.91,2,1.85,3,2.83s1.76,1.9,2.59,2.9c.29.34.57.69.84,1-.55-.69-.06-.09,0,.05.52.72,1.05,1.44,1.55,2.17a82.75,82.75,0,0,1,5,8.46q2.2,4.21,4.1,8.57c0,.09.63,1.48.21.49.12.28.24.56.35.85.32.77.63,1.56.93,2.34q.95,2.46,1.76,5a75.33,75.33,0,0,1,2.39,9.26c.15.74.27,1.48.39,2.23,0,.14.2,1.63.07.46,0,.3.07.59.1.89.19,1.72.3,3.44.32,5.16a46.51,46.51,0,0,1-.15,4.72c0,.29,0,.59-.08.89,0,.14-.2,1.63,0,.47-.11.83-.32,1.64-.43,2.47s.13-.19.33-.46l.19-.24a2.64,2.64,0,0,1,1.78-.84,4.44,4.44,0,0,1-1.85-.15c1.24.42.31,0-.07,0l-.86-.18a20.9,20.9,0,0,1-2-.53c-.67-.2-1.34-.43-2-.68-.41-.16-1-.12.06,0a4.48,4.48,0,0,1-1.11-.52,28.84,28.84,0,0,1-3.64-2.13l-.72-.51c-.83-.57.76.63-.24-.18-.55-.45-1.08-.91-1.6-1.39a32.42,32.42,0,0,1-2.89-3.09c-.23-.28-.8-.71,0,0a6.51,6.51,0,0,1-.72-1c-.4-.58-.78-1.18-1.14-1.78s-.69-1.22-1-1.85c-.14-.27-.26-.53-.39-.79s-.19-.43-.28-.65c.25.61.31.73.17.39a33.79,33.79,0,0,1-1.25-4c-.07-.29-.13-.58-.19-.86s-.32-1.57-.13-.72,0-.27,0-.39c0-.47-.07-.94-.1-1.41-.2-4.25-5.36-6.69-8.53-3.53-.68.67-1.38,1.3-2.11,1.91s-.09.08.05,0l-.66.48c-.44.31-.89.61-1.36.89a27.32,27.32,0,0,1-2.5,1.34c-.83.41-.09.05.08,0l-.56.22c-.57.21-1.15.4-1.73.57a12.48,12.48,0,0,1-2.76.6c.17,0,1.08-.1.13,0l-.6.05c-.57,0-1.14,0-1.71,0s-.88-.06-1.32-.09c-.59,0,.36.07.38.07a4.7,4.7,0,0,1-.75-.13,18.93,18.93,0,0,1-2.75-.74l-.71-.26c-.56-.2.33.13.32.13s-1.23-.61-1.35-.68a13,13,0,0,1-1.12-.69l-.47-.32c-1-.67.46.45,0,0s-1.25-1.24-1.87-1.86.46.69.06.1l-.34-.48c-.33-.49-.63-1-.91-1.52a12.9,12.9,0,0,1-.6-1.24c.36.95,0-.08-.12-.46a20.21,20.21,0,0,1-.72-2.88,6.68,6.68,0,0,1-.13-.78c0,.17.11,1.09,0,.14,0-.47-.08-.93-.1-1.4,0-1,0-2,0-3,0-.27,0-.53.07-.8,0-.12.14-1.22.05-.57s0-.14,0-.21c.06-.37.13-.74.2-1.1a32.86,32.86,0,0,1,.93-3.67c.18-.57.37-1.14.58-1.69.1-.28.21-.56.32-.83-.18.46-.17.36,0,0a37.54,37.54,0,0,1,1.85-3.56,5,5,0,0,0-4.32-7.52,45.52,45.52,0,0,1-6.39-.42c.87.13.24,0-.26-.06l-1.58-.29c-1-.22-2.07-.48-3.09-.79a18.68,18.68,0,0,1-2.6-.92c1.18.56-.38-.2-.59-.31-.47-.23-.93-.48-1.38-.74a23.16,23.16,0,0,1-2.28-1.52c1,.76-.33-.32-.5-.48-.33-.3-.65-.62-.95-.95-.16-.16-.3-.33-.45-.5q-.51-.63.15.21a4.62,4.62,0,0,1-.78-1.11c-.42-.68-.78-1.38-1.14-2.09-.22-.5-.19-.42.1.25l-.24-.63c-.15-.43-.29-.86-.4-1.3s-.17-.65-.24-1-.09-.44-.13-.66c-.09-.56-.07-.44,0,.33,0,0-.09-2.41-.07-2.64s0-.43.05-.65c-.12.79-.13.91,0,.36.07-.32.12-.63.2-.95s.25-.82.38-1.23.15-.4-.14.3l.29-.58c.2-.38.45-.74.67-1.11s.25-.36-.19.22l.44-.5c1.75-1.94,2.06-5.18,0-7.07s-5.2-2.08-7.07,0Z" transform="translate(-291.77 -217.01)"/><path class="cls-2" d="M728.86,473.19c-5.57-1.92-12.47.21-15.42,5.31s-1,12.63,4.4,15.06a10.75,10.75,0,0,0,10.85-1.51,12.66,12.66,0,0,0,4.57-10.13c-.06-2.78-1.11-5.71-3.43-7.26" transform="translate(-291.77 -217.01)"/><path class="cls-2" d="M730.19,468.37a18.47,18.47,0,0,0-16.29,2.48,16.94,16.94,0,0,0-5.9,7.58,16.32,16.32,0,0,0-.62,8.43A14.91,14.91,0,0,0,718.27,499a16.21,16.21,0,0,0,17.55-7.67,17.63,17.63,0,0,0,2.37-10.42,14,14,0,0,0-5.84-10.54c-2.14-1.5-5.65-.45-6.84,1.8a5.14,5.14,0,0,0,1.8,6.84c-1.15-.81-.35-.29-.1,0a5.11,5.11,0,0,0,.4.43l-.41-.56.32.49c.11.17.2.34.3.52.53.91-.34-1.12,0-.11.05.19.13.38.18.57s.16.59.23.88l0,.3c.09.54.07.39,0-.43a7.81,7.81,0,0,0,0,1.52c0,.2,0,.41,0,.62,0,1.11.24-1.19,0-.09-.1.51-.21,1-.35,1.52-.06.19-.13.39-.2.59s-.14.39-.21.58c.28-.66.35-.82.19-.48s-.47.92-.75,1.36c-.06.1-.45.56-.43.64-.07-.25.72-.87.1-.16-.34.39-.73.72-1.1,1.09s1-.69.16-.11c-.26.17-.52.34-.79.5a7.08,7.08,0,0,0-.83.43c0-.07,1.19-.42.33-.14-.49.16-1,.32-1.49.44-.13,0-1.16.22-.26.06s-.11,0-.26,0-.52,0-.78,0l-.46,0c-.55-.05-.41,0,.41.07-.48-.15-1-.24-1.5-.37-.79-.21.22.07.33.16a5.39,5.39,0,0,0-.68-.34l-.43-.26c-.45-.29-.64-.74.2.19-.31-.34-.69-.61-1-.95-.14-.15-.26-.33-.41-.47.87.84.54.74.33.41s-.45-.7-.65-1.08c-.12-.22-.2-.46-.33-.68.63,1.07.34.86.22.49s-.32-1-.43-1.47c-.05-.2-.07-.42-.13-.63-.17-.63.12,1.39.06.45,0-.43,0-.85,0-1.28s.36-1.79-.05-.2c.13-.49.18-1,.33-1.49,0-.16.11-.32.16-.48.28-.93-.57,1.11-.11.25.18-.35.36-.7.57-1a3.53,3.53,0,0,0,.38-.57c-.34.87-.56.7-.18.27a10.59,10.59,0,0,1,1.05-1.07c.3-.27,1-.63-.17.1.23-.14.45-.31.68-.46.46-.3.94-.54,1.43-.8.7-.37-.36.16-.44.18.34-.07.7-.27,1-.37s.88-.25,1.34-.35c.26-.05.55-.07.81-.14-1.38.34-.67.09-.22.06a13,13,0,0,1,1.65,0c.24,0,.46,0,.69.06.4,0,.19,0-.64-.09l.54.1a14.5,14.5,0,0,1,1.6.43,5,5,0,0,0,6.15-3.49,5.11,5.11,0,0,0-3.49-6.15Z" transform="translate(-291.77 -217.01)"/><path class="cls-2" d="M502.4,354.89c-5.12,6.45.27,18.29,1.62,21.25,5.8,12.74,18,17.13,22.67,18.42a36.6,36.6,0,0,0,27.39-3.31s5.35-3.07,10.74-10.61a5.49,5.49,0,0,0,1.2-3.13c.05-3-3-5.24-4.23-6.14C556.56,367.51,513.05,341.45,502.4,354.89Z" transform="translate(-291.77 -217.01)"/><path class="cls-2" d="M498.08,352.37c-4.82,6.29-2.77,15.59-.08,22.33a43.31,43.31,0,0,0,4.72,9.18,39.54,39.54,0,0,0,8.93,9c12.71,9.35,30.89,10.68,44.68,2.89a32.18,32.18,0,0,0,5.3-4,42.71,42.71,0,0,0,4.29-4.43c1.78-2.1,3.71-4.3,4.62-6.94,2.4-6.93-3.79-11.87-8.93-15.11A168.44,168.44,0,0,0,533.3,351a70.77,70.77,0,0,0-17.25-4.63c-4.78-.59-10.3-.3-14.38,2.54a13.6,13.6,0,0,0-2.81,2.49c-1.64,2-2.13,5.11,0,7.07,1.82,1.67,5.31,2.17,7.07,0a7.41,7.41,0,0,1,.85-.92c.14-.14.29-.25.43-.39.32-.31-1.21.81-.28.25.35-.22.7-.44,1.08-.63.21-.11,1-.43,0,0s0,0,.22,0,.8-.24,1.2-.34l.72-.14.28-.05c.8-.15-.57.09-.67.09,1,0,2.06-.16,3.11-.14.54,0,1.07,0,1.61.09s2.55.43.68,0c1.15.24,2.34.38,3.49.63A72.55,72.55,0,0,1,526.2,359c1.32.45,2.63.93,3.94,1.43l1.9.76.89.36.5.21c-.14-.06-1.06-.45-.44-.18,2.57,1.1,5.11,2.26,7.61,3.5q6.39,3.13,12.52,6.75c1.43.84,2.85,1.7,4.24,2.6.45.29.9.58,1.35.89l.48.34.39.29c.58.42-.45-.34-.45-.35.15.17.36.29.52.44s.52.47.77.72l.43.47c.53.55-.26-.22-.19-.25s1,1.34.38.55c-.47-.63.16,0,0,.18.06.27.06.21,0-.17s-.06-.45,0,0c0-.07.24-.83,0-.34l0,.18c-.16.45-.16.47,0,.07.35-.34.11-.22,0,0s-.2.33-.31.49c-.32.47-.67.93-1,1.39.05-.08.42-.52.06-.1s-.47.59-.71.87a42.3,42.3,0,0,1-4.08,4.28c-.53.49-1.08,1-1.64,1.42L553,386c-.46.39.93-.7.46-.36l-.7.52c-.39.27-.78.54-1.18.78-.61.36-1.24.68-1.88,1-.36.18-.72.34-1.08.51s-.56.44.22-.1a3.84,3.84,0,0,1-.85.33,35.57,35.57,0,0,1-5.55,1.6c-.54.11-1.07.21-1.61.3a4.41,4.41,0,0,1-.62.09c1,0,.32,0,.08,0-1.15.1-2.3.2-3.45.22s-2.25,0-3.37-.11c-.54,0-1.07-.09-1.6-.16.21,0,.93.16-.07,0l-1.17-.21a37.05,37.05,0,0,1-4-1c-1-.32-2-.69-3-1.07-.76-.3,1.15.51.22.09l-.78-.35q-.95-.45-1.86-.93a36.35,36.35,0,0,1-3.78-2.31c-.3-.2-.58-.41-.87-.62-.7-.51.25.15.27.22,0-.09-.39-.32-.49-.4-.67-.54-1.31-1.11-1.94-1.71s-1.11-1.1-1.64-1.68c-.3-.34-.61-.69-.9-1a3.12,3.12,0,0,0-.44-.55c.23.14.52.71.14.16a32.38,32.38,0,0,1-3-5c-.21-.44-.42-.9-.62-1.35l-.27-.61c-.37-.85.5,1.24,0,.07s-1-2.56-1.39-3.88c-.22-.75-.43-1.5-.6-2.26-.09-.37-.17-.73-.24-1.1l-.12-.63c0-.19-.21-1.14-.05-.3s0-.41,0-.62c0-.43-.05-.86-.05-1.29s0-.74,0-1.11c0-.21.05-.42.05-.63,0-.6-.26,1.26,0,.24.08-.35.15-.7.24-1.05a4.37,4.37,0,0,0,.34-1c.11.45-.46.91-.14.36.11-.17.19-.36.3-.54a8.58,8.58,0,0,1,.69-1c1.6-2.09.4-5.69-1.79-6.85C502.28,349.18,499.78,350.14,498.08,352.37Z" transform="translate(-291.77 -217.01)"/><path class="cls-2" d="M449.72,375.19a14.32,14.32,0,0,0,6,8.45c4.91,3.19,11.66,2.94,16.64-.13A19.8,19.8,0,0,0,481.24,369a22.41,22.41,0,0,0-.71-8.85c-4.18-1.16-8.41,1.29-12,3.64l-14.91,9.61" transform="translate(-291.77 -217.01)"/><path class="cls-2" d="M444.9,376.52a19.46,19.46,0,0,0,20.31,14.34,22.45,22.45,0,0,0,12.71-5.26A24.69,24.69,0,0,0,485,374.82a27.09,27.09,0,0,0,.32-16,5,5,0,0,0-3.5-3.49c-6.09-1.52-11.54,1.33-16.52,4.54l-14.28,9.21c-2.2,1.41-3.31,4.5-1.8,6.84s4.49,3.31,6.84,1.79l13.05-8.4c2-1.29,4-2.52,6.07-3.64.53-.24.53-.26,0,0,.27-.11.54-.21.82-.3.54-.19,1.09-.31,1.64-.45s.56-.1-.08,0q.42,0,.84,0c.58,0,.55,0-.08-.07a8.45,8.45,0,0,1,.84.19l-3.5-3.49c.17.6.33,1.21.45,1.83.06.3.11.61.16.92-.07-.55-.07-.53,0,.07a29.49,29.49,0,0,1,0,3.76c0,.32-.06.63-.1.94.1-.7.1-.76,0-.19s-.19,1-.32,1.49-.26,1-.42,1.47c-.08.23-.64,1.86-.18.6a14.53,14.53,0,0,1-1.43,2.7c-.2.32-.42.63-.63.95s-.3.41.09-.1c-.15.2-.32.39-.48.58a8.6,8.6,0,0,1-2.18,2.12c1.12-.53-.26.17-.52.34-.43.28-.88.54-1.34.78l-.7.34c.6-.24.63-.26.11-.06s-1,.34-1.49.48-1,.23-1.53.33-.51.09.17,0q-.39,0-.78.06a9.91,9.91,0,0,1-2.72-.09c1.37.34-.32-.1-.58-.16-.5-.13-1-.3-1.48-.45s-.48-.19.13.06l-.7-.35c-.46-.24-.88-.53-1.32-.8s-.41-.29.11.1c-.2-.16-.39-.33-.58-.5a13.51,13.51,0,0,1-1.06-1.08c-.17-.19-.33-.38-.49-.58.4.51.43.54.11.09s-.54-.85-.78-1.3c-.12-.22-.23-.45-.34-.68.25.62.27.67.07.15s-.31-1-.44-1.45a5,5,0,0,0-9.65,2.66Z" transform="translate(-291.77 -217.01)"/></g></svg>