<?xml version="1.0" encoding="UTF-8" standalone="no"?>
<svg
   id="Слой_1"
   data-name="Слой 1"
   viewBox="0 0 634.7 634.7"
   version="1.1"
   sodipodi:docname="whatsApp.svg"
   inkscape:version="1.2.2 (732a01da63, 2022-12-09)"
   xmlns:inkscape="http://www.inkscape.org/namespaces/inkscape"
   xmlns:sodipodi="http://sodipodi.sourceforge.net/DTD/sodipodi-0.dtd"
   xmlns="http://www.w3.org/2000/svg"
   xmlns:svg="http://www.w3.org/2000/svg">
  <sodipodi:namedview
     id="namedview2725"
     pagecolor="#ffffff"
     bordercolor="#000000"
     borderopacity="0.25"
     inkscape:showpageshadow="2"
     inkscape:pageopacity="0.0"
     inkscape:pagecheckerboard="0"
     inkscape:deskcolor="#d1d1d1"
     showgrid="false"
     inkscape:zoom="0.3718292"
     inkscape:cx="-590.32481"
     inkscape:cy="318.69471"
     inkscape:window-width="1500"
     inkscape:window-height="938"
     inkscape:window-x="-6"
     inkscape:window-y="-6"
     inkscape:window-maximized="1"
     inkscape:current-layer="Слой_1" />
  <defs
     id="defs2717">
    <style
       id="style2715">.cls-1{fill:#22565a;}.cls-2{fill:#fff;fill-rule:evenodd;}</style>
  </defs>
  <circle
     class="cls-1"
     cx="317.35"
     cy="317.35"
     r="317.35"
     id="circle2719"
     style="fill:#800080;fill-opacity:1" />
  <g
     id="WA_Logo"
     data-name="WA Logo">
    <path
       class="cls-2"
       d="M745.86,407.47a200,200,0,0,0-142.41-59c-111,0-201.28,90.27-201.32,201.24A200.75,200.75,0,0,0,429,650.3L400.44,754.59l106.72-28a201.22,201.22,0,0,0,96.21,24.49h.08c110.95,0,201.27-90.29,201.32-201.25A200,200,0,0,0,745.86,407.47ZM603.45,717.11h-.07a167.09,167.09,0,0,1-85.16-23.31l-6.11-3.63-63.33,16.61,16.9-61.73-4-6.33a166.84,166.84,0,0,1-25.58-89c0-92.23,75.1-167.26,167.4-167.26a167.33,167.33,0,0,1,167.26,167.4C770.74,642.07,695.68,717.11,603.45,717.11Zm91.78-125.28c-5-2.51-29.76-14.68-34.37-16.36s-8-2.52-11.32,2.52-13,16.36-15.93,19.72-5.86,3.77-10.89,1.25-21.24-7.82-40.46-25c-15-13.34-25-29.81-28-34.84s-.31-7.76,2.21-10.26c2.26-2.26,5-5.88,7.54-8.81s3.35-5,5-8.39.84-6.3-.42-8.81-11.32-27.27-15.51-37.34c-4.08-9.81-8.23-8.48-11.31-8.63s-6.29-.18-9.65-.18A18.49,18.49,0,0,0,518.76,463c-4.61,5-17.6,17.2-17.6,41.95s18,48.67,20.53,52,35.48,54.15,85.94,75.93a288.3,288.3,0,0,0,28.67,10.6c12.05,3.82,23,3.28,31.69,2,9.66-1.44,29.76-12.17,34-23.91s4.19-21.82,2.93-23.91S700.26,594.35,695.23,591.83Z"
       transform="translate(-275.85 -238.87)"
       id="path2721" />
  </g>
</svg>
