<?xml version="1.0" encoding="UTF-8" standalone="no"?>
<svg
   id="Слой_1"
   data-name="Слой 1"
   viewBox="0 0 634.88 634.87"
   version="1.1"
   sodipodi:docname="insta.svg"
   inkscape:version="1.2.2 (732a01da63, 2022-12-09)"
   xmlns:inkscape="http://www.inkscape.org/namespaces/inkscape"
   xmlns:sodipodi="http://sodipodi.sourceforge.net/DTD/sodipodi-0.dtd"
   xmlns="http://www.w3.org/2000/svg"
   xmlns:svg="http://www.w3.org/2000/svg">
  <sodipodi:namedview
     id="namedview37"
     pagecolor="#ffffff"
     bordercolor="#000000"
     borderopacity="0.25"
     inkscape:showpageshadow="2"
     inkscape:pageopacity="0.0"
     inkscape:pagecheckerboard="0"
     inkscape:deskcolor="#d1d1d1"
     showgrid="false"
     inkscape:zoom="1.0915621"
     inkscape:cx="7.7870054"
     inkscape:cy="318.3511"
     inkscape:window-width="1500"
     inkscape:window-height="938"
     inkscape:window-x="-6"
     inkscape:window-y="-6"
     inkscape:window-maximized="1"
     inkscape:current-layer="Слой_1" />
  <defs
     id="defs26">
    <style
       id="style24">.cls-1{fill:#22565a;}.cls-2{fill:#fff;}</style>
  </defs>
  <circle
     class="cls-1"
     cx="317.44"
     cy="317.44"
     r="317.44"
     id="circle28"
     style="fill:#DB5461;fill-opacity:1" />
  <path
     class="cls-2"
     d="M600,409c53.37,0,59.69.2,80.76,1.16,19.49.89,30.07,4.15,37.12,6.88A66.16,66.16,0,0,1,755.81,455c2.74,7,6,17.62,6.88,37.11,1,21.07,1.17,27.39,1.17,80.76s-.21,59.69-1.17,80.77c-.89,19.48-4.14,30.07-6.88,37.11a66.18,66.18,0,0,1-37.93,37.93c-7,2.74-17.63,6-37.12,6.88-21.07,1-27.39,1.17-80.76,1.17s-59.69-.21-80.76-1.17c-19.49-.89-30.07-4.14-37.12-6.88a66.18,66.18,0,0,1-37.93-37.93c-2.74-7-6-17.63-6.88-37.11-1-21.08-1.17-27.4-1.17-80.77s.21-59.69,1.17-80.76c.89-19.49,4.14-30.07,6.88-37.11a66.16,66.16,0,0,1,37.93-37.94c7.05-2.73,17.63-6,37.12-6.88,21.07-1,27.39-1.16,80.76-1.16m0-36c-54.28,0-61.09.23-82.41,1.21s-35.8,4.35-48.51,9.29a102.23,102.23,0,0,0-58.46,58.45c-4.94,12.71-8.31,27.24-9.29,48.52s-1.2,28.12-1.2,82.4.23,61.09,1.2,82.41,4.35,35.8,9.29,48.51a102.28,102.28,0,0,0,58.46,58.46c12.71,4.94,27.24,8.32,48.51,9.29s28.13,1.2,82.41,1.2,61.09-.23,82.41-1.2,35.8-4.35,48.51-9.29a102.28,102.28,0,0,0,58.46-58.46c4.94-12.71,8.31-27.24,9.29-48.51s1.2-28.13,1.2-82.41-.23-61.09-1.2-82.4-4.35-35.81-9.29-48.52a102.23,102.23,0,0,0-58.46-58.45c-12.71-4.94-27.24-8.32-48.51-9.29S654.28,373,600,373Z"
     transform="translate(-282.56 -255.42)"
     id="path30" />
  <path
     class="cls-2"
     d="M600,470.23A102.64,102.64,0,1,0,702.63,572.86,102.63,102.63,0,0,0,600,470.23Zm0,169.25a66.62,66.62,0,1,1,66.62-66.62A66.62,66.62,0,0,1,600,639.48Z"
     transform="translate(-282.56 -255.42)"
     id="path32" />
  <circle
     class="cls-2"
     cx="424.13"
     cy="210.75"
     r="23.98"
     id="circle34" />
</svg>
